<svg id="base_map" data-name="base map" xmlns="http://www.w3.org/2000/svg" viewBox="0 0 269.23 228.81"><defs><style>.cls-1{fill:#015067;stroke:#fff;stroke-width:0.84px;}.cls-2{fill:none;}</style></defs><path class="cls-1" d="M424.34,247.92a14.48,14.48,0,0,1-2.53,1.49c-1.35.6-2.84,1.49-4.47,1.34s-3,1.35-4.63,1.35-2.68,1.34-5.06,1.34-8.95,2.38-10.29,2.23-4.17.75-5.81,1.34-3.73,1.34-4.77.9-2.09.59-4.62.15-.15-1.2-.74-1.64-1.49-1.2-.6-1.64,1-2.39.3-2.39-1.94-.29-2.09-1.19.18-2.4,1.19-2.68c1.64-.45,1.79-2.39.45-1.79s-1.43-.55-2.07-1.74a13.93,13.93,0,0,1-2.87,2.22c-1.3.65-2.78,1.39-3.06,2.41s-2,2.23-3,2.69-2.5,1.11-3,2.23a7.11,7.11,0,0,1-3.34,3.24,6.46,6.46,0,0,0-2.87,2.32c-.83,1-2.22.27-3.06,1.11s-.68,1.56-.88,2.44c1.09.36,2.79,1.7,4.62,1.7s2.79,1.82,2.91,2.91a6.55,6.55,0,0,0,2.43,3.77,3.47,3.47,0,0,1,1.7,3v22.11c0,1.46,1,2.07,1,3.53s-1.1,1.94-1.1,3.28v4.37c0,1,1.1,2.19,1.1,3.29h8c1,0,1.85-.81,3.4-.81h17.07c1,0,1-.91,1.83-1.26s.79-.87.79-1.48-.79-.7-.79-1.66.7-1.4,1.57-1.49,1.31-1.05,2.88-1.48,2.36-1.23,2.36-2,1.05-1.22,2.36-1.22a5.18,5.18,0,0,1,3.76,1.66c.7,1,1.22,1.74,2.18,1.74h8.65c1.13,0,1.75.61,1.31-1.74s-1-3.76-1-5.42v-6.2c0-1.49-.87-1.84-.87-3.06s1-1.4,1-2.27-.78-.53-.78-2V267c0-1.22.35-1.83,1.05-2.09s1.13.43,2.09.09,1.57-.27,1.75.52.26,2,1.22,2H432c.7,0,.87-.88,1.83-1.14s1.22-1.31,2-1.31a1.5,1.5,0,0,0,1-.52c-.29-.89.28-1.83-.27-2.56a3.94,3.94,0,0,0-2.74-1.55c-1.19-.1-.73-.83-1.56-1.83s-2.28-1.46-2.28-2.92V250.8c0-1.09-.55-1.82-1.55-1.82s-1.56,1-2.29.45A6.07,6.07,0,0,1,424.34,247.92Z" transform="translate(-168.03 -83.25)"/><rect class="cls-2" width="18.83" height="32.37"/></svg>