<svg id="base_map" data-name="base map" xmlns="http://www.w3.org/2000/svg" viewBox="0 0 469.45 434.66"><defs><style>.cls-1{fill:none;stroke:#006838;stroke-linejoin:round;stroke-width:3px;stroke-dasharray:3 3;}</style></defs><path class="cls-1" d="M732.14,255.8a26.09,26.09,0,0,1,0,4.57c-.09,2.57-2.36-.28-2.45,2.28,0,.8.24,3.57-.49,3.54-4.18-.14-1.4,4-1.54,7-.06,1.43-2,3.06-6.22,6.38-1.37,1.08-.44,3.39-.47,4.1a4,4,0,0,1-2.12,2.54c-1.92.31-1.56,1.09-2.34,2.23-1.35.52-.45,1.26-.05,1.56.61.46,0,1.83,1.55,1.88,1.8.06,1.62,2,0,2.35-2,.13.34,1.46.82,3a10.34,10.34,0,0,1,0,3c-.06,1.63-.46,1.17-2,1.12-1.05,0,.07,1.87-.45,2.36s-2.35-.77-2.38.28c0,.48,0,1,0,1.43" transform="translate(-687.45 -23.61)"/><path class="cls-1" d="M714,305.39l-.06,1.76c0,1.18-.09,2.37-.13,3.55a4.4,4.4,0,0,0,0,1.64c.19,1.13.95,1.82,1.95,2.86a1.2,1.2,0,0,0,.91.34l1.37,0c.72,0,.27,2.77.24,3.55,0,1.7.42,4.09-.3,5.26-.16.26-.49.63-.42.67a.88.88,0,0,1,.5.52,3.23,3.23,0,0,1-.06,1.84l-.09,2.39,1.65,1.75c.21.23-.17.52-.47.53-2.12,0-1.2,2.66-1.42,4.8-.15,1.34.17,1.81-.73,2-.57.11-.57.42.14.58s.58,1.13.27,1.74c-.15.26-.31.52-.49.78" transform="translate(-687.45 -23.61)"/><path class="cls-1" d="M716.76,342a30.21,30.21,0,0,1-4.42,4.41c-2.84,2.65-4.7,3.65-4.84,7.63-.14,4.16-5.21,10.81-9.49,10.66-.73,0-.47,2.74-.5,3.54,0,1.53.6,1.86,1.65,3,.84.9-.06,2.36.51,3,.79.87,2.05-.63,2.72.83,1.19,2.59,2.26,6,5.29,3.15l3.71-3.44c.54-.5,1.91.08,2.63-.07l9.3-2c1.88-.4,3.92.34,5.85-.07,5.48-1.19,10.22-2.57,15.72-1,2.72.79,6,2.92,8.19.86,1.83-1.72,3.86-1.06,6.32-1,5.12.18,10-.23,14.76,1.85,4.94,2.19,9.81,5,14.85,6.89q8.43,3.18,16.87,6.31a25.66,25.66,0,0,1,6.23,3.66c2.58,1.86,3.49,2.22,6.63,2.33h.11" transform="translate(-687.45 -23.61)"/><path class="cls-1" d="M800.62,253.5h8c1,0,1.84-.81,3.4-.81h8.43" transform="translate(-687.45 -23.61)"/><path class="cls-1" d="M956.73,72.67c.43-.56,2.32.81,2.36-.29,0-.61-.29-2,.45-2,2.76.1,2.05-1,2.14-3.46,0-1.38-.69-2.09-1.58-3-.55-.52-.83-.73-.77.83.12,3-1.08,5.55-5.26,5.4-1.73-.06-4.41.68-4.34-1.33.06-1.57.11-3.15.17-4.72.09-2.57,2.37.31,2.49-3.09,0-.8,4.34-2.69,5.14-2.66,1.58.05,2,.52,2.05-1.12,0-.88.28-1.09-.48-1.38l-6-2.23c-2.21-.83-2.17.65-2.07-2.27.06-1.57.78-3.15.84-4.72.09-2.64.31-3,2.28-4.78,1-.9,2.55-.08,3.86-1.3,1.55-1.45,3.37-7.2,1.8-8.89a30,30,0,0,1-2-4.18c-.51-1.08-1.83-.88-3.57.74-.29.87.37,1.19,1.07,1.75s-2.63,1-1.23,2.94c1.58,2.22,1.24,1.8-.71,3.63-.69.64-2.83.15-3.81.11-1.75-.06-1.11-.79-1.09-2.41,0-2.13.12-2.4,1.66-3.84.61-.58,1.67-2.25.94-3.16-.6-.75-8.36-.21-9.49-.25l-1.07,0s0,.06,0,.09" transform="translate(-687.45 -23.61)"/><path class="cls-1" d="M953.44,110.55c1.34.13,2,.06,2-2,0-.57,1.47-.64,1.93-.36s.78,1.25,1.08.88c1-1.25,4.17-1.42,4.22-.24s-.65,4-.29,4.34c1.08,1.16,2.37-.1,2.41-1.1l.27-7.9c.06-1.62-.54-2.76,1.29-2.7,1.09,0,1.38.46,1.31,1.27,0,.32.23.75.48.54,1.7-1.42,4.19-3.19,4.26-5.16.09-2.81.25-3.56,2-5.29.31-.33.69-.89,0-.93-1.19-.07-1.74.17-1.79,1.48-.05,1.55-.71,1.82-1.86,2.89s-4.55.45-6.24.39c-2.51-.08-1.4-3-1.32-5.17s-.09-2,2.06-1.93c.75,0,.43-1.69.46-2.33.14-4-2.34-2.4-4.46-.4-1.06,1-5,.12-5.8-.79-1.87-2-3.8-3.22-3.71-6a4.25,4.25,0,0,1,2.53-3.52c.68-.39,2.53,1.18,3.78,2.53,1.79,1.94-.54,3.18,2.74,3.3,1.89.06,3.62.44,2.8-2.27s-3-1.69-4.66-2.54c-1.17-.6-3.3-3.36-2.18-4.83" transform="translate(-687.45 -23.61)"/><path class="cls-1" d="M869.32,26.79l-52.38.37c-2.31,0-4.63,0-7,0V45c0,1.09-1.75.88-1.75,1.75s.88,1.32.88,2.41v3.06h9.19s3.65.49,5.26,2.63c1.31,1.75.65,2,2,2h2.63v5.48h9.63v4.59c0,.88-1.1.22-1.1,1.1s1.21.22,1.21,1.2v2.52" transform="translate(-687.45 -23.61)"/><path class="cls-1" d="M925.54,26.56l-3.13-.11c-11.7-.41-23.5.11-35.21.2l-17.88.14" transform="translate(-687.45 -23.61)"/><path class="cls-1" d="M940.51,27.1s0-.06,0-.09c-4.5-.15-10.17-.3-15-.45" transform="translate(-687.45 -23.61)"/><path class="cls-1" d="M914.9,146.57c-.7.89-1.2,2.09-.76,2.59a3.09,3.09,0,0,1,.57,2V155c0,.64-.89,1.39-.63,1.9s1.64,1.26,1.83,2.21,1,1.26,1.45,2.27h15a3.61,3.61,0,0,0,.55-1.4c0-.55-.53-1.06-.49-1.6.17-2.3.19-4.62.25-6.93a1.08,1.08,0,0,1,.74-.95,17.44,17.44,0,0,0,3.63-2.24c.27-.21.47-.08.44.14-.13,1.23-.48,3.7-.12,4.21,1.06,1.5,2.38-.38,2.29,2.46,0,1.2,4.2-1.08.4-4.48-1.87-1.68,1.06-1.58,1.83-2.56s2.18-3.95,2.65-4.39c1.77-1.64,2.56,1.35,2.69-2.15a9,9,0,0,1,5-7.32c1.68-.75,3.76.51,4.8-2.19s-.49-2.26-2.27-2.47c-.86-.11-4.75.28-4.73-.54s-.17-4.36.53-4.33c3.4.11.55,2.38,3.1,2.46,1.65.06,3.51.89,3.58-1s2.47-2.28,2.53-3.83c0-.45.3-1.57.06-1.78l-.58-.48a9.76,9.76,0,0,0-1.8.16c-1.63.06-3.31-.11-4.93-.17-1.81-.06-4.58.77-4.51-1.33.11-3-.57-8.33,3.86-8.17.61,0,1.14.09,1.59.13" transform="translate(-687.45 -23.61)"/><path class="cls-1" d="M800.44,118.36h26.7c4.31,0,4.83.85,6.94.85h3.47c.73,0,.84-1,1.78-1s1.79,1,2.84,1h4.52V100c0-.85-1.05-1.9-2.21-3s-5-4.83-5.67-5.46S837,91,837,90V80.67" transform="translate(-687.45 -23.61)"/><path class="cls-1" d="M846.69,105.13V100c0-.85-1.05-1.9-2.21-3s-5-4.83-5.67-5.46S837,91,837,90V79.84c0-.75.9-.75.9-1.81V71.68" transform="translate(-687.45 -23.61)"/><path class="cls-1" d="M914.9,146.57h-2.1v-8.73H909c-.86,0-.57,1.43-1.43,2.3s-1.15,2.1-2.2,2.38-1.34,1.63-2.1,2.59a4.79,4.79,0,0,1-3.54,1.81A7,7,0,0,0,896,148c-.76.58-.86-1.14-1.52-1.34s-.58-1.24-.58-1.81,0-1.63-1.14-1.63-1.53-.86-2.49-1.24-.38-2.48-1.43-2.48a4,4,0,0,1-2.58-1.53" transform="translate(-687.45 -23.61)"/><path class="cls-1" d="M846.69,105.13V142.3h37.42v-3.84l2.12-.52" transform="translate(-687.45 -23.61)"/><path class="cls-1" d="M950.8,240.68c-14.22.36-28.45.63-42.64,1" transform="translate(-687.45 -23.61)"/><path class="cls-1" d="M906.45,241.93c.26,1,.89,1.69.35,2.58s-.53,2.76.27,3.47,1.33,1.24.89,2.22-1.42,1.6-1.42,2.66v3.56c0,1.07.62,2.49,1.42,2.49h3.2c.89,0,1.15-1,2.49-1s1.2,1.82,2.13.89.62-1.78.27-2.84-1.16-3.12-2.23-3.12H911c-.89,0-1.33-2.13,0-2.13s2.13-.44,3.91-.44a3.68,3.68,0,0,1,3.11,1.42c.54.62,1.69,1.6,1.78,2.75s.89,2.31.09,3.47a6.75,6.75,0,0,0-1.16,3.91,4.17,4.17,0,0,1-1.77,3.38c-1,.62-3.38-.09-4,.89a2.11,2.11,0,0,0,0,2.75,3.69,3.69,0,0,0,2.57,1.34H919c.89,0,1.69-1,2.84-1s1.69.89,2.76.89a10.19,10.19,0,0,0,3.47-.71,8.31,8.31,0,0,0,2.66-1.43,1.34,1.34,0,0,1,2.31.63c.54,1.33,1.69,2.13,1.69,3.29a11.92,11.92,0,0,0,.8,3.82c.45,1.15.18,2,1.07,2.66s2.1.11,2.52,1.37" transform="translate(-687.45 -23.61)"/><path class="cls-1" d="M982.44,239.72q-3.6.1-7.17.24c-8.14.3-16.3.52-24.47.72" transform="translate(-687.45 -23.61)"/><path class="cls-1" d="M1006.76,239.27h-.07c-7.94,0-16.14.19-24.25.45" transform="translate(-687.45 -23.61)"/><path class="cls-1" d="M939.1,279.74s1.69.6,1.51,1.63-.59,1.1-1.11,1.79-1.55.78-1.55,2.07.69,2.33,1.55,2.33h3.2a2,2,0,0,1,2.07,1.38c.17.87.6,1.64-.43,2.34a12.29,12.29,0,0,0-2.5,1.64c-.61.69-.18,1.55,1.89,1.55a9,9,0,0,0,4-1c.69-.25,1.38.87,1.38,2.59v5.62c0,1.72-.78,2.93-1.3,4.31s-1.9,1.47-2.33,2.59-1.21,2.42.43,3,2.07.35,3.46-.08,2.59-1,3.36-.18,1.47,1.3,1,1.56-1,.75-1,.75" transform="translate(-687.45 -23.61)"/><path class="cls-1" d="M939.1,279.74s1.69.6,1.51,1.63-.59,1.1-1.11,1.79-1.55.78-1.55,2.07.69,2.33,1.55,2.33h3.2a2,2,0,0,1,2.07,1.38c.17.87.6,1.64-.43,2.34a12.29,12.29,0,0,0-2.5,1.64c-.61.69-.18,1.55,1.89,1.55a9,9,0,0,0,4-1c.69-.25,1.38.87,1.38,2.59v5.62c0,1.72-.78,2.93-1.3,4.31s-1.9,1.47-2.33,2.59-1.21,2.42.43,3,2.07.35,3.46-.08,2.59-1,3.36-.18,1.47,1.3,1,1.56-1,.75-1,.75c1.59,0,1,1,2.81,1H965" transform="translate(-687.45 -23.61)"/><path class="cls-1" d="M952.7,313.61c1.59,0,1,1,2.81,1H965c.14,4-.88,3.79-2.07,8s-2.09,3.59-2.39,6.12-1.34,3.14-1.34,3.14a35.26,35.26,0,0,1,0,4c-.15.75-1.79,1.2-1.79,1.2v4.62" transform="translate(-687.45 -23.61)"/><path class="cls-1" d="M970.42,341.19a10.18,10.18,0,0,0-2.66-.79c-1.33-.15-1.66-.9-4.06-.42-1.4.28-.84.42-2.39.14s-1.4-.42-2.24.42a4.67,4.67,0,0,1-1.63,1.1V337s1.64-.45,1.79-1.2a35.26,35.26,0,0,0,0-4s1-.6,1.34-3.14,1.19-1.94,2.39-6.12,2.21-4,2.07-8" transform="translate(-687.45 -23.61)"/><path class="cls-1" d="M1026.33,239.09c-6.53.12-13.07.18-19.57.18" transform="translate(-687.45 -23.61)"/><path class="cls-1" d="M1074.33,278.21c-.92-.28.59-1.77.22-2.23s-.39.39-1.09-.22-.32-1.75-1.15-2.28.34-1.12.81-2.87c.25-.93-1-1.21-.85-2.17.23-2.09,1-1.32,1-3.25,0-1.19.08-2.37.12-3.56a3.57,3.57,0,0,1,.07-1.85c.46-1.22,2.77-.37,3.45-2.79.21-.74-1.13-1.82-1-3a1.74,1.74,0,0,1,2.1-1.73c.14,0,.31-.13,0-.38l-1.32-1.42c-.18-.19-.09-.47.11-.44,2.89.36,1.34-2.75,2-4.14.5-.93-.07-1.15,0-1.79.09-2.62,1.37.19,2.42-1.1.68-.84,1-3.78,1.11-5.43,0-.28,0-.72-.29-.38-.56.56-1,1.14-1.62,1.69-.21.25-.57.32-.48-.21s0-.86,0-1.29-.33-.55-.52-.52c-13.23,1.55-29.35,1.67-43.44,2.07q-4.77.12-9.57.21" transform="translate(-687.45 -23.61)"/><path class="cls-1" d="M1091.83,331h.07c1,0,0-1.94.63-2.51,1.22-1.12,1.79-2.12,3.46-2.06.72,0,3,.47,3.56.12,1.36-1-1.07-2.4.68-2a2.17,2.17,0,0,0,1.86-.81c.6-1.06-1.41-2.6-2.12-.47a1.89,1.89,0,0,1-2.72.82,3.29,3.29,0,0,1-.78-1.11,13.08,13.08,0,0,1-1.4-4.1c.12-3.57-2.36-.49-2.24-4.07.06-1.62-1.42-1.91-.72-2.87s1.46-6.13,1.06-7-1.22,3.64-2.42,2.29-1.67-3.73-2.2-4.83.06-1.87.12-3.55-.39-1.19-2-1.25c-.81,0-.21-1.72-.28-2.38s.52-2.36-.29-2.39c-1.58-.06-2,.37-2-1.26,0-1.3-1.65-1.36-2.5-1.43s-1.24-1.37-2.11-2.27.57-1.58.08-2.37-1.57-.39-2.52-.24-.35-1-1.31-1.44.64-.82-.6-1.82,0-3.55-.89-3.84" transform="translate(-687.45 -23.61)"/><path class="cls-1" d="M1072.75,346.94c-1-2.79.63-5.15,2.44-6.86.84-.79,2.31.15,3.42-.89,1.72-1.6,1.46-1.6,3.07.11,3.14,3.34,3.25-1.08,3.33-3.43,0-.73,2.76-.28,3.56-.25,1.89.06,1-.7,1.27-2.3.42-2.24-.52-2.41,2-2.33" transform="translate(-687.45 -23.61)"/><path class="cls-1" d="M1097.82,375.89c-.4-4.52-4.75.34-4.59-4.18,0-1.62-.54-2.75,1.27-2.69,1.14,0,1.4.49,1.3,1.37-.35.95.21.66.46.46,1.72-1.37,4.52-3.24,4.17-.28-.29.67-.11,1.24.62.41.92-1.05,1.43-2,2.55-.81,1.58,1.68,1.66,1.38,3.85,1.66s2.28,0,3.85,1.68a2.82,2.82,0,0,0,2.51,1c.62,0,.34-.75.19-1.09l-1.32-2.87c-.38-.88,0-1.19,1.28-1.24a3.5,3.5,0,0,0,3.11-1.86c1.32-2.28-.78-2.41,2.84-2.28,2.76.1,2.06,1.48,4.28,2.53a9.7,9.7,0,0,0,3.52.19c.88,0,.74-.53.52-.76a4.79,4.79,0,0,1-1.53-2.34c-.08-1.08-.64-1.15-1-.85-1.74,1.45-3.85,2.64-3.73-.69,0-1.5-1.48-2.4-3-2.75-1.69-.37-.9-1.06-.4-1.56a2.4,2.4,0,0,1,1.53-.89c1.09,0,3.35.51,4.36.15,1.69-.61,1.63-2.31,3.63-2.23,1.45,0,2.14-.74,3-1.68.56-.49.56-1-.27-1-2.36-.08-4.61.24-7,.16-1.5.05-1-.74-.55-1.23,1.28-1.43,3-3.41,4.16-3.37,2.93.1,4.34,1.07,4.45-2.22,0-1.61.63-2.33-1.1-2.39s-1.16-.48-1.1-2.05c.08-2.34-4.33,1.39-4.63,1.68-1.39,1.3-1.94,4.86-2.61,6.65-.27.74-2.66.62-4,.4-.55-.09-1.24,0-.89-1.2s.68-2.34.12-3.38c-.27-.51-1.91-.07-2.35-.29-1.28-.64-2.75-2.69-3.88-4.1-.57-.59-.31-1,.42-.75,1.76.61,2.32-2.29,4.08-2.23,1.58.06,2,.51,2-1.13,0-1,.31-1.18-.7-1.21-2.1-.08-4.24-.06-6.34-.23-1.83-.14-2.48-.35-3.35-1.15-.36-.33-1.43-.68-1.48,1.44,0,1.73-.8,2.69-2.78,4.54-1.22,1.14-1.66,2-3.31,1.94-1.81-.06-1.09.69-1.26,2.3-.27,2.45-.18,5-.27,7.47-.12,3.62-.74.33-2.44,1.92-1.24,1.15,1.26,2.4-1.26,2.32-2.21-.08-6.29.58-8.28-.29-1.82-.8-3.53-5.45-2.12-7.18s2.31,1.81,2.44-1.91c0-.69-2.13-.66-2.61-.22-2,1.86-3.68,1.95-5.59,3.14a2.7,2.7,0,0,1-2.21-.17c-1.58-.66-2.73-.64-3.8-3.61" transform="translate(-687.45 -23.61)"/><path class="cls-1" d="M1060.71,401.75a4.76,4.76,0,0,1,2.68-.61l5.47.19c2.76.09,2.17-1.44,4.45-2.22,3.07-1.07,2.32,1.71,2.25,3.63-.08,2.41-.33,3.33,1.36,5.13,1.34,1.44.71,3.49.64,5.4,0,.56,0,1-.06,1.44-.21,1.19-.26,1.9.73,1.5,2.35-.94,5.44-.16,8-.07,1.81.06,3.63,1.6,5.18,2.45,1.18.64,2.71.27,4,1,3.74,2,6.79,4.22,11.09,4.37,2.06.08,2.54,2.47,4.13,2.53s3.58.56,4.29,2.51c.28.8-.74,4.71.2,4.75,2.92.1,2,1.32,1.87,4.06,0,1,2.45.94,3.48,2.05a12.07,12.07,0,0,0,3.49,1.68c.26.87-.39,2.81-.93,4.76-.31,1.09-1.77,2.59-2.58,3.47s-3.52,2.27-3.57,3.71c-.06,1.68,0,2.16.71,2.93,1,.94,1.85-.2,2.26-.91a27.9,27.9,0,0,0,1.35-2.57c.43-1,0-2,.64-2.64,2.28-2.12,3.91-8.26,6.87-9,1.11-.26,3.57.13,4.74.17,2.33.08,2.38-.28,2.3,2.09-.1,2.76,3.43,3,5.75,3,.57.1,1.56-.26.19-1.14-.4-.43-1.07-1.46-.23-2.27,1.79-1.73,3.34-3.63,5.9-3.54,5.43.19.53-2.42,3.08-4.81,1.69-1.57,2.26-1.83,2.34-4.11,0-1.17,2.36.78,2.44-1.46,0-.81.48-3.55-.25-3.57-1.74-.06-2.34-.14-2.08-1.72.23-.67-.08-.67-1.3.06-1.78,1.05-4.47,2.3-5.72,1.34s1.52-2.31-1.1-2.4c-2.27-.08-.35-.91-1.1-2.42-.48-1-1.81-1.49-2.28-2.46-.76-1.5,1.16-2.32-1.11-2.4s-.37-.91-1.1-2.43c-.29-.58-2.09-2.62-2.55-2.2-1.22,1.13-2.18,1.57-2.23,3.23-.05,1.36-.92,1.75-2.41,1.11-2.66-1.13-1.4-4.8-3.38-4.87s-5.95.68-5.88-1.37c.08-2.25-.88-.41-2.32-1.26a7.74,7.74,0,0,1-1.78-1.86c-.21-.38-.78-.53-.63.14.43,1.86-1.11,1.6-3.08,1.53-2.42-.09-4.09.57-4-1.63.25-.78-.12-.78-.56-.59l-3.11,1.43c-1.12.66-.94-.16-.93-.43.07-1.62-.79-2.28-2.08-3.65-.38-.41.85-1.43,1.66-2.08.49-.29.65-.6-.7-.51a8.09,8.09,0,0,1-3.63-.5c-.36-.34,0-2,.21-3.31,0-.48.36-1.41-.72-.61s-3.2,1.94-4,1.77-2.55-2.94-3.1-3.33c-.7-.5-1.89-1-3.12-1.79a1.23,1.23,0,0,1-.51-1.66c.29-.86.85-1.23,1.74-2,.21-.18.72-.88-.63-.72s-1.14-.85-1.09-2.55c.08-2.32-.25-2.4,2.09-2.32.74,0,.47-2.74.5-3.53.06-1.83,1.15-1.15,2.77-1.1,1.16,0,6.8.82,8.23.52.89,1.39-.65,2.13,2.8,2.25.71,0,1.46.95,2.06,1.72.43.75.8.39.81-.38,0-1.32-.43-1.61-2-1.66-1.12,0-2-2.86-3.63-2.47-1.14-.31-1.55.21-3-1.32-.69-.75-3.1-.63-3.17-1.32" transform="translate(-687.45 -23.61)"/><path class="cls-1" d="M1056.42,407.61c.09-2.58-.79-4.38,2.16-4.28.91,0,1.49-1,2.13-1.58" transform="translate(-687.45 -23.61)"/><path class="cls-1" d="M970.42,341.19c-.6,1.34.45,1.94.45,3.28s.14,3.14.14,4.18.75,1.49,1.79,1.49,1.05.75,1.05,2.39.15,2.39,1.64,2.39,2.24,1.33,2.24,3.13" transform="translate(-687.45 -23.61)"/><path class="cls-1" d="M967.29,377.44c1.34-1.49.89-1.49,3-4.47a43.1,43.1,0,0,0,4-7.31c.89-1.94,1-3.44,1.49-4.18s1.94-.6,1.94-.6v-2.83c0-1.8-.75-3.13-2.24-3.13s-1.64-.75-1.64-2.39,0-2.39-1.05-2.39-1.79-.44-1.79-1.49-.14-2.83-.14-4.18-1-1.94-.45-3.28a10.18,10.18,0,0,0-2.66-.79c-1.33-.15-1.66-.9-4.06-.42-1.4.28-.84.42-2.39.14s-1.4-.42-2.24.42a4.67,4.67,0,0,1-1.63,1.1" transform="translate(-687.45 -23.61)"/><path class="cls-1" d="M977.73,358.05v2.83s-1.49-.15-1.94.6-.6,2.24-1.49,4.18a43.1,43.1,0,0,1-4,7.31c-2.09,3-1.64,3-3,4.47h10.29v-2.53a4.45,4.45,0,0,0,3.13-1.05c1.2-1.19,3.14-3.28,3.88-1.94s1.2,2.54,1.79,3,.45,2.83,1.5,3.43.14,2.53,2.08,3a7.9,7.9,0,0,1,4.18,2.39c.75.89,2.69,3,3.43,3.73s1,1.94,3,2.39,1.49,1.49,2.68,2.68,2.39.6,2.69,1.79.6,3,1.79,3.28,1.19,2.24,2.39,3.29,3.28,2.09,3.88,3.43,3.13,1.64,3.28,3.43a3.8,3.8,0,0,0,2.54,3.28c1,.3,1.64,2.24,2.83,2.39s1.19,3.88,1.19,5.07,1.2,1.65,1.2,2.69-.64,1.81-.9,3.13a9.61,9.61,0,0,0,.68,6.3c1.41-.63.82-2.78,1-3.61a19.88,19.88,0,0,1,2.69-6.87c.36-.88,2.09-1.64,3-.44a28.55,28.55,0,0,0,2.25,3.26c1.07,1.16.14,2.61,1,3.51,1.78,1.91,1.94,2.05,2,4.56,0,.84-.62,4.09-.16,4.74.27.39,2.09-.31,2.37.08s-.07,1.89-.09,2.37c-.12,3.47-.19,1.2-2.45,2.3s-1.54,2.43-4.25,2.33c-.54,0-1.64,1-2.54,1.46-2.47,1-2.42,2,1.19.67a102.5,102.5,0,0,0,20-9.52,53.84,53.84,0,0,0,8.16-6.86c2-1.88,4-4.72,6.55-5.67,1.21-.3,1.46-.88.22-.72a8.14,8.14,0,0,0-5.11,2.56c-1.25,1.16-1.82,2.11-3.5,2.52s-1.6-.23-1.7-.49c-1.09-2.66-4.19-5-4.07-8.29,0-1.64.47-1.17,2-1.11,1.1,0-.27,1.93.29,2.38s4.21.15,5.11.18c2.84.1,2.92-2.27.08-2.37-1.9-.07-3.69.19-2.66-2.47.52-1.34,4-2.46,2.54-4.67-.39-.59-2.4.64-2.36-.45,0-.78.05-1.57.08-2.36" transform="translate(-687.45 -23.61)"/><path class="cls-1" d="M941.33,401.58a3.27,3.27,0,0,1,2.34.94c1.38,1.46,1.48,1.58,1.41,3.57,0,1,1.73.09,2.34.45,3.39,2,1.61,3.75.16,6.39-.77,1.39-1.52.11-2.76.65-.79.35-1.63,1.52-2.27,2.12-1,1-.07,4.91-3.09,4.81-2.16-.08-1.72-.29-1.94-2.08-.28-2.27-2.72-1.59-1.4.57s3.62,3.88,5.44,5.81c.85.91,1.74.26,2.85.59a23.47,23.47,0,0,1,3.93,2.15c1.21.66,1.83,2.29,3,2.84.94.44,3,.1,4,.14,2.23.08,3.81,2.51,6,2.58,4.51.16,12.12-1.07,15.28,2.3,1.58,1.69,1.49,5.41,4,5.49,1.89.07,3.59,2.36,5,4,.27.33.83,1.46.65-.15-.1-.87.26-1.31,1.39-1.27,2.52.09,0-1.17,1.26-2.33s2.3,1.42,2.39-1.1c.05-1.63.47-1.16,2-1.1l7.11.24c1.13,0-.31-2.39.82-2.35s2,.55,2-.67c.06-1.84-.66-6.39,1.41-6.32.95,0,5.9.52,5.93-.17,0-1.33.09-2.66.13-4,0-1.13-2.36.3-2.32-.82.11-3.14,2.55-1,2.59-3.3-.38-1.3.68-.15,1.07.26s1,2.28,1-.11c-.07-3.4,4.18,1.47,5.24,1.5,4,.14.49,3.33,2.65,5.65.63.69,2.28,2.38,3.84,1.68a9.61,9.61,0,0,1-.68-6.3c.26-1.32.9-2.09.9-3.13s-1.2-1.49-1.2-2.69,0-4.92-1.19-5.07-1.79-2.09-2.83-2.39a3.8,3.8,0,0,1-2.54-3.28c-.15-1.79-2.69-2.09-3.28-3.43s-2.69-2.39-3.88-3.43-1.2-3-2.39-3.29-1.49-2.08-1.79-3.28-1.49-.59-2.69-1.79-.74-2.24-2.68-2.68-2.24-1.65-3-2.39-2.68-2.84-3.43-3.73a7.9,7.9,0,0,0-4.18-2.39c-1.94-.45-1-2.39-2.08-3s-.9-3-1.5-3.43-1-1.64-1.79-3-2.68.75-3.88,1.94a4.45,4.45,0,0,1-3.13,1.05v2.53H967.29" transform="translate(-687.45 -23.61)"/><path class="cls-1" d="M887,377.48c.29,1.32,1,2.15,2.39.82a22.49,22.49,0,0,1,6.86-4.24c1.35-.61,13.52-.57,14.43.41.47.5-.06,6.93-.51,7.34-1.22,1.13-2.17,1.55-2.22,3.21-.07,1.83.69,1.08,2.32,1.27.58.07,7.1,0,7.08.46-.12,3.36-.32,4.22,1.63,6.43.16.18.67.57,0,1.06a6.78,6.78,0,0,0-2,2.94c-.25.72,0,1.29,1,.77,2.75-1.08,5.33-1.52,7.57-3.11.36-.25,1.08-1.14,1,.73-.09,2,2,3.22,4.27,3.3,2.81.1,4.15.87,6.64,2.24,1.24.67,2.65.4,4,.47" transform="translate(-687.45 -23.61)"/><path class="cls-1" d="M850.08,332.86c.73-.61,2.55-1.94,2.55-2.92v-3.4c0-.85,1.22-2,2.31-2.07A2.48,2.48,0,0,0,857,323c.36-.73,1.82-.61,2.31-.85s-.25-2.07.24-2.8a4.89,4.89,0,0,1,2-1.94c1.09-.61.36-.73,1.21-1.34s0-2.43,0-2.43H861v-2.31c0-.73-1.46-.85-1.46-1.94v-7.66h-6.93v-4.26h-20.9" transform="translate(-687.45 -23.61)"/><path class="cls-1" d="M862.72,316.09c-.65.82-.12.73-1.21,1.34a4.89,4.89,0,0,0-2,1.94c-.49.73.24,2.55-.24,2.8s-2,.12-2.31.85a2.48,2.48,0,0,1-2.07,1.45c-1.09.12-2.31,1.22-2.31,2.07v3.4c0,1-1.82,2.31-2.55,2.92h6.74c1,0,1.4,1.09,3.11,1.09s1.45,1.34,3,1.34,3.28.36,4.14-.36,1.57,0,1.33,1.09-.67,3,0,3.64,2.68,1,3.53,1.71,2.06,1.94,3.52,1.94a11,11,0,0,1,3.28.73" transform="translate(-687.45 -23.61)"/><path class="cls-1" d="M876.07,387.52a8.26,8.26,0,0,0-1.09-.09l-7.45-.26c-3.49-.13-3-2.12-3.95-5.39-.93-3.11-.53-4.16,1.81-6.35,1.91-1.79,4.76-3,7-4.37s4.44-1.84,6.3-3.47a8.76,8.76,0,0,0-.15-3.13c-.49-1.46-1.22-2.07-1.22-3.89a35.13,35.13,0,0,0-.48-5.23c-.25-1.58-1.22-3.4-.73-5s1.58-2.43,2.19-3.77a5.52,5.52,0,0,0,.48-2.55,11,11,0,0,0-3.28-.73c-1.46,0-2.67-1.21-3.52-1.94s-2.86-1-3.53-1.71-.24-2.55,0-3.64-.48-1.82-1.33-1.09-2.56.36-4.14.36-1.33-1.34-3-1.34-2.07-1.09-3.11-1.09h-6.74" transform="translate(-687.45 -23.61)"/><path class="cls-1" d="M818.85,392.6c4.85.16,9.86-.1,14.64.75,5.78,1,11.62,2.53,17.5,2.73,2.8.1,5.07-2.49,7.74-3.71,2.12-1,4.14-.61,6.47-.53,1.75.06,5.86-.5,7.33.56l.09.06" transform="translate(-687.45 -23.61)"/><path class="cls-1" d="M820.5,252.69h8.63c1,0,1-.91,1.84-1.26s.78-.87.78-1.48-.78-.7-.78-1.66.69-1.4,1.57-1.49,1.31-1,2.88-1.48,2.36-1.22,2.36-2,1.05-1.22,2.36-1.22a5.17,5.17,0,0,1,3.75,1.66c.7,1,1.23,1.74,2.19,1.74h3.58s.09,2.27.09,3.15,1.57,2.18,2.27,2.79a3.78,3.78,0,0,1,1.4,2.71v4h2.27v5.94c0,1.14,1.74,1,2.44,1.57a2.62,2.62,0,0,1,1.23,2.45V276c0,1.4-1.31,2.18-1.84,2.79a4.34,4.34,0,0,0-1,2.8c0,1.22-.87,1.14-.87,1.92v4.28h-4.46v3.32H836.82a4.71,4.71,0,0,0-2.53.61c-.88.53-.88,1.75-.88,2.62s-.26,1.14-1,1.58-.63,1.59-.63,1.59" transform="translate(-687.45 -23.61)"/><path class="cls-1" d="M855.69,258.16v5.94c0,1.14,1.74,1,2.44,1.57a2.62,2.62,0,0,1,1.23,2.45V276c0,1.4-1.31,2.18-1.84,2.79a4.34,4.34,0,0,0-1,2.8c0,1.22-.87,1.14-.87,1.92v4.28h-4.46v3.32H836.82a4.71,4.71,0,0,0-2.53.61c-.88.53-.88,1.75-.88,2.62s-.26,1.14-1,1.58-.63,1.59-.63,1.59h20.9v4.26h6.93v7.66c0,1.09,1.46,1.21,1.46,1.94v2.31h1.7s.85,1.82,0,2.43" transform="translate(-687.45 -23.61)"/><path class="cls-1" d="M872.62,392.46c1.56,1.17,4.78,4.54,6.61,4.61,1.17,0,3.49-.36,4.53.16s1.36,2,2.29,2.45c1.34.72,2-.32,3.17.94,1.37,1.46,1.49,1.57,3.46,1.64,3.1.11,5.16-.8,5.27-4.17,0-1,2.27-2.78,3.79-4,2.15-1.89-.67-.82-1-1.21s1-3.12-1.15-1.27c-1.9,1.61-2.13.68-4.32-1.7-1.44-1.56-1.57-1.83-3.68-1.9-1,0,.29-2.36-.48-2.38l-8.09-.29c-2.26-.08-.42.87-1.27,2.32a7.62,7.62,0,0,1-1.8,1.89.58.58,0,0,1-1,0,3.65,3.65,0,0,0-2.8-2" transform="translate(-687.45 -23.61)"/><path class="cls-1" d="M878.76,344a5.52,5.52,0,0,1-.48,2.55c-.61,1.34-1.71,2.19-2.19,3.77s.48,3.4.73,5a35.13,35.13,0,0,1,.48,5.23c0,1.82.73,2.43,1.22,3.89a8.76,8.76,0,0,1,.15,3.13l.2-.17c1.28-1.2,1.44-1.14,3.23-1.08.92,0,2-1.5,2.64-2.11a1.45,1.45,0,0,1,2.51,1.1c-.09,2.63,1.41-.1,2.33,1.27,1.31,2-2.17,5.43-2.62,7a10.13,10.13,0,0,0,0,3.84" transform="translate(-687.45 -23.61)"/><path class="cls-1" d="M837,80.67v-.83c0-.75.9-.75.9-1.81V69.16c0-1-1.21-.33-1.21-1.2s1.1-.22,1.1-1.1V62.27h-9.63V56.79h-2.63c-1.32,0-.66-.22-2-2-1.61-2.14-5.26-2.63-5.26-2.63h-9.19" transform="translate(-687.45 -23.61)"/><path class="cls-1" d="M743.42,151.47v-5.36c0-1.2.69-1.72.86-2.76s1.55-2,1.81-1.21,1.08.7,1.81,1a8.21,8.21,0,0,0,3.54,0" transform="translate(-687.45 -23.61)"/><path class="cls-1" d="M788,205.5c-1.1-.37-1.83,0-3-1.34s-4.26-1.54-6.93-1.54H762" transform="translate(-687.45 -23.61)"/><path class="cls-1" d="M751.44,143.09c.69,1.73.83,2.78,2.12,2.88a7.2,7.2,0,0,0,2.88-.27c.83-.28,1.39,1.85,2.22.92a4.22,4.22,0,0,1,3.61-1.85v-7.41h9.83c1.2,0-.84-1.3-1.3-2s-1.3-.83-1.3-2.32.56-1.67,1.3-2.41.37-1.29.37-2.13-.83-.65-1.39-1.48a2.31,2.31,0,0,1-.46-2.22,7.3,7.3,0,0,0,.18-2.41,4.49,4.49,0,0,0-1.76-2.51c-.93-.74-.93-.83-.93-1.57h22.8" transform="translate(-687.45 -23.61)"/><path class="cls-1" d="M743.42,151.47H703.9c0,.5,0,1,0,1.59-.07,1.92,2.13,2.92,3.48,4,1.09.86,1.74,3.2.75,4a1.13,1.13,0,0,0,.07,2,2.76,2.76,0,0,1,1.13,2.52c0,1.09,1.95-.13,2.35.45s.11,2.4-.45,2.38c-2.94-.1-2.06,1.72-2.15,4.3-.07,2-.28,2.69-1.12,3.61-.68.67-1.09,1.29-.16,1.32,1.6.05,1,1.79,1,3.71-.06,1.62.38,1.19,2,1.24,1.09,0-.26,1.94.29,2.39.82.68,4.78.17,5.92.21,1.48,0,1.39,1.62,1.2,3.15-.12,1.31-.81,1.76-1.52,1.72-1.4.16-1.82.83-.57,1.82.88.7,2.12.77,3.83.53.69-.1.25,3.59.22,4.38,0,1.08,1.92-.13,2.33.45s-.15,1.8-.08,2.36a16.89,16.89,0,0,1,.49,3.53c-.07,1.53-.71,2.92-.75,3.95-.08,2.25.4,2.51,2,4.19.61.65,2.63-.22,2.59.71,0,.74-.54,3.82-.15,4.37,1,1.36,2.43-1.34,2.33,1.27s0,3.53,1.55,5.31c.65.8.56.17.56-.48.18-1.35,1.38-1.39,2.8-1.24,0-1.08.15-5.06.34-6.67a2.71,2.71,0,0,1,2.8-2.52h6.87a6.2,6.2,0,0,1,1.68-3.09c1.13-1.12,1.83-4.06,2.39-5.18s1.54-1.12,3.36-1.12H762" transform="translate(-687.45 -23.61)"/><path class="cls-1" d="M800.62,253.5c0-1.1-1.09-2.31-1.09-3.28v-4.38c0-1.33,1.09-1.82,1.09-3.28s-1-2.07-1-3.52V216.92a3.47,3.47,0,0,0-1.7-3,6.55,6.55,0,0,1-2.43-3.77c-.12-1.09-1.09-2.91-2.92-2.91s-3.52-1.34-4.61-1.7-1.83,0-3-1.34-4.26-1.54-6.93-1.54H751.2c-1.82,0-2.8,0-3.36,1.12s-1.26,4.06-2.39,5.18a6.2,6.2,0,0,0-1.68,3.09H736.9a2.71,2.71,0,0,0-2.8,2.52c-.19,1.61-.34,5.59-.34,6.67.5.05,1,.12,1.56.16a.44.44,0,0,1,.34.69c-.43.91-.8,2-1.47,2.32-1.33.65-.1,2.44,1,3.71a.53.53,0,0,1-.56.77c-2.65-.32-2,4.3-.4,4.36,2.74.09,1,5.23,1,5.93-.07,1.91-.79.91-2.42,1.11s-2.34-.8-2.4,1.09c0,.85-.29,3.56.24,3.58,1.73.06,4.4-.67,4.33,1.34-.08,2.45.64,3.57-2.13,3.48-1,0,.19,2.31-1.69,2.41-.29,0-.67.36,0,1.2a5.37,5.37,0,0,1,1,2.45" transform="translate(-687.45 -23.61)"/><path class="cls-1" d="M846.69,142.3V119.21h-4.52c-1,0-1.89-1-2.84-1s-1.05,1-1.78,1h-3.47c-2.11,0-2.63-.85-6.94-.85H789.61" transform="translate(-687.45 -23.61)"/><line class="cls-1" x1="159.25" y1="118.69" x2="187.68" y2="118.69"/><path class="cls-1" d="M874.3,206.86c-1.44-1.44-2.28-1.87-3-1.23s-.67,1.31-1.65,1.55a1.2,1.2,0,0,1-1.46-.82" transform="translate(-687.45 -23.61)"/><path class="cls-1" d="M874.3,206.86c.78.76,2.17,2.68.89,3s-1.92,1.06-1.18,1.81,2,1.06,2.14,2.13.42,1.92-.32,2.13-.54,1.18.21,1.39,2,.43,2.67-.32,1.6-1.49,1.6-.75-.11,2.24.74,1.82a1.31,1.31,0,0,0,.64-2,4.28,4.28,0,0,1-.85-2.77,3.17,3.17,0,0,1,1.28-2.24,2.09,2.09,0,0,1,2.67-.22c.85.75,1.92,0,2.56.86s.32,1.81,1.28,2.13a14.13,14.13,0,0,1,1.76.73c-.08-1,.84-1.4,1.54-2.1s.56-2-.42-1.69a3.13,3.13,0,0,1-3.22-1.4c-1-1.26-.84-4.06-.7-5.32s1.54-1.83,2.24-2.53,1.4-.84,2-.14,1.82.56,3.22.42,1.13-1.54.42-2.24-3.08-.28-4.06-.28-2-1.12-2.52-2.1,0-2.24-.7-3.09-1-1.54-.42-2,.56-1.68,1.12-2.8,2.1-1.12,2.24,0a6.82,6.82,0,0,0,1.4,3.08c.7,1,0,2.67,1.12,2.67s1.54-.85,2.39,0,2.1.84,3.5.56,1.26-1.55,1.12-2.53-1.54-1-2.66-1a7.15,7.15,0,0,1-3.93-.84c-1.4-.84-.84-2,.14-2.38a3.81,3.81,0,0,0,2-2.67c.14-1-1-2.1-2.11-2.52s-1.68-1.82-2.66-2.8-.42-1.68.42-2.38a3.37,3.37,0,0,0,1-2.67c0-.84.42-1.54,1.82-2.52s2.25-.84,2.67.28.28,2.1,1.4,2.66,2.1-1,2.94-1.68a3.05,3.05,0,0,0,.56-3.22c-.42-.84-1-1.55-.14-2.53s.84-2.94.84-3.64.56-1.26,1.27-2.1,2.1.28,3.08.84,2.24-.28,3.22-.84,1.26-1.83,2-2.39,1.68.7,2,1.69.7,1,1.82,1.82,2.24-1.68,1.18-2.86c-.44-1-1.26-1.32-1.45-2.27s-1.58-1.7-1.83-2.21.63-1.26.63-1.9v-3.79a3.09,3.09,0,0,0-.57-2c-.44-.5.06-1.7.76-2.59h-2.1v-8.73H909c-.86,0-.57,1.43-1.43,2.3s-1.15,2.1-2.2,2.38-1.34,1.63-2.1,2.59a4.79,4.79,0,0,1-3.54,1.81A7,7,0,0,0,896,148c-.76.58-.86-1.14-1.52-1.34s-.58-1.24-.58-1.81,0-1.63-1.14-1.63-1.53-.86-2.49-1.24-.38-2.48-1.43-2.48a4,4,0,0,1-2.58-1.53l-2.12.52v3.84h-9" transform="translate(-687.45 -23.61)"/><path class="cls-1" d="M788,205.5c1.09.36,2.79,1.7,4.61,1.7s2.8,1.82,2.92,2.91a6.55,6.55,0,0,0,2.43,3.77,3.47,3.47,0,0,1,1.7,3V239c0,1.45,1,2.06,1,3.52s-1.09,1.95-1.09,3.28v4.38c0,1,1.09,2.18,1.09,3.28h8c1,0,1.84-.81,3.4-.81h17.06c1,0,1-.91,1.84-1.26s.78-.87.78-1.48-.78-.7-.78-1.66.69-1.4,1.57-1.49,1.31-1,2.88-1.48,2.36-1.22,2.36-2,1.05-1.22,2.36-1.22a5.17,5.17,0,0,1,3.75,1.66c.7,1,1.23,1.74,2.19,1.74h8.65c1.13,0,1.74.62,1.31-1.74s-1-3.76-1-5.42v-6.2c0-1.49-.88-1.84-.88-3.06s1-1.4,1-2.27-.79-.52-.79-2v-16c0-1.23.35-1.84,1-2.1s1.14.44,2.1.09,1.57-.27,1.75.52.26,2,1.22,2h2.79c.7,0,.88-.87,1.84-1.14s1.22-1.31,2-1.31a1.5,1.5,0,0,0,1-.52" transform="translate(-687.45 -23.61)"/><path class="cls-1" d="M890.39,214.53a14.13,14.13,0,0,0-1.76-.73c-1-.32-.64-1.28-1.28-2.13s-1.71-.11-2.56-.86a2.09,2.09,0,0,0-2.67.22,3.17,3.17,0,0,0-1.28,2.24,4.28,4.28,0,0,0,.85,2.77,1.31,1.31,0,0,1-.64,2c-.85.42-.74-1.07-.74-1.82s-1,0-1.6.75-1.92.53-2.67.32-1-1.17-.21-1.39.43-1.06.32-2.13-1.39-1.39-2.14-2.13-.1-1.5,1.18-1.81-.11-2.24-.89-3c-1.44-1.44-2.28-1.87-3-1.23s-.67,1.31-1.65,1.55a1.2,1.2,0,0,1-1.46-.82,1.5,1.5,0,0,1-1,.52c-.79,0-1.05,1.05-2,1.31s-1.14,1.14-1.84,1.14h-2.79c-1,0-1.05-1.22-1.22-2s-.79-.87-1.75-.52-1.4-.35-2.1-.09-1,.87-1,2.1v16c0,1.49.79,1.14.79,2s-1,1-1,2.27.88,1.57.88,3.06v6.2c0,1.66.52,3.06,1,5.42s-.18,1.74-1.31,1.74h-5.07s.09,2.27.09,3.15,1.57,2.18,2.27,2.79a3.78,3.78,0,0,1,1.4,2.71v4h2.27" transform="translate(-687.45 -23.61)"/><path class="cls-1" d="M890.39,214.53c-.08-1,.84-1.4,1.54-2.1s.56-2-.42-1.69a3.13,3.13,0,0,1-3.22-1.4c-1-1.26-.84-4.06-.7-5.32s1.54-1.83,2.24-2.53,1.4-.84,2-.14,1.82.56,3.22.42,1.13-1.54.42-2.24-3.08-.28-4.06-.28-2-1.12-2.52-2.1,0-2.24-.7-3.09-1-1.54-.42-2,.56-1.68,1.12-2.8,2.1-1.12,2.24,0a6.82,6.82,0,0,0,1.4,3.08c.7,1,0,2.67,1.12,2.67s1.54-.85,2.39,0,2.1.84,3.5.56,1.26-1.55,1.12-2.53-1.54-1-2.66-1a7.15,7.15,0,0,1-3.93-.84c-1.4-.84-.84-2,.14-2.38a3.81,3.81,0,0,0,2-2.67c.14-1-1-2.1-2.11-2.52s-1.68-1.82-2.66-2.8-.42-1.68.42-2.38a3.37,3.37,0,0,0,1-2.67c0-.84.42-1.54,1.82-2.52s2.25-.84,2.67.28.28,2.1,1.4,2.66,2.1-1,2.94-1.68a3.05,3.05,0,0,0,.56-3.22c-.42-.84-1-1.55-.14-2.53s.84-2.94.84-3.64.56-1.26,1.27-2.1,2.1.28,3.08.84,2.24-.28,3.22-.84,1.26-1.83,2-2.39,1.68.7,2,1.69.7,1,1.82,1.82,2.24-1.68,1.18-2.86h15a.49.49,0,0,0-.05.18c0,.95-1.75,0-2.39.29a4.39,4.39,0,0,0-2.52,4.27c0,1.68,2.46,3.64,2.19,5.19-.09.55-1.77,1.64-2.19,2s-.15,1.9-.26,2.16-.11.45-1.06.62c-.8.14-2.84-1.81-3.51-2.53-1.27-1.38-2.66.81-2.17-1.88,0-.18-.48-.52-1.14.18-2.32,2.3-2.19,3.18.37,5.93,1.31,1.42,4.75.15,6.18-.74.34-.21,1.26-.49,1.24.07,0,.93.25,5.94-3,5.82-1.44,0-2.93-.2-4.37-.15-2.28.09-2.34-.54-2.42,1.9,0,1.46-.1,2.91-.16,4.36s1.72,1.87,2.25,3.2c.71,1.79-.43,2,1.06,3.6,1,1,1.89,2.08,2.87,3.08.55.55.15.5-.12.47-.74-.09-1.68-.08-1.7.41-.08,2.16.08,2-2.07,1.93-2.5-.08-2.61-3.53-2.55-5.2.12-3.47-2.3-2.08-4.11-.38s-.29,3.46,1.06,4.86a3,3,0,0,1,.49,1.06c0,.49,0,1,0,1.48,0,1.16,2.39-.61,2.31,1.63s2.34.46,2.3,1.63c0,.71.2,4.2-.36,4.46-3.59,1.65-5.2,2.09-9.13,2-1.62-.06-2.55-.7-2.62,1.09-.09,2.58,2.38-.12,2.3,2.45-.08,2.24,2.35.46,2.31,1.64a21.91,21.91,0,0,1-.15,4.37c-.67,2.42-5.31,6.92-.62,7.08,1,0,2.13,1.89,2.83,2.64,1.15,1.25,2.63,1.8,1.24,3.09-1.69,1.57-.61,2.47-1.66,3.85-.76,1-3.65,1.66-4.82,2.19l-1.71.29c.26,1,.89,1.69.35,2.58s-.53,2.76.27,3.47,1.33,1.24.89,2.22-1.42,1.6-1.42,2.66v3.56c0,1.07.62,2.49,1.42,2.49h3.2c.89,0,1.15-1,2.49-1s1.2,1.82,2.13.89.62-1.78.27-2.84-1.16-3.12-2.22-3.12H911c-.89,0-1.33-2.13,0-2.13s2.13-.44,3.91-.44a3.68,3.68,0,0,1,3.11,1.42c.54.62,1.69,1.6,1.78,2.75s.89,2.32.09,3.47a6.75,6.75,0,0,0-1.16,3.91,4.17,4.17,0,0,1-1.77,3.38c-1,.62-3.38-.09-4,.89a2.12,2.12,0,0,0,0,2.75,3.69,3.69,0,0,0,2.57,1.34H919c.89,0,1.69-1,2.84-1s1.69.89,2.76.89a10.19,10.19,0,0,0,3.47-.71,8.31,8.31,0,0,0,2.66-1.43,1.34,1.34,0,0,1,2.31.63c.54,1.33,1.69,2.13,1.69,3.29a11.92,11.92,0,0,0,.8,3.82c.45,1.15.18,2,1.07,2.66s2.1.11,2.52,1.37" transform="translate(-687.45 -23.61)"/><path class="cls-1" d="M689.82,113.49q-.29,8-.56,16c-.1,2.9-1.31,4.91,1.83,5,1.13,0-.48,2.34.66,2.38,2.14.08,1,0,.94,2.14,0,1.17,2.4-.61,2.32,1.64-.08,2.54,1.16,0,2.32,1.27s-1.42,2.31,1.1,2.4c.63,0-.42,1.82.5,1.78a2.75,2.75,0,0,1,2.24,2c0,.43-.22.85,0,1s.78,0,1.37,0c1,.19,1.3,1.16,1.39,2.36h39.52v-5.36c0-1.2.69-1.72.86-2.76s1.55-2,1.81-1.21,1.08.7,1.81,1a8.21,8.21,0,0,0,3.54,0" transform="translate(-687.45 -23.61)"/><path class="cls-1" d="M708.63,25.89c-6,0-12-.23-18.1-.44.05.41.11.82.16,1.24.68,5.18,1.8,10.42,1.61,15.65q-.31,9.34-.65,18.7l-1.11,31.7-.72,20.75" transform="translate(-687.45 -23.61)"/><path class="cls-1" d="M736.74,25.13c-4.57.05-9.15.18-13.8.44-4.8.27-9.56.34-14.31.32" transform="translate(-687.45 -23.61)"/><path class="cls-1" d="M762.05,25.59l-4.18-.16c-7.14-.25-14.12-.38-21.13-.3" transform="translate(-687.45 -23.61)"/><path class="cls-1" d="M809.12,52.19V49.13c0-1.09-.88-1.53-.88-2.41S810,46.06,810,45V27.16c-16-.13-32-1-47.94-1.57" transform="translate(-687.45 -23.61)"/><path class="cls-1" d="M751.44,143.09c.69,1.73.83,2.78,2.12,2.88a7.2,7.2,0,0,0,2.88-.27c.83-.28,1.39,1.85,2.22.92a4.22,4.22,0,0,1,3.61-1.85v-7.41h9.83c1.2,0-.84-1.3-1.3-2s-1.3-.83-1.3-2.32.56-1.67,1.3-2.41.37-1.29.37-2.13-.83-.65-1.39-1.48a2.31,2.31,0,0,1-.46-2.22,7.3,7.3,0,0,0,.18-2.41,4.49,4.49,0,0,0-1.76-2.51c-.93-.74-.93-.83-.93-1.57" transform="translate(-687.45 -23.61)"/><path class="cls-1" d="M766.81,118.36h33.63" transform="translate(-687.45 -23.61)"/></svg>