<svg id="base_map" data-name="base map" xmlns="http://www.w3.org/2000/svg" viewBox="0 0 360.23 376.91"><defs><style>.cls-1{fill:#015067;stroke:#fff;stroke-width:0.84px;}.cls-2{fill:none;}</style></defs><path class="cls-1" d="M526.83,444c-1-.56-1-1.26-.14-2.52s0-2.8-.84-3.78-2-2.53-3.08-2.53-2.94.28-3.93-.56a5.33,5.33,0,0,0-3.22-1.54,7.86,7.86,0,0,1-4.2-1.12,10,10,0,0,0-5.61-1.54,9,9,0,0,1-4.77-1c-1-.56-.7-2.81-.28-4.21s1-2.66,0-3.64a10,10,0,0,1-2.24-3.79,5,5,0,0,0-2.24-2.94,11.5,11.5,0,0,1-4.35-4h-3c-3.73,0-4.18.75-6.87.75s-3.13.59-4.47,1.79-1.94,2.54-3.13,4.47-2.24,4.63-4,5.67-3.58,2.69-5.08,3.44-2.68,3.43-4,4a24.94,24.94,0,0,0-5.74,4.66c.29,1.32,1,2.14,2.39.82a22.61,22.61,0,0,1,6.86-4.24c1.35-.62,13.52-.57,14.43.41.48.5-.06,6.93-.5,7.34-1.23,1.12-2.17,1.55-2.23,3.21-.07,1.83.69,1.08,2.32,1.27.58.07,7.1.05,7.08.46-.11,3.36-.31,4.22,1.64,6.43.15.18.67.57,0,1.06a6.78,6.78,0,0,0-2,2.94c-.25.72,0,1.29,1,.77,2.74-1.08,5.32-1.52,7.56-3.11.36-.25,1.08-1.14,1,.73-.09,2,2,3.22,4.27,3.3,2.81.09,4.15.87,6.65,2.24,1.23.67,2.64.4,3.94.47a35.5,35.5,0,0,0,.89-4.59c0-1,1.19-1.49,2.69-1.49s1.34-.9,1.34-1.79,1-1.79,1.94-2.69a2.27,2.27,0,0,1,3-.59c1.35.59,3.73-.9,4.63-1.65a5.91,5.91,0,0,1,3.43-1.34h0A2,2,0,0,0,526.83,444Z" transform="translate(-168.03 -83.25)"/><rect class="cls-2" width="18.83" height="32.37"/></svg>