<svg id="base_map" data-name="base map" xmlns="http://www.w3.org/2000/svg" viewBox="0 0 468.45 433.66"><defs><style>.cls-1{fill:none;stroke:#39b54a;stroke-linejoin:round;stroke-width:2px;stroke-dasharray:3 3;}</style></defs><path class="cls-1" d="M785.37-173.11v-1.09h-6.68c-1.1,0-1,.85-2.19.85h-4.25c-1.22,0-.86-.85-2.56-.85s-21.51.24-23.81.24-3.29,1.09-4.62,1.82a4,4,0,0,1-3.89-.36,5.12,5.12,0,0,0-4-.73c-.39.14-1.09.36-1.89.61a26,26,0,0,1,0,4.56c-.09,2.57-2.36-.28-2.45,2.28,0,.8.23,3.57-.49,3.54-4.18-.14-1.4,4-1.54,7-.06,1.43-2,3.06-6.22,6.38-1.38,1.08-.44,3.39-.47,4.1a3.93,3.93,0,0,1-2.12,2.54c-1.92.31-1.56,1.09-2.34,2.23-1.35.52-.45,1.26,0,1.56.61.46,0,1.83,1.54,1.88,1.81.06,1.63,2,0,2.35-2,.13.34,1.46.82,3a10,10,0,0,1,0,3c0,1.62-.45,1.16-2,1.11-1,0,.08,1.87-.44,2.36s-2.35-.77-2.38.28c0,.48,0,1-.05,1.43" transform="translate(-687.27 404.32)"/><path class="cls-1" d="M713.28-123c0,.58,0,1.17-.07,1.76l-.12,3.55a4.43,4.43,0,0,0-.06,1.64c.2,1.13,1,1.82,2,2.86a1.19,1.19,0,0,0,.91.34l1.37,0c.72,0,.27,2.77.24,3.55-.06,1.7.41,4.09-.3,5.26-.16.26-.49.63-.42.67a.94.94,0,0,1,.5.52,3.25,3.25,0,0,1-.07,1.84c0,.8-.05,1.59-.08,2.39l1.65,1.75c.21.23-.17.52-.47.53-2.13,0-1.2,2.66-1.43,4.8-.14,1.34.18,1.81-.73,2-.57.11-.57.42.15.58s.58,1.14.26,1.74a8.21,8.21,0,0,1-.48.78" transform="translate(-687.27 404.32)"/><path class="cls-1" d="M716.09-86.46A30.21,30.21,0,0,1,711.67-82c-2.84,2.65-4.7,3.66-4.84,7.63-.14,4.16-5.21,10.81-9.49,10.66-.73,0-.47,2.74-.5,3.54-.05,1.53.59,1.86,1.65,3,.84.9-.06,2.36.51,3,.79.87,2-.63,2.72.83,1.19,2.59,2.26,6,5.29,3.15l3.71-3.44c.53-.5,1.91.08,2.63-.07l9.29-2c1.89-.4,3.93.34,5.86-.07,5.47-1.19,10.22-2.57,15.72-1,2.71.79,6,2.92,8.19.86,1.83-1.72,3.86-1.06,6.32-1,5.12.18,10-.23,14.76,1.85,4.94,2.19,9.81,5,14.85,6.9q8.43,3.16,16.87,6.3a25.66,25.66,0,0,1,6.23,3.66c2.58,1.86,3.49,2.22,6.62,2.33h.12V-84.64" transform="translate(-687.27 404.32)"/><path class="cls-1" d="M808.58-84.64c1.82-1.09,4.19-2.92,5.95-3.64a34.79,34.79,0,0,0,4.14-2,9.39,9.39,0,0,1-1.1-2.67c0-.73-.36-1.46.37-2.43s1.33-1.58,1.33-2.8.85-1.7,1.58-3-1.33-1.58-2.31-2.07-1-1.09-1-2.06v-7.3c0-.85.12-1.21-.36-1.82s.12-1.21.48-1.94,0-1.58-.24-2.43-.36-1.58.61-2.07a3.12,3.12,0,0,0,1.7-2.31v-3.16c0-.73-.73-1.33-1.7-2.55a2.51,2.51,0,0,1-.73-2.07v-.85" transform="translate(-687.27 404.32)"/><path class="cls-1" d="M785.37-173.11H800v-1.82h8c1,0,1.84-.81,3.4-.81h8.42v31.23a4.76,4.76,0,0,0,.93,3.4c.63.64,1,1.34.42,2.05s-.71,1.63-1.49,2.06a3.4,3.4,0,0,0-1.63,1.84c-.21.71.15,1.56-.21,2.12a4.86,4.86,0,0,0-.51,1.25" transform="translate(-687.27 404.32)"/><path class="cls-1" d="M956.05-355.76c.43-.56,2.33.81,2.37-.29,0-.61-.29-2,.45-2,2.76.1,2-1,2.14-3.46,0-1.38-.69-2.09-1.59-3-.54-.52-.82-.73-.76.83.12,3-1.09,5.55-5.26,5.4-1.73-.06-4.41.68-4.34-1.33.05-1.57.11-3.15.16-4.72.09-2.57,2.37.31,2.49-3.09,0-.8,4.35-2.69,5.15-2.66,1.58,0,2,.52,2-1.12,0-.88.29-1.09-.47-1.38l-6-2.23c-2.21-.83-2.17.65-2.07-2.27.06-1.57.78-3.15.83-4.72.1-2.64.32-2.95,2.29-4.78,1-.9,2.55-.08,3.85-1.3,1.55-1.45,3.38-7.2,1.8-8.89a31.28,31.28,0,0,1-2-4.18c-.51-1.08-1.83-.88-3.57.74-.3.87.36,1.19,1.07,1.75s-2.63,1-1.23,2.94c1.58,2.22,1.24,1.8-.72,3.63-.68.64-2.82.15-3.8.11-1.75-.06-1.11-.79-1.09-2.41,0-2.13.11-2.4,1.65-3.84.62-.58,1.68-2.25.95-3.16-.61-.75-8.36-.21-9.5-.25l-1.07,0v.09" transform="translate(-687.27 404.32)"/><path class="cls-1" d="M952.77-317.88c1.34.13,2,.06,2-2,0-.57,1.47-.64,1.93-.35.31.19.78,1.24,1.08.87,1-1.25,4.16-1.42,4.22-.24s-.65,4-.29,4.34c1.08,1.16,2.37-.1,2.41-1.1l.27-7.9c.06-1.62-.54-2.76,1.28-2.7,1.1,0,1.39.46,1.32,1.27,0,.32.23.75.48.54,1.7-1.42,4.19-3.19,4.25-5.16.1-2.81.25-3.56,2-5.29.31-.33.69-.89,0-.93-1.18-.07-1.73.17-1.78,1.48,0,1.55-.72,1.82-1.87,2.89s-4.54.45-6.24.39c-2.51-.08-1.39-3-1.32-5.17s-.08-2,2.07-1.93c.75,0,.43-1.69.45-2.33.15-4-2.33-2.4-4.46-.4-1,1-4.94.12-5.8-.79-1.87-2-3.8-3.22-3.7-6a4.23,4.23,0,0,1,2.53-3.52c.68-.39,2.53,1.18,3.78,2.53,1.79,1.94-.54,3.18,2.73,3.3,1.9.06,3.62.44,2.8-2.27s-3-1.69-4.65-2.54c-1.17-.6-3.3-3.36-2.19-4.83" transform="translate(-687.27 404.32)"/><path class="cls-1" d="M868.65-401.64l-52.38.37c-2.32,0-4.63,0-6.95,0v17.81c0,1.09-1.75.88-1.75,1.75s.88,1.32.88,2.41v3.07h9.19s3.65.48,5.26,2.62c1.31,1.75.65,2,2,2h2.62v5.48h9.64v4.59c0,.88-1.1.22-1.1,1.1s1.21.22,1.21,1.2v2.52" transform="translate(-687.27 404.32)"/><path class="cls-1" d="M924.87-401.87l-3.13-.11c-11.7-.4-23.5.11-35.21.2l-17.88.14" transform="translate(-687.27 404.32)"/><path class="cls-1" d="M939.84-401.33v-.09c-4.49-.15-10.17-.3-15-.45" transform="translate(-687.27 404.32)"/><path class="cls-1" d="M914.23-281.86c-.7.89-1.2,2.09-.76,2.59a3.1,3.1,0,0,1,.57,2v3.79c0,.63-.89,1.38-.63,1.89s1.64,1.26,1.83,2.21,1,1.26,1.45,2.27h15a3.62,3.62,0,0,0,.55-1.39c0-.56-.53-1.07-.49-1.61.17-2.3.19-4.62.25-6.93a1.06,1.06,0,0,1,.74-.95,17.44,17.44,0,0,0,3.63-2.24c.27-.21.46-.08.44.14-.13,1.23-.48,3.7-.12,4.21,1.06,1.5,2.38-.38,2.29,2.46,0,1.2,4.2-1.08.4-4.48-1.87-1.67,1.06-1.58,1.83-2.56s2.18-3.95,2.64-4.39c1.78-1.64,2.57,1.35,2.69-2.15a9,9,0,0,1,5-7.32c1.68-.75,3.77.51,4.81-2.19s-.49-2.26-2.27-2.47c-.86-.1-4.76.29-4.73-.54s-.17-4.36.53-4.33c3.39.11.55,2.38,3.1,2.47,1.65.05,3.51.88,3.58-1.06s2.47-2.28,2.52-3.83c0-.45.31-1.57.07-1.78l-.58-.48a9.69,9.69,0,0,0-1.8.16c-1.63.06-3.31-.11-4.94-.17-1.8-.06-4.57.77-4.5-1.33.11-3-.57-8.33,3.85-8.17.62,0,1.15.09,1.6.13" transform="translate(-687.27 404.32)"/><path class="cls-1" d="M799.76-310.07h26.71c4.31,0,4.83.85,6.93.85h3.47c.74,0,.84-1,1.79-1s1.79,1,2.84,1H846v-19.23c0-.84-1-1.9-2.21-2.95s-5-4.83-5.68-5.46-1.79-.53-1.79-1.58v-9.32" transform="translate(-687.27 404.32)"/><path class="cls-1" d="M846-323.3v-5.15c0-.84-1-1.9-2.21-2.95s-5-4.83-5.68-5.46-1.79-.53-1.79-1.58v-10.15c0-.74.9-.75.9-1.81v-6.35" transform="translate(-687.27 404.32)"/><path class="cls-1" d="M914.23-281.86h-2.1v-8.73H908.3c-.86,0-.57,1.44-1.43,2.3s-1.15,2.1-2.2,2.39-1.34,1.62-2.1,2.58a4.81,4.81,0,0,1-3.54,1.81,7,7,0,0,0-3.73,1.05c-.76.58-.86-1.14-1.53-1.33s-.57-1.25-.57-1.82,0-1.63-1.15-1.63-1.53-.86-2.48-1.24-.38-2.48-1.44-2.48a4,4,0,0,1-2.58-1.53" transform="translate(-687.27 404.32)"/><polyline class="cls-1" points="158.75 81.02 158.75 95.11 158.75 118.19 187.18 118.19 196.17 118.19 196.17 114.36 198.28 113.83"/><path class="cls-1" d="M950.13-187.75c-14.22.36-28.46.63-42.65,1-.69.12-.52-.48-.24-1.6a3.71,3.71,0,0,0-1.12-3.08c-1-1.22-1.55.7-3.37.84-.84.06-2.52-1.26-1.82-2.25-1.1,1.12-1.63,3.22-2.33,4.18" transform="translate(-687.27 404.32)"/><path class="cls-1" d="M981.77-188.71c-2.4.07-4.8.16-7.17.24-8.14.3-16.31.52-24.47.72" transform="translate(-687.27 404.32)"/><path class="cls-1" d="M1000.81-103.44c.88.55,1.87-.77,2.75.22s.44,2.2,1.76,2.2h3c.66,0,1.76-1.43,2.31-2.64a13.24,13.24,0,0,1,1.8-2.68,33.18,33.18,0,0,1,2.08-2.86c.84-1,1.13-3.09,2.07-4.66l3.75-3.9" transform="translate(-687.27 404.32)"/><path class="cls-1" d="M1006.09-189.16H1006c-7.95,0-16.14.19-24.25.45" transform="translate(-687.27 404.32)"/><path class="cls-1" d="M901.72-133.59h-2.33v-2.7c0-.7-1.75-1.31-2.1-2.62s-.87-2.1-.35-3.15,1-1.83.7-2.79.26-1.66.61-2.45,0-1.74,0-2.44,1.14-1.14,1.14-2.27v-3.5c0-1-1-.52-1.22-1.83s-1.31-1.31-1.31-2.27-.44-1.75-.44-2.62.09-2.89-.79-2.89-2,.35-2.62-.52a2.23,2.23,0,0,1,.09-2.53c.44-.88-1-1.23-1.48-2s.08-1.57,1-1.92.62-1.05.62-1.75v-5.07c0-.87-1-1.05-1-1.92v-2.88c0-.61.78-1.14,1.83-1.14s1.92-1.14,2.45-2.27,1.39-.61,2.09-1.57h0" transform="translate(-687.27 404.32)"/><path class="cls-1" d="M956.76-86.79a11.15,11.15,0,0,1-2.08.75c-1.2.3-3.74,2.24-4.78,2.24h-4.18c-1,0-2.09.3-2.83-.75s-1.2-2.39-2.69-2.39h-7.31c0-1.49-1.34-4-2.83-4.47s-3.44,0-5.08.29-2.09-.15-1.79-1.34a4.08,4.08,0,0,0,0-3c-.44-1.35.75-3.14-.15-4.78a5.81,5.81,0,0,1-.89-3.58c0-1.34-.9-1.49-2.69-1.49s-2.83-1-4.47-1-2.24-2.09-2.69-3.44-1.64-2.38-2.68-3.58-.75-3.28-.75-4-1.34-1.34-1.34-2.08,1.19-.75,1.19-1.65v-3.73c0-1.34-1.19-2.83-2.09-3.73s-1.34-2.09-2.39-2.38a4.85,4.85,0,0,1-2.52-2.64" transform="translate(-687.27 404.32)"/><path class="cls-1" d="M1000.81-103.44s-.55,1.44-1,2.42-.37,1.83-.74,3a8.38,8.38,0,0,0-3,.74,32.06,32.06,0,0,1-6.86,1.49c-1.34,0-2.53,1.64-4.18,1.49s-4.62.75-6,.75S976.16-92,975-92s-1.94,1.64-2.84,2.53-2.38.77-2.38,2.24a10.18,10.18,0,0,0-2.66-.79c-1.33-.15-1.66-.9-4.06-.42-1.41.28-.85.42-2.39.14s-1.4-.42-2.24.42a4.6,4.6,0,0,1-1.64,1.1" transform="translate(-687.27 404.32)"/><path class="cls-1" d="M1020.3-117.76c6.07-6.42,15.53-6.38,15.53-6.38s-.5-18.55-.5-19.76-.88-1.21-.88-2.08,1-1,1-2.09-.77-1.54-.77-2.75v-4.62c0-2.09-.77-3.3-.77-4.29s.22-1.87-.77-2.63-.88-2.09-1.53-2.75-.56-1.76-.56-2.86a2.51,2.51,0,0,0-1.09-2.31,2.84,2.84,0,0,1-1-2.31,7,7,0,0,0-1.43-3.52,9,9,0,0,1-1.87-5.27v-8c-6.53.12-13.07.18-19.57.18" transform="translate(-687.27 404.32)"/><path class="cls-1" d="M1073.65-150.22c-.92-.28.59-1.77.23-2.23s-.4.39-1.09-.22-.32-1.75-1.15-2.28.34-1.12.81-2.87c.25-.93-1-1.21-.85-2.17.23-2.09,1-1.32,1-3.25,0-1.19.08-2.37.12-3.56a3.58,3.58,0,0,1,.07-1.85c.46-1.22,2.77-.37,3.45-2.79.21-.74-1.13-1.82-1-3a1.73,1.73,0,0,1,2.1-1.73c.14,0,.31-.13,0-.38L1076-178c-.18-.19-.09-.48.1-.45,2.9.36,1.35-2.75,2-4.14.5-.93-.07-1.15,0-1.79.09-2.62,1.37.19,2.42-1.1.68-.84,1-3.78,1.11-5.43,0-.28,0-.72-.3-.38-.55.56-1,1.14-1.61,1.69-.21.25-.57.32-.48-.21s0-.86,0-1.29-.33-.55-.52-.52c-13.24,1.55-29.35,1.67-43.44,2.07-3.18.08-6.38.15-9.57.21v8a9,9,0,0,0,1.87,5.27,7,7,0,0,1,1.43,3.52,2.84,2.84,0,0,0,1,2.31A2.51,2.51,0,0,1,1031-168c0,1.1-.1,2.2.56,2.86s.55,2,1.53,2.75.77,1.65.77,2.63.77,2.2.77,4.29" transform="translate(-687.27 404.32)"/><path class="cls-1" d="M1091.16-97.44h.06c1,0,0-1.94.64-2.51,1.22-1.12,1.79-2.12,3.46-2.06.72,0,3,.47,3.55.12,1.37-1-1.07-2.4.69-2a2.17,2.17,0,0,0,1.86-.81c.6-1.06-1.42-2.6-2.13-.47a1.87,1.87,0,0,1-2.71.82,3.32,3.32,0,0,1-.79-1.11,13.05,13.05,0,0,1-1.39-4.09c.12-3.57-2.37-.49-2.24-4.08.06-1.62-1.43-1.91-.72-2.87s1.46-6.13,1.06-7-1.22,3.64-2.43,2.3-1.67-3.74-2.2-4.84.07-1.87.13-3.55-.39-1.19-2-1.25c-.81,0-.21-1.72-.29-2.38s.52-2.36-.28-2.39c-1.58-.06-2,.38-2-1.26,0-1.3-1.65-1.36-2.5-1.43s-1.24-1.37-2.11-2.27.57-1.58.08-2.37-1.57-.39-2.52-.24-.35-1-1.31-1.44.64-.82-.6-1.82,0-3.55-.9-3.84" transform="translate(-687.27 404.32)"/><path class="cls-1" d="M1034.67-155.44v4.62c0,1.21.77,1.65.77,2.75s-1,1.21-1,2.09.88.88.88,2.08.5,19.76.5,19.76" transform="translate(-687.27 404.32)"/><path class="cls-1" d="M1072.08-81.49c-1-2.79.62-5.15,2.44-6.86.84-.79,2.31.15,3.42-.89,1.72-1.6,1.46-1.6,3.07.11,3.13,3.34,3.24-1.08,3.33-3.43,0-.73,2.76-.28,3.56-.25,1.89.07,1-.7,1.26-2.3.43-2.23-.51-2.41,2-2.33" transform="translate(-687.27 404.32)"/><path class="cls-1" d="M1097.15-52.54c-.41-4.52-4.75.34-4.6-4.18.06-1.61-.54-2.75,1.28-2.69,1.14,0,1.4.49,1.3,1.37-.36,1,.21.66.46.46,1.72-1.37,4.52-3.24,4.16-.28-.28.67-.1,1.24.63.41.92-1,1.43-2,2.55-.81,1.57,1.68,1.65,1.38,3.85,1.66s2.27,0,3.84,1.68a2.84,2.84,0,0,0,2.52,1c.62,0,.34-.75.18-1.09-.43-1-.87-1.91-1.31-2.87s0-1.19,1.28-1.24A3.51,3.51,0,0,0,1116.4-61c1.32-2.28-.78-2.41,2.84-2.28,2.76.1,2.06,1.48,4.28,2.53a9.9,9.9,0,0,0,3.52.2c.88,0,.74-.54.52-.77a4.68,4.68,0,0,1-1.53-2.34c-.08-1.08-.64-1.15-1-.85-1.73,1.45-3.84,2.64-3.73-.69.06-1.5-1.47-2.4-2.94-2.75-1.7-.37-.9-1.06-.4-1.56a2.41,2.41,0,0,1,1.52-.89c1.1,0,3.36.51,4.37.15,1.68-.61,1.63-2.3,3.63-2.23,1.45,0,2.14-.74,3-1.68.55-.49.55-1-.28-1-2.35-.08-4.6.24-7,.16-1.5,0-1-.74-.56-1.23,1.29-1.43,3-3.41,4.17-3.37,2.93.1,4.34,1.07,4.45-2.22.05-1.61.63-2.33-1.1-2.39s-1.16-.48-1.1-2c.08-2.34-4.33,1.39-4.64,1.68-1.38,1.3-1.93,4.86-2.6,6.65-.27.74-2.66.62-4,.4-.55-.09-1.25,0-.89-1.2s.68-2.34.12-3.38c-.27-.51-1.92-.07-2.35-.29-1.28-.64-2.75-2.69-3.88-4.1-.57-.59-.31-1,.42-.75,1.76.61,2.32-2.29,4.07-2.23,1.58.06,2,.51,2-1.13,0-1,.3-1.18-.7-1.21-2.11-.08-4.24-.06-6.34-.23-1.84-.14-2.48-.35-3.35-1.14-.36-.34-1.43-.69-1.48,1.44,0,1.72-.8,2.68-2.78,4.53-1.22,1.14-1.66,2-3.31,1.94-1.81-.06-1.09.69-1.27,2.3-.26,2.45-.17,5-.26,7.47-.12,3.62-.75.33-2.45,1.92-1.23,1.16,1.27,2.41-1.26,2.32-2.2-.08-6.28.58-8.27-.29-1.82-.8-3.54-5.45-2.12-7.18s2.31,1.81,2.44-1.9c0-.7-2.13-.67-2.61-.22-2,1.85-3.68,1.94-5.59,3.13a2.72,2.72,0,0,1-2.22-.17c-1.57-.66-2.72-.64-3.79-3.61" transform="translate(-687.27 404.32)"/><path class="cls-1" d="M1060-26.68a4.74,4.74,0,0,1,2.68-.61l5.47.19c2.75.09,2.17-1.44,4.44-2.22,3.08-1.07,2.33,1.71,2.26,3.63-.08,2.41-.34,3.33,1.35,5.13,1.35,1.44.71,3.49.65,5.4,0,.56,0,1-.06,1.44-.21,1.19-.26,1.9.73,1.5,2.35-.94,5.43-.16,8-.07,1.81.06,3.62,1.6,5.18,2.45,1.17.64,2.7.27,4,1,3.74,2,6.79,4.22,11.09,4.37,2.06.08,2.54,2.47,4.13,2.53s3.58.56,4.28,2.51c.29.8-.73,4.71.21,4.75,2.92.1,2,1.32,1.87,4.06,0,1,2.45.94,3.48,2a12.07,12.07,0,0,0,3.49,1.68c.26.87-.39,2.81-.93,4.76-.31,1.09-1.77,2.59-2.58,3.47s-3.52,2.27-3.57,3.71c-.06,1.68,0,2.16.71,2.93,1,.94,1.85-.2,2.26-.91a27.9,27.9,0,0,0,1.35-2.57c.43-1,0-2,.64-2.64,2.28-2.12,3.91-8.26,6.87-9,1.11-.26,3.57.13,4.74.17,2.32.08,2.38-.28,2.3,2.09-.1,2.76,3.43,2.95,5.75,3,.57.1,1.55-.26.19-1.14-.4-.43-1.07-1.45-.23-2.27,1.79-1.73,3.34-3.63,5.89-3.54,5.43.19.54-2.42,3.09-4.8,1.68-1.58,2.26-1.84,2.34-4.12,0-1.17,2.36.78,2.44-1.46,0-.8.48-3.55-.26-3.57-1.73-.06-2.34-.14-2.07-1.72.23-.67-.08-.67-1.31.06-1.77,1-4.46,2.3-5.71,1.34s1.52-2.31-1.1-2.4c-2.27-.08-.35-.91-1.1-2.42-.48-1-1.81-1.49-2.29-2.45-.75-1.51,1.17-2.33-1.1-2.41s-.37-.91-1.1-2.43c-.29-.58-2.1-2.62-2.55-2.2-1.22,1.14-2.18,1.57-2.24,3.23,0,1.36-.91,1.76-2.41,1.11-2.65-1.13-1.39-4.8-3.37-4.87s-6,.68-5.88-1.37c.08-2.25-.88-.41-2.32-1.26a8,8,0,0,1-1.79-1.86c-.2-.38-.78-.53-.62.14.43,1.86-1.11,1.6-3.08,1.53-2.42-.09-4.09.57-4-1.63.24-.78-.12-.78-.56-.59l-3.11,1.43c-1.12.66-.94-.15-.93-.43.07-1.62-.79-2.28-2.08-3.65-.38-.41.85-1.42,1.66-2.08.49-.28.65-.6-.7-.51a8.09,8.09,0,0,1-3.63-.5c-.36-.34,0-2,.21-3.31.05-.47.36-1.41-.72-.61s-3.21,1.94-4,1.78-2.55-2.94-3.09-3.34c-.7-.5-1.9-1-3.13-1.79a1.24,1.24,0,0,1-.5-1.66c.28-.86.85-1.23,1.73-2,.21-.18.73-.88-.62-.72s-1.15-.85-1.09-2.55c.08-2.32-.25-2.4,2.09-2.32.74,0,.47-2.74.5-3.53.06-1.83,1.15-1.15,2.77-1.1,1.16.05,6.8.82,8.23.52.89,1.39-.65,2.13,2.79,2.25.72,0,1.47,1,2.07,1.72.43.75.8.39.81-.38,0-1.32-.44-1.61-2-1.66-1.11,0-2-2.86-3.62-2.47-1.14-.31-1.55.21-3-1.32-.69-.75-3.11-.63-3.17-1.32" transform="translate(-687.27 404.32)"/><path class="cls-1" d="M1037.62-48h2.81c.85,0,1.1,1.1,2.2,1.1s1.09,2.19,1.09,3.17-1.09,1.1-1.09,2.2,1.09,1.71,1.09,2.93v2.68c0,.74-1.34.37-2.07,1.47s-.37,1.47.24,2.44,1,3.05,1.83,3.79,1.59,1.34,1.59,2.44,1,1.22,2,1.46a14.26,14.26,0,0,0,2.94.49c.73,0,2.31-.73,2.93-.12s1.52,2.92,2.62,3.16c.09-2.58-.79-4.38,2.15-4.28.91,0,1.5-1,2.14-1.58" transform="translate(-687.27 404.32)"/><path class="cls-1" d="M1008.44-69.16s2.07.86,1.83,2,1,1.83,2.07,1.22,2.45,1.59,2.2,3.17,1,3.18,2,4a5.79,5.79,0,0,0,3.66,1.83,4.2,4.2,0,0,1,3.91,2.93,21.83,21.83,0,0,1,1,4.52c0,1.1.25,1.47,1.83,1.47h10.75" transform="translate(-687.27 404.32)"/><path class="cls-1" d="M1008.44-69.16h-3.67c-1,0-1.46,1.1-2.19,1.1s-1.23-1.58-2.2-1.34-1.71,1-2.32-.24" transform="translate(-687.27 404.32)"/><path class="cls-1" d="M999-98c.37-1.22.25-2.08.74-3s1-2.42,1-2.42c.88.55,1.87-.77,2.75.22s.44,2.2,1.76,2.2h3c.66,0,1.76-1.43,2.31-2.64.22-.49,2-3,4-5.73,1.08-1.47,1.08-3.72,2.34-5,.8-.79,2.08-2.24,3.34-3.39a31,31,0,0,1,2.89-2.46,21.66,21.66,0,0,1,6.54-3" transform="translate(-687.27 404.32)"/><path class="cls-1" d="M999-98a8.38,8.38,0,0,0-3,.74,32.06,32.06,0,0,1-6.86,1.49c-1.34,0-2.53,1.64-4.18,1.49s-4.62.75-6,.75S976.16-92,975-92s-1.94,1.64-2.84,2.53-1.79.9-2.38,2.24.44,1.94.44,3.28.15,3.14.15,4.18.75,1.49,1.79,1.49,1,.75,1,2.39.15,2.39,1.64,2.39,2.24,1.33,2.24,3.13h7.16c1.79,0,1.79-1.05,2.69-1.5s2.83.3,3.58.9,1.79,1.94,2.53,1a1.73,1.73,0,0,1,2.54,0c.6.6,1.45.45,2.5.3" transform="translate(-687.27 404.32)"/><path class="cls-1" d="M977.06-70.38c0-1.8-.75-3.13-2.24-3.13s-1.64-.75-1.64-2.39,0-2.39-1-2.39-1.79-.44-1.79-1.49-.15-2.83-.15-4.18-1-1.93-.44-3.28a10.18,10.18,0,0,0-2.66-.79c-1.33-.15-1.66-.9-4.06-.42-1.41.28-.85.42-2.39.14s-1.4-.42-2.24.42a4.6,4.6,0,0,1-1.64,1.1,11.15,11.15,0,0,1-2.08.75c-1.2.3-3.74,2.24-4.78,2.24h-4.18c0,1.94-.59,3-1.19,3h-2.09v3.28h0A9.18,9.18,0,0,1,944.38-73c.28,1.68,1.13,1.82,2.11,2.24s1.26,2.25,1.26,3.65-.14,2.38,1,2.8a15.69,15.69,0,0,0,3.36.42c.84.14,2.38,0,2.95.84s2.66,1.82,2.52,3.23-1.12,2.1-.28,3.36,1.82,2.66.42,3.36c-.84.42-1,1-1,2.11a16.7,16.7,0,0,1-.14,2.1" transform="translate(-687.27 404.32)"/><path class="cls-1" d="M1024.14,2.16c1.41-.63.82-2.78,1-3.61a19.76,19.76,0,0,1,2.69-6.86c.36-.89,2.09-1.65,3-.45A28.55,28.55,0,0,0,1033-5.5c1.07,1.16.14,2.61,1,3.51,1.78,1.91,1.93,2.05,2,4.56,0,.84-.62,4.09-.17,4.74.28.39,2.1-.31,2.37.08s-.06,1.89-.08,2.37c-.12,3.48-.19,1.21-2.45,2.3s-1.54,2.43-4.25,2.34c-.54,0-1.64,1-2.54,1.45-2.47,1-2.42,2,1.19.67a102.5,102.5,0,0,0,20-9.52,53.84,53.84,0,0,0,8.16-6.86c2-1.88,4-4.72,6.54-5.67,1.22-.3,1.47-.88.23-.72a8.11,8.11,0,0,0-5.11,2.56c-1.25,1.16-1.83,2.11-3.5,2.52s-1.6-.23-1.71-.49c-1.08-2.66-4.18-5-4.07-8.29.06-1.64.48-1.17,2.06-1.11,1.1,0-.27,1.93.29,2.39s4.21.14,5.1.17c2.85.1,2.93-2.27.09-2.37-1.9-.07-3.69.19-2.66-2.47.52-1.34,4-2.46,2.54-4.67-.39-.59-2.4.65-2.36-.45,0-.78,0-1.57.08-2.36-1.1-.24-2-2.55-2.62-3.16s-2.2.12-2.93.12a14.26,14.26,0,0,1-2.94-.49c-1-.24-2-.36-2-1.46s-.73-1.71-1.59-2.44-1.22-2.81-1.83-3.79-1-1.34-.24-2.44,2.07-.73,2.07-1.47v-2.68c0-1.22-1.1-1.83-1.1-2.93s1.1-1.22,1.1-2.2,0-3.17-1.1-3.17-1.34-1.1-2.19-1.1h-13.56c-1.58,0-1.83-.37-1.83-1.47a21.83,21.83,0,0,0-1-4.52,4.2,4.2,0,0,0-3.91-2.93,5.79,5.79,0,0,1-3.66-1.83c-1-.85-2.2-2.44-2-4s-1.1-3.78-2.2-3.17-2.32-.12-2.07-1.22-1.83-2-1.83-2h-3.67c-1,0-1.46,1.1-2.19,1.1s-1.23-1.58-2.2-1.34-1.71,1-2.32-.24c-1,.15-1.9.3-2.5-.3a1.73,1.73,0,0,0-2.54,0c-.74.9-1.79-.44-2.53-1s-2.69-1.34-3.58-.9-.9,1.5-2.69,1.5h-7.16" transform="translate(-687.27 404.32)"/><path class="cls-1" d="M940.65-26.85a3.28,3.28,0,0,1,2.35.94c1.38,1.46,1.48,1.58,1.41,3.57,0,.95,1.73.09,2.34.45,3.39,2,1.61,3.75.15,6.39-.76,1.39-1.51.11-2.75.65-.8.35-1.63,1.52-2.27,2.12-1,1-.07,4.91-3.09,4.81-2.16-.08-1.72-.29-1.94-2.08-.28-2.27-2.72-1.59-1.4.57s3.62,3.88,5.44,5.81c.85.91,1.73.26,2.85.59a23.47,23.47,0,0,1,3.93,2.15c1.21.66,1.83,2.29,3,2.84.94.44,3,.1,4,.14,2.23.08,3.81,2.51,6,2.58C965.19,4.84,972.8,3.61,976,7c1.59,1.69,1.5,5.41,4,5.49,1.89.07,3.59,2.36,5,4,.27.33.82,1.46.65-.15-.1-.87.25-1.3,1.39-1.27,2.52.09,0-1.17,1.26-2.33s2.3,1.42,2.38-1.09c.06-1.64.48-1.17,2-1.11l7.11.24c1.13,0-.31-2.39.82-2.35s2,.55,2-.67c.06-1.84-.66-6.39,1.41-6.32.94,0,5.9.52,5.92-.17,0-1.33.1-2.66.14-4,0-1.13-2.36.3-2.32-.82.1-3.14,2.55-1,2.59-3.3-.38-1.3.68-.15,1.07.26s1,2.28,1-.11c-.07-3.4,4.18,1.47,5.24,1.5,4,.14.49,3.33,2.64,5.66.64.68,2.28,2.37,3.85,1.67" transform="translate(-687.27 404.32)"/><path class="cls-1" d="M956.58-48.92c-.84-1-2-2.52-3.09-2.52s-2.94.28-3.92-.56a5.29,5.29,0,0,0-3.22-1.55,7.87,7.87,0,0,1-4.21-1.12,10,10,0,0,0-5.61-1.54,8.94,8.94,0,0,1-4.76-1c-1-.56-.7-2.8-.28-4.21s1-2.66,0-3.64a9.75,9.75,0,0,1-2.24-3.79A5,5,0,0,0,927-71.77a11.47,11.47,0,0,1-4.34-4h-3c-3.73,0-4.17.75-6.86.75s-3.13.6-4.48,1.79-1.94,2.54-3.13,4.48-2.24,4.62-4,5.67-3.58,2.68-5.07,3.43-2.69,3.43-4,4a24.77,24.77,0,0,0-5.73,4.65c.29,1.32,1,2.15,2.39.82a22.49,22.49,0,0,1,6.86-4.24c1.35-.61,13.52-.57,14.43.41.47.5-.07,6.93-.51,7.34-1.22,1.13-2.17,1.55-2.23,3.21-.06,1.83.7,1.09,2.32,1.27.59.07,7.1,0,7.09.46-.12,3.36-.32,4.22,1.63,6.43.16.18.67.57,0,1.06a6.78,6.78,0,0,0-2,2.94c-.24.72,0,1.3,1,.77,2.74-1.08,5.32-1.52,7.57-3.11.36-.25,1.07-1.14,1,.73-.09,2,2,3.22,4.27,3.3,2.81.1,4.15.87,6.64,2.24,1.23.67,2.65.4,3.94.47" transform="translate(-687.27 404.32)"/><path class="cls-1" d="M817.33-130.94a2.51,2.51,0,0,0,.73,2.07c1,1.22,1.7,1.82,1.7,2.55v3.16a3.12,3.12,0,0,1-1.7,2.31c-1,.49-.85,1.22-.61,2.07s.61,1.7.24,2.43-1,1.33-.48,1.94.36,1,.36,1.82v7.3c0,1,0,1.58,1,2.06s3,.73,2.31,2.07-1.58,1.82-1.58,3-.6,1.83-1.33,2.8-.37,1.7-.37,2.43a9.39,9.39,0,0,0,1.1,2.67" transform="translate(-687.27 404.32)"/><path class="cls-1" d="M875.4-40.91a10.42,10.42,0,0,0-1.09-.09l-7.45-.26c-3.49-.13-3-2.12-4-5.39-.93-3.11-.54-4.16,1.81-6.35,1.91-1.79,4.75-3,7-4.37s4.44-1.84,6.3-3.47" transform="translate(-687.27 404.32)"/><path class="cls-1" d="M818.67-90.23a34.79,34.79,0,0,1-4.14,2c-1.76.72-4.13,2.55-5.95,3.64h9.6v48.81c4.84.16,9.86-.1,14.64.75,5.78,1,11.62,2.53,17.5,2.73,2.8.1,5.06-2.49,7.74-3.71,2.12-1,4.13-.61,6.47-.53,1.75.06,5.86-.5,7.33.56a.5.5,0,0,1,.08.07" transform="translate(-687.27 404.32)"/><path class="cls-1" d="M817.33-130.94v-.85a4.86,4.86,0,0,1,.51-1.25c.36-.56,0-1.41.21-2.12a3.4,3.4,0,0,1,1.63-1.84c.78-.43.92-1.35,1.49-2.06s.21-1.41-.42-2.05a4.76,4.76,0,0,1-.93-3.4v-31.23h8.64c1,0,1-.91,1.83-1.26s.79-.87.79-1.48-.79-.7-.79-1.66.7-1.4,1.58-1.49,1.31-1,2.88-1.48,2.36-1.22,2.36-2,1-1.22,2.36-1.22a5.19,5.19,0,0,1,3.75,1.66c.7,1,1.23,1.74,2.19,1.74H849s.09,2.27.09,3.15,1.57,2.18,2.27,2.79a3.77,3.77,0,0,1,1.39,2.71v4H855" transform="translate(-687.27 404.32)"/><path class="cls-1" d="M899.39-133.59v-2.7c0-.7-1.75-1.31-2.1-2.62s-.87-2.1-.35-3.15,1-1.83.7-2.79.26-1.66.61-2.45,0-1.74,0-2.44,1.14-1.14,1.14-2.27v-3.5c0-1-1-.52-1.22-1.83s-1.31-1.31-1.31-2.27-.44-1.75-.44-2.62.09-2.89-.79-2.89-2,.35-2.62-.52a2.23,2.23,0,0,1,.09-2.53c.44-.88-1-1.23-1.48-2l-25.07.08c-.7,0-.88-.61-1.49-.61s-.79.44-1.66.44H855" transform="translate(-687.27 404.32)"/><path class="cls-1" d="M871.94-36c1.57,1.16,4.79,4.53,6.62,4.6,1.17,0,3.49-.36,4.53.16s1.36,2,2.29,2.45c1.34.72,2-.32,3.17.94,1.37,1.46,1.49,1.57,3.46,1.64,3.1.11,5.15-.8,5.27-4.16,0-1,2.27-2.78,3.79-4,2.14-1.89-.67-.82-1-1.21s1.05-3.12-1.15-1.27c-1.91,1.61-2.13.68-4.33-1.7-1.43-1.56-1.56-1.83-3.67-1.9-1,0,.29-2.36-.49-2.38l-8.08-.29c-2.27-.08-.42.87-1.27,2.32a7.62,7.62,0,0,1-1.8,1.89.59.59,0,0,1-1.06,0,3.62,3.62,0,0,0-2.79-2" transform="translate(-687.27 404.32)"/><path class="cls-1" d="M942.44-77.54v-3.28h2.09c.6,0,1.19-1,1.19-3-1,0-2.08.3-2.83-.75s-1.19-2.39-2.69-2.39" transform="translate(-687.27 404.32)"/><path class="cls-1" d="M878-60.84c.06-.06.13-.1.2-.17,1.27-1.19,1.44-1.14,3.22-1.08.93,0,2-1.5,2.64-2.11a1.46,1.46,0,0,1,2.52,1.1c-.09,2.63,1.41-.1,2.32,1.27,1.32,2-2.17,5.43-2.61,7a10.13,10.13,0,0,0,0,3.84A24.77,24.77,0,0,1,892-55.6c1.34-.6,2.54-3.29,4-4s3.28-2.39,5.07-3.43,2.84-3.73,4-5.67,1.79-3.29,3.13-4.48S910.06-75,912.75-75s3.13-.75,6.86-.75" transform="translate(-687.27 404.32)"/><path class="cls-1" d="M899.39-133.59h2.33a4.85,4.85,0,0,0,2.52,2.64c1,.3,1.5,1.49,2.39,2.38s2.09,2.39,2.09,3.73v3.73c0,.9-1.19.9-1.19,1.65s1.34,1.34,1.34,2.08-.3,2.84.75,4,2.23,2.24,2.68,3.58,1.05,3.44,2.69,3.44,2.68,1,4.47,1,2.69.15,2.69,1.49a5.81,5.81,0,0,0,.89,3.58c.9,1.64-.29,3.43.15,4.78a4.08,4.08,0,0,1,0,3c-.29,1.2.15,1.64,1.79,1.34s3.58-.74,5.08-.29,2.83,3,2.83,4.47" transform="translate(-687.27 404.32)"/><path class="cls-1" d="M922.66-75.75a11.47,11.47,0,0,0,4.34,4,5,5,0,0,1,2.25,2.94A9.75,9.75,0,0,0,931.49-65c1,1,.42,2.24,0,3.64s-.7,3.65.28,4.21a8.94,8.94,0,0,0,4.76,1,10,10,0,0,1,5.61,1.54,7.87,7.87,0,0,0,4.21,1.12A5.29,5.29,0,0,1,949.57-52c1,.84,2.8.56,3.92.56s2.25,1.54,3.09,2.52a16.7,16.7,0,0,0,.14-2.1c0-1.13.14-1.69,1-2.11,1.4-.7.42-2.1-.42-3.36s.14-2,.28-3.36-2-2.39-2.52-3.23-2.11-.7-2.95-.84a15.69,15.69,0,0,1-3.36-.42c-1.12-.42-1-1.4-1-2.8s-.28-3.23-1.26-3.65-1.83-.56-2.11-2.24a9.18,9.18,0,0,0-1.94-4.51h0" transform="translate(-687.27 404.32)"/><path class="cls-1" d="M836.34-347.76v-.83c0-.74.9-.75.9-1.81v-8.87c0-1-1.21-.33-1.21-1.2s1.1-.22,1.1-1.1v-4.59h-9.64v-5.48h-2.62c-1.32,0-.66-.22-2-2-1.61-2.14-5.26-2.62-5.26-2.62h-9.19" transform="translate(-687.27 404.32)"/><path class="cls-1" d="M788.94-310.07v3.24c0,1.21.93.65,2,1.76a2.62,2.62,0,0,1,.83,3.16c-.37,1.48.46,2,1,2.78a3.37,3.37,0,0,1,.93,2.78c0,1.76-.47,1.57-1.11,2.87s.83.92.64,2.31.84,1,1.3,2.41-.65,1.67-1.57,2.69-.65,1.95-.65,2.87v3.43c0,1.3-.19,2.69-1.3,1.86a2.2,2.2,0,0,0-3.15,0c-1.11.92.56,1.11.09,2s.28,1.11.28,2.68-.09,2.69-1.11,3.52a3.56,3.56,0,0,0-1.3,3.25c0,1.57,0,3.1.56,3.7s.37,1-.19,2-.18,1.86.65,1.86h2.22c.75,0,.65,1.29,1.12,1.29h1.39v3c0,.93.27,1.48.92,1.48h2.23c.65,0,.83.28,1.39,1.48a1.89,1.89,0,0,0,2,1.39h3.7c.93,0,1.58,1.3,2,2.51s1.2,1.76,2.32,3,2.27,1.32,3.15,3.06a14.4,14.4,0,0,1-2.88,2.23c-1.29.65-2.78,1.39-3.05,2.41s-2,2.22-3,2.68-2.5,1.12-3,2.23a7.08,7.08,0,0,1-3.33,3.24,6.52,6.52,0,0,0-2.87,2.32c-.84,1-2.23.28-3.06,1.11s-.69,1.56-.89,2.44c-1.09-.37-1.82,0-3-1.34s-4.26-1.54-6.93-1.54h-16" transform="translate(-687.27 404.32)"/><path class="cls-1" d="M703.22-277a13.91,13.91,0,0,1,0,1.59c-.07,1.92,2.13,2.92,3.48,4,1.08.86,1.74,3.2.75,4a1.13,1.13,0,0,0,.07,2,2.78,2.78,0,0,1,1.13,2.52c0,1.09,2-.13,2.35.45s.1,2.4-.45,2.38c-3-.1-2.06,1.72-2.15,4.3-.07,1.95-.28,2.69-1.12,3.61-.68.67-1.1,1.29-.16,1.32,1.6.05,1,1.79,1,3.71-.06,1.62.38,1.19,2,1.24,1.09,0-.27,1.94.29,2.39.82.68,4.78.17,5.92.21,1.48.05,1.39,1.62,1.2,3.15-.12,1.31-.81,1.76-1.52,1.72-1.4.16-1.82.83-.57,1.82.88.7,2.12.78,3.83.53.69-.1.25,3.59.22,4.38,0,1.08,1.92-.13,2.33.45.31.43-.15,1.81-.08,2.36a16.89,16.89,0,0,1,.49,3.53c-.08,1.53-.72,2.92-.75,3.95-.08,2.26.4,2.51,2,4.19.61.65,2.63-.22,2.6.71,0,.74-.54,3.82-.15,4.37,1,1.36,2.42-1.34,2.33,1.27s0,3.53,1.55,5.31c.65.8.56.17.56-.48.18-1.35,1.37-1.39,2.79-1.24,0-1.08.16-5.06.35-6.67a2.71,2.71,0,0,1,2.8-2.52h6.87a6.24,6.24,0,0,1,1.68-3.09c1.12-1.12,1.82-4.06,2.39-5.18s1.54-1.12,3.36-1.12h10.79" transform="translate(-687.27 404.32)"/><path class="cls-1" d="M787.31-222.93c-1.09-.37-1.82,0-3-1.34s-4.26-1.54-6.93-1.54H750.53c-1.82,0-2.8,0-3.36,1.12s-1.27,4.06-2.39,5.18a6.24,6.24,0,0,0-1.68,3.09h-6.87a2.71,2.71,0,0,0-2.8,2.52c-.19,1.61-.35,5.59-.35,6.67.51,0,1,.12,1.56.16a.44.44,0,0,1,.35.69c-.43.91-.8,2-1.47,2.32-1.34.65-.1,2.44,1,3.71a.53.53,0,0,1-.56.77c-2.65-.32-2,4.3-.4,4.36,2.74.1,1,5.23,1,5.93-.07,1.91-.79.91-2.42,1.11s-2.34-.8-2.41,1.09c0,.85-.28,3.56.25,3.58,1.72.06,4.4-.67,4.33,1.34-.09,2.46.63,3.58-2.13,3.48-1,0,.18,2.31-1.69,2.41-.29,0-.67.36-.05,1.2a5.4,5.4,0,0,1,1,2.46c.8-.25,1.5-.47,1.89-.61a5.12,5.12,0,0,1,4,.73,4,4,0,0,0,3.89.36c1.33-.73,2.31-1.82,4.62-1.82s22.11-.24,23.81-.24,1.34.85,2.56.85h4.25c1.21,0,1.09-.85,2.19-.85h6.68v1.09H800v-1.82" transform="translate(-687.27 404.32)"/><path class="cls-1" d="M846-286.13v-23.09H841.5c-1,0-1.89-1-2.84-1s-1,1-1.79,1H833.4c-2.1,0-2.62-.85-6.93-.85H788.94v3.24c0,1.21.93.65,2,1.76a2.62,2.62,0,0,1,.83,3.16c-.37,1.48.46,2,1,2.78a3.37,3.37,0,0,1,.93,2.78c0,1.76-.47,1.57-1.11,2.87s.83.92.64,2.31.84,1,1.3,2.41-.65,1.67-1.57,2.69-.65,1.95-.65,2.87v3.43c0,1.3-.19,2.69-1.3,1.86a2.2,2.2,0,0,0-3.15,0c-1.11.92.56,1.11.09,2s.28,1.11.28,2.68-.09,2.69-1.11,3.52a3.56,3.56,0,0,0-1.3,3.25c0,1.57,0,3.1.56,3.7" transform="translate(-687.27 404.32)"/><path class="cls-1" d="M809.33-241.59c-1-1.83-2-1.76-3.15-3.06s-1.95-1.85-2.32-3-1-2.51-2-2.51h-3.7a1.89,1.89,0,0,1-2-1.39c-.56-1.2-.74-1.48-1.39-1.48h-2.23c-.65,0-.92-.55-.92-1.48v-3h-1.39c-.47,0-.37-1.29-1.12-1.29H786.9c-.83,0-1.2-.84-.65-1.86s.79-1.43.19-2" transform="translate(-687.27 404.32)"/><line class="cls-1" x1="158.75" y1="118.19" x2="187.18" y2="118.19"/><path class="cls-1" d="M916.69-267.08c-.44-1-1.26-1.32-1.45-2.27s-1.58-1.7-1.83-2.21.63-1.26.63-1.89v-3.79a3.1,3.1,0,0,0-.57-2c-.44-.5.06-1.7.76-2.59h-2.1v-8.73H908.3c-.86,0-.57,1.44-1.43,2.3s-1.15,2.1-2.2,2.39-1.34,1.62-2.1,2.58a4.81,4.81,0,0,1-3.54,1.81,7,7,0,0,0-3.73,1.05c-.76.58-.86-1.14-1.53-1.33s-.57-1.25-.57-1.82,0-1.63-1.15-1.63-1.53-.86-2.48-1.24-.38-2.48-1.44-2.48a4,4,0,0,1-2.58-1.53l-2.11.52v3.84h-9" transform="translate(-687.27 404.32)"/><path class="cls-1" d="M809.33-241.59a14.4,14.4,0,0,1-2.88,2.23c-1.29.65-2.78,1.39-3.05,2.41s-2,2.22-3,2.68-2.5,1.12-3,2.23a7.08,7.08,0,0,1-3.33,3.24,6.52,6.52,0,0,0-2.87,2.32c-.84,1-2.23.28-3.06,1.11s-.69,1.56-.89,2.44" transform="translate(-687.27 404.32)"/><path class="cls-1" d="M800-174.93h8c1,0,1.84-.81,3.4-.81h17.06c1,0,1-.91,1.83-1.26s.79-.87.79-1.48-.79-.7-.79-1.66.7-1.4,1.58-1.49,1.31-1,2.88-1.48,2.36-1.22,2.36-2,1-1.22,2.36-1.22a5.19,5.19,0,0,1,3.75,1.66c.7,1,1.23,1.74,2.19,1.74H849" transform="translate(-687.27 404.32)"/><path class="cls-1" d="M849-182.94s.09,2.27.09,3.15,1.57,2.18,2.27,2.79a3.77,3.77,0,0,1,1.39,2.71v4H863.4c.87,0,1.05-.44,1.66-.44s.79.61,1.49.61l25.07-.08c-.53-.79.08-1.57,1-1.92s.62-1.05.62-1.75v-5.07c0-.87-1-1.05-1-1.92v-2.88c0-.61.78-1.14,1.83-1.14s1.92-1.14,2.45-2.27,1.4-.61,2.09-1.57,1.23-3.06,2.33-4.18" transform="translate(-687.27 404.32)"/><path class="cls-1" d="M900.93-192.88c-.7,1,1,2.31,1.82,2.25,1.82-.14,2.35-2.06,3.37-.84a3.71,3.71,0,0,1,1.12,3.08c-.28,1.12-.45,1.72.24,1.6,1.18-.53,4.07-1.19,4.83-2.19,1.05-1.38,0-2.28,1.66-3.85,1.39-1.29-.09-1.84-1.25-3.09-.69-.75-1.81-2.6-2.82-2.64-4.69-.16-.06-4.66.61-7.08a21.19,21.19,0,0,0,.16-4.37c0-1.18-2.4.6-2.32-1.64.09-2.57-2.38.13-2.29-2.45.06-1.79,1-1.15,2.62-1.09,3.92.13,5.53-.31,9.13-2,.56-.26.33-3.75.36-4.46,0-1.17-2.38.6-2.3-1.63s-2.35-.47-2.31-1.63c0-.5,0-1,.05-1.48a2.82,2.82,0,0,0-.5-1.06c-1.34-1.4-2.9-3.15-1.05-4.86s4.23-3.09,4.11.38c-.06,1.67.05,5.12,2.55,5.2,2.15.08,2,.23,2.07-1.93,0-.49,1-.5,1.69-.41.28,0,.68.08.13-.47-1-1-1.91-2.05-2.87-3.08-1.49-1.6-.35-1.81-1.07-3.6-.52-1.32-2.29-1.64-2.24-3.2l.15-4.36c.09-2.44.15-1.81,2.42-1.9,1.44-.05,2.93.11,4.38.16,3.23.11,2.94-4.9,3-5.83,0-.56-.9-.28-1.25-.07-1.42.89-4.86,2.16-6.18.74-2.55-2.75-2.68-3.63-.36-5.93.65-.7,1.17-.36,1.14-.17-.49,2.68.9.5,2.17,1.87.67.72,2.7,2.67,3.5,2.53,1-.17,1-.36,1.07-.62s-.3-1.64.26-2.16,2.1-1.48,2.19-2c.27-1.55-2.25-3.51-2.19-5.19a4.39,4.39,0,0,1,2.52-4.27c.64-.32,2.35.66,2.39-.29a.49.49,0,0,1,0-.18h-15" transform="translate(-687.27 404.32)"/><path class="cls-1" d="M689.15-314.93q-.28,8-.56,16c-.1,2.9-1.32,4.91,1.82,5,1.13,0-.47,2.34.66,2.38,2.15.08,1,0,.95,2.14,0,1.17,2.4-.61,2.32,1.64-.09,2.54,1.16,0,2.32,1.27s-1.43,2.31,1.1,2.4c.63,0-.42,1.82.5,1.78a2.75,2.75,0,0,1,2.24,2c0,.43-.22.85,0,1s.79,0,1.38,0c1,.19,1.3,1.16,1.38,2.36" transform="translate(-687.27 404.32)"/><path class="cls-1" d="M708-402.54c-6,0-12-.23-18.1-.44.06.41.11.82.17,1.24.67,5.18,1.79,10.42,1.61,15.65q-.33,9.34-.65,18.7l-1.11,31.7-.72,20.76" transform="translate(-687.27 404.32)"/><path class="cls-1" d="M736.06-403.3c-4.56.05-9.14.18-13.79.44-4.81.27-9.56.34-14.32.32" transform="translate(-687.27 404.32)"/><path class="cls-1" d="M761.38-402.84,757.2-403c-7.15-.25-14.13-.38-21.14-.3" transform="translate(-687.27 404.32)"/><path class="cls-1" d="M808.45-376.23v-3.07c0-1.09-.88-1.53-.88-2.41s1.75-.66,1.75-1.75v-17.81c-16-.13-32-1-47.94-1.57" transform="translate(-687.27 404.32)"/><line class="cls-1" x1="101.67" y1="94.25" x2="112.49" y2="94.25"/></svg>