<svg id="base_map" data-name="base map" xmlns="http://www.w3.org/2000/svg" viewBox="0 0 470.45 435.66"><defs><style>.cls-1{fill:none;stroke:#ed1c24;stroke-linecap:round;stroke-linejoin:round;stroke-width:4px;}</style></defs><path class="cls-1" d="M1293.37,898.72V881.34a1.31,1.31,0,0,1,1.45-1.34h12.76V849.87h-6.68c-1.09,0-1,.85-2.19.85h-4.25c-1.22,0-.85-.85-2.55-.85s-21.51.24-23.82.24-3.28,1.09-4.62,1.82a4,4,0,0,1-3.89-.36,5.12,5.12,0,0,0-4-.73c-.38.14-1.09.36-1.89.6a26.09,26.09,0,0,1,0,4.57c-.09,2.57-2.36-.28-2.44,2.28,0,.8.23,3.57-.5,3.54-4.18-.14-1.39,4-1.53,7-.07,1.43-2,3.06-6.23,6.38-1.37,1.08-.44,3.39-.46,4.1a4,4,0,0,1-2.13,2.54c-1.92.31-1.56,1.09-2.33,2.23-1.36.52-.45,1.26-.06,1.56.62.46,0,1.83,1.55,1.88,1.8.06,1.62,2,0,2.35-2,.13.35,1.46.82,3a10,10,0,0,1,0,3c-.06,1.63-.46,1.17-2,1.12-1,0,.08,1.87-.45,2.36s-2.34-.77-2.38.28c0,.48,0,.95,0,1.43" transform="translate(-1208.49 -618.75)"/><path class="cls-1" d="M1235.49,901l-.06,1.76c0,1.18-.08,2.37-.13,3.55a4.4,4.4,0,0,0,0,1.64c.19,1.13,1,1.82,2,2.86a1.21,1.21,0,0,0,.91.34l1.38.05c.72,0,.27,2.77.24,3.55-.06,1.7.41,4.09-.31,5.26-.16.26-.49.63-.41.67a.9.9,0,0,1,.49.52,3.23,3.23,0,0,1-.06,1.84c0,.8-.06,1.59-.08,2.39l1.65,1.75c.21.23-.18.52-.48.53-2.12,0-1.19,2.66-1.42,4.8-.15,1.34.17,1.81-.73,2-.57.11-.57.42.15.58s.57,1.13.26,1.74c-.14.26-.31.52-.48.78" transform="translate(-1208.49 -618.75)"/><path class="cls-1" d="M1238.31,937.61a30.28,30.28,0,0,1-4.43,4.41c-2.84,2.65-4.69,3.65-4.83,7.63-.15,4.16-5.22,10.81-9.5,10.66-.73,0-.47,2.74-.5,3.54,0,1.53.6,1.86,1.66,3,.83.9-.07,2.36.51,3,.79.87,2-.63,2.72.83,1.18,2.59,2.26,6,5.28,3.15l3.72-3.44c.53-.5,1.91.08,2.62-.07l9.3-2c1.89-.4,3.92.34,5.85-.07,5.48-1.19,10.23-2.57,15.73-1,2.71.79,6,2.92,8.18.86,1.83-1.72,3.86-1.06,6.33-1,5.12.18,10-.23,14.75,1.85,4.94,2.19,9.82,5,14.85,6.89q8.43,3.18,16.87,6.31a25.48,25.48,0,0,1,6.23,3.66c2.58,1.86,3.5,2.22,6.63,2.33h.11" transform="translate(-1208.49 -618.75)"/><path class="cls-1" d="M1339.54,893.13v-.85H1326.3v3.77c0,1-2.19,1.22-3.65,1.22h-20.78a4.84,4.84,0,0,0-2.55.85,6.58,6.58,0,0,1-2.92.6h-3" transform="translate(-1208.49 -618.75)"/><path class="cls-1" d="M1322.17,849.14h8c1,0,1.84-.81,3.4-.81H1342v31.23c0,1.63.28,2.76.92,3.4s1,1.34.43,2-.71,1.63-1.49,2.06a3.36,3.36,0,0,0-1.63,1.84c-.21.71.14,1.56-.21,2.12a4.68,4.68,0,0,0-.52,1.25H1326.3v3.77c0,1-2.19,1.22-3.65,1.22h-20.78a4.84,4.84,0,0,0-2.55.85,6.58,6.58,0,0,1-2.92.6h-3V881.34a1.31,1.31,0,0,1,1.45-1.34h12.76V851h14.59Z" transform="translate(-1208.49 -618.75)"/><path class="cls-1" d="M1478.27,668.31c.43-.56,2.33.81,2.37-.29,0-.61-.3-2,.44-2,2.77.1,2.05-1,2.14-3.46,0-1.38-.69-2.09-1.58-3-.54-.52-.83-.73-.77.83.12,3-1.08,5.55-5.26,5.4-1.73-.06-4.41.68-4.34-1.33.06-1.57.11-3.15.17-4.72.09-2.57,2.37.31,2.49-3.09,0-.8,4.34-2.69,5.15-2.66,1.58.05,2,.52,2-1.12,0-.88.29-1.09-.48-1.38l-6-2.23c-2.22-.83-2.18.65-2.07-2.27.05-1.57.77-3.15.83-4.72.09-2.64.32-3,2.28-4.78,1-.9,2.55-.08,3.86-1.3,1.55-1.45,3.37-7.2,1.8-8.89a31.21,31.21,0,0,1-2-4.18c-.5-1.08-1.83-.88-3.57.74-.29.87.37,1.19,1.07,1.75s-2.63,1-1.23,2.94c1.59,2.22,1.24,1.8-.71,3.63-.68.64-2.83.15-3.81.11-1.75-.06-1.11-.79-1.09-2.41,0-2.13.12-2.4,1.66-3.84.62-.58,1.67-2.25.94-3.16-.6-.75-8.36-.21-9.49-.25l-1.07,0v.09" transform="translate(-1208.49 -618.75)"/><path class="cls-1" d="M1481.67,715.08l.52.63c.41.44,1.5.55,1.53-.18.06-1.71,1-4.32-1-4.39-1.71-.06-2.33-1.24-2.79-.89s-.2,1.36,1.37,3C1482.09,714.16,1481.33,714.66,1481.67,715.08Z" transform="translate(-1208.49 -618.75)"/><path class="cls-1" d="M1475,706.19c1.34.13,2,.06,2-2,0-.57,1.47-.64,1.93-.36.31.2.77,1.25,1.07.88,1-1.25,4.17-1.42,4.22-.24s-.65,4-.29,4.34c1.08,1.16,2.37-.1,2.41-1.1q.14-3.94.28-7.9c0-1.62-.55-2.76,1.28-2.7,1.09,0,1.38.46,1.32,1.27,0,.32.22.75.47.54,1.7-1.42,4.19-3.19,4.26-5.16.1-2.81.25-3.56,2-5.29.3-.33.69-.89,0-.93-1.18-.07-1.74.17-1.79,1.48-.05,1.55-.71,1.82-1.86,2.89s-4.54.45-6.24.39c-2.51-.08-1.4-3-1.32-5.17s-.09-2,2.06-1.93c.75,0,.43-1.69.46-2.33.14-4-2.33-2.4-4.46-.4-1,1-5,.12-5.8-.79-1.87-2-3.8-3.22-3.7-6a4.22,4.22,0,0,1,2.52-3.52c.68-.39,2.53,1.18,3.79,2.53,1.78,1.94-.54,3.18,2.73,3.3,1.89.06,3.62.44,2.8-2.27s-3-1.69-4.65-2.54c-1.18-.6-3.3-3.36-2.19-4.83" transform="translate(-1208.49 -618.75)"/><path class="cls-1" d="M1390.86,622.43l-52.38.37c-2.31,0-4.63,0-6.94,0" transform="translate(-1208.49 -618.75)"/><path class="cls-1" d="M1447.09,622.2l-3.14-.11c-11.7-.41-23.49.11-35.21.2l-17.88.14" transform="translate(-1208.49 -618.75)"/><path class="cls-1" d="M1462.06,622.74v-.09c-4.5-.15-10.17-.3-15-.45" transform="translate(-1208.49 -618.75)"/><path class="cls-1" d="M1453.88,757a3.46,3.46,0,0,0,.56-1.4c0-.55-.54-1.06-.5-1.6.17-2.3.19-4.62.25-6.93a1.08,1.08,0,0,1,.74-.95,17.44,17.44,0,0,0,3.63-2.24c.28-.21.47-.08.44.14-.13,1.23-.48,3.7-.11,4.21,1,1.5,2.37-.38,2.28,2.46,0,1.2,4.2-1.08.4-4.48-1.87-1.68,1.07-1.58,1.83-2.56s2.18-3.95,2.65-4.39c1.78-1.64,2.57,1.35,2.69-2.15a9,9,0,0,1,5-7.32c1.68-.75,3.76.51,4.81-2.19s-.5-2.26-2.27-2.47c-.86-.11-4.76.28-4.73-.54s-.18-4.36.52-4.33c3.4.11.55,2.38,3.1,2.46,1.65.06,3.52.89,3.58-1.05s2.48-2.28,2.53-3.83c0-.45.3-1.57.06-1.78l-.58-.48a9.76,9.76,0,0,0-1.8.16c-1.62.06-3.3-.11-4.93-.17-1.8-.06-4.58.77-4.5-1.33.1-3-.58-8.33,3.85-8.17.61,0,1.14.09,1.59.13" transform="translate(-1208.49 -618.75)"/><path class="cls-1" d="M1325.55,681v5.63c0,.84.74,1.47.74,2.31v14.4c0,1.16-1,2.1-1,3.05s-.63,1.37-1.26,1.79-.1.84.11,1.47a2.69,2.69,0,0,1-1,2.31A7.09,7.09,0,0,0,1322,714h26.7c4.31,0,4.84.85,6.94.85h3.47c.73,0,.84-1.05,1.79-1.05s1.78,1.05,2.83,1.05h4.52" transform="translate(-1208.49 -618.75)"/><line class="cls-1" x1="159.75" y1="96.11" x2="159.75" y2="119.19"/><path class="cls-1" d="M1472.34,836.32c-14.21.36-28.45.63-42.64,1-.69.12-.53-.48-.25-1.6a3.71,3.71,0,0,0-1.12-3.08c-1-1.22-1.54.7-3.36.84-.84.06-2.53-1.26-1.82-2.25-1.11,1.12-1.63,3.22-2.33,4.18" transform="translate(-1208.49 -618.75)"/><line class="cls-1" x1="252.15" y1="256.64" x2="252.78" y2="254.01"/><path class="cls-1" d="M1504,835.36c-2.4.07-4.8.15-7.18.24-8.14.3-16.3.52-24.47.72" transform="translate(-1208.49 -618.75)"/><path class="cls-1" d="M1461.27,872.75a4.76,4.76,0,0,0,2.42-.94c.63-.74.42-2.84,1.89-2.84h8.62c1.16,0,1.89-1.16,3.47-1.16h16.82c1.26,0,2.21-.73,3.79-.73s1.68.73,2.94.73h1.68" transform="translate(-1208.49 -618.75)"/><path class="cls-1" d="M1523,920.63c.88.55,1.87-.77,2.75.22s.44,2.2,1.76,2.2h3c.66,0,1.76-1.43,2.31-2.64a12.91,12.91,0,0,1,1.81-2.68,33.08,33.08,0,0,1,2.07-2.86c.84-1,1.14-3.09,2.07-4.66l3.75-3.91a15.73,15.73,0,0,1-2.65-4.56c-.48-1.47-4,3.94-5,3.72s-1.21-.55-1-1.65-.55-1.1-.88-2.53-1.21-1.54-2.53-2.53-.88-1.32-1-3.07-1.2-1.76-1.2-3.74v-17h-31.23" transform="translate(-1208.49 -618.75)"/><path class="cls-1" d="M1528.31,834.91h-.07c-8,0-16.15.19-24.25.45" transform="translate(-1208.49 -618.75)"/><path class="cls-1" d="M1502.9,867.81s-.16,2.47-1.42,2.47-1.8.31-2.42,1.76c-.33.77-1.76,1.87-2,2.86h31.23" transform="translate(-1208.49 -618.75)"/><path class="cls-1" d="M1460.64,875.38a4.23,4.23,0,0,1-1.17,1.27c-.73.49-.49,1.22-.73,2s-1.47.12-2.2,1.47-1.47,1.46-1.47,2.8-2.07-.24-2.56.61a7.49,7.49,0,0,0-1.47,2.93,17.76,17.76,0,0,0,0,2.69h-5.49c-.86,0-.9.48-.94,1.46h-3.1c-1.36,0-2.14,1.55-3,1.55h-2.84c-1.43,0-.78-1.63-2.14-1.63h-12v-2.7c0-.7-1.74-1.31-2.09-2.62s-.88-2.1-.35-3.15,1-1.83.7-2.79.26-1.66.61-2.45,0-1.74,0-2.44,1.13-1.14,1.13-2.27v-3.5c0-1-1-.52-1.22-1.83s-1.31-1.31-1.31-2.27-.44-1.75-.44-2.62.09-2.89-.78-2.89-2,.35-2.62-.52a2.23,2.23,0,0,1,.09-2.53c.43-.88-1-1.23-1.49-2s.09-1.57,1.05-1.92.61-1.05.61-1.75v-5.07c0-.87-1-1-1-1.92v-2.88c0-.61.79-1.14,1.84-1.14s1.92-1.14,2.44-2.27,1.4-.61,2.1-1.57h0" transform="translate(-1208.49 -618.75)"/><path class="cls-1" d="M1474.24,909.25h-14.77v-2.32h-1.22c-1.22,0-1.59-1.84-2.08-2.81a2.56,2.56,0,0,0-2.68-1.59c-1.59,0-1.35-1.95-1.35-2.81s0-1-1.34-1.71-1-1-2.08-2.68a4.67,4.67,0,0,0-2.8-2.2,2.46,2.46,0,0,1-1.31-2.57c0-1,.08-1.46.94-1.46H1451a17.76,17.76,0,0,1,0-2.69,7.49,7.49,0,0,1,1.47-2.93c.49-.85,2.56.74,2.56-.61s.74-1.46,1.47-2.8,2-.74,2.2-1.47,0-1.46.73-2a4.23,4.23,0,0,0,1.17-1.27s1.69.6,1.51,1.63-.58,1.1-1.1,1.79-1.56.78-1.56,2.07.69,2.33,1.56,2.33h3.19a1.94,1.94,0,0,1,2.07,1.38c.18.87.61,1.64-.43,2.34a12.58,12.58,0,0,0-2.5,1.64c-.61.69-.18,1.55,1.9,1.55a9,9,0,0,0,4-1c.69-.25,1.38.87,1.38,2.59v5.62c0,1.72-.78,2.93-1.3,4.31s-1.89,1.47-2.33,2.59-1.2,2.42.44,3,2.07.35,3.45-.08,2.59-1,3.37-.18,1.46,1.3,1,1.56S1474.24,909.25,1474.24,909.25Z" transform="translate(-1208.49 -618.75)"/><path class="cls-1" d="M1497.08,874.9c.22-1,1.65-2.09,2-2.86.62-1.45,1.16-1.76,2.42-1.76s1.42-2.47,1.42-2.47h-1.68c-1.26,0-1.37-.73-2.94-.73s-2.53.73-3.79.73h-16.82c-1.58,0-2.31,1.16-3.47,1.16h-8.62c-1.47,0-1.26,2.1-1.89,2.84a4.76,4.76,0,0,1-2.42.94l-.63,2.63s1.69.6,1.51,1.63-.58,1.1-1.1,1.79-1.56.78-1.56,2.07.69,2.33,1.56,2.33h3.19a1.94,1.94,0,0,1,2.07,1.38c.18.87.61,1.64-.43,2.34a12.58,12.58,0,0,0-2.5,1.64c-.61.69-.18,1.55,1.9,1.55a9,9,0,0,0,4-1c.69-.25,1.38.87,1.38,2.59v5.62c0,1.72-.78,2.93-1.3,4.31s-1.89,1.47-2.33,2.59-1.2,2.42.44,3,2.07.35,3.45-.08,2.59-1,3.37-.18,1.46,1.3,1,1.56-1,.75-1,.75c1.59,0,1,1,2.81,1h9.52" transform="translate(-1208.49 -618.75)"/><path class="cls-1" d="M1486.57,910.22c.14,4-.88,3.79-2.07,8s-2.09,3.59-2.39,6.12-1.34,3.14-1.34,3.14a35.26,35.26,0,0,1,0,4c-.15.75-1.79,1.2-1.79,1.2v4.62a11.44,11.44,0,0,1-2.09.75c-1.19.3-3.73,2.24-4.77,2.24h-4.18c-1,0-2.09.3-2.84-.75s-1.19-2.39-2.68-2.39h-7.31c0-1.49-1.35-4-2.84-4.48s-3.43,0-5.07.3-2.09-.15-1.79-1.34a4.08,4.08,0,0,0,0-3c-.45-1.35.74-3.14-.15-4.78a5.77,5.77,0,0,1-.9-3.58c0-1.34-.89-1.49-2.68-1.49s-2.84-1-4.48-1-2.24-2.08-2.68-3.43-1.65-2.38-2.69-3.58-.75-3.28-.75-4-1.34-1.34-1.34-2.08,1.19-.75,1.19-1.65v-3.73c0-1.34-1.19-2.83-2.08-3.73s-1.35-2.09-2.39-2.38a4.84,4.84,0,0,1-2.53-2.64h9.62c1.36,0,.71,1.63,2.14,1.63h2.84c.84,0,1.62-1.55,3-1.55h3.1a2.47,2.47,0,0,0,1.3,2.57,4.61,4.61,0,0,1,2.81,2.2c1.1,1.71.74,1.95,2.08,2.68s1.34.86,1.34,1.71-.24,2.81,1.34,2.81a2.56,2.56,0,0,1,2.69,1.59c.49,1,.86,2.81,2.08,2.81h1.22v2.32h14.77c1.59,0,1,1,2.81,1Z" transform="translate(-1208.49 -618.75)"/><path class="cls-1" d="M1523,920.63s-.56,1.44-1,2.42-.36,1.83-.73,3.05a8.43,8.43,0,0,0-3,.73,31.52,31.52,0,0,1-6.86,1.5c-1.35,0-2.54,1.64-4.18,1.49s-4.63.75-6,.75-2.83,1.49-4,1.49-1.94,1.64-2.83,2.53-2.39.77-2.39,2.24a10,10,0,0,0-2.66-.79c-1.33-.15-1.66-.9-4.06-.42-1.4.28-.84.42-2.38.14s-1.4-.42-2.25.42a4.58,4.58,0,0,1-1.63,1.1v-4.62s1.64-.45,1.79-1.2a35.26,35.26,0,0,0,0-4s1-.6,1.34-3.14,1.19-1.94,2.39-6.12,2.21-4,2.07-8" transform="translate(-1208.49 -618.75)"/><path class="cls-1" d="M1528.31,874.9v17c0,2,1.09,2,1.2,3.74s-.33,2.08,1,3.07,2.2,1.1,2.53,2.53,1.1,1.43.88,2.53,0,1.43,1,1.65,4.79-5.26,4.9-3.73c.37,1.55,2.71,4.57,2.71,4.57,6.08-6.41,15.54-6.37,15.54-6.37s-.5-18.55-.5-19.76-.88-1.21-.88-2.09,1-1,1-2.08-.77-1.54-.77-2.75v-4.62" transform="translate(-1208.49 -618.75)"/><path class="cls-1" d="M1547.87,834.73c-6.52.12-13.06.18-19.56.18" transform="translate(-1208.49 -618.75)"/><path class="cls-1" d="M1556.89,868.63a11.61,11.61,0,0,0,5.49.77c2.31-.22,2.53,1.21,4.84.88,2.72-.39,2.42,1.65,4.62,1.65,2.64,0,4.6-.34,5.61.33,1.64,1.1,1.75,1.59,3.84,1.59,1.65,0,10.23.06,14.58,0-.92-.28.59-1.77.22-2.23s-.39.39-1.09-.22-.32-1.75-1.15-2.28.34-1.12.81-2.87c.25-.93-1-1.21-.85-2.17.23-2.09,1-1.32,1-3.25,0-1.19.08-2.37.13-3.56a3.6,3.6,0,0,1,.06-1.85c.47-1.22,2.78-.37,3.45-2.79.22-.74-1.13-1.82-1-3a1.74,1.74,0,0,1,2.11-1.73c.13,0,.3-.13,0-.38l-1.32-1.42c-.17-.19-.08-.47.11-.44,2.89.36,1.34-2.75,2-4.14.5-.93-.07-1.15,0-1.79.1-2.62,1.37.19,2.42-1.1.69-.84,1-3.78,1.11-5.43,0-.28,0-.72-.29-.38-.56.56-1,1.14-1.62,1.69-.21.25-.57.32-.47-.21s0-.86,0-1.29-.34-.55-.52-.52c-13.24,1.55-29.36,1.67-43.44,2.07q-4.79.12-9.58.21" transform="translate(-1208.49 -618.75)"/><path class="cls-1" d="M1600.66,916.76c2.24-.14,2.16,1.86,3.42,3.68s-3.2,6.35-1.1,5.09,2.25,1.26,3.65,1.12,1.54-2.52,3.5-1.26a7,7,0,0,0,3.25,1.24h.06c1,0,0-1.94.63-2.51,1.22-1.12,1.8-2.12,3.46-2.06.73,0,3,.47,3.56.12,1.36-1-1.07-2.4.69-2a2.15,2.15,0,0,0,1.85-.81c.61-1.06-1.41-2.6-2.12-.47a1.89,1.89,0,0,1-2.72.82,3.29,3.29,0,0,1-.78-1.11,13.08,13.08,0,0,1-1.4-4.1c.13-3.57-2.36-.49-2.24-4.07.06-1.62-1.42-1.91-.72-2.87s1.46-6.13,1.07-7-1.23,3.64-2.43,2.3-1.67-3.74-2.2-4.84.06-1.87.12-3.55-.38-1.19-2-1.25c-.81,0-.2-1.72-.28-2.38s.52-2.36-.29-2.39c-1.58-.06-2,.37-2-1.26,0-1.3-1.66-1.36-2.5-1.43s-1.25-1.37-2.12-2.27.58-1.58.09-2.37-1.57-.39-2.53-.24-.35-1-1.3-1.44.64-.82-.61-1.82,0-3.55-.89-3.84c-4.35.06-12.93,0-14.58,0-2.09,0-2.2-.49-3.84-1.59-1-.67-3-.33-5.61-.33-2.2,0-1.9-2-4.62-1.65-2.31.33-2.53-1.1-4.84-.88a11.61,11.61,0,0,1-5.49-.77v4.62c0,1.21.77,1.65.77,2.75s-1,1.21-1,2.08.88.89.88,2.09.5,19.76.5,19.76c1.94,0,9.85.9,11.67,1.74a21.29,21.29,0,0,0,4.93,1.86c1.55.28,3.36,2.55,6,3s-.07,6,3.16,5.39,6.82,2.57,9.2,1.45S1598.42,916.9,1600.66,916.76Z" transform="translate(-1208.49 -618.75)"/><path class="cls-1" d="M1596.73,935.72c.84-.79,2.31.15,3.42-.89,1.73-1.6,1.46-1.6,3.07.11,3.14,3.34,3.25-1.08,3.33-3.43,0-.73,2.77-.28,3.56-.25,1.9.06,1-.7,1.27-2.3.43-2.24-.52-2.41,2-2.33a7,7,0,0,1-3.25-1.24c-2-1.26-2.1,1.12-3.5,1.26s-1.55-2.38-3.65-1.12-4.48,3.22-5.74,1.4-.85-3.78-3.09-3.64,1.7-2.59-.68-1.46-6.58,5.93-8.46,9.56c-1.51,2.91-3.59,1.12-5.56,2.75a6.67,6.67,0,0,1-5.76,1.33l-4.71,0c0,2,.5,1.59.36,4.68,0,0-1,4.87-1,6.07,0,2.44-1.08,3.48-1.08,4.78s.67,2.12,1.45,2.12h2.75a3.25,3.25,0,0,0,2.28-.88c.93-.73,2-1.35,2.7-.88s2.28,2.65,3.32,3.58c.52-.47.52-1,2.07-1.14s2.13.41,3.43.83,1.55,1.71,2.69,3.42a3.36,3.36,0,0,0,.88-1c.37-.63-.15-1.92-.67-3.79s-2.59-1.82-4.15-1.66-2.33-.78-3.79-1.76-.62-2-.15-3,2.07-3.06,3.47-2,2.91.26,4.93-1,2.08,1.14,3,1.35,1.71-1.46,2.77-2.57C1593.28,939.79,1594.92,937.43,1596.73,935.72Z" transform="translate(-1208.49 -618.75)"/><path class="cls-1" d="M1619.37,971.53c-.41-4.52-4.76.34-4.6-4.18.06-1.62-.54-2.75,1.28-2.69,1.13,0,1.39.49,1.29,1.37-.35,1,.21.66.46.46,1.72-1.37,4.52-3.24,4.17-.28-.29.67-.1,1.24.62.41.92-1,1.44-2,2.55-.81,1.58,1.68,1.66,1.38,3.85,1.66s2.28,0,3.85,1.68a2.82,2.82,0,0,0,2.51,1c.62,0,.35-.75.19-1.09l-1.32-2.87c-.37-.88,0-1.19,1.29-1.24a3.52,3.52,0,0,0,3.11-1.86c1.31-2.28-.79-2.41,2.83-2.28,2.76.1,2.07,1.48,4.28,2.53a9.75,9.75,0,0,0,3.53.19c.87,0,.73-.53.51-.76a4.79,4.79,0,0,1-1.53-2.34c-.08-1.08-.63-1.15-1-.85-1.74,1.45-3.85,2.64-3.73-.69,0-1.5-1.48-2.4-3-2.75-1.69-.37-.89-1.06-.39-1.56a2.39,2.39,0,0,1,1.52-.89c1.09,0,3.36.51,4.36.15,1.69-.61,1.64-2.31,3.64-2.23,1.44,0,2.13-.74,3-1.68.55-.49.55-1-.28-1-2.36-.08-4.6.24-7,.16-1.5,0-1-.74-.55-1.23,1.28-1.43,3-3.41,4.16-3.37,2.93.1,4.34,1.07,4.45-2.22,0-1.61.63-2.33-1.09-2.39s-1.16-.48-1.11-2c.08-2.34-4.33,1.39-4.63,1.68-1.39,1.3-1.94,4.86-2.6,6.65-.28.74-2.67.62-4,.4-.54-.09-1.24,0-.88-1.2s.68-2.34.11-3.38c-.27-.51-1.91-.07-2.35-.29-1.27-.64-2.75-2.69-3.88-4.1-.57-.59-.31-1,.42-.75,1.77.61,2.33-2.29,4.08-2.23,1.58.06,2,.51,2-1.13,0-1.05.31-1.18-.69-1.21-2.11-.08-4.25-.06-6.35-.23-1.83-.14-2.47-.35-3.34-1.15-.37-.33-1.44-.68-1.48,1.45,0,1.72-.81,2.68-2.79,4.53-1.21,1.14-1.65,2-3.3,1.94-1.82-.06-1.1.69-1.27,2.3-.27,2.45-.18,5-.26,7.47-.13,3.62-.75.33-2.45,1.92-1.24,1.15,1.26,2.4-1.26,2.32-2.21-.08-6.28.58-8.27-.29-1.82-.8-3.54-5.45-2.12-7.18s2.3,1.81,2.43-1.91c0-.69-2.13-.66-2.61-.22-2,1.86-3.68,1.95-5.58,3.14a2.72,2.72,0,0,1-2.22-.17c-1.58-.66-2.73-.64-3.8-3.61-1.06,1.11-1.84,2.78-2.77,2.57s-1-2.6-3-1.35-3.53,2-4.93,1-3,1-3.47,2-1.3,2,.15,3,2.23,1.91,3.79,1.76,3.63-.21,4.15,1.66,1,3.16.67,3.79a3.36,3.36,0,0,1-.88,1" transform="translate(-1208.49 -618.75)"/><path class="cls-1" d="M1582.25,997.39a4.76,4.76,0,0,1,2.68-.61l5.48.19c2.75.09,2.16-1.44,4.44-2.22,3.07-1.07,2.32,1.71,2.25,3.63-.08,2.41-.33,3.33,1.36,5.13,1.34,1.44.71,3.49.64,5.4,0,.56,0,1,0,1.44-.21,1.19-.27,1.9.72,1.5,2.36-.94,5.44-.16,8-.07,1.81.06,3.63,1.6,5.19,2.45,1.17.64,2.7.27,4,1,3.74,2,6.78,4.22,11.08,4.37,2.06.08,2.54,2.47,4.14,2.53s3.58.56,4.28,2.51c.28.8-.74,4.71.2,4.75,2.93.1,2,1.32,1.87,4.06,0,1,2.45.94,3.49,2a12,12,0,0,0,3.49,1.68c.26.87-.39,2.81-.93,4.76-.32,1.09-1.77,2.59-2.59,3.47s-3.52,2.27-3.57,3.71c0,1.68.06,2.16.71,2.93,1,.94,1.86-.2,2.27-.91.49-.87,1-1.75,1.34-2.57.43-1,0-2,.64-2.64,2.29-2.12,3.91-8.26,6.87-9,1.12-.26,3.57.13,4.74.17,2.33.08,2.38-.28,2.3,2.09-.09,2.76,3.43,3,5.75,3,.57.1,1.56-.26.2-1.14-.41-.43-1.08-1.46-.24-2.27,1.79-1.73,3.35-3.63,5.9-3.54,5.43.19.54-2.42,3.09-4.81,1.68-1.57,2.25-1.83,2.33-4.11,0-1.17,2.36.78,2.44-1.46,0-.81.48-3.55-.25-3.57-1.74-.06-2.34-.14-2.08-1.72.23-.67-.08-.67-1.3.06-1.78,1.05-4.47,2.3-5.71,1.34s1.52-2.31-1.11-2.4c-2.26-.08-.35-.91-1.1-2.42-.47-1-1.8-1.49-2.28-2.46-.76-1.5,1.17-2.32-1.11-2.4s-.36-.91-1.1-2.43c-.28-.58-2.09-2.62-2.54-2.2-1.23,1.13-2.18,1.57-2.24,3.23,0,1.36-.92,1.75-2.41,1.11-2.66-1.13-1.39-4.8-3.38-4.87s-6,.68-5.88-1.37c.08-2.25-.88-.41-2.32-1.26a7.74,7.74,0,0,1-1.78-1.86c-.21-.38-.78-.53-.62.14.43,1.86-1.11,1.6-3.09,1.53-2.42-.09-4.09.57-4-1.63.25-.78-.11-.78-.56-.59l-3.1,1.43c-1.12.66-1-.16-.93-.43.06-1.62-.8-2.28-2.09-3.65-.38-.41.85-1.43,1.66-2.08.5-.29.65-.6-.7-.51a8.12,8.12,0,0,1-3.63-.5c-.35-.34.05-2,.21-3.31.06-.48.36-1.41-.71-.61s-3.21,1.94-4,1.77-2.55-2.94-3.1-3.33-1.89-1-3.12-1.79a1.23,1.23,0,0,1-.51-1.66c.29-.86.86-1.23,1.74-2,.21-.18.73-.88-.62-.72s-1.15-.85-1.09-2.55c.07-2.32-.26-2.4,2.09-2.32.73,0,.46-2.74.49-3.53.07-1.83,1.15-1.15,2.78-1.1,1.16,0,6.8.82,8.23.52.89,1.39-.66,2.13,2.79,2.25.71,0,1.46.95,2.07,1.72.43.75.79.39.81-.38,0-1.32-.44-1.61-2-1.66-1.12,0-2-2.86-3.63-2.47-1.13-.31-1.55.21-3-1.32-.69-.75-3.1-.63-3.16-1.32" transform="translate(-1208.49 -618.75)"/><path class="cls-1" d="M1588,958c-1.14-1.71-1.4-3-2.69-3.42s-1.87-1-3.43-.83-1.55.67-2.07,1.14" transform="translate(-1208.49 -618.75)"/><path class="cls-1" d="M1578,1003.25c.09-2.58-.78-4.38,2.16-4.28.91,0,1.5-1,2.13-1.58" transform="translate(-1208.49 -618.75)"/><path class="cls-1" d="M1579.8,954.9c-1-.93-2.65-3.11-3.32-3.58s-1.77.15-2.7.88a3.25,3.25,0,0,1-2.28.88h-2.75c-.78,0-1.45-.83-1.45-2.12s1.08-2.34,1.08-4.78c0-1.2,1-6.07,1-6.07a8,8,0,0,0-.22-3.2,13.29,13.29,0,0,1-.14-1.48,27,27,0,0,1-5.67-1.9c-1.83-.84-2.09-1.37-4-1.37l-4.53-.77s-.17,17.42-.17,19,1,1.22,1,2.44,1.1,1.58,1.59,2.44.73,2.08,1.34,3.05,2.32,1.47,3.18,2.44,2.8,1.22,2.8,2v2.68c0,.74-1.46,1.71-1.83,2.81s-1.83,2.57-1.83,3.66-1,2.33-1,4.16" transform="translate(-1208.49 -618.75)"/><path class="cls-1" d="M1530.65,954.91s2.08.86,1.83,2,1,1.83,2.08,1.22,2.44,1.59,2.2,3.17,1,3.18,2,4a5.81,5.81,0,0,0,3.66,1.83,4.2,4.2,0,0,1,3.91,2.93,21.81,21.81,0,0,1,1,4.52c0,1.1.24,1.47,1.83,1.47h10.74c0-1.83,1-3.06,1-4.16s1.47-2.56,1.83-3.66c.43-1.27,2.32-2.38,1.72-3.13v-2c.66-1-1.72-1.18-2.69-2.29s-2.57-1.46-3.18-2.44-.85-2.2-1.34-3.05-1.59-1.22-1.59-2.44-1-.86-1-2.44.17-19,.17-19l-6.07-.72s-1.59-.49-1.72-.26" transform="translate(-1208.49 -618.75)"/><path class="cls-1" d="M1530.65,954.91H1527c-1,0-1.47,1.1-2.2,1.1s-1.22-1.58-2.2-1.34-1.71,1-2.32-.24" transform="translate(-1208.49 -618.75)"/><path class="cls-1" d="M1521.25,926.1c.37-1.22.24-2.08.73-3.05s1-2.42,1-2.42c.88.55,1.87-.77,2.75.22s.44,2.2,1.76,2.2h3c.66,0,1.76-1.43,2.31-2.64.23-.49,2-2.95,4-5.73,1.08-1.47,1.07-3.73,2.34-5,.79-.79,2.08-2.24,3.33-3.4a31,31,0,0,1,2.9-2.45,21.92,21.92,0,0,1,6.54-3c.3-.08-2.39,2.78-3.75,4.57-1.13,1.48-1.27,1-2.49,2.89-.75,1.18-1.3,4.25-1.78,5.35s-2.26,2.62-2.55,3.56c-.44,1.45.31,3.23.23,4.31a15.79,15.79,0,0,0,.09,4.65l5.26,4.21" transform="translate(-1208.49 -618.75)"/><path class="cls-1" d="M1521.25,926.1a8.43,8.43,0,0,0-3,.73,31.52,31.52,0,0,1-6.86,1.5c-1.35,0-2.54,1.64-4.18,1.49s-4.63.75-6,.75-2.83,1.49-4,1.49-1.94,1.64-2.83,2.53-1.79.9-2.39,2.24.45,1.94.45,3.28.15,3.14.15,4.18.74,1.49,1.79,1.49,1,.75,1,2.39.15,2.39,1.64,2.39,2.24,1.33,2.24,3.13h7.16c1.8,0,1.8-1.05,2.69-1.5s2.83.3,3.58.9,1.79,1.94,2.54,1a1.72,1.72,0,0,1,2.53,0c.6.6,1.46.45,2.5.3" transform="translate(-1208.49 -618.75)"/><path class="cls-1" d="M1499.27,953.69c0-1.8-.75-3.13-2.24-3.13s-1.64-.75-1.64-2.39,0-2.39-1-2.39-1.79-.44-1.79-1.49-.15-2.83-.15-4.18-1.05-1.94-.45-3.28a10,10,0,0,0-2.66-.79c-1.33-.15-1.66-.9-4.06-.42-1.4.28-.84.42-2.38.14s-1.4-.42-2.25.42a4.58,4.58,0,0,1-1.63,1.1,11.44,11.44,0,0,1-2.09.75c-1.19.3-3.73,2.24-4.77,2.24h-4.18" transform="translate(-1208.49 -618.75)"/><path class="cls-1" d="M1546.35,1026.23c1.41-.63.83-2.78,1-3.61a19.86,19.86,0,0,1,2.68-6.87c.36-.88,2.09-1.64,3-.44a28.48,28.48,0,0,0,2.24,3.26c1.08,1.16.14,2.61,1,3.51,1.79,1.91,1.94,2.05,2,4.56,0,.84-.62,4.09-.16,4.74.28.39,2.09-.31,2.37.08s-.07,1.89-.08,2.37c-.12,3.47-.2,1.2-2.46,2.3s-1.54,2.43-4.24,2.33c-.54,0-1.65,1-2.55,1.46-2.47,1-2.42,1.95,1.2.67a102.41,102.41,0,0,0,20-9.52,53.84,53.84,0,0,0,8.16-6.86c2-1.88,4-4.72,6.55-5.67,1.21-.3,1.46-.88.23-.72a8.13,8.13,0,0,0-5.12,2.56c-1.25,1.16-1.82,2.11-3.49,2.52s-1.6-.23-1.71-.49c-1.09-2.66-4.19-5-4.07-8.29.06-1.64.47-1.17,2.06-1.11,1.09,0-.27,1.93.29,2.39s4.21.14,5.1.17c2.84.1,2.93-2.27.08-2.37-1.9-.07-3.69.19-2.66-2.47.52-1.34,4-2.46,2.54-4.67-.39-.59-2.4.64-2.36-.45,0-.78.06-1.57.08-2.36" transform="translate(-1208.49 -618.75)"/><path class="cls-1" d="M1559.83,976h-10.74c-1.59,0-1.83-.37-1.83-1.47a21.81,21.81,0,0,0-1-4.52,4.2,4.2,0,0,0-3.91-2.93,5.81,5.81,0,0,1-3.66-1.83c-1-.85-2.2-2.44-2-4s-1.1-3.78-2.2-3.17-2.32-.12-2.08-1.22-1.83-2-1.83-2H1527c-1,0-1.47,1.1-2.2,1.1s-1.22-1.58-2.2-1.34-1.71,1-2.32-.24c-1,.15-1.9.3-2.5-.3a1.72,1.72,0,0,0-2.53,0c-.75.9-1.79-.44-2.54-1s-2.68-1.34-3.58-.9-.89,1.5-2.69,1.5h-7.16" transform="translate(-1208.49 -618.75)"/><path class="cls-1" d="M1462.87,997.22a3.27,3.27,0,0,1,2.34.94c1.38,1.46,1.49,1.58,1.42,3.57,0,.95,1.73.09,2.34.45,3.38,2,1.6,3.75.15,6.39-.76,1.39-1.52.11-2.76.65-.79.35-1.63,1.52-2.27,2.12-1,1-.07,4.91-3.09,4.81-2.15-.08-1.71-.29-1.93-2.08-.28-2.27-2.72-1.59-1.41.57s3.62,3.88,5.44,5.81c.85.91,1.74.26,2.85.59a23.47,23.47,0,0,1,3.93,2.15c1.21.66,1.83,2.29,3,2.84,1,.44,3,.1,4,.14,2.23.08,3.82,2.51,6,2.58,4.51.16,12.12-1.07,15.28,2.3,1.59,1.69,1.49,5.41,4,5.49,1.9.07,3.6,2.36,5,4,.26.33.82,1.46.64-.15-.1-.87.26-1.31,1.39-1.27,2.53.09,0-1.17,1.26-2.33s2.3,1.42,2.39-1.1c.06-1.63.48-1.16,2-1.1l7.11.24c1.12,0-.31-2.39.82-2.35s2,.55,2-.67c.07-1.84-.66-6.39,1.41-6.32,1,0,5.9.52,5.93-.17,0-1.33.09-2.66.14-4,0-1.13-2.37.3-2.33-.82.11-3.14,2.55-1,2.59-3.3-.38-1.3.69-.15,1.07.26s1,2.28,1-.11c-.07-3.4,4.17,1.47,5.24,1.5,4,.14.48,3.33,2.64,5.66.63.68,2.28,2.37,3.84,1.67" transform="translate(-1208.49 -618.75)"/><path class="cls-1" d="M1408.49,973.12c.29,1.32,1,2.15,2.39.82a22.61,22.61,0,0,1,6.86-4.24c1.35-.61,13.52-.57,14.43.41.47.5-.06,6.93-.5,7.34-1.23,1.13-2.17,1.55-2.23,3.21-.07,1.83.69,1.08,2.32,1.27.58.07,7.1.05,7.08.46-.11,3.36-.31,4.22,1.64,6.43.15.18.67.57,0,1.06a6.78,6.78,0,0,0-2,2.94c-.25.72,0,1.3,1,.77,2.74-1.08,5.32-1.52,7.56-3.11.36-.25,1.08-1.14,1,.73-.09,2,2,3.22,4.27,3.3,2.81.1,4.15.87,6.65,2.24,1.23.67,2.64.4,3.94.47" transform="translate(-1208.49 -618.75)"/><path class="cls-1" d="M1384.26,911.73c.85-.61,0-2.43,0-2.43h-1.7V907c0-.73-1.46-.85-1.46-1.94v-7.66h-6.92v-4.26h-34.64" transform="translate(-1208.49 -618.75)"/><path class="cls-1" d="M1400.3,939.68a19.34,19.34,0,0,1,1.34-4.25c.61-1.71.49-2.92,1.46-4a10.6,10.6,0,0,0,2.43-5.11c.12-1.7-.49-2.55-1.34-2.43a9.4,9.4,0,0,0-3.28,1.1,1.33,1.33,0,0,1-2.06-1,2.13,2.13,0,0,1,.85-2.43c.85-.61,1.58-.6,1.94-1.7s-.12-1.7-1-1.82a1.39,1.39,0,0,1-.85-2.19c.61-1.09,2.06-.49,1.7-1.82a14.46,14.46,0,0,0-1.34-3.65c-.61-1,0-1.33.61-2.18s.49-2.68-.24-3-1.58-1.34-2.8-1-2.91,1.09-3.77.72-1.57-1.21-2.79-.48a4.86,4.86,0,0,0-1.94,3,5.79,5.79,0,0,1-2.56,2.79,6.91,6.91,0,0,0-2.43,1.46" transform="translate(-1208.49 -618.75)"/><path class="cls-1" d="M1340.39,988.24c4.85.16,9.87-.1,14.64.75,5.78,1,11.62,2.53,17.5,2.73,2.8.1,5.07-2.49,7.74-3.71,2.13-1,4.14-.61,6.47-.53,1.75.06,5.86-.5,7.33.56l.09.06a8.42,8.42,0,0,1,1.16-.78,5.33,5.33,0,0,0,2.19-3.16,4.24,4.24,0,0,0,.1-1,8.25,8.25,0,0,0-1.08-.09l-7.46-.26c-3.49-.13-3-2.12-4-5.39-.92-3.11-.53-4.16,1.81-6.35,1.91-1.79,4.76-3,7-4.37s4.44-1.84,6.3-3.47a8.53,8.53,0,0,0-.15-3.13c-.49-1.46-1.21-2.07-1.21-3.89a35.08,35.08,0,0,0-.49-5.23c-.24-1.58-1.22-3.4-.73-5s1.58-2.43,2.19-3.77a5.37,5.37,0,0,0,.48-2.55" transform="translate(-1208.49 -618.75)"/><path class="cls-1" d="M1371.2,841.13s.09,2.27.09,3.15,1.57,2.18,2.27,2.79a3.78,3.78,0,0,1,1.4,2.71v4h2.27v5.94c0,1.14,1.75,1,2.45,1.57a2.64,2.64,0,0,1,1.22,2.45v7.86c0,1.4-1.31,2.18-1.84,2.79a4.34,4.34,0,0,0-1,2.8c0,1.22-.87,1.14-.87,1.92v4.28h-4.46v3.32h-14.41a4.74,4.74,0,0,0-2.53.61c-.87.53-.87,1.75-.87,2.62s-.27,1.14-1,1.58-.63,1.59-.63,1.59h-13.74v-.85a4.68,4.68,0,0,1,.52-1.25c.35-.56,0-1.41.21-2.12a3.36,3.36,0,0,1,1.63-1.84c.78-.43.92-1.35,1.49-2.06s.21-1.41-.43-2-.92-1.77-.92-3.4V848.33h8.64c1,0,1-.91,1.83-1.26s.79-.87.79-1.48-.79-.7-.79-1.66.7-1.4,1.57-1.49,1.31-1,2.88-1.48,2.36-1.22,2.36-2,1-1.22,2.36-1.22a5.21,5.21,0,0,1,3.76,1.66c.7,1,1.22,1.74,2.18,1.74Z" transform="translate(-1208.49 -618.75)"/><path class="cls-1" d="M1421.6,890.48v-2.7c0-.7-1.74-1.31-2.09-2.62s-.88-2.1-.35-3.15,1-1.83.7-2.79.26-1.66.61-2.45,0-1.74,0-2.44,1.13-1.14,1.13-2.27v-3.5c0-1-1-.52-1.22-1.83s-1.31-1.31-1.31-2.27-.44-1.75-.44-2.62.09-2.89-.78-2.89-2,.35-2.62-.52a2.23,2.23,0,0,1,.09-2.53c.43-.88-1-1.23-1.49-2l-25.07.08c-.7,0-.87-.61-1.48-.61s-.79.44-1.66.44h-8.39v5.94c0,1.14,1.75,1,2.45,1.57a2.64,2.64,0,0,1,1.22,2.45v7.86c0,1.4-1.31,2.18-1.84,2.79a4.34,4.34,0,0,0-1,2.8c0,1.22-.87,1.14-.87,1.92v4.28h-4.46v3.32h-14.41a4.74,4.74,0,0,0-2.53.61c-.87.53-.87,1.75-.87,2.62s-.27,1.14-1,1.58-.63,1.59-.63,1.59h20.9v4.26h6.92v7.66c0,1.09,1.46,1.21,1.46,1.94v2.31h1.7s.85,1.82,0,2.43a6.91,6.91,0,0,1,2.43-1.46,5.79,5.79,0,0,0,2.56-2.79,4.86,4.86,0,0,1,1.94-3c1.22-.73,1.94.12,2.79.48s2.56-.36,3.77-.72a1.78,1.78,0,0,1,1.12,0" transform="translate(-1208.49 -618.75)"/><path class="cls-1" d="M1410.76,996.26c1.37,1.46,1.49,1.57,3.47,1.64,3.09.11,5.15-.8,5.27-4.17,0-1,2.27-2.78,3.78-4,2.15-1.89-.66-.82-1-1.21s1-3.12-1.14-1.27c-1.91,1.61-2.13.68-4.33-1.7-1.44-1.56-1.56-1.83-3.67-1.9-1,0,.28-2.36-.49-2.38l-8.09-.29c-2.26-.08-.42.87-1.26,2.32a7.85,7.85,0,0,1-1.81,1.89.58.58,0,0,1-1,0,3.62,3.62,0,0,0-2.8-2,4.24,4.24,0,0,1-.1,1,5.33,5.33,0,0,1-2.19,3.16,8.42,8.42,0,0,0-1.16.78c1.56,1.17,4.79,4.54,6.61,4.61,1.17,0,3.5-.36,4.53.16s1.36,2,2.29,2.45C1408.93,996,1409.57,995,1410.76,996.26Z" transform="translate(-1208.49 -618.75)"/><path class="cls-1" d="M1467.94,940.27c-1,0-2.09.3-2.84-.75s-1.19-2.39-2.68-2.39" transform="translate(-1208.49 -618.75)"/><path class="cls-1" d="M1401.64,935.43a19.34,19.34,0,0,0-1.34,4.25,5.37,5.37,0,0,1-.48,2.55c-.61,1.34-1.7,2.19-2.19,3.77s.49,3.4.73,5a35.08,35.08,0,0,1,.49,5.23c0,1.82.72,2.43,1.21,3.89a8.53,8.53,0,0,1,.15,3.13l.2-.17c1.28-1.19,1.45-1.14,3.23-1.08.93,0,2-1.5,2.64-2.11a1.45,1.45,0,0,1,2.51,1.1c-.09,2.63,1.41-.1,2.33,1.27,1.32,2-2.17,5.43-2.62,7a10.13,10.13,0,0,0,0,3.84" transform="translate(-1208.49 -618.75)"/><path class="cls-1" d="M1421.6,890.48h2.33a4.84,4.84,0,0,0,2.53,2.64c1,.3,1.49,1.49,2.39,2.38s2.09,2.39,2.09,3.73V903c0,.9-1.2.9-1.2,1.65s1.34,1.34,1.34,2.08-.29,2.84.75,4,2.24,2.24,2.69,3.58,1,3.44,2.68,3.44,2.69,1,4.48,1,2.68.15,2.68,1.49a5.77,5.77,0,0,0,.9,3.58c.89,1.64-.3,3.43.15,4.78a4.08,4.08,0,0,1,0,3c-.3,1.19.15,1.64,1.79,1.34s3.58-.74,5.07-.29,2.84,3,2.84,4.47" transform="translate(-1208.49 -618.75)"/><path class="cls-1" d="M1401.64,935.43c.61-1.71.49-2.92,1.46-4a10.6,10.6,0,0,0,2.43-5.11c.12-1.7-.49-2.55-1.34-2.43a9.4,9.4,0,0,0-3.28,1.1,1.33,1.33,0,0,1-2.06-1,2.13,2.13,0,0,1,.85-2.43c.85-.61,1.58-.6,1.94-1.7s-.12-1.7-1-1.82a1.39,1.39,0,0,1-.85-2.19c.61-1.09,2.06-.49,1.7-1.82a14.46,14.46,0,0,0-1.34-3.65c-.61-1,0-1.33.61-2.18s.49-2.68-.24-3-1.68-1-1.68-1" transform="translate(-1208.49 -618.75)"/><polyline class="cls-1" points="107.94 47.7 107.94 62.2 117.06 62.2"/><path class="cls-1" d="M1308.65,761.35c.6.61.37,1-.18,2s-.19,1.86.64,1.86h2.23c.74,0,.65,1.29,1.11,1.29h1.39v3c0,.92.28,1.48.93,1.48H1317c.65,0,.84.28,1.39,1.48s1.11,1.39,2,1.39h3.71c.92,0,1.57,1.3,1.94,2.51s1.21,1.76,2.32,3,2.27,1.32,3.15,3.06a14.21,14.21,0,0,1-2.87,2.23c-1.3.64-2.78,1.39-3.06,2.41s-2,2.22-3,2.68-2.5,1.11-3,2.23a7.11,7.11,0,0,1-3.34,3.24,6.52,6.52,0,0,0-2.87,2.32c-.83,1-2.22.27-3.06,1.11s-.68,1.56-.88,2.44" transform="translate(-1208.49 -618.75)"/><path class="cls-1" d="M1225.44,747.11c0,.5,0,1,0,1.59-.07,1.92,2.13,2.92,3.48,4,1.09.86,1.75,3.2.75,4a1.13,1.13,0,0,0,.07,2,2.76,2.76,0,0,1,1.13,2.52c0,1.09,2-.13,2.35.45s.11,2.4-.45,2.38c-2.94-.1-2.06,1.72-2.15,4.3-.07,1.95-.28,2.69-1.11,3.61-.69.67-1.1,1.29-.16,1.32,1.59.05,1,1.79,1,3.71-.06,1.62.39,1.19,2,1.24,1.1,0-.26,1.94.29,2.39.82.68,4.78.17,5.93.21,1.48,0,1.38,1.62,1.19,3.15-.12,1.31-.81,1.76-1.52,1.72-1.4.16-1.81.83-.57,1.82.89.7,2.13.77,3.84.53.69-.1.24,3.59.21,4.38,0,1.08,1.92-.13,2.34.45.3.43-.15,1.8-.09,2.36a17.47,17.47,0,0,1,.5,3.53c-.08,1.53-.72,2.92-.76,4-.08,2.25.41,2.51,2,4.19.61.65,2.63-.22,2.6.71,0,.74-.55,3.82-.16,4.37,1,1.36,2.43-1.34,2.34,1.27s0,3.53,1.54,5.31c.65.8.57.17.57-.48.17-1.35,1.37-1.39,2.79-1.24" transform="translate(-1208.49 -618.75)"/><path class="cls-1" d="M1255.3,816.84c.5,0,1,.12,1.56.16a.44.44,0,0,1,.34.69c-.43.91-.8,2-1.47,2.32-1.33.65-.09,2.44,1,3.71a.52.52,0,0,1-.55.77c-2.66-.32-2,4.3-.41,4.36,2.74.09,1,5.23,1,5.93-.06,1.91-.79.91-2.41,1.11s-2.34-.8-2.41,1.09c0,.85-.29,3.56.24,3.58,1.73.06,4.4-.67,4.33,1.34-.08,2.45.64,3.57-2.12,3.48-1,0,.18,2.31-1.69,2.41-.3,0-.68.36-.06,1.2a5.26,5.26,0,0,1,1,2.45c.8-.24,1.51-.46,1.89-.6a5.12,5.12,0,0,1,4,.73,4,4,0,0,0,3.89.36c1.34-.73,2.31-1.82,4.62-1.82s22.12-.24,23.82-.24,1.33.85,2.55.85h4.25c1.22,0,1.1-.85,2.19-.85h6.68V851h14.59v-1.82c0-1.1-1.1-2.31-1.1-3.28v-4.38c0-1.33,1.1-1.82,1.1-3.28s-1-2.07-1-3.52V812.56a3.47,3.47,0,0,0-1.7-3,6.55,6.55,0,0,1-2.43-3.77c-.12-1.09-1.09-2.91-2.91-2.91s-3.53-1.34-4.62-1.7" transform="translate(-1208.49 -618.75)"/><path class="cls-1" d="M1308.65,761.35h29.15c1.34,0,2.49-.19,2.49-1.53v-6.74c0-1,1.15-1.15,2.3-1.15s20.33.77,21.09,0a9.68,9.68,0,0,0,1.92-2.1c1-1.81,1.73-2.31,1-3.65s.77-1.53,1-2.49a31.72,31.72,0,0,0,.76-3.64c0-.77,0-2.11,0-2.11V714.85h-4.52c-1,0-1.89-1.05-2.83-1.05s-1.06,1.05-1.79,1.05h-3.47c-2.1,0-2.63-.85-6.94-.85H1322" transform="translate(-1208.49 -618.75)"/><path class="cls-1" d="M1331.54,782.48c-1-1.83-2-1.76-3.15-3.06s-2-1.85-2.32-3-1-2.51-1.94-2.51h-3.71c-.93,0-1.48-.18-2-1.39s-.74-1.48-1.39-1.48h-2.22c-.65,0-.93-.56-.93-1.48v-3h-1.39c-.46,0-.37-1.29-1.11-1.29h-2.23c-.83,0-1.2-.84-.64-1.86s.78-1.43.18-2h29.15c1.34,0,2.49-.19,2.49-1.53v-6.74c0-1,1.15-1.15,2.3-1.15s20.33.77,21.09,0" transform="translate(-1208.49 -618.75)"/><path class="cls-1" d="M1363.68,751.93a9.68,9.68,0,0,0,1.92-2.1c1-1.81,1.73-2.31,1-3.65s.77-1.53,1-2.49a31.72,31.72,0,0,0,.76-3.64c0-.77,0-2.11,0-2.11" transform="translate(-1208.49 -618.75)"/><path class="cls-1" d="M1331.54,782.48a14.21,14.21,0,0,1-2.87,2.23c-1.3.64-2.78,1.39-3.06,2.41s-2,2.22-3,2.68-2.5,1.11-3,2.23a7.11,7.11,0,0,1-3.34,3.24,6.52,6.52,0,0,0-2.87,2.32c-.83,1-2.22.27-3.06,1.11s-.68,1.56-.88,2.44c1.09.36,2.79,1.7,4.62,1.7s2.79,1.82,2.91,2.91a6.55,6.55,0,0,0,2.43,3.77,3.47,3.47,0,0,1,1.7,3v22.12c0,1.45,1,2.06,1,3.52s-1.1,1.95-1.1,3.28v4.38c0,1,1.1,2.18,1.1,3.28h8c1,0,1.84-.81,3.4-.81h17.07c1,0,1-.91,1.83-1.26s.79-.87.79-1.48-.79-.7-.79-1.66.7-1.4,1.57-1.49,1.31-1,2.88-1.48,2.36-1.22,2.36-2,1-1.22,2.36-1.22a5.21,5.21,0,0,1,3.76,1.66c.7,1,1.22,1.74,2.18,1.74h3.58" transform="translate(-1208.49 -618.75)"/><path class="cls-1" d="M1371.2,841.13s.09,2.27.09,3.15,1.57,2.18,2.27,2.79a3.78,3.78,0,0,1,1.4,2.71v4h10.66c.87,0,1-.44,1.66-.44s.78.61,1.48.61l25.07-.08c-.52-.79.09-1.58,1.05-1.93s.61-1,.61-1.74v-5.07c0-.87-1-1-1-1.92v-2.88c0-.61.79-1.14,1.84-1.14s1.92-1.14,2.44-2.27,1.4-.61,2.1-1.57,1.22-3.06,2.33-4.18" transform="translate(-1208.49 -618.75)"/><path class="cls-1" d="M1423.15,831.19c-.71,1,1,2.31,1.82,2.25,1.82-.14,2.35-2.06,3.36-.84a3.71,3.71,0,0,1,1.12,3.08c-.28,1.12-.44,1.72.25,1.6,1.18-.53,4.06-1.19,4.82-2.19,1-1.38,0-2.28,1.67-3.85,1.38-1.29-.1-1.84-1.25-3.09-.69-.75-1.81-2.6-2.83-2.64-4.69-.16,0-4.66.62-7.08a21.19,21.19,0,0,0,.15-4.37c0-1.18-2.39.6-2.31-1.64.09-2.57-2.38.13-2.29-2.45.06-1.79,1-1.15,2.61-1.09,3.93.13,5.54-.31,9.13-2,.56-.26.34-3.75.36-4.46,0-1.17-2.37.6-2.3-1.63s-2.35-.47-2.3-1.63c0-.5,0-1,0-1.48a3,3,0,0,0-.5-1.06c-1.34-1.4-2.9-3.15-1.06-4.86s4.24-3.09,4.12.38c-.06,1.67,0,5.12,2.54,5.2,2.15.08,2,.23,2.07-1.93,0-.49,1-.5,1.7-.41.27,0,.67.08.13-.47-1-1-1.92-2.05-2.88-3.08-1.49-1.6-.34-1.81-1.06-3.6-.53-1.33-2.3-1.64-2.24-3.2l.15-4.36c.09-2.44.14-1.81,2.42-1.9,1.44,0,2.93.11,4.37.15,3.23.12,3-4.89,3-5.82,0-.56-.89-.28-1.24-.07-1.42.89-4.86,2.16-6.18.74-2.56-2.75-2.69-3.63-.36-5.93.65-.7,1.17-.36,1.13-.18-.49,2.69.9.5,2.18,1.88.66.72,2.7,2.67,3.5,2.53,1-.17,1-.36,1.06-.62s-.3-1.64.26-2.16,2.1-1.48,2.2-2c.26-1.55-2.25-3.51-2.19-5.19a4.36,4.36,0,0,1,2.52-4.27c.63-.32,2.35.66,2.38-.29a.49.49,0,0,1,.05-.18" transform="translate(-1208.49 -618.75)"/><path class="cls-1" d="M1211.36,709.13q-.27,8-.56,16c-.1,2.9-1.31,4.91,1.83,5,1.13,0-.48,2.34.66,2.38,2.15.08,1,0,1,2.14,0,1.17,2.4-.61,2.32,1.64-.09,2.54,1.15,0,2.32,1.27s-1.43,2.31,1.1,2.4c.62,0-.43,1.82.49,1.78a2.75,2.75,0,0,1,2.24,2c0,.43-.21.85,0,1s.79,0,1.38,0c1,.19,1.3,1.16,1.38,2.36" transform="translate(-1208.49 -618.75)"/><path class="cls-1" d="M1230.17,621.53c-6,0-12-.23-18.1-.44,0,.41.11.82.16,1.24.68,5.18,1.8,10.42,1.62,15.65l-.66,18.7q-.56,15.86-1.1,31.7-.37,10.38-.73,20.75" transform="translate(-1208.49 -618.75)"/><path class="cls-1" d="M1258.28,620.77c-4.57.05-9.15.18-13.8.44s-9.56.34-14.31.32" transform="translate(-1208.49 -618.75)"/><path class="cls-1" d="M1289.28,666.44V659c0-1.31-1.31-1.31-1.31-2.85v-3.94h-4.38v-31l-4.18-.16c-7.14-.25-14.12-.38-21.13-.3" transform="translate(-1208.49 -618.75)"/><path class="cls-1" d="M1331.54,622.8c-16-.13-32-1-48-1.57v31H1288v3.94c0,1.54,1.31,1.54,1.31,2.85v7.44h27.15" transform="translate(-1208.49 -618.75)"/><path class="cls-1" d="M1322,714a7.09,7.09,0,0,1,1.26-2.09,2.69,2.69,0,0,0,1-2.31c-.21-.63-.74-1.05-.11-1.47s1.26-.84,1.26-1.79,1-1.89,1-3.05v-14.4c0-.84-.74-1.47-.74-2.31V681h-9.12V666.44h-27.15" transform="translate(-1208.49 -618.75)"/></svg>