<svg id="base_map" data-name="base map" xmlns="http://www.w3.org/2000/svg" viewBox="0 0 333.54 216.97"><defs><style>.cls-1{fill:#015067;stroke:#fff;stroke-width:0.84px;}.cls-2{fill:none;}</style></defs><path class="cls-1" d="M481.58,297.6c1.05-1.38,0-2.28,1.67-3.85,1.38-1.29-.1-1.84-1.25-3.09-.69-.75-1.81-2.61-2.83-2.64-4.69-.17-.05-4.66.62-7.08a21.26,21.26,0,0,0,.15-4.38c0-1.17-2.39.61-2.31-1.63.09-2.57-2.38.13-2.29-2.45.06-1.79,1-1.15,2.61-1.1,3.93.14,5.54-.3,9.13-1.95.56-.26.34-3.75.36-4.46,0-1.17-2.37.6-2.3-1.63s-2.35-.47-2.3-1.64c0-.49,0-1,.05-1.48a3,3,0,0,0-.5-1.05c-1.34-1.41-2.9-3.15-1.06-4.87s4.24-3.08,4.12.39c-.06,1.67.05,5.11,2.54,5.2,2.15.08,2,.22,2.07-1.93,0-.49,1-.5,1.7-.41.27,0,.67.08.13-.48-1-1-1.92-2-2.88-3.07-1.49-1.6-.34-1.81-1.06-3.61-.53-1.32-2.3-1.63-2.24-3.19l.15-4.36c.09-2.44.14-1.81,2.42-1.9,1.44-.05,2.93.1,4.37.15,3.23.12,3-4.89,3-5.82,0-.57-.89-.29-1.24-.07-1.42.89-4.86,2.16-6.18.74-2.56-2.75-2.69-3.63-.36-5.93.65-.7,1.17-.36,1.14-.18-.5,2.69.89.5,2.17,1.88.66.72,2.7,2.67,3.5,2.53,1-.17.95-.37,1.06-.62s-.3-1.64.26-2.16,2.1-1.48,2.2-2c.26-1.55-2.25-3.51-2.19-5.19a4.38,4.38,0,0,1,2.52-4.28c.63-.31,2.35.67,2.38-.28a.49.49,0,0,1,.05-.18H486c1.06,1.17-.12,3.65-1.19,2.86s-1.54-.84-1.82-1.83-1.26-2.24-2-1.68-1,1.82-2,2.39-2.25,1.4-3.23.84-2.38-1.69-3.08-.84-1.26,1.4-1.26,2.1,0,2.66-.84,3.64-.28,1.68.14,2.53a3.05,3.05,0,0,1-.56,3.22c-.85.7-1.83,2.24-2.95,1.68s-1-1.54-1.4-2.66-1.26-1.26-2.66-.28-1.83,1.68-1.83,2.52a3.35,3.35,0,0,1-1,2.66c-.84.7-1.4,1.41-.42,2.39s1.54,2.38,2.67,2.8,2.24,1.54,2.1,2.52a3.81,3.81,0,0,1-2,2.67c-1,.42-1.55,1.54-.14,2.38a7.12,7.12,0,0,0,3.92.84c1.12,0,2.52,0,2.66,1s.28,2.24-1.12,2.52-2.66.28-3.5-.56-1.26,0-2.38,0-.43-1.68-1.13-2.66a6.82,6.82,0,0,1-1.4-3.08c-.14-1.12-1.68-1.12-2.24,0s-.56,2.38-1.12,2.8-.28,1.12.42,2,.14,2.11.7,3.09,1.54,2.1,2.52,2.1,3.37-.42,4.07.28,1,2.1-.42,2.24-2.67.28-3.23-.42-1.26-.56-2,.14-2.1,1.26-2.24,2.52-.28,4.07.7,5.33a3.13,3.13,0,0,0,3.22,1.4c1-.28,1.12,1,.42,1.68s-1.61,1.12-1.54,2.11c.05.66,1.26.7,2.1,2a3.81,3.81,0,0,0,3.79,1.82,3,3,0,0,1,3.08,1c.56.7,1.4,1.82,2.53,1.12a1.73,1.73,0,0,1,2.66.71,2.77,2.77,0,0,1-1.26,3.5,4,4,0,0,0-1.82,4.2c.42,1.13,1.82,1.69.84,3.23s0,2.52-.7,3.5,1,2.31,1.82,2.24c1.82-.14,2.35-2.05,3.36-.84a3.73,3.73,0,0,1,1.12,3.09c-.28,1.12-.44,1.72.25,1.6C477.94,299.26,480.82,298.6,481.58,297.6Z" transform="translate(-168.03 -83.25)"/><rect class="cls-2" width="18.83" height="32.37"/></svg>