<svg id="base_map" data-name="base map" xmlns="http://www.w3.org/2000/svg" viewBox="0 0 467.29 432.5"><defs><style>.cls-1{fill:#b1b0b0;stroke:#e5e4e4;stroke-width:0.84px;}</style></defs><path class="cls-1" d="M345.77,313.23h-4.25c-1.21,0-.85-.86-2.55-.86s-21.51.25-23.82.25-3.28,1.09-4.62,1.82a4,4,0,0,1-3.89-.36,5.12,5.12,0,0,0-4-.73c-.38.14-1.09.36-1.89.6a26,26,0,0,1,0,4.56c-.09,2.58-2.35-.28-2.44,2.29,0,.8.23,3.57-.5,3.54-4.18-.14-1.39,4-1.53,7-.07,1.42-2,3.06-6.23,6.38-1.37,1.07-.44,3.39-.46,4.1a4,4,0,0,1-2.13,2.54c-1.92.31-1.56,1.09-2.33,2.23-1.36.52-.45,1.26-.06,1.56.62.45,0,1.83,1.55,1.88,1.8.06,1.62,2,0,2.35-2,.12.35,1.45.82,3a10,10,0,0,1,0,3c-.06,1.63-.46,1.17-2,1.11-1.05,0,.08,1.87-.45,2.37s-2.34-.77-2.38.28c0,.48,0,.95-.05,1.42h25.92v-6.44c0-1-1.22-1.45-1.22-2.06s1.58-1.22,3.28-1.22h6.69v9.72h23.21V343.85a1.31,1.31,0,0,1,1.45-1.34h12.76V312.37H348C346.87,312.37,347,313.23,345.77,313.23Z" transform="translate(-257.13 -82.83)"/><path class="cls-1" d="M362.3,391.61c.73-.73.85-1.82-.61-1.82h-9.23V378.61h-2.92V365.85h-9.11v-2.32H317.22v-9.72h-6.69c-1.7,0-3.28.61-3.28,1.22s1.22,1.09,1.22,2.06v6.44H282.55l-.06,1.77c0,1.18-.08,2.37-.13,3.55a4.35,4.35,0,0,0-.05,1.63c.19,1.14,1,1.83,1.95,2.87a1.21,1.21,0,0,0,.91.34l1.38.05c.72,0,.27,2.76.24,3.55-.06,1.7.41,4.09-.31,5.26-.16.26-.49.63-.41.66a.91.91,0,0,1,.49.53,3.23,3.23,0,0,1-.06,1.84c0,.79-.06,1.59-.08,2.39l1.65,1.75c.21.22-.18.52-.48.53-2.12.05-1.19,2.66-1.42,4.79-.15,1.35.17,1.82-.73,2-.57.11-.57.42.15.57s.58,1.14.26,1.75c-.14.26-.31.52-.48.78h55.18v1.82h11.91v-4.37h9c1.46,0,1.22-1,.61-1.58s-1.7-.85-1.7-2.07C360.36,393,361.57,392.34,362.3,391.61Z" transform="translate(-257.13 -82.83)"/><path class="cls-1" d="M340.55,401.94v-1.82H285.37a30.28,30.28,0,0,1-4.43,4.41c-2.84,2.64-4.69,3.65-4.83,7.63-.15,4.16-5.22,10.8-9.5,10.65-.73,0-.47,2.75-.5,3.55-.05,1.53.6,1.86,1.66,3,.83.9-.07,2.36.51,3,.79.88,2-.62,2.72.84,1.18,2.58,2.26,6,5.28,3.15l3.72-3.44c.53-.5,1.91.08,2.62-.07l9.3-2c1.89-.4,3.92.34,5.85-.07,5.48-1.19,10.23-2.57,15.73-1,2.71.78,6,2.92,8.18.86,1.83-1.72,3.86-1.06,6.33-1,5.12.18,10-.24,14.75,1.85,4.94,2.19,9.82,5,14.85,6.89,5.62,2.12,11.25,4.21,16.87,6.31a25.48,25.48,0,0,1,6.23,3.66c2.58,1.86,3.5,2.22,6.63,2.33h.11v-48.8h-46.9Z" transform="translate(-257.13 -82.83)"/><path class="cls-1" d="M387.82,383.35c-1-.49-1-1.09-1-2.07V374c0-.85.12-1.21-.37-1.82s.12-1.22.49-1.94a3.52,3.52,0,0,0-.24-2.44c-.25-.85-.37-1.58.6-2.06a3.09,3.09,0,0,0,1.7-2.31v-3.16c0-.73-.72-1.34-1.7-2.55a2.51,2.51,0,0,1-.73-2.07v-.85H373.36v3.77c0,1-2.19,1.21-3.65,1.21H348.93a4.93,4.93,0,0,0-2.55.85,6.44,6.44,0,0,1-2.92.61h-3v4.62h9.11v12.76h2.92v11.18h9.23c1.46,0,1.34,1.09.61,1.82s-1.94,1.34-1.94,2.31c0,1.22,1.09,1.46,1.7,2.07s.85,1.58-.61,1.58h-9v4.37h25.39c1.83-1.09,4.2-2.92,6-3.64a35,35,0,0,0,4.13-1.95,9.64,9.64,0,0,1-1.09-2.67c0-.73-.37-1.46.36-2.43s1.34-1.58,1.34-2.8.85-1.7,1.58-3S388.79,383.83,387.82,383.35Z" transform="translate(-257.13 -82.83)"/><path class="cls-1" d="M369.23,311.65h8c1,0,1.85-.81,3.4-.81h8.43v31.23c0,1.63.28,2.76.92,3.4s1,1.34.43,2-.71,1.63-1.49,2.06a3.36,3.36,0,0,0-1.63,1.84c-.21.7.14,1.55-.21,2.12a4.68,4.68,0,0,0-.52,1.25H373.36v3.77c0,1-2.19,1.21-3.65,1.21H348.93a4.93,4.93,0,0,0-2.55.85,6.44,6.44,0,0,1-2.92.61h-3V343.85a1.31,1.31,0,0,1,1.45-1.34h12.76v-29h14.59Z" transform="translate(-257.13 -82.83)"/><path class="cls-1" d="M507,90.8c-.29.87,1.17,1,.39,2.14s-1.36,1.46-1,3.61-1.75,2-2.63,2.92-1.07,3.21-.58,4.48a13.06,13.06,0,0,1,.68,4.38c0,1.46-.2,3.31-.88,4s-2.34,1.85-2.43,3.32a2.6,2.6,0,0,1-1.56,2.24,2,2,0,0,0-.68,2.43c.48.88-.2,3.8-.2,5.55s-1.07,1.85-1.95,2-1.65,2.14-1.65,2.14,0,1.27.39,1.37c.6.15.91.81.68,1.75a5.32,5.32,0,0,1-.78,1.56h24.06c1,0,1.57-2.16,2.24-3s2.34-.88,4.23-.79c.43-.56,2.33.81,2.37-.29,0-.61-.3-2,.44-2,2.77.1,2.05-1,2.14-3.46.05-1.38-.69-2.09-1.58-3-.54-.52-.83-.73-.77.83.13,3-1.08,5.55-5.26,5.4-1.73-.06-4.41.67-4.34-1.33.06-1.58.11-3.15.17-4.72.09-2.57,2.37.3,2.49-3.09,0-.81,4.34-2.69,5.15-2.66,1.58,0,2,.52,2-1.12,0-.88.29-1.1-.48-1.38l-6-2.24c-2.22-.82-2.18.66-2.07-2.26.05-1.58.77-3.15.83-4.72.09-2.65.32-3,2.28-4.78,1-.9,2.55-.08,3.86-1.3,1.55-1.45,3.37-7.2,1.8-8.9a31,31,0,0,1-2-4.17c-.5-1.08-1.83-.88-3.57.74-.29.87.37,1.19,1.07,1.75s-2.63,1-1.23,2.93c1.59,2.22,1.24,1.81-.71,3.64-.68.64-2.83.15-3.81.11-1.75-.06-1.11-.8-1.09-2.41,0-2.13.12-2.4,1.66-3.85.62-.57,1.67-2.24.94-3.15-.6-.76-8.36-.21-9.49-.25l-1.07,0v.1C509.12,88.36,507.27,89.92,507,90.8Z" transform="translate(-257.13 -82.83)"/><path class="cls-1" d="M528.73,177.59l.52.63c.41.44,1.5.54,1.53-.18.06-1.72,1-4.33-1-4.4-1.71-.06-2.33-1.23-2.79-.89s-.2,1.37,1.37,3.05C529.15,176.67,528.39,177.17,528.73,177.59Z" transform="translate(-257.13 -82.83)"/><path class="cls-1" d="M490.67,140.46a5,5,0,0,0,.74,2.32c.31.63,1.15,1.78.42,2.41s-1.16.53-1.16,1.16.11,2.21.11,2.21h1.05v2c0,.52.63,1.36,1.15,1.36s1.47,1.26.95,1.89-.84,1.37-1.89.85-1.37-.21-1.58.31.32,1.26,1.16,1.16,1.05,1.05.73,1.78-1.26.32-2,.85-.52,1.36-1.57,1.57-2.31,1-1.58,1.89,1.26,2.84.21,2.84-1.79-.1-2.1.42.31,1.37,1.16,1.26a1.27,1.27,0,0,1,1.47,1.16,1.92,1.92,0,0,1-1.05,1.68c-.74.42-1.37,1-.53,1h19.13c1.26,0,2.63-1.15,3.68-1.78a2.21,2.21,0,0,1,2.74,0,2.33,2.33,0,0,0,2.83.42,6.07,6.07,0,0,0,2.63-2,3.07,3.07,0,0,1,3-1.45c1.6.11,1.62,2.12,1.62,2.88,1.34.13,2,.06,2-2,0-.57,1.47-.64,1.93-.36s.77,1.24,1.07.87c1-1.24,4.17-1.41,4.22-.23s-.65,4-.29,4.34c1.08,1.15,2.37-.1,2.41-1.1q.14-4,.28-7.9c0-1.62-.55-2.76,1.28-2.7,1.09,0,1.38.45,1.32,1.27,0,.32.22.75.47.54,1.7-1.42,4.19-3.19,4.26-5.16.1-2.81.25-3.56,2-5.29.3-.33.69-.89,0-.93-1.18-.07-1.74.17-1.78,1.48-.06,1.55-.72,1.82-1.87,2.88s-4.54.46-6.24.4c-2.51-.09-1.4-3-1.32-5.17s-.09-2,2.06-1.93c.75,0,.44-1.69.46-2.33.14-4-2.33-2.4-4.46-.41-1.05,1-5,.13-5.8-.79-1.87-2-3.8-3.21-3.7-6a4.22,4.22,0,0,1,2.52-3.51c.68-.39,2.54,1.18,3.79,2.53,1.78,1.93-.54,3.18,2.73,3.29,1.89.07,3.62.45,2.8-2.26s-3-1.7-4.65-2.54c-1.18-.6-3.3-3.36-2.19-4.83-1.89-.09-3.55-.09-4.23.79s-1.27,3-2.24,3H494.8s-2.78.16-2.55,1.94a2,2,0,0,1-.42,1.79C491.41,138.89,490.67,139.52,490.67,140.46Z" transform="translate(-257.13 -82.83)"/><path class="cls-1" d="M431.36,121.73c0-1.1.66-2.63,2-2.63a3.55,3.55,0,0,0,3.5-1.75,9.51,9.51,0,0,0,1.32-3.72c.22-1.32.21-2.85,1.09-3.94s0-3.51-.44-5-.65-3.5-1.53-4.38-1.09-2.62-.22-4.59-.22-3.73-.44-4.6a7.54,7.54,0,0,1,.88-3.94,7.11,7.11,0,0,0,.43-2.2l-52.38.37c-2.31,0-4.63,0-6.94,0v17.82c0,1.09-1.75.87-1.75,1.75s.87,1.31.87,2.41v3.06h9.2s3.65.49,5.25,2.63c1.31,1.75.66,2,2,2h2.63v5.47h9.63V125c0,.88-1.09.22-1.09,1.1s1.2.21,1.2,1.2v2.52h9.09c1.31,0,1.53-1.32,2.4-.66a3.3,3.3,0,0,0,3.51.22c1.31-.66,1.09-2.85,2.19-3.07a8.79,8.79,0,0,0,4.38-2.4C429.17,122.6,431.36,122.82,431.36,121.73Z" transform="translate(-257.13 -82.83)"/><path class="cls-1" d="M436.61,91.08c.22.87,1.32,2.62.44,4.6s-.66,3.72.22,4.59,1.1,2.85,1.53,4.38,1.32,3.94.44,5-.87,2.62-1.09,3.94,1.31,2.41,1.31,3.5c0,2,2.09-.77,3.72-1.09,1.1-.22,2.63-.22,3.07.65s.22,3.07,1.31,2.85,1.53.44,1.75,1.31,1.1.44,2,.22,1.53,1.31.66,2.19a4.09,4.09,0,0,0-1.1,3.06c0,1.1-.65,2.63,0,3.51s.44,1.75.22,2.84.88,1.1,1.32,2.19.87-1.31,1.75-.65A13.61,13.61,0,0,1,457,136.4c.66.87,2,.21,2.19-1.32s1.54-1.75,1.75-2.84,1.54-2.19,2.19-1.32,1.76,2.19,2.63,1.75,2.63-.65,3.29-2.62,1.31-3.51,3.06-3.51a4.5,4.5,0,0,0,4.16-2.62c.88-1.75.44-3.94,1.75-3.94s.66-1.54,0-2.19-1.53-1.54-.22-3.07,2.19-.87,2.41-2.41-.44-4.81.44-6.78,1.53-3.51,2-4.82,1.75-1.31,2.19-2.41,2.62-.87,3.72-.87.44-2.19,1.53-3.51.6-3.69,2.41-4.59c.88-.44,2-.9,1.75-2.19a7.41,7.41,0,0,1,0-2.43L491,84.6c-11.7-.41-23.49.11-35.21.2l-17.88.14a7.11,7.11,0,0,1-.43,2.2A7.54,7.54,0,0,0,436.61,91.08Z" transform="translate(-257.13 -82.83)"/><path class="cls-1" d="M480.18,112.31c-.22,1.54-1.09.88-2.41,2.41s-.44,2.41.22,3.07,1.9,1.13,2.39,2.62c.39,1.17-.19,1.56-.19,2.43V130h14.32s.78-2,1.65-2.14,1.95-.19,1.95-2,.68-4.67.2-5.55a2,2,0,0,1,.68-2.43,2.6,2.6,0,0,0,1.56-2.24c.09-1.47,1.75-2.63,2.43-3.32s.88-2.53.88-4a13.06,13.06,0,0,0-.68-4.38c-.49-1.27-.3-3.61.58-4.48s3-.78,2.63-2.92.2-2.44,1-3.61-.68-1.27-.39-2.14,2.15-2.44,2.15-5.55v-.1c-4.5-.15-10.17-.3-15-.44a7.41,7.41,0,0,0,0,2.43c.24,1.29-.87,1.75-1.75,2.19-1.81.9-1.31,3.28-2.41,4.59s-.44,3.51-1.53,3.51-3.28-.22-3.72.87-1.75,1.1-2.19,2.41-1.1,2.85-2,4.82S480.4,110.78,480.18,112.31Z" transform="translate(-257.13 -82.83)"/><path class="cls-1" d="M483.31,209.33v3.79c0,.64-.88,1.39-.63,1.9s1.64,1.26,1.83,2.21,1,1.26,1.46,2.27h15a3.46,3.46,0,0,0,.56-1.4c0-.56-.54-1.06-.5-1.6.17-2.3.19-4.62.25-6.93a1.08,1.08,0,0,1,.74-.95,17.44,17.44,0,0,0,3.63-2.24c.28-.21.47-.08.44.14-.13,1.22-.48,3.7-.11,4.21,1.05,1.5,2.38-.39,2.28,2.46,0,1.2,4.2-1.08.4-4.48-1.87-1.68,1.07-1.58,1.83-2.56s2.18-4,2.65-4.39c1.78-1.64,2.57,1.35,2.69-2.16a9,9,0,0,1,5-7.31c1.68-.75,3.76.5,4.81-2.2s-.5-2.26-2.27-2.47c-.86-.1-4.76.29-4.73-.53s-.18-4.36.52-4.34c3.4.12.55,2.38,3.1,2.47,1.65.06,3.52.89,3.58-1.05s2.48-2.28,2.53-3.83c0-.45.3-1.57.06-1.79l-.58-.47a9.76,9.76,0,0,0-1.8.16c-1.62.06-3.3-.12-4.93-.17-1.8-.07-4.58.77-4.5-1.33.1-3-.58-8.33,3.85-8.17.61,0,1.14.08,1.59.13,0-.76,0-2.77-1.62-2.88a3.07,3.07,0,0,0-3,1.45,6.07,6.07,0,0,1-2.63,2,2.33,2.33,0,0,1-2.83-.42,2.21,2.21,0,0,0-2.74,0c-1.05.63-2.42,1.78-3.68,1.78H490.14v5.89c0,1.17-.95,1.29-.95,2.43a5.87,5.87,0,0,1-.38,2.53c-.25.38.5,1.39,1.32,1.64s1.27,1,.7,1.71a5.56,5.56,0,0,0-1.58,2.71c-.06,1-.51,2.59.19,3.6s1.14,1.9.19,2.78a2.53,2.53,0,0,0-1.07,2v4.11a1.63,1.63,0,0,1-1.14,1.51,17.89,17.89,0,0,0-3.92,3.16c-.69.89-1.2,2.09-.76,2.59A3,3,0,0,1,483.31,209.33Z" transform="translate(-257.13 -82.83)"/><path class="cls-1" d="M372.61,149.08c0,.84.74,1.48.74,2.32v14.4c0,1.16-1,2.1-1,3s-.63,1.36-1.26,1.78-.1.85.11,1.48a2.69,2.69,0,0,1-.95,2.31,7,7,0,0,0-1.26,2.09h26.7c4.31,0,4.84.85,6.94.85h3.47c.73,0,.84-1.05,1.79-1.05s1.78,1.05,2.83,1.05h4.52V158.12c0-.84-1.05-1.89-2.2-2.94s-5-4.83-5.68-5.47-1.79-.52-1.79-1.57v-9.32H388c-.84,0-1.08.49-1.08,1.54v3.1H372.61Z" transform="translate(-257.13 -82.83)"/><path class="cls-1" d="M452.38,134.86a3,3,0,0,1,0,3.56c-.43.63-1.61.8-2.05,1.6a5,5,0,0,0-.63,2.23c0,.53-.8.71-.8,1.69a2.54,2.54,0,0,1-.89,2.32,4.28,4.28,0,0,0-1.87,1.7c-.36.8-1.61,1.69-1.61,2.76s-.89,1.25-1.16,2.5a12.11,12.11,0,0,0-.18,2.94c0,.89-.62,2-.62,2.94,0,1.34-.62,1.61-.62,3.93h-6c-1.78,0-2.23,1.69-3.21,1.69a4.43,4.43,0,0,1-2.85-.71c-.72-.63-2.23-.73-3.75-.73H415.29v-5.16c0-.84-1.05-1.89-2.2-2.94s-5-4.83-5.68-5.47-1.79-.52-1.79-1.57V138c0-.75.89-.75.89-1.81v-6.35h9.09c1.31,0,1.53-1.32,2.4-.66a3.3,3.3,0,0,0,3.51.22c1.31-.66,1.09-2.85,2.19-3.07a8.79,8.79,0,0,0,4.38-2.4c1.09-1.32,3.28-1.1,3.28-2.19s.66-2.63,2-2.63a3.55,3.55,0,0,0,3.5-1.75,9.51,9.51,0,0,0,1.32-3.72c-.22,1.31,1.31,2.41,1.31,3.5,0,2,2.09-.77,3.72-1.09,1.1-.22,2.63-.22,3.07.65s.22,3.07,1.31,2.85,1.53.44,1.75,1.31,1.1.44,2,.22,1.53,1.31.66,2.19a4.09,4.09,0,0,0-1.1,3.06c0,1.1-.65,2.63,0,3.51s.44,1.75.22,2.84S451.94,133.77,452.38,134.86Z" transform="translate(-257.13 -82.83)"/><path class="cls-1" d="M442,163c0-2.32.62-2.59.62-3.93,0-1,.62-2,.62-2.94a12.11,12.11,0,0,1,.18-2.94c.27-1.25,1.16-1.43,1.16-2.5s1.25-2,1.61-2.76a4.28,4.28,0,0,1,1.87-1.7,2.54,2.54,0,0,0,.89-2.32c0-1,.8-1.16.8-1.69a5,5,0,0,1,.63-2.23c.44-.8,1.62-1,2.05-1.6a3,3,0,0,0,0-3.56c.43,1.1.87-1.31,1.75-.65A13.61,13.61,0,0,1,457,136.4c.66.87,2,.21,2.19-1.32s1.54-1.75,1.75-2.84,1.54-2.19,2.19-1.32,1.76,2.19,2.63,1.75,2.63-.65,3.29-2.62,1.31-3.51,3.06-3.51a4.5,4.5,0,0,0,4.16-2.62c.88-1.75.44-3.94,1.75-3.94s.66-1.54,0-2.19c.66.65,1.9,1.13,2.39,2.62.39,1.17-.19,1.56-.19,2.43V130h14.32s0,1.27.39,1.37c.6.15.91.81.68,1.75a5.32,5.32,0,0,1-.78,1.56s-2.78.16-2.55,1.94a2,2,0,0,1-.42,1.79c-.42.53-1.16,1.16-1.16,2.1a5,5,0,0,0,.74,2.32c.31.63,1.15,1.78.42,2.41s-1.16.53-1.16,1.16.11,2.21.11,2.21H479.41c-2.94,0-2.32,2.25-3.75,2.25s-1.6,1.43-2.49,1.43-1.79.53-1.79,1.07v2.4c0,.63-1,.45-1.78,1.16s-1.34,0-2-.62-1.52.36-1.52,1.43-.62,1.87-.45,2.76-.44,1.43-.8,2.59.27,1.6-.09,2.94a3.92,3.92,0,0,1-2.14,2.67,3.29,3.29,0,0,0-2.14,1.61c-.35.89-.53,2.14-1,3a2.67,2.67,0,0,1-2.76,1.07c-1-.18-1.52.36-2.41.8s-1.69-.09-2.32-.09-1.42.09-1.87-.53-1.43-.54-3-.09-.63-1.34-.45-2.67-1.69.44-2.32-.36.72-1.61,1.43-2-1.61-.63-1.78-1.25.26-1,.89-1.87-1.07-.81-.45-1.43.09-1.78.09-1.78Z" transform="translate(-257.13 -82.83)"/><path class="cls-1" d="M490.14,170.63v5.89c0,1.17-.95,1.29-.95,2.43a5.87,5.87,0,0,1-.38,2.53c-.26.38.5,1.39,1.32,1.64s1.27,1,.7,1.71a5.56,5.56,0,0,0-1.58,2.71c-.06,1-.51,2.59.19,3.6s1.14,1.9.19,2.78a2.54,2.54,0,0,0-1.08,2v4.11a1.62,1.62,0,0,1-1.13,1.51,17.89,17.89,0,0,0-3.92,3.16h-2.1V196h-3.82c-.86,0-.58,1.43-1.44,2.29s-1.14,2.11-2.19,2.39-1.34,1.63-2.11,2.58a4.75,4.75,0,0,1-3.53,1.82,6.9,6.9,0,0,0-3.73,1.05c-.77.58-.86-1.15-1.53-1.34s-.57-1.24-.57-1.81,0-1.63-1.15-1.63-1.53-.86-2.49-1.24-.38-2.49-1.43-2.49a4.07,4.07,0,0,1-2.58-1.52c-.67-.67-1.63-1.44-1.63-2.49V189c0-.95-1.33-2.1-1.81-2.77s-.77-1.05,0-1.72,1.81-.29,2.29-.77,1.91-.47,1.91-.47v-4.11c0-.86-1.33-.77-1.91-1.15s-.57-.76-.29-1.53a2.58,2.58,0,0,1,1-1.34c.89-.44,1.43-1,2.41-.8a2.67,2.67,0,0,0,2.76-1.07c.45-.89.63-2.14,1-3a3.29,3.29,0,0,1,2.14-1.61,3.92,3.92,0,0,0,2.14-2.67c.36-1.34-.26-1.78.09-2.94s1-1.7.8-2.59.45-1.69.45-2.76.89-2.05,1.52-1.43,1.16,1.34,2,.62,1.78-.53,1.78-1.16v-2.4c0-.54.89-1.07,1.79-1.07s1.07-1.43,2.49-1.43.81-2.25,3.75-2.25h12.42v2c0,.52.63,1.36,1.15,1.36s1.47,1.26.95,1.89-.84,1.37-1.89.85-1.37-.21-1.58.31.32,1.26,1.16,1.16,1.05,1.05.73,1.78-1.26.32-2,.85-.52,1.36-1.57,1.57-2.31,1-1.58,1.89,1.26,2.84.21,2.84-1.79-.1-2.1.42.31,1.37,1.16,1.26a1.27,1.27,0,0,1,1.47,1.16,1.92,1.92,0,0,1-1.05,1.68c-.74.42-1.37,1-.53,1Z" transform="translate(-257.13 -82.83)"/><path class="cls-1" d="M442,163h-6c-1.78,0-2.23,1.69-3.21,1.69a4.43,4.43,0,0,1-2.85-.71c-.72-.63-2.23-.73-3.75-.73H415.29v37.17h37.42v-3.84l2.12-.52c-.67-.67-1.63-1.44-1.63-2.49V189c0-.95-1.33-2.1-1.81-2.77s-.77-1.05,0-1.72,1.81-.29,2.29-.77,1.91-.47,1.91-.47v-4.11c0-.86-1.33-.77-1.91-1.15s-.57-.76-.29-1.53a2.58,2.58,0,0,1,1-1.34c-.89.45-1.69-.09-2.32-.09s-1.42.09-1.87-.53-1.43-.54-3-.09-.63-1.34-.45-2.67-1.69.44-2.32-.36.72-1.61,1.43-2-1.61-.63-1.78-1.25.26-1,.89-1.87-1.07-.81-.45-1.43.09-1.78.09-1.78Z" transform="translate(-257.13 -82.83)"/><path class="cls-1" d="M476.76,299.79c-.69.12-.53-.48-.25-1.6a3.73,3.73,0,0,0-1.12-3.09c-1-1.21-1.54.7-3.36.84-.84.07-2.53-1.26-1.82-2.24-1.11,1.12-1.63,3.21-2.33,4.18.53.53,1.13,1.93,2.28,1.31s1.69-.89,2.4-.71,2.22.62,2.49,1.6.89,1.69.36,2.58-.54,2.75.26,3.46,1.34,1.25.89,2.23-1.42,1.6-1.42,2.66v3.56c0,1.06.62,2.49,1.42,2.49h3.2c.89,0,1.16-1,2.49-1s1.2,1.82,2.13.89.63-1.78.27-2.85-1.16-3.11-2.22-3.11h-2.85c-.89,0-1.33-2.13,0-2.13s2.14-.44,3.91-.44a3.72,3.72,0,0,1,3.12,1.42c.53.62,1.68,1.6,1.77,2.75s.89,2.31.09,3.47a6.72,6.72,0,0,0-1.15,3.91,4.16,4.16,0,0,1-1.78,3.38c-1,.62-3.38-.09-4,.89a2.14,2.14,0,0,0,0,2.75,3.69,3.69,0,0,0,2.58,1.34h3.46c.89,0,1.69-1,2.85-1s1.69.89,2.75.89a10.19,10.19,0,0,0,3.47-.71,8.69,8.69,0,0,0,2.67-1.43,1.34,1.34,0,0,1,2.31.63c.53,1.33,1.69,2.13,1.69,3.28a11.66,11.66,0,0,0,.8,3.83c.44,1.15.17,1.95,1.06,2.66s2.1.11,2.52,1.37l.63-2.63c-.62-.89-1.9-2.47-1.37-3.36s1.6-1,2-2.58.8-2.93,2-3.46a7,7,0,0,0,2.84-3.56c.36-1.15.27-3.55.89-5.07s.53-4.26,1.33-5.77,1.43-2.85,2.05-3.74.09-1.42-.18-2.31a2.35,2.35,0,0,1,.71-2.57,2.81,2.81,0,0,0,.8-2.4v-1.61C505.19,299.18,491,299.46,476.76,299.79Z" transform="translate(-257.13 -82.83)"/><path class="cls-1" d="M543.87,298.11q-12.21.43-24.47.72v1.61a2.81,2.81,0,0,1-.8,2.4,2.35,2.35,0,0,0-.71,2.57c.27.89.8,1.43.18,2.31s-1.25,2.23-2.05,3.74-.71,4.26-1.33,5.77-.53,3.92-.89,5.07a7,7,0,0,1-2.84,3.56c-1.16.53-1.51,1.86-2,3.46s-1.51,1.69-2,2.58.75,2.47,1.37,3.36a4.76,4.76,0,0,0,2.42-.94c.63-.74.42-2.84,1.89-2.84h8.62c1.16,0,1.89-1.16,3.47-1.16h16.82c1.26,0,2.21-.73,3.79-.73s1.68.73,2.94.73H550a2.54,2.54,0,0,1,0-1.89c.42-.95-.94-.74-.84-1.68s1.47-1.47,1-2.63a5,5,0,0,1,0-3.26,4.7,4.7,0,0,0-.42-3.26c-.52-1.36.63-1.68-.21-2.63s-.63-1.47-.21-2.62,0-1.48-.52-2.63-.95-2.74-.43-3.79,2-2.42,1.9-4.1a10.41,10.41,0,0,1,.77-4C548.65,297.94,546.25,298,543.87,298.11Z" transform="translate(-257.13 -82.83)"/><path class="cls-1" d="M575.37,354.45v-17H544.14c-.22,1-1,1.32-1.87,1.75s0,1.76-1.09,2.42-2.2.44-2.75,1.21-2.09,1.76-1.21,2.53,1.54,3.41.55,4.51.33,1.76.33,3v3.84c0,1-1.76,1.65-.77,2.64a4.06,4.06,0,0,1,1.21,3.85c-.44,1.21.88,1,2,2.53s3.73,1.87,4.17,2.75.66.77,1.21,1,2.2.11,2.86,1.1,2.86,1.32,3.19,3.4.66,2.86,1.65,3.08a2.52,2.52,0,0,1,2.2,2.09,3.67,3.67,0,0,0,2.86,2.42c1,.22.32,2.09,1.31,2.42s1.76.77,1.54,1.87a1.73,1.73,0,0,0,1.87,1.86c.88-.11,1.54-.76,1.87-2.08a5.59,5.59,0,0,1,2-3.08c1.54-1.22,1.69-.08,2.86.66.88.55,1.87-.77,2.75.22s.44,2.2,1.76,2.2h3c.66,0,1.76-1.43,2.31-2.64s.92-.7,2-1.69.76-1.51,2.19-1.62,2.14-2.44,2.69-3.43c0,0,4.68-5.52,3.58-6.95s-3.32-3.45-3.43-5-4,3.94-5,3.72-1.21-.55-1-1.65-.55-1.1-.88-2.53-1.21-1.54-2.53-2.53-.88-1.32-1-3.08S575.37,356.42,575.37,354.45Z" transform="translate(-257.13 -82.83)"/><path class="cls-1" d="M551.05,297.87a10.41,10.41,0,0,0-.77,4c.1,1.68-1.37,3.05-1.9,4.1s-.1,2.63.43,3.79.94,1.47.52,2.63-.63,1.68.21,2.62-.31,1.27.21,2.63a4.7,4.7,0,0,1,.42,3.26,5,5,0,0,0,0,3.26c.42,1.16-.94,1.68-1,2.63s1.26.73.84,1.68a2.54,2.54,0,0,0,0,1.89s-.16,2.47-1.42,2.47-1.8.31-2.42,1.76c-.33.77-1.76,1.87-2,2.86h31.23v-40h-.07C567.35,297.42,559.15,297.61,551.05,297.87Z" transform="translate(-257.13 -82.83)"/><path class="cls-1" d="M491.67,353.07h-3.1c-1.36,0-2.14,1.55-3,1.55h-2.84c-1.43,0-.78-1.63-2.14-1.63H468.66v-2.7c0-.7-1.74-1.31-2.09-2.62s-.88-2.1-.35-3.15,1-1.83.7-2.79.26-1.66.61-2.45,0-1.75,0-2.45,1.13-1.13,1.13-2.27v-3.49c0-1-1-.52-1.22-1.83s-1.31-1.31-1.31-2.28-.44-1.74-.44-2.62.09-2.88-.78-2.88-2,.35-2.62-.52a2.25,2.25,0,0,1,.09-2.54c.43-.87-1-1.22-1.49-2s.09-1.58,1.05-1.93.61-1,.61-1.74v-5.07c0-.87-1.05-1.05-1.05-1.92v-2.88c0-.62.79-1.14,1.84-1.14s1.92-1.14,2.44-2.27,1.4-.61,2.1-1.57h0c.53.53,1.13,1.94,2.28,1.31s1.69-.89,2.4-.71,2.22.62,2.49,1.6.89,1.69.36,2.58-.54,2.75.26,3.46,1.34,1.25.89,2.23-1.42,1.6-1.42,2.66v3.56c0,1.07.62,2.49,1.42,2.49h3.2c.89,0,1.16-1,2.49-1s1.2,1.82,2.13.89.63-1.78.27-2.85-1.16-3.11-2.22-3.11h-2.85c-.89,0-1.33-2.13,0-2.13s2.14-.44,3.91-.44a3.72,3.72,0,0,1,3.12,1.42c.53.62,1.68,1.6,1.77,2.75s.89,2.31.09,3.47a6.74,6.74,0,0,0-1.15,3.91,4.16,4.16,0,0,1-1.78,3.38c-1,.62-3.38-.09-4,.89a2.14,2.14,0,0,0,0,2.75,3.69,3.69,0,0,0,2.58,1.34h3.46c.89,0,1.69-1,2.85-1s1.68.89,2.75.89a10.19,10.19,0,0,0,3.47-.71,8.69,8.69,0,0,0,2.67-1.43,1.34,1.34,0,0,1,2.3.63c.54,1.33,1.7,2.13,1.7,3.28a11.66,11.66,0,0,0,.8,3.83c.44,1.15.17,1.95,1.06,2.66s2.1.11,2.52,1.37a4.23,4.23,0,0,1-1.17,1.27c-.73.48-.49,1.22-.73,1.95s-1.47.12-2.2,1.46-1.47,1.47-1.47,2.81-2.07-.24-2.56.61a7.49,7.49,0,0,0-1.47,2.93,17.8,17.8,0,0,0,0,2.69h-5.49C491.75,351.61,491.72,352.09,491.67,353.07Z" transform="translate(-257.13 -82.83)"/><path class="cls-1" d="M521.3,371.76H506.53v-2.33h-1.22c-1.22,0-1.59-1.83-2.08-2.8a2.56,2.56,0,0,0-2.68-1.59c-1.59,0-1.35-2-1.35-2.81s0-1-1.34-1.71-1-1-2.08-2.68a4.63,4.63,0,0,0-2.8-2.2,2.46,2.46,0,0,1-1.31-2.57c.05-1,.08-1.46.94-1.46h5.49a17.8,17.8,0,0,1,0-2.69,7.49,7.49,0,0,1,1.47-2.93c.49-.85,2.56.74,2.56-.61s.74-1.46,1.47-2.81,1.95-.73,2.2-1.46,0-1.47.73-1.95a4.23,4.23,0,0,0,1.17-1.27s1.69.6,1.51,1.63-.58,1.1-1.1,1.79-1.56.78-1.56,2.07.69,2.33,1.56,2.33h3.19a1.94,1.94,0,0,1,2.07,1.38c.18.87.61,1.64-.43,2.33a12.58,12.58,0,0,0-2.5,1.64c-.61.69-.18,1.56,1.9,1.56a9,9,0,0,0,4-1c.69-.26,1.38.87,1.38,2.59v5.61c0,1.73-.78,2.94-1.29,4.32s-1.9,1.47-2.34,2.59-1.2,2.42.44,3,2.07.35,3.45-.08,2.59-1,3.37-.18,1.46,1.3,1,1.56S521.3,371.76,521.3,371.76Z" transform="translate(-257.13 -82.83)"/><path class="cls-1" d="M544.69,368.41c-.44-.88-3.08-1.21-4.17-2.75s-2.42-1.32-2-2.53a4.06,4.06,0,0,0-1.21-3.85c-1-1,.77-1.65.77-2.64V352.8c0-1.21-1.32-1.87-.33-3s.33-3.74-.55-4.51.66-1.76,1.21-2.53,1.65-.55,2.75-1.21.21-2,1.09-2.42,1.65-.77,1.87-1.75,1.65-2.09,2-2.86c.62-1.45,1.16-1.76,2.42-1.76s1.42-2.47,1.42-2.47h-1.68c-1.26,0-1.37-.73-2.94-.73s-2.53.73-3.79.73H524.73c-1.58,0-2.31,1.16-3.47,1.16h-8.62c-1.47,0-1.26,2.1-1.89,2.84a4.76,4.76,0,0,1-2.42.94l-.63,2.63s1.69.6,1.51,1.63-.58,1.1-1.1,1.79-1.56.78-1.56,2.07.69,2.33,1.56,2.33h3.19a1.94,1.94,0,0,1,2.07,1.38c.18.87.61,1.64-.43,2.33a12.58,12.58,0,0,0-2.5,1.64c-.61.69-.18,1.56,1.9,1.56a9,9,0,0,0,4-1c.69-.26,1.38.87,1.38,2.59v5.61c0,1.73-.78,2.94-1.29,4.32s-1.9,1.47-2.34,2.59-1.2,2.42.44,3,2.07.35,3.45-.08,2.59-1,3.37-.18,1.46,1.3,1,1.56-1.05.75-1.05.75c1.59,0,1,1,2.81,1h9.53c.8-1.64,1.83-2.67,3.13-2.93s1.9-.09,3.71.43a3.21,3.21,0,0,0,3.28-.86C544.11,369,544.69,368.41,544.69,368.41Z" transform="translate(-257.13 -82.83)"/><path class="cls-1" d="M533.64,372.73c.13,4-.89,3.79-2.08,8s-2.09,3.58-2.39,6.12-1.34,3.13-1.34,3.13a35.44,35.44,0,0,1,0,4c-.15.75-1.79,1.2-1.79,1.2v4.62a11.44,11.44,0,0,1-2.09.75c-1.19.3-3.73,2.24-4.77,2.24H515c-1,0-2.09.29-2.84-.75s-1.19-2.39-2.68-2.39h-7.31c0-1.49-1.35-4-2.84-4.48s-3.43,0-5.07.3-2.09-.15-1.79-1.34a4.08,4.08,0,0,0,0-3c-.45-1.35.74-3.14-.15-4.78a5.77,5.77,0,0,1-.9-3.58c0-1.34-.89-1.49-2.68-1.49s-2.84-1.05-4.48-1.05-2.24-2.09-2.68-3.43-1.64-2.38-2.69-3.58-.75-3.28-.75-4-1.34-1.34-1.34-2.09,1.2-.74,1.2-1.64v-3.73c0-1.34-1.2-2.83-2.09-3.73s-1.35-2.09-2.39-2.38A4.84,4.84,0,0,1,471,353h9.62c1.36,0,.71,1.63,2.14,1.63h2.84c.84,0,1.62-1.55,3-1.55h3.1a2.47,2.47,0,0,0,1.3,2.57,4.63,4.63,0,0,1,2.81,2.19c1.1,1.71.74,2,2.08,2.69s1.34.86,1.34,1.71S499,365,500.54,365a2.56,2.56,0,0,1,2.69,1.59c.49,1,.86,2.8,2.08,2.8h1.22v2.32H521.3c1.59,0,1,1,2.81,1Z" transform="translate(-257.13 -82.83)"/><path class="cls-1" d="M526,399.79v-4.62s1.64-.45,1.79-1.2a35.44,35.44,0,0,0,0-4s1-.59,1.34-3.13,1.19-1.94,2.39-6.12,2.21-4,2.08-8c.8-1.64,1.83-2.67,3.13-2.93s1.9-.09,3.71.43a3.21,3.21,0,0,0,3.28-.86c.35-.35.93-1,.93-1,.44.88.66.77,1.21,1s2.2.11,2.86,1.1,2.86,1.32,3.19,3.4.66,2.86,1.65,3.08a2.52,2.52,0,0,1,2.2,2.09,3.67,3.67,0,0,0,2.86,2.42c1,.22.32,2.09,1.31,2.42s1.76.77,1.54,1.87a1.73,1.73,0,0,0,1.87,1.86c.88-.11,1.54-.76,1.87-2.08a5.59,5.59,0,0,1,2-3.08c1.54-1.22,1.69-.08,2.86.66,0,0-.56,1.44-1.05,2.42s-.36,1.83-.73,3.05a8.43,8.43,0,0,0-3,.73,31.52,31.52,0,0,1-6.86,1.5c-1.35,0-2.54,1.64-4.18,1.49s-4.63.74-6,.74-2.83,1.5-4,1.5-1.94,1.64-2.83,2.53-2.39.77-2.39,2.24a10,10,0,0,0-2.65-.79c-1.34-.15-1.67-.9-4.07-.42-1.4.28-.84.42-2.38.14s-1.4-.42-2.25.42A4.58,4.58,0,0,1,526,399.79Z" transform="translate(-257.13 -82.83)"/><path class="cls-1" d="M590.52,370a27.33,27.33,0,0,1,14.59-7.57s-.5-18.55-.5-19.76-.88-1.21-.88-2.09,1-1,1-2.09S604,337,604,335.76v-4.62c0-2.09-.77-3.3-.77-4.29s.22-1.87-.77-2.64-.88-2.09-1.54-2.74-.55-1.76-.55-2.86a2.51,2.51,0,0,0-1.1-2.31,2.84,2.84,0,0,1-1-2.31,7,7,0,0,0-1.43-3.52,9.07,9.07,0,0,1-1.87-5.28v-7.95c-6.52.12-13.06.18-19.56.18v57c0,2,1.09,2,1.2,3.73s-.33,2.09,1,3.08,2.2,1.1,2.53,2.53,1.1,1.43.88,2.53,0,1.43,1,1.65,4.85-5.26,5-3.72S590.52,370,590.52,370Z" transform="translate(-257.13 -82.83)"/><path class="cls-1" d="M642.93,336.36c-.92-.28.59-1.77.22-2.23s-.39.39-1.09-.22-.32-1.76-1.15-2.28.34-1.12.81-2.87c.25-.93-1-1.21-.85-2.17.23-2.09,1-1.32,1-3.25,0-1.19.08-2.37.13-3.56a3.6,3.6,0,0,1,.06-1.85c.47-1.22,2.78-.37,3.45-2.79.22-.74-1.13-1.82-1-3a1.74,1.74,0,0,1,2.11-1.73c.13,0,.3-.13,0-.38l-1.32-1.42c-.17-.19-.08-.47.11-.45,2.89.36,1.34-2.74,2-4.13.5-.93-.07-1.15,0-1.79.1-2.62,1.37.19,2.43-1.11.68-.83,1-3.77,1.1-5.43,0-.27,0-.71-.29-.37-.56.56-1,1.14-1.62,1.69-.21.25-.57.32-.47-.21s0-.87,0-1.3-.34-.54-.52-.52c-13.24,1.56-29.36,1.68-43.44,2.07q-4.78.14-9.58.22v7.95a9.07,9.07,0,0,0,1.87,5.28,7,7,0,0,1,1.43,3.52,2.84,2.84,0,0,0,1,2.31,2.51,2.51,0,0,1,1.1,2.31c0,1.1-.11,2.2.55,2.86s.55,2,1.54,2.74.77,1.65.77,2.64.77,2.2.77,4.29a11.61,11.61,0,0,0,5.49.77c2.31-.22,2.53,1.21,4.84.88,2.72-.39,2.42,1.65,4.62,1.65,2.64,0,4.6-.35,5.61.33,1.64,1.1,1.75,1.59,3.84,1.59C630,336.36,638.58,336.41,642.93,336.36Z" transform="translate(-257.13 -82.83)"/><path class="cls-1" d="M647.72,379.27c2.24-.14,2.16,1.86,3.42,3.68s-3.2,6.35-1.1,5.09,2.25,1.26,3.65,1.12,1.54-2.52,3.5-1.26a7,7,0,0,0,3.25,1.24h.06c1,0,0-1.93.63-2.5,1.22-1.12,1.8-2.12,3.46-2.06.73,0,3,.47,3.56.12,1.36-1-1.07-2.4.69-2a2.15,2.15,0,0,0,1.85-.81c.61-1.06-1.41-2.6-2.12-.47a1.88,1.88,0,0,1-2.72.81,3.12,3.12,0,0,1-.78-1.1,13.08,13.08,0,0,1-1.4-4.1c.13-3.57-2.36-.49-2.24-4.07.06-1.62-1.42-1.91-.72-2.87s1.46-6.13,1.07-7-1.23,3.64-2.43,2.29-1.67-3.73-2.2-4.83.06-1.87.12-3.55-.38-1.19-2-1.25c-.81,0-.2-1.72-.28-2.39s.52-2.35-.29-2.38c-1.57-.06-2,.37-2-1.26,0-1.3-1.66-1.37-2.5-1.43s-1.25-1.37-2.12-2.27.58-1.58.09-2.37-1.57-.39-2.53-.24-.35-1-1.3-1.45.64-.81-.61-1.81,0-3.56-.89-3.84c-4.35.05-12.93,0-14.58,0-2.09,0-2.2-.49-3.84-1.59-1-.68-3-.33-5.61-.33-2.2,0-1.9-2-4.62-1.65-2.31.33-2.53-1.1-4.84-.88a11.61,11.61,0,0,1-5.49-.77v4.62c0,1.21.77,1.64.77,2.74s-1,1.21-1,2.09.88.88.88,2.09.5,19.76.5,19.76c1.94,0,9.85.9,11.67,1.74a21.76,21.76,0,0,0,4.93,1.86c1.55.28,3.36,2.55,6,3s-.07,5.95,3.16,5.39,6.82,2.57,9.2,1.45S645.48,379.41,647.72,379.27Z" transform="translate(-257.13 -82.83)"/><path class="cls-1" d="M643.79,398.23c.84-.79,2.31.15,3.42-.89,1.73-1.6,1.46-1.61,3.07.11,3.14,3.34,3.25-1.08,3.33-3.43,0-.74,2.77-.28,3.56-.25,1.9.06,1-.71,1.27-2.31.43-2.23-.52-2.4,2-2.32a7,7,0,0,1-3.25-1.24c-2-1.26-2.1,1.12-3.5,1.26s-1.55-2.38-3.65-1.12-4.48,3.22-5.74,1.4-.85-3.79-3.09-3.65,1.7-2.58-.68-1.46-6.58,5.94-8.46,9.57c-1.51,2.91-3.59,1.12-5.56,2.75a6.67,6.67,0,0,1-5.76,1.33l-4.71,0c0,2,.5,1.59.36,4.68,0,0-.95,4.86-.95,6.07,0,2.44-1.09,3.48-1.09,4.78s.67,2.12,1.45,2.12h2.75a3.25,3.25,0,0,0,2.28-.88c.93-.73,2-1.35,2.7-.88s2.28,2.64,3.32,3.58c.52-.47.52-1,2.07-1.14s2.13.41,3.43.83,1.55,1.71,2.69,3.42a3.32,3.32,0,0,0,.88-1c.37-.62-.15-1.92-.67-3.78s-2.59-1.82-4.15-1.66-2.33-.78-3.79-1.77-.62-2-.15-3,2.07-3.07,3.47-2,2.91.26,4.93-1,2.08,1.14,3,1.35,1.71-1.46,2.77-2.57C640.34,402.3,642,399.93,643.79,398.23Z" transform="translate(-257.13 -82.83)"/><path class="cls-1" d="M655.4,433.38c.71,3.29,3.79,3.12,3.79,1.71,0-1.86,4.57-1,7.24-1-.41-4.52-4.76.33-4.6-4.18.06-1.62-.54-2.75,1.28-2.69,1.13,0,1.39.49,1.29,1.37-.35.95.21.66.46.46,1.72-1.37,4.52-3.24,4.17-.29-.29.68-.1,1.25.62.42.92-1.05,1.44-2,2.55-.81,1.58,1.68,1.66,1.38,3.85,1.66s2.28,0,3.85,1.68a2.87,2.87,0,0,0,2.51,1c.62,0,.35-.75.19-1.09l-1.32-2.87c-.37-.88,0-1.19,1.29-1.24a3.52,3.52,0,0,0,3.11-1.86c1.31-2.28-.79-2.41,2.83-2.28,2.76.09,2.07,1.48,4.28,2.53a9.75,9.75,0,0,0,3.53.19c.88,0,.73-.53.51-.76A4.79,4.79,0,0,1,695.3,423c-.08-1.08-.63-1.15-1-.85-1.74,1.45-3.85,2.64-3.73-.69,0-1.5-1.48-2.4-3-2.75-1.69-.37-.89-1.07-.39-1.56a2.39,2.39,0,0,1,1.52-.89c1.09,0,3.36.51,4.36.15,1.69-.61,1.64-2.31,3.64-2.24,1.44.05,2.13-.73,3-1.68.55-.48.55-1-.28-1-2.36-.08-4.6.24-7,.16-1.5,0-1-.74-.55-1.23,1.28-1.43,3-3.41,4.16-3.37,2.94.1,4.34,1.07,4.45-2.22,0-1.61.63-2.33-1.09-2.39s-1.16-.48-1.11-2.05c.08-2.35-4.33,1.39-4.63,1.68-1.38,1.3-1.94,4.86-2.6,6.64-.28.75-2.67.63-4,.41-.54-.09-1.24,0-.88-1.21.31-1.08.68-2.33.11-3.38-.27-.5-1.91-.06-2.35-.28-1.27-.64-2.74-2.69-3.88-4.1-.57-.59-.31-1,.42-.75,1.77.61,2.33-2.29,4.08-2.23,1.58.06,2,.51,2-1.13,0-1.05.31-1.18-.69-1.22-2.11-.07-4.25,0-6.34-.22-1.84-.14-2.48-.35-3.35-1.15-.37-.33-1.44-.68-1.48,1.44,0,1.73-.81,2.69-2.79,4.54-1.21,1.14-1.65,2-3.3,1.94-1.82-.07-1.1.68-1.27,2.3-.27,2.45-.18,5-.26,7.46-.13,3.62-.75.34-2.45,1.93-1.24,1.15,1.26,2.4-1.26,2.32-2.21-.08-6.28.58-8.27-.29-1.82-.81-3.54-5.45-2.12-7.18s2.31,1.81,2.43-1.91c0-.69-2.13-.66-2.61-.22-2,1.86-3.68,1.94-5.58,3.14a2.76,2.76,0,0,1-2.22-.17c-1.58-.66-2.73-.64-3.8-3.61-1.06,1.11-1.84,2.77-2.77,2.57s-1-2.6-3-1.35-3.52,2-4.93,1-3,1-3.47,2-1.3,2,.15,3,2.23,1.92,3.79,1.77,3.63-.21,4.15,1.66,1,3.16.67,3.78a3.32,3.32,0,0,1-.88,1,23.25,23.25,0,0,0,2,4c1.51,1.86.51,2.5,2.29,3.29,1.43.63,3.15-.79,4.79-.57s2.28,2.37,2,3.14c-.35,1,0,1.3,1.08,1.65a5.3,5.3,0,0,0,3.43-.36,2,2,0,0,1,2.93.21C654.37,432.69,654.88,431,655.4,433.38Z" transform="translate(-257.13 -82.83)"/><path class="cls-1" d="M723.58,483.81c-1.74-.07-2.34-.14-2.08-1.72.23-.67-.08-.67-1.3.05-1.78,1.06-4.46,2.3-5.71,1.35s1.52-2.31-1.11-2.4c-2.26-.08-.35-.91-1.1-2.42-.47-1-1.8-1.5-2.28-2.46-.75-1.5,1.17-2.32-1.11-2.4s-.36-.91-1.1-2.43c-.28-.59-2.09-2.62-2.54-2.2-1.22,1.13-2.18,1.57-2.24,3.23,0,1.35-.92,1.75-2.41,1.11-2.66-1.13-1.39-4.8-3.38-4.87s-6,.68-5.88-1.37c.08-2.26-.88-.41-2.32-1.26a7.93,7.93,0,0,1-1.78-1.86c-.21-.38-.78-.53-.62.14.43,1.86-1.11,1.59-3.08,1.52-2.43-.08-4.1.58-4-1.62.25-.78-.11-.78-.56-.59l-3.1,1.43c-1.12.66-1-.16-.93-.43.06-1.62-.8-2.28-2.08-3.65-.39-.41.84-1.43,1.65-2.09.5-.28.65-.59-.7-.5a8.12,8.12,0,0,1-3.63-.5c-.35-.34.05-2,.21-3.32.06-.47.36-1.4-.71-.6s-3.21,1.94-4,1.77-2.55-2.94-3.1-3.33-1.89-1-3.12-1.8a1.22,1.22,0,0,1-.51-1.65c.29-.86.86-1.23,1.74-2,.21-.18.73-.88-.62-.72s-1.15-.86-1.09-2.55c.07-2.32-.26-2.4,2.09-2.32.73,0,.46-2.74.49-3.53.07-1.83,1.16-1.15,2.78-1.1,1.16,0,6.8.82,8.23.52.89,1.39-.66,2.12,2.79,2.25.71,0,1.46.95,2.07,1.72.43.75.79.39.81-.38,0-1.32-.44-1.61-2-1.67-1.12,0-2-2.85-3.63-2.46-1.13-.31-1.54.21-3-1.33-.69-.74-3.1-.62-3.16-1.31-2.67,0-7.24-.81-7.24,1,0,1.41-3.08,1.58-3.79-1.71-.52-2.4-1-.69-1.79-1.51a2,2,0,0,0-2.93-.21,5.3,5.3,0,0,1-3.43.36c-1.13-.35-1.43-.65-1.08-1.65.28-.77-.35-2.93-2-3.14s-3.36,1.2-4.79.57c-1.78-.79-.78-1.43-2.29-3.29a23.25,23.25,0,0,1-2-4c-1.14-1.71-1.4-3-2.69-3.42s-1.87-1-3.43-.83-1.55.67-2.07,1.14a8.42,8.42,0,0,0-1.92,3.58c-.22,1.35-1.34,1.91-2.35,2.58s-2.69,1.69-2.25,2.81a6.31,6.31,0,0,1,.45,4.15c-.45,1.56.23,4.26,1.46,4.93s.9,2.24,1.23,2.91,1.8,1.57,2,2.36,1.68,2,1.68,3.36,1.24,1.46,1.24,2.69v4.94c0,1-.56,1.34-.56,2.24s.78.67.78,1.57a17.37,17.37,0,0,0,.68,4.37,4.8,4.8,0,0,1,2.67-.62l5.48.2c2.75.09,2.16-1.44,4.44-2.22,3.07-1.07,2.32,1.71,2.26,3.63-.09,2.41-.34,3.33,1.35,5.13,1.34,1.44.71,3.49.64,5.4,0,.56,0,1,0,1.43-.21,1.2-.27,1.91.72,1.51,2.36-.94,5.44-.16,8-.07,1.81.06,3.63,1.6,5.19,2.45,1.17.64,2.7.27,4,1,3.74,2,6.78,4.22,11.08,4.37,2.06.07,2.54,2.47,4.14,2.52s3.58.57,4.28,2.52c.28.8-.74,4.71.2,4.74,2.93.11,2,1.33,1.87,4.07,0,1,2.45.94,3.49,2.05a12,12,0,0,0,3.49,1.68c.26.86-.39,2.81-.93,4.76-.31,1.09-1.77,2.59-2.59,3.47s-3.52,2.27-3.57,3.71c0,1.67.06,2.15.72,2.92,1,1,1.85-.19,2.26-.9.49-.87,1-1.75,1.34-2.57.43-1,0-2,.64-2.64,2.29-2.13,3.91-8.27,6.87-9,1.12-.26,3.57.13,4.74.17,2.33.08,2.38-.29,2.3,2.09-.09,2.76,3.43,2.95,5.75,3,.57.11,1.56-.25.2-1.13-.41-.43-1.08-1.46-.24-2.27,1.79-1.73,3.35-3.63,5.9-3.54,5.43.19.54-2.43,3.09-4.81,1.68-1.58,2.25-1.83,2.33-4.11,0-1.17,2.36.78,2.44-1.46C723.86,486.57,724.31,483.83,723.58,483.81Z" transform="translate(-257.13 -82.83)"/><path class="cls-1" d="M622.4,462.6c.61.61,1.53,2.92,2.62,3.16.09-2.58-.78-4.38,2.16-4.28.91,0,1.5-1,2.14-1.58a17.37,17.37,0,0,1-.68-4.37c0-.9-.78-.68-.78-1.57s.56-1.24.56-2.24v-4.94c0-1.23-1.24-1.34-1.24-2.69s-1.45-2.58-1.68-3.36-1.68-1.68-2-2.36,0-2.24-1.23-2.91-1.91-3.37-1.46-4.93a6.31,6.31,0,0,0-.45-4.15c-.44-1.12,1.24-2.13,2.25-2.81s2.13-1.23,2.35-2.58a8.42,8.42,0,0,1,1.92-3.58c-1-.94-2.65-3.11-3.32-3.58s-1.77.15-2.7.88a3.25,3.25,0,0,1-2.28.88h-2.75c-.78,0-1.45-.83-1.45-2.12s1.09-2.34,1.09-4.78c0-1.21.95-6.07.95-6.07.14-3.09.23-1.05.23-3.05,0-2.95-.59-1.63-.59-1.63a27,27,0,0,1-5.67-1.9c-1.83-.84-2.09-1.37-4-1.37l-4.53-.77s-.17,17.42-.17,19,1,1.22,1,2.45,1.1,1.58,1.59,2.44.73,2.07,1.34,3,2.32,1.46,3.18,2.44,2.8,1.22,2.8,2v2.68c0,.73-1.46,1.71-1.83,2.81s-1.83,2.56-1.83,3.66-1,2.32-1,4.16h2.81c.86,0,1.1,1.09,2.2,1.09s1.1,2.2,1.1,3.18-1.1,1.1-1.1,2.2,1.1,1.71,1.1,2.93v2.68c0,.74-1.34.37-2.08,1.47s-.36,1.46.25,2.44,1,3,1.83,3.79,1.59,1.34,1.59,2.44,1,1.22,1.95,1.46a14.29,14.29,0,0,0,2.93.49C620.2,462.72,621.79,462,622.4,462.6Z" transform="translate(-257.13 -82.83)"/><path class="cls-1" d="M593.34,432.56a21.81,21.81,0,0,1,1,4.52c0,1.1.24,1.47,1.83,1.47h10.74c0-1.84,1-3.06,1-4.16s1.47-2.56,1.83-3.66c.43-1.27,2.32-2.38,1.72-3.13v-2c.66-1-1.72-1.17-2.69-2.28s-2.57-1.46-3.18-2.44-.85-2.2-1.34-3-1.59-1.22-1.59-2.44-1-.86-1-2.45.17-19,.17-19l-6.07-.72s-3.83-.49-4-.26a23.61,23.61,0,0,0-2.71,6.43c-.37,1.34-1.71,3.18-2.93,3.18h-3.06c-1,0-1.58,1.09-2.56,1.09s-1.59.74-2.32,1.1-1.71,1.47-1.22,2.57a4.69,4.69,0,0,1,.73,2.44v7.69s2.08.86,1.83,2,1,1.83,2.08,1.22,2.44,1.58,2.2,3.17,1,3.18,1.95,4a5.81,5.81,0,0,0,3.66,1.83A4.18,4.18,0,0,1,593.34,432.56Z" transform="translate(-257.13 -82.83)"/><path class="cls-1" d="M577.71,417.42h-3.66c-1,0-1.47,1.1-2.2,1.1s-1.22-1.58-2.2-1.34-1.71,1-2.32-.25-1.59-1.58-1.1-2.8a2.68,2.68,0,0,0-.48-2.93,2,2,0,0,1,.12-2.45c.49-.61.12-1.46-.25-2.32a10.81,10.81,0,0,1-1.1-2.93c-.12-1.09.86-1.46,1.59-2.8s-.12-2.94.25-4.28,1.71-2.81,1.58-4.27a8.31,8.31,0,0,1,.37-3.54c.37-1.22.24-2.08.73-3.05s1.05-2.42,1.05-2.42c.88.55,1.87-.77,2.75.22s.44,2.2,1.76,2.2h3c.66,0,1.76-1.43,2.31-2.64.23-.5,2-2.95,4-5.74,1.08-1.46,1.26-3.55,2.34-5,1.87-2.46,6.59-6.1,7-6.47,1.09-1,5-1.32,6.18-1.66.3-.09-2.81,2.08-4.17,3.87-1.13,1.48-1.27,1-2.49,2.89-.75,1.17-1.29,4.25-1.78,5.34s-2.26,2.63-2.55,3.57c-.44,1.45.31,3.23.23,4.31a15.79,15.79,0,0,0,.09,4.65l5.26,4.21c-1.46,3.05-4.43,4.5-4.95,6.43-.37,1.34-1.71,3.18-2.93,3.18h-3.06c-1,0-1.58,1.09-2.56,1.09s-1.59.74-2.32,1.1-1.71,1.47-1.22,2.57a4.69,4.69,0,0,1,.73,2.44Z" transform="translate(-257.13 -82.83)"/><path class="cls-1" d="M546.33,416.19h7.17c1.79,0,1.79-1,2.68-1.49s2.83.3,3.58.9,1.79,1.94,2.54,1a1.72,1.72,0,0,1,2.53,0c.6.6,1.46.44,2.5.29-.61-1.22-1.59-1.58-1.1-2.8a2.68,2.68,0,0,0-.48-2.93,2,2,0,0,1,.12-2.45c.49-.61.12-1.46-.25-2.32a10.81,10.81,0,0,1-1.1-2.93c-.12-1.09.86-1.46,1.59-2.8s-.12-2.94.25-4.28,1.71-2.81,1.58-4.27a8.31,8.31,0,0,1,.37-3.54,8.43,8.43,0,0,0-3,.73,31.52,31.52,0,0,1-6.86,1.5c-1.35,0-2.54,1.64-4.18,1.49s-4.63.74-6,.74-2.83,1.5-4,1.5-1.94,1.64-2.83,2.53-1.79.9-2.39,2.24.45,1.94.45,3.28.15,3.14.15,4.18.74,1.49,1.79,1.49,1,.75,1,2.39.15,2.39,1.64,2.39S546.33,414.4,546.33,416.19Z" transform="translate(-257.13 -82.83)"/><path class="cls-1" d="M511.72,409a9.14,9.14,0,0,1,1.94,4.51c.28,1.68,1.12,1.82,2.1,2.24S517,418,517,419.44s-.14,2.38,1,2.8a15.85,15.85,0,0,0,3.37.42c.84.14,2.38,0,2.94.84s2.66,1.82,2.52,3.22-1.12,2.11-.28,3.37,1.83,2.66.42,3.36c-.84.42-1,1-1,2.1a16.76,16.76,0,0,1-.14,2.11c.84,1,1.69,2.52.84,3.78s-.84,2,.14,2.52a2,2,0,0,1,1,1.63h0a1.42,1.42,0,0,0,1.79-1.34c.15-1.2,1.64-1.94,2.54-3.28a37.74,37.74,0,0,1,3.73-5.38c1.34-1.49.89-1.49,3-4.48a41.67,41.67,0,0,0,4-7.31c.9-1.93,1.05-3.43,1.49-4.17s1.94-.6,1.94-.6v-2.84c0-1.79-.74-3.12-2.24-3.12s-1.64-.75-1.64-2.39,0-2.39-1-2.39-1.79-.45-1.79-1.49-.15-2.83-.15-4.18-1.05-1.94-.45-3.28a10,10,0,0,0-2.65-.79c-1.34-.15-1.67-.9-4.07-.42-1.4.28-.84.42-2.38.14s-1.4-.42-2.25.42a4.58,4.58,0,0,1-1.63,1.1,11.44,11.44,0,0,1-2.09.75c-1.19.3-3.73,2.24-4.77,2.24H515c0,1.94-.6,3-1.2,3h-2.08V409Z" transform="translate(-257.13 -82.83)"/><path class="cls-1" d="M634.28,480.33a8.13,8.13,0,0,0-5.12,2.56c-1.25,1.16-1.82,2.11-3.49,2.52s-1.6-.23-1.71-.49c-1.09-2.66-4.19-5-4.07-8.29.06-1.64.47-1.17,2.06-1.11,1.09,0-.27,1.93.29,2.38s4.21.15,5.1.18c2.84.1,2.93-2.27.08-2.37-1.9-.07-3.69.19-2.66-2.47.52-1.34,4-2.46,2.54-4.67-.39-.59-2.4.64-2.36-.45,0-.79.06-1.57.08-2.36-1.09-.24-2-2.55-2.62-3.16s-2.2.12-2.93.12a14.29,14.29,0,0,1-2.93-.49c-1-.24-1.95-.36-1.95-1.46s-.74-1.71-1.59-2.44-1.22-2.81-1.83-3.79-1-1.34-.25-2.44,2.08-.73,2.08-1.47V448c0-1.22-1.1-1.83-1.1-2.93s1.1-1.23,1.1-2.2,0-3.18-1.1-3.18-1.34-1.09-2.2-1.09H596.15c-1.59,0-1.83-.37-1.83-1.47a21.81,21.81,0,0,0-1-4.52,4.18,4.18,0,0,0-3.91-2.93,5.81,5.81,0,0,1-3.66-1.83c-1-.85-2.2-2.44-1.95-4s-1.1-3.78-2.2-3.17-2.32-.13-2.08-1.22-1.83-2-1.83-2h-3.66c-1,0-1.47,1.1-2.2,1.1s-1.22-1.58-2.2-1.34-1.71,1-2.32-.25c-1,.15-1.9.31-2.5-.29a1.72,1.72,0,0,0-2.53,0c-.75.9-1.79-.45-2.54-1s-2.68-1.34-3.58-.9-.89,1.49-2.68,1.49h-7.17V419s-1.49-.15-1.94.6-.59,2.24-1.49,4.17a41.67,41.67,0,0,1-4,7.31c-2.09,3-1.64,3-3,4.48h10.29v-2.54a4.45,4.45,0,0,0,3.14-1c1.19-1.19,3.13-3.28,3.88-1.94s1.19,2.54,1.79,3,.44,2.84,1.49,3.44.15,2.53,2.09,3a7.94,7.94,0,0,1,4.18,2.39c.74.89,2.68,3,3.43,3.73s1,1.94,3,2.39,1.49,1.49,2.69,2.68,2.38.6,2.68,1.79.6,3,1.79,3.28,1.2,2.24,2.39,3.29,3.28,2.08,3.88,3.43,3.13,1.64,3.28,3.43a3.8,3.8,0,0,0,2.54,3.28c1,.3,1.64,2.24,2.83,2.39s1.2,3.88,1.2,5.07,1.19,1.64,1.19,2.69-.64,1.8-.89,3.13a9.58,9.58,0,0,0,.67,6.3c1.41-.63.83-2.78,1-3.61a19.86,19.86,0,0,1,2.68-6.87c.36-.88,2.09-1.64,3-.44a29.38,29.38,0,0,0,2.24,3.26c1.08,1.15.14,2.6,1,3.51,1.79,1.91,1.94,2.05,2,4.56,0,.83-.62,4.09-.16,4.74.28.39,2.09-.31,2.37.08s-.07,1.88-.08,2.37c-.12,3.47-.2,1.2-2.46,2.3s-1.54,2.43-4.24,2.33c-.54,0-1.65,1-2.55,1.46-2.47,1-2.42,1.95,1.2.67a102.41,102.41,0,0,0,20-9.52,53.84,53.84,0,0,0,8.16-6.86c2-1.88,4-4.72,6.55-5.67C635.26,480.74,635.51,480.17,634.28,480.33Z" transform="translate(-257.13 -82.83)"/><path class="cls-1" d="M592.74,482.44c.25-1.33.89-2.09.89-3.13s-1.19-1.49-1.19-2.69,0-4.92-1.2-5.07-1.79-2.09-2.83-2.39a3.8,3.8,0,0,1-2.54-3.28c-.15-1.79-2.68-2.09-3.28-3.43s-2.69-2.39-3.88-3.43-1.19-3-2.39-3.29-1.49-2.09-1.79-3.28-1.49-.6-2.68-1.79-.75-2.24-2.69-2.68-2.24-1.65-3-2.39-2.69-2.84-3.43-3.73a7.94,7.94,0,0,0-4.18-2.39c-1.94-.45-1.05-2.39-2.09-3s-.9-3-1.49-3.44-1-1.64-1.79-3-2.69.75-3.88,1.94a4.45,4.45,0,0,1-3.14,1v2.54H535.89a37.74,37.74,0,0,0-3.73,5.38c-.9,1.34-2.39,2.08-2.54,3.28a1.42,1.42,0,0,1-1.79,1.34,5.91,5.91,0,0,0-3.43,1.34c-.9.75-3.28,2.24-4.63,1.65a2.27,2.27,0,0,0-3,.59c-.9.9-1.94,1.79-1.94,2.69s.15,1.79-1.34,1.79-2.69.45-2.69,1.49a35.5,35.5,0,0,1-.89,4.59,3.19,3.19,0,0,1,2.34.94c1.38,1.46,1.49,1.58,1.42,3.57,0,.94,1.73.09,2.34.44,3.38,2,1.6,3.76.15,6.4-.76,1.39-1.52.11-2.76.65-.79.35-1.63,1.52-2.27,2.12-1,1-.07,4.91-3.09,4.81-2.15-.08-1.71-.29-1.93-2.08-.28-2.27-2.72-1.6-1.41.57s3.62,3.88,5.44,5.81c.85.91,1.74.26,2.85.59a22.77,22.77,0,0,1,3.93,2.15c1.21.66,1.83,2.29,3,2.84.94.44,2.95.1,4,.14,2.23.07,3.82,2.51,6,2.58,4.51.16,12.12-1.07,15.28,2.3,1.59,1.69,1.49,5.41,4,5.49,1.9.07,3.6,2.35,5,4,.27.32.82,1.46.64-.15-.1-.88.26-1.31,1.39-1.27,2.53.09,0-1.17,1.26-2.33s2.3,1.42,2.39-1.1c.06-1.63.48-1.16,2-1.11l7.11.25c1.13,0-.31-2.39.82-2.35s2,.55,2-.67c.07-1.84-.66-6.4,1.41-6.32,1,0,5.9.52,5.93-.17,0-1.33.09-2.66.14-4,0-1.13-2.37.3-2.33-.82.11-3.14,2.55-1,2.59-3.3-.38-1.3.69-.15,1.07.26s1,2.28,1-.11c-.07-3.4,4.17,1.46,5.24,1.5,4,.14.48,3.33,2.64,5.65.63.69,2.28,2.38,3.84,1.68A9.58,9.58,0,0,1,592.74,482.44Z" transform="translate(-257.13 -82.83)"/><path class="cls-1" d="M526.83,444c-1-.56-1-1.26-.14-2.52s0-2.8-.84-3.78-2-2.53-3.08-2.53-2.94.28-3.93-.56a5.33,5.33,0,0,0-3.22-1.54,7.86,7.86,0,0,1-4.2-1.12,10,10,0,0,0-5.61-1.54,9,9,0,0,1-4.77-1c-1-.56-.7-2.81-.28-4.21s1-2.66,0-3.64a10,10,0,0,1-2.24-3.79,5,5,0,0,0-2.24-2.94,11.5,11.5,0,0,1-4.35-4h-3c-3.73,0-4.18.75-6.87.75s-3.13.59-4.47,1.79-1.94,2.54-3.13,4.47-2.24,4.63-4,5.67-3.58,2.69-5.08,3.44-2.68,3.43-4,4a24.94,24.94,0,0,0-5.74,4.66c.29,1.32,1,2.14,2.39.82a22.61,22.61,0,0,1,6.86-4.24c1.35-.62,13.52-.57,14.43.41.48.5-.06,6.93-.5,7.34-1.23,1.12-2.17,1.55-2.23,3.21-.07,1.83.69,1.08,2.32,1.27.58.07,7.1.05,7.08.46-.11,3.36-.31,4.22,1.64,6.43.15.18.67.57,0,1.06a6.78,6.78,0,0,0-2,2.94c-.25.72,0,1.29,1,.77,2.74-1.08,5.32-1.52,7.56-3.11.36-.25,1.08-1.14,1,.73-.09,2,2,3.22,4.27,3.3,2.81.09,4.15.87,6.65,2.24,1.23.67,2.64.4,3.94.47a35.5,35.5,0,0,0,.89-4.59c0-1,1.19-1.49,2.69-1.49s1.34-.9,1.34-1.79,1-1.79,1.94-2.69a2.27,2.27,0,0,1,3-.59c1.35.59,3.73-.9,4.63-1.65a5.91,5.91,0,0,1,3.43-1.34h0A2,2,0,0,0,526.83,444Z" transform="translate(-257.13 -82.83)"/><path class="cls-1" d="M421.24,355.64H386.6a2.51,2.51,0,0,0,.73,2.07c1,1.21,1.7,1.82,1.7,2.55v3.16a3.09,3.09,0,0,1-1.7,2.31c-1,.48-.85,1.21-.6,2.06a3.52,3.52,0,0,1,.24,2.44c-.37.72-1,1.33-.49,1.94s.37,1,.37,1.82v7.29c0,1,0,1.58,1,2.07s3,.73,2.31,2.07-1.58,1.82-1.58,3-.61,1.83-1.34,2.8-.36,1.7-.36,2.43a9.64,9.64,0,0,0,1.09,2.67,10.5,10.5,0,0,1,3.65-.72c.73,0,1-1.58,2.06-1.22a6.45,6.45,0,0,1,3.28,2.43,3.22,3.22,0,0,0,2.68,1.58,4.4,4.4,0,0,1,3,1.22c.73.85,2.44,2.3,3.77,1.33s3-.85,4-1.94,1.22-2.31,2.19-2.68a4.31,4.31,0,0,0,2.07-2.55c.24-.85,1.21-.73,1.94-1.58s1.34-.6,2.07-1.21,2.55-1.95,2.55-2.92v-3.4c0-.85,1.21-1.95,2.31-2.07a2.47,2.47,0,0,0,2.06-1.46c.37-.72,1.82-.6,2.31-.85s-.24-2.06.24-2.79a5,5,0,0,1,1.95-1.95c1.09-.6.36-.72,1.21-1.33s0-2.43,0-2.43h-1.7V369.5c0-.73-1.46-.85-1.46-1.95V359.9h-6.92Z" transform="translate(-257.13 -82.83)"/><path class="cls-1" d="M431.32,374.24c-.65.81-.12.73-1.21,1.33a5,5,0,0,0-1.95,1.95c-.48.73.25,2.55-.24,2.79s-1.94.13-2.31.85a2.47,2.47,0,0,1-2.06,1.46c-1.1.12-2.31,1.22-2.31,2.07v3.4c0,1-1.83,2.31-2.55,2.92h6.73c1,0,1.41,1.09,3.11,1.09s1.46,1.34,3,1.34,3.28.36,4.13-.37,1.58,0,1.33,1.1-.66,3,0,3.64,2.68,1,3.53,1.7,2.06,1.95,3.52,1.95a10.71,10.71,0,0,1,3.28.73,19.58,19.58,0,0,1,1.34-4.26c.61-1.7.49-2.91,1.46-4a10.52,10.52,0,0,0,2.43-5.1c.12-1.7-.49-2.55-1.34-2.43a9.58,9.58,0,0,0-3.28,1.09,1.32,1.32,0,0,1-2.06-1,2.13,2.13,0,0,1,.85-2.43c.85-.61,1.58-.61,1.94-1.7s-.12-1.7-1-1.82a1.39,1.39,0,0,1-.85-2.19c.61-1.09,2.06-.49,1.7-1.82a14.31,14.31,0,0,0-1.34-3.65c-.61-1,0-1.34.61-2.19s.49-2.67-.24-3-1.58-1.34-2.8-1-2.91,1.1-3.76.73-1.58-1.21-2.8-.48a4.86,4.86,0,0,0-1.94,3,5.79,5.79,0,0,1-2.56,2.79A6.76,6.76,0,0,0,431.32,374.24Z" transform="translate(-257.13 -82.83)"/><path class="cls-1" d="M444.57,446.67a4.24,4.24,0,0,0,.1-1,10.24,10.24,0,0,0-1.08-.1l-7.46-.26c-3.49-.12-3-2.11-3.95-5.38-.92-3.11-.53-4.16,1.81-6.35,1.91-1.79,4.76-3,7-4.37s4.44-1.84,6.3-3.47a8.6,8.6,0,0,0-.15-3.14c-.49-1.45-1.21-2.06-1.21-3.88a35.08,35.08,0,0,0-.49-5.23c-.24-1.58-1.22-3.4-.73-5s1.58-2.43,2.19-3.77a5.39,5.39,0,0,0,.48-2.55,10.71,10.71,0,0,0-3.28-.73c-1.46,0-2.67-1.22-3.52-1.95s-2.86-1-3.53-1.7-.24-2.55,0-3.64-.48-1.83-1.33-1.1-2.55.37-4.13.37-1.34-1.34-3-1.34-2.07-1.09-3.11-1.09h-6.73c-.73.61-1.34.36-2.07,1.21s-1.7.73-1.94,1.58a4.31,4.31,0,0,1-2.07,2.55c-1,.37-1.22,1.58-2.19,2.68s-2.67,1-4,1.94-3-.48-3.77-1.33a4.4,4.4,0,0,0-3-1.22,3.22,3.22,0,0,1-2.68-1.58,6.45,6.45,0,0,0-3.28-2.43c-1.09-.36-1.33,1.22-2.06,1.22a10.5,10.5,0,0,0-3.65.72,35,35,0,0,1-4.13,1.95c-1.76.72-4.13,2.55-6,3.64h9.6v48.8c4.85.17,9.87-.09,14.64.76,5.78,1,11.62,2.53,17.5,2.73,2.8.1,5.07-2.49,7.74-3.71,2.13-1,4.14-.61,6.47-.53,1.75.06,5.86-.5,7.33.56l.09.06a9.61,9.61,0,0,1,1.16-.79A5.26,5.26,0,0,0,444.57,446.67Z" transform="translate(-257.13 -82.83)"/><path class="cls-1" d="M418.26,303.64s.09,2.27.09,3.15,1.57,2.18,2.27,2.79a3.74,3.74,0,0,1,1.4,2.71v4h2.27v5.94c0,1.13,1.75,1.05,2.45,1.57a2.63,2.63,0,0,1,1.22,2.45v7.86c0,1.39-1.31,2.18-1.84,2.79a4.3,4.3,0,0,0-1,2.8c0,1.22-.87,1.13-.87,1.92v4.28h-4.45v3.32H405.42a4.74,4.74,0,0,0-2.53.61c-.87.53-.87,1.75-.87,2.62s-.27,1.14-1,1.57-.63,1.6-.63,1.6H386.6v-.85a4.68,4.68,0,0,1,.52-1.25c.35-.57,0-1.42.21-2.12a3.36,3.36,0,0,1,1.63-1.84c.78-.43.92-1.35,1.49-2.06s.21-1.41-.43-2-.92-1.77-.92-3.4V310.84h8.64c1,0,1-.91,1.83-1.26s.79-.87.79-1.48-.79-.7-.79-1.66.7-1.4,1.57-1.49,1.31-1.05,2.88-1.48,2.36-1.23,2.36-2,1.05-1.22,2.36-1.22a5.18,5.18,0,0,1,3.76,1.66c.7,1,1.22,1.74,2.18,1.74Z" transform="translate(-257.13 -82.83)"/><path class="cls-1" d="M445.93,366.72c0-1-.15-3.42.63-3.77s1.31,0,1.84.88a1.69,1.69,0,0,0,2.44.43,9.84,9.84,0,0,1,3.24-1.39c1.13-.18,2.88-.61,3.75-.27s2.1,1.66,3.76,1.66h10.22c1.66,0,1.4-.35.09-1.74s-1.84-1.23-1.84-2.1v-2.18h-2.27v-1.75c0-.79-1.75-1-1.75-1.84s.09-1.66.88-1.66h1.74v-2.7c0-.7-1.74-1.31-2.09-2.62s-.88-2.1-.35-3.15,1-1.83.7-2.79.26-1.66.61-2.45,0-1.75,0-2.45,1.13-1.13,1.13-2.27v-3.49c0-1-1-.52-1.22-1.83s-1.31-1.31-1.31-2.28-.44-1.74-.44-2.62.09-2.88-.78-2.88-2,.35-2.62-.52a2.25,2.25,0,0,1,.09-2.54c.43-.87-1-1.22-1.49-2l-25.07.08c-.7,0-.87-.61-1.48-.61s-.79.44-1.66.44h-8.39v5.94c0,1.13,1.75,1.05,2.45,1.57a2.63,2.63,0,0,1,1.22,2.45v7.86c0,1.39-1.31,2.18-1.84,2.79a4.3,4.3,0,0,0-1,2.8c0,1.22-.87,1.13-.87,1.92v4.28h-4.45v3.32H405.42a4.74,4.74,0,0,0-2.53.61c-.87.53-.87,1.75-.87,2.62s-.27,1.14-1,1.57-.63,1.6-.63,1.6h20.9v4.26h6.92v7.65c0,1.1,1.46,1.22,1.46,1.95v2.31h1.7s.85,1.82,0,2.43a6.76,6.76,0,0,1,2.43-1.46,5.79,5.79,0,0,0,2.56-2.79,4.86,4.86,0,0,1,1.94-3c1.22-.73,1.94.12,2.8.48s2.55-.36,3.76-.73A1.84,1.84,0,0,1,445.93,366.72Z" transform="translate(-257.13 -82.83)"/><path class="cls-1" d="M457.82,458.77c1.37,1.46,1.49,1.57,3.47,1.64,3.09.11,5.15-.8,5.27-4.17,0-1,2.27-2.78,3.78-4,2.15-1.89-.66-.83-1-1.21s1.05-3.12-1.14-1.27c-1.91,1.61-2.13.68-4.33-1.71-1.44-1.56-1.56-1.82-3.67-1.9-1.05,0,.28-2.35-.49-2.38l-8.09-.28c-2.26-.08-.42.87-1.26,2.32a8,8,0,0,1-1.8,1.89.59.59,0,0,1-1.06,0,3.62,3.62,0,0,0-2.8-2,4.24,4.24,0,0,1-.1,1,5.26,5.26,0,0,1-2.19,3.15,9.61,9.61,0,0,0-1.16.79c1.56,1.17,4.79,4.54,6.61,4.61,1.17,0,3.5-.36,4.53.16s1.36,2,2.29,2.45C456,458.54,456.63,457.51,457.82,458.77Z" transform="translate(-257.13 -82.83)"/><path class="cls-1" d="M503.06,409.94c2.24,0,4-.9,5.52-.9h3.14v-3.28h2.08c.6,0,1.2-1,1.2-3-1,0-2.09.29-2.84-.75s-1.19-2.39-2.68-2.39H492.62c-1.64,0-2.69,3-4.48,3h-6.56c-1.79,0-1.35-1.49-2.54-3s-2.39-1.79-2.68-3.28-1.8-1.34-4-1.94-4.63-1.2-6.12-.15-.3,2.53-1.94,3.13-1.94,3.58-4,3.58-2.24-1.49-4.48-1.49-3.58-1.49-4.62-1.49-2.44-.07-2.44-.07a19.58,19.58,0,0,0-1.34,4.26,5.39,5.39,0,0,1-.48,2.55c-.61,1.34-1.7,2.19-2.19,3.77s.49,3.4.73,5a35.08,35.08,0,0,1,.49,5.23c0,1.82.72,2.43,1.21,3.88a8.6,8.6,0,0,1,.15,3.14l.2-.17c1.28-1.2,1.45-1.14,3.23-1.08.93,0,2-1.5,2.64-2.11a1.45,1.45,0,0,1,2.51,1.1c-.09,2.63,1.41-.1,2.33,1.27,1.32,2-2.17,5.43-2.62,7a10.13,10.13,0,0,0,0,3.84,24.94,24.94,0,0,1,5.74-4.66c1.34-.59,2.53-3.28,4-4s3.29-2.39,5.08-3.44,2.83-3.73,4-5.67,1.79-3.28,3.13-4.47,1.79-1.79,4.47-1.79,3.14-.75,6.87-.75h8.65C499.18,410.83,500.82,409.94,503.06,409.94Z" transform="translate(-257.13 -82.83)"/><path class="cls-1" d="M448.7,397.93c.61-1.7.49-2.91,1.46-4a10.52,10.52,0,0,0,2.43-5.1c.12-1.7-.49-2.55-1.34-2.43a9.58,9.58,0,0,0-3.28,1.09,1.32,1.32,0,0,1-2.06-1,2.13,2.13,0,0,1,.85-2.43c.85-.61,1.58-.61,1.94-1.7s-.12-1.7-1-1.82a1.39,1.39,0,0,1-.85-2.19c.61-1.09,2.06-.49,1.7-1.82a14.31,14.31,0,0,0-1.34-3.65c-.61-1,0-1.34.61-2.19s.49-2.67-.24-3-1.68-1-1.68-1c0-1-.15-3.42.63-3.77s1.31,0,1.84.88a1.69,1.69,0,0,0,2.44.43,9.84,9.84,0,0,1,3.24-1.39c1.13-.18,2.88-.61,3.75-.27s2.1,1.66,3.76,1.66h10.22c1.66,0,1.4-.35.09-1.74s-1.84-1.23-1.84-2.1v-2.18h-2.27v-1.75c0-.79-1.75-1-1.75-1.84s.09-1.66.88-1.66H471a4.84,4.84,0,0,0,2.53,2.64c1,.29,1.49,1.49,2.39,2.38s2.09,2.39,2.09,3.73v3.73c0,.9-1.2.9-1.2,1.64s1.35,1.35,1.35,2.09-.3,2.84.74,4,2.24,2.24,2.69,3.58,1,3.43,2.68,3.43,2.69,1.05,4.48,1.05,2.68.15,2.68,1.49a5.77,5.77,0,0,0,.9,3.58c.89,1.64-.3,3.43.15,4.78a4.08,4.08,0,0,1,0,3c-.3,1.19.15,1.64,1.79,1.34s3.58-.74,5.07-.3,2.84,3,2.84,4.48h-9.55c-1.64,0-2.69,3-4.48,3h-6.56c-1.79,0-1.35-1.49-2.54-3s-2.39-1.79-2.69-3.28-1.79-1.34-4-1.94-4.63-1.2-6.12-.15-.3,2.53-1.94,3.13-1.94,3.58-4,3.58-2.24-1.49-4.48-1.49-3.58-1.49-4.62-1.49S448.7,397.93,448.7,397.93Z" transform="translate(-257.13 -82.83)"/><path class="cls-1" d="M525.85,437.66a16.76,16.76,0,0,0,.14-2.11c0-1.12.14-1.68,1-2.1,1.41-.7.42-2.1-.42-3.36s.14-2,.28-3.37-2-2.38-2.52-3.22-2.1-.7-2.94-.84a15.85,15.85,0,0,1-3.37-.42c-1.12-.42-1-1.4-1-2.8s-.28-3.23-1.26-3.65-1.82-.56-2.1-2.24a9.14,9.14,0,0,0-1.94-4.51h-3.14c-1.49,0-3.28.9-5.52.9s-3.88.89-5.52.89h-5.61a11.5,11.5,0,0,0,4.35,4,5,5,0,0,1,2.24,2.94,10,10,0,0,0,2.24,3.79c1,1,.42,2.24,0,3.64s-.7,3.65.28,4.21a9,9,0,0,0,4.77,1,10,10,0,0,1,5.61,1.54,7.86,7.86,0,0,0,4.2,1.12,5.33,5.33,0,0,1,3.22,1.54c1,.84,2.81.56,3.93.56S525,436.67,525.85,437.66Z" transform="translate(-257.13 -82.83)"/><path class="cls-1" d="M406.51,129.83v-2.52c0-1-1.2-.33-1.2-1.2s1.09-.22,1.09-1.1v-4.6h-9.63v-5.47h-2.63c-1.31,0-.66-.22-2-2-1.6-2.14-5.25-2.63-5.25-2.63H368.31v4.38c0,1.53-2.41,2.85-3.29,4.16s0,4.82.22,6.35-1.09,2-1.75,3.72v14.51h23.39v-3.1c0-1.05.24-1.54,1.08-1.54h17.66V138c0-.75.89-.75.89-1.81Z" transform="translate(-257.13 -82.83)"/><path class="cls-1" d="M320.05,201.24c.69,1.73.82,2.78,2.12,2.88a7.13,7.13,0,0,0,2.87-.28c.83-.27,1.39,1.86,2.22.93a4.26,4.26,0,0,1,3.62-1.85V195.5h9.82c1.2,0-.83-1.29-1.3-1.94s-1.3-.84-1.3-2.32.56-1.67,1.3-2.41.37-1.3.37-2.13-.83-.65-1.39-1.48a2.35,2.35,0,0,1-.46-2.23,7,7,0,0,0,.18-2.41,4.47,4.47,0,0,0-1.76-2.5c-.92-.74-.92-.83-.92-1.57h22.79v3.24c0,1.21.93.65,2,1.76a2.61,2.61,0,0,1,.84,3.15c-.37,1.49.46,2,1,2.78a3.42,3.42,0,0,1,.92,2.78c0,1.76-.46,1.58-1.11,2.88s.83.92.65,2.31.83,1,1.3,2.41-.65,1.67-1.58,2.69-.65,2-.65,2.87v3.43c0,1.3-.18,2.69-1.29,1.85a2.23,2.23,0,0,0-3.16,0c-1.11.93.56,1.12.1,2s.28,1.12.28,2.69-.1,2.69-1.12,3.52a3.55,3.55,0,0,0-1.29,3.24c0,1.58-.05,3.11.55,3.71s.37,1-.18,2-.19,1.85.65,1.85h2.22c.74,0,.65,1.3,1.11,1.3h1.39v3c0,.92.28,1.48.93,1.48h2.22c.65,0,.84.28,1.39,1.48s1.11,1.39,2,1.39h3.71c.92,0,1.57,1.3,1.94,2.5s1.21,1.77,2.32,3.06,2.27,1.32,3.15,3.06a13.93,13.93,0,0,1-2.87,2.22c-1.3.65-2.78,1.39-3.06,2.41s-2,2.23-3,2.69-2.5,1.11-3,2.23a7.11,7.11,0,0,1-3.34,3.24,6.46,6.46,0,0,0-2.87,2.32c-.83,1-2.22.27-3.06,1.11s-.68,1.56-.88,2.44c-1.1-.37-1.82,0-3-1.34s-4.25-1.55-6.93-1.55h-16V242.54h-8.83V231.61c0-.84-1-.7-1-1.68s1-.7,1-1.54V223.2H312V204.26c0-1.21.69-1.72.86-2.76s1.56-2,1.81-1.21,1.08.7,1.82,1a8.22,8.22,0,0,0,3.54,0" transform="translate(-257.13 -82.83)"/><path class="cls-1" d="M321.77,231.61c0-.84-1-.7-1-1.68s1-.7,1-1.54V223.2H312V209.62H272.5c0,.5,0,1,0,1.59-.07,1.92,2.13,2.91,3.49,4,1.08.86,1.74,3.2.74,4a1.13,1.13,0,0,0,.07,2,2.76,2.76,0,0,1,1.13,2.52c0,1.09,2-.13,2.35.45s.11,2.4-.45,2.38c-2.94-.1-2.06,1.72-2.15,4.3-.07,2-.27,2.68-1.11,3.61-.69.67-1.1,1.29-.16,1.32,1.59,0,1,1.79,1,3.71-.06,1.62.39,1.19,2,1.24,1.09,0-.27,1.94.28,2.39.82.67,4.79.17,5.93.21,1.48,0,1.38,1.62,1.19,3.15-.12,1.3-.81,1.76-1.52,1.72-1.4.16-1.81.83-.57,1.82.89.7,2.13.77,3.84.53.69-.1.24,3.59.21,4.37,0,1.09,1.92-.13,2.34.46.3.42-.15,1.8-.09,2.36a16.78,16.78,0,0,1,.5,3.53c-.08,1.53-.72,2.92-.76,4-.08,2.25.41,2.5,2,4.19.61.64,2.63-.22,2.6.71,0,.73-.55,3.82-.16,4.37,1,1.36,2.43-1.34,2.34,1.26-.1,2.77,0,3.54,1.54,5.32.65.8.57.17.57-.48.17-1.35,1.37-1.39,2.79-1.25,0-1.07.15-5,.34-6.66a2.72,2.72,0,0,1,2.81-2.52h6.87a6.16,6.16,0,0,1,1.68-3.09c1.12-1.12,1.82-4.06,2.38-5.18s1.54-1.13,3.36-1.13h10.8V242.54h-8.83Z" transform="translate(-257.13 -82.83)"/><path class="cls-1" d="M369.23,300.71c0-1.46-1-2.07-1-3.53V275.07a3.47,3.47,0,0,0-1.7-3,6.55,6.55,0,0,1-2.43-3.77c-.12-1.09-1.09-2.91-2.91-2.91s-3.53-1.34-4.62-1.7-1.82,0-3-1.34-4.25-1.55-6.93-1.55H319.8c-1.82,0-2.8,0-3.36,1.13s-1.26,4.06-2.38,5.18a6.16,6.16,0,0,0-1.68,3.09h-6.87a2.72,2.72,0,0,0-2.81,2.52c-.19,1.61-.34,5.59-.34,6.66.5.05,1,.13,1.56.17a.44.44,0,0,1,.34.69c-.43.91-.8,2-1.47,2.32-1.33.65-.09,2.44,1,3.71a.52.52,0,0,1-.55.77c-2.66-.32-2,4.3-.41,4.36,2.74.09,1,5.22,1,5.93-.06,1.91-.79.91-2.41,1.1s-2.34-.8-2.41,1.1c0,.85-.29,3.56.24,3.58,1.73.06,4.4-.67,4.33,1.34-.08,2.45.64,3.57-2.12,3.48-1,0,.18,2.31-1.69,2.41-.3,0-.68.35-.06,1.2a5.26,5.26,0,0,1,1,2.45c.8-.24,1.51-.46,1.89-.6a5.12,5.12,0,0,1,4,.73,4,4,0,0,0,3.89.36c1.34-.73,2.31-1.82,4.62-1.82s22.12-.25,23.82-.25,1.34.86,2.55.86h4.25c1.22,0,1.1-.86,2.19-.86h6.68v1.1h14.59v-1.82c0-1.1-1.1-2.31-1.1-3.29V304C368.13,302.65,369.23,302.17,369.23,300.71Z" transform="translate(-257.13 -82.83)"/><path class="cls-1" d="M415.29,177.36h-4.52c-1,0-1.89-1.05-2.83-1.05s-1.06,1.05-1.79,1.05h-3.47c-2.1,0-2.63-.85-6.94-.85H358.21v3.24c0,1.21.93.65,2,1.76a2.61,2.61,0,0,1,.84,3.15c-.37,1.49.46,2,1,2.78a3.42,3.42,0,0,1,.92,2.78c0,1.76-.46,1.58-1.11,2.88s.83.92.65,2.31.83,1,1.3,2.41-.65,1.67-1.58,2.69-.65,2-.65,2.87v3.43c0,1.3-.18,2.69-1.29,1.85a2.23,2.23,0,0,0-3.16,0c-1.11.93.56,1.12.1,2s.28,1.12.28,2.69-.1,2.69-1.12,3.52a3.55,3.55,0,0,0-1.29,3.24c0,1.58-.05,3.11.55,3.71h29.15c1.34,0,2.49-.19,2.49-1.53v-6.74c0-1,1.15-1.15,2.3-1.15s20.33.77,21.09,0a9.5,9.5,0,0,0,1.92-2.11c1-1.8,1.73-2.3,1-3.64s.77-1.53,1-2.49a31.58,31.58,0,0,0,.77-3.65c0-.76-.06-2.1-.06-2.1Z" transform="translate(-257.13 -82.83)"/><path class="cls-1" d="M410.74,214.44a3.87,3.87,0,0,0,.6,1.94,9.35,9.35,0,0,1,1.37,2.78c.6,1.64-1.34,2.53-2.08,3.72s.3,1.79,1.19,2.68.15,1.2-.15,2.24-1.34,1.94-.89,2.83.74,1.64,0,2.09-1.64.3-1.2,1.49a3,3,0,0,0,2.69,1.94c1,0,3-.15,3.13.89s1.79,1.64,1.34,2.83.15,2.24,1.49,2.84.74,1.93.15,3.27,1.94,1.49,3,1.05a2.67,2.67,0,0,1,3,.89,14.48,14.48,0,0,1-2.53,1.49c-1.35.6-2.84,1.49-4.47,1.34s-3,1.35-4.63,1.35-2.68,1.34-5.06,1.34-8.95,2.38-10.29,2.23-4.17.75-5.81,1.34-3.73,1.34-4.77.9-2.09.59-4.62.15-.15-1.2-.74-1.64-1.49-1.2-.6-1.64,1-2.39.3-2.39-1.94-.29-2.09-1.19.18-2.4,1.19-2.68c1.64-.45,1.79-2.39.45-1.79s-1.43-.55-2.07-1.74c-1-1.83-2-1.76-3.15-3.06s-1.95-1.85-2.32-3.06-1-2.5-1.94-2.5h-3.71c-.93,0-1.48-.18-2-1.39s-.74-1.48-1.39-1.48h-2.22c-.65,0-.93-.56-.93-1.48v-3h-1.39c-.46,0-.37-1.3-1.11-1.3h-2.22c-.84,0-1.21-.83-.65-1.85s.78-1.44.18-2h29.15c1.34,0,2.49-.19,2.49-1.53v-6.74c0-1,1.15-1.15,2.3-1.15S410,215.21,410.74,214.44Z" transform="translate(-257.13 -82.83)"/><path class="cls-1" d="M415.29,200.45h28.44v13.9c0,.92-.83.5-.83,1.55V265c-1.43-1.44-2.28-1.87-3-1.23s-.67,1.31-1.65,1.55a1.2,1.2,0,0,1-1.46-.82c-.29-.89.28-1.83-.27-2.56a3.94,3.94,0,0,0-2.74-1.55c-1.19-.1-.73-.83-1.56-1.83s-2.28-1.46-2.28-2.92V250.8c0-1.09-.55-1.82-1.55-1.82s-1.56,1-2.29.45a6.07,6.07,0,0,1-1.75-1.51,2.37,2.37,0,0,0-3-.89c-1,.44-3.58.3-3-1.05s1.19-2.68-.15-3.27-1.94-1.64-1.49-2.84-1.19-1.79-1.34-2.83-2.09-.89-3.13-.89a3,3,0,0,1-2.69-1.94c-.44-1.19.45-1,1.2-1.49s.44-1.19,0-2.09.59-1.79.89-2.83,1-1.34.15-2.24-1.94-1.49-1.19-2.68,2.68-2.08,2.08-3.72a9.35,9.35,0,0,0-1.37-2.78,3.87,3.87,0,0,1-.6-1.94,9.5,9.5,0,0,0,1.92-2.11c1-1.8,1.73-2.3,1-3.64s.77-1.53,1-2.49a31.42,31.42,0,0,0,.76-3.65C415.34,201.79,415.29,200.45,415.29,200.45Z" transform="translate(-257.13 -82.83)"/><path class="cls-1" d="M459,272.68c-.07-1,.84-1.4,1.54-2.11s.56-2-.42-1.68a3.13,3.13,0,0,1-3.22-1.4c-1-1.26-.84-4.06-.7-5.33s1.54-1.82,2.24-2.52,1.4-.84,2-.14,1.83.56,3.23.42,1.12-1.54.42-2.24-3.09-.28-4.07-.28-2-1.12-2.52-2.1,0-2.25-.7-3.09-1-1.54-.42-2,.56-1.68,1.12-2.8,2.1-1.12,2.24,0a6.82,6.82,0,0,0,1.4,3.08c.7,1,0,2.66,1.13,2.66s1.54-.84,2.38,0,2.1.84,3.5.56,1.26-1.54,1.12-2.52-1.54-1-2.66-1a7.12,7.12,0,0,1-3.92-.84c-1.41-.84-.85-2,.14-2.38a3.81,3.81,0,0,0,2-2.67c.14-1-1-2.1-2.1-2.52S461,240,460,239s-.42-1.69.42-2.39a3.35,3.35,0,0,0,1-2.66c0-.84.42-1.54,1.83-2.52s2.24-.84,2.66.28.28,2.1,1.4,2.66,2.1-1,2.95-1.68a3.05,3.05,0,0,0,.56-3.22c-.42-.85-1-1.55-.14-2.53s.84-2.94.84-3.64.56-1.26,1.26-2.1,2.1.28,3.08.84,2.25-.28,3.23-.84,1.26-1.83,2-2.39,1.68.7,2,1.68.7,1,1.82,1.83,2.25-1.69,1.19-2.86c-.45-1-1.27-1.32-1.46-2.27s-1.58-1.71-1.83-2.21.63-1.26.63-1.9v-3.79a3,3,0,0,0-.57-2c-.44-.5.07-1.7.76-2.59h-2.1V196h-3.82c-.86,0-.58,1.43-1.44,2.29s-1.14,2.11-2.19,2.39-1.34,1.63-2.11,2.58a4.75,4.75,0,0,1-3.53,1.82,6.9,6.9,0,0,0-3.73,1.05c-.77.58-.86-1.15-1.53-1.34s-.57-1.24-.57-1.81,0-1.63-1.15-1.63-1.53-.86-2.49-1.24-.38-2.49-1.43-2.49a4.07,4.07,0,0,1-2.58-1.52l-2.12.52v3.84h-9v13.9c0,.92-.83.5-.83,1.55V265c.78.75,2.17,2.67.89,3s-1.92,1.07-1.17,1.82,2,1.06,2.13,2.13.43,1.92-.32,2.13-.53,1.18.21,1.39,2,.43,2.67-.32,1.6-1.49,1.6-.75-.11,2.24.75,1.82a1.32,1.32,0,0,0,.64-2,4.29,4.29,0,0,1-.86-2.77,3.17,3.17,0,0,1,1.28-2.24,2.09,2.09,0,0,1,2.67-.22c.85.75,1.92,0,2.56.86s.32,1.81,1.28,2.13A14.13,14.13,0,0,1,459,272.68Z" transform="translate(-257.13 -82.83)"/><path class="cls-1" d="M424.34,247.92a14.48,14.48,0,0,1-2.53,1.49c-1.35.6-2.84,1.49-4.47,1.34s-3,1.35-4.63,1.35-2.68,1.34-5.06,1.34-8.95,2.38-10.29,2.23-4.17.75-5.81,1.34-3.73,1.34-4.77.9-2.09.59-4.62.15-.15-1.2-.74-1.64-1.49-1.2-.6-1.64,1-2.39.3-2.39-1.94-.29-2.09-1.19.18-2.4,1.19-2.68c1.64-.45,1.79-2.39.45-1.79s-1.43-.55-2.07-1.74a13.93,13.93,0,0,1-2.87,2.22c-1.3.65-2.78,1.39-3.06,2.41s-2,2.23-3,2.69-2.5,1.11-3,2.23a7.11,7.11,0,0,1-3.34,3.24,6.46,6.46,0,0,0-2.87,2.32c-.83,1-2.22.27-3.06,1.11s-.68,1.56-.88,2.44c1.09.36,2.79,1.7,4.62,1.7s2.79,1.82,2.91,2.91a6.55,6.55,0,0,0,2.43,3.77,3.47,3.47,0,0,1,1.7,3v22.11c0,1.46,1,2.07,1,3.53s-1.1,1.94-1.1,3.28v4.37c0,1,1.1,2.19,1.1,3.29h8c1,0,1.85-.81,3.4-.81h17.07c1,0,1-.91,1.83-1.26s.79-.87.79-1.48-.79-.7-.79-1.66.7-1.4,1.57-1.49,1.31-1.05,2.88-1.48,2.36-1.23,2.36-2,1.05-1.22,2.36-1.22a5.18,5.18,0,0,1,3.76,1.66c.7,1,1.22,1.74,2.18,1.74h8.65c1.13,0,1.75.61,1.31-1.74s-1-3.76-1-5.42v-6.2c0-1.49-.87-1.84-.87-3.06s1-1.4,1-2.27-.78-.53-.78-2V267c0-1.22.35-1.83,1.05-2.09s1.13.43,2.09.09,1.57-.27,1.75.52.26,2,1.22,2H432c.7,0,.87-.88,1.83-1.14s1.22-1.31,2-1.31a1.5,1.5,0,0,0,1-.52c-.29-.89.28-1.83-.27-2.56a3.94,3.94,0,0,0-2.74-1.55c-1.19-.1-.73-.83-1.56-1.83s-2.28-1.46-2.28-2.92V250.8c0-1.09-.55-1.82-1.55-1.82s-1.56,1-2.29.45A6.07,6.07,0,0,1,424.34,247.92Z" transform="translate(-257.13 -82.83)"/><path class="cls-1" d="M418.26,303.64s.09,2.27.09,3.15,1.57,2.18,2.27,2.79a3.74,3.74,0,0,1,1.4,2.71v4h10.66c.87,0,1-.44,1.66-.44s.78.61,1.48.61l25.07-.08c-.52-.79.09-1.58,1.05-1.93s.61-1,.61-1.74v-5.07c0-.87-1.05-1.05-1.05-1.92v-2.88c0-.62.79-1.14,1.84-1.14s1.92-1.14,2.44-2.27,1.4-.61,2.1-1.57,1.22-3.06,2.33-4.18c.7-1-.28-2,.7-3.5s-.42-2.1-.84-3.23a4,4,0,0,1,1.82-4.2,2.77,2.77,0,0,0,1.26-3.5,1.73,1.73,0,0,0-2.66-.71c-1.13.7-2-.42-2.53-1.12a3,3,0,0,0-3.08-1,3.81,3.81,0,0,1-3.79-1.82c-.84-1.26-2-1.3-2.1-2a14.13,14.13,0,0,0-1.76-.73c-1-.32-.64-1.28-1.28-2.13s-1.71-.11-2.56-.86a2.09,2.09,0,0,0-2.67.22,3.17,3.17,0,0,0-1.28,2.24,4.29,4.29,0,0,0,.86,2.77,1.32,1.32,0,0,1-.64,2c-.86.42-.75-1.07-.75-1.82s-1,0-1.6.75-1.92.53-2.67.32-1-1.17-.21-1.39.43-1.06.32-2.13-1.38-1.39-2.13-2.13-.11-1.5,1.17-1.82-.11-2.24-.89-3c-1.43-1.44-2.28-1.87-3-1.23s-.67,1.31-1.65,1.55a1.2,1.2,0,0,1-1.46-.82,1.5,1.5,0,0,1-1,.52c-.79,0-1.05,1.05-2,1.31s-1.13,1.14-1.83,1.14h-2.8c-1,0-1.05-1.22-1.22-2s-.79-.87-1.75-.52-1.4-.35-2.09-.09-1.05.87-1.05,2.09v16c0,1.48.78,1.14.78,2s-1,1.05-1,2.27.87,1.57.87,3.06v6.2c0,1.66.52,3.06,1,5.42s-.18,1.74-1.31,1.74Z" transform="translate(-257.13 -82.83)"/><path class="cls-1" d="M481.58,297.6c1.05-1.38,0-2.28,1.67-3.85,1.38-1.29-.1-1.84-1.25-3.09-.69-.75-1.81-2.61-2.83-2.64-4.69-.17-.05-4.66.62-7.08a21.26,21.26,0,0,0,.15-4.38c0-1.17-2.39.61-2.31-1.63.09-2.57-2.38.13-2.29-2.45.06-1.79,1-1.15,2.61-1.1,3.93.14,5.54-.3,9.13-1.95.56-.26.34-3.75.36-4.46,0-1.17-2.37.6-2.3-1.63s-2.35-.47-2.3-1.64c0-.49,0-1,.05-1.48a3,3,0,0,0-.5-1.05c-1.34-1.41-2.9-3.15-1.06-4.87s4.24-3.08,4.12.39c-.06,1.67.05,5.11,2.54,5.2,2.15.08,2,.22,2.07-1.93,0-.49,1-.5,1.7-.41.27,0,.67.08.13-.48-1-1-1.92-2-2.88-3.07-1.49-1.6-.34-1.81-1.06-3.61-.53-1.32-2.3-1.63-2.24-3.19l.15-4.36c.09-2.44.14-1.81,2.42-1.9,1.44-.05,2.93.1,4.37.15,3.23.12,3-4.89,3-5.82,0-.57-.89-.29-1.24-.07-1.42.89-4.86,2.16-6.18.74-2.56-2.75-2.69-3.63-.36-5.93.65-.7,1.17-.36,1.14-.18-.5,2.69.89.5,2.17,1.88.66.72,2.7,2.67,3.5,2.53,1-.17.95-.37,1.06-.62s-.3-1.64.26-2.16,2.1-1.48,2.2-2c.26-1.55-2.25-3.51-2.19-5.19a4.38,4.38,0,0,1,2.52-4.28c.63-.31,2.35.67,2.38-.28a.49.49,0,0,1,.05-.18H486c1.06,1.17-.12,3.65-1.19,2.86s-1.54-.84-1.82-1.83-1.26-2.24-2-1.68-1,1.82-2,2.39-2.25,1.4-3.23.84-2.38-1.69-3.08-.84-1.26,1.4-1.26,2.1,0,2.66-.84,3.64-.28,1.68.14,2.53a3.05,3.05,0,0,1-.56,3.22c-.85.7-1.83,2.24-2.95,1.68s-1-1.54-1.4-2.66-1.26-1.26-2.66-.28-1.83,1.68-1.83,2.52a3.35,3.35,0,0,1-1,2.66c-.84.7-1.4,1.41-.42,2.39s1.54,2.38,2.67,2.8,2.24,1.54,2.1,2.52a3.81,3.81,0,0,1-2,2.67c-1,.42-1.55,1.54-.14,2.38a7.12,7.12,0,0,0,3.92.84c1.12,0,2.52,0,2.66,1s.28,2.24-1.12,2.52-2.66.28-3.5-.56-1.26,0-2.38,0-.43-1.68-1.13-2.66a6.82,6.82,0,0,1-1.4-3.08c-.14-1.12-1.68-1.12-2.24,0s-.56,2.38-1.12,2.8-.28,1.12.42,2,.14,2.11.7,3.09,1.54,2.1,2.52,2.1,3.37-.42,4.07.28,1,2.1-.42,2.24-2.67.28-3.23-.42-1.26-.56-2,.14-2.1,1.26-2.24,2.52-.28,4.07.7,5.33a3.13,3.13,0,0,0,3.22,1.4c1-.28,1.12,1,.42,1.68s-1.61,1.12-1.54,2.11c.05.66,1.26.7,2.1,2a3.81,3.81,0,0,0,3.79,1.82,3,3,0,0,1,3.08,1c.56.7,1.4,1.82,2.53,1.12a1.73,1.73,0,0,1,2.66.71,2.77,2.77,0,0,1-1.26,3.5,4,4,0,0,0-1.82,4.2c.42,1.13,1.82,1.69.84,3.23s0,2.52-.7,3.5,1,2.31,1.82,2.24c1.82-.14,2.35-2.05,3.36-.84a3.73,3.73,0,0,1,1.12,3.09c-.28,1.12-.44,1.72.25,1.6C477.94,299.26,480.82,298.6,481.58,297.6Z" transform="translate(-257.13 -82.83)"/><path class="cls-1" d="M317.54,196.06a19,19,0,0,0-4.05-1.9,4.21,4.21,0,0,1-2.68-2.5c-.52-1.47-1.9-.86-2.33-2.16s.09-2.5-1-3.36a11,11,0,0,1-2.67-2.59c-.52-.87-2-1.47-1.13-2.59s2.25-1.56,1.82-2.59-.95-1.13-.95-2v-2.5a2,2,0,0,0-1.21-1.82c-.6-.17-3.63-.34-4.4-1.38-1.14-1.51-2.62-1.92-2.62-3.63v-3.29a11.85,11.85,0,0,0-2.85-2.41c-1.09-.43-.65-2.84-2.18-2.84s-3.51.43-4.82-.66-2.41-2.41-4.16-2.19-3.28,1.1-3.5,2.19a5.4,5.4,0,0,1-2.63,3.28,4.83,4.83,0,0,0-2.63,3.73c-.22,1.75-2.63,3.5-4.38,4.59s-3.06,2.19-3.94,2.19h-6.77q-.27,8-.56,16c-.1,2.9-1.31,4.91,1.83,5,1.13,0-.48,2.34.66,2.38,2.15.08,1,0,.95,2.14,0,1.17,2.4-.61,2.32,1.64-.09,2.54,1.16,0,2.32,1.27s-1.43,2.31,1.1,2.4c.62,0-.43,1.81.49,1.78a2.73,2.73,0,0,1,2.24,2c0,.43-.21.85,0,1s.79,0,1.38,0c1,.19,1.3,1.16,1.38,2.36H312v-5.36c0-1.21.69-1.72.86-2.76s1.56-2,1.81-1.21,1.08.7,1.82,1a8.22,8.22,0,0,0,3.54,0C319.36,199.52,318.75,197,317.54,196.06Z" transform="translate(-257.13 -82.83)"/><path class="cls-1" d="M309,166.39c-.88-.66-2-.44-2-1.53s-.88-2.63-2.19-2.63-2,0-1.75-1.1.65-2.84-.66-2.84a2,2,0,0,1-2.19-1.75c-.22-1.1-.22-1.54-2-1.75s-2-.88-2-2-1.09-2-1.75-1.32-3.07,0-2.41-1.31-.22-2.19-1.53-2.19-1.1-1.75-.22-2.85-1.1-3.94-1.31-4.81a3.91,3.91,0,0,0-3.29-3.07c-2.41-.44-1.09-2.84-2.41-3.94s1.1-1.53,1.76-2.63-2-1.53-1.54-3.5a3.77,3.77,0,0,0-2-3.94c-.87-.44.88-1.53,0-2.41s-1.09-2.41-1.09-4.16-.22-2.84-2-1.75-1.32-.88-.44-2,2-2,2.41-3.5,0-2.63-1.32-2-1.75-.44,0-2,1.1-3.29.88-4.6-1.09-2.19-2.19-3.5.22-3.73,1.1-4.82-1.32-2.19-2.63-2.41.44-1.75,1.31-2,1.32-.87.22-2a2.69,2.69,0,0,1-.66-2.23c-6,0-12-.22-18.1-.44.05.42.11.83.16,1.25.68,5.18,1.8,10.42,1.62,15.65l-.66,18.7q-.56,15.84-1.1,31.7-.37,10.38-.73,20.75h6.77c.88,0,2.19-1.09,3.94-2.19s4.16-2.84,4.38-4.59a4.83,4.83,0,0,1,2.63-3.73,5.4,5.4,0,0,0,2.63-3.28c.22-1.09,1.75-2,3.5-2.19s2.85,1.1,4.16,2.19,3.28.66,4.82.66,1.09,2.41,2.18,2.84a11.85,11.85,0,0,1,2.85,2.41v3.29h13.57Z" transform="translate(-257.13 -82.83)"/><path class="cls-1" d="M311.82,139.9c0-.88-.65-2.85-.65-4.6s.87-3.06.87-5.25V110.56h-2.4a4.39,4.39,0,0,1,0-3.06,4.89,4.89,0,0,0,.87-2.85c0-1.31-1.31-2.63,0-3.5s.44-1.32-.44-2.85S307,95.68,308.76,95s.66-1.75-1.31-2.85-2.85-1.53-3.07-3.5.66-2.41.88-3.94c0-.3.06-.82.08-1.45-4.57,0-9.15.18-13.8.44-4.8.27-9.56.34-14.31.31a2.69,2.69,0,0,0,.66,2.23c1.1,1.1.66,1.75-.22,2s-2.63,1.75-1.31,2,3.5,1.32,2.63,2.41-2.19,3.5-1.1,4.82,2,2.19,2.19,3.5.88,3.06-.88,4.6-1.31,2.62,0,2,1.76.44,1.32,2-1.53,2.41-2.41,3.5-1.31,3.07.44,2,2,0,2,1.75.22,3.29,1.09,4.16-.87,2,0,2.41a3.77,3.77,0,0,1,2,3.94c-.44,2,2.19,2.41,1.54,3.5s-3.07,1.54-1.76,2.63,0,3.5,2.41,3.94a3.91,3.91,0,0,1,3.29,3.07c.21.87,2.18,3.72,1.31,4.81s-1.1,2.85.22,2.85,2.19.87,1.53,2.19,1.75,2,2.41,1.31,1.75.22,1.75,1.32.22,1.75,2,2,1.75.65,2,1.75a2,2,0,0,0,2.19,1.75c1.31,0,.88,1.75.66,2.84s.43,1.1,1.75,1.1,2.19,1.53,2.19,2.63,1.09.87,2,1.53l.87.66.66.65h5v-3.94c0-.87-1.76-2-2.19-3.06s1.09-2.19,1.31-3.51,1.75-2.4,1.1-3.72-3.07-2-2.41-2.84,1.31-1.75,2.19-1.1,2.4.22,2.4-1.53h-6.13Z" transform="translate(-257.13 -82.83)"/><path class="cls-1" d="M326.47,83.58c-7.14-.25-14.12-.38-21.13-.3,0,.63,0,1.15-.08,1.45-.22,1.53-1.1,2-.88,3.94s1.1,2.41,3.07,3.5,3.06,2.19,1.31,2.85.44,1.75,1.31,3.28,1.75,2,.44,2.85,0,2.19,0,3.5a4.89,4.89,0,0,1-.87,2.85,4.39,4.39,0,0,0,0,3.06H312v19.49c0,2.19-.87,3.5-.87,5.25s.65,3.72.65,4.6V148h19.27v-4.16h7.66v-2.19a26.17,26.17,0,0,0-1.53-4.38,18.62,18.62,0,0,1-.88-5.47V121.51c0-1.31-1.31-1.31-1.31-2.85v-3.94h-4.38v-31Z" transform="translate(-257.13 -82.83)"/><path class="cls-1" d="M330.65,83.74v31H335v3.94c0,1.54,1.31,1.54,1.31,2.85V129h27.15c.66-1.75,2-2.19,1.75-3.72s-1.09-5-.22-6.35,3.29-2.63,3.29-4.16v-4.38h9.41v-3.06c0-1.1-.87-1.53-.87-2.41s1.75-.66,1.75-1.75V85.3C362.62,85.18,346.62,84.34,330.65,83.74Z" transform="translate(-257.13 -82.83)"/><path class="cls-1" d="M332.92,167.7H310.51l-.66-.65H296.28c0,1.71,1.48,2.12,2.62,3.63.77,1,3.8,1.21,4.4,1.38a2,2,0,0,1,1.21,1.82v2.5c0,.86.52,1,.95,2s-.95,1.46-1.82,2.59.61,1.72,1.13,2.59a11,11,0,0,0,2.67,2.59c1.13.86.61,2.07,1,3.36s1.81.69,2.33,2.16a4.21,4.21,0,0,0,2.68,2.5,19,19,0,0,1,4.05,1.9c1.21.95,1.82,3.46,2.51,5.18s.82,2.78,2.12,2.88a7.13,7.13,0,0,0,2.87-.28c.83-.27,1.39,1.86,2.22.93a4.26,4.26,0,0,1,3.62-1.85V195.5h9.82c1.2,0-.83-1.29-1.3-1.94s-1.3-.84-1.3-2.32.56-1.67,1.3-2.41.37-1.3.37-2.13-.83-.65-1.39-1.48a2.35,2.35,0,0,1-.46-2.23,7,7,0,0,0,.18-2.41,4.47,4.47,0,0,0-1.76-2.5c-.92-.74-.92-.83-.92-1.57a4.48,4.48,0,0,0-.93-2.69c-.74-1-1.57-1-1.57-2Z" transform="translate(-257.13 -82.83)"/><path class="cls-1" d="M369,176.51a7,7,0,0,1,1.26-2.09,2.69,2.69,0,0,0,.95-2.31c-.21-.63-.74-1.05-.11-1.48s1.26-.84,1.26-1.78,1-1.89,1-3V151.4c0-.84-.74-1.48-.74-2.32v-5.62h-9.12V129H336.34v2.85a18.62,18.62,0,0,0,.88,5.47,26.17,26.17,0,0,1,1.53,4.38v2.19h-7.66V148H318c0,1.75-1.53,2.19-2.4,1.53s-1.54.22-2.19,1.1,1.75,1.53,2.41,2.84-.88,2.41-1.1,3.72-1.75,2.41-1.31,3.51,2.19,2.19,2.19,3.06v3.94h17.37v4.08c0,1,.83,1,1.57,2a4.48,4.48,0,0,1,.93,2.69H369Z" transform="translate(-257.13 -82.83)"/></svg>