<svg id="base_map" data-name="base map" xmlns="http://www.w3.org/2000/svg" viewBox="0 0 143.09 88.91"><defs><style>.cls-1{fill:#015067;stroke:#fff;stroke-width:0.84px;}.cls-2{fill:none;}</style></defs><path class="cls-1" d="M309,166.39c-.88-.66-2-.44-2-1.53s-.88-2.63-2.19-2.63-2,0-1.75-1.1.65-2.84-.66-2.84a2,2,0,0,1-2.19-1.75c-.22-1.1-.22-1.54-2-1.75s-2-.88-2-2-1.09-2-1.75-1.32-3.07,0-2.41-1.31-.22-2.19-1.53-2.19-1.1-1.75-.22-2.85-1.1-3.94-1.31-4.81a3.91,3.91,0,0,0-3.29-3.07c-2.41-.44-1.09-2.84-2.41-3.94s1.1-1.53,1.76-2.63-2-1.53-1.54-3.5a3.77,3.77,0,0,0-2-3.94c-.87-.44.88-1.53,0-2.41s-1.09-2.41-1.09-4.16-.22-2.84-2-1.75-1.32-.88-.44-2,2-2,2.41-3.5,0-2.63-1.32-2-1.75-.44,0-2,1.1-3.29.88-4.6-1.09-2.19-2.19-3.5.22-3.73,1.1-4.82-1.32-2.19-2.63-2.41.44-1.75,1.31-2,1.32-.87.22-2a2.69,2.69,0,0,1-.66-2.23c-6,0-12-.22-18.1-.44.05.42.11.83.16,1.25.68,5.18,1.8,10.42,1.62,15.65l-.66,18.7q-.56,15.84-1.1,31.7-.37,10.38-.73,20.75h6.77c.88,0,2.19-1.09,3.94-2.19s4.16-2.84,4.38-4.59a4.83,4.83,0,0,1,2.63-3.73,5.4,5.4,0,0,0,2.63-3.28c.22-1.09,1.75-2,3.5-2.19s2.85,1.1,4.16,2.19,3.28.66,4.82.66,1.09,2.41,2.18,2.84a11.85,11.85,0,0,1,2.85,2.41v3.29h13.57Z" transform="translate(-168.03 -83.16)"/><rect class="cls-2" y="0.1" width="18.83" height="32.37"/></svg>