<svg id="base_map" data-name="base map" xmlns="http://www.w3.org/2000/svg" viewBox="0 0 472.45 437.66"><defs><style>.cls-1{fill:none;stroke:#fff200;stroke-linecap:round;stroke-linejoin:round;stroke-width:6px;}</style></defs><path class="cls-1" d="M713.25,342.22v-1.09h-6.69c-1.09,0-1,.85-2.19.85h-4.25c-1.21,0-.85-.85-2.55-.85s-21.51.24-23.82.24-3.28,1.1-4.62,1.83a4,4,0,0,1-3.89-.37,5.17,5.17,0,0,0-4-.73c-.38.14-1.09.36-1.89.61a26,26,0,0,1,0,4.56c-.09,2.58-2.35-.28-2.44,2.29,0,.79.23,3.56-.5,3.54-4.18-.15-1.39,4-1.53,7-.07,1.42-2,3.06-6.23,6.38-1.37,1.07-.44,3.38-.46,4.09a4,4,0,0,1-2.13,2.55c-1.92.31-1.56,1.08-2.33,2.23-1.36.51-.45,1.25-.06,1.55.62.46,0,1.83,1.55,1.88,1.8.07,1.62,2,0,2.35-2,.13.35,1.46.82,3a10.07,10.07,0,0,1,0,3c-.06,1.62-.46,1.16-2,1.11-1,0,.08,1.87-.45,2.36s-2.34-.77-2.38.29c0,.47,0,.94-.05,1.42" transform="translate(-613.15 -109.01)"/><path class="cls-1" d="M641.15,392.29l-.06,1.76c0,1.19-.08,2.37-.13,3.56a4.35,4.35,0,0,0-.05,1.63c.19,1.13,1,1.83,2,2.86a1.14,1.14,0,0,0,.9.34l1.38.05c.72,0,.27,2.77.24,3.56-.06,1.7.41,4.09-.31,5.26-.15.25-.49.62-.41.66a.93.93,0,0,1,.49.52,3.15,3.15,0,0,1-.06,1.84c0,.8-.06,1.59-.08,2.39l1.65,1.76c.21.22-.17.52-.48.52-2.12.05-1.19,2.66-1.42,4.8-.15,1.34.17,1.81-.73,2-.57.1-.57.41.15.57s.58,1.14.26,1.74a7.77,7.77,0,0,1-.48.78" transform="translate(-613.15 -109.01)"/><path class="cls-1" d="M644,428.87a29.86,29.86,0,0,1-4.43,4.42c-2.84,2.64-4.69,3.65-4.83,7.62-.15,4.16-5.22,10.81-9.5,10.66-.73,0-.47,2.74-.49,3.54-.06,1.54.59,1.86,1.65,3,.83.91-.07,2.36.51,3,.79.87,2-.63,2.72.83,1.18,2.59,2.26,6,5.29,3.16l3.71-3.45c.53-.5,1.91.08,2.62-.07l9.3-2c1.89-.4,3.92.34,5.85-.07,5.48-1.18,10.23-2.57,15.73-1,2.71.78,6,2.91,8.18.86,1.83-1.73,3.86-1.06,6.33-1,5.12.18,10-.23,14.75,1.86,4.94,2.18,9.82,5,14.85,6.89q8.43,3.17,16.87,6.3a25.2,25.2,0,0,1,6.23,3.67c2.58,1.85,3.5,2.22,6.63,2.33h.12V430.7" transform="translate(-613.15 -109.01)"/><path class="cls-1" d="M736.46,430.7c1.82-1.1,4.19-2.93,5.95-3.65a36.28,36.28,0,0,0,4.13-1.94,9.69,9.69,0,0,1-1.09-2.68c0-.73-.37-1.45.36-2.43s1.34-1.58,1.34-2.79.85-1.7,1.58-3-1.34-1.58-2.31-2.07-1-1.09-1-2.06v-7.29c0-.85.12-1.22-.37-1.83s.12-1.21.49-1.94a3.5,3.5,0,0,0-.24-2.43c-.25-.85-.37-1.58.6-2.07a3.09,3.09,0,0,0,1.71-2.31V389c0-.72-.73-1.33-1.71-2.55a2.49,2.49,0,0,1-.73-2.06v-.85" transform="translate(-613.15 -109.01)"/><path class="cls-1" d="M713.25,342.22h14.58V340.4h8c1,0,1.85-.81,3.4-.81h8.43v31.23c0,1.63.28,2.77.92,3.4s1,1.35.43,2.06-.71,1.63-1.49,2.05a3.36,3.36,0,0,0-1.63,1.84c-.21.71.14,1.56-.21,2.12a4.68,4.68,0,0,0-.52,1.26" transform="translate(-613.15 -109.01)"/><path class="cls-1" d="M883.93,159.57c.43-.56,2.33.81,2.37-.28,0-.61-.3-2,.44-2,2.77.09,2-1,2.14-3.47,0-1.37-.69-2.09-1.58-3-.54-.53-.83-.74-.76.82.12,3-1.09,5.55-5.27,5.4-1.73-.06-4.41.68-4.34-1.33.06-1.57.11-3.14.17-4.72.09-2.57,2.37.31,2.49-3.09,0-.8,4.34-2.69,5.15-2.66,1.58.06,2,.52,2-1.11,0-.89.29-1.1-.48-1.39l-6-2.23c-2.22-.83-2.18.66-2.07-2.27,0-1.57.78-3.15.83-4.72.09-2.64.32-3,2.28-4.78,1-.9,2.55-.07,3.86-1.3,1.55-1.44,3.37-7.19,1.8-8.89a31.21,31.21,0,0,1-2-4.18c-.5-1.08-1.83-.88-3.57.74-.29.88.37,1.19,1.07,1.75s-2.63,1-1.23,2.94c1.59,2.22,1.24,1.8-.71,3.63-.68.64-2.83.15-3.8.12-1.76-.06-1.12-.8-1.1-2.42,0-2.13.12-2.39,1.66-3.84.62-.58,1.67-2.24.94-3.15s-8.35-.21-9.49-.25l-1.07,0V114" transform="translate(-613.15 -109.01)"/><path class="cls-1" d="M887.33,206.35l.52.62c.41.44,1.5.55,1.53-.18.06-1.71,1-4.32-1-4.39-1.72-.06-2.34-1.23-2.8-.89s-.2,1.36,1.37,3C887.75,205.43,887,205.92,887.33,206.35Z" transform="translate(-613.15 -109.01)"/><path class="cls-1" d="M880.64,197.45c1.34.13,2,.06,2-2,0-.56,1.47-.63,1.93-.35.31.19.78,1.24,1.07.87,1-1.24,4.17-1.42,4.22-.24s-.65,4-.29,4.35c1.08,1.15,2.38-.11,2.41-1.11.09-2.63.19-5.26.28-7.89.05-1.63-.55-2.77,1.28-2.71,1.09,0,1.38.46,1.32,1.27,0,.32.22.75.47.55,1.7-1.43,4.19-3.2,4.26-5.16.1-2.82.25-3.57,2-5.29.3-.34.69-.9,0-.94-1.18-.07-1.74.18-1.78,1.49-.06,1.54-.72,1.81-1.87,2.88s-4.54.46-6.24.4c-2.51-.09-1.4-3-1.32-5.18s-.08-2,2.07-1.93c.74,0,.43-1.69.45-2.33.14-4-2.33-2.4-4.46-.4-1,1-4.95.12-5.8-.79-1.87-2-3.8-3.22-3.7-6a4.22,4.22,0,0,1,2.52-3.52c.68-.39,2.54,1.18,3.79,2.54,1.78,1.93-.54,3.17,2.73,3.29,1.89.06,3.62.44,2.8-2.27s-3-1.69-4.65-2.54c-1.18-.6-3.3-3.36-2.19-4.83" transform="translate(-613.15 -109.01)"/><path class="cls-1" d="M796.53,113.69l-52.38.38q-3.48,0-6.95,0v17.81c0,1.1-1.75.88-1.75,1.75s.87,1.32.87,2.41v3.07" transform="translate(-613.15 -109.01)"/><path class="cls-1" d="M852.75,113.46l-3.14-.1c-11.7-.41-23.49.1-35.21.2l-17.87.13" transform="translate(-613.15 -109.01)"/><path class="cls-1" d="M867.72,114v-.09c-4.5-.15-10.17-.3-15-.45" transform="translate(-613.15 -109.01)"/><path class="cls-1" d="M842.1,233.48c-.69.88-1.2,2.08-.76,2.59a3,3,0,0,1,.57,2v3.79c0,.63-.88,1.39-.63,1.89s1.64,1.27,1.83,2.21,1,1.27,1.46,2.28h15a3.52,3.52,0,0,0,.56-1.4c0-.56-.54-1.07-.5-1.61.17-2.3.19-4.61.25-6.92a1.1,1.1,0,0,1,.74-1,17.44,17.44,0,0,0,3.63-2.24c.28-.2.47-.08.45.15-.14,1.22-.49,3.69-.12,4.21,1.05,1.49,2.38-.39,2.28,2.45,0,1.2,4.2-1.07.4-4.48-1.87-1.67,1.07-1.57,1.83-2.56s2.18-4,2.65-4.38c1.78-1.65,2.57,1.34,2.69-2.16a9,9,0,0,1,5-7.32c1.68-.75,3.76.51,4.81-2.19s-.5-2.26-2.27-2.47c-.86-.1-4.76.29-4.73-.53s-.18-4.37.52-4.34c3.4.12.55,2.38,3.11,2.47,1.64.06,3.51.88,3.57-1.06s2.48-2.28,2.53-3.83c0-.45.3-1.57.06-1.78l-.58-.47a10.65,10.65,0,0,0-1.8.15c-1.62.06-3.3-.11-4.93-.17-1.8-.06-4.58.77-4.5-1.33.1-3-.58-8.32,3.85-8.17.61,0,1.14.09,1.59.13" transform="translate(-613.15 -109.01)"/><path class="cls-1" d="M731.21,172.21v5.63c0,.84.74,1.47.74,2.31v14.4c0,1.16-1,2.11-1,3s-.63,1.37-1.26,1.79-.1.84.11,1.47a2.68,2.68,0,0,1-1,2.31,7.09,7.09,0,0,0-1.26,2.09h26.7c4.31,0,4.84.86,6.94.86h3.47c.73,0,.84-1.05,1.79-1.05s1.78,1.05,2.83,1.05h4.53" transform="translate(-613.15 -109.01)"/><path class="cls-1" d="M842.1,233.48H840v-8.74h-3.82c-.86,0-.58,1.44-1.44,2.3s-1.14,2.1-2.19,2.39-1.34,1.62-2.11,2.58a4.77,4.77,0,0,1-3.53,1.81,6.82,6.82,0,0,0-3.73,1.06c-.77.57-.86-1.15-1.53-1.34s-.57-1.24-.57-1.82,0-1.62-1.15-1.62-1.53-.86-2.49-1.25-.38-2.48-1.43-2.48a4,4,0,0,1-2.58-1.53" transform="translate(-613.15 -109.01)"/><path class="cls-1" d="M773.9,206.12V229.2h37.42v-3.83l2.11-.53" transform="translate(-613.15 -109.01)"/><path class="cls-1" d="M878,327.59c-14.21.35-28.45.62-42.64,1-.69.11-.53-.49-.25-1.61a3.71,3.71,0,0,0-1.12-3.08c-1-1.22-1.54.7-3.36.84-.84.06-2.52-1.26-1.82-2.24-1.11,1.11-1.63,3.21-2.33,4.17" transform="translate(-613.15 -109.01)"/><path class="cls-1" d="M908.56,359.08a2.57,2.57,0,0,1,0-1.9c.42-.94-.94-.73-.84-1.68s1.47-1.47,1-2.63a4.94,4.94,0,0,1,0-3.25,4.69,4.69,0,0,0-.42-3.26c-.52-1.37.63-1.69-.21-2.63s-.63-1.47-.21-2.63,0-1.47-.52-2.63-.95-2.73-.42-3.78,2-2.42,1.89-4.1a10.42,10.42,0,0,1,.77-4l-7.18.24c-8.14.3-16.3.52-24.47.73" transform="translate(-613.15 -109.01)"/><path class="cls-1" d="M902.74,366.16c-.22,1-1,1.32-1.86,1.76s0,1.76-1.1,2.42-2.2.44-2.75,1.21-2.09,1.76-1.21,2.53,1.54,3.4.55,4.5.33,1.76.33,3v3.85c0,1-1.76,1.65-.77,2.64a4.06,4.06,0,0,1,1.21,3.85c-.44,1.21.88,1,2,2.52s3.73,1.87,4.17,2.75.66.77,1.21,1,2.2.11,2.86,1.1,2.86,1.32,3.19,3.41.66,2.86,1.65,3.08a2.52,2.52,0,0,1,2.2,2.09,3.65,3.65,0,0,0,2.86,2.41c1,.22.33,2.09,1.31,2.42s1.76.77,1.54,1.87A1.73,1.73,0,0,0,922,416.4c.88-.11,1.54-.77,1.87-2.09a5.59,5.59,0,0,1,2-3.08c1.54-1.21,1.69-.07,2.86.66.88.55,1.87-.77,2.75.22s.44,2.2,1.76,2.2h3c.66,0,1.76-1.43,2.31-2.64a12.91,12.91,0,0,1,1.81-2.68,31.45,31.45,0,0,1,2.07-2.85c.84-1,1.14-3.1,2.07-4.67l3.75-3.9" transform="translate(-613.15 -109.01)"/><path class="cls-1" d="M934,326.17h-.07c-7.95,0-16.15.19-24.25.45a10.42,10.42,0,0,0-.77,4c.1,1.68-1.37,3.05-1.89,4.1s-.11,2.63.42,3.78.94,1.47.52,2.63-.63,1.68.21,2.63-.31,1.26.21,2.63a4.69,4.69,0,0,1,.42,3.26,4.94,4.94,0,0,0,0,3.25c.42,1.16-.94,1.69-1,2.63s1.26.74.84,1.68a2.57,2.57,0,0,0,0,1.9s-.16,2.46-1.42,2.46-1.8.31-2.42,1.76c-.33.77-1.76,1.87-2,2.86" transform="translate(-613.15 -109.01)"/><path class="cls-1" d="M829.59,381.75h-2.32V379c0-.7-1.75-1.31-2.1-2.62s-.87-2.09-.35-3.14,1-1.84.7-2.8a3.44,3.44,0,0,1,.61-2.44c.35-.79,0-1.75,0-2.45s1.14-1.14,1.14-2.27v-3.49c0-1-1-.53-1.23-1.84s-1.31-1.31-1.31-2.27-.43-1.75-.43-2.62.08-2.88-.79-2.88-2,.34-2.62-.53a2.23,2.23,0,0,1,.09-2.53c.43-.87-1-1.22-1.49-2s.09-1.57,1-1.92.61-1.05.61-1.75v-5.06c0-.88-1-1.05-1-1.93v-2.88c0-.61.79-1.14,1.84-1.14s1.92-1.13,2.44-2.27,1.4-.61,2.1-1.57h0" transform="translate(-613.15 -109.01)"/><path class="cls-1" d="M903.29,397.16c-.44-.88-3.07-1.21-4.17-2.75s-2.42-1.31-2-2.52a4.06,4.06,0,0,0-1.21-3.85c-1-1,.77-1.65.77-2.64v-3.85c0-1.21-1.32-1.87-.33-3s.33-3.73-.55-4.5.66-1.76,1.21-2.53,1.65-.55,2.75-1.21.22-2,1.1-2.42,1.64-.77,1.86-1.76,1.65-2.09,2-2.86c.62-1.45,1.16-1.76,2.42-1.76s1.42-2.46,1.42-2.46" transform="translate(-613.15 -109.01)"/><path class="cls-1" d="M884.64,428.55a11.54,11.54,0,0,1-2.09.74c-1.19.3-3.73,2.24-4.77,2.24H873.6c-1.05,0-2.09.3-2.84-.75s-1.19-2.39-2.68-2.39h-7.31c0-1.49-1.35-4-2.84-4.47s-3.43,0-5.07.3-2.09-.15-1.79-1.35a4.08,4.08,0,0,0,0-3c-.45-1.34.74-3.13-.15-4.77a5.8,5.8,0,0,1-.9-3.59c0-1.34-.89-1.49-2.68-1.49s-2.84-1-4.48-1-2.23-2.09-2.68-3.43-1.64-2.39-2.69-3.58-.74-3.29-.74-4-1.35-1.35-1.35-2.09,1.2-.75,1.2-1.64V390.5c0-1.35-1.2-2.84-2.09-3.73s-1.35-2.09-2.39-2.39a4.85,4.85,0,0,1-2.53-2.63" transform="translate(-613.15 -109.01)"/><path class="cls-1" d="M903.29,397.16c.44.88.66.77,1.21,1s2.2.11,2.86,1.1,2.86,1.32,3.19,3.41.66,2.86,1.65,3.08a2.52,2.52,0,0,1,2.2,2.09,3.65,3.65,0,0,0,2.86,2.41c1,.22.33,2.09,1.31,2.42s1.76.77,1.54,1.87A1.73,1.73,0,0,0,922,416.4c.88-.11,1.54-.77,1.87-2.09a5.59,5.59,0,0,1,2-3.08c1.54-1.21,1.69-.07,2.86.66,0,0-.56,1.44-1.05,2.42a20.11,20.11,0,0,0-.73,3.05,8.29,8.29,0,0,0-3,.74,31.46,31.46,0,0,1-6.86,1.49c-1.35,0-2.54,1.64-4.18,1.49s-4.63.75-6,.75-2.83,1.49-4,1.49S900.9,425,900,425.86s-2.39.77-2.39,2.23a10,10,0,0,0-2.65-.79c-1.34-.14-1.67-.9-4.07-.42-1.4.28-.84.42-2.38.14s-1.4-.42-2.24.42a4.6,4.6,0,0,1-1.64,1.11" transform="translate(-613.15 -109.01)"/><path class="cls-1" d="M948.17,397.57c6.08-6.41,15.54-6.38,15.54-6.38" transform="translate(-613.15 -109.01)"/><path class="cls-1" d="M953.53,326c-6.52.12-13.06.18-19.56.18" transform="translate(-613.15 -109.01)"/><path class="cls-1" d="M1001.53,365.12c-.92-.29.59-1.77.23-2.24s-.4.39-1.1-.21-.32-1.76-1.15-2.29.34-1.11.81-2.87c.25-.92-1-1.21-.85-2.17.23-2.09,1-1.31,1-3.25,0-1.18.09-2.37.13-3.56a3.6,3.6,0,0,1,.06-1.85c.47-1.22,2.78-.37,3.45-2.78.22-.75-1.13-1.82-1-3a1.74,1.74,0,0,1,2.11-1.73c.13,0,.3-.14,0-.39l-1.32-1.41c-.17-.19-.08-.48.11-.45,2.9.36,1.34-2.75,2-4.14.5-.93-.07-1.15-.05-1.79.1-2.62,1.37.19,2.43-1.1.68-.84,1-3.78,1.11-5.43,0-.27,0-.71-.3-.37-.55.56-1,1.13-1.62,1.68-.21.25-.57.32-.47-.21s0-.86,0-1.29-.33-.54-.52-.52c-13.24,1.56-29.36,1.67-43.44,2.07-3.19.09-6.38.15-9.58.21" transform="translate(-613.15 -109.01)"/><path class="cls-1" d="M963.71,391.19c1.94,0,9.85.91,11.67,1.75a21.76,21.76,0,0,0,4.93,1.86c1.55.28,3.36,2.54,6,3s-.07,6,3.16,5.4,6.82,2.57,9.2,1.44,5.39,3.56,7.63,3.42,2.16,1.87,3.42,3.69-3.2,6.34-1.1,5.08,2.25,1.26,3.65,1.12,1.54-2.52,3.5-1.26a7,7,0,0,0,3.25,1.25h.06c1,0,0-1.93.63-2.5,1.22-1.13,1.8-2.13,3.46-2.07.73,0,3.06.48,3.56.13,1.36-1-1.07-2.4.69-2a2.18,2.18,0,0,0,1.86-.81c.6-1.06-1.42-2.59-2.13-.47a1.88,1.88,0,0,1-2.72.82,3.19,3.19,0,0,1-.78-1.11,13.12,13.12,0,0,1-1.4-4.09c.13-3.57-2.36-.49-2.24-4.08.06-1.62-1.42-1.9-.72-2.87s1.46-6.12,1.07-7-1.23,3.63-2.43,2.29-1.67-3.73-2.2-4.83.06-1.88.12-3.55-.38-1.2-2-1.25c-.81,0-.2-1.73-.28-2.39s.52-2.36-.29-2.39c-1.57,0-2,.38-2-1.26,0-1.3-1.66-1.36-2.5-1.43s-1.24-1.37-2.11-2.26.57-1.59.08-2.38-1.57-.39-2.53-.23-.34-1-1.3-1.45.64-.82-.61-1.81,0-3.56-.89-3.84" transform="translate(-613.15 -109.01)"/><path class="cls-1" d="M1000,433.84c-1-2.79.63-5.15,2.44-6.85.84-.79,2.31.14,3.42-.89,1.73-1.61,1.46-1.61,3.07.1,3.14,3.34,3.25-1.07,3.33-3.43,0-.73,2.77-.28,3.56-.25,1.9.07,1-.7,1.27-2.3.43-2.23-.52-2.41,2-2.32a7,7,0,0,1-3.25-1.25c-2-1.26-2.1,1.12-3.5,1.26s-1.54-2.38-3.65-1.12-4.48,3.23-5.74,1.4-.84-3.78-3.09-3.64,1.7-2.58-.68-1.46-6.58,5.94-8.46,9.57c-1.51,2.9-3.59,1.12-5.56,2.74a6.62,6.62,0,0,1-5.76,1.33l-4.71,0" transform="translate(-613.15 -109.01)"/><path class="cls-1" d="M1025,462.79c-.41-4.51-4.76.34-4.6-4.18.06-1.61-.54-2.75,1.28-2.69,1.13,0,1.4.49,1.3,1.38-.36.95.2.66.45.46,1.72-1.38,4.52-3.24,4.17-.29-.29.68-.1,1.24.62.42.92-1.06,1.44-2,2.56-.82,1.57,1.68,1.65,1.38,3.84,1.67s2.28,0,3.85,1.67a2.82,2.82,0,0,0,2.51,1c.62,0,.35-.75.19-1.09l-1.32-2.87c-.37-.87,0-1.19,1.29-1.24a3.51,3.51,0,0,0,3.11-1.86c1.31-2.28-.79-2.4,2.83-2.28,2.76.1,2.07,1.49,4.28,2.53a9.73,9.73,0,0,0,3.53.2c.88,0,.73-.54.51-.76a4.77,4.77,0,0,1-1.53-2.35c-.08-1.08-.63-1.15-1-.85-1.74,1.45-3.85,2.64-3.73-.69,0-1.49-1.48-2.4-3-2.75-1.69-.37-.89-1.06-.39-1.56a2.39,2.39,0,0,1,1.52-.89c1.09,0,3.36.52,4.36.15,1.69-.6,1.64-2.3,3.64-2.23,1.44.05,2.13-.74,3.05-1.68.55-.48.55-1-.28-1-2.36-.09-4.6.24-7,.15-1.49,0-1-.74-.55-1.22,1.28-1.44,3.05-3.41,4.16-3.37,2.94.1,4.35,1.06,4.45-2.23,0-1.6.63-2.32-1.09-2.38s-1.16-.49-1.11-2.06c.08-2.34-4.33,1.39-4.63,1.68-1.38,1.31-1.93,4.87-2.6,6.65-.28.74-2.67.62-4,.4-.54-.08-1.24,0-.88-1.2.31-1.08.68-2.34.12-3.38-.27-.5-1.92-.07-2.36-.29-1.27-.64-2.74-2.68-3.88-4.1-.57-.58-.31-1,.43-.75,1.76.61,2.32-2.29,4.07-2.23,1.58.06,2,.52,2-1.12,0-1.05.31-1.19-.69-1.22-2.11-.07-4.25-.06-6.34-.22-1.84-.15-2.48-.35-3.35-1.15-.37-.34-1.44-.69-1.48,1.44,0,1.73-.81,2.68-2.78,4.53-1.22,1.15-1.66,2-3.31,1.94-1.82-.06-1.1.69-1.27,2.3-.27,2.45-.18,5-.26,7.47-.13,3.62-.75.34-2.45,1.92-1.24,1.16,1.26,2.41-1.26,2.32-2.21-.08-6.28.59-8.27-.29-1.82-.8-3.54-5.44-2.12-7.18s2.31,1.81,2.44-1.9c0-.69-2.14-.66-2.62-.22-2,1.86-3.68,1.94-5.58,3.13a2.69,2.69,0,0,1-2.22-.17c-1.58-.66-2.72-.64-3.8-3.61" transform="translate(-613.15 -109.01)"/><path class="cls-1" d="M987.92,488.65a4.79,4.79,0,0,1,2.67-.61l5.48.19c2.75.1,2.17-1.44,4.44-2.22,3.07-1.06,2.32,1.72,2.26,3.64-.09,2.4-.34,3.33,1.35,5.12,1.34,1.44.71,3.49.64,5.4,0,.57,0,1.05,0,1.44-.21,1.2-.26,1.9.72,1.51,2.36-.95,5.44-.17,8-.08,1.81.06,3.63,1.6,5.19,2.46,1.17.64,2.7.26,4,1,3.74,2,6.78,4.23,11.08,4.38,2.06.07,2.54,2.46,4.14,2.52s3.58.57,4.28,2.51c.29.8-.74,4.72.2,4.75,2.93.1,2,1.32,1.88,4.06,0,1,2.44.94,3.48,2a11.7,11.7,0,0,0,3.49,1.68c.26.87-.39,2.81-.93,4.76-.31,1.09-1.77,2.6-2.59,3.48s-3.52,2.26-3.57,3.71c0,1.67.06,2.15.72,2.92,1,.94,1.85-.19,2.26-.91s1-1.75,1.35-2.57c.42-1,0-2,.63-2.63,2.29-2.13,3.91-8.27,6.87-9,1.12-.26,3.57.12,4.74.16,2.33.08,2.38-.28,2.3,2.09-.09,2.77,3.43,3,5.75,3,.57.1,1.56-.26.2-1.13-.41-.44-1.08-1.46-.24-2.28,1.79-1.73,3.35-3.63,5.9-3.54,5.43.19.54-2.42,3.09-4.8,1.68-1.58,2.25-1.83,2.33-4.12,0-1.16,2.36.78,2.44-1.46,0-.8.48-3.55-.25-3.57-1.74-.06-2.34-.14-2.08-1.72.23-.67-.08-.67-1.3.06-1.77,1.05-4.46,2.3-5.71,1.34s1.52-2.31-1.11-2.4c-2.26-.08-.35-.91-1.1-2.41-.47-1-1.8-1.5-2.28-2.46-.75-1.51,1.17-2.32-1.11-2.4s-.36-.91-1.1-2.43c-.28-.59-2.09-2.62-2.54-2.21-1.22,1.14-2.18,1.57-2.24,3.23,0,1.36-.92,1.76-2.41,1.12-2.66-1.14-1.39-4.81-3.38-4.87s-6,.68-5.88-1.38c.08-2.25-.88-.41-2.32-1.26a7.74,7.74,0,0,1-1.78-1.86c-.21-.37-.78-.53-.62.14.43,1.87-1.11,1.6-3.08,1.53-2.43-.08-4.1.58-4-1.63.25-.78-.11-.78-.56-.58l-3.1,1.42c-1.12.66-1-.15-.93-.43.06-1.61-.8-2.27-2.08-3.65-.39-.41.84-1.42,1.65-2.08.5-.28.65-.59-.7-.51a8.12,8.12,0,0,1-3.63-.5c-.35-.34,0-2,.21-3.31.06-.47.36-1.41-.71-.61s-3.21,1.95-4,1.78-2.55-2.94-3.1-3.33-1.89-1-3.12-1.8a1.22,1.22,0,0,1-.5-1.66c.28-.85.85-1.23,1.73-2,.21-.19.73-.89-.62-.72s-1.15-.86-1.09-2.56c.07-2.31-.26-2.4,2.09-2.32.73,0,.46-2.74.49-3.53.07-1.83,1.16-1.15,2.78-1.09,1.16,0,6.8.81,8.23.52.89,1.38-.66,2.12,2.79,2.24.71,0,1.46.95,2.07,1.72.43.76.79.39.81-.38,0-1.32-.44-1.61-2-1.66-1.12,0-2-2.86-3.63-2.47-1.13-.31-1.54.22-3-1.32-.69-.75-3.1-.62-3.16-1.32" transform="translate(-613.15 -109.01)"/><path class="cls-1" d="M974.64,426.7a27,27,0,0,1-5.67-1.9c-1.82-.85-2.09-1.38-4-1.38l-4.53-.76s-.17,17.41-.17,19,1,1.22,1,2.44,1.1,1.59,1.59,2.44.73,2.08,1.34,3.06,2.32,1.46,3.18,2.44,2.8,1.22,2.8,1.95v2.69c0,.73-1.46,1.71-1.83,2.81s-1.83,2.56-1.83,3.66-1,2.32-1,4.15h2.8c.86,0,1.1,1.1,2.2,1.1s1.1,2.2,1.1,3.17-1.1,1.1-1.1,2.2,1.1,1.71,1.1,2.93v2.69c0,.73-1.34.36-2.08,1.46s-.36,1.47.25,2.44,1,3.06,1.83,3.79,1.59,1.34,1.59,2.44,1,1.22,1.95,1.47a15,15,0,0,0,2.93.49c.73,0,2.32-.74,2.93-.13s1.53,2.92,2.62,3.17c.09-2.59-.78-4.39,2.16-4.29.91,0,1.5-1,2.14-1.58" transform="translate(-613.15 -109.01)"/><path class="cls-1" d="M965.5,467.3c0-1.83,1-3.05,1-4.15s1.47-2.57,1.83-3.66c.43-1.28,2.32-2.38,1.72-3.14v-2c.67-1-1.72-1.17-2.69-2.28s-2.57-1.47-3.18-2.44-.85-2.2-1.34-3.06-1.59-1.22-1.59-2.44-1-.85-1-2.44.17-19,.17-19l-6.07-.72s-1.59-.5-1.72-.27" transform="translate(-613.15 -109.01)"/><path class="cls-1" d="M926.91,417.36a20.11,20.11,0,0,1,.73-3.05c.49-1,1.05-2.42,1.05-2.42.88.55,1.87-.77,2.75.22s.44,2.2,1.76,2.2h3c.66,0,1.76-1.43,2.31-2.64.23-.49,2-2.94,4-5.73,1.08-1.47,1.07-3.72,2.34-5,.79-.79,2.08-2.24,3.33-3.39a32.19,32.19,0,0,1,2.9-2.46,21.81,21.81,0,0,1,6.54-3c.3-.09-2.39,2.78-3.75,4.56-1.13,1.49-1.27,1-2.49,2.9-.75,1.17-1.29,4.25-1.78,5.34s-2.26,2.62-2.55,3.56c-.43,1.46.31,3.24.23,4.32a15.68,15.68,0,0,0,.09,4.64l5.26,4.21" transform="translate(-613.15 -109.01)"/><path class="cls-1" d="M926.91,417.36a8.29,8.29,0,0,0-3,.74,31.46,31.46,0,0,1-6.86,1.49c-1.35,0-2.54,1.64-4.18,1.49s-4.63.75-6,.75-2.83,1.49-4,1.49S900.9,425,900,425.86s-1.79.89-2.39,2.23" transform="translate(-613.15 -109.01)"/><path class="cls-1" d="M897.62,428.09a10,10,0,0,0-2.65-.79c-1.34-.14-1.67-.9-4.07-.42-1.4.28-.84.42-2.38.14s-1.4-.42-2.24.42a4.6,4.6,0,0,1-1.64,1.11,11.54,11.54,0,0,1-2.09.74c-1.19.3-3.73,2.24-4.77,2.24H873.6c0,1.94-.6,3-1.19,3h-2.09v3.29h0a9.1,9.1,0,0,1,1.94,4.5c.28,1.68,1.12,1.82,2.1,2.24s1.26,2.25,1.26,3.65-.14,2.38,1,2.8a15.85,15.85,0,0,0,3.37.42c.84.14,2.38,0,2.94.84s2.66,1.83,2.52,3.23-1.12,2.1-.28,3.36,1.83,2.67.42,3.37c-.84.42-1,1-1,2.1a16.7,16.7,0,0,1-.14,2.1" transform="translate(-613.15 -109.01)"/><path class="cls-1" d="M951,505.38c0,1.19,1.19,1.64,1.19,2.68s-.64,1.81-.89,3.14a9.56,9.56,0,0,0,.67,6.29c1.41-.62.83-2.78,1-3.61a19.89,19.89,0,0,1,2.68-6.86c.37-.88,2.09-1.64,3-.45a29.51,29.51,0,0,0,2.24,3.27c1.08,1.15.15,2.6,1,3.5,1.79,1.91,1.94,2,2,4.57,0,.83-.62,4.09-.16,4.73.28.4,2.09-.31,2.37.08s-.07,1.89-.08,2.37c-.12,3.48-.2,1.21-2.46,2.3s-1.54,2.43-4.24,2.34c-.54,0-1.64,1-2.54,1.45-2.48,1-2.43,2,1.19.67a101.84,101.84,0,0,0,20-9.52,53.84,53.84,0,0,0,8.16-6.86c2-1.87,4-4.72,6.55-5.66,1.21-.31,1.46-.89.23-.73a8.09,8.09,0,0,0-5.11,2.56c-1.26,1.17-1.83,2.11-3.5,2.53s-1.6-.23-1.71-.49c-1.09-2.67-4.19-5-4.07-8.29.06-1.64.47-1.17,2.06-1.12,1.09,0-.27,1.94.29,2.39s4.21.15,5.1.18c2.84.1,2.93-2.28.08-2.38-1.89-.06-3.69.19-2.66-2.47.52-1.34,4-2.45,2.54-4.67-.39-.59-2.4.65-2.36-.45,0-.78.06-1.57.08-2.35-1.09-.25-2-2.56-2.62-3.17s-2.2.13-2.93.13a15,15,0,0,1-2.93-.49c-1-.25-1.95-.37-1.95-1.47s-.74-1.71-1.59-2.44-1.22-2.81-1.83-3.79-1-1.34-.25-2.44,2.08-.73,2.08-1.46V476.7c0-1.22-1.1-1.83-1.1-2.93s1.1-1.22,1.1-2.2,0-3.17-1.1-3.17-1.34-1.1-2.2-1.1h-2.8" transform="translate(-613.15 -109.01)"/><path class="cls-1" d="M868.53,488.48a3.24,3.24,0,0,1,2.34.95c1.38,1.45,1.49,1.57,1.42,3.56,0,.95,1.73.09,2.34.45,3.38,2,1.6,3.75.15,6.4-.76,1.38-1.51.1-2.75.64-.8.35-1.64,1.52-2.28,2.12-1,1-.07,4.92-3.09,4.81-2.15-.07-1.71-.29-1.93-2.07-.28-2.28-2.72-1.6-1.41.56s3.63,3.88,5.45,5.82c.84.9,1.73.25,2.84.59a22.72,22.72,0,0,1,3.93,2.14c1.21.66,1.83,2.29,3,2.84.94.45,3,.1,4,.14,2.23.08,3.82,2.51,6,2.59,4.51.15,12.12-1.08,15.28,2.29,1.59,1.69,1.49,5.41,4,5.5,1.89.06,3.59,2.35,5,4,.27.32.82,1.45.64-.15-.1-.88.26-1.31,1.4-1.27,2.52.09,0-1.18,1.26-2.33s2.29,1.42,2.38-1.1c.06-1.63.48-1.17,2-1.11l7.11.25c1.13,0-.31-2.39.82-2.35s2,.54,2-.67c.07-1.85-.66-6.4,1.41-6.33,1,0,5.9.52,5.93-.16,0-1.33.09-2.67.14-4,0-1.12-2.37.31-2.33-.82.11-3.14,2.56-1,2.59-3.29-.38-1.31.69-.16,1.07.26s1,2.27,1-.11c-.07-3.41,4.17,1.46,5.24,1.5,4,.13.48,3.32,2.64,5.65.63.68,2.28,2.37,3.84,1.67a9.56,9.56,0,0,1-.67-6.29c.25-1.33.89-2.09.89-3.14s-1.19-1.49-1.19-2.68" transform="translate(-613.15 -109.01)"/><path class="cls-1" d="M884.45,466.41c-.84-1-2-2.52-3.08-2.52s-2.94.28-3.93-.56a5.33,5.33,0,0,0-3.22-1.54,7.79,7.79,0,0,1-4.2-1.13,10,10,0,0,0-5.61-1.54,9,9,0,0,1-4.77-1c-1-.56-.7-2.8-.28-4.2s1-2.67,0-3.65a9.92,9.92,0,0,1-2.24-3.78,5,5,0,0,0-2.24-2.95,11.55,11.55,0,0,1-4.35-4h-3c-3.73,0-4.18.74-6.86.74s-3.14.6-4.48,1.79-1.94,2.54-3.13,4.48-2.24,4.62-4,5.67-3.58,2.68-5.08,3.43-2.68,3.43-4,4a24.84,24.84,0,0,0-5.74,4.65c.3,1.33,1,2.15,2.4.82A22.42,22.42,0,0,1,823.4,461c1.35-.62,13.52-.57,14.43.4.48.5-.06,6.94-.5,7.34-1.23,1.13-2.17,1.56-2.23,3.21-.06,1.84.69,1.09,2.32,1.28.58.06,7.1,0,7.08.45-.11,3.37-.31,4.22,1.64,6.44.15.17.67.57,0,1.06a6.72,6.72,0,0,0-2,2.94c-.25.72,0,1.29,1,.77,2.74-1.09,5.32-1.53,7.57-3.12.35-.25,1.07-1.14,1,.73-.1,2,2,3.22,4.27,3.3,2.8.1,4.14.87,6.64,2.24,1.23.67,2.64.41,3.94.47" transform="translate(-613.15 -109.01)"/><path class="cls-1" d="M745.2,384.4a2.49,2.49,0,0,0,.73,2.06c1,1.22,1.71,1.83,1.71,2.55v3.16a3.09,3.09,0,0,1-1.71,2.31c-1,.49-.85,1.22-.6,2.07a3.5,3.5,0,0,1,.24,2.43c-.37.73-1,1.34-.49,1.94s.37,1,.37,1.83V410c0,1,0,1.58,1,2.06s3,.73,2.31,2.07-1.58,1.82-1.58,3-.61,1.82-1.34,2.79-.36,1.7-.36,2.43a9.69,9.69,0,0,0,1.09,2.68" transform="translate(-613.15 -109.01)"/><path class="cls-1" d="M803.27,474.42a10.45,10.45,0,0,0-1.08-.09l-7.46-.26c-3.48-.12-3-2.12-4-5.39-.92-3.1-.53-4.15,1.82-6.35,1.9-1.79,4.75-3,7-4.37s4.44-1.83,6.3-3.47" transform="translate(-613.15 -109.01)"/><path class="cls-1" d="M746.54,425.11a36.28,36.28,0,0,1-4.13,1.94c-1.76.72-4.13,2.55-5.95,3.65h9.6v48.8c4.84.16,9.86-.09,14.63.76,5.78,1,11.62,2.52,17.5,2.73,2.81.09,5.07-2.5,7.74-3.72,2.13-1,4.14-.61,6.47-.53,1.75.06,5.86-.5,7.33.56l.09.07" transform="translate(-613.15 -109.01)"/><path class="cls-1" d="M745.2,384.4v-.85a4.68,4.68,0,0,1,.52-1.26c.35-.56,0-1.41.21-2.12a3.36,3.36,0,0,1,1.63-1.84c.78-.42.92-1.35,1.49-2.05s.21-1.42-.43-2.06-.92-1.77-.92-3.4V339.59h8.64c1,0,1-.9,1.83-1.25s.79-.88.79-1.49-.79-.7-.79-1.66.7-1.4,1.57-1.48,1.31-1,2.89-1.49,2.35-1.22,2.35-2,1-1.22,2.36-1.22a5.21,5.21,0,0,1,3.76,1.66c.7,1,1.22,1.75,2.18,1.75h3.58s.09,2.27.09,3.14,1.57,2.18,2.27,2.8a3.74,3.74,0,0,1,1.4,2.7v4h2.27" transform="translate(-613.15 -109.01)"/><path class="cls-1" d="M827.27,381.75V379c0-.7-1.75-1.31-2.1-2.62s-.87-2.09-.35-3.14,1-1.84.7-2.8a3.44,3.44,0,0,1,.61-2.44c.35-.79,0-1.75,0-2.45s1.14-1.14,1.14-2.27v-3.5c0-1-1-.52-1.23-1.83s-1.31-1.31-1.31-2.27-.43-1.75-.43-2.62.08-2.88-.79-2.88-2,.34-2.62-.53a2.23,2.23,0,0,1,.09-2.53c.43-.88-1-1.22-1.49-2l-25.07.09c-.7,0-.87-.61-1.48-.61s-.79.43-1.66.43h-8.39" transform="translate(-613.15 -109.01)"/><path class="cls-1" d="M799.82,479.37c1.56,1.16,4.79,4.54,6.61,4.6,1.17,0,3.5-.35,4.53.16s1.36,2,2.29,2.46c1.34.71,2-.33,3.17.94,1.37,1.45,1.49,1.57,3.47,1.64,3.09.1,5.15-.8,5.27-4.17,0-1,2.27-2.78,3.78-4,2.15-1.9-.66-.83-1-1.22s1.05-3.12-1.14-1.27c-1.91,1.61-2.13.68-4.33-1.7-1.44-1.56-1.56-1.83-3.67-1.9-1,0,.28-2.35-.49-2.38l-8.09-.28c-2.26-.08-.41.86-1.26,2.32a8.18,8.18,0,0,1-1.8,1.89.6.6,0,0,1-1.06,0,3.61,3.61,0,0,0-2.8-2" transform="translate(-613.15 -109.01)"/><path class="cls-1" d="M870.32,437.8v-3.29h2.09c.59,0,1.19-1,1.19-3-1.05,0-2.09.3-2.83-.75s-1.2-2.39-2.69-2.39" transform="translate(-613.15 -109.01)"/><path class="cls-1" d="M805.87,454.49a1.56,1.56,0,0,0,.2-.16c1.28-1.2,1.45-1.15,3.23-1.09.93,0,2-1.49,2.64-2.1a1.45,1.45,0,0,1,2.51,1.09c-.09,2.63,1.41-.1,2.33,1.28,1.32,2-2.17,5.42-2.62,7a10.14,10.14,0,0,0,0,3.84,24.84,24.84,0,0,1,5.74-4.65c1.34-.6,2.53-3.28,4-4s3.29-2.39,5.08-3.43,2.83-3.73,4-5.67,1.79-3.28,3.13-4.48,1.79-1.79,4.48-1.79,3.13-.74,6.86-.74" transform="translate(-613.15 -109.01)"/><path class="cls-1" d="M827.27,381.75h2.32a4.89,4.89,0,0,0,2.53,2.63c1,.3,1.49,1.49,2.39,2.39s2.09,2.38,2.09,3.73v3.73c0,.89-1.2.89-1.2,1.64s1.35,1.34,1.35,2.09-.3,2.83.74,4,2.24,2.23,2.69,3.58,1,3.43,2.68,3.43,2.69,1,4.48,1,2.68.15,2.68,1.5a5.79,5.79,0,0,0,.9,3.58c.89,1.64-.3,3.43.15,4.77a4.08,4.08,0,0,1,0,3c-.3,1.2.15,1.65,1.79,1.35s3.58-.75,5.07-.3,2.84,3,2.84,4.47" transform="translate(-613.15 -109.01)"/><path class="cls-1" d="M850.53,439.59a11.55,11.55,0,0,0,4.35,4,5,5,0,0,1,2.24,2.95,9.92,9.92,0,0,0,2.24,3.78c1,1,.42,2.24,0,3.65s-.7,3.64.28,4.2a9,9,0,0,0,4.77,1,10,10,0,0,1,5.61,1.54,7.79,7.79,0,0,0,4.2,1.13,5.33,5.33,0,0,1,3.22,1.54c1,.84,2.81.56,3.93.56s2.24,1.54,3.08,2.52a16.7,16.7,0,0,0,.14-2.1c0-1.12.14-1.68,1-2.1,1.41-.7.43-2.11-.42-3.37s.14-2,.28-3.36-2-2.38-2.52-3.23-2.1-.7-2.94-.84a15.85,15.85,0,0,1-3.37-.42c-1.12-.42-1-1.4-1-2.8s-.28-3.22-1.26-3.65-1.82-.56-2.1-2.24a9.1,9.1,0,0,0-1.94-4.5h0" transform="translate(-613.15 -109.01)"/><path class="cls-1" d="M736.32,139.1h-9.41v4.38c0,1.53-2.41,2.84-3.29,4.16s0,4.81.22,6.35-1.09,2-1.75,3.72v14.5h9.12" transform="translate(-613.15 -109.01)"/><path class="cls-1" d="M716.81,205.26v3.25c0,1.2.93.65,2,1.76a2.6,2.6,0,0,1,.84,3.15c-.37,1.48.46,2,1,2.78a3.42,3.42,0,0,1,.92,2.78c0,1.76-.46,1.57-1.11,2.87s.84.93.65,2.32.83,1,1.3,2.41-.65,1.66-1.58,2.68-.65,2-.65,2.88v3.43c0,1.29-.18,2.68-1.29,1.85a2.21,2.21,0,0,0-3.16,0c-1.11.93.56,1.11.1,2s.28,1.11.28,2.69-.1,2.68-1.12,3.52a3.53,3.53,0,0,0-1.29,3.24c0,1.58,0,3.1.55,3.71s.37,1-.18,2-.19,1.85.65,1.85H717c.74,0,.65,1.3,1.11,1.3h1.39v3c0,.93.28,1.48.93,1.48h2.22c.65,0,.84.28,1.39,1.49s1.11,1.39,2,1.39h3.71c.92,0,1.57,1.29,1.94,2.5s1.21,1.76,2.32,3.06,2.28,1.32,3.15,3.06a14.31,14.31,0,0,1-2.87,2.22c-1.3.65-2.78,1.39-3.06,2.41s-2,2.22-3,2.69-2.51,1.11-3,2.22a7.06,7.06,0,0,1-3.34,3.24,6.58,6.58,0,0,0-2.87,2.32c-.83,1-2.22.28-3.06,1.11s-.68,1.56-.88,2.44c-1.09-.36-1.82,0-3-1.34s-4.25-1.54-6.93-1.54h-16" transform="translate(-613.15 -109.01)"/><path class="cls-1" d="M631.1,238.37c0,.51,0,1,0,1.59-.06,1.92,2.13,2.92,3.49,4,1.08.85,1.74,3.19.74,4a1.13,1.13,0,0,0,.07,2,2.79,2.79,0,0,1,1.13,2.53c0,1.08,2-.14,2.36.45.29.43.1,2.39-.46,2.37-2.94-.1-2.06,1.72-2.15,4.31-.07,1.94-.27,2.68-1.11,3.61-.69.66-1.1,1.29-.16,1.31,1.59.05,1,1.79,1,3.71-.06,1.63.39,1.19,2,1.25,1.09,0-.27,1.93.28,2.38.82.68,4.79.17,5.93.21,1.48.05,1.38,1.62,1.19,3.15-.12,1.31-.81,1.77-1.52,1.73-1.4.15-1.81.82-.57,1.81.89.7,2.13.78,3.84.53.69-.1.24,3.59.22,4.38,0,1.09,1.91-.13,2.33.45s-.15,1.81-.09,2.36a16.78,16.78,0,0,1,.5,3.54c-.08,1.52-.72,2.91-.76,3.94-.08,2.26.41,2.51,2,4.19.61.65,2.63-.22,2.6.71,0,.74-.55,3.82-.16,4.38,1,1.35,2.43-1.35,2.34,1.26s0,3.54,1.54,5.31c.65.8.57.17.57-.48.17-1.35,1.37-1.38,2.79-1.24,0-1.07.15-5.06.34-6.67a2.74,2.74,0,0,1,2.81-2.52H671a6.17,6.17,0,0,1,1.68-3.08c1.12-1.12,1.82-4.07,2.38-5.19s1.54-1.12,3.37-1.12H689.2" transform="translate(-613.15 -109.01)"/><path class="cls-1" d="M715.19,292.4c-1.09-.36-1.82,0-3-1.34s-4.25-1.54-6.93-1.54H678.41c-1.83,0-2.81,0-3.37,1.12s-1.26,4.07-2.38,5.19a6.17,6.17,0,0,0-1.68,3.08h-6.87a2.74,2.74,0,0,0-2.81,2.52c-.19,1.61-.34,5.6-.34,6.67.5,0,1,.12,1.56.16a.44.44,0,0,1,.34.69c-.43.91-.8,2-1.47,2.32-1.33.66-.09,2.45,1,3.71a.52.52,0,0,1-.55.77c-2.66-.31-2,4.31-.41,4.36,2.74.1,1,5.23,1,5.93-.06,1.91-.78.91-2.41,1.11s-2.34-.8-2.41,1.1c0,.84-.29,3.56.25,3.58,1.72.06,4.39-.68,4.32,1.33-.08,2.46.64,3.58-2.12,3.48-1,0,.18,2.31-1.69,2.42-.3,0-.68.35-.06,1.19a5.34,5.34,0,0,1,1,2.46c.8-.25,1.51-.47,1.89-.61a5.17,5.17,0,0,1,4,.73,4,4,0,0,0,3.89.37c1.34-.73,2.31-1.83,4.62-1.83s22.12-.24,23.82-.24,1.34.85,2.55.85h4.25c1.22,0,1.1-.85,2.19-.85h6.69v1.09h14.58V340.4" transform="translate(-613.15 -109.01)"/><path class="cls-1" d="M773.9,229.2V206.12h-4.53c-1,0-1.89-1.05-2.83-1.05s-1.06,1.05-1.79,1.05h-3.47c-2.1,0-2.63-.86-6.94-.86H716.81v3.25c0,1.2.93.65,2,1.76a2.6,2.6,0,0,1,.84,3.15c-.37,1.48.46,2,1,2.78a3.42,3.42,0,0,1,.92,2.78c0,1.76-.46,1.57-1.11,2.87s.84.93.65,2.32.83,1,1.3,2.41-.65,1.66-1.58,2.68-.65,2-.65,2.88v3.43c0,1.29-.18,2.68-1.29,1.85a2.21,2.21,0,0,0-3.16,0c-1.11.93.56,1.11.1,2s.28,1.11.28,2.69-.1,2.68-1.12,3.52a3.53,3.53,0,0,0-1.29,3.24c0,1.58,0,3.1.55,3.71" transform="translate(-613.15 -109.01)"/><path class="cls-1" d="M737.2,273.75c-1-1.84-2-1.77-3.15-3.06s-1.95-1.86-2.32-3.06-1-2.5-1.94-2.5h-3.71c-.93,0-1.48-.19-2-1.39s-.74-1.49-1.39-1.49h-2.22c-.65,0-.93-.55-.93-1.48v-3h-1.39c-.46,0-.37-1.3-1.11-1.3h-2.22c-.84,0-1.21-.83-.65-1.85s.78-1.44.18-2" transform="translate(-613.15 -109.01)"/><line class="cls-1" x1="160.75" y1="120.19" x2="189.18" y2="120.19"/><path class="cls-1" d="M844.57,248.26c-.45-1-1.27-1.33-1.46-2.28s-1.58-1.7-1.83-2.21.63-1.26.63-1.89v-3.79a3,3,0,0,0-.57-2c-.44-.51.07-1.71.76-2.59H840v-8.74h-3.82c-.86,0-.58,1.44-1.44,2.3s-1.14,2.1-2.19,2.39-1.34,1.62-2.11,2.58a4.77,4.77,0,0,1-3.53,1.81,6.82,6.82,0,0,0-3.73,1.06c-.77.57-.86-1.15-1.53-1.34s-.57-1.24-.57-1.82,0-1.62-1.15-1.62-1.53-.86-2.49-1.25-.38-2.48-1.43-2.48a4,4,0,0,1-2.58-1.53l-2.11.53v3.83h-9" transform="translate(-613.15 -109.01)"/><path class="cls-1" d="M737.2,273.75a14.31,14.31,0,0,1-2.87,2.22c-1.3.65-2.78,1.39-3.06,2.41s-2,2.22-3,2.69-2.51,1.11-3,2.22a7.06,7.06,0,0,1-3.34,3.24,6.58,6.58,0,0,0-2.87,2.32c-.83,1-2.22.28-3.06,1.11s-.68,1.56-.88,2.44" transform="translate(-613.15 -109.01)"/><path class="cls-1" d="M727.83,340.4h8c1,0,1.85-.81,3.4-.81h17.07c1,0,1-.9,1.83-1.25s.79-.88.79-1.49-.79-.7-.79-1.66.7-1.4,1.57-1.48,1.31-1,2.89-1.49,2.35-1.22,2.35-2,1-1.22,2.36-1.22a5.21,5.21,0,0,1,3.76,1.66c.7,1,1.22,1.75,2.18,1.75h3.58" transform="translate(-613.15 -109.01)"/><path class="cls-1" d="M776.86,332.4s.09,2.27.09,3.14,1.57,2.18,2.27,2.8a3.74,3.74,0,0,1,1.4,2.7v4h10.66c.87,0,1-.43,1.66-.43s.78.61,1.48.61l25.07-.09c-.52-.79.09-1.57,1-1.92s.61-1.05.61-1.75v-5.07c0-.87-1-1-1-1.92v-2.88c0-.61.79-1.14,1.84-1.14s1.92-1.13,2.44-2.27,1.4-.61,2.1-1.57,1.22-3.06,2.33-4.17" transform="translate(-613.15 -109.01)"/><path class="cls-1" d="M828.81,322.46c-.7,1,1,2.3,1.82,2.24,1.82-.14,2.35-2.06,3.36-.84a3.71,3.71,0,0,1,1.12,3.08c-.28,1.12-.44,1.72.25,1.61,1.18-.54,4.06-1.2,4.82-2.2,1.05-1.38,0-2.27,1.67-3.85,1.39-1.29-.09-1.83-1.25-3.09-.69-.75-1.81-2.6-2.83-2.64-4.69-.16,0-4.66.62-7.08a21.17,21.17,0,0,0,.15-4.37c0-1.18-2.39.61-2.31-1.64.09-2.56-2.38.13-2.29-2.45.06-1.78,1-1.15,2.61-1.09,3.93.14,5.54-.3,9.13-2,.57-.26.34-3.74.36-4.46,0-1.16-2.37.61-2.3-1.63s-2.34-.47-2.3-1.63c0-.49,0-1,0-1.48a2.87,2.87,0,0,0-.5-1.05c-1.34-1.41-2.9-3.16-1.06-4.87s4.24-3.08,4.12.39c-.06,1.66.05,5.11,2.54,5.2,2.15.07,2,.22,2.07-1.94,0-.49,1-.5,1.7-.41.27,0,.67.08.13-.47-1-1-1.92-2.05-2.88-3.08-1.49-1.59-.34-1.81-1.06-3.6-.53-1.32-2.3-1.63-2.24-3.2l.15-4.36c.09-2.44.14-1.81,2.42-1.89,1.44-.06,2.93.1,4.37.15,3.23.11,3-4.89,3-5.82,0-.57-.89-.29-1.24-.07-1.42.88-4.86,2.15-6.18.73-2.55-2.74-2.69-3.62-.36-5.92.65-.7,1.17-.37,1.14-.18-.5,2.69.89.5,2.17,1.88.66.72,2.7,2.67,3.5,2.53,1-.17,1-.37,1.06-.63s-.3-1.64.26-2.16,2.1-1.48,2.2-2c.26-1.56-2.25-3.51-2.19-5.2a4.37,4.37,0,0,1,2.52-4.27c.63-.32,2.35.66,2.38-.29a.64.64,0,0,1,0-.17h-15" transform="translate(-613.15 -109.01)"/><path class="cls-1" d="M617,200.4q-.27,8-.56,16c-.1,2.89-1.31,4.9,1.83,5,1.13,0-.48,2.35.66,2.38,2.15.08,1,0,.95,2.15,0,1.16,2.4-.61,2.32,1.63-.09,2.54,1.16,0,2.32,1.28s-1.43,2.31,1.1,2.4c.62,0-.43,1.81.5,1.77a2.78,2.78,0,0,1,2.24,2c0,.43-.22.85,0,1s.79,0,1.38,0c1,.19,1.3,1.16,1.38,2.36" transform="translate(-613.15 -109.01)"/><path class="cls-1" d="M635.83,112.79c-6,0-12-.23-18.1-.44,0,.41.11.83.16,1.24.68,5.19,1.8,10.42,1.62,15.65l-.66,18.7q-.55,15.85-1.1,31.71Q617.39,190,617,200.4" transform="translate(-613.15 -109.01)"/><path class="cls-1" d="M663.94,112c-4.57,0-9.15.19-13.8.44s-9.56.34-14.31.32" transform="translate(-613.15 -109.01)"/><path class="cls-1" d="M689.25,112.49c-1.39,0-2.78-.11-4.18-.15-7.14-.25-14.12-.39-21.13-.31" transform="translate(-613.15 -109.01)"/><path class="cls-1" d="M722.09,157.71c.66-1.75,2-2.19,1.75-3.72s-1.09-5-.22-6.35,3.29-2.63,3.29-4.16V139.1h9.41V136c0-1.09-.87-1.53-.87-2.41s1.75-.65,1.75-1.75V114.06c-16-.12-32-1-48-1.57" transform="translate(-613.15 -109.01)"/><path class="cls-1" d="M716.81,205.26h10.83a7.09,7.09,0,0,1,1.26-2.09,2.68,2.68,0,0,0,1-2.31c-.21-.63-.74-1.05-.11-1.47s1.26-.84,1.26-1.79,1-1.89,1-3v-14.4c0-.84-.74-1.47-.74-2.31v-5.63h-9.12v-14.5" transform="translate(-613.15 -109.01)"/></svg>