<svg id="base_map" data-name="base map" xmlns="http://www.w3.org/2000/svg" viewBox="0 0 375.79 95.73"><defs><style>.cls-1{fill:#015067;stroke:#fff;stroke-width:0.84px;}.cls-2{fill:none;}</style></defs><path class="cls-1" d="M528.73,177.59l.52.63c.41.44,1.5.54,1.53-.18.06-1.72,1-4.33-1-4.4-1.71-.06-2.33-1.23-2.79-.89s-.2,1.37,1.37,3.05C529.15,176.67,528.39,177.17,528.73,177.59Z" transform="translate(-168.03 -83.25)"/><path class="cls-1" d="M490.67,140.46a5,5,0,0,0,.74,2.32c.31.63,1.15,1.78.42,2.41s-1.16.53-1.16,1.16.11,2.21.11,2.21h1.05v2c0,.52.63,1.36,1.15,1.36s1.47,1.26.95,1.89-.84,1.37-1.89.85-1.37-.21-1.58.31.32,1.26,1.16,1.16,1.05,1.05.73,1.78-1.26.32-2,.85-.52,1.36-1.57,1.57-2.31,1-1.58,1.89,1.26,2.84.21,2.84-1.79-.1-2.1.42.31,1.37,1.16,1.26a1.27,1.27,0,0,1,1.47,1.16,1.92,1.92,0,0,1-1.05,1.68c-.74.42-1.37,1-.53,1h19.13c1.26,0,2.63-1.15,3.68-1.78a2.21,2.21,0,0,1,2.74,0,2.33,2.33,0,0,0,2.83.42,6.07,6.07,0,0,0,2.63-2,3.07,3.07,0,0,1,3-1.45c1.6.11,1.62,2.12,1.62,2.88,1.34.13,2,.06,2-2,0-.57,1.47-.64,1.93-.36s.77,1.24,1.07.87c1-1.24,4.17-1.41,4.22-.23s-.65,4-.29,4.34c1.08,1.15,2.37-.1,2.41-1.1q.14-4,.28-7.9c0-1.62-.55-2.76,1.28-2.7,1.09,0,1.38.45,1.32,1.27,0,.32.22.75.47.54,1.7-1.42,4.19-3.19,4.26-5.16.1-2.81.25-3.56,2-5.29.3-.33.69-.89,0-.93-1.18-.07-1.74.17-1.78,1.48-.06,1.55-.72,1.82-1.87,2.88s-4.54.46-6.24.4c-2.51-.09-1.4-3-1.32-5.17s-.09-2,2.06-1.93c.75,0,.44-1.69.46-2.33.14-4-2.33-2.4-4.46-.41-1.05,1-5,.13-5.8-.79-1.87-2-3.8-3.21-3.7-6a4.22,4.22,0,0,1,2.52-3.51c.68-.39,2.54,1.18,3.79,2.53,1.78,1.93-.54,3.18,2.73,3.29,1.89.07,3.62.45,2.8-2.26s-3-1.7-4.65-2.54c-1.18-.6-3.3-3.36-2.19-4.83-1.89-.09-3.55-.09-4.23.79s-1.27,3-2.24,3H494.8s-2.78.16-2.55,1.94a2,2,0,0,1-.42,1.79C491.41,138.89,490.67,139.52,490.67,140.46Z" transform="translate(-168.03 -83.25)"/><rect class="cls-2" width="18.83" height="32.37"/></svg>