<svg id="base_map" data-name="base map" xmlns="http://www.w3.org/2000/svg" viewBox="0 0 318.77 193.46"><defs><style>.cls-1{fill:#015067;stroke:#fff;stroke-width:0.84px;}.cls-2{fill:none;}</style></defs><path class="cls-1" d="M459,272.68c-.07-1,.84-1.4,1.54-2.11s.56-2-.42-1.68a3.13,3.13,0,0,1-3.22-1.4c-1-1.26-.84-4.06-.7-5.33s1.54-1.82,2.24-2.52,1.4-.84,2-.14,1.83.56,3.23.42,1.12-1.54.42-2.24-3.09-.28-4.07-.28-2-1.12-2.52-2.1,0-2.25-.7-3.09-1-1.54-.42-2,.56-1.68,1.12-2.8,2.1-1.12,2.24,0a6.82,6.82,0,0,0,1.4,3.08c.7,1,0,2.66,1.13,2.66s1.54-.84,2.38,0,2.1.84,3.5.56,1.26-1.54,1.12-2.52-1.54-1-2.66-1a7.12,7.12,0,0,1-3.92-.84c-1.41-.84-.85-2,.14-2.38a3.81,3.81,0,0,0,2-2.67c.14-1-1-2.1-2.1-2.52S461,240,460,239s-.42-1.69.42-2.39a3.35,3.35,0,0,0,1-2.66c0-.84.42-1.54,1.83-2.52s2.24-.84,2.66.28.28,2.1,1.4,2.66,2.1-1,2.95-1.68a3.05,3.05,0,0,0,.56-3.22c-.42-.85-1-1.55-.14-2.53s.84-2.94.84-3.64.56-1.26,1.26-2.1,2.1.28,3.08.84,2.25-.28,3.23-.84,1.26-1.83,2-2.39,1.68.7,2,1.68.7,1,1.82,1.83,2.25-1.69,1.19-2.86c-.45-1-1.27-1.32-1.46-2.27s-1.58-1.71-1.83-2.21.63-1.26.63-1.9v-3.79a3,3,0,0,0-.57-2c-.44-.5.07-1.7.76-2.59h-2.1V196h-3.82c-.86,0-.58,1.43-1.44,2.29s-1.14,2.11-2.19,2.39-1.34,1.63-2.11,2.58a4.75,4.75,0,0,1-3.53,1.82,6.9,6.9,0,0,0-3.73,1.05c-.77.58-.86-1.15-1.53-1.34s-.57-1.24-.57-1.81,0-1.63-1.15-1.63-1.53-.86-2.49-1.24-.38-2.49-1.43-2.49a4.07,4.07,0,0,1-2.58-1.52l-2.12.52v3.84h-9v13.9c0,.92-.83.5-.83,1.55V265c.78.75,2.17,2.67.89,3s-1.92,1.07-1.17,1.82,2,1.06,2.13,2.13.43,1.92-.32,2.13-.53,1.18.21,1.39,2,.43,2.67-.32,1.6-1.49,1.6-.75-.11,2.24.75,1.82a1.32,1.32,0,0,0,.64-2,4.29,4.29,0,0,1-.86-2.77,3.17,3.17,0,0,1,1.28-2.24,2.09,2.09,0,0,1,2.67-.22c.85.75,1.92,0,2.56.86s.32,1.81,1.28,2.13A14.13,14.13,0,0,1,459,272.68Z" transform="translate(-168.03 -83.25)"/><rect class="cls-2" width="18.83" height="32.37"/></svg>