<svg id="base_map" data-name="base map" xmlns="http://www.w3.org/2000/svg" viewBox="0 0 279.76 371.4"><defs><style>.cls-1{fill:#015067;stroke:#fff;stroke-width:0.84px;}.cls-2{fill:none;}</style></defs><path class="cls-1" d="M444.57,446.67a4.24,4.24,0,0,0,.1-1,10.24,10.24,0,0,0-1.08-.1l-7.46-.26c-3.49-.12-3-2.11-3.95-5.38-.92-3.11-.53-4.16,1.81-6.35,1.91-1.79,4.76-3,7-4.37s4.44-1.84,6.3-3.47a8.6,8.6,0,0,0-.15-3.14c-.49-1.45-1.21-2.06-1.21-3.88a35.08,35.08,0,0,0-.49-5.23c-.24-1.58-1.22-3.4-.73-5s1.58-2.43,2.19-3.77a5.39,5.39,0,0,0,.48-2.55,10.71,10.71,0,0,0-3.28-.73c-1.46,0-2.67-1.22-3.52-1.95s-2.86-1-3.53-1.7-.24-2.55,0-3.64-.48-1.83-1.33-1.1-2.55.37-4.13.37-1.34-1.34-3-1.34-2.07-1.09-3.11-1.09h-6.73c-.73.61-1.34.36-2.07,1.21s-1.7.73-1.94,1.58a4.31,4.31,0,0,1-2.07,2.55c-1,.37-1.22,1.58-2.19,2.68s-2.67,1-4,1.94-3-.48-3.77-1.33a4.4,4.4,0,0,0-3-1.22,3.22,3.22,0,0,1-2.68-1.58,6.45,6.45,0,0,0-3.28-2.43c-1.09-.36-1.33,1.22-2.06,1.22a10.5,10.5,0,0,0-3.65.72,35,35,0,0,1-4.13,1.95c-1.76.72-4.13,2.55-6,3.64h9.6v48.8c4.85.17,9.87-.09,14.64.76,5.78,1,11.62,2.53,17.5,2.73,2.8.1,5.07-2.49,7.74-3.71,2.13-1,4.14-.61,6.47-.53,1.75.06,5.86-.5,7.33.56l.09.06a9.61,9.61,0,0,1,1.16-.79A5.26,5.26,0,0,0,444.57,446.67Z" transform="translate(-168.03 -83.25)"/><rect class="cls-2" width="18.83" height="32.37"/></svg>