<svg id="base_map" data-name="base map" xmlns="http://www.w3.org/2000/svg" viewBox="0 0 276.12 182.77"><defs><style>.cls-1{fill:#015067;stroke:#fff;stroke-width:0.84px;}.cls-2{fill:none;}</style></defs><path class="cls-1" d="M415.29,200.45h28.44v13.9c0,.92-.83.5-.83,1.55V265c-1.43-1.44-2.28-1.87-3-1.23s-.67,1.31-1.65,1.55a1.2,1.2,0,0,1-1.46-.82c-.29-.89.28-1.83-.27-2.56a3.94,3.94,0,0,0-2.74-1.55c-1.19-.1-.73-.83-1.56-1.83s-2.28-1.46-2.28-2.92V250.8c0-1.09-.55-1.82-1.55-1.82s-1.56,1-2.29.45a6.07,6.07,0,0,1-1.75-1.51,2.37,2.37,0,0,0-3-.89c-1,.44-3.58.3-3-1.05s1.19-2.68-.15-3.27-1.94-1.64-1.49-2.84-1.19-1.79-1.34-2.83-2.09-.89-3.13-.89a3,3,0,0,1-2.69-1.94c-.44-1.19.45-1,1.2-1.49s.44-1.19,0-2.09.59-1.79.89-2.83,1-1.34.15-2.24-1.94-1.49-1.19-2.68,2.68-2.08,2.08-3.72a9.35,9.35,0,0,0-1.37-2.78,3.87,3.87,0,0,1-.6-1.94,9.5,9.5,0,0,0,1.92-2.11c1-1.8,1.73-2.3,1-3.64s.77-1.53,1-2.49a31.42,31.42,0,0,0,.76-3.65C415.34,201.79,415.29,200.45,415.29,200.45Z" transform="translate(-168.03 -83.25)"/><rect class="cls-2" width="18.83" height="32.37"/></svg>