<svg id="base_map" data-name="base map" xmlns="http://www.w3.org/2000/svg" viewBox="0 0 223.12 278.39"><defs><style>.cls-1{fill:#015067;stroke:#fff;stroke-width:0.84px;}.cls-2{fill:none;}</style></defs><path class="cls-1" d="M369.23,311.65h8c1,0,1.85-.81,3.4-.81h8.43v31.23c0,1.63.28,2.76.92,3.4s1,1.34.43,2-.71,1.63-1.49,2.06a3.36,3.36,0,0,0-1.63,1.84c-.21.7.14,1.55-.21,2.12a4.68,4.68,0,0,0-.52,1.25H373.36v3.77c0,1-2.19,1.21-3.65,1.21H348.93a4.93,4.93,0,0,0-2.55.85,6.44,6.44,0,0,1-2.92.61h-3V343.85a1.31,1.31,0,0,1,1.45-1.34h12.76v-29h14.59Z" transform="translate(-168.03 -83.25)"/><rect class="cls-2" width="18.83" height="32.37"/></svg>