<svg id="base_map" data-name="base map" xmlns="http://www.w3.org/2000/svg" viewBox="0 0 247.74 141.03"><defs><style>.cls-1{fill:#015067;stroke:#fff;stroke-width:0.84px;}.cls-2{fill:none;}</style></defs><path class="cls-1" d="M415.29,177.36h-4.52c-1,0-1.89-1.05-2.83-1.05s-1.06,1.05-1.79,1.05h-3.47c-2.1,0-2.63-.85-6.94-.85H358.21v3.24c0,1.21.93.65,2,1.76a2.61,2.61,0,0,1,.84,3.15c-.37,1.49.46,2,1,2.78a3.42,3.42,0,0,1,.92,2.78c0,1.76-.46,1.58-1.11,2.88s.83.92.65,2.31.83,1,1.3,2.41-.65,1.67-1.58,2.69-.65,2-.65,2.87v3.43c0,1.3-.18,2.69-1.29,1.85a2.23,2.23,0,0,0-3.16,0c-1.11.93.56,1.12.1,2s.28,1.12.28,2.69-.1,2.69-1.12,3.52a3.55,3.55,0,0,0-1.29,3.24c0,1.58-.05,3.11.55,3.71h29.15c1.34,0,2.49-.19,2.49-1.53v-6.74c0-1,1.15-1.15,2.3-1.15s20.33.77,21.09,0a9.5,9.5,0,0,0,1.92-2.11c1-1.8,1.73-2.3,1-3.64s.77-1.53,1-2.49a31.58,31.58,0,0,0,.77-3.65c0-.76-.06-2.1-.06-2.1Z" transform="translate(-168.03 -83.25)"/><rect class="cls-2" width="18.83" height="32.37"/></svg>