<svg id="base_map" data-name="base map" xmlns="http://www.w3.org/2000/svg" viewBox="0 0 366.04 319.98"><defs><style>.cls-1{fill:#015067;stroke:#fff;stroke-width:0.84px;}.cls-2{fill:none;}</style></defs><path class="cls-1" d="M533.64,372.73c.13,4-.89,3.79-2.08,8s-2.09,3.58-2.39,6.12-1.34,3.13-1.34,3.13a35.44,35.44,0,0,1,0,4c-.15.75-1.79,1.2-1.79,1.2v4.62a11.44,11.44,0,0,1-2.09.75c-1.19.3-3.73,2.24-4.77,2.24H515c-1,0-2.09.29-2.84-.75s-1.19-2.39-2.68-2.39h-7.31c0-1.49-1.35-4-2.84-4.48s-3.43,0-5.07.3-2.09-.15-1.79-1.34a4.08,4.08,0,0,0,0-3c-.45-1.35.74-3.14-.15-4.78a5.77,5.77,0,0,1-.9-3.58c0-1.34-.89-1.49-2.68-1.49s-2.84-1.05-4.48-1.05-2.24-2.09-2.68-3.43-1.64-2.38-2.69-3.58-.75-3.28-.75-4-1.34-1.34-1.34-2.09,1.2-.74,1.2-1.64v-3.73c0-1.34-1.2-2.83-2.09-3.73s-1.35-2.09-2.39-2.38A4.84,4.84,0,0,1,471,353h9.62c1.36,0,.71,1.63,2.14,1.63h2.84c.84,0,1.62-1.55,3-1.55h3.1a2.47,2.47,0,0,0,1.3,2.57,4.63,4.63,0,0,1,2.81,2.19c1.1,1.71.74,2,2.08,2.69s1.34.86,1.34,1.71S499,365,500.54,365a2.56,2.56,0,0,1,2.69,1.59c.49,1,.86,2.8,2.08,2.8h1.22v2.32H521.3c1.59,0,1,1,2.81,1Z" transform="translate(-168.03 -83.25)"/><rect class="cls-2" width="18.83" height="32.37"/></svg>