<svg id="base_map" data-name="base map" xmlns="http://www.w3.org/2000/svg" viewBox="0 0 285.35 81.89"><defs><style>.cls-1{fill:#015067;stroke:#fff;stroke-width:0.84px;}.cls-2{fill:none;}</style></defs><path class="cls-1" d="M452.38,134.86a3,3,0,0,1,0,3.56c-.43.63-1.61.8-2.05,1.6a5,5,0,0,0-.63,2.23c0,.53-.8.71-.8,1.69a2.54,2.54,0,0,1-.89,2.32,4.28,4.28,0,0,0-1.87,1.7c-.36.8-1.61,1.69-1.61,2.76s-.89,1.25-1.16,2.5a12.11,12.11,0,0,0-.18,2.94c0,.89-.62,2-.62,2.94,0,1.34-.62,1.61-.62,3.93h-6c-1.78,0-2.23,1.69-3.21,1.69a4.43,4.43,0,0,1-2.85-.71c-.72-.63-2.23-.73-3.75-.73H415.29v-5.16c0-.84-1.05-1.89-2.2-2.94s-5-4.83-5.68-5.47-1.79-.52-1.79-1.57V138c0-.75.89-.75.89-1.81v-6.35h9.09c1.31,0,1.53-1.32,2.4-.66a3.3,3.3,0,0,0,3.51.22c1.31-.66,1.09-2.85,2.19-3.07a8.79,8.79,0,0,0,4.38-2.4c1.09-1.32,3.28-1.1,3.28-2.19s.66-2.63,2-2.63a3.55,3.55,0,0,0,3.5-1.75,9.51,9.51,0,0,0,1.32-3.72c-.22,1.31,1.31,2.41,1.31,3.5,0,2,2.09-.77,3.72-1.09,1.1-.22,2.63-.22,3.07.65s.22,3.07,1.31,2.85,1.53.44,1.75,1.31,1.1.44,2,.22,1.53,1.31.66,2.19a4.09,4.09,0,0,0-1.1,3.06c0,1.1-.65,2.63,0,3.51s.44,1.75.22,2.84S451.94,133.77,452.38,134.86Z" transform="translate(-168.03 -83.25)"/><rect class="cls-2" width="18.83" height="32.37"/></svg>