<svg id="base_map" data-name="base map" xmlns="http://www.w3.org/2000/svg" viewBox="0 0 443.92 355.71"><defs><style>.cls-1{fill:#015067;stroke:#fff;stroke-width:0.84px;}.cls-2{fill:none;}</style></defs><path class="cls-1" d="M593.34,432.56a21.81,21.81,0,0,1,1,4.52c0,1.1.24,1.47,1.83,1.47h10.74c0-1.84,1-3.06,1-4.16s1.47-2.56,1.83-3.66c.43-1.27,2.32-2.38,1.72-3.13v-2c.66-1-1.72-1.17-2.69-2.28s-2.57-1.46-3.18-2.44-.85-2.2-1.34-3-1.59-1.22-1.59-2.44-1-.86-1-2.45.17-19,.17-19l-6.07-.72s-3.83-.49-4-.26a23.61,23.61,0,0,0-2.71,6.43c-.37,1.34-1.71,3.18-2.93,3.18h-3.06c-1,0-1.58,1.09-2.56,1.09s-1.59.74-2.32,1.1-1.71,1.47-1.22,2.57a4.69,4.69,0,0,1,.73,2.44v7.69s2.08.86,1.83,2,1,1.83,2.08,1.22,2.44,1.58,2.2,3.17,1,3.18,1.95,4a5.81,5.81,0,0,0,3.66,1.83A4.18,4.18,0,0,1,593.34,432.56Z" transform="translate(-168.03 -83.25)"/><rect class="cls-2" width="18.83" height="32.37"/></svg>