<svg id="base_map" data-name="base map" xmlns="http://www.w3.org/2000/svg" viewBox="0 0 340.13 271.79"><defs><style>.cls-1{fill:#015067;stroke:#fff;stroke-width:0.84px;}.cls-2{fill:none;}</style></defs><path class="cls-1" d="M491.67,353.07h-3.1c-1.36,0-2.14,1.55-3,1.55h-2.84c-1.43,0-.78-1.63-2.14-1.63H468.66v-2.7c0-.7-1.74-1.31-2.09-2.62s-.88-2.1-.35-3.15,1-1.83.7-2.79.26-1.66.61-2.45,0-1.75,0-2.45,1.13-1.13,1.13-2.27v-3.49c0-1-1-.52-1.22-1.83s-1.31-1.31-1.31-2.28-.44-1.74-.44-2.62.09-2.88-.78-2.88-2,.35-2.62-.52a2.25,2.25,0,0,1,.09-2.54c.43-.87-1-1.22-1.49-2s.09-1.58,1.05-1.93.61-1,.61-1.74v-5.07c0-.87-1.05-1.05-1.05-1.92v-2.88c0-.62.79-1.14,1.84-1.14s1.92-1.14,2.44-2.27,1.4-.61,2.1-1.57h0c.53.53,1.13,1.94,2.28,1.31s1.69-.89,2.4-.71,2.22.62,2.49,1.6.89,1.69.36,2.58-.54,2.75.26,3.46,1.34,1.25.89,2.23-1.42,1.6-1.42,2.66v3.56c0,1.07.62,2.49,1.42,2.49h3.2c.89,0,1.16-1,2.49-1s1.2,1.82,2.13.89.63-1.78.27-2.85-1.16-3.11-2.22-3.11h-2.85c-.89,0-1.33-2.13,0-2.13s2.14-.44,3.91-.44a3.72,3.72,0,0,1,3.12,1.42c.53.62,1.68,1.6,1.77,2.75s.89,2.31.09,3.47a6.74,6.74,0,0,0-1.15,3.91,4.16,4.16,0,0,1-1.78,3.38c-1,.62-3.38-.09-4,.89a2.14,2.14,0,0,0,0,2.75,3.69,3.69,0,0,0,2.58,1.34h3.46c.89,0,1.69-1,2.85-1s1.68.89,2.75.89a10.19,10.19,0,0,0,3.47-.71,8.69,8.69,0,0,0,2.67-1.43,1.34,1.34,0,0,1,2.3.63c.54,1.33,1.7,2.13,1.7,3.28a11.66,11.66,0,0,0,.8,3.83c.44,1.15.17,1.95,1.06,2.66s2.1.11,2.52,1.37a4.23,4.23,0,0,1-1.17,1.27c-.73.48-.49,1.22-.73,1.95s-1.47.12-2.2,1.46-1.47,1.47-1.47,2.81-2.07-.24-2.56.61a7.49,7.49,0,0,0-1.47,2.93,17.8,17.8,0,0,0,0,2.69h-5.49C491.75,351.61,491.72,352.09,491.67,353.07Z" transform="translate(-168.03 -83.25)"/><rect class="cls-2" width="18.83" height="32.37"/></svg>