<svg id="base_map" data-name="base map" xmlns="http://www.w3.org/2000/svg" viewBox="0 0 171.14 65.59"><defs><style>.cls-1{fill:#015067;stroke:#fff;stroke-width:0.84px;}.cls-2{fill:none;}</style></defs><path class="cls-1" d="M326.47,83.58c-7.14-.25-14.12-.38-21.13-.3,0,.63,0,1.15-.08,1.45-.22,1.53-1.1,2-.88,3.94s1.1,2.41,3.07,3.5,3.06,2.19,1.31,2.85.44,1.75,1.31,3.28,1.75,2,.44,2.85,0,2.19,0,3.5a4.89,4.89,0,0,1-.87,2.85,4.39,4.39,0,0,0,0,3.06H312v19.49c0,2.19-.87,3.5-.87,5.25s.65,3.72.65,4.6V148h19.27v-4.16h7.66v-2.19a26.17,26.17,0,0,0-1.53-4.38,18.62,18.62,0,0,1-.88-5.47V121.51c0-1.31-1.31-1.31-1.31-2.85v-3.94h-4.38v-31Z" transform="translate(-168.03 -82.83)"/><rect class="cls-2" y="0.42" width="18.83" height="32.37"/></svg>