<svg id="base_map" data-name="base map" xmlns="http://www.w3.org/2000/svg" viewBox="0 0 533.16 353.21"><defs><style>.cls-1{fill:#015067;stroke:#fff;stroke-width:0.84px;}.cls-2{fill:none;}</style></defs><path class="cls-1" d="M655.4,433.38c.71,3.29,3.79,3.12,3.79,1.71,0-1.86,4.57-1,7.24-1-.41-4.52-4.76.33-4.6-4.18.06-1.62-.54-2.75,1.28-2.69,1.13,0,1.39.49,1.29,1.37-.35.95.21.66.46.46,1.72-1.37,4.52-3.24,4.17-.29-.29.68-.1,1.25.62.42.92-1.05,1.44-2,2.55-.81,1.58,1.68,1.66,1.38,3.85,1.66s2.28,0,3.85,1.68a2.87,2.87,0,0,0,2.51,1c.62,0,.35-.75.19-1.09l-1.32-2.87c-.37-.88,0-1.19,1.29-1.24a3.52,3.52,0,0,0,3.11-1.86c1.31-2.28-.79-2.41,2.83-2.28,2.76.09,2.07,1.48,4.28,2.53a9.75,9.75,0,0,0,3.53.19c.88,0,.73-.53.51-.76A4.79,4.79,0,0,1,695.3,423c-.08-1.08-.63-1.15-1-.85-1.74,1.45-3.85,2.64-3.73-.69,0-1.5-1.48-2.4-3-2.75-1.69-.37-.89-1.07-.39-1.56a2.39,2.39,0,0,1,1.52-.89c1.09,0,3.36.51,4.36.15,1.69-.61,1.64-2.31,3.64-2.24,1.44.05,2.13-.73,3-1.68.55-.48.55-1-.28-1-2.36-.08-4.6.24-7,.16-1.5,0-1-.74-.55-1.23,1.28-1.43,3-3.41,4.16-3.37,2.94.1,4.34,1.07,4.45-2.22,0-1.61.63-2.33-1.09-2.39s-1.16-.48-1.11-2.05c.08-2.35-4.33,1.39-4.63,1.68-1.38,1.3-1.94,4.86-2.6,6.64-.28.75-2.67.63-4,.41-.54-.09-1.24,0-.88-1.21.31-1.08.68-2.33.11-3.38-.27-.5-1.91-.06-2.35-.28-1.27-.64-2.74-2.69-3.88-4.1-.57-.59-.31-1,.42-.75,1.77.61,2.33-2.29,4.08-2.23,1.58.06,2,.51,2-1.13,0-1.05.31-1.18-.69-1.22-2.11-.07-4.25,0-6.34-.22-1.84-.14-2.48-.35-3.35-1.15-.37-.33-1.44-.68-1.48,1.44,0,1.73-.81,2.69-2.79,4.54-1.21,1.14-1.65,2-3.3,1.94-1.82-.07-1.1.68-1.27,2.3-.27,2.45-.18,5-.26,7.46-.13,3.62-.75.34-2.45,1.93-1.24,1.15,1.26,2.4-1.26,2.32-2.21-.08-6.28.58-8.27-.29-1.82-.81-3.54-5.45-2.12-7.18s2.31,1.81,2.43-1.91c0-.69-2.13-.66-2.61-.22-2,1.86-3.68,1.94-5.58,3.14a2.76,2.76,0,0,1-2.22-.17c-1.58-.66-2.73-.64-3.8-3.61-1.06,1.11-1.84,2.77-2.77,2.57s-1-2.6-3-1.35-3.52,2-4.93,1-3,1-3.47,2-1.3,2,.15,3,2.23,1.92,3.79,1.77,3.63-.21,4.15,1.66,1,3.16.67,3.78a3.32,3.32,0,0,1-.88,1,23.25,23.25,0,0,0,2,4c1.51,1.86.51,2.5,2.29,3.29,1.43.63,3.15-.79,4.79-.57s2.28,2.37,2,3.14c-.35,1,0,1.3,1.08,1.65a5.3,5.3,0,0,0,3.43-.36,2,2,0,0,1,2.93.21C654.37,432.69,654.88,431,655.4,433.38Z" transform="translate(-168.03 -83.25)"/><rect class="cls-2" width="18.83" height="32.37"/></svg>