<svg id="base_map" data-name="base map" xmlns="http://www.w3.org/2000/svg" viewBox="0 0 469.45 434.66"><defs><style>.cls-1{fill:none;stroke:#754c29;stroke-linejoin:round;stroke-width:3px;stroke-dasharray:3 3;}</style></defs><path class="cls-1" d="M657.39,343a26,26,0,0,1,0,4.56c-.09,2.58-2.36-.28-2.45,2.29,0,.79.24,3.56-.49,3.54-4.18-.15-1.4,4-1.54,7-.06,1.42-2,3.06-6.22,6.38-1.38,1.07-.44,3.38-.47,4.1a4,4,0,0,1-2.12,2.54c-1.92.31-1.56,1.09-2.34,2.23-1.35.52-.45,1.26-.05,1.55.61.46,0,1.83,1.54,1.89,1.81.06,1.63,2,0,2.34-2,.13.34,1.46.82,3a10.41,10.41,0,0,1,0,3c-.06,1.62-.46,1.17-2,1.11-1,0,.08,1.87-.44,2.37s-2.35-.78-2.38.28c0,.47,0,.95,0,1.42" transform="translate(-612.69 -110.8)"/><path class="cls-1" d="M639.2,392.58c0,.59,0,1.18-.07,1.77L639,397.9a4.6,4.6,0,0,0-.06,1.63c.2,1.13,1,1.83,2,2.87a1.19,1.19,0,0,0,.91.34l1.37,0c.72,0,.27,2.77.24,3.56-.06,1.7.41,4.09-.3,5.26-.16.26-.49.63-.42.66a.94.94,0,0,1,.5.52,3.29,3.29,0,0,1-.07,1.85c0,.79,0,1.59-.08,2.38l1.65,1.76c.21.22-.17.52-.47.53-2.12.05-1.2,2.66-1.43,4.79-.14,1.35.18,1.82-.73,2-.57.1-.57.41.15.57s.58,1.14.26,1.74a7.24,7.24,0,0,1-.48.79" transform="translate(-612.69 -110.8)"/><path class="cls-1" d="M642,429.17a30.71,30.71,0,0,1-4.42,4.41c-2.84,2.64-4.7,3.65-4.84,7.63-.14,4.16-5.21,10.8-9.49,10.65-.73,0-.47,2.75-.5,3.55,0,1.53.59,1.86,1.65,3,.84.91-.06,2.37.51,3,.79.87,2.05-.63,2.72.84,1.19,2.58,2.26,6,5.29,3.15l3.71-3.44c.53-.5,1.91.08,2.63-.07l9.3-2c1.88-.4,3.92.34,5.85-.08,5.47-1.18,10.22-2.56,15.72-1,2.71.78,6,2.92,8.19.86,1.83-1.72,3.86-1.06,6.32-1,5.12.17,10-.24,14.76,1.85,4.94,2.19,9.81,5,14.85,6.89,5.62,2.12,11.24,4.21,16.87,6.31a25.35,25.35,0,0,1,6.23,3.66c2.58,1.85,3.49,2.22,6.63,2.33h.11" transform="translate(-612.69 -110.8)"/><path class="cls-1" d="M882,159.87c.44-.57,2.33.81,2.37-.29,0-.61-.29-2,.45-2,2.76.09,2.05-1,2.14-3.46,0-1.38-.69-2.09-1.59-3-.54-.52-.82-.74-.76.83.12,3-1.09,5.54-5.26,5.4-1.73-.06-4.41.67-4.34-1.34,0-1.57.11-3.14.16-4.71.09-2.58,2.38.3,2.5-3.1,0-.8,4.34-2.68,5.14-2.65,1.58.05,2,.51,2.05-1.12,0-.88.28-1.1-.48-1.38l-6-2.24c-2.21-.82-2.17.66-2.07-2.27.06-1.57.78-3.14.84-4.72.09-2.64.31-2.94,2.28-4.78,1-.89,2.55-.07,3.86-1.3,1.54-1.44,3.37-7.19,1.79-8.89a31.28,31.28,0,0,1-2-4.18c-.51-1.07-1.83-.88-3.57.74-.3.88.36,1.19,1.07,1.76s-2.63,1-1.23,2.93c1.58,2.22,1.24,1.81-.71,3.64-.69.64-2.83.14-3.81.11-1.75-.06-1.11-.8-1.09-2.41,0-2.13.12-2.4,1.66-3.85.61-.58,1.67-2.24.94-3.15-.61-.76-8.36-.21-9.5-.25l-1.06,0s0,.06,0,.09" transform="translate(-612.69 -110.8)"/><path class="cls-1" d="M878.69,197.75c1.34.13,2,.06,2-2,0-.57,1.47-.64,1.93-.36s.78,1.24,1.08.87c1-1.24,4.16-1.42,4.22-.24s-.65,4-.29,4.35c1.08,1.15,2.37-.11,2.41-1.11l.27-7.89c.06-1.62-.54-2.77,1.29-2.7,1.09,0,1.38.45,1.31,1.26,0,.32.23.76.48.55,1.7-1.42,4.19-3.19,4.25-5.16.1-2.82.25-3.56,2-5.29.31-.33.69-.9,0-.94-1.18-.06-1.73.18-1.78,1.49-.05,1.54-.72,1.81-1.87,2.88s-4.54.46-6.24.4c-2.51-.09-1.39-3-1.31-5.17s-.09-2,2.06-1.93c.75,0,.43-1.69.45-2.34.15-4-2.33-2.4-4.46-.4-1.05,1-4.94.13-5.79-.79-1.88-2-3.81-3.21-3.71-6a4.21,4.21,0,0,1,2.53-3.51c.68-.39,2.53,1.17,3.78,2.53,1.79,1.93-.54,3.18,2.73,3.29,1.9.07,3.62.45,2.8-2.26s-3-1.7-4.65-2.54c-1.17-.61-3.3-3.36-2.19-4.83" transform="translate(-612.69 -110.8)"/><path class="cls-1" d="M794.57,114l-52.38.37c-2.32,0-4.63,0-7,0" transform="translate(-612.69 -110.8)"/><path class="cls-1" d="M850.79,113.75l-3.13-.1c-11.7-.41-23.5.1-35.21.2l-17.88.14" transform="translate(-612.69 -110.8)"/><path class="cls-1" d="M865.76,114.29s0-.06,0-.09c-4.5-.15-10.18-.3-15-.45" transform="translate(-612.69 -110.8)"/><path class="cls-1" d="M857.59,248.55a3.61,3.61,0,0,0,.55-1.4c0-.56-.53-1.07-.49-1.6.17-2.31.19-4.62.25-6.93a1.06,1.06,0,0,1,.74-1,17.87,17.87,0,0,0,3.63-2.24c.27-.21.46-.08.44.14-.13,1.22-.48,3.69-.12,4.21,1.06,1.5,2.38-.39,2.29,2.45,0,1.2,4.2-1.07.4-4.47-1.87-1.68,1.06-1.58,1.83-2.56s2.18-4,2.65-4.39c1.77-1.64,2.56,1.35,2.68-2.16a9,9,0,0,1,5-7.31c1.68-.75,3.77.5,4.81-2.2s-.49-2.26-2.27-2.47c-.86-.1-4.76.29-4.73-.53s-.17-4.36.53-4.34c3.39.12.55,2.38,3.1,2.47,1.65.06,3.51.89,3.58-1.06s2.47-2.28,2.53-3.82c0-.45.3-1.58.06-1.79l-.58-.47a9.69,9.69,0,0,0-1.8.16c-1.63.06-3.31-.12-4.94-.17-1.8-.07-4.57.77-4.5-1.34.11-3-.57-8.32,3.85-8.17.62,0,1.15.09,1.6.14" transform="translate(-612.69 -110.8)"/><line class="cls-1" x1="159.25" y1="118.69" x2="187.68" y2="118.69"/><path class="cls-1" d="M876.05,327.88c-14.22.35-28.45.63-42.64,1-.7.12-.53-.48-.25-1.6a3.72,3.72,0,0,0-1.12-3.09c-1-1.22-1.54.7-3.37.84-.84.07-2.52-1.26-1.82-2.24-1.1,1.12-1.63,3.21-2.33,4.17" transform="translate(-612.69 -110.8)"/><path class="cls-1" d="M906.61,359.37a2.54,2.54,0,0,1,0-1.89c.42-1-1-.74-.84-1.68s1.47-1.48,1.05-2.63a4.9,4.9,0,0,1,0-3.26,4.82,4.82,0,0,0-.42-3.26c-.53-1.37.63-1.68-.21-2.63s-.63-1.47-.21-2.63,0-1.47-.53-2.63-1-2.73-.42-3.78,2-2.42,1.89-4.1a10.66,10.66,0,0,1,.77-4l-7.17.25q-12.21.43-24.47.72" transform="translate(-612.69 -110.8)"/><path class="cls-1" d="M900.79,366.45c-.22,1-1,1.32-1.87,1.76s0,1.76-1.1,2.42-2.2.44-2.75,1.21-2.09,1.76-1.21,2.53,1.54,3.41.55,4.51.33,1.76.33,3v3.85c0,1-1.76,1.65-.77,2.64a4.06,4.06,0,0,1,1.21,3.85c-.44,1.21.88,1,2,2.53s3.74,1.87,4.18,2.75.66.76,1.21,1,2.2.11,2.86,1.1,2.86,1.32,3.18,3.41.66,2.86,1.65,3.08a2.52,2.52,0,0,1,2.2,2.09,3.67,3.67,0,0,0,2.86,2.42c1,.22.33,2.09,1.32,2.42s1.76.77,1.54,1.86a1.73,1.73,0,0,0,1.87,1.87c.88-.11,1.54-.76,1.87-2.08a5.65,5.65,0,0,1,2-3.09c1.53-1.21,1.69-.07,2.85.66.88.55,1.87-.76,2.75.23s.44,2.2,1.76,2.2h3c.66,0,1.76-1.43,2.31-2.64a13.24,13.24,0,0,1,1.8-2.68,30.34,30.34,0,0,1,2.08-2.86c.84-1,1.14-3.1,2.07-4.67l3.75-3.9" transform="translate(-612.69 -110.8)"/><path class="cls-1" d="M932,326.47h-.07c-7.94,0-16.14.18-24.25.44a10.66,10.66,0,0,0-.77,4c.11,1.68-1.36,3.05-1.89,4.1s-.1,2.63.42,3.78.95,1.48.53,2.63-.63,1.69.21,2.63-.32,1.26.21,2.63a4.82,4.82,0,0,1,.42,3.26,4.9,4.9,0,0,0,0,3.26c.42,1.15-1,1.68-1.05,2.63s1.26.73.84,1.68a2.54,2.54,0,0,0,0,1.89s-.16,2.47-1.42,2.47-1.8.31-2.42,1.76c-.33.76-1.76,1.86-2,2.85" transform="translate(-612.69 -110.8)"/><path class="cls-1" d="M825.31,382v-2.7c0-.7-1.75-1.31-2.1-2.62s-.87-2.1-.35-3.15,1-1.83.7-2.8.27-1.65.62-2.44a5.94,5.94,0,0,0,0-2.45c0-.7,1.13-1.13,1.13-2.27v-3.49c0-1-1-.53-1.22-1.84s-1.31-1.31-1.31-2.27-.44-1.74-.44-2.62.09-2.88-.79-2.88-2,.35-2.62-.52a2.25,2.25,0,0,1,.09-2.54c.44-.87-1-1.22-1.48-2s.08-1.57,1-1.92.62-1,.62-1.75v-5.06c0-.88-1.05-1-1.05-1.92V331.9c0-.61.78-1.13,1.83-1.13s1.92-1.14,2.45-2.27,1.4-.62,2.09-1.58h0" transform="translate(-612.69 -110.8)"/><path class="cls-1" d="M901.34,397.46c-.44-.88-3.08-1.21-4.18-2.75s-2.42-1.32-2-2.53a4.06,4.06,0,0,0-1.21-3.85c-1-1,.77-1.65.77-2.64v-3.85c0-1.2-1.32-1.86-.33-3s.33-3.74-.55-4.51.66-1.76,1.21-2.53,1.65-.55,2.75-1.21.22-2,1.1-2.42,1.65-.77,1.87-1.76,1.65-2.09,2-2.85c.62-1.45,1.15-1.76,2.42-1.76s1.42-2.47,1.42-2.47" transform="translate(-612.69 -110.8)"/><path class="cls-1" d="M871.64,431.82c-1,0-2.09.3-2.83-.74s-1.2-2.39-2.69-2.39h-7.31" transform="translate(-612.69 -110.8)"/><path class="cls-1" d="M895.67,428.39" transform="translate(-612.69 -110.8)"/><path class="cls-1" d="M901.34,397.46c.44.87.66.76,1.21,1s2.2.11,2.86,1.1,2.86,1.32,3.18,3.41.66,2.86,1.65,3.08a2.52,2.52,0,0,1,2.2,2.09,3.67,3.67,0,0,0,2.86,2.42c1,.22.33,2.09,1.32,2.42s1.76.77,1.54,1.86a1.73,1.73,0,0,0,1.87,1.87c.88-.11,1.54-.76,1.87-2.08a5.65,5.65,0,0,1,2-3.09c1.53-1.21,1.69-.07,2.85.66,0,0-.55,1.45-1,2.42a17.87,17.87,0,0,0-.73,3.06,8.21,8.21,0,0,0-3,.73,31.67,31.67,0,0,1-6.87,1.49c-1.34,0-2.53,1.65-4.18,1.5" transform="translate(-612.69 -110.8)"/><path class="cls-1" d="M946.22,397.86" transform="translate(-612.69 -110.8)"/><path class="cls-1" d="M951.58,326.29c-6.53.11-13.07.17-19.57.18" transform="translate(-612.69 -110.8)"/><path class="cls-1" d="M999.58,365.41c-.93-.28.59-1.77.22-2.24s-.39.39-1.09-.21-.32-1.76-1.15-2.29.34-1.11.81-2.87c.25-.92-1-1.2-.85-2.16.23-2.1,1-1.32,1-3.25,0-1.19.08-2.38.12-3.56a3.61,3.61,0,0,1,.07-1.86c.46-1.22,2.77-.36,3.45-2.78.21-.75-1.13-1.82-1-3a1.73,1.73,0,0,1,2.1-1.73c.14,0,.31-.14,0-.38l-1.32-1.42c-.18-.19-.09-.47.1-.45,2.9.36,1.35-2.74,2-4.14.5-.93-.07-1.15,0-1.79.09-2.61,1.37.19,2.42-1.1.68-.83,1-3.78,1.11-5.43,0-.27,0-.71-.3-.37-.55.56-1,1.14-1.61,1.69-.21.25-.57.32-.48-.22s0-.86,0-1.29-.33-.54-.52-.52c-13.24,1.56-29.35,1.68-43.44,2.07q-4.77.14-9.57.22" transform="translate(-612.69 -110.8)"/><path class="cls-1" d="M1017.08,418.19h.06c1,0,0-1.93.64-2.5,1.22-1.13,1.79-2.12,3.46-2.06.72,0,3,.47,3.55.12,1.37-1-1.06-2.4.69-2a2.19,2.19,0,0,0,1.86-.81c.6-1.07-1.42-2.6-2.13-.48a1.87,1.87,0,0,1-2.71.82,3.36,3.36,0,0,1-.79-1.1,13.28,13.28,0,0,1-1.39-4.1c.12-3.57-2.37-.49-2.24-4.08.06-1.62-1.43-1.9-.72-2.86s1.46-6.13,1.06-7-1.22,3.63-2.43,2.29-1.67-3.73-2.2-4.83.07-1.88.13-3.55-.39-1.2-2-1.25c-.81,0-.21-1.72-.29-2.39s.52-2.36-.28-2.38c-1.58-.06-2,.37-2-1.26.05-1.3-1.65-1.37-2.5-1.44s-1.24-1.36-2.11-2.26.57-1.58.08-2.38-1.57-.38-2.52-.23-.35-1-1.31-1.45.64-.81-.6-1.81,0-3.56-.89-3.84" transform="translate(-612.69 -110.8)"/><path class="cls-1" d="M998,434.13c-1-2.78.62-5.15,2.44-6.85.84-.79,2.31.15,3.42-.89,1.72-1.61,1.46-1.61,3.07.11,3.13,3.34,3.25-1.08,3.33-3.44,0-.73,2.76-.27,3.56-.25,1.89.07,1-.7,1.26-2.3.43-2.23-.51-2.41,2-2.32" transform="translate(-612.69 -110.8)"/><path class="cls-1" d="M1023.07,463.09c-.41-4.52-4.75.33-4.59-4.19,0-1.61-.55-2.75,1.27-2.68,1.14,0,1.4.49,1.3,1.37-.35,1,.21.66.46.46,1.72-1.38,4.52-3.24,4.16-.29-.28.68-.1,1.25.63.42.92-1.05,1.43-2,2.55-.81,1.57,1.68,1.65,1.37,3.85,1.66s2.28,0,3.84,1.68a2.87,2.87,0,0,0,2.52,1c.62.05.34-.74.19-1.09l-1.32-2.86c-.38-.88,0-1.19,1.28-1.24a3.52,3.52,0,0,0,3.11-1.87c1.32-2.28-.78-2.4,2.84-2.28,2.76.1,2.06,1.49,4.28,2.53a9.45,9.45,0,0,0,3.52.2c.88,0,.74-.54.52-.76A4.72,4.72,0,0,1,1052,452c-.08-1.08-.64-1.16-1-.86-1.73,1.46-3.84,2.65-3.73-.69.06-1.49-1.47-2.39-2.94-2.75-1.7-.36-.9-1.06-.4-1.55a2.48,2.48,0,0,1,1.52-.9c1.1,0,3.36.52,4.37.16,1.69-.61,1.63-2.31,3.63-2.24,1.45.05,2.14-.73,3-1.68.56-.48.56-1-.28-1-2.35-.08-4.6.24-7,.16-1.5.05-1-.75-.55-1.23,1.28-1.44,3-3.41,4.16-3.37,2.93.1,4.34,1.06,4.45-2.22,0-1.61.63-2.33-1.1-2.39s-1.16-.49-1.1-2.06c.08-2.34-4.33,1.4-4.63,1.68-1.39,1.31-1.94,4.87-2.61,6.65-.27.75-2.66.62-4,.41-.55-.09-1.25,0-.89-1.21.31-1.08.68-2.33.12-3.38-.27-.5-1.92-.06-2.35-.28-1.28-.65-2.75-2.69-3.88-4.1-.57-.59-.31-1,.42-.75,1.76.6,2.32-2.29,4.07-2.23,1.58.05,2,.51,2-1.13,0-1.05.3-1.18-.7-1.22-2.1-.07-4.24-.06-6.34-.22-1.84-.14-2.48-.35-3.35-1.15-.36-.34-1.43-.69-1.48,1.44,0,1.73-.8,2.69-2.78,4.54-1.22,1.14-1.66,2-3.31,1.93-1.81-.06-1.09.69-1.27,2.31-.26,2.45-.17,5-.26,7.46-.12,3.62-.75.34-2.44,1.92-1.24,1.16,1.26,2.41-1.26,2.32-2.21-.07-6.29.59-8.28-.29-1.82-.8-3.54-5.44-2.12-7.17s2.31,1.81,2.44-1.91c0-.69-2.13-.66-2.61-.22-2,1.86-3.68,1.94-5.59,3.14a2.73,2.73,0,0,1-2.22-.18c-1.57-.65-2.72-.64-3.79-3.61" transform="translate(-612.69 -110.8)"/><path class="cls-1" d="M986,489a4.83,4.83,0,0,1,2.68-.62l5.47.19c2.76.1,2.17-1.43,4.45-2.22,3.07-1.06,2.32,1.72,2.25,3.64-.08,2.4-.34,3.33,1.35,5.13,1.35,1.43.71,3.49.65,5.39,0,.57,0,1.05-.06,1.44-.21,1.2-.26,1.9.73,1.51,2.35-.94,5.43-.16,8-.08,1.81.07,3.63,1.61,5.18,2.46,1.18.64,2.7.27,4,1,3.74,2,6.79,4.23,11.09,4.38,2.06.07,2.54,2.47,4.13,2.52s3.58.57,4.28,2.52c.29.8-.73,4.71.21,4.74,2.92.1,2,1.33,1.87,4.06,0,1,2.45,1,3.48,2.06a12.07,12.07,0,0,0,3.49,1.68c.26.86-.39,2.81-.93,4.75-.31,1.09-1.77,2.6-2.58,3.48s-3.52,2.26-3.57,3.71c-.06,1.67,0,2.15.71,2.92,1,.94,1.85-.19,2.26-.9a27.9,27.9,0,0,0,1.35-2.57c.43-1,0-2,.64-2.64,2.28-2.13,3.91-8.27,6.87-9,1.11-.26,3.57.12,4.74.17,2.33.08,2.38-.29,2.3,2.08-.1,2.77,3.43,3,5.75,3,.57.11,1.55-.26.19-1.13-.4-.43-1.07-1.46-.23-2.27,1.79-1.73,3.34-3.63,5.89-3.54,5.43.19.54-2.43,3.09-4.81,1.68-1.58,2.26-1.83,2.34-4.12,0-1.16,2.36.78,2.44-1.46,0-.8.48-3.54-.26-3.57-1.73-.06-2.33-.13-2.07-1.72.23-.67-.08-.67-1.31.06-1.77,1.06-4.46,2.3-5.71,1.34s1.52-2.3-1.1-2.4c-2.27-.07-.35-.91-1.1-2.41-.48-1-1.81-1.5-2.29-2.46-.75-1.51,1.17-2.32-1.1-2.4s-.37-.91-1.1-2.43c-.29-.59-2.1-2.62-2.55-2.21-1.22,1.14-2.18,1.58-2.24,3.24,0,1.35-.91,1.75-2.41,1.11-2.65-1.13-1.39-4.8-3.37-4.87s-5.95.68-5.88-1.38c.08-2.25-.88-.41-2.32-1.26a7.78,7.78,0,0,1-1.79-1.86c-.2-.37-.77-.53-.62.15.43,1.86-1.11,1.59-3.08,1.52-2.42-.08-4.09.58-4-1.63.24-.77-.12-.77-.56-.58l-3.11,1.43c-1.12.66-.94-.16-.93-.43.07-1.62-.79-2.28-2.08-3.66-.38-.41.85-1.42,1.66-2.08.49-.28.65-.59-.7-.5a8.06,8.06,0,0,1-3.63-.51c-.36-.34,0-2,.21-3.31,0-.47.36-1.41-.72-.61s-3.21,1.95-4,1.78-2.55-2.94-3.09-3.33c-.7-.5-1.9-1-3.12-1.8a1.23,1.23,0,0,1-.51-1.66c.29-.85.85-1.22,1.74-2,.2-.19.72-.88-.63-.72s-1.14-.86-1.09-2.56c.08-2.31-.25-2.4,2.09-2.31.74,0,.47-2.74.5-3.54.06-1.82,1.15-1.15,2.77-1.09,1.16,0,6.8.82,8.23.52.89,1.38-.65,2.12,2.8,2.24.71,0,1.46,1,2.06,1.72.43.76.8.4.81-.38,0-1.32-.44-1.6-2-1.66-1.11,0-1.95-2.86-3.62-2.46-1.14-.32-1.55.21-3-1.33-.69-.74-3.11-.62-3.17-1.31" transform="translate(-612.69 -110.8)"/><path class="cls-1" d="M963.54,467.59h2.81c.85,0,1.1,1.1,2.2,1.1s1.09,2.2,1.09,3.18-1.09,1.09-1.09,2.19,1.09,1.71,1.09,2.93v2.69c0,.73-1.34.37-2.07,1.47s-.37,1.46.24,2.44,1,3.05,1.83,3.78,1.59,1.35,1.59,2.44,1,1.23,2,1.47a14.77,14.77,0,0,0,2.93.49c.73,0,2.32-.73,2.93-.12s1.52,2.92,2.62,3.16c.09-2.58-.79-4.39,2.15-4.28.91,0,1.5-1,2.14-1.58" transform="translate(-612.69 -110.8)"/><path class="cls-1" d="M942.78,431.57h-3c-1,0-1.59,1.1-2.56,1.1s-1.59.74-2.32,1.1-1.71,1.47-1.23,2.57a4.67,4.67,0,0,1,.74,2.44v7.69s2.07.85,1.83,1.95,1,1.84,2.07,1.22,2.45,1.59,2.2,3.18,1,3.17,2,4a5.84,5.84,0,0,0,3.66,1.83,4.18,4.18,0,0,1,3.91,2.93,21.69,21.69,0,0,1,1,4.52c0,1.1.25,1.46,1.83,1.46h10.75" transform="translate(-612.69 -110.8)"/><path class="cls-1" d="M925,417.66a17.87,17.87,0,0,1,.73-3.06c.49-1,1-2.42,1-2.42.88.55,1.87-.76,2.75.23s.44,2.2,1.76,2.2h3c.66,0,1.76-1.43,2.31-2.64.22-.5,2-3,4-5.74,1.08-1.47,1.08-3.72,2.35-5,.79-.78,2.07-.16,3.33-1.32,1.74-1.6,3.57,1.5,3.84,1.32,2.89-2,.36-.31,1.52-.66.3-.09,3.86-1.78,2.5,0-1.13,1.49,4.52.23,3.31,2.15-.75,1.17,2.5-1.1,2,0s.29-.95,0,0c0,0,4.21-.54,4.14.55-.24,3.55,5.41,6.13,5.41,6.13l-6.94,12c-.31.64,6.87,2.47,6.63,3.06-.44,1.06,14.79.81,14.51,1.7s34.84-11.24,34.63-10.46c-.09.31-19.85,11.5-20.09,13,0,0-7.79,10-7.94,10.87s-14.84,2.17-15,3.08-11-.89-11.21,0c-.66,3.55-10.25-1-12-2.41-.93-.79-10.87-8.66-11.85-8.66s-1.59,1.1-2.56,1.1-1.59.74-2.32,1.1-1.71,1.47-1.23,2.57a4.67,4.67,0,0,1,.74,2.44v7.69h-3.67c-1,0-1.46,1.1-2.19,1.1s-1.23-1.59-2.2-1.34-1.71,1-2.32-.25" transform="translate(-612.69 -110.8)"/><path class="cls-1" d="M925,417.66a8.21,8.21,0,0,0-3,.73,31.67,31.67,0,0,1-6.87,1.49c-1.34,0-10.44-4.61-12.08-4.76-.31,0-1.6-2.07-3.48-5.36-1.06-1.86-6.25.62-7.63-1.9-1.25-2.29-3.09-7.79-4.5-10.4-1.19-2.22-1.81-4.8-3-7.11-1.9-3.53,0-8.56-1.84-11.94-2.24-4.16,2.33-8.81.58-12-2.62-4.75-11.11-7.08-11.43-7.08a4.44,4.44,0,0,0-3.29,4.89c.16,1.15-.19,7.55,0,8.92.31,2.14,2.9,2.76,3.28,5.23.44,2.8,2.88,3.51,3.34,6.41.37,2.31.73,4.59,1.07,6.76.22,1.42-4.6,4.58-4.41,5.88.92,6.12,1.89,8.42,1.53,8.42s2.29,3.65,6.6,7.59c2,1.79,2.78-1.79,4.71,0,4,3.69,4.89,8.38,4.54,8.73-.9.89,5.17,3.73,4.58,5.07s2.51,3.06,2.51,4.4.15,3.13.15,4.18.75,1.49,1.79,1.49,1.05.75,1.05,2.39.15,2.38,1.64,2.38,2.24,1.34,2.24,3.13h7.16c1.79,0,1.79-1,2.69-1.49s2.83.3,3.58.9,1.79,1.94,2.53,1a1.71,1.71,0,0,1,2.54,0c.6.6,1.45.44,2.5.29" transform="translate(-612.69 -110.8)"/><path class="cls-1" d="M903,445.24c0-1.79-.75-3.13-2.24-3.13s-1.64-.74-1.64-2.38,0-2.39-1.05-2.39-1.79-.45-1.79-1.49-.15-2.84-.15-4.18-1-1.94-.44-3.28" transform="translate(-612.69 -110.8)"/><path class="cls-1" d="M871.64,431.82h0c0,1.95-.59,3-1.19,3h-2.09v3.28h0a9.1,9.1,0,0,1,1.94,4.51c.28,1.68,1.13,1.82,2.11,2.24s1.26,2.24,1.26,3.64-.14,2.39,1,2.81a15.69,15.69,0,0,0,3.36.42c.84.14,2.39,0,3,.84s2.66,1.82,2.52,3.22-1.12,2.1-.28,3.36,1.82,2.67.42,3.37c-.84.42-1,1-1,2.1a16.7,16.7,0,0,1-.14,2.1c.84,1,1.68,2.53.84,3.79s-.84,2,.14,2.52a2,2,0,0,1,1,1.63h0" transform="translate(-612.69 -110.8)"/><path class="cls-1" d="M950.06,517.79c1.41-.63.82-2.79,1-3.62a19.91,19.91,0,0,1,2.69-6.86c.36-.88,2.09-1.64,3-.45a29.59,29.59,0,0,0,2.25,3.27c1.07,1.15.14,2.6,1,3.5,1.78,1.92,1.93,2,2,4.57,0,.83-.62,4.09-.17,4.73.28.4,2.1-.3,2.38.09s-.07,1.88-.09,2.37c-.12,3.47-.19,1.2-2.45,2.29s-1.54,2.44-4.25,2.34c-.54,0-1.64,1-2.54,1.45-2.47,1-2.42,2,1.19.68a102,102,0,0,0,20-9.53,53.77,53.77,0,0,0,8.16-6.85c2-1.88,4-4.72,6.54-5.67,1.22-.31,1.47-.88.23-.72a8.09,8.09,0,0,0-5.11,2.55c-1.25,1.17-1.83,2.11-3.5,2.53s-1.6-.23-1.71-.49c-1.08-2.66-4.18-5-4.07-8.29.06-1.64.48-1.17,2.06-1.12,1.1,0-.27,1.94.29,2.39s4.21.15,5.11.18c2.84.1,2.92-2.28.08-2.37-1.9-.07-3.69.19-2.66-2.48.52-1.34,4-2.45,2.54-4.66-.39-.59-2.4.64-2.36-.45,0-.79,0-1.57.08-2.36-1.1-.24-2-2.55-2.62-3.16s-2.2.12-2.93.12a14.77,14.77,0,0,1-2.93-.49c-1-.24-2-.37-2-1.47s-.73-1.7-1.59-2.44-1.22-2.81-1.83-3.78-1-1.35-.24-2.44,2.07-.74,2.07-1.47V477c0-1.22-1.09-1.83-1.09-2.93s1.09-1.22,1.09-2.19,0-3.18-1.09-3.18-1.35-1.1-2.2-1.1H952.79c-1.58,0-1.83-.36-1.83-1.46a21.69,21.69,0,0,0-1-4.52,4.18,4.18,0,0,0-3.91-2.93,5.84,5.84,0,0,1-3.66-1.83c-1-.86-2.2-2.44-2-4s-1.1-3.79-2.2-3.18-2.32-.12-2.07-1.22-1.83-1.95-1.83-1.95h-3.67c-1,0-1.46,1.1-2.19,1.1s-1.23-1.59-2.2-1.34-1.71,1-2.32-.25c-1.05.15-1.9.31-2.5-.29a1.71,1.71,0,0,0-2.54,0c-.74.9-1.79-.45-2.53-1s-2.69-1.35-3.58-.9-.9,1.49-2.69,1.49H903" transform="translate(-612.69 -110.8)"/><path class="cls-1" d="M884.48,474.64A6,6,0,0,0,881,476c-.89.75-3.28,2.24-4.62,1.64a2.3,2.3,0,0,0-3,.6c-.89.9-1.94,1.79-1.94,2.69s.15,1.79-1.34,1.79-2.68.44-2.68,1.49a35.86,35.86,0,0,1-.89,4.59,3.19,3.19,0,0,1,2.34.94c1.38,1.46,1.48,1.57,1.41,3.56,0,1,1.73.1,2.34.45,3.39,2,1.61,3.75.16,6.4-.77,1.39-1.52.1-2.76.64-.8.35-1.63,1.53-2.27,2.13-1,1-.07,4.91-3.09,4.8-2.16-.07-1.72-.29-1.94-2.07-.28-2.27-2.72-1.6-1.4.56s3.62,3.89,5.44,5.82c.85.91,1.73.25,2.85.59a23.41,23.41,0,0,1,3.93,2.14c1.21.66,1.83,2.3,3,2.84.94.45,3,.11,4,.14,2.23.08,3.81,2.51,6,2.59,4.51.16,12.12-1.07,15.27,2.29,1.59,1.7,1.5,5.41,4,5.5,1.89.07,3.59,2.35,5,4,.27.32.82,1.46.65-.15-.1-.88.26-1.31,1.39-1.27,2.52.09,0-1.17,1.26-2.33s2.3,1.42,2.39-1.1c.05-1.63.47-1.16,2-1.11l7.11.25c1.13,0-.31-2.39.82-2.35s2,.55,2-.67c.06-1.84-.66-6.4,1.41-6.33.95,0,5.9.52,5.92-.16,0-1.33.1-2.66.14-4,0-1.12-2.36.31-2.32-.82.11-3.13,2.55-1,2.59-3.29-.38-1.3.68-.16,1.07.26s1,2.28,1-.11c-.07-3.41,4.18,1.46,5.24,1.5,4,.14.49,3.32,2.65,5.65.63.68,2.27,2.37,3.84,1.68" transform="translate(-612.69 -110.8)"/><path class="cls-1" d="M812.2,464.67c.29,1.33,1,2.15,2.39.83a22.49,22.49,0,0,1,6.86-4.24c1.35-.62,13.52-.57,14.43.4.47.51-.06,6.94-.51,7.34-1.22,1.13-2.17,1.56-2.23,3.22-.06,1.83.7,1.08,2.33,1.27.58.07,7.09.05,7.08.45-.12,3.37-.32,4.22,1.63,6.44.16.17.67.57,0,1.06a6.81,6.81,0,0,0-2,2.94c-.24.72,0,1.29,1,.77,2.74-1.08,5.33-1.52,7.57-3.11.36-.26,1.08-1.14,1,.73-.09,2,2,3.22,4.27,3.29,2.81.1,4.15.87,6.64,2.24,1.24.67,2.65.41,4,.48a35.86,35.86,0,0,0,.89-4.59c0-1.05,1.19-1.49,2.68-1.49s1.34-.9,1.34-1.79,1-1.79,1.94-2.69a2.3,2.3,0,0,1,3-.6c1.34.6,3.73-.89,4.62-1.64a6,6,0,0,1,3.44-1.34h0a2,2,0,0,0-1-1.63c-1-.56-1-1.26-.14-2.52s0-2.8-.84-3.79" transform="translate(-612.69 -110.8)"/><path class="cls-1" d="M775.33,420.06c.73-.61,2.55-1.95,2.55-2.92v-3.4c0-.85,1.22-1.95,2.31-2.07a2.49,2.49,0,0,0,2.07-1.46c.36-.73,1.82-.61,2.31-.85s-.25-2.06.24-2.79a5,5,0,0,1,1.94-1.95c1.1-.61.37-.73,1.22-1.33" transform="translate(-612.69 -110.8)"/><path class="cls-1" d="M801.46,395.75c-1.22.37-2.92,1.1-3.77.73s-1.58-1.21-2.79-.49a4.94,4.94,0,0,0-1.95,3,5.75,5.75,0,0,1-2.55,2.8,6.76,6.76,0,0,0-2.43,1.46c-.65.81-.12.72-1.22,1.33a5,5,0,0,0-1.94,1.95c-.49.73.24,2.55-.24,2.79s-2,.12-2.31.85a2.49,2.49,0,0,1-2.07,1.46c-1.09.12-2.31,1.22-2.31,2.07v3.4c0,1-1.82,2.31-2.55,2.92h6.74c1,0,1.4,1.09,3.1,1.09s1.46,1.34,3,1.34,3.28.36,4.13-.37,1.58,0,1.34,1.1-.67,3,0,3.64,2.67,1,3.52,1.7,2.07,1.95,3.53,1.95a10.71,10.71,0,0,1,3.28.73,18.74,18.74,0,0,1,1.34-4.26" transform="translate(-612.69 -110.8)"/><path class="cls-1" d="M804,431.24a10.71,10.71,0,0,0-3.28-.73c-1.46,0-2.68-1.22-3.53-1.95s-2.85-1-3.52-1.7-.24-2.55,0-3.64-.49-1.83-1.34-1.1-2.55.37-4.13.37-1.33-1.34-3-1.34-2.06-1.09-3.1-1.09h-6.74" transform="translate(-612.69 -110.8)"/><path class="cls-1" d="M801.32,474.72a10.2,10.2,0,0,0-1.09-.1l-7.45-.26c-3.49-.12-3-2.11-3.95-5.39-.93-3.1-.54-4.15,1.81-6.35,1.91-1.79,4.75-3,7-4.37s4.44-1.83,6.3-3.46" transform="translate(-612.69 -110.8)"/><path class="cls-1" d="M744.1,479.79c4.85.16,9.86-.09,14.64.76,5.78,1,11.62,2.52,17.5,2.73,2.8.1,5.07-2.5,7.74-3.72,2.12-1,4.13-.61,6.47-.52,1.75.06,5.86-.51,7.33.55l.08.07" transform="translate(-612.69 -110.8)"/><path class="cls-1" d="M788,403.29a6.76,6.76,0,0,1,2.43-1.46A5.75,5.75,0,0,0,793,399a4.94,4.94,0,0,1,1.95-3c1.21-.72,1.94.13,2.79.49s2.55-.36,3.77-.73a1.85,1.85,0,0,1,1.12,0c0-1-.16-3.42.63-3.77s1.31,0,1.83.87a1.71,1.71,0,0,0,2.45.44,10,10,0,0,1,3.23-1.4c1.14-.17,2.88-.61,3.76-.26s2.09,1.66,3.75,1.66h10.23c1.65,0,1.39-.35.08-1.75s-1.83-1.22-1.83-2.09v-2.19h-2.27v-1.74c0-.79-1.75-1-1.75-1.84s.09-1.66.87-1.66h1.75v-2.71c0-.69-1.75-1.3-2.1-2.62s-.87-2.09-.35-3.14,1-1.83.7-2.8.27-1.66.61-2.44,0-1.75,0-2.45,1.14-1.13,1.14-2.27v-3.49c0-1-1-.53-1.22-1.84s-1.31-1.31-1.31-2.27-.44-1.74-.44-2.62.09-2.88-.79-2.88-2,.35-2.62-.53a2.23,2.23,0,0,1,.09-2.53c.44-.87-1-1.22-1.48-2" transform="translate(-612.69 -110.8)"/><path class="cls-1" d="M797.86,479.66c1.57,1.16,4.79,4.54,6.62,4.6,1.17.05,3.49-.35,4.53.16s1.36,2,2.29,2.46c1.34.71,2-.32,3.17.94,1.37,1.46,1.49,1.57,3.46,1.64,3.1.11,5.15-.8,5.27-4.17,0-1,2.27-2.78,3.79-4,2.14-1.9-.67-.83-1-1.21s1-3.12-1.15-1.27c-1.91,1.6-2.13.68-4.33-1.71-1.43-1.56-1.56-1.82-3.67-1.9-1,0,.29-2.35-.49-2.38l-8.08-.28c-2.27-.08-.42.87-1.27,2.32a8,8,0,0,1-1.8,1.89.59.59,0,0,1-1,0,3.63,3.63,0,0,0-2.8-2" transform="translate(-612.69 -110.8)"/><path class="cls-1" d="M868.36,438.09v-3.28h2.09c.6,0,1.19-1,1.19-3-1,0-2.08.3-2.83-.74s-1.19-2.39-2.69-2.39H849.26c-1.64,0-2.68,3-4.47,3h-6.57c-1.79,0-1.34-1.49-2.53-3s-2.39-1.79-2.69-3.28-1.79-1.35-4-1.94-4.62-1.2-6.12-.15-.29,2.53-1.93,3.13-1.94,3.58-4,3.58-2.24-1.49-4.48-1.49-3.58-1.49-4.63-1.49-2.43-.07-2.43-.07a18.74,18.74,0,0,0-1.34,4.26" transform="translate(-612.69 -110.8)"/><path class="cls-1" d="M803.92,454.79l.2-.17c1.27-1.2,1.44-1.14,3.22-1.08.93,0,2-1.5,2.64-2.11a1.46,1.46,0,0,1,2.52,1.1c-.09,2.62,1.41-.11,2.32,1.27,1.32,2-2.17,5.43-2.61,7a10.09,10.09,0,0,0,0,3.83" transform="translate(-612.69 -110.8)"/><path class="cls-1" d="M858.81,428.69h-9.55c-1.64,0-2.68,3-4.47,3h-6.57c-1.79,0-1.34-1.49-2.53-3s-2.39-1.79-2.69-3.28-1.79-1.35-4-1.94-4.62-1.2-6.12-.15-.29,2.53-1.93,3.13-1.94,3.58-4,3.58-2.24-1.49-4.48-1.49-3.58-1.49-4.63-1.49-2.43-.07-2.43-.07" transform="translate(-612.69 -110.8)"/><path class="cls-1" d="M802.58,395.77c0-1-.16-3.42.63-3.77s1.31,0,1.83.87a1.71,1.71,0,0,0,2.45.44,10,10,0,0,1,3.23-1.4c1.14-.17,2.88-.61,3.76-.26s2.09,1.66,3.75,1.66h10.23c1.65,0,1.39-.35.08-1.75s-1.83-1.22-1.83-2.09v-2.19h-2.27v-1.74c0-.79-1.75-1-1.75-1.84s.09-1.66.87-1.66h1.75" transform="translate(-612.69 -110.8)"/><path class="cls-1" d="M882.5,466.7a16.7,16.7,0,0,0,.14-2.1c0-1.12.14-1.68,1-2.1,1.4-.7.42-2.1-.42-3.37s.14-2,.28-3.36-2-2.38-2.52-3.22-2.11-.7-3-.84a15.69,15.69,0,0,1-3.36-.42c-1.12-.42-1-1.41-1-2.81s-.28-3.22-1.26-3.64-1.83-.56-2.11-2.24a9.1,9.1,0,0,0-1.94-4.51h0" transform="translate(-612.69 -110.8)"/><path class="cls-1" d="M712.36,252.91c.6.6.37,1-.19,2s-.18,1.85.65,1.85H715c.75,0,.65,1.3,1.12,1.3h1.39v3c0,.93.27,1.49.92,1.49h2.23c.65,0,.83.28,1.39,1.48a1.9,1.9,0,0,0,2,1.39h3.7c.93,0,1.58,1.3,1.95,2.5s1.2,1.76,2.32,3.06,2.27,1.32,3.15,3.06a14.5,14.5,0,0,1-2.88,2.22c-1.29.65-2.78,1.39-3,2.41s-2,2.23-3,2.69-2.5,1.11-3,2.22a7.1,7.1,0,0,1-3.33,3.25,6.44,6.44,0,0,0-2.87,2.31c-.84,1-2.23.28-3.06,1.12s-.68,1.55-.89,2.43c-1.09-.36-1.82,0-3-1.33s-4.26-1.55-6.93-1.55h-16" transform="translate(-612.69 -110.8)"/><path class="cls-1" d="M629.14,238.66a14.11,14.11,0,0,1,0,1.6c-.07,1.92,2.13,2.91,3.48,4,1.09.85,1.74,3.2.75,4a1.14,1.14,0,0,0,.07,2,2.78,2.78,0,0,1,1.13,2.52c0,1.08,1.95-.14,2.35.45.3.44.1,2.4-.45,2.38-3-.11-2.06,1.72-2.15,4.3-.07,2-.28,2.68-1.12,3.61-.68.67-1.1,1.29-.16,1.32,1.6,0,1,1.79,1,3.7-.06,1.63.38,1.2,2,1.25,1.09,0-.27,1.94.29,2.39.82.67,4.78.16,5.92.2,1.48.06,1.39,1.62,1.2,3.16-.12,1.3-.81,1.76-1.52,1.72-1.4.15-1.82.83-.57,1.81.88.71,2.12.78,3.83.53.69-.1.25,3.6.22,4.38,0,1.09,1.92-.13,2.33.45.31.43-.15,1.81-.08,2.36a17,17,0,0,1,.49,3.54c-.08,1.53-.72,2.92-.75,3.94-.08,2.26.4,2.51,2,4.19.6.65,2.63-.21,2.59.71,0,.74-.54,3.82-.15,4.38,1,1.35,2.42-1.35,2.33,1.26-.09,2.77,0,3.54,1.55,5.31.65.8.56.18.56-.48.18-1.35,1.37-1.38,2.8-1.24,0-1.07.15-5.05.34-6.66a2.72,2.72,0,0,1,2.8-2.53H669a6.17,6.17,0,0,1,1.68-3.08c1.12-1.12,1.83-4.07,2.39-5.19s1.54-1.12,3.36-1.12h10.79" transform="translate(-612.69 -110.8)"/><path class="cls-1" d="M713.23,292.69c-1.09-.36-1.82,0-3-1.33s-4.26-1.55-6.93-1.55H676.45c-1.82,0-2.8,0-3.36,1.12s-1.27,4.07-2.39,5.19A6.17,6.17,0,0,0,669,299.2h-6.87a2.72,2.72,0,0,0-2.8,2.53c-.19,1.61-.35,5.59-.34,6.66l1.55.17a.44.44,0,0,1,.35.69c-.43.91-.8,2-1.47,2.31-1.34.66-.1,2.45,1,3.72a.53.53,0,0,1-.56.77c-2.65-.32-2,4.3-.4,4.36,2.74.09,1,5.22,1,5.93-.07,1.9-.79.91-2.42,1.1s-2.34-.8-2.4,1.1c0,.84-.29,3.56.24,3.58,1.72.06,4.4-.68,4.33,1.33-.09,2.46.64,3.58-2.13,3.49-1,0,.18,2.3-1.69,2.41-.29,0-.67.35,0,1.2a5.37,5.37,0,0,1,1,2.45" transform="translate(-612.69 -110.8)"/><path class="cls-1" d="M712.36,252.91H741.5c1.34,0,2.5-.19,2.5-1.53v-6.74c0-1,1.15-1.15,2.3-1.15s20.32.77,21.09,0a9.72,9.72,0,0,0,1.92-2.11c1-1.8,1.72-2.3,1-3.64s.77-1.54,1-2.49a29.61,29.61,0,0,0,.77-3.65c0-.76,0-2.11,0-2.11" transform="translate(-612.69 -110.8)"/><path class="cls-1" d="M735.25,274c-1-1.83-2-1.76-3.15-3.06s-2-1.85-2.32-3.06-1-2.5-1.95-2.5h-3.7a1.9,1.9,0,0,1-2-1.39c-.56-1.2-.74-1.48-1.39-1.48h-2.23c-.65,0-.92-.56-.92-1.49v-3h-1.39c-.47,0-.37-1.3-1.12-1.3h-2.22c-.83,0-1.2-.83-.65-1.85s.79-1.44.19-2H741.5c1.34,0,2.5-.19,2.5-1.53v-6.74c0-1,1.15-1.15,2.3-1.15s20.32.77,21.09,0" transform="translate(-612.69 -110.8)"/><path class="cls-1" d="M767.39,243.49a9.72,9.72,0,0,0,1.92-2.11c1-1.8,1.72-2.3,1-3.64s.77-1.54,1-2.49a31.58,31.58,0,0,0,.77-3.65c0-.76,0-2.11,0-2.11h28.43V243.4c0,.91-.82.5-.82,1.55v49.11" transform="translate(-612.69 -110.8)"/><path class="cls-1" d="M800.37,229.49V243.4c0,.91-.82.5-.82,1.55v49.11c.78.75,2.17,2.67.89,3s-1.92,1.07-1.18,1.81,2,1.07,2.14,2.14.42,1.92-.32,2.13-.54,1.17.21,1.39,2,.42,2.67-.32,1.6-1.5,1.6-.75-.11,2.24.74,1.81a1.3,1.3,0,0,0,.64-2,4.31,4.31,0,0,1-.85-2.78,3.22,3.22,0,0,1,1.28-2.24A2.09,2.09,0,0,1,810,298c.85.75,1.92,0,2.56.85s.31,1.82,1.28,2.14a16,16,0,0,1,1.76.72" transform="translate(-612.69 -110.8)"/><path class="cls-1" d="M735.25,274a14.5,14.5,0,0,1-2.88,2.22c-1.29.65-2.78,1.39-3,2.41s-2,2.23-3,2.69-2.5,1.11-3,2.22a7.1,7.1,0,0,1-3.33,3.25,6.44,6.44,0,0,0-2.87,2.31c-.84,1-2.23.28-3.06,1.12s-.68,1.55-.89,2.43" transform="translate(-612.69 -110.8)"/><path class="cls-1" d="M817.54,345.44c-.53-.78.08-1.57,1-1.92s.62-1,.62-1.75v-5.06c0-.88-1.05-1-1.05-1.92V331.9c0-.61.78-1.13,1.83-1.13s1.92-1.14,2.45-2.27,1.4-.62,2.09-1.58,1.23-3.05,2.33-4.17c.7-1-.28-2,.7-3.5s-.42-2.11-.84-3.23a4,4,0,0,1,1.82-4.2,2.76,2.76,0,0,0,1.26-3.51,1.73,1.73,0,0,0-2.66-.7c-1.12.7-2-.42-2.52-1.12a3,3,0,0,0-3.09-1,3.79,3.79,0,0,1-3.78-1.82c-.84-1.26-2-1.31-2.1-2a16,16,0,0,0-1.76-.72c-1-.32-.64-1.28-1.28-2.14s-1.71-.1-2.56-.85a2.09,2.09,0,0,0-2.67.21,3.22,3.22,0,0,0-1.28,2.24,4.31,4.31,0,0,0,.85,2.78,1.3,1.3,0,0,1-.64,2c-.85.43-.74-1.06-.74-1.81s-1,0-1.6.75-1.92.53-2.67.32-1-1.18-.21-1.39.42-1.07.32-2.13-1.39-1.39-2.14-2.14-.1-1.49,1.18-1.81-.11-2.24-.89-3" transform="translate(-612.69 -110.8)"/><path class="cls-1" d="M815.64,301.72c.05.66,1.26.71,2.1,2a3.79,3.79,0,0,0,3.78,1.82,3,3,0,0,1,3.09,1c.56.7,1.4,1.82,2.52,1.12a1.73,1.73,0,0,1,2.66.7,2.76,2.76,0,0,1-1.26,3.51,4,4,0,0,0-1.82,4.2c.42,1.12,1.82,1.68.84,3.23s0,2.52-.7,3.5,1,2.31,1.82,2.24c1.83-.14,2.35-2.06,3.37-.84a3.72,3.72,0,0,1,1.12,3.09c-.28,1.12-.45,1.72.25,1.6,1.17-.54,4.06-1.2,4.82-2.19,1-1.38,0-2.28,1.66-3.86,1.39-1.28-.09-1.83-1.24-3.08-.7-.75-1.81-2.61-2.83-2.64-4.69-.17-.06-4.66.61-7.08a21.29,21.29,0,0,0,.16-4.38c0-1.17-2.39.61-2.32-1.63.09-2.57-2.38.12-2.29-2.45.07-1.79,1-1.16,2.62-1.1,3.93.14,5.54-.3,9.13-2,.56-.26.33-3.74.36-4.46,0-1.16-2.38.61-2.3-1.63s-2.35-.46-2.31-1.63c0-.49,0-1,0-1.48a2.79,2.79,0,0,0-.5-1c-1.34-1.41-2.89-3.15-1-4.87s4.23-3.08,4.11.39c-.06,1.66,0,5.11,2.55,5.2,2.15.07,2,.22,2.07-1.94,0-.49.95-.49,1.69-.4.28,0,.68.08.13-.48-1-1-1.91-2.05-2.87-3.08-1.49-1.59-.35-1.8-1.07-3.6-.52-1.32-2.29-1.63-2.24-3.19s.1-2.91.16-4.36c.08-2.45.14-1.81,2.42-1.9,1.43-.05,2.93.1,4.37.15,3.23.11,2.94-4.89,3-5.82,0-.57-.9-.29-1.25-.07-1.42.89-4.86,2.16-6.18.74-2.55-2.75-2.68-3.63-.36-5.93.65-.7,1.17-.36,1.14-.18-.49,2.69.9.5,2.17,1.88.67.72,2.7,2.67,3.5,2.53,1-.17,1-.37,1.07-.63s-.3-1.64.26-2.15,2.1-1.48,2.19-2c.27-1.56-2.25-3.51-2.19-5.2a4.41,4.41,0,0,1,2.52-4.27c.64-.31,2.35.67,2.39-.28a.41.41,0,0,1,.05-.18" transform="translate(-612.69 -110.8)"/><path class="cls-1" d="M615.07,200.69q-.29,8-.56,16c-.1,2.9-1.32,4.91,1.82,5,1.13,0-.47,2.35.66,2.39,2.15.07,1,0,1,2.14,0,1.17,2.4-.61,2.32,1.64-.09,2.53,1.16,0,2.32,1.27s-1.42,2.31,1.1,2.4c.63,0-.42,1.81.5,1.78a2.72,2.72,0,0,1,2.24,2c0,.42-.22.84,0,1s.79,0,1.38,0c1,.2,1.3,1.17,1.38,2.36" transform="translate(-612.69 -110.8)"/><path class="cls-1" d="M633.87,113.08c-6,0-12-.23-18.1-.44.06.41.11.83.17,1.24.68,5.19,1.79,10.42,1.61,15.66q-.33,9.35-.65,18.69l-1.11,31.71-.72,20.75" transform="translate(-612.69 -110.8)"/><path class="cls-1" d="M662,112.32c-4.56.05-9.14.19-13.79.45-4.81.26-9.56.34-14.32.31" transform="translate(-612.69 -110.8)"/><path class="cls-1" d="M687.3,112.79l-4.18-.16c-7.15-.25-14.12-.38-21.14-.31" transform="translate(-612.69 -110.8)"/><path class="cls-1" d="M735.24,114.35c-16-.12-32-1-47.94-1.56" transform="translate(-612.69 -110.8)"/></svg>