<svg id="base_map" data-name="base map" xmlns="http://www.w3.org/2000/svg" viewBox="0 0 469.45 434.66"><defs><style>.cls-1{fill:none;stroke:#9e1f63;stroke-linejoin:round;stroke-width:3px;stroke-dasharray:3 3;}</style></defs><path class="cls-1" d="M655.05,341.48a26,26,0,0,1,0,4.56c-.09,2.58-2.36-.28-2.45,2.28,0,.8.24,3.57-.49,3.54-4.18-.14-1.4,4-1.54,7-.06,1.43-2,3.07-6.22,6.38-1.37,1.08-.44,3.39-.47,4.1a3.93,3.93,0,0,1-2.12,2.54c-1.92.32-1.56,1.09-2.34,2.23-1.35.52-.45,1.26,0,1.56.61.46,0,1.83,1.54,1.88,1.81.07,1.63,2,0,2.35-2,.13.34,1.46.82,3a10.41,10.41,0,0,1,0,3c-.06,1.62-.46,1.16-2,1.11-1,0,.07,1.87-.45,2.36s-2.35-.77-2.38.29c0,.47,0,.94,0,1.42" transform="translate(-610.35 -109.28)"/><path class="cls-1" d="M636.86,391.06l-.06,1.76c0,1.19-.09,2.37-.13,3.56a4.6,4.6,0,0,0-.06,1.63c.2,1.13,1,1.83,2,2.86a1.2,1.2,0,0,0,.91.34l1.37.05c.72,0,.27,2.77.24,3.56-.06,1.69.41,4.08-.3,5.26-.16.25-.49.62-.42.66a.91.91,0,0,1,.5.52,3.25,3.25,0,0,1-.07,1.84c0,.8,0,1.59-.08,2.39l1.65,1.75c.21.23-.17.53-.47.53-2.12.05-1.2,2.66-1.43,4.8-.14,1.34.18,1.81-.72,2-.58.1-.58.41.14.57s.58,1.14.26,1.74a6.28,6.28,0,0,1-.48.78" transform="translate(-610.35 -109.28)"/><path class="cls-1" d="M639.67,427.64a29.72,29.72,0,0,1-4.42,4.41c-2.84,2.65-4.7,3.66-4.84,7.63-.14,4.16-5.21,10.81-9.49,10.66-.73,0-.47,2.74-.5,3.54,0,1.53.6,1.86,1.65,3,.84.91-.06,2.36.51,3,.79.87,2-.63,2.72.83,1.19,2.59,2.26,6,5.29,3.15l3.71-3.44c.54-.5,1.91.08,2.63-.07l9.3-2c1.88-.4,3.92.34,5.85-.07,5.47-1.19,10.22-2.57,15.72-1,2.71.78,6,2.91,8.19.86,1.83-1.73,3.86-1.06,6.32-1,5.12.18,10-.23,14.76,1.86,4.94,2.18,9.81,5,14.85,6.89q8.43,3.16,16.87,6.3a25.38,25.38,0,0,1,6.23,3.67c2.58,1.85,3.49,2.22,6.63,2.33h.11V429.46" transform="translate(-610.35 -109.28)"/><path class="cls-1" d="M732.16,429.46c1.82-1.09,4.19-2.92,6-3.64a36.28,36.28,0,0,0,4.13-1.94,9.56,9.56,0,0,1-1.1-2.68c0-.73-.36-1.46.37-2.43s1.33-1.58,1.33-2.79.86-1.7,1.58-3-1.33-1.58-2.3-2.07-1-1.09-1-2.06v-7.29c0-.85.12-1.22-.36-1.83s.12-1.21.48-1.94,0-1.58-.24-2.43-.36-1.58.61-2.07a3.1,3.1,0,0,0,1.7-2.31v-3.16c0-.73-.73-1.33-1.7-2.55a2.49,2.49,0,0,1-.73-2.06v-.85" transform="translate(-610.35 -109.28)"/><path class="cls-1" d="M723.53,339.17h8.05c1,0,1.84-.81,3.4-.81h8.43v31.23c0,1.63.28,2.76.92,3.4s1,1.35.42,2.05-.71,1.63-1.49,2.06a3.38,3.38,0,0,0-1.62,1.84c-.22.71.14,1.56-.22,2.12a4.86,4.86,0,0,0-.51,1.26" transform="translate(-610.35 -109.28)"/><path class="cls-1" d="M879.64,158.34c.43-.56,2.32.81,2.36-.28,0-.61-.29-2,.45-2,2.76.1,2-1,2.14-3.46,0-1.37-.69-2.09-1.59-2.95-.54-.53-.82-.74-.76.82.12,3-1.09,5.55-5.26,5.4-1.73-.06-4.41.68-4.34-1.33.05-1.57.11-3.15.16-4.72.09-2.57,2.38.31,2.5-3.09,0-.8,4.34-2.69,5.14-2.66,1.58.06,2,.52,2-1.12,0-.88.28-1.09-.48-1.38l-6-2.23c-2.21-.83-2.17.65-2.07-2.27.06-1.57.78-3.15.84-4.72.09-2.64.31-2.95,2.28-4.78,1-.9,2.55-.07,3.86-1.3,1.54-1.45,3.37-7.19,1.79-8.89a31.28,31.28,0,0,1-2-4.18c-.51-1.08-1.83-.88-3.57.74-.3.88.36,1.19,1.07,1.75s-2.63,1-1.23,2.94c1.58,2.22,1.24,1.8-.71,3.63-.69.64-2.83.15-3.81.12-1.75-.06-1.11-.8-1.09-2.42,0-2.13.12-2.39,1.66-3.84.61-.58,1.67-2.25.94-3.15s-8.36-.22-9.5-.25l-1.06,0s0,.06,0,.09" transform="translate(-610.35 -109.28)"/><path class="cls-1" d="M876.35,196.22c1.34.13,2,.06,2-2,0-.56,1.47-.63,1.93-.35s.78,1.24,1.08.87c1-1.24,4.17-1.42,4.22-.24s-.65,4-.29,4.35c1.08,1.15,2.37-.11,2.41-1.11l.27-7.89c.06-1.63-.54-2.77,1.29-2.71,1.09,0,1.38.46,1.31,1.27,0,.32.23.75.48.55,1.7-1.43,4.19-3.2,4.26-5.16.09-2.82.24-3.57,2-5.29.31-.34.69-.9-.05-.94-1.18-.07-1.73.18-1.78,1.49,0,1.54-.71,1.81-1.86,2.88s-4.55.45-6.25.4c-2.51-.09-1.39-3-1.31-5.18s-.09-2,2.06-1.93c.75,0,.43-1.69.45-2.33.15-4-2.33-2.4-4.46-.4-1,1-4.94.12-5.79-.79-1.87-2-3.8-3.22-3.71-6a4.23,4.23,0,0,1,2.53-3.52c.68-.39,2.53,1.18,3.78,2.53,1.79,1.94-.54,3.18,2.73,3.3,1.9.06,3.62.44,2.81-2.27s-3-1.69-4.66-2.54c-1.17-.6-3.3-3.36-2.18-4.83" transform="translate(-610.35 -109.28)"/><path class="cls-1" d="M792.23,112.46l-52.38.38q-3.47,0-7,0v17.81c0,1.1-1.75.88-1.75,1.75s.88,1.32.88,2.41v3.07h9.19s3.65.49,5.26,2.62c1.31,1.76.65,2,2,2h2.62v5.48h9.64v4.6c0,.87-1.1.21-1.1,1.09s1.21.22,1.21,1.2v2.52" transform="translate(-610.35 -109.28)"/><path class="cls-1" d="M848.45,112.23l-3.13-.1c-11.7-.41-23.5.1-35.21.2l-17.88.13" transform="translate(-610.35 -109.28)"/><path class="cls-1" d="M863.42,112.77s0-.06,0-.09c-4.5-.15-10.18-.3-15-.45" transform="translate(-610.35 -109.28)"/><path class="cls-1" d="M837.81,232.25c-.7.88-1.2,2.08-.76,2.59a3.06,3.06,0,0,1,.57,2v3.79c0,.63-.89,1.39-.63,1.89s1.64,1.27,1.83,2.21,1,1.27,1.45,2.28h15a3.68,3.68,0,0,0,.55-1.4c0-.56-.53-1.07-.49-1.61.17-2.3.19-4.61.25-6.92a1.08,1.08,0,0,1,.74-1,17.44,17.44,0,0,0,3.63-2.24c.27-.2.47-.08.44.14-.13,1.23-.48,3.7-.12,4.21,1.06,1.5,2.38-.38,2.29,2.46,0,1.2,4.2-1.07.4-4.48-1.87-1.67,1.06-1.58,1.83-2.56s2.18-3.95,2.65-4.38c1.77-1.65,2.56,1.34,2.69-2.16a9,9,0,0,1,5-7.32c1.69-.75,3.77.51,4.81-2.19s-.49-2.26-2.27-2.47c-.86-.1-4.75.29-4.73-.54s-.17-4.36.53-4.33c3.39.12.55,2.38,3.1,2.47,1.65.05,3.51.88,3.58-1.06s2.47-2.28,2.53-3.83c0-.45.3-1.57.06-1.78l-.58-.47a9.64,9.64,0,0,0-1.8.15c-1.63.06-3.31-.11-4.94-.17-1.8-.06-4.57.77-4.5-1.33.11-3-.57-8.32,3.86-8.17.61,0,1.14.09,1.59.13" transform="translate(-610.35 -109.28)"/><path class="cls-1" d="M759.92,166.34H742.27c-.84,0-1.09.49-1.09,1.54V171H726.92v5.63c0,.84.74,1.47.74,2.31v14.4c0,1.16-.95,2.11-.95,3.05s-.63,1.37-1.26,1.79-.11.84.1,1.47a2.67,2.67,0,0,1-.94,2.31,7.2,7.2,0,0,0-1.27,2.09h26.71c4.31,0,4.83.86,6.94.86h3.46c.74,0,.85-1,1.79-1s1.79,1,2.84,1h4.52" transform="translate(-610.35 -109.28)"/><path class="cls-1" d="M759.92,166.34v-.83c0-.74.9-.74.9-1.81v-6.35" transform="translate(-610.35 -109.28)"/><path class="cls-1" d="M837.81,232.25h-2.1v-8.74h-3.83c-.86,0-.57,1.44-1.43,2.3s-1.15,2.1-2.2,2.39-1.34,1.62-2.1,2.58a4.79,4.79,0,0,1-3.54,1.81,6.87,6.87,0,0,0-3.73,1.06c-.76.57-.86-1.15-1.53-1.34s-.57-1.25-.57-1.82,0-1.62-1.15-1.62-1.52-.86-2.48-1.25-.38-2.48-1.43-2.48a4,4,0,0,1-2.59-1.53" transform="translate(-610.35 -109.28)"/><polyline class="cls-1" points="159.25 95.61 159.25 118.69 187.68 118.69 196.67 118.69 196.67 114.86 198.78 114.33"/><path class="cls-1" d="M873.71,326.36c-14.22.35-28.45.62-42.64,1-.69.11-.53-.49-.25-1.61a3.71,3.71,0,0,0-1.12-3.08c-1-1.22-1.54.7-3.37.84-.83.06-2.52-1.26-1.82-2.24-1.1,1.11-1.63,3.21-2.33,4.17" transform="translate(-610.35 -109.28)"/><path class="cls-1" d="M905.35,325.39l-7.17.24c-8.14.3-16.3.52-24.47.73" transform="translate(-610.35 -109.28)"/><path class="cls-1" d="M924.39,410.66c.88.55,1.87-.77,2.75.22s.44,2.2,1.76,2.2h3c.66,0,1.76-1.43,2.31-2.64a13.24,13.24,0,0,1,1.8-2.68,31.54,31.54,0,0,1,2.08-2.85c.84-1,1.14-3.1,2.07-4.67l3.75-3.9" transform="translate(-610.35 -109.28)"/><path class="cls-1" d="M929.67,324.94h-.07c-7.94,0-16.14.19-24.25.45" transform="translate(-610.35 -109.28)"/><path class="cls-1" d="M825.3,380.52H823v-2.71c0-.7-1.75-1.31-2.1-2.62s-.87-2.09-.34-3.14,1-1.84.69-2.8.27-1.66.62-2.45a5.9,5.9,0,0,0,0-2.44c0-.7,1.13-1.14,1.13-2.27v-3.5c0-1-1-.52-1.22-1.83s-1.31-1.31-1.31-2.27-.44-1.75-.44-2.62.09-2.88-.79-2.88-2,.34-2.62-.53a2.25,2.25,0,0,1,.09-2.53c.44-.88-1-1.22-1.48-2s.08-1.57,1-1.92.62-1.05.62-1.75v-5.07c0-.87-1.05-1-1.05-1.92v-2.88c0-.61.78-1.14,1.83-1.14s1.92-1.13,2.45-2.27,1.4-.61,2.09-1.57h0" transform="translate(-610.35 -109.28)"/><path class="cls-1" d="M880.35,427.32a11.91,11.91,0,0,1-2.09.74c-1.2.3-3.73,2.24-4.78,2.24H869.3c-1,0-2.09.3-2.83-.75s-1.2-2.39-2.69-2.39h-7.31c0-1.49-1.34-4-2.83-4.47s-3.43,0-5.08.3-2.08-.15-1.79-1.35a4.08,4.08,0,0,0,0-3c-.44-1.34.75-3.13-.15-4.78a5.81,5.81,0,0,1-.89-3.58c0-1.34-.9-1.49-2.69-1.49s-2.83-1-4.47-1-2.24-2.09-2.69-3.43-1.64-2.39-2.68-3.59-.75-3.28-.75-4-1.34-1.35-1.34-2.09,1.19-.75,1.19-1.64v-3.73c0-1.35-1.19-2.84-2.09-3.73s-1.34-2.09-2.38-2.39a4.84,4.84,0,0,1-2.53-2.64" transform="translate(-610.35 -109.28)"/><path class="cls-1" d="M924.39,410.66s-.55,1.44-1,2.42a18,18,0,0,0-.73,3.05,8.29,8.29,0,0,0-3,.74,32,32,0,0,1-6.87,1.49c-1.34,0-2.53,1.64-4.17,1.49s-4.63.75-6,.75-2.84,1.49-4,1.49-1.94,1.64-2.84,2.54-2.38.76-2.38,2.23a10.18,10.18,0,0,0-2.66-.79c-1.33-.15-1.66-.9-4.06-.42-1.41.28-.85.42-2.39.14s-1.4-.42-2.24.42a4.86,4.86,0,0,1-1.63,1.11" transform="translate(-610.35 -109.28)"/><path class="cls-1" d="M943.88,396.34c6.07-6.41,15.53-6.38,15.53-6.38s-.5-18.54-.5-19.75S958,369,958,368.12s1-1,1-2.09-.77-1.54-.77-2.75v-4.62" transform="translate(-610.35 -109.28)"/><path class="cls-1" d="M949.24,324.76c-6.53.12-13.07.18-19.57.18" transform="translate(-610.35 -109.28)"/><path class="cls-1" d="M958.25,358.66a11.67,11.67,0,0,0,5.5.77c2.31-.22,2.53,1.21,4.84.88,2.72-.39,2.42,1.65,4.61,1.65,2.64,0,4.61-.34,5.61.33,1.65,1.1,1.76,1.59,3.85,1.59,1.65,0,10.22.06,14.58,0-.93-.28.59-1.76.22-2.23s-.39.39-1.09-.21-.32-1.76-1.15-2.29.34-1.12.81-2.87c.25-.92-1-1.21-.85-2.17.23-2.09,1-1.31,1-3.25,0-1.18.08-2.37.12-3.56a3.58,3.58,0,0,1,.07-1.85c.46-1.22,2.77-.37,3.45-2.78.21-.75-1.13-1.82-1-3a1.73,1.73,0,0,1,2.1-1.73c.14,0,.31-.14,0-.39l-1.32-1.41c-.18-.19-.09-.48.1-.45,2.9.36,1.35-2.75,2-4.14.5-.93-.07-1.15,0-1.79.09-2.62,1.37.19,2.42-1.1.68-.84,1-3.78,1.11-5.43,0-.27,0-.71-.3-.38-.55.56-1,1.14-1.61,1.69-.21.25-.57.32-.48-.21s0-.86,0-1.29-.33-.54-.52-.52c-13.24,1.56-29.35,1.67-43.44,2.07-3.18.09-6.37.15-9.57.21" transform="translate(-610.35 -109.28)"/><path class="cls-1" d="M1014.74,416.67h.07c1,0,0-1.93.63-2.5,1.22-1.13,1.79-2.13,3.46-2.07.72,0,3.05.48,3.56.13,1.36-1-1.07-2.41.68-2a2.17,2.17,0,0,0,1.86-.81c.6-1.06-1.41-2.6-2.12-.47a1.88,1.88,0,0,1-2.72.82,3.32,3.32,0,0,1-.79-1.11,13.32,13.32,0,0,1-1.39-4.09c.12-3.57-2.36-.49-2.24-4.08.06-1.62-1.42-1.9-.72-2.87s1.46-6.12,1.06-6.95-1.22,3.63-2.42,2.29-1.67-3.74-2.21-4.83.07-1.88.13-3.55-.39-1.2-2-1.25c-.81,0-.21-1.73-.28-2.39s.51-2.36-.29-2.39c-1.58-.05-2,.38-2-1.26,0-1.3-1.65-1.36-2.5-1.43s-1.24-1.37-2.11-2.26.57-1.59.08-2.38-1.57-.39-2.52-.23-.35-1-1.31-1.45.64-.82-.6-1.81,0-3.56-.89-3.85c-4.36.06-12.93,0-14.58,0-2.09,0-2.2-.49-3.85-1.59-1-.67-3-.33-5.61-.33-2.19,0-1.89-2-4.61-1.65-2.31.33-2.53-1.1-4.84-.88a11.67,11.67,0,0,1-5.5-.77v4.62c0,1.21.77,1.65.77,2.75s-1,1.21-1,2.09.88.88.88,2.09.5,19.75.5,19.75" transform="translate(-610.35 -109.28)"/><path class="cls-1" d="M995.66,432.61c-1-2.79.63-5.15,2.44-6.85.84-.79,2.31.14,3.42-.89,1.72-1.61,1.46-1.61,3.07.1,3.13,3.34,3.25-1.08,3.33-3.43,0-.73,2.76-.28,3.56-.25,1.89.07,1-.7,1.27-2.3.42-2.23-.52-2.41,2-2.32" transform="translate(-610.35 -109.28)"/><path class="cls-1" d="M1020.73,461.56c-.4-4.51-4.75.34-4.59-4.18.05-1.61-.54-2.75,1.27-2.69,1.14,0,1.4.49,1.3,1.38-.35.95.21.66.46.46,1.72-1.38,4.52-3.24,4.17-.29-.29.68-.11,1.24.62.41.92-1,1.43-2,2.55-.81,1.57,1.68,1.65,1.38,3.85,1.67s2.28,0,3.84,1.67a2.85,2.85,0,0,0,2.52,1c.62,0,.34-.75.19-1.09l-1.32-2.87c-.38-.87,0-1.19,1.28-1.24a3.5,3.5,0,0,0,3.11-1.86c1.32-2.28-.78-2.41,2.84-2.28,2.76.1,2.06,1.48,4.28,2.53a9.67,9.67,0,0,0,3.52.2c.88,0,.74-.54.52-.77a4.75,4.75,0,0,1-1.53-2.34c-.08-1.08-.64-1.15-1-.85-1.74,1.45-3.85,2.64-3.74-.69.06-1.5-1.47-2.4-2.94-2.75-1.69-.37-.9-1.06-.4-1.56a2.41,2.41,0,0,1,1.52-.89c1.1,0,3.36.51,4.37.15,1.69-.6,1.63-2.3,3.63-2.23,1.45.05,2.14-.74,3-1.68.56-.49.56-1-.27-1-2.36-.09-4.61.24-7,.15-1.5.05-1-.74-.55-1.23,1.28-1.43,3-3.41,4.16-3.37,2.93.11,4.34,1.07,4.45-2.22,0-1.6.63-2.32-1.1-2.38s-1.16-.49-1.1-2.06c.08-2.34-4.33,1.39-4.63,1.68-1.39,1.31-1.94,4.86-2.61,6.65-.27.74-2.66.62-4,.4-.55-.08-1.24,0-.89-1.2.31-1.08.68-2.34.12-3.38-.27-.5-1.91-.07-2.35-.29-1.28-.64-2.75-2.68-3.88-4.1-.57-.59-.31-1,.42-.75,1.76.61,2.32-2.29,4.07-2.23,1.58.06,2,.52,2-1.12,0-1,.31-1.19-.7-1.22-2.1-.08-4.24-.06-6.34-.22-1.84-.15-2.48-.35-3.35-1.15-.36-.34-1.43-.69-1.48,1.44,0,1.73-.8,2.68-2.78,4.53-1.22,1.14-1.66,2-3.31,1.94-1.81-.06-1.09.69-1.27,2.3-.26,2.45-.17,5-.26,7.47-.12,3.62-.75.34-2.44,1.92-1.24,1.16,1.26,2.41-1.26,2.32-2.21-.08-6.29.59-8.28-.29-1.82-.8-3.54-5.44-2.12-7.18s2.31,1.81,2.44-1.9c0-.69-2.13-.66-2.61-.22-2,1.86-3.68,1.94-5.59,3.13a2.69,2.69,0,0,1-2.22-.17c-1.57-.66-2.72-.64-3.79-3.61" transform="translate(-610.35 -109.28)"/><path class="cls-1" d="M983.62,487.42a4.76,4.76,0,0,1,2.68-.61l5.47.19c2.76.1,2.17-1.44,4.45-2.22,3.07-1.06,2.32,1.72,2.25,3.63-.08,2.41-.34,3.34,1.35,5.13,1.35,1.44.71,3.49.65,5.4,0,.56,0,1.05-.06,1.44-.21,1.19-.26,1.9.73,1.51,2.35-.95,5.44-.17,8-.08,1.81.06,3.63,1.6,5.18,2.46,1.18.63,2.71.26,4,1,3.74,2,6.79,4.23,11.09,4.38,2.06.07,2.54,2.46,4.13,2.52s3.58.56,4.28,2.51c.29.8-.73,4.72.21,4.75,2.92.1,2,1.32,1.87,4.06,0,1,2.45.94,3.48,2a11.81,11.81,0,0,0,3.49,1.68c.26.87-.39,2.81-.93,4.76-.31,1.09-1.77,2.59-2.58,3.48s-3.52,2.26-3.57,3.71c-.06,1.67,0,2.15.71,2.92,1,.94,1.85-.19,2.26-.91a27.9,27.9,0,0,0,1.35-2.57c.43-1,0-2,.64-2.63,2.28-2.13,3.91-8.27,6.87-9,1.11-.26,3.57.12,4.74.16,2.33.08,2.38-.28,2.3,2.09-.1,2.76,3.43,3,5.75,3,.57.1,1.56-.26.19-1.13-.4-.44-1.07-1.46-.23-2.28,1.79-1.73,3.34-3.63,5.89-3.54,5.44.19.54-2.42,3.09-4.8,1.68-1.58,2.26-1.83,2.34-4.12,0-1.17,2.36.78,2.44-1.46,0-.8.48-3.55-.26-3.57-1.73-.06-2.33-.14-2.07-1.72.23-.67-.08-.67-1.31.06-1.77,1.05-4.46,2.3-5.71,1.34s1.52-2.31-1.1-2.4c-2.27-.08-.35-.91-1.1-2.41-.48-1-1.81-1.5-2.28-2.46-.76-1.51,1.16-2.33-1.11-2.4s-.37-.91-1.1-2.44c-.29-.58-2.1-2.62-2.55-2.2-1.22,1.14-2.18,1.57-2.24,3.23,0,1.36-.91,1.76-2.41,1.12-2.65-1.14-1.39-4.81-3.37-4.88s-6,.69-5.88-1.37c.08-2.25-.88-.41-2.32-1.26a7.74,7.74,0,0,1-1.78-1.86c-.21-.38-.78-.53-.63.14.43,1.86-1.11,1.6-3.08,1.53-2.42-.09-4.09.58-4-1.63.24-.78-.12-.78-.56-.58l-3.11,1.42c-1.12.66-.94-.15-.93-.43.07-1.61-.79-2.28-2.08-3.65-.38-.41.85-1.42,1.66-2.08.49-.28.65-.59-.7-.51a8.09,8.09,0,0,1-3.63-.5c-.36-.34,0-2,.21-3.31,0-.47.36-1.41-.72-.61s-3.2,1.95-4,1.78-2.55-2.94-3.09-3.33c-.7-.51-1.9-1-3.12-1.8a1.23,1.23,0,0,1-.51-1.66c.29-.85.85-1.23,1.74-2,.21-.19.72-.89-.63-.72s-1.14-.86-1.09-2.56c.08-2.31-.25-2.4,2.09-2.32.74,0,.47-2.74.5-3.53.06-1.83,1.15-1.15,2.77-1.09,1.16,0,6.8.81,8.23.52.89,1.38-.65,2.12,2.8,2.24.71,0,1.46.95,2.06,1.72.43.76.8.39.81-.38,0-1.32-.43-1.61-2-1.66-1.12,0-2-2.86-3.63-2.47-1.14-.31-1.55.21-3-1.32-.69-.75-3.11-.62-3.17-1.32" transform="translate(-610.35 -109.28)"/><path class="cls-1" d="M961.2,466.07H964c.85,0,1.1,1.1,2.2,1.1s1.1,2.2,1.1,3.17-1.1,1.1-1.1,2.2,1.1,1.71,1.1,2.93v2.69c0,.73-1.35.36-2.08,1.46s-.37,1.47.24,2.44,1,3.06,1.84,3.79,1.58,1.34,1.58,2.44,1,1.22,2,1.47a14.69,14.69,0,0,0,2.93.48c.73,0,2.32-.73,2.93-.12s1.52,2.92,2.62,3.17c.09-2.59-.79-4.39,2.16-4.29.91,0,1.49-1,2.13-1.58" transform="translate(-610.35 -109.28)"/><path class="cls-1" d="M932,445s2.07.85,1.83,1.95,1,1.83,2.08,1.22,2.44,1.59,2.19,3.18,1,3.17,2,4a5.85,5.85,0,0,0,3.66,1.84,4.18,4.18,0,0,1,3.91,2.93,21.59,21.59,0,0,1,1,4.51c0,1.1.25,1.47,1.83,1.47H961.2" transform="translate(-610.35 -109.28)"/><path class="cls-1" d="M932,445h-3.67c-1,0-1.46,1.1-2.19,1.1s-1.22-1.59-2.2-1.35-1.71,1-2.32-.24" transform="translate(-610.35 -109.28)"/><path class="cls-1" d="M922.62,416.13a18,18,0,0,1,.73-3.05c.49-1,1-2.42,1-2.42.88.55,1.87-.77,2.75.22s.44,2.2,1.76,2.2h3c.66,0,1.76-1.43,2.31-2.64.22-.49,2-2.94,4-5.73,1.09-1.47,1.08-3.72,2.35-5,.79-.79,2.07-2.24,3.33-3.39a32.94,32.94,0,0,1,2.89-2.46,21.66,21.66,0,0,1,6.54-3" transform="translate(-610.35 -109.28)"/><path class="cls-1" d="M922.62,416.13a8.29,8.29,0,0,0-3,.74,32,32,0,0,1-6.87,1.49c-1.34,0-2.53,1.64-4.17,1.49s-4.63.75-6,.75-2.84,1.49-4,1.49-1.94,1.64-2.84,2.54-1.79.89-2.38,2.23.44,1.94.44,3.29.15,3.13.15,4.17.75,1.5,1.79,1.5,1,.74,1,2.38.15,2.39,1.64,2.39,2.24,1.33,2.24,3.13h7.16c1.79,0,1.79-1.05,2.69-1.49s2.83.29,3.58.89,1.79,1.94,2.53,1.05a1.71,1.71,0,0,1,2.54,0c.6.59,1.45.44,2.5.29" transform="translate(-610.35 -109.28)"/><path class="cls-1" d="M900.64,443.72c0-1.8-.75-3.13-2.24-3.13s-1.64-.75-1.64-2.39,0-2.38-1-2.38-1.79-.45-1.79-1.5-.15-2.83-.15-4.17-1-1.94-.44-3.29a10.18,10.18,0,0,0-2.66-.79c-1.33-.15-1.66-.9-4.06-.42-1.41.28-.85.42-2.39.14s-1.4-.42-2.24.42a4.86,4.86,0,0,1-1.63,1.11,11.91,11.91,0,0,1-2.09.74c-1.2.3-3.73,2.24-4.78,2.24H869.3c0,1.94-.59,3-1.19,3H866v3.29h0a9.18,9.18,0,0,1,1.94,4.51c.28,1.68,1.13,1.82,2.11,2.24s1.26,2.25,1.26,3.65-.14,2.38,1,2.8a15.69,15.69,0,0,0,3.36.42c.84.14,2.39,0,3,.84s2.66,1.83,2.52,3.23-1.12,2.1-.28,3.36,1.82,2.66.42,3.37c-.84.42-1,1-1,2.1a16.7,16.7,0,0,1-.14,2.1c.84,1,1.68,2.52.84,3.78s-.84,2,.14,2.53a2,2,0,0,1,1,1.62h0" transform="translate(-610.35 -109.28)"/><path class="cls-1" d="M947.72,516.26c1.41-.63.82-2.78,1-3.61a19.84,19.84,0,0,1,2.69-6.86c.36-.88,2.09-1.64,3-.45a29.59,29.59,0,0,0,2.25,3.27c1.07,1.15.14,2.6,1,3.5,1.78,1.91,1.94,2,2,4.57,0,.83-.62,4.08-.17,4.73.28.39,2.1-.31,2.38.08s-.07,1.89-.09,2.37c-.12,3.48-.19,1.21-2.45,2.3s-1.54,2.43-4.25,2.34c-.54,0-1.64,1-2.54,1.45-2.47,1-2.42,1.95,1.19.67a101.93,101.93,0,0,0,20-9.52,53.84,53.84,0,0,0,8.16-6.86c2-1.87,4-4.72,6.54-5.67,1.22-.3,1.47-.88.23-.72a8.14,8.14,0,0,0-5.11,2.56c-1.25,1.16-1.82,2.11-3.5,2.53s-1.6-.23-1.71-.5c-1.08-2.66-4.18-5-4.06-8.28,0-1.64.47-1.17,2-1.12,1.1,0-.27,1.94.29,2.39s4.21.15,5.11.18c2.84.09,2.92-2.28.08-2.38-1.9-.07-3.69.19-2.66-2.47.52-1.34,4-2.45,2.54-4.67-.39-.59-2.4.65-2.36-.45,0-.78,0-1.57.08-2.35-1.1-.25-2-2.56-2.62-3.17s-2.2.12-2.93.12a14.69,14.69,0,0,1-2.93-.48c-1-.25-2-.37-2-1.47s-.73-1.71-1.59-2.44-1.22-2.81-1.83-3.79-1-1.34-.24-2.44,2.07-.73,2.07-1.46v-2.69c0-1.22-1.09-1.83-1.09-2.93s1.09-1.22,1.09-2.2,0-3.17-1.09-3.17-1.35-1.1-2.2-1.1H950.45c-1.58,0-1.83-.37-1.83-1.47a21.59,21.59,0,0,0-1-4.51,4.18,4.18,0,0,0-3.91-2.93,5.85,5.85,0,0,1-3.66-1.84c-1-.85-2.2-2.44-2-4s-1.1-3.79-2.19-3.18-2.33-.12-2.08-1.22S932,445,932,445h-3.67c-1,0-1.46,1.1-2.19,1.1s-1.22-1.59-2.2-1.35-1.71,1-2.32-.24c-1,.15-1.9.3-2.5-.29a1.71,1.71,0,0,0-2.54,0c-.74.89-1.79-.45-2.53-1.05s-2.69-1.34-3.58-.89-.9,1.49-2.69,1.49h-7.16" transform="translate(-610.35 -109.28)"/><path class="cls-1" d="M882.14,473.12a5.89,5.89,0,0,0-3.44,1.34c-.89.75-3.28,2.24-4.62,1.64a2.27,2.27,0,0,0-3,.6c-.9.89-1.94,1.79-1.94,2.68s.15,1.79-1.35,1.79-2.68.45-2.68,1.49a35.5,35.5,0,0,1-.89,4.59,3.24,3.24,0,0,1,2.34.95c1.38,1.45,1.48,1.57,1.41,3.56,0,.95,1.73.09,2.34.45,3.39,2,1.61,3.75.16,6.39-.77,1.39-1.52.11-2.76.65-.8.35-1.63,1.52-2.27,2.12-1,1-.07,4.92-3.09,4.81-2.16-.08-1.72-.29-1.94-2.07-.28-2.28-2.72-1.6-1.4.56s3.62,3.88,5.44,5.82c.85.9,1.74.25,2.85.59a22.72,22.72,0,0,1,3.93,2.14c1.21.66,1.83,2.29,3,2.84.94.45,3,.1,4,.14,2.23.08,3.81,2.51,6,2.59,4.51.15,12.12-1.08,15.27,2.29,1.59,1.69,1.5,5.41,4,5.5,1.89.06,3.59,2.35,5,4,.27.33.83,1.46.65-.14-.1-.88.26-1.31,1.39-1.27,2.52.08,0-1.18,1.26-2.33s2.3,1.42,2.39-1.1c0-1.63.47-1.17,2-1.11l7.11.25c1.13,0-.31-2.39.82-2.36s2,.55,2-.66c.06-1.85-.66-6.4,1.41-6.33.95,0,5.9.52,5.92-.17.05-1.32.1-2.66.14-4,0-1.13-2.36.31-2.32-.82.11-3.14,2.55-1,2.59-3.29-.38-1.31.68-.16,1.07.26s1,2.27,1-.11c-.07-3.41,4.18,1.46,5.24,1.49,4,.14.49,3.33,2.65,5.66.63.68,2.27,2.37,3.84,1.67" transform="translate(-610.35 -109.28)"/><path class="cls-1" d="M809.86,463.15c.29,1.32,1,2.15,2.39.82a22.46,22.46,0,0,1,6.86-4.23c1.35-.62,13.52-.57,14.43.4.47.5-.06,6.94-.51,7.34-1.22,1.13-2.17,1.55-2.23,3.21-.06,1.83.7,1.09,2.33,1.28.58.06,7.1,0,7.08.45-.12,3.37-.32,4.22,1.63,6.44.16.17.67.57,0,1.05a6.86,6.86,0,0,0-2,2.94c-.24.73,0,1.3,1,.77,2.74-1.08,5.33-1.52,7.57-3.11.36-.25,1.08-1.14,1,.73-.09,2.05,2,3.22,4.27,3.3,2.81.1,4.15.87,6.64,2.24,1.24.67,2.65.41,4,.47a35.5,35.5,0,0,0,.89-4.59c0-1,1.19-1.49,2.68-1.49s1.35-.89,1.35-1.79,1-1.79,1.94-2.68a2.27,2.27,0,0,1,3-.6c1.34.6,3.73-.89,4.62-1.64a5.89,5.89,0,0,1,3.44-1.34h0a2,2,0,0,0-1-1.62c-1-.56-1-1.26-.14-2.53s0-2.8-.84-3.78" transform="translate(-610.35 -109.28)"/><path class="cls-1" d="M740.91,383.17a2.49,2.49,0,0,0,.73,2.06c1,1.22,1.7,1.82,1.7,2.55v3.16a3.1,3.1,0,0,1-1.7,2.31c-1,.49-.85,1.22-.61,2.07s.61,1.7.24,2.43-1,1.34-.48,1.94.36,1,.36,1.83v7.29c0,1,0,1.58,1,2.06s3,.73,2.3,2.07-1.58,1.82-1.58,3-.6,1.82-1.33,2.79-.37,1.7-.37,2.43a9.56,9.56,0,0,0,1.1,2.68" transform="translate(-610.35 -109.28)"/><path class="cls-1" d="M799,473.19a10.42,10.42,0,0,0-1.09-.09l-7.45-.26c-3.49-.12-3-2.12-4-5.39-.93-3.1-.54-4.15,1.81-6.35,1.91-1.79,4.75-3,7-4.37s4.44-1.83,6.3-3.47" transform="translate(-610.35 -109.28)"/><path class="cls-1" d="M742.25,423.88a36.28,36.28,0,0,1-4.13,1.94c-1.77.72-4.14,2.55-6,3.64h9.6v48.81c4.85.16,9.86-.09,14.64.76,5.78,1,11.62,2.52,17.5,2.72,2.8.1,5.07-2.49,7.74-3.71,2.12-1,4.13-.61,6.47-.53,1.75.06,5.86-.5,7.33.56l.09.07" transform="translate(-610.35 -109.28)"/><path class="cls-1" d="M740.91,383.17v-.85a4.86,4.86,0,0,1,.51-1.26c.36-.56,0-1.41.22-2.12a3.38,3.38,0,0,1,1.62-1.84c.78-.43.93-1.35,1.49-2.06s.21-1.41-.42-2.05-.92-1.77-.92-3.4V338.36H752c1,0,1.05-.91,1.84-1.25s.78-.88.78-1.49-.78-.7-.78-1.66.69-1.4,1.57-1.48,1.31-1.05,2.88-1.49,2.36-1.22,2.36-2,1-1.22,2.36-1.22a5.19,5.19,0,0,1,3.75,1.66c.7,1,1.23,1.75,2.19,1.75h3.58s.09,2.27.09,3.14,1.57,2.18,2.27,2.8a3.74,3.74,0,0,1,1.4,2.7v4h2.27" transform="translate(-610.35 -109.28)"/><path class="cls-1" d="M823,380.52v-2.71c0-.7-1.75-1.31-2.1-2.62s-.87-2.09-.34-3.14,1-1.84.69-2.8.27-1.66.62-2.45a5.9,5.9,0,0,0,0-2.44c0-.7,1.13-1.14,1.13-2.27v-3.5c0-1-1-.52-1.22-1.83s-1.31-1.31-1.31-2.27-.44-1.75-.44-2.62.09-2.89-.79-2.89-2,.35-2.62-.52a2.25,2.25,0,0,1,.09-2.53c.44-.88-1-1.22-1.48-2l-25.07.09c-.7,0-.88-.62-1.49-.62s-.78.44-1.66.44H778.6" transform="translate(-610.35 -109.28)"/><path class="cls-1" d="M795.53,478.14c1.56,1.16,4.78,4.54,6.61,4.6,1.17,0,3.49-.36,4.53.16s1.36,2,2.29,2.46c1.34.71,2-.33,3.17.93,1.37,1.46,1.49,1.58,3.46,1.65,3.1.1,5.15-.8,5.27-4.17,0-1,2.27-2.78,3.79-4,2.15-1.9-.67-.83-1-1.22s1-3.12-1.15-1.27c-1.91,1.61-2.13.68-4.32-1.7-1.44-1.56-1.57-1.83-3.68-1.9-1.05,0,.29-2.36-.49-2.38L805.9,471c-2.27-.08-.42.86-1.27,2.31a7.62,7.62,0,0,1-1.8,1.89.59.59,0,0,1-1.05,0,3.64,3.64,0,0,0-2.8-2" transform="translate(-610.35 -109.28)"/><path class="cls-1" d="M866,436.57v-3.29h2.09c.6,0,1.19-1,1.19-3-1,0-2.08.3-2.83-.75s-1.19-2.39-2.68-2.39" transform="translate(-610.35 -109.28)"/><path class="cls-1" d="M801.58,453.26l.2-.16c1.28-1.2,1.44-1.15,3.23-1.09.92,0,2-1.49,2.63-2.11a1.46,1.46,0,0,1,2.52,1.1c-.09,2.63,1.41-.1,2.32,1.28,1.32,2-2.16,5.42-2.61,7a10.14,10.14,0,0,0,0,3.84" transform="translate(-610.35 -109.28)"/><path class="cls-1" d="M823,380.52h2.33a4.85,4.85,0,0,0,2.53,2.63c1,.3,1.49,1.49,2.38,2.39s2.09,2.38,2.09,3.73V393c0,.89-1.19.89-1.19,1.64s1.34,1.34,1.34,2.09-.3,2.83.75,4,2.24,2.24,2.68,3.59,1,3.43,2.69,3.43,2.68,1,4.47,1,2.69.15,2.69,1.49a5.85,5.85,0,0,0,.89,3.59c.9,1.64-.29,3.43.15,4.77a4.08,4.08,0,0,1,0,3c-.29,1.2.15,1.65,1.79,1.35s3.59-.75,5.08-.3,2.83,3,2.83,4.47" transform="translate(-610.35 -109.28)"/><path class="cls-1" d="M880.16,465.18a16.7,16.7,0,0,0,.14-2.1c0-1.12.14-1.68,1-2.1,1.4-.71.42-2.11-.42-3.37s.14-2,.28-3.36-2-2.39-2.52-3.23-2.11-.7-3-.84a15.69,15.69,0,0,1-3.36-.42c-1.12-.42-1-1.4-1-2.8s-.28-3.23-1.26-3.65-1.83-.56-2.11-2.24a9.18,9.18,0,0,0-1.94-4.51h0" transform="translate(-610.35 -109.28)"/><path class="cls-1" d="M726.92,171h14.26v-3.1c0-1,.25-1.54,1.09-1.54h17.65v-.83c0-.74.9-.74.9-1.81v-8.87c0-1-1.21-.32-1.21-1.2s1.1-.22,1.1-1.09v-4.6h-9.64v-5.48h-2.62c-1.32,0-.66-.21-2-2-1.61-2.13-5.26-2.62-5.26-2.62H732" transform="translate(-610.35 -109.28)"/><path class="cls-1" d="M712.52,204v3.25c0,1.2.93.64,2,1.76a2.6,2.6,0,0,1,.83,3.15c-.37,1.48.47,2,1,2.78a3.39,3.39,0,0,1,.93,2.78c0,1.76-.46,1.57-1.11,2.87s.83.93.65,2.32.83,1,1.29,2.41-.65,1.66-1.57,2.68S716,230,716,230.91v3.42c0,1.3-.19,2.69-1.3,1.86a2.2,2.2,0,0,0-3.15,0c-1.11.92.56,1.11.09,2s.28,1.11.28,2.68-.09,2.69-1.11,3.53a3.53,3.53,0,0,0-1.3,3.24c0,1.57,0,3.1.56,3.71s.37,1-.19,2-.18,1.86.65,1.86h2.23c.74,0,.64,1.3,1.11,1.3h1.39v3c0,.93.28,1.48.92,1.48h2.23c.65,0,.83.28,1.39,1.49a1.9,1.9,0,0,0,2,1.39h3.7c.93,0,1.58,1.29,2,2.5s1.2,1.76,2.32,3.06,2.27,1.31,3.15,3.05a14.4,14.4,0,0,1-2.88,2.23c-1.29.65-2.78,1.39-3,2.41s-2,2.22-3,2.68-2.5,1.12-3,2.23a7.11,7.11,0,0,1-3.34,3.24,6.52,6.52,0,0,0-2.87,2.32c-.84,1-2.23.28-3.06,1.11s-.68,1.56-.89,2.44c-1.09-.37-1.82,0-3-1.34s-4.26-1.54-6.93-1.54h-16" transform="translate(-610.35 -109.28)"/><path class="cls-1" d="M626.8,237.14a13.94,13.94,0,0,1,0,1.59c-.07,1.92,2.13,2.92,3.48,4,1.09.86,1.74,3.2.75,4a1.13,1.13,0,0,0,.07,2,2.79,2.79,0,0,1,1.13,2.53c0,1.08,2-.14,2.35.44s.1,2.4-.45,2.38c-2.94-.1-2.06,1.72-2.15,4.31-.07,1.94-.28,2.68-1.12,3.61-.68.66-1.09,1.28-.16,1.31,1.6.05,1,1.79,1,3.71-.06,1.63.38,1.19,1.95,1.25,1.09,0-.26,1.93.29,2.38.82.68,4.78.17,5.92.21,1.48,0,1.39,1.62,1.2,3.15-.12,1.31-.81,1.76-1.52,1.72-1.4.16-1.82.83-.57,1.82.88.7,2.12.78,3.83.53.69-.1.25,3.59.22,4.38,0,1.08,1.92-.13,2.33.45s-.15,1.81-.08,2.36a16.9,16.9,0,0,1,.49,3.54c-.08,1.52-.72,2.91-.75,3.94-.08,2.26.4,2.51,2,4.19.6.65,2.63-.22,2.59.71,0,.74-.54,3.82-.15,4.37,1,1.36,2.42-1.34,2.33,1.27-.09,2.76,0,3.53,1.55,5.31.65.8.56.17.56-.48.18-1.35,1.37-1.38,2.8-1.24,0-1.07.15-5.06.34-6.67a2.72,2.72,0,0,1,2.8-2.52h6.87a6.17,6.17,0,0,1,1.68-3.08c1.12-1.13,1.83-4.07,2.39-5.19s1.54-1.12,3.36-1.12H684.9" transform="translate(-610.35 -109.28)"/><path class="cls-1" d="M723.53,339.17c0-1.09-1.09-2.31-1.09-3.28v-4.38c0-1.33,1.09-1.82,1.09-3.28s-1-2.06-1-3.52V302.59a3.5,3.5,0,0,0-1.7-3,6.51,6.51,0,0,1-2.43-3.76c-.12-1.1-1.09-2.92-2.92-2.92s-3.52-1.34-4.62-1.7-1.82,0-3-1.34-4.26-1.54-6.93-1.54H674.11c-1.82,0-2.8,0-3.36,1.12s-1.27,4.06-2.39,5.19a6.17,6.17,0,0,0-1.68,3.08h-6.87a2.72,2.72,0,0,0-2.8,2.52c-.19,1.61-.35,5.6-.34,6.67.5.05,1,.12,1.55.16a.44.44,0,0,1,.35.69c-.43.91-.8,2-1.47,2.32-1.33.66-.1,2.44,1,3.71a.53.53,0,0,1-.56.77c-2.65-.31-2,4.3-.4,4.36,2.74.1,1,5.23,1,5.93-.07,1.91-.79.91-2.42,1.11s-2.34-.8-2.4,1.1c0,.84-.29,3.56.24,3.57,1.72.07,4.4-.67,4.33,1.34-.09,2.46.64,3.58-2.13,3.48-1,0,.18,2.31-1.69,2.42-.29,0-.67.35,0,1.19a5.4,5.4,0,0,1,1,2.46" transform="translate(-610.35 -109.28)"/><path class="cls-1" d="M769.6,228V204.89h-4.52c-1.05,0-1.89-1-2.84-1s-1,1-1.79,1H757c-2.11,0-2.63-.86-6.94-.86H712.52v3.25c0,1.2.93.64,2,1.76a2.6,2.6,0,0,1,.83,3.15c-.37,1.48.47,2,1,2.78a3.39,3.39,0,0,1,.93,2.78c0,1.76-.46,1.57-1.11,2.87s.83.93.65,2.32.83,1,1.29,2.41-.65,1.66-1.57,2.68S716,230,716,230.91v3.42c0,1.3-.19,2.69-1.3,1.86a2.2,2.2,0,0,0-3.15,0c-1.11.92.56,1.11.09,2s.28,1.11.28,2.68-.09,2.69-1.11,3.53a3.53,3.53,0,0,0-1.3,3.24c0,1.57,0,3.1.56,3.71" transform="translate(-610.35 -109.28)"/><path class="cls-1" d="M732.91,272.51c-1-1.83-2-1.76-3.15-3.05s-2-1.86-2.32-3.06-1-2.5-2-2.5h-3.7a1.9,1.9,0,0,1-2-1.39c-.56-1.21-.74-1.49-1.39-1.49h-2.23c-.64,0-.92-.55-.92-1.48v-3h-1.39c-.47,0-.37-1.3-1.11-1.3h-2.23c-.83,0-1.2-.84-.65-1.86s.79-1.43.19-2" transform="translate(-610.35 -109.28)"/><line class="cls-1" x1="159.25" y1="118.69" x2="187.68" y2="118.69"/><path class="cls-1" d="M840.27,247c-.44-1-1.26-1.33-1.45-2.28s-1.58-1.7-1.83-2.21.63-1.26.63-1.89v-3.79a3.06,3.06,0,0,0-.57-2c-.44-.51.06-1.71.76-2.59h-2.1v-8.74h-3.83c-.86,0-.57,1.44-1.43,2.3s-1.15,2.1-2.2,2.39-1.34,1.62-2.1,2.58a4.79,4.79,0,0,1-3.54,1.81,6.87,6.87,0,0,0-3.73,1.06c-.76.57-.86-1.15-1.53-1.34s-.57-1.25-.57-1.82,0-1.62-1.15-1.62-1.52-.86-2.48-1.25-.38-2.48-1.43-2.48a4,4,0,0,1-2.59-1.53l-2.11.52V228h-9" transform="translate(-610.35 -109.28)"/><path class="cls-1" d="M732.91,272.51a14.4,14.4,0,0,1-2.88,2.23c-1.29.65-2.78,1.39-3,2.41s-2,2.22-3,2.68-2.5,1.12-3,2.23a7.11,7.11,0,0,1-3.34,3.24,6.52,6.52,0,0,0-2.87,2.32c-.84,1-2.23.28-3.06,1.11s-.68,1.56-.89,2.44c1.1.36,2.8,1.7,4.62,1.7s2.8,1.82,2.92,2.92a6.51,6.51,0,0,0,2.43,3.76,3.5,3.5,0,0,1,1.7,3v22.12c0,1.46,1,2.07,1,3.52s-1.09,1.95-1.09,3.28v4.38c0,1,1.09,2.19,1.09,3.28h8.05c1,0,1.84-.81,3.4-.81H752c1,0,1.05-.91,1.84-1.25s.78-.88.78-1.49-.78-.7-.78-1.66.69-1.4,1.57-1.48,1.31-1.05,2.88-1.49,2.36-1.22,2.36-2,1-1.22,2.36-1.22a5.19,5.19,0,0,1,3.75,1.66c.7,1,1.23,1.75,2.19,1.75h3.58" transform="translate(-610.35 -109.28)"/><path class="cls-1" d="M772.57,331.17s.09,2.27.09,3.14,1.57,2.18,2.27,2.8a3.74,3.74,0,0,1,1.4,2.7v4H787c.88,0,1-.44,1.66-.44s.79.62,1.49.62l25.07-.09c-.53-.79.08-1.57,1-1.92s.62-1.05.62-1.75v-5.07c0-.87-1.05-1-1.05-1.92v-2.88c0-.61.78-1.14,1.83-1.14s1.92-1.13,2.45-2.27,1.4-.61,2.09-1.57,1.23-3.06,2.33-4.17" transform="translate(-610.35 -109.28)"/><path class="cls-1" d="M824.51,321.23c-.7,1,1,2.3,1.82,2.24,1.83-.14,2.35-2.06,3.37-.84a3.71,3.71,0,0,1,1.12,3.08c-.28,1.12-.44,1.72.25,1.61,1.17-.54,4.06-1.2,4.82-2.2,1.05-1.38,0-2.27,1.66-3.85,1.39-1.29-.09-1.83-1.24-3.09-.7-.75-1.81-2.6-2.83-2.64-4.69-.16-.06-4.66.62-7.08a21.89,21.89,0,0,0,.15-4.37c0-1.18-2.39.61-2.32-1.64.09-2.57-2.38.13-2.29-2.45.07-1.79,1-1.15,2.62-1.09,3.93.13,5.54-.3,9.13-2,.56-.26.33-3.75.36-4.46,0-1.16-2.38.6-2.3-1.63s-2.35-.47-2.31-1.63c0-.49,0-1,.05-1.48a2.84,2.84,0,0,0-.49-1.05c-1.35-1.41-2.9-3.16-1.06-4.87s4.23-3.08,4.11.38c-.06,1.67,0,5.12,2.55,5.21,2.15.07,2,.22,2.07-1.94,0-.49,1-.5,1.7-.41.27,0,.67.08.12-.47-1-1-1.91-2.05-2.87-3.08-1.49-1.59-.35-1.81-1.06-3.6-.53-1.32-2.3-1.63-2.25-3.2s.11-2.9.16-4.36c.08-2.44.14-1.81,2.42-1.9,1.43,0,2.93.11,4.37.16,3.23.11,2.95-4.9,3-5.82,0-.57-.9-.29-1.25-.08-1.42.89-4.86,2.16-6.17.74-2.56-2.74-2.69-3.62-.37-5.93.65-.7,1.17-.36,1.14-.17-.49,2.69.9.5,2.17,1.88.67.72,2.71,2.67,3.51,2.52s.94-.36,1.06-.62-.3-1.64.26-2.16,2.1-1.48,2.19-2c.27-1.56-2.25-3.51-2.19-5.2a4.39,4.39,0,0,1,2.52-4.27c.64-.32,2.36.66,2.39-.29a.41.41,0,0,1,0-.17h-15" transform="translate(-610.35 -109.28)"/><path class="cls-1" d="M612.73,199.17q-.29,8-.56,16c-.1,2.89-1.32,4.9,1.83,5,1.13,0-.48,2.34.65,2.38,2.15.08,1,0,1,2.15,0,1.16,2.4-.61,2.32,1.63-.09,2.54,1.16,0,2.32,1.27s-1.42,2.32,1.1,2.4c.63,0-.42,1.82.5,1.78a2.75,2.75,0,0,1,2.24,2c-.05.43-.22.85,0,1s.78,0,1.37,0c1,.19,1.3,1.16,1.38,2.36" transform="translate(-610.35 -109.28)"/><path class="cls-1" d="M631.53,111.56c-6,0-12-.23-18.1-.44.06.41.11.83.17,1.24.68,5.18,1.8,10.42,1.61,15.65q-.33,9.36-.65,18.7l-1.11,31.71-.72,20.75" transform="translate(-610.35 -109.28)"/><path class="cls-1" d="M659.65,110.8c-4.57,0-9.15.19-13.8.44-4.8.27-9.56.34-14.32.32" transform="translate(-610.35 -109.28)"/><path class="cls-1" d="M685,111.26l-4.18-.15c-7.14-.25-14.12-.39-21.13-.31" transform="translate(-610.35 -109.28)"/><path class="cls-1" d="M732,137.87V134.8c0-1.09-.88-1.53-.88-2.41s1.75-.65,1.75-1.75V112.83c-16-.12-32-1-47.94-1.57" transform="translate(-610.35 -109.28)"/><path class="cls-1" d="M712.52,204h10.82a7.2,7.2,0,0,1,1.27-2.09,2.67,2.67,0,0,0,.94-2.31c-.21-.63-.73-1-.1-1.47s1.26-.84,1.26-1.79.95-1.89.95-3.05v-14.4c0-.84-.74-1.47-.74-2.31V171" transform="translate(-610.35 -109.28)"/></svg>