<svg id="base_map" data-name="base map" xmlns="http://www.w3.org/2000/svg" viewBox="0 0 503.2 306.33"><defs><style>.cls-1{fill:#015067;stroke:#fff;stroke-width:0.84px;}.cls-2{fill:none;}</style></defs><path class="cls-1" d="M647.72,379.27c2.24-.14,2.16,1.86,3.42,3.68s-3.2,6.35-1.1,5.09,2.25,1.26,3.65,1.12,1.54-2.52,3.5-1.26a7,7,0,0,0,3.25,1.24h.06c1,0,0-1.93.63-2.5,1.22-1.12,1.8-2.12,3.46-2.06.73,0,3,.47,3.56.12,1.36-1-1.07-2.4.69-2a2.15,2.15,0,0,0,1.85-.81c.61-1.06-1.41-2.6-2.12-.47a1.88,1.88,0,0,1-2.72.81,3.12,3.12,0,0,1-.78-1.1,13.08,13.08,0,0,1-1.4-4.1c.13-3.57-2.36-.49-2.24-4.07.06-1.62-1.42-1.91-.72-2.87s1.46-6.13,1.07-7-1.23,3.64-2.43,2.29-1.67-3.73-2.2-4.83.06-1.87.12-3.55-.38-1.19-2-1.25c-.81,0-.2-1.72-.28-2.39s.52-2.35-.29-2.38c-1.57-.06-2,.37-2-1.26,0-1.3-1.66-1.37-2.5-1.43s-1.25-1.37-2.12-2.27.58-1.58.09-2.37-1.57-.39-2.53-.24-.35-1-1.3-1.45.64-.81-.61-1.81,0-3.56-.89-3.84c-4.35.05-12.93,0-14.58,0-2.09,0-2.2-.49-3.84-1.59-1-.68-3-.33-5.61-.33-2.2,0-1.9-2-4.62-1.65-2.31.33-2.53-1.1-4.84-.88a11.61,11.61,0,0,1-5.49-.77v4.62c0,1.21.77,1.64.77,2.74s-1,1.21-1,2.09.88.88.88,2.09.5,19.76.5,19.76c1.94,0,9.85.9,11.67,1.74a21.76,21.76,0,0,0,4.93,1.86c1.55.28,3.36,2.55,6,3s-.07,5.95,3.16,5.39,6.82,2.57,9.2,1.45S645.48,379.41,647.72,379.27Z" transform="translate(-168.03 -83.25)"/><rect class="cls-2" width="18.83" height="32.37"/></svg>