<svg id="base_map" data-name="base map" xmlns="http://www.w3.org/2000/svg" viewBox="0 0 469.45 434.66"><defs><style>.cls-1{fill:none;stroke:#00aeef;stroke-linejoin:round;stroke-width:3px;stroke-dasharray:3 3;}</style></defs><path class="cls-1" d="M1750.93-256.49v-1.09h-6.69c-1.09,0-1,.85-2.19.85h-4.25c-1.21,0-.85-.85-2.55-.85s-21.51.24-23.82.24-3.28,1.09-4.62,1.82a4,4,0,0,1-3.88-.36,5.18,5.18,0,0,0-4-.73c-.39.14-1.09.36-1.9.61a26.84,26.84,0,0,1,0,4.56c-.1,2.57-2.36-.28-2.45,2.28,0,.8.23,3.57-.5,3.54-4.17-.14-1.39,4-1.53,7-.07,1.43-2,3.06-6.22,6.38-1.38,1.08-.45,3.39-.47,4.1a4,4,0,0,1-2.13,2.54c-1.92.31-1.55,1.09-2.33,2.23-1.36.52-.45,1.26-.06,1.56.62.46,0,1.83,1.55,1.88,1.8.07,1.62,2,0,2.35-2,.13.34,1.46.81,3a10.07,10.07,0,0,1,0,3c-.06,1.62-.45,1.16-2,1.11-1,0,.08,1.87-.45,2.36s-2.34-.77-2.38.29c0,.47,0,.94-.05,1.42" transform="translate(-1652.33 488.2)"/><path class="cls-1" d="M1678.83-206.42l-.06,1.76-.12,3.56a4.37,4.37,0,0,0-.06,1.63c.19,1.13,1,1.82,2,2.86a1.18,1.18,0,0,0,.9.34l1.38.05c.72,0,.27,2.77.24,3.55-.06,1.7.41,4.09-.31,5.26-.15.26-.49.63-.41.67a.93.93,0,0,1,.49.52,3.15,3.15,0,0,1-.06,1.84c0,.8-.06,1.59-.08,2.39l1.65,1.75c.21.23-.17.52-.48.53-2.12.05-1.19,2.66-1.42,4.8-.14,1.34.17,1.81-.73,2-.57.11-.57.42.15.58s.58,1.14.26,1.74a6.28,6.28,0,0,1-.48.78" transform="translate(-1652.33 488.2)"/><path class="cls-1" d="M1681.65-169.84a29.79,29.79,0,0,1-4.43,4.41c-2.84,2.65-4.69,3.66-4.83,7.63-.15,4.16-5.21,10.81-9.5,10.66-.73,0-.47,2.74-.49,3.54-.06,1.53.59,1.86,1.65,3,.83.91-.07,2.36.51,3,.79.87,2-.63,2.72.83,1.18,2.59,2.26,6,5.29,3.15l3.71-3.44c.53-.5,1.91.08,2.62-.07l9.3-2c1.89-.4,3.92.34,5.85-.07,5.48-1.19,10.23-2.57,15.73-1,2.71.78,6,2.91,8.18.86,1.83-1.73,3.86-1.06,6.33-1,5.12.18,10-.23,14.75,1.85,4.94,2.19,9.82,5,14.85,6.9q8.43,3.16,16.87,6.3a25.48,25.48,0,0,1,6.23,3.66c2.58,1.86,3.5,2.22,6.63,2.33h.12V-168" transform="translate(-1652.33 488.2)"/><path class="cls-1" d="M1774.14-168c1.82-1.09,4.19-2.92,5.95-3.64a35,35,0,0,0,4.13-2,9.64,9.64,0,0,1-1.09-2.67c0-.73-.37-1.46.36-2.43s1.34-1.58,1.34-2.79.85-1.71,1.58-3-1.34-1.58-2.31-2.07-1-1.09-1-2.06V-196c0-.85.12-1.22-.37-1.83s.13-1.21.49-1.94a3.5,3.5,0,0,0-.24-2.43c-.25-.85-.37-1.58.6-2.07a3.09,3.09,0,0,0,1.71-2.31v-3.16c0-.73-.73-1.33-1.71-2.55a2.46,2.46,0,0,1-.72-2.06v-.86" transform="translate(-1652.33 488.2)"/><path class="cls-1" d="M1750.93-256.49h14.58v-1.82h8c1,0,1.84-.81,3.39-.81h8.43v31.23c0,1.63.28,2.76.92,3.4s1,1.35.43,2.05-.71,1.63-1.49,2.06a3.36,3.36,0,0,0-1.63,1.84c-.21.71.14,1.56-.21,2.12a4.48,4.48,0,0,0-.51,1.25" transform="translate(-1652.33 488.2)"/><path class="cls-1" d="M1921.61-439.14c.43-.56,2.33.81,2.37-.29,0-.61-.3-2,.44-2,2.77.1,2-1,2.14-3.46,0-1.38-.69-2.09-1.58-2.95-.54-.53-.83-.74-.76.82.12,3-1.09,5.55-5.27,5.4-1.73-.06-4.41.68-4.34-1.33.06-1.57.11-3.15.17-4.72.09-2.57,2.37.31,2.49-3.09,0-.8,4.34-2.69,5.15-2.66,1.58.06,2,.52,2-1.12,0-.88.29-1.09-.48-1.38l-6-2.23c-2.22-.83-2.17.65-2.07-2.27,0-1.57.78-3.15.83-4.72.09-2.64.32-2.95,2.28-4.78,1-.9,2.55-.07,3.86-1.3,1.55-1.45,3.37-7.19,1.8-8.89a30.09,30.09,0,0,1-2-4.18c-.51-1.08-1.84-.88-3.58.74-.29.87.37,1.19,1.07,1.75s-2.63,1-1.23,2.94c1.59,2.22,1.24,1.8-.71,3.63-.68.64-2.83.15-3.8.12-1.76-.07-1.12-.8-1.09-2.42,0-2.13.11-2.39,1.65-3.84.62-.58,1.67-2.25.94-3.16-.6-.75-8.35-.21-9.49-.25l-1.07,0v.09" transform="translate(-1652.33 488.2)"/><path class="cls-1" d="M1918.32-401.26c1.34.13,2,.06,2-2,0-.56,1.47-.64,1.93-.35.31.19.78,1.24,1.07.87,1-1.24,4.17-1.42,4.22-.24s-.65,4-.29,4.34c1.08,1.16,2.38-.1,2.41-1.1.09-2.63.19-5.26.28-7.9,0-1.62-.55-2.76,1.28-2.7,1.09,0,1.38.46,1.32,1.27,0,.32.22.75.47.54,1.71-1.42,4.19-3.19,4.26-5.16.1-2.81.25-3.56,2-5.29.3-.33.69-.89,0-.93-1.18-.07-1.74.18-1.78,1.48-.06,1.55-.72,1.82-1.87,2.89s-4.54.45-6.24.39c-2.51-.08-1.39-3-1.32-5.17s-.08-2,2.07-1.93c.74,0,.43-1.69.45-2.33.14-4-2.33-2.4-4.46-.4-1,1-4.95.12-5.8-.79-1.87-2-3.8-3.22-3.7-6a4.22,4.22,0,0,1,2.52-3.52c.68-.39,2.54,1.18,3.79,2.53,1.79,1.94-.54,3.18,2.73,3.3,1.89.06,3.62.44,2.8-2.27s-3-1.69-4.65-2.54c-1.18-.6-3.3-3.36-2.19-4.83" transform="translate(-1652.33 488.2)"/><path class="cls-1" d="M1834.21-485l-52.38.38q-3.48,0-6.95,0v17.81c0,1.1-1.75.88-1.75,1.75s.87,1.32.87,2.41v3.07" transform="translate(-1652.33 488.2)"/><path class="cls-1" d="M1890.43-485.25l-3.14-.1c-11.7-.41-23.49.1-35.21.2l-17.87.13" transform="translate(-1652.33 488.2)"/><path class="cls-1" d="M1905.4-484.71v-.09c-4.5-.15-10.17-.3-15-.45" transform="translate(-1652.33 488.2)"/><path class="cls-1" d="M1879.78-365.23c-.69.88-1.2,2.08-.75,2.59a3.05,3.05,0,0,1,.56,2v3.79c0,.63-.88,1.39-.63,1.89s1.64,1.26,1.83,2.21,1,1.27,1.46,2.28h15a3.58,3.58,0,0,0,.56-1.4c0-.56-.54-1.07-.5-1.61.17-2.3.19-4.61.25-6.92a1.08,1.08,0,0,1,.74-1,17.44,17.44,0,0,0,3.63-2.24c.28-.2.47-.08.45.14-.14,1.23-.49,3.7-.12,4.21,1,1.5,2.38-.38,2.28,2.46,0,1.2,4.2-1.07.4-4.48-1.87-1.67,1.07-1.58,1.83-2.56s2.18-3.95,2.65-4.38c1.78-1.65,2.57,1.34,2.69-2.16a9,9,0,0,1,5-7.32c1.68-.75,3.76.51,4.81-2.19s-.49-2.26-2.27-2.47c-.86-.1-4.76.29-4.73-.54s-.17-4.36.52-4.33c3.4.12.55,2.38,3.11,2.47,1.64.05,3.51.88,3.57-1.06s2.48-2.28,2.53-3.83c0-.45.3-1.57.07-1.78l-.59-.47a8.92,8.92,0,0,0-1.8.15c-1.62.06-3.3-.11-4.93-.17-1.8-.06-4.57.77-4.5-1.33.1-3-.58-8.33,3.85-8.17.62,0,1.14.09,1.59.13" transform="translate(-1652.33 488.2)"/><path class="cls-1" d="M1768.89-426.5v5.63c0,.84.74,1.47.74,2.31v14.4c0,1.16-1,2.1-1,3.05s-.63,1.37-1.26,1.79-.1.84.11,1.47a2.68,2.68,0,0,1-1,2.31,7.09,7.09,0,0,0-1.26,2.09H1792c4.31,0,4.84.86,6.94.86h3.47c.74,0,.84-1.06,1.79-1.06s1.78,1.06,2.84,1.06h4.52" transform="translate(-1652.33 488.2)"/><path class="cls-1" d="M1879.78-365.23h-2.1V-374h-3.82c-.86,0-.58,1.44-1.44,2.3s-1.14,2.1-2.19,2.39-1.34,1.62-2.11,2.58a4.77,4.77,0,0,1-3.53,1.81,6.9,6.9,0,0,0-3.73,1.05c-.77.58-.86-1.14-1.53-1.33s-.57-1.25-.57-1.82,0-1.62-1.15-1.62-1.53-.87-2.49-1.25-.38-2.48-1.43-2.48a4,4,0,0,1-2.58-1.53" transform="translate(-1652.33 488.2)"/><polyline class="cls-1" points="159.25 95.61 159.25 118.69 187.68 118.69 196.67 118.69 196.67 114.86 198.78 114.33"/><path class="cls-1" d="M1915.68-271.13c-14.21.36-28.45.63-42.64,1-.69.11-.53-.49-.25-1.61a3.71,3.71,0,0,0-1.12-3.08c-1-1.22-1.54.7-3.36.84-.84.06-2.52-1.26-1.82-2.24-1.11,1.11-1.63,3.21-2.33,4.17" transform="translate(-1652.33 488.2)"/><path class="cls-1" d="M1946.24-239.63a2.57,2.57,0,0,1,0-1.9c.42-.94-.94-.73-.84-1.68s1.47-1.47,1-2.63a5,5,0,0,1,0-3.26,4.7,4.7,0,0,0-.42-3.26c-.52-1.36.63-1.68-.21-2.62s-.63-1.48-.21-2.63,0-1.47-.52-2.63-.95-2.73-.42-3.78,2-2.42,1.89-4.1a10.42,10.42,0,0,1,.77-4l-7.18.24c-8.14.3-16.3.52-24.47.72" transform="translate(-1652.33 488.2)"/><path class="cls-1" d="M1966.37-186.82c.88.55,1.87-.77,2.75.22s.44,2.2,1.76,2.2h3c.65,0,1.75-1.43,2.3-2.64a12.91,12.91,0,0,1,1.81-2.68,31.45,31.45,0,0,1,2.07-2.85c.84-1,1.14-3.1,2.07-4.67l3.76-3.9a16,16,0,0,1-2.66-4.57c-.48-1.47-4,3.94-5,3.72s-1.21-.55-1-1.65-.55-1.1-.88-2.53-1.2-1.54-2.52-2.52-.88-1.32-1-3.08-1.21-1.76-1.21-3.74v-17h-31.23" transform="translate(-1652.33 488.2)"/><path class="cls-1" d="M1971.65-272.54h-.07c-7.95,0-16.15.19-24.25.45a10.42,10.42,0,0,0-.77,4c.1,1.68-1.37,3-1.89,4.1s-.11,2.62.42,3.78.94,1.47.52,2.63-.63,1.68.21,2.63-.31,1.26.21,2.62a4.7,4.7,0,0,1,.42,3.26,5,5,0,0,0,0,3.26c.42,1.16-.94,1.68-1,2.63s1.26.74.84,1.68a2.57,2.57,0,0,0,0,1.9s-.16,2.46-1.42,2.46-1.8.31-2.42,1.76c-.33.77-1.76,1.87-2,2.86h31.23" transform="translate(-1652.33 488.2)"/><path class="cls-1" d="M1867.28-217H1865v-2.7c0-.7-1.75-1.31-2.1-2.62s-.87-2.09-.35-3.14,1-1.84.7-2.8.26-1.66.61-2.45,0-1.74,0-2.44,1.14-1.14,1.14-2.27v-3.5c0-1-1-.52-1.23-1.83s-1.31-1.31-1.31-2.27-.43-1.75-.43-2.62.08-2.89-.79-2.89-2,.35-2.62-.52a2.23,2.23,0,0,1,.09-2.53c.43-.88-1-1.22-1.49-2s.09-1.57,1-1.92.61-1,.61-1.75v-5.07c0-.87-1-1-1-1.92v-2.88c0-.61.79-1.14,1.84-1.14s1.92-1.13,2.44-2.27,1.4-.61,2.1-1.57h0" transform="translate(-1652.33 488.2)"/><path class="cls-1" d="M1940.42-232.55c.22-1,1.65-2.09,2-2.86.62-1.45,1.16-1.76,2.42-1.76s1.42-2.46,1.42-2.46" transform="translate(-1652.33 488.2)"/><path class="cls-1" d="M1922.32-170.17a11.09,11.09,0,0,1-2.09.75c-1.19.3-3.73,2.24-4.77,2.24h-4.18c-1,0-2.09.3-2.84-.75s-1.19-2.39-2.68-2.39h-7.31c0-1.49-1.35-4-2.84-4.47s-3.43,0-5.07.3-2.09-.15-1.79-1.35a4.08,4.08,0,0,0,0-3c-.45-1.35.75-3.14-.15-4.78a5.76,5.76,0,0,1-.9-3.58c0-1.34-.89-1.49-2.68-1.49s-2.84-1-4.48-1-2.23-2.09-2.68-3.44-1.64-2.38-2.69-3.58-.74-3.28-.74-4-1.35-1.34-1.35-2.08,1.2-.75,1.2-1.64v-3.73c0-1.35-1.2-2.84-2.09-3.73s-1.35-2.09-2.39-2.39a4.87,4.87,0,0,1-2.53-2.64" transform="translate(-1652.33 488.2)"/><path class="cls-1" d="M1966.37-186.82s-.56,1.44-1,2.42a19.83,19.83,0,0,0-.73,3.05,8.29,8.29,0,0,0-3,.74,32.06,32.06,0,0,1-6.86,1.49c-1.35,0-2.54,1.64-4.18,1.49s-4.63.75-6,.75-2.83,1.49-4,1.49-1.94,1.64-2.83,2.54-2.39.76-2.39,2.23a10,10,0,0,0-2.65-.79c-1.34-.15-1.67-.9-4.07-.42-1.4.28-.84.42-2.38.14s-1.4-.42-2.24.42a4.6,4.6,0,0,1-1.64,1.1" transform="translate(-1652.33 488.2)"/><path class="cls-1" d="M1971.65-232.55v17c0,2,1.1,2,1.21,3.74s-.33,2.09,1,3.08,2.19,1.09,2.52,2.52,1.1,1.43.88,2.53,0,1.43,1,1.65,4.79-5.26,4.9-3.73c.37,1.55,2.72,4.58,2.72,4.58,6.07-6.42,15.53-6.38,15.53-6.38" transform="translate(-1652.33 488.2)"/><path class="cls-1" d="M1991.21-272.72c-6.52.12-13.06.18-19.56.18" transform="translate(-1652.33 488.2)"/><path class="cls-1" d="M2039.21-233.6c-.92-.28.59-1.77.23-2.23s-.4.39-1.09-.22-.33-1.75-1.16-2.28.34-1.12.82-2.87c.24-.92-1-1.21-.86-2.17.24-2.09,1-1.31,1-3.25,0-1.18.09-2.37.13-3.56a3.6,3.6,0,0,1,.06-1.85c.47-1.22,2.78-.37,3.45-2.78.22-.75-1.13-1.83-1-3.05a1.73,1.73,0,0,1,2.11-1.72c.13,0,.31-.14,0-.39l-1.32-1.41c-.17-.19-.08-.48.11-.45,2.9.36,1.34-2.75,2-4.14.51-.93-.07-1.15,0-1.79.09-2.62,1.36.19,2.42-1.1.68-.84,1-3.78,1.11-5.43,0-.27,0-.71-.3-.38-.55.56-1,1.14-1.62,1.69-.21.25-.57.32-.47-.21s0-.86,0-1.29-.33-.54-.52-.52c-13.24,1.55-29.36,1.67-43.44,2.07-3.19.09-6.38.15-9.58.21" transform="translate(-1652.33 488.2)"/><path class="cls-1" d="M2001.39-207.52c1.94,0,9.85.91,11.67,1.75a21.58,21.58,0,0,0,4.94,1.85c1.54.28,3.35,2.55,6,3s-.07,6,3.16,5.4,6.82,2.56,9.2,1.44,5.39,3.56,7.63,3.42,2.16,1.86,3.42,3.69-3.2,6.34-1.1,5.08,2.25,1.26,3.65,1.12,1.54-2.52,3.5-1.26a7.17,7.17,0,0,0,3.25,1.25h.06c1,0,0-1.94.63-2.5,1.22-1.13,1.8-2.13,3.46-2.07.73,0,3.06.48,3.56.12,1.36-1-1.07-2.4.69-2a2.18,2.18,0,0,0,1.86-.81c.6-1.06-1.42-2.6-2.13-.47a1.87,1.87,0,0,1-2.71.82,3.06,3.06,0,0,1-.79-1.11,13.12,13.12,0,0,1-1.4-4.09c.13-3.57-2.36-.49-2.23-4.08.05-1.62-1.43-1.9-.73-2.87s1.46-6.13,1.07-6.95-1.23,3.63-2.43,2.29-1.67-3.74-2.2-4.83.07-1.88.12-3.55-.38-1.2-2-1.26c-.81,0-.2-1.72-.28-2.38s.52-2.36-.29-2.39c-1.57,0-2,.38-1.95-1.26,0-1.3-1.66-1.36-2.5-1.43s-1.24-1.37-2.11-2.26.57-1.59.08-2.38-1.57-.39-2.52-.23-.35-1-1.31-1.45.64-.82-.61-1.81,0-3.56-.89-3.85" transform="translate(-1652.33 488.2)"/><path class="cls-1" d="M2037.63-164.87c-1-2.79.63-5.15,2.45-6.86.83-.78,2.3.15,3.41-.89,1.73-1.6,1.46-1.6,3.07.11,3.14,3.34,3.25-1.08,3.33-3.43,0-.73,2.77-.28,3.56-.25,1.9.07,1-.7,1.27-2.3.43-2.23-.52-2.41,2-2.32a7.17,7.17,0,0,1-3.25-1.25c-2-1.26-2.1,1.12-3.5,1.26s-1.54-2.38-3.65-1.12-4.48,3.22-5.74,1.4-.84-3.78-3.09-3.64,1.7-2.58-.68-1.46-6.58,5.93-8.46,9.56c-1.51,2.91-3.59,1.12-5.56,2.75A6.62,6.62,0,0,1,2017-172l-4.71,0" transform="translate(-1652.33 488.2)"/><path class="cls-1" d="M2062.71-135.92c-.41-4.51-4.76.34-4.6-4.18.06-1.61-.54-2.75,1.28-2.69,1.13,0,1.4.49,1.3,1.38-.36.95.2.65.45.46,1.72-1.38,4.52-3.25,4.17-.29-.29.67-.1,1.24.62.41.92-1,1.44-2,2.56-.81,1.57,1.68,1.65,1.38,3.84,1.67s2.28,0,3.85,1.67a2.82,2.82,0,0,0,2.51,1c.63,0,.35-.75.19-1.09l-1.32-2.87c-.37-.87,0-1.19,1.29-1.24a3.51,3.51,0,0,0,3.11-1.86c1.31-2.28-.79-2.41,2.83-2.28,2.76.1,2.07,1.48,4.28,2.53a9.73,9.73,0,0,0,3.53.2c.88,0,.73-.54.51-.77a4.75,4.75,0,0,1-1.53-2.34c-.07-1.08-.63-1.15-1-.85-1.74,1.45-3.85,2.64-3.73-.69,0-1.5-1.48-2.4-3-2.75-1.69-.37-.89-1.06-.39-1.56a2.39,2.39,0,0,1,1.52-.89c1.09,0,3.36.51,4.36.15,1.69-.61,1.64-2.3,3.64-2.23,1.44.05,2.13-.74,3.05-1.68.55-.49.55-1-.28-1-2.36-.08-4.6.24-7,.16-1.49.05-1-.74-.55-1.23,1.28-1.43,3-3.41,4.16-3.37,2.94.11,4.35,1.07,4.45-2.22.05-1.61.63-2.32-1.09-2.38s-1.16-.49-1.11-2.06c.08-2.34-4.33,1.39-4.63,1.68-1.38,1.3-1.93,4.86-2.6,6.65-.28.74-2.67.62-4,.4-.54-.08-1.24,0-.88-1.2.31-1.08.68-2.34.12-3.38-.27-.5-1.92-.07-2.36-.29-1.27-.64-2.74-2.69-3.88-4.1-.57-.59-.31-1,.43-.75,1.76.61,2.32-2.29,4.07-2.23,1.58.06,2,.51,2-1.12,0-1.06.31-1.19-.69-1.22-2.11-.08-4.24-.06-6.34-.22-1.84-.15-2.48-.35-3.35-1.15-.37-.34-1.44-.69-1.48,1.44,0,1.73-.81,2.68-2.78,4.53-1.22,1.14-1.66,2-3.31,1.94-1.82-.06-1.09.69-1.27,2.3-.27,2.45-.18,5-.26,7.47-.13,3.62-.75.34-2.45,1.92-1.24,1.16,1.26,2.41-1.26,2.32-2.21-.08-6.28.58-8.27-.29-1.82-.8-3.54-5.45-2.12-7.18s2.31,1.81,2.44-1.9c0-.7-2.14-.66-2.62-.22-2,1.85-3.68,1.94-5.58,3.13a2.72,2.72,0,0,1-2.22-.17c-1.58-.66-2.72-.64-3.8-3.61" transform="translate(-1652.33 488.2)"/><path class="cls-1" d="M2025.6-110.06a4.71,4.71,0,0,1,2.67-.61l5.48.19c2.75.1,2.17-1.44,4.44-2.22,3.07-1.06,2.32,1.71,2.26,3.63-.09,2.41-.34,3.33,1.35,5.13,1.35,1.44.71,3.49.64,5.4,0,.56,0,1,0,1.44-.21,1.19-.26,1.9.72,1.51,2.36-1,5.44-.17,8-.08,1.8.06,3.62,1.6,5.18,2.46,1.17.63,2.7.26,4,1,3.74,2,6.78,4.23,11.08,4.37,2.06.08,2.54,2.47,4.14,2.53s3.58.56,4.28,2.51c.29.8-.74,4.71.2,4.75,2.93.1,2,1.32,1.88,4.06,0,1,2.45.94,3.48,2a12,12,0,0,0,3.49,1.68c.26.87-.39,2.81-.93,4.76-.31,1.09-1.77,2.59-2.59,3.47s-3.51,2.27-3.57,3.72c-.05,1.67.06,2.15.72,2.92,1,.94,1.85-.2,2.26-.91a27.9,27.9,0,0,0,1.35-2.57c.42-1,0-2,.63-2.64,2.29-2.12,3.91-8.26,6.87-8.95,1.12-.26,3.58.12,4.74.16,2.33.08,2.38-.28,2.3,2.09-.09,2.76,3.43,3,5.75,3,.57.1,1.56-.26.2-1.13-.41-.44-1.08-1.46-.24-2.28,1.79-1.73,3.35-3.63,5.9-3.54,5.43.19.54-2.42,3.09-4.8,1.68-1.58,2.25-1.84,2.33-4.12,0-1.17,2.36.78,2.44-1.46,0-.8.48-3.55-.25-3.57-1.74-.06-2.34-.14-2.07-1.72.22-.67-.09-.67-1.31.06-1.77,1-4.46,2.3-5.71,1.34s1.52-2.31-1.11-2.4c-2.26-.08-.35-.91-1.09-2.42-.48-1-1.81-1.49-2.29-2.45-.75-1.51,1.17-2.33-1.11-2.41s-.36-.9-1.1-2.43c-.28-.58-2.09-2.62-2.54-2.2-1.22,1.14-2.18,1.57-2.24,3.23-.05,1.36-.92,1.76-2.41,1.11-2.65-1.13-1.39-4.8-3.38-4.87s-5.95.68-5.87-1.37c.07-2.25-.89-.41-2.33-1.26a7.74,7.74,0,0,1-1.78-1.86c-.21-.38-.78-.53-.62.14.43,1.86-1.11,1.6-3.08,1.53-2.43-.09-4.1.58-4-1.63.25-.78-.11-.78-.56-.58l-3.1,1.42c-1.12.66-.94-.15-.93-.43.06-1.62-.8-2.28-2.08-3.65-.39-.41.84-1.42,1.66-2.08.49-.28.64-.6-.71-.51a8.12,8.12,0,0,1-3.63-.5c-.35-.34.05-2,.21-3.31.06-.47.36-1.41-.71-.61s-3.21,2-4,1.78-2.55-2.94-3.09-3.34c-.7-.5-1.9-1-3.13-1.79a1.22,1.22,0,0,1-.5-1.66c.28-.85.85-1.23,1.73-2,.21-.18.73-.88-.62-.72s-1.15-.85-1.09-2.55c.07-2.32-.26-2.4,2.09-2.32.73,0,.47-2.74.49-3.53.07-1.83,1.16-1.15,2.78-1.09,1.16,0,6.8.81,8.23.51.89,1.39-.66,2.13,2.79,2.25.71,0,1.46,1,2.07,1.72.43.76.79.39.81-.38,0-1.32-.44-1.61-2-1.66-1.11,0-2-2.86-3.62-2.47-1.14-.31-1.55.21-3-1.32-.7-.75-3.11-.62-3.17-1.32" transform="translate(-1652.33 488.2)"/><path class="cls-1" d="M2012.32-172a27,27,0,0,1-5.67-1.91c-1.82-.84-2.09-1.37-4-1.37l-4.53-.77s-.17,17.42-.17,19,1,1.22,1,2.44,1.1,1.59,1.59,2.44.73,2.08,1.34,3,2.32,1.47,3.18,2.45,2.81,1.22,2.81,1.95V-142c0,.73-1.47,1.7-1.84,2.8s-1.83,2.57-1.83,3.67-1,2.32-1,4.15h2.8c.86,0,1.1,1.1,2.2,1.1s1.1,2.19,1.1,3.17-1.1,1.1-1.1,2.2,1.1,1.71,1.1,2.93v2.69c0,.73-1.34.36-2.08,1.46s-.36,1.47.25,2.44,1,3.06,1.83,3.79,1.59,1.34,1.59,2.44,1,1.22,2,1.47a14.92,14.92,0,0,0,2.93.48c.73,0,2.32-.73,2.93-.12s1.53,2.92,2.63,3.17c.09-2.59-.79-4.39,2.15-4.29.91,0,1.5-1,2.14-1.58" transform="translate(-1652.33 488.2)"/><path class="cls-1" d="M2003.18-131.41c0-1.83,1-3.05,1-4.15s1.47-2.57,1.83-3.67c.43-1.27,2.32-2.38,1.72-3.13v-2c.67-1-1.72-1.18-2.69-2.28s-2.57-1.47-3.18-2.45-.85-2.19-1.34-3-1.59-1.22-1.59-2.44-1-.86-1-2.44.17-19,.17-19l-6.07-.72s-1.59-.49-1.72-.26" transform="translate(-1652.33 488.2)"/><path class="cls-1" d="M1964.59-181.35a19.83,19.83,0,0,1,.73-3.05c.49-1,1-2.42,1-2.42.88.55,1.87-.77,2.75.22s.44,2.2,1.76,2.2h3c.65,0,1.75-1.43,2.3-2.64.23-.49,2-2.94,4-5.73,1.08-1.47,1.08-3.72,2.34-5,.79-.79,2.08-2.24,3.34-3.39a31.33,31.33,0,0,1,2.89-2.46,21.66,21.66,0,0,1,6.54-3c.3-.09-2.39,2.77-3.75,4.56-1.13,1.48-1.27,1-2.49,2.89-.75,1.18-1.29,4.25-1.78,5.35s-2.26,2.62-2.55,3.56c-.43,1.45.31,3.23.24,4.32a15.61,15.61,0,0,0,.08,4.64l5.26,4.21" transform="translate(-1652.33 488.2)"/><path class="cls-1" d="M1964.59-181.35a8.29,8.29,0,0,0-3,.74,32.06,32.06,0,0,1-6.86,1.49c-1.35,0-2.54,1.64-4.18,1.49s-4.63.75-6,.75-2.83,1.49-4,1.49-1.94,1.64-2.83,2.54-1.79.89-2.39,2.23" transform="translate(-1652.33 488.2)"/><path class="cls-1" d="M1935.3-170.62a10,10,0,0,0-2.65-.79c-1.34-.15-1.67-.9-4.07-.42-1.4.28-.84.42-2.38.14s-1.4-.42-2.24.42a4.6,4.6,0,0,1-1.64,1.1,11.09,11.09,0,0,1-2.09.75c-1.19.3-3.73,2.24-4.77,2.24h-4.18c0,1.94-.6,3-1.19,3H1908v3.28h0a9.18,9.18,0,0,1,1.94,4.51c.28,1.68,1.12,1.82,2.1,2.24s1.26,2.25,1.26,3.65-.14,2.38,1,2.8a15.85,15.85,0,0,0,3.37.42c.84.14,2.38,0,2.94.84s2.66,1.82,2.53,3.23-1.13,2.1-.28,3.36,1.82,2.66.42,3.36c-.85.42-1,1-1,2.11a16.7,16.7,0,0,1-.14,2.1c.85,1,1.69,2.52.85,3.78s-.85,2,.14,2.53a2,2,0,0,1,1,1.62h0" transform="translate(-1652.33 488.2)"/><path class="cls-1" d="M1989.69-81.22c1.41-.63.83-2.78,1-3.61a19.74,19.74,0,0,1,2.68-6.86c.37-.88,2.09-1.64,3-.45a28.48,28.48,0,0,0,2.24,3.26c1.08,1.16.15,2.61,1,3.51,1.79,1.91,1.94,2.05,2,4.57,0,.83-.62,4.08-.16,4.73.28.39,2.09-.31,2.37.08s-.06,1.89-.08,2.37c-.12,3.48-.2,1.21-2.46,2.3s-1.54,2.43-4.24,2.34c-.54,0-1.64,1-2.54,1.45-2.48,1-2.43,2,1.19.67a102.41,102.41,0,0,0,20-9.52,53.84,53.84,0,0,0,8.16-6.86c2-1.88,4-4.72,6.55-5.67,1.21-.3,1.46-.88.23-.72a8.09,8.09,0,0,0-5.11,2.56c-1.26,1.16-1.83,2.11-3.5,2.52s-1.6-.23-1.71-.49c-1.09-2.66-4.18-5-4.07-8.28.06-1.65.47-1.18,2.06-1.12,1.09,0-.27,1.93.29,2.39s4.21.14,5.1.18c2.84.09,2.93-2.28.08-2.38-1.89-.07-3.69.19-2.66-2.47.52-1.34,4-2.45,2.54-4.67-.39-.59-2.4.65-2.36-.45l.09-2.35c-1.1-.25-2-2.56-2.63-3.17s-2.2.12-2.93.12a14.92,14.92,0,0,1-2.93-.48c-1-.25-2-.37-2-1.47s-.73-1.71-1.59-2.44-1.22-2.81-1.83-3.79-1-1.34-.25-2.44,2.08-.73,2.08-1.46V-122c0-1.22-1.1-1.83-1.1-2.93s1.1-1.22,1.1-2.2,0-3.17-1.1-3.17-1.34-1.1-2.2-1.1h-2.8" transform="translate(-1652.33 488.2)"/><path class="cls-1" d="M1924.11-124.37a6,6,0,0,0-3.43,1.35c-.9.74-3.28,2.24-4.63,1.64a2.27,2.27,0,0,0-3,.6c-.89.89-1.94,1.79-1.94,2.68s.15,1.79-1.34,1.79-2.69.45-2.69,1.49a35.5,35.5,0,0,1-.89,4.59,3.24,3.24,0,0,1,2.34,1c1.38,1.45,1.49,1.57,1.42,3.56,0,1,1.73.09,2.34.45,3.38,2,1.6,3.75.15,6.39-.76,1.39-1.51.11-2.75.65-.8.35-1.64,1.52-2.28,2.12-1,1-.07,4.91-3.09,4.81-2.15-.08-1.71-.29-1.93-2.07-.28-2.28-2.72-1.6-1.41.56s3.63,3.88,5.45,5.82c.85.9,1.73.25,2.84.59a22.72,22.72,0,0,1,3.93,2.14c1.21.66,1.83,2.29,3,2.84.94.44,3,.1,4,.14,2.22.08,3.81,2.51,6,2.59,4.5.15,12.11-1.08,15.27,2.29,1.59,1.69,1.49,5.41,4,5.5,1.89.06,3.59,2.35,5,4,.27.33.82,1.46.64-.15-.1-.87.26-1.3,1.4-1.26,2.52.08,0-1.18,1.26-2.33s2.29,1.42,2.38-1.1c.06-1.63.48-1.17,2-1.11l7.11.25c1.13,0-.31-2.4.82-2.36s2,.55,2-.67c.07-1.84-.66-6.39,1.41-6.32,1,0,5.9.52,5.93-.17,0-1.32.09-2.66.14-4,0-1.13-2.37.31-2.33-.82.11-3.14,2.56-1,2.6-3.29-.39-1.31.68-.16,1.06.26s1,2.27,1-.12c-.07-3.4,4.18,1.47,5.24,1.5,4,.14.49,3.33,2.64,5.66.63.68,2.28,2.37,3.84,1.67" transform="translate(-1652.33 488.2)"/><path class="cls-1" d="M1851.84-134.33c.29,1.32,1,2.15,2.39.82a22.23,22.23,0,0,1,6.85-4.23c1.35-.62,13.52-.57,14.43.4.48.5-.06,6.94-.5,7.34-1.22,1.13-2.17,1.55-2.23,3.21-.06,1.83.69,1.09,2.32,1.28.58.06,7.1,0,7.09.45-.12,3.36-.32,4.22,1.63,6.44.15.17.67.57,0,1.05a6.84,6.84,0,0,0-2,2.94c-.25.73,0,1.3,1,.77,2.74-1.08,5.32-1.52,7.57-3.11.36-.25,1.07-1.14,1,.73-.1,2,2,3.22,4.27,3.3,2.8.1,4.14.87,6.64,2.24,1.23.67,2.65.41,3.94.47a35.5,35.5,0,0,0,.89-4.59c0-1,1.2-1.49,2.69-1.49s1.34-.89,1.34-1.79,1-1.79,1.94-2.68a2.27,2.27,0,0,1,3-.6c1.35.6,3.73-.9,4.63-1.64a6,6,0,0,1,3.43-1.35h0a2,2,0,0,0-1-1.62c-1-.56-1-1.26-.14-2.53s0-2.8-.85-3.78" transform="translate(-1652.33 488.2)"/><path class="cls-1" d="M1782.89-214.31a2.46,2.46,0,0,0,.72,2.06c1,1.22,1.71,1.82,1.71,2.55v3.16a3.09,3.09,0,0,1-1.71,2.31c-1,.49-.85,1.22-.6,2.07a3.5,3.5,0,0,1,.24,2.43c-.36.73-1,1.33-.49,1.94s.37,1,.37,1.83v7.29c0,1,0,1.58,1,2.06s3,.73,2.31,2.07-1.58,1.82-1.58,3-.61,1.82-1.34,2.79-.36,1.7-.36,2.43a9.64,9.64,0,0,0,1.09,2.67" transform="translate(-1652.33 488.2)"/><path class="cls-1" d="M1841-124.29a10.45,10.45,0,0,0-1.08-.09l-7.46-.26c-3.48-.12-3-2.12-4-5.39-.92-3.11-.53-4.15,1.82-6.35,1.9-1.79,4.75-3,7-4.37s4.44-1.83,6.3-3.47" transform="translate(-1652.33 488.2)"/><path class="cls-1" d="M1784.22-173.61a35,35,0,0,1-4.13,2c-1.76.72-4.13,2.55-5.95,3.64h9.6v48.81c4.84.16,9.86-.1,14.63.76,5.78,1,11.62,2.52,17.5,2.72,2.81.1,5.07-2.49,7.74-3.71,2.13-1,4.14-.61,6.47-.53,1.75.06,5.86-.5,7.33.56l.09.07" transform="translate(-1652.33 488.2)"/><path class="cls-1" d="M1782.89-214.31v-.86a4.48,4.48,0,0,1,.51-1.25c.35-.56,0-1.41.21-2.12a3.36,3.36,0,0,1,1.63-1.84c.78-.43.92-1.35,1.49-2.06s.21-1.41-.43-2.05-.92-1.77-.92-3.4v-31.23H1794c1,0,1-.91,1.83-1.26s.79-.87.79-1.48-.79-.7-.79-1.66.7-1.4,1.57-1.48,1.31-1.05,2.89-1.49,2.35-1.22,2.35-2,1-1.22,2.36-1.22a5.21,5.21,0,0,1,3.76,1.66c.7,1,1.22,1.75,2.18,1.75h3.58s.09,2.27.09,3.14,1.57,2.18,2.27,2.79a3.78,3.78,0,0,1,1.4,2.71v4h2.27" transform="translate(-1652.33 488.2)"/><path class="cls-1" d="M1865-217v-2.7c0-.7-1.75-1.31-2.1-2.62s-.87-2.1-.35-3.14,1-1.84.7-2.8.26-1.66.61-2.45,0-1.74,0-2.44,1.14-1.14,1.14-2.27v-3.5c0-1-1-.52-1.23-1.83s-1.31-1.31-1.31-2.27-.43-1.75-.43-2.62.08-2.89-.79-2.89-2,.35-2.62-.52a2.23,2.23,0,0,1,.09-2.53c.43-.88-1-1.22-1.49-2l-25.07.09c-.7,0-.87-.62-1.48-.62s-.79.44-1.66.44h-8.39" transform="translate(-1652.33 488.2)"/><path class="cls-1" d="M1837.5-119.34c1.56,1.16,4.79,4.54,6.61,4.6,1.17,0,3.5-.36,4.53.16s1.36,2,2.29,2.45c1.35.72,2-.32,3.17.94,1.37,1.46,1.49,1.58,3.47,1.64,3.09.11,5.15-.8,5.27-4.16,0-1,2.27-2.78,3.78-4,2.15-1.9-.66-.83-1-1.22s1.05-3.12-1.14-1.27c-1.91,1.61-2.13.68-4.33-1.7-1.44-1.56-1.56-1.83-3.67-1.9-1,0,.28-2.36-.49-2.38l-8.09-.29c-2.26-.07-.41.87-1.26,2.32a7.8,7.8,0,0,1-1.8,1.89.6.6,0,0,1-1.06,0,3.61,3.61,0,0,0-2.8-2" transform="translate(-1652.33 488.2)"/><path class="cls-1" d="M1908-160.92v-3.28h2.09c.59,0,1.19-1,1.19-3-1,0-2.09.3-2.83-.75s-1.2-2.39-2.69-2.39" transform="translate(-1652.33 488.2)"/><path class="cls-1" d="M1843.55-144.22c.07-.06.14-.1.2-.16,1.28-1.2,1.45-1.15,3.23-1.09.93,0,2-1.5,2.64-2.11a1.45,1.45,0,0,1,2.51,1.1c-.09,2.63,1.41-.1,2.33,1.27,1.32,2-2.17,5.43-2.62,7a10,10,0,0,0,0,3.84" transform="translate(-1652.33 488.2)"/><path class="cls-1" d="M1865-217h2.33a4.82,4.82,0,0,0,2.52,2.64c1,.3,1.49,1.49,2.39,2.39s2.09,2.38,2.09,3.73v3.73c0,.89-1.2.89-1.2,1.64s1.35,1.34,1.35,2.09-.3,2.83.74,4,2.24,2.24,2.69,3.58,1,3.44,2.68,3.44,2.69,1,4.48,1,2.68.15,2.68,1.49a5.76,5.76,0,0,0,.9,3.58c.9,1.65-.3,3.44.15,4.78a4.08,4.08,0,0,1,0,3c-.3,1.2.15,1.64,1.79,1.35s3.58-.75,5.07-.3,2.84,3,2.84,4.47" transform="translate(-1652.33 488.2)"/><path class="cls-1" d="M1922.13-132.3a16.7,16.7,0,0,0,.14-2.1c0-1.13.14-1.69,1-2.11,1.4-.7.42-2.1-.42-3.36s.14-2,.28-3.36-2-2.39-2.53-3.23-2.1-.7-2.94-.84a15.85,15.85,0,0,1-3.37-.42c-1.12-.42-1-1.4-1-2.8s-.28-3.23-1.26-3.65-1.82-.56-2.1-2.24a9.18,9.18,0,0,0-1.94-4.51h0" transform="translate(-1652.33 488.2)"/><path class="cls-1" d="M1774-459.61h-9.41v4.37c0,1.54-2.41,2.85-3.28,4.16s0,4.82.21,6.35-1.09,2-1.75,3.73v14.5h9.12" transform="translate(-1652.33 488.2)"/><path class="cls-1" d="M1708.3-360.34v-5.35c0-1.21.69-1.73.86-2.77s1.56-2,1.82-1.2,1.07.7,1.81.94a8.05,8.05,0,0,0,3.54,0" transform="translate(-1652.33 488.2)"/><path class="cls-1" d="M1716.33-368.72c.69,1.73.82,2.78,2.12,2.89a7.32,7.32,0,0,0,2.87-.28c.83-.28,1.39,1.85,2.22.92a4.26,4.26,0,0,1,3.62-1.85v-7.41H1737c1.21,0-.83-1.3-1.3-1.95s-1.29-.83-1.29-2.32.55-1.66,1.29-2.4.37-1.3.37-2.14-.83-.64-1.39-1.48a2.33,2.33,0,0,1-.46-2.22,7,7,0,0,0,.19-2.41,4.49,4.49,0,0,0-1.76-2.5c-.93-.75-.93-.84-.93-1.58h22.8" transform="translate(-1652.33 488.2)"/><path class="cls-1" d="M1708.3-360.34h-39.52c0,.5,0,1,0,1.59-.06,1.92,2.14,2.92,3.49,4,1.08.86,1.74,3.2.74,4a1.13,1.13,0,0,0,.07,2,2.78,2.78,0,0,1,1.13,2.53c0,1.08,2-.14,2.36.44s.1,2.4-.46,2.38c-2.94-.1-2.06,1.72-2.15,4.3-.07,1.95-.27,2.69-1.11,3.61-.68.67-1.1,1.29-.16,1.32,1.59.05,1,1.79,1,3.71-.06,1.62.39,1.19,2,1.25,1.09,0-.27,1.93.28,2.38.82.68,4.79.17,5.93.21,1.48.05,1.38,1.62,1.19,3.15-.12,1.31-.81,1.76-1.52,1.72-1.4.16-1.81.83-.57,1.82.89.7,2.13.78,3.84.53.69-.1.24,3.59.22,4.38,0,1.08,1.91-.13,2.33.45.3.43-.15,1.81-.09,2.36a16.78,16.78,0,0,1,.5,3.53c-.08,1.53-.72,2.92-.76,3.95-.08,2.26.41,2.51,2,4.19.61.65,2.63-.22,2.6.71,0,.74-.55,3.82-.15,4.37,1,1.36,2.42-1.34,2.33,1.27s0,3.53,1.54,5.31c.65.8.57.17.57-.48.17-1.35,1.37-1.38,2.79-1.24" transform="translate(-1652.33 488.2)"/><path class="cls-1" d="M1698.64-290.61c.51.05,1,.12,1.56.16a.44.44,0,0,1,.35.69c-.44.91-.81,2-1.48,2.32-1.33.66-.09,2.44,1,3.71a.52.52,0,0,1-.55.77c-2.66-.31-2,4.3-.41,4.36,2.75.1,1,5.23,1,5.93-.06,1.91-.78.91-2.41,1.11s-2.34-.8-2.41,1.1c0,.84-.29,3.56.25,3.57,1.72.06,4.4-.67,4.32,1.34-.08,2.46.64,3.58-2.12,3.48-1,0,.18,2.31-1.69,2.41-.3,0-.68.36-.06,1.2a5.3,5.3,0,0,1,1,2.46c.81-.25,1.51-.47,1.9-.61a5.18,5.18,0,0,1,4,.73,4,4,0,0,0,3.88.36c1.34-.73,2.31-1.82,4.62-1.82s22.12-.24,23.82-.24,1.34.85,2.55.85h4.25c1.22,0,1.1-.85,2.19-.85h6.69v1.09h14.58v-1.82" transform="translate(-1652.33 488.2)"/><path class="cls-1" d="M1811.58-369.51v-23.08h-4.52c-1.06,0-1.9-1.06-2.84-1.06s-1,1.06-1.79,1.06H1799c-2.1,0-2.63-.86-6.94-.86H1754.5" transform="translate(-1652.33 488.2)"/><line class="cls-1" x1="159.25" y1="118.69" x2="187.68" y2="118.69"/><path class="cls-1" d="M1882.25-350.45c-.44-1-1.27-1.33-1.46-2.28s-1.58-1.7-1.83-2.21.63-1.26.63-1.89v-3.79a3.05,3.05,0,0,0-.56-2c-.45-.51.06-1.71.75-2.59h-2.1V-374h-3.82c-.86,0-.58,1.44-1.44,2.3s-1.14,2.1-2.19,2.39-1.34,1.62-2.11,2.58a4.77,4.77,0,0,1-3.53,1.81,6.9,6.9,0,0,0-3.73,1.05c-.77.58-.86-1.14-1.53-1.33s-.57-1.25-.57-1.82,0-1.62-1.15-1.62-1.53-.87-2.49-1.25-.38-2.48-1.43-2.48a4,4,0,0,1-2.58-1.53l-2.11.52v3.84h-9" transform="translate(-1652.33 488.2)"/><path class="cls-1" d="M1765.51-258.31h8c1,0,1.84-.81,3.39-.81H1794c1,0,1-.91,1.83-1.26s.79-.87.79-1.48-.79-.7-.79-1.66.7-1.4,1.57-1.48,1.31-1.05,2.89-1.49,2.35-1.22,2.35-2,1-1.22,2.36-1.22a5.21,5.21,0,0,1,3.76,1.66c.7,1,1.22,1.75,2.18,1.75h3.58" transform="translate(-1652.33 488.2)"/><path class="cls-1" d="M1814.54-266.31s.09,2.27.09,3.14,1.57,2.18,2.27,2.79a3.78,3.78,0,0,1,1.4,2.71v4H1829c.87,0,1-.44,1.66-.44s.78.62,1.48.62l25.07-.09c-.52-.79.09-1.57,1-1.92s.61-1,.61-1.75v-5.07c0-.87-1-1.05-1-1.92v-2.88c0-.61.79-1.14,1.84-1.14s1.92-1.13,2.44-2.27,1.4-.61,2.1-1.57,1.22-3.06,2.33-4.17" transform="translate(-1652.33 488.2)"/><path class="cls-1" d="M1866.49-276.25c-.7,1,1,2.3,1.82,2.24,1.82-.14,2.35-2.06,3.36-.84a3.71,3.71,0,0,1,1.12,3.08c-.28,1.12-.44,1.72.25,1.61,1.18-.54,4.06-1.2,4.82-2.2,1.05-1.38,0-2.27,1.67-3.85,1.39-1.29-.09-1.83-1.25-3.09-.69-.75-1.81-2.6-2.83-2.64-4.69-.16,0-4.66.62-7.08a21.17,21.17,0,0,0,.15-4.37c0-1.18-2.39.6-2.31-1.64.09-2.57-2.38.13-2.29-2.45.06-1.79,1-1.15,2.62-1.09,3.92.13,5.53-.3,9.12-2,.57-.26.34-3.75.36-4.46,0-1.16-2.37.6-2.3-1.63s-2.34-.47-2.3-1.63c0-.5,0-1,.05-1.48a3,3,0,0,0-.5-1.06c-1.34-1.4-2.9-3.15-1.06-4.86s4.24-3.08,4.12.38c-.06,1.67,0,5.12,2.54,5.2,2.15.08,2,.23,2.07-1.93,0-.49,1-.5,1.7-.41.27,0,.67.08.13-.47-1-1-1.92-2.05-2.88-3.08-1.49-1.59-.34-1.81-1.06-3.6-.53-1.32-2.3-1.63-2.24-3.2l.15-4.36c.09-2.44.14-1.81,2.42-1.9,1.44-.05,2.93.11,4.37.16,3.23.11,3-4.9,3-5.83,0-.56-.89-.28-1.24-.07-1.42.89-4.86,2.16-6.18.74-2.55-2.74-2.69-3.63-.36-5.93.65-.7,1.17-.36,1.14-.17-.5,2.69.89.5,2.17,1.88.66.71,2.7,2.67,3.5,2.52,1-.17,1-.36,1.06-.62s-.3-1.64.27-2.16c.41-.39,2.09-1.48,2.19-2,.26-1.55-2.25-3.5-2.19-5.19a4.36,4.36,0,0,1,2.52-4.27c.63-.32,2.35.66,2.38-.29a1.54,1.54,0,0,1,0-.17h-15" transform="translate(-1652.33 488.2)"/><path class="cls-1" d="M1654.7-398.31q-.27,8-.56,16c-.1,2.89-1.31,4.9,1.83,5,1.13,0-.48,2.34.66,2.38,2.15.08,1,0,.95,2.14,0,1.17,2.4-.61,2.32,1.64-.09,2.54,1.16,0,2.32,1.27s-1.43,2.32,1.1,2.4c.62,0-.43,1.82.5,1.78a2.78,2.78,0,0,1,2.24,2c0,.43-.22.85,0,1s.79,0,1.38,0c1,.19,1.3,1.16,1.38,2.36h39.52v-5.35c0-1.21.69-1.73.86-2.77s1.56-2,1.82-1.2,1.07.7,1.81.94a8.05,8.05,0,0,0,3.54,0" transform="translate(-1652.33 488.2)"/><path class="cls-1" d="M1673.51-485.92c-6,0-12-.23-18.1-.44,0,.41.11.83.16,1.24.68,5.18,1.8,10.42,1.62,15.65l-.66,18.7q-.55,15.86-1.1,31.71-.36,10.37-.73,20.75" transform="translate(-1652.33 488.2)"/><path class="cls-1" d="M1701.62-486.68c-4.57.05-9.15.18-13.8.44s-9.56.34-14.31.32" transform="translate(-1652.33 488.2)"/><path class="cls-1" d="M1726.93-486.22l-4.18-.16c-7.14-.24-14.12-.38-21.13-.3" transform="translate(-1652.33 488.2)"/><path class="cls-1" d="M1759.77-441c.66-1.76,2-2.19,1.75-3.73s-1.09-5-.21-6.35,3.28-2.62,3.28-4.16v-4.37H1774v-3.07c0-1.09-.87-1.53-.87-2.41s1.75-.65,1.75-1.75v-17.81c-16-.12-32-1-48-1.57" transform="translate(-1652.33 488.2)"/><path class="cls-1" d="M1716.33-368.72c.69,1.73.82,2.78,2.12,2.89a7.32,7.32,0,0,0,2.87-.28c.83-.28,1.39,1.85,2.22.92a4.26,4.26,0,0,1,3.62-1.85v-7.41H1737c1.21,0-.83-1.3-1.3-1.95s-1.29-.83-1.29-2.32.55-1.66,1.29-2.4.37-1.3.37-2.14-.83-.64-1.39-1.48a2.33,2.33,0,0,1-.46-2.22,7,7,0,0,0,.19-2.41,4.49,4.49,0,0,0-1.76-2.5c-.93-.75-.93-.84-.93-1.58" transform="translate(-1652.33 488.2)"/><path class="cls-1" d="M1731.7-393.45h33.62a7.09,7.09,0,0,1,1.26-2.09,2.68,2.68,0,0,0,1-2.31c-.21-.63-.74-1-.11-1.47s1.26-.84,1.26-1.79,1-1.89,1-3.05v-14.4c0-.84-.74-1.47-.74-2.31v-5.63h-9.12V-441" transform="translate(-1652.33 488.2)"/></svg>