<svg id="base_map" data-name="base map" xmlns="http://www.w3.org/2000/svg" viewBox="0 0 407.76 254.57"><defs><style>.cls-1{fill:#015067;stroke:#fff;stroke-width:0.84px;}.cls-2{fill:none;}</style></defs><path class="cls-1" d="M551.05,297.87a10.41,10.41,0,0,0-.77,4c.1,1.68-1.37,3.05-1.9,4.1s-.1,2.63.43,3.79.94,1.47.52,2.63-.63,1.68.21,2.62-.31,1.27.21,2.63a4.7,4.7,0,0,1,.42,3.26,5,5,0,0,0,0,3.26c.42,1.16-.94,1.68-1,2.63s1.26.73.84,1.68a2.54,2.54,0,0,0,0,1.89s-.16,2.47-1.42,2.47-1.8.31-2.42,1.76c-.33.77-1.76,1.87-2,2.86h31.23v-40h-.07C567.35,297.42,559.15,297.61,551.05,297.87Z" transform="translate(-168.03 -83.25)"/><rect class="cls-2" width="18.83" height="32.37"/></svg>