<svg id="base_map" data-name="base map" xmlns="http://www.w3.org/2000/svg" viewBox="0 0 556.39 432.08"><defs><style>.cls-1{fill:#015067;stroke:#fff;stroke-width:0.84px;}.cls-2{fill:none;}</style></defs><path class="cls-1" d="M723.58,483.81c-1.74-.07-2.34-.14-2.08-1.72.23-.67-.08-.67-1.3.05-1.78,1.06-4.46,2.3-5.71,1.35s1.52-2.31-1.11-2.4c-2.26-.08-.35-.91-1.1-2.42-.47-1-1.8-1.5-2.28-2.46-.75-1.5,1.17-2.32-1.11-2.4s-.36-.91-1.1-2.43c-.28-.59-2.09-2.62-2.54-2.2-1.22,1.13-2.18,1.57-2.24,3.23,0,1.35-.92,1.75-2.41,1.11-2.66-1.13-1.39-4.8-3.38-4.87s-6,.68-5.88-1.37c.08-2.26-.88-.41-2.32-1.26a7.93,7.93,0,0,1-1.78-1.86c-.21-.38-.78-.53-.62.14.43,1.86-1.11,1.59-3.08,1.52-2.43-.08-4.1.58-4-1.62.25-.78-.11-.78-.56-.59l-3.1,1.43c-1.12.66-1-.16-.93-.43.06-1.62-.8-2.28-2.08-3.65-.39-.41.84-1.43,1.65-2.09.5-.28.65-.59-.7-.5a8.12,8.12,0,0,1-3.63-.5c-.35-.34.05-2,.21-3.32.06-.47.36-1.4-.71-.6s-3.21,1.94-4,1.77-2.55-2.94-3.1-3.33-1.89-1-3.12-1.8a1.22,1.22,0,0,1-.51-1.65c.29-.86.86-1.23,1.74-2,.21-.18.73-.88-.62-.72s-1.15-.86-1.09-2.55c.07-2.32-.26-2.4,2.09-2.32.73,0,.46-2.74.49-3.53.07-1.83,1.16-1.15,2.78-1.1,1.16,0,6.8.82,8.23.52.89,1.39-.66,2.12,2.79,2.25.71,0,1.46.95,2.07,1.72.43.75.79.39.81-.38,0-1.32-.44-1.61-2-1.67-1.12,0-2-2.85-3.63-2.46-1.13-.31-1.54.21-3-1.33-.69-.74-3.1-.62-3.16-1.31-2.67,0-7.24-.81-7.24,1,0,1.41-3.08,1.58-3.79-1.71-.52-2.4-1-.69-1.79-1.51a2,2,0,0,0-2.93-.21,5.3,5.3,0,0,1-3.43.36c-1.13-.35-1.43-.65-1.08-1.65.28-.77-.35-2.93-2-3.14s-3.36,1.2-4.79.57c-1.78-.79-.78-1.43-2.29-3.29a23.25,23.25,0,0,1-2-4c-1.14-1.71-1.4-3-2.69-3.42s-1.87-1-3.43-.83-1.55.67-2.07,1.14a8.42,8.42,0,0,0-1.92,3.58c-.22,1.35-1.34,1.91-2.35,2.58s-2.69,1.69-2.25,2.81a6.31,6.31,0,0,1,.45,4.15c-.45,1.56.23,4.26,1.46,4.93s.9,2.24,1.23,2.91,1.8,1.57,2,2.36,1.68,2,1.68,3.36,1.24,1.46,1.24,2.69v4.94c0,1-.56,1.34-.56,2.24s.78.67.78,1.57a17.37,17.37,0,0,0,.68,4.37,4.8,4.8,0,0,1,2.67-.62l5.48.2c2.75.09,2.16-1.44,4.44-2.22,3.07-1.07,2.32,1.71,2.26,3.63-.09,2.41-.34,3.33,1.35,5.13,1.34,1.44.71,3.49.64,5.4,0,.56,0,1,0,1.43-.21,1.2-.27,1.91.72,1.51,2.36-.94,5.44-.16,8-.07,1.81.06,3.63,1.6,5.19,2.45,1.17.64,2.7.27,4,1,3.74,2,6.78,4.22,11.08,4.37,2.06.07,2.54,2.47,4.14,2.52s3.58.57,4.28,2.52c.28.8-.74,4.71.2,4.74,2.93.11,2,1.33,1.87,4.07,0,1,2.45.94,3.49,2.05a12,12,0,0,0,3.49,1.68c.26.86-.39,2.81-.93,4.76-.31,1.09-1.77,2.59-2.59,3.47s-3.52,2.27-3.57,3.71c0,1.67.06,2.15.72,2.92,1,1,1.85-.19,2.26-.9.49-.87,1-1.75,1.34-2.57.43-1,0-2,.64-2.64,2.29-2.13,3.91-8.27,6.87-9,1.12-.26,3.57.13,4.74.17,2.33.08,2.38-.29,2.3,2.09-.09,2.76,3.43,2.95,5.75,3,.57.11,1.56-.25.2-1.13-.41-.43-1.08-1.46-.24-2.27,1.79-1.73,3.35-3.63,5.9-3.54,5.43.19.54-2.43,3.09-4.81,1.68-1.58,2.25-1.83,2.33-4.11,0-1.17,2.36.78,2.44-1.46C723.86,486.57,724.31,483.83,723.58,483.81Z" transform="translate(-168.03 -83.25)"/><rect class="cls-2" width="18.83" height="32.37"/></svg>