<svg id="base_map" data-name="base map" xmlns="http://www.w3.org/2000/svg" viewBox="0 0 402.58 317.27"><defs><style>.cls-1{fill:#015067;stroke:#fff;stroke-width:0.84px;}.cls-2{fill:none;}</style></defs><path class="cls-1" d="M526,399.79v-4.62s1.64-.45,1.79-1.2a35.44,35.44,0,0,0,0-4s1-.59,1.34-3.13,1.19-1.94,2.39-6.12,2.21-4,2.08-8c.8-1.64,1.83-2.67,3.13-2.93s1.9-.09,3.71.43a3.21,3.21,0,0,0,3.28-.86c.35-.35.93-1,.93-1,.44.88.66.77,1.21,1s2.2.11,2.86,1.1,2.86,1.32,3.19,3.4.66,2.86,1.65,3.08a2.52,2.52,0,0,1,2.2,2.09,3.67,3.67,0,0,0,2.86,2.42c1,.22.32,2.09,1.31,2.42s1.76.77,1.54,1.87a1.73,1.73,0,0,0,1.87,1.86c.88-.11,1.54-.76,1.87-2.08a5.59,5.59,0,0,1,2-3.08c1.54-1.22,1.69-.08,2.86.66,0,0-.56,1.44-1.05,2.42s-.36,1.83-.73,3.05a8.43,8.43,0,0,0-3,.73,31.52,31.52,0,0,1-6.86,1.5c-1.35,0-2.54,1.64-4.18,1.49s-4.63.74-6,.74-2.83,1.5-4,1.5-1.94,1.64-2.83,2.53-2.39.77-2.39,2.24a10,10,0,0,0-2.65-.79c-1.34-.15-1.67-.9-4.07-.42-1.4.28-.84.42-2.38.14s-1.4-.42-2.25.42A4.58,4.58,0,0,1,526,399.79Z" transform="translate(-168.03 -83.25)"/><rect class="cls-2" width="18.83" height="32.37"/></svg>