<svg id="base_map" data-name="base map" xmlns="http://www.w3.org/2000/svg" viewBox="0 0 470.45 435.66"><defs><style>.cls-1{fill:none;stroke:#ed1c24;stroke-linejoin:round;stroke-width:4px;stroke-dasharray:3 3;}</style></defs><path class="cls-1" d="M711.93,343.75v-1.1h-6.68c-1.09,0-1,.85-2.19.85h-4.25c-1.21,0-.85-.85-2.55-.85s-21.51.25-23.82.25-3.28,1.09-4.62,1.82a4,4,0,0,1-3.89-.37,5.16,5.16,0,0,0-4-.72c-.38.14-1.09.36-1.89.6a26,26,0,0,1,0,4.56c-.09,2.58-2.35-.28-2.44,2.29,0,.8.23,3.56-.5,3.54-4.18-.15-1.39,4-1.53,7-.07,1.42-2,3.06-6.23,6.38-1.37,1.07-.44,3.38-.46,4.1a4,4,0,0,1-2.13,2.54c-1.92.31-1.56,1.09-2.33,2.23-1.36.52-.45,1.26-.06,1.56.62.45,0,1.82,1.55,1.88,1.8.06,1.62,2,0,2.34-2,.13.35,1.46.82,3a10,10,0,0,1,0,3c-.06,1.62-.46,1.17-2,1.11-1.05,0,.08,1.87-.45,2.37s-2.34-.77-2.38.28c0,.47,0,.95,0,1.42" transform="translate(-612.84 -111.53)"/><path class="cls-1" d="M639.84,393.81l-.06,1.77c0,1.18-.08,2.37-.13,3.55a4.35,4.35,0,0,0,0,1.63c.19,1.13,1,1.83,1.95,2.87a1.21,1.21,0,0,0,.91.34l1.38,0c.72,0,.27,2.77.24,3.56-.06,1.7.41,4.09-.31,5.26-.16.26-.49.63-.41.66a.93.93,0,0,1,.49.52,3.27,3.27,0,0,1-.06,1.85c0,.79-.06,1.59-.08,2.38l1.65,1.76c.21.22-.18.52-.48.53-2.12.05-1.19,2.66-1.42,4.79-.15,1.35.17,1.82-.73,2-.57.1-.57.42.15.57s.58,1.14.26,1.74c-.14.27-.31.53-.48.79" transform="translate(-612.84 -111.53)"/><path class="cls-1" d="M642.66,430.4a30.28,30.28,0,0,1-4.43,4.41c-2.84,2.64-4.69,3.65-4.83,7.63-.15,4.16-5.22,10.8-9.5,10.65-.73,0-.47,2.75-.5,3.55,0,1.53.6,1.86,1.66,3,.83.91-.07,2.37.51,3,.79.88,2-.62,2.72.84,1.18,2.58,2.26,6,5.28,3.15l3.72-3.44c.53-.5,1.91.08,2.62-.07l9.3-2c1.89-.4,3.92.34,5.85-.08,5.48-1.18,10.23-2.56,15.73-1,2.71.78,6,2.92,8.18.86,1.83-1.72,3.86-1.06,6.33-1,5.12.18,10-.24,14.75,1.85,4.94,2.19,9.82,5,14.85,6.89,5.62,2.12,11.25,4.21,16.87,6.31a25.16,25.16,0,0,1,6.23,3.66c2.58,1.85,3.5,2.22,6.63,2.33h.11v-48.8" transform="translate(-612.84 -111.53)"/><path class="cls-1" d="M735.14,432.22c1.83-1.09,4.2-2.92,6-3.64a37.17,37.17,0,0,0,4.13-1.95,9.64,9.64,0,0,1-1.09-2.67c0-.73-.37-1.46.36-2.43s1.34-1.58,1.34-2.8.85-1.7,1.58-3-1.34-1.58-2.31-2.06-1-1.1-1-2.07v-7.29c0-.85.12-1.21-.37-1.82s.12-1.22.49-1.95a3.5,3.5,0,0,0-.24-2.43c-.25-.85-.37-1.58.6-2.06a3.09,3.09,0,0,0,1.7-2.31v-3.16c0-.73-.72-1.34-1.7-2.55a2.51,2.51,0,0,1-.73-2.07v-.85" transform="translate(-612.84 -111.53)"/><path class="cls-1" d="M711.93,343.75h14.59v-1.83h8c1,0,1.85-.8,3.4-.8h8.43v31.23c0,1.63.28,2.76.92,3.4s1,1.34.43,2.05-.71,1.63-1.49,2.05a3.43,3.43,0,0,0-1.63,1.84c-.21.71.14,1.56-.21,2.13a4.68,4.68,0,0,0-.52,1.25" transform="translate(-612.84 -111.53)"/><path class="cls-1" d="M876.15,164.91c1,0,1.57-2.16,2.24-3s2.34-.88,4.23-.79c.43-.57,2.33.81,2.37-.29,0-.61-.3-2,.44-2,2.77.1,2.05-1,2.14-3.46,0-1.38-.69-2.09-1.58-3-.54-.52-.83-.73-.77.83.13,3-1.08,5.54-5.26,5.4-1.73-.06-4.41.67-4.34-1.34.06-1.57.11-3.14.17-4.71.09-2.58,2.37.3,2.49-3.1,0-.8,4.34-2.68,5.15-2.65,1.58,0,2,.51,2-1.12,0-.88.29-1.1-.48-1.38l-6-2.24c-2.22-.82-2.18.66-2.07-2.26.05-1.58.77-3.15.83-4.73.09-2.64.32-2.94,2.28-4.77,1-.9,2.55-.08,3.86-1.31,1.55-1.44,3.37-7.19,1.8-8.89a31.63,31.63,0,0,1-2-4.17c-.5-1.08-1.83-.88-3.57.73-.29.88.37,1.19,1.07,1.76s-2.63,1-1.23,2.93c1.59,2.22,1.24,1.81-.71,3.64-.68.64-2.83.15-3.81.11-1.75-.06-1.11-.8-1.09-2.41,0-2.13.12-2.4,1.66-3.85.62-.58,1.67-2.24.94-3.15s-8.36-.21-9.49-.25l-1.07,0v.09" transform="translate(-612.84 -111.53)"/><path class="cls-1" d="M879.33,199c1.34.13,2,.06,2-2,0-.57,1.47-.64,1.93-.36s.77,1.24,1.07.87c1-1.24,4.17-1.41,4.22-.24s-.65,4-.29,4.35c1.08,1.15,2.37-.1,2.41-1.11q.13-3.94.28-7.89c0-1.62-.55-2.77,1.28-2.7,1.09,0,1.38.45,1.32,1.27,0,.32.22.75.47.54,1.7-1.42,4.19-3.19,4.26-5.16.1-2.82.25-3.56,2-5.29.3-.33.69-.9-.05-.94-1.18-.06-1.74.18-1.78,1.49-.06,1.54-.72,1.81-1.87,2.88s-4.54.46-6.24.4c-2.51-.09-1.4-3-1.32-5.17s-.09-2,2.06-1.93c.75,0,.44-1.69.46-2.34.14-4-2.33-2.4-4.46-.4-1,1-5,.13-5.8-.79-1.87-2-3.8-3.21-3.7-6a4.2,4.2,0,0,1,2.52-3.51c.68-.39,2.54,1.18,3.79,2.53,1.78,1.93-.54,3.18,2.73,3.29,1.89.07,3.62.45,2.8-2.26s-3-1.7-4.65-2.54c-1.18-.6-3.3-3.36-2.19-4.83-1.89-.09-3.55-.09-4.23.79s-1.27,3-2.24,3" transform="translate(-612.84 -111.53)"/><path class="cls-1" d="M795.21,115.22l-52.38.37c-2.31,0-4.63,0-6.94,0V133.4c0,1.09-1.75.87-1.75,1.75s.87,1.31.87,2.41v3.06" transform="translate(-612.84 -111.53)"/><path class="cls-1" d="M851.44,115l-3.14-.1c-11.7-.41-23.49.11-35.21.2l-17.88.14" transform="translate(-612.84 -111.53)"/><path class="cls-1" d="M866.41,115.52v-.09c-4.5-.15-10.17-.3-15-.45" transform="translate(-612.84 -111.53)"/><path class="cls-1" d="M840.79,235c-.69.89-1.2,2.09-.76,2.59a3,3,0,0,1,.57,2v3.79c0,.63-.88,1.39-.63,1.9s1.64,1.26,1.83,2.21,1,1.26,1.46,2.27h15a3.46,3.46,0,0,0,.56-1.4c0-.56-.54-1.06-.5-1.6.17-2.3.19-4.62.25-6.93a1.08,1.08,0,0,1,.74-.95,17.87,17.87,0,0,0,3.63-2.24c.28-.21.47-.08.44.14-.13,1.22-.48,3.7-.11,4.21,1,1.5,2.38-.39,2.28,2.45,0,1.21,4.2-1.07.4-4.47-1.87-1.68,1.07-1.58,1.83-2.56s2.18-4,2.65-4.39c1.78-1.64,2.57,1.35,2.69-2.16a9,9,0,0,1,5-7.31c1.68-.75,3.76.5,4.81-2.2s-.5-2.26-2.27-2.47c-.86-.1-4.76.29-4.73-.53s-.18-4.36.52-4.34c3.4.12.55,2.38,3.1,2.47,1.65.06,3.52.89,3.58-1.06s2.48-2.27,2.53-3.82c0-.45.3-1.58.06-1.79l-.58-.47a9.76,9.76,0,0,0-1.8.16c-1.62.06-3.3-.12-4.93-.17-1.8-.07-4.58.77-4.5-1.33.1-3-.58-8.33,3.85-8.18.61,0,1.14.09,1.59.14" transform="translate(-612.84 -111.53)"/><path class="cls-1" d="M729.9,173.74v5.62c0,.84.74,1.47.74,2.31v14.41c0,1.15-.95,2.1-.95,3s-.63,1.36-1.26,1.78-.1.84.11,1.47a2.7,2.7,0,0,1-.95,2.32,7,7,0,0,0-1.26,2.09H753c4.31,0,4.84.85,6.94.85h3.47c.73,0,.84-1,1.79-1s1.78,1,2.83,1h4.52" transform="translate(-612.84 -111.53)"/><path class="cls-1" d="M840.79,235h-2.1v-8.73h-3.82c-.86,0-.58,1.43-1.44,2.29s-1.14,2.1-2.19,2.39-1.34,1.63-2.11,2.58a4.75,4.75,0,0,1-3.53,1.82,6.9,6.9,0,0,0-3.73,1.05c-.77.57-.86-1.15-1.53-1.34s-.57-1.24-.57-1.81,0-1.63-1.15-1.63-1.53-.86-2.49-1.24-.38-2.49-1.43-2.49a4,4,0,0,1-2.58-1.53" transform="translate(-612.84 -111.53)"/><path class="cls-1" d="M772.58,207.64v23.08H810v-3.83l2.12-.53" transform="translate(-612.84 -111.53)"/><path class="cls-1" d="M876.69,329.11c-14.21.35-28.45.63-42.64,1-.69.12-.53-.48-.25-1.6a3.72,3.72,0,0,0-1.12-3.09c-1-1.21-1.54.7-3.36.84-.84.07-2.53-1.26-1.82-2.24-1.11,1.12-1.63,3.21-2.33,4.17" transform="translate(-612.84 -111.53)"/><path class="cls-1" d="M907.25,360.6a2.54,2.54,0,0,1,0-1.89c.42-.95-.94-.74-.84-1.68s1.47-1.48,1.05-2.63a5,5,0,0,1,0-3.26,4.7,4.7,0,0,0-.42-3.26c-.52-1.37.63-1.68-.21-2.63s-.63-1.47-.21-2.63,0-1.47-.52-2.62-1-2.74-.43-3.79,2-2.42,1.9-4.1a10.46,10.46,0,0,1,.77-4l-7.18.25q-12.21.44-24.47.72" transform="translate(-612.84 -111.53)"/><path class="cls-1" d="M927.38,413.41c.88.55,1.87-.76,2.75.23s.44,2.2,1.76,2.2h3c.66,0,1.76-1.43,2.31-2.64a12.91,12.91,0,0,1,1.81-2.68,31.61,31.61,0,0,1,2.07-2.86c.84-1,1.14-3.1,2.07-4.66l3.75-3.91a15.92,15.92,0,0,1-2.65-4.57c-.48-1.46-4,4-5,3.73s-1.21-.55-1-1.65-.55-1.1-.88-2.53-1.21-1.54-2.53-2.53-.88-1.32-1-3.08-1.2-1.76-1.2-3.74v-17H901.43" transform="translate(-612.84 -111.53)"/><path class="cls-1" d="M932.66,327.7h-.07c-8,0-16.15.18-24.25.44a10.46,10.46,0,0,0-.77,4c.1,1.68-1.37,3.05-1.9,4.1s-.1,2.63.43,3.79.94,1.47.52,2.62-.63,1.69.21,2.63-.31,1.26.21,2.63a4.7,4.7,0,0,1,.42,3.26,5,5,0,0,0,0,3.26c.42,1.15-.94,1.68-1.05,2.63s1.26.73.84,1.68a2.54,2.54,0,0,0,0,1.89s-.16,2.47-1.42,2.47-1.8.31-2.42,1.76c-.33.77-1.76,1.87-2,2.85h31.23" transform="translate(-612.84 -111.53)"/><path class="cls-1" d="M828.28,383.27H826v-2.7c0-.7-1.74-1.31-2.09-2.62s-.88-2.1-.35-3.15,1-1.83.7-2.79.26-1.66.61-2.45,0-1.75,0-2.45S826,366,826,364.84v-3.49c0-1-1-.53-1.22-1.84s-1.31-1.31-1.31-2.27-.44-1.74-.44-2.62.09-2.88-.78-2.88-2,.35-2.62-.52a2.25,2.25,0,0,1,.09-2.54c.43-.87-1-1.22-1.49-2s.09-1.57,1.05-1.92.61-1.05.61-1.74v-5.07c0-.87-1.05-1.05-1.05-1.92v-2.89c0-.61.79-1.13,1.84-1.13s1.92-1.14,2.44-2.27,1.4-.61,2.1-1.58h0" transform="translate(-612.84 -111.53)"/><path class="cls-1" d="M901.43,367.68c.22-1,1.65-2.08,2-2.85.62-1.45,1.16-1.76,2.42-1.76s1.42-2.47,1.42-2.47" transform="translate(-612.84 -111.53)"/><path class="cls-1" d="M883.33,430.07a11.44,11.44,0,0,1-2.09.75c-1.19.3-3.73,2.24-4.77,2.24h-4.18c-1,0-2.09.29-2.84-.75s-1.19-2.39-2.68-2.39h-7.31c0-1.49-1.35-4-2.84-4.48s-3.43,0-5.07.3-2.09-.15-1.79-1.34a4.11,4.11,0,0,0,0-3c-.45-1.34.74-3.13-.15-4.77a5.77,5.77,0,0,1-.9-3.58c0-1.34-.89-1.49-2.68-1.49s-2.84-1.05-4.48-1.05-2.24-2.09-2.68-3.43-1.64-2.39-2.69-3.58-.75-3.28-.75-4-1.34-1.34-1.34-2.09,1.2-.74,1.2-1.64V392c0-1.34-1.2-2.83-2.09-3.73s-1.35-2.09-2.39-2.39a4.82,4.82,0,0,1-2.53-2.63" transform="translate(-612.84 -111.53)"/><path class="cls-1" d="M927.38,413.41s-.56,1.45-1,2.42-.36,1.84-.73,3.06a8.21,8.21,0,0,0-3,.73,31.46,31.46,0,0,1-6.86,1.49c-1.35,0-2.54,1.65-4.18,1.5s-4.63.74-6,.74-2.83,1.49-4,1.49-1.94,1.65-2.83,2.54-2.39.77-2.39,2.24a10,10,0,0,0-2.65-.79c-1.34-.15-1.67-.9-4.07-.42-1.4.28-.84.42-2.38.14s-1.4-.42-2.24.42a4.69,4.69,0,0,1-1.64,1.1" transform="translate(-612.84 -111.53)"/><path class="cls-1" d="M932.66,367.68v17c0,2,1.09,2,1.2,3.74s-.33,2.09,1,3.08,2.2,1.1,2.53,2.53,1.1,1.43.88,2.53,0,1.43,1,1.65,4.79-5.27,4.9-3.73c.37,1.54,2.71,4.57,2.71,4.57,6.08-6.41,15.54-6.38,15.54-6.38" transform="translate(-612.84 -111.53)"/><path class="cls-1" d="M952.22,327.52c-6.52.11-13.06.18-19.56.18" transform="translate(-612.84 -111.53)"/><path class="cls-1" d="M1000.22,366.64c-.92-.28.59-1.77.23-2.24s-.4.39-1.1-.21-.32-1.76-1.15-2.29.34-1.11.81-2.86c.25-.93-1-1.21-.85-2.17.23-2.09,1-1.32,1-3.25,0-1.19.08-2.38.13-3.56a3.59,3.59,0,0,1,.06-1.85c.47-1.22,2.78-.37,3.45-2.79.22-.75-1.13-1.82-1-3a1.74,1.74,0,0,1,2.11-1.73c.13,0,.3-.13,0-.38l-1.32-1.42c-.17-.19-.08-.47.11-.45,2.9.36,1.34-2.74,2-4.14.5-.92-.07-1.15,0-1.79.1-2.61,1.37.19,2.43-1.1.68-.83,1-3.77,1.1-5.43,0-.27.05-.71-.29-.37-.56.56-1,1.14-1.62,1.69-.21.25-.57.32-.47-.22s0-.86,0-1.29-.34-.54-.52-.52c-13.24,1.56-29.36,1.68-43.44,2.07q-4.78.13-9.58.22" transform="translate(-612.84 -111.53)"/><path class="cls-1" d="M962.4,392.71c1.94,0,9.85.91,11.67,1.75a21.76,21.76,0,0,0,4.93,1.86c1.55.28,3.36,2.55,6,3s-.07,5.95,3.16,5.39,6.82,2.57,9.2,1.45,5.39,3.56,7.63,3.42,2.16,1.86,3.42,3.68-3.2,6.35-1.1,5.09,2.25,1.26,3.65,1.12,1.54-2.53,3.5-1.26a7,7,0,0,0,3.25,1.24h.06c1,0,0-1.93.63-2.5,1.22-1.13,1.8-2.12,3.46-2.06.73,0,3.05.47,3.56.12,1.36-1-1.07-2.4.69-2a2.17,2.17,0,0,0,1.85-.81c.61-1.07-1.41-2.6-2.12-.48a1.88,1.88,0,0,1-2.72.82,3.23,3.23,0,0,1-.78-1.1,13.08,13.08,0,0,1-1.4-4.1c.13-3.57-2.36-.49-2.24-4.07.06-1.63-1.42-1.91-.72-2.87s1.46-6.13,1.07-7-1.23,3.64-2.43,2.29-1.67-3.73-2.2-4.83.06-1.88.12-3.55-.38-1.2-2-1.25c-.81,0-.2-1.72-.28-2.39s.52-2.35-.29-2.38c-1.57-.06-2,.37-1.95-1.26,0-1.3-1.66-1.37-2.5-1.43s-1.25-1.37-2.12-2.27.58-1.58.09-2.38-1.57-.38-2.53-.23-.35-1-1.3-1.45.64-.81-.61-1.81,0-3.56-.89-3.84" transform="translate(-612.84 -111.53)"/><path class="cls-1" d="M998.64,435.36c-1-2.78.63-5.15,2.44-6.85.84-.79,2.31.15,3.42-.89,1.73-1.61,1.46-1.61,3.07.11,3.14,3.34,3.25-1.08,3.33-3.43,0-.74,2.77-.28,3.56-.25,1.9.06,1-.71,1.27-2.31.43-2.23-.52-2.4,2-2.32a7,7,0,0,1-3.25-1.24c-2-1.27-2.1,1.12-3.5,1.26s-1.54-2.39-3.65-1.12-4.48,3.22-5.74,1.4-.85-3.79-3.09-3.65,1.7-2.58-.68-1.46-6.58,5.94-8.46,9.57c-1.51,2.9-3.59,1.12-5.56,2.75a6.66,6.66,0,0,1-5.76,1.33l-4.71,0" transform="translate(-612.84 -111.53)"/><path class="cls-1" d="M1023.72,464.32c-.41-4.52-4.76.33-4.6-4.19.06-1.61-.54-2.75,1.28-2.68,1.13,0,1.39.49,1.29,1.37-.35.95.21.66.46.46,1.72-1.38,4.52-3.24,4.17-.29-.29.68-.1,1.25.62.42.92-1.05,1.44-2,2.55-.81,1.58,1.68,1.66,1.38,3.85,1.66s2.28,0,3.85,1.68a2.84,2.84,0,0,0,2.51,1c.62.05.35-.74.19-1.09l-1.32-2.86c-.37-.88,0-1.19,1.29-1.24a3.52,3.52,0,0,0,3.11-1.86c1.31-2.29-.79-2.41,2.83-2.28,2.76.09,2.07,1.48,4.28,2.52a9.51,9.51,0,0,0,3.53.2c.88,0,.73-.54.51-.76a4.79,4.79,0,0,1-1.53-2.34c-.08-1.08-.63-1.15-1-.86-1.74,1.46-3.85,2.65-3.73-.69.05-1.49-1.48-2.39-2.95-2.74-1.69-.37-.89-1.07-.39-1.56a2.39,2.39,0,0,1,1.52-.89c1.09,0,3.36.51,4.36.15,1.69-.61,1.64-2.31,3.64-2.24,1.44.05,2.13-.73,3-1.68.55-.48.55-1-.28-1-2.36-.08-4.6.24-7,.16-1.5.05-1-.75-.55-1.23,1.28-1.44,3-3.41,4.16-3.37,2.94.1,4.34,1.07,4.45-2.22,0-1.61.63-2.33-1.09-2.39s-1.16-.49-1.11-2.06c.08-2.34-4.33,1.4-4.63,1.68-1.38,1.31-1.94,4.87-2.6,6.65-.28.75-2.67.63-4,.41-.54-.09-1.24,0-.88-1.21.31-1.08.68-2.33.11-3.38-.27-.5-1.91-.06-2.35-.28-1.27-.65-2.74-2.69-3.88-4.1-.57-.59-.31-1,.42-.75,1.77.6,2.33-2.29,4.08-2.23,1.58.05,2,.51,2-1.13,0-1,.31-1.18-.69-1.22-2.11-.07-4.25-.05-6.34-.22-1.84-.14-2.48-.35-3.35-1.15-.37-.33-1.44-.69-1.48,1.44,0,1.73-.81,2.69-2.79,4.54-1.21,1.14-1.65,2-3.3,1.93-1.82-.06-1.1.69-1.27,2.31-.27,2.45-.18,5-.26,7.46-.13,3.62-.75.34-2.45,1.93-1.24,1.15,1.26,2.4-1.26,2.31-2.21-.07-6.28.59-8.27-.29-1.82-.8-3.54-5.44-2.12-7.17s2.31,1.81,2.43-1.91c0-.69-2.13-.66-2.61-.22-2,1.86-3.68,1.94-5.58,3.14a2.76,2.76,0,0,1-2.22-.17c-1.58-.66-2.73-.64-3.8-3.62" transform="translate(-612.84 -111.53)"/><path class="cls-1" d="M986.61,490.18a4.8,4.8,0,0,1,2.67-.62l5.48.19c2.75.1,2.16-1.43,4.44-2.22,3.07-1.06,2.32,1.72,2.26,3.64-.09,2.4-.34,3.33,1.35,5.13,1.34,1.43.71,3.49.64,5.4,0,.56,0,1-.05,1.43-.21,1.2-.27,1.9.72,1.51,2.36-.94,5.44-.16,8-.08,1.81.07,3.63,1.61,5.19,2.46,1.17.64,2.7.27,4,1,3.74,2,6.78,4.22,11.08,4.37,2.06.07,2.54,2.47,4.14,2.52s3.58.57,4.28,2.52c.28.8-.74,4.71.2,4.74,2.93.1,2,1.33,1.87,4.06,0,1,2.45.95,3.49,2.06a12,12,0,0,0,3.49,1.68c.26.86-.39,2.81-.93,4.76-.31,1.09-1.77,2.59-2.59,3.47s-3.52,2.27-3.57,3.71c0,1.67.06,2.15.72,2.92,1,.94,1.85-.19,2.26-.9.49-.87,1-1.75,1.34-2.57.43-1,0-2,.64-2.64,2.29-2.13,3.91-8.27,6.87-9,1.12-.26,3.57.13,4.74.17,2.33.08,2.38-.29,2.3,2.08-.09,2.77,3.43,3,5.75,3,.57.11,1.56-.25.2-1.13-.41-.43-1.08-1.46-.24-2.27,1.79-1.73,3.35-3.63,5.9-3.54,5.43.19.54-2.43,3.09-4.81,1.68-1.58,2.25-1.83,2.33-4.12,0-1.16,2.36.78,2.44-1.45,0-.81.48-3.55-.25-3.58-1.74-.06-2.34-.13-2.08-1.71.23-.68-.08-.68-1.3,0-1.78,1.06-4.46,2.3-5.71,1.35s1.52-2.31-1.11-2.4c-2.26-.08-.35-.91-1.1-2.42-.47-1-1.8-1.5-2.28-2.46-.75-1.5,1.17-2.32-1.11-2.4s-.36-.91-1.1-2.43c-.28-.59-2.09-2.62-2.54-2.2-1.22,1.13-2.18,1.57-2.24,3.23,0,1.35-.92,1.75-2.41,1.11-2.66-1.13-1.39-4.8-3.38-4.87s-6,.68-5.88-1.38c.08-2.25-.88-.41-2.32-1.25a7.93,7.93,0,0,1-1.78-1.86c-.21-.38-.78-.54-.62.14.43,1.86-1.11,1.59-3.08,1.52-2.43-.08-4.1.58-4-1.63.25-.77-.11-.77-.56-.58l-3.1,1.43c-1.12.66-1-.16-.93-.43.06-1.62-.8-2.28-2.08-3.65-.39-.41.84-1.43,1.65-2.09.5-.28.65-.59-.7-.5a8.27,8.27,0,0,1-3.63-.5c-.35-.35,0-2,.21-3.32.06-.47.36-1.41-.71-.6s-3.21,1.94-4,1.77-2.55-2.94-3.1-3.33-1.89-1-3.12-1.8a1.23,1.23,0,0,1-.51-1.66c.29-.85.86-1.22,1.74-2,.21-.19.73-.88-.62-.72s-1.15-.86-1.09-2.56c.07-2.31-.26-2.39,2.09-2.31.73,0,.46-2.74.49-3.54.07-1.82,1.16-1.15,2.78-1.09,1.16,0,6.8.82,8.23.52.89,1.38-.66,2.12,2.79,2.24.71,0,1.46,1,2.07,1.73.43.75.79.39.81-.38,0-1.32-.44-1.61-2-1.67-1.12,0-2-2.85-3.63-2.46-1.13-.31-1.54.21-3-1.33-.69-.74-3.1-.62-3.16-1.31" transform="translate(-612.84 -111.53)"/><path class="cls-1" d="M964.18,468.82H967c.86,0,1.1,1.1,2.2,1.1s1.1,2.2,1.1,3.18-1.1,1.1-1.1,2.19,1.1,1.71,1.1,2.94v2.68c0,.73-1.34.37-2.08,1.47s-.36,1.46.25,2.44,1,3.05,1.83,3.78,1.59,1.35,1.59,2.45,1,1.22,2,1.46a15,15,0,0,0,2.93.49c.73,0,2.32-.73,2.93-.12s1.53,2.92,2.62,3.16c.09-2.58-.78-4.38,2.16-4.28.91,0,1.5-1,2.14-1.58" transform="translate(-612.84 -111.53)"/><path class="cls-1" d="M973.33,428.22a27,27,0,0,1-5.67-1.9c-1.83-.84-2.09-1.38-4-1.38l-4.53-.76" transform="translate(-612.84 -111.53)"/><path class="cls-1" d="M935,447.7s2.08.86,1.83,1.95,1,1.84,2.08,1.23,2.44,1.58,2.2,3.17,1,3.17,1.95,4a5.86,5.86,0,0,0,3.66,1.83,4.18,4.18,0,0,1,3.91,2.93,21.66,21.66,0,0,1,1,4.52c0,1.1.24,1.46,1.83,1.46h10.74" transform="translate(-612.84 -111.53)"/><path class="cls-1" d="M959.1,424.18l-6.07-.72s-1.59-.49-1.72-.26" transform="translate(-612.84 -111.53)"/><path class="cls-1" d="M935,447.7h-3.66c-1,0-1.47,1.1-2.2,1.1s-1.22-1.59-2.2-1.34-1.71,1-2.32-.25-1.59-1.58-1.1-2.8a2.68,2.68,0,0,0-.48-2.93,2,2,0,0,1,.12-2.45c.49-.61.12-1.46-.25-2.32a10.81,10.81,0,0,1-1.1-2.93c-.12-1.1.86-1.46,1.59-2.81s-.12-2.93.25-4.27,1.71-2.81,1.58-4.27a8.31,8.31,0,0,1,.37-3.54c.37-1.22.24-2.08.73-3.06s1-2.42,1-2.42c.88.55,1.87-.76,2.75.23s.44,2.2,1.76,2.2h3c.66,0,1.76-1.43,2.31-2.64.23-.5,2-2.95,4-5.74,1.08-1.47,1.07-3.72,2.34-5,.79-.79,2.08-2.24,3.33-3.4a31,31,0,0,1,2.9-2.45,21.92,21.92,0,0,1,6.54-3c.3-.09-2.39,2.78-3.75,4.56-1.13,1.49-1.27,1-2.49,2.9-.75,1.17-1.29,4.25-1.78,5.34s-2.26,2.63-2.55,3.57c-.44,1.45.31,3.23.23,4.31a15.79,15.79,0,0,0,.09,4.65l5.26,4.21" transform="translate(-612.84 -111.53)"/><path class="cls-1" d="M924.62,447.21c-.61-1.22-1.59-1.58-1.1-2.8a2.68,2.68,0,0,0-.48-2.93,2,2,0,0,1,.12-2.45c.49-.61.12-1.46-.25-2.32a10.81,10.81,0,0,1-1.1-2.93c-.12-1.1.86-1.46,1.59-2.81s-.12-2.93.25-4.27,1.71-2.81,1.58-4.27a8.31,8.31,0,0,1,.37-3.54,8.21,8.21,0,0,0-3,.73,31.46,31.46,0,0,1-6.86,1.49c-1.35,0-2.54,1.65-4.18,1.5s-4.63.74-6,.74-2.83,1.49-4,1.49-1.94,1.65-2.83,2.54-1.79.9-2.39,2.24" transform="translate(-612.84 -111.53)"/><path class="cls-1" d="M896.31,429.62a10,10,0,0,0-2.65-.79c-1.34-.15-1.67-.9-4.07-.42-1.4.28-.84.42-2.38.14s-1.4-.42-2.24.42a4.69,4.69,0,0,1-1.64,1.1,11.44,11.44,0,0,1-2.09.75c-1.19.3-3.73,2.24-4.77,2.24h-4.18c0,1.94-.6,3-1.2,3H869v3.28h0a9.1,9.1,0,0,1,1.94,4.51c.28,1.68,1.12,1.82,2.1,2.24s1.26,2.24,1.26,3.64-.14,2.39,1,2.81a15.85,15.85,0,0,0,3.37.42c.84.14,2.38,0,2.94.84s2.66,1.82,2.52,3.22-1.12,2.1-.28,3.37,1.83,2.66.42,3.36c-.84.42-1,1-1,2.1a17,17,0,0,1-.14,2.11c.84,1,1.69,2.52.84,3.78s-.84,2,.14,2.52a2,2,0,0,1,1,1.63h0" transform="translate(-612.84 -111.53)"/><path class="cls-1" d="M950.7,519c1.41-.63.83-2.78,1-3.61a19.86,19.86,0,0,1,2.68-6.87c.36-.88,2.09-1.64,3-.45a29.51,29.51,0,0,0,2.24,3.27c1.08,1.15.14,2.6,1,3.51,1.79,1.91,1.94,2,2,4.56,0,.83-.62,4.09-.16,4.73.28.4,2.09-.3,2.37.09s-.07,1.88-.08,2.37c-.12,3.47-.2,1.2-2.46,2.29s-1.54,2.44-4.24,2.34c-.54,0-1.65,1-2.55,1.45-2.47,1-2.42,2,1.2.68a101.89,101.89,0,0,0,20-9.53c3.07-1.89,5.52-4.39,8.16-6.85,2-1.88,4-4.72,6.55-5.67,1.21-.31,1.46-.88.23-.72a8.07,8.07,0,0,0-5.11,2.55c-1.26,1.17-1.83,2.12-3.5,2.53s-1.6-.23-1.71-.49c-1.09-2.66-4.19-5-4.07-8.29.06-1.64.47-1.17,2.06-1.12,1.09,0-.27,1.94.29,2.39s4.21.15,5.1.18c2.84.1,2.93-2.27.08-2.37-1.89-.07-3.69.19-2.66-2.48.52-1.34,4-2.45,2.54-4.66-.39-.59-2.4.64-2.36-.45,0-.79.06-1.57.08-2.36-1.09-.24-2-2.55-2.62-3.16s-2.2.12-2.93.12a15,15,0,0,1-2.93-.49c-1-.24-2-.37-2-1.46s-.74-1.71-1.59-2.45-1.22-2.8-1.83-3.78-1-1.34-.25-2.44,2.08-.74,2.08-1.47v-2.68c0-1.23-1.1-1.84-1.1-2.94s1.1-1.22,1.1-2.19,0-3.18-1.1-3.18-1.34-1.1-2.2-1.1H953.44c-1.59,0-1.83-.36-1.83-1.46a21.66,21.66,0,0,0-1-4.52,4.18,4.18,0,0,0-3.91-2.93,5.86,5.86,0,0,1-3.66-1.83c-1-.86-2.2-2.44-1.95-4s-1.1-3.78-2.2-3.17-2.32-.13-2.08-1.23S935,447.7,935,447.7h-3.66c-1,0-1.47,1.1-2.2,1.1s-1.22-1.59-2.2-1.34-1.71,1-2.32-.25" transform="translate(-612.84 -111.53)"/><path class="cls-1" d="M885.12,475.87a5.91,5.91,0,0,0-3.43,1.34c-.9.75-3.28,2.24-4.63,1.65a2.27,2.27,0,0,0-3,.59c-.9.9-1.94,1.79-1.94,2.69s.15,1.79-1.34,1.79-2.69.45-2.69,1.49a35.86,35.86,0,0,1-.89,4.59,3.19,3.19,0,0,1,2.34.94c1.38,1.46,1.49,1.58,1.42,3.56,0,.95,1.73.1,2.34.45,3.38,2,1.6,3.75.15,6.4-.76,1.39-1.52.11-2.76.65-.79.34-1.63,1.52-2.27,2.12-1,1-.07,4.91-3.09,4.81-2.15-.08-1.71-.29-1.93-2.08-.28-2.27-2.72-1.6-1.41.56s3.62,3.89,5.44,5.82c.85.91,1.74.25,2.85.59a22.77,22.77,0,0,1,3.93,2.15c1.21.65,1.83,2.29,3,2.84.94.44,2.95.1,4,.14,2.23.07,3.82,2.5,6,2.58,4.51.16,12.12-1.07,15.28,2.3,1.59,1.69,1.49,5.4,4,5.49,1.9.07,3.6,2.35,5,4,.27.32.82,1.46.64-.15-.1-.88.26-1.31,1.39-1.27,2.53.09,0-1.17,1.26-2.33s2.3,1.42,2.39-1.1c.06-1.63.48-1.16,2.05-1.11l7.11.25c1.13,0-.31-2.39.82-2.35s2,.55,2-.67c.07-1.84-.66-6.4,1.41-6.32.95,0,5.9.51,5.93-.17,0-1.33.09-2.66.14-4,0-1.12-2.37.31-2.33-.82.11-3.13,2.55-1,2.59-3.29-.38-1.3.69-.16,1.07.26s1,2.28,1-.11c-.07-3.4,4.17,1.46,5.24,1.5,3.95.14.48,3.32,2.64,5.65.63.68,2.28,2.37,3.84,1.68" transform="translate(-612.84 -111.53)"/><path class="cls-1" d="M812.84,465.9c.29,1.33,1,2.15,2.39.83a22.61,22.61,0,0,1,6.86-4.24c1.35-.62,13.52-.57,14.43.4.48.51-.06,6.94-.5,7.35-1.23,1.12-2.17,1.55-2.23,3.21-.07,1.83.69,1.08,2.32,1.27.58.07,7.1,0,7.08.45-.11,3.37-.31,4.22,1.64,6.44.15.18.67.57,0,1.06a6.78,6.78,0,0,0-2,2.94c-.25.72,0,1.29,1,.77,2.74-1.08,5.32-1.52,7.56-3.11.36-.26,1.08-1.14,1,.73-.1,2,2,3.22,4.27,3.29,2.8.1,4.14.88,6.64,2.24,1.23.67,2.64.41,3.94.48a35.86,35.86,0,0,0,.89-4.59c0-1,1.19-1.49,2.69-1.49s1.34-.9,1.34-1.79,1-1.79,1.94-2.69a2.27,2.27,0,0,1,3-.59c1.35.59,3.73-.9,4.63-1.65a5.91,5.91,0,0,1,3.43-1.34h0a2,2,0,0,0-1-1.63c-1-.56-1-1.26-.14-2.52s0-2.8-.84-3.78" transform="translate(-612.84 -111.53)"/><path class="cls-1" d="M743.89,385.92a2.51,2.51,0,0,0,.73,2.07c1,1.21,1.7,1.82,1.7,2.55v3.16a3.09,3.09,0,0,1-1.7,2.31c-1,.48-.85,1.21-.6,2.06a3.5,3.5,0,0,1,.24,2.43c-.37.73-1,1.34-.49,1.95s.37,1,.37,1.82v7.29c0,1,0,1.58,1,2.07s3,.73,2.31,2.06-1.58,1.83-1.58,3-.61,1.82-1.34,2.8-.36,1.7-.36,2.43a9.64,9.64,0,0,0,1.09,2.67" transform="translate(-612.84 -111.53)"/><path class="cls-1" d="M802,476a10.24,10.24,0,0,0-1.08-.1l-7.46-.26c-3.49-.12-3-2.11-3.95-5.38-.92-3.11-.53-4.16,1.81-6.35,1.91-1.79,4.76-3,7-4.38s4.44-1.83,6.3-3.46" transform="translate(-612.84 -111.53)"/><path class="cls-1" d="M745.23,426.63a37.17,37.17,0,0,1-4.13,1.95c-1.76.72-4.13,2.55-6,3.64h9.6V481c4.85.16,9.87-.09,14.64.76,5.78,1,11.62,2.52,17.5,2.73,2.8.1,5.07-2.5,7.74-3.72,2.13-1,4.14-.6,6.47-.52,1.75.06,5.86-.51,7.33.56l.09.06" transform="translate(-612.84 -111.53)"/><path class="cls-1" d="M743.89,385.92v-.85a4.68,4.68,0,0,1,.52-1.25c.35-.57,0-1.42.21-2.13a3.43,3.43,0,0,1,1.63-1.84c.78-.42.92-1.34,1.49-2.05s.21-1.42-.43-2.05-.92-1.77-.92-3.4V341.12H755c1,0,1-.91,1.83-1.26s.79-.87.79-1.48-.79-.7-.79-1.66.7-1.4,1.57-1.49,1.31-1.05,2.88-1.48,2.36-1.23,2.36-2,1.05-1.23,2.36-1.23a5.21,5.21,0,0,1,3.76,1.66c.7,1,1.22,1.75,2.18,1.75h3.58s.09,2.27.09,3.14,1.57,2.19,2.27,2.8a3.74,3.74,0,0,1,1.4,2.71v4h2.27" transform="translate(-612.84 -111.53)"/><path class="cls-1" d="M826,383.27v-2.7c0-.7-1.74-1.31-2.09-2.62s-.88-2.1-.35-3.15,1-1.83.7-2.79.26-1.66.61-2.45,0-1.75,0-2.45S826,366,826,364.84v-3.49c0-1-1-.53-1.22-1.84s-1.31-1.31-1.31-2.27-.44-1.74-.44-2.62.09-2.88-.78-2.88-2,.35-2.62-.52a2.25,2.25,0,0,1,.09-2.54c.43-.87-1-1.22-1.49-2l-25.07.09c-.7,0-.87-.61-1.48-.61s-.79.44-1.66.44h-8.39" transform="translate(-612.84 -111.53)"/><path class="cls-1" d="M798.51,480.89c1.56,1.16,4.79,4.54,6.61,4.61,1.17,0,3.5-.36,4.53.15s1.36,2,2.29,2.46c1.34.71,2-.32,3.17.94,1.37,1.46,1.49,1.57,3.47,1.64,3.09.11,5.15-.8,5.27-4.17,0-1,2.27-2.78,3.78-4,2.15-1.89-.66-.83-1-1.21s1-3.12-1.14-1.27c-1.91,1.6-2.13.68-4.33-1.71-1.44-1.56-1.56-1.82-3.67-1.9-1.05,0,.28-2.35-.49-2.38l-8.09-.28c-2.26-.08-.42.87-1.26,2.32a8.19,8.19,0,0,1-1.8,1.89.59.59,0,0,1-1.06,0,3.6,3.6,0,0,0-2.8-2" transform="translate(-612.84 -111.53)"/><path class="cls-1" d="M869,439.32V436h2.08c.6,0,1.2-1,1.2-3-1,0-2.09.29-2.84-.75s-1.19-2.39-2.68-2.39" transform="translate(-612.84 -111.53)"/><path class="cls-1" d="M804.56,456l.2-.17c1.28-1.2,1.45-1.14,3.23-1.08.93,0,2-1.5,2.64-2.11a1.45,1.45,0,0,1,2.51,1.1c-.09,2.63,1.41-.11,2.33,1.27,1.32,2-2.17,5.43-2.62,7a10.09,10.09,0,0,0,0,3.83" transform="translate(-612.84 -111.53)"/><path class="cls-1" d="M826,383.27h2.33a4.79,4.79,0,0,0,2.53,2.63c1,.3,1.49,1.5,2.39,2.39s2.09,2.39,2.09,3.73v3.73c0,.9-1.2.9-1.2,1.64s1.35,1.34,1.35,2.09-.3,2.84.74,4,2.24,2.24,2.69,3.58,1,3.43,2.68,3.43,2.69,1.05,4.48,1.05,2.68.15,2.68,1.49a5.77,5.77,0,0,0,.9,3.58c.89,1.64-.3,3.43.15,4.77a4.11,4.11,0,0,1,0,3c-.3,1.19.15,1.64,1.79,1.34s3.58-.75,5.07-.3,2.84,3,2.84,4.48" transform="translate(-612.84 -111.53)"/><path class="cls-1" d="M883.14,467.94a17,17,0,0,0,.14-2.11c0-1.12.14-1.68,1-2.1,1.41-.7.42-2.1-.42-3.36s.14-2,.28-3.37-2-2.38-2.52-3.22-2.1-.7-2.94-.84a15.85,15.85,0,0,1-3.37-.42c-1.12-.42-1-1.41-1-2.81s-.28-3.22-1.26-3.64-1.82-.56-2.1-2.24a9.1,9.1,0,0,0-1.94-4.51h0" transform="translate(-612.84 -111.53)"/><path class="cls-1" d="M735,140.62H725.6V145c0,1.53-2.41,2.85-3.29,4.16s0,4.82.22,6.35-1.09,2-1.75,3.72v14.51h9.12" transform="translate(-612.84 -111.53)"/><path class="cls-1" d="M669.31,239.89v-5.35c0-1.21.69-1.72.86-2.76s1.56-2,1.81-1.21,1.08.7,1.82,1a8.22,8.22,0,0,0,3.54,0" transform="translate(-612.84 -111.53)"/><path class="cls-1" d="M677.34,231.52c.69,1.73.82,2.77,2.12,2.88a7.32,7.32,0,0,0,2.87-.28c.83-.27,1.39,1.86,2.22.93a4.26,4.26,0,0,1,3.62-1.85v-7.42H698c1.2,0-.83-1.29-1.3-1.94s-1.3-.84-1.3-2.32.56-1.67,1.3-2.41.37-1.3.37-2.13-.83-.65-1.39-1.48a2.35,2.35,0,0,1-.46-2.23,7,7,0,0,0,.18-2.41,4.44,4.44,0,0,0-1.76-2.5c-.92-.74-.92-.83-.92-1.57H715.5" transform="translate(-612.84 -111.53)"/><path class="cls-1" d="M669.31,239.89H629.79c0,.51,0,1.05,0,1.6-.07,1.92,2.13,2.91,3.49,4,1.08.86,1.74,3.2.74,4a1.13,1.13,0,0,0,.07,2,2.76,2.76,0,0,1,1.13,2.52c0,1.09,2-.14,2.35.45s.11,2.4-.45,2.38c-2.94-.11-2.06,1.72-2.15,4.3-.07,1.95-.27,2.68-1.11,3.61-.69.67-1.1,1.29-.16,1.32,1.59,0,1,1.79,1,3.7-.06,1.63.39,1.2,2,1.25,1.09,0-.27,1.94.28,2.39.82.67,4.79.17,5.93.21,1.48.05,1.38,1.61,1.19,3.15-.12,1.3-.81,1.76-1.52,1.72-1.4.15-1.81.83-.57,1.81.89.71,2.13.78,3.84.54.69-.1.24,3.59.21,4.37,0,1.09,1.92-.13,2.34.45s-.15,1.81-.09,2.36a16.89,16.89,0,0,1,.5,3.54c-.08,1.53-.72,2.92-.76,3.94-.08,2.26.41,2.51,2,4.19.61.65,2.63-.21,2.6.71,0,.74-.55,3.82-.16,4.38,1,1.35,2.43-1.35,2.34,1.26-.1,2.77,0,3.54,1.54,5.31.65.81.57.18.57-.47.17-1.36,1.37-1.39,2.79-1.25" transform="translate(-612.84 -111.53)"/><path class="cls-1" d="M659.65,309.62l1.56.17a.44.44,0,0,1,.34.69c-.43.91-.8,2-1.47,2.32-1.33.65-.09,2.44,1,3.71a.52.52,0,0,1-.55.77c-2.66-.32-2,4.3-.41,4.36,2.74.09,1,5.22,1,5.93-.06,1.9-.79.91-2.41,1.1s-2.34-.8-2.41,1.1c0,.85-.29,3.56.24,3.58,1.73.06,4.4-.67,4.33,1.33-.08,2.46.64,3.58-2.12,3.49-1,0,.18,2.31-1.69,2.41-.3,0-.68.35-.06,1.2a5.26,5.26,0,0,1,1,2.45c.8-.24,1.51-.46,1.89-.6a5.16,5.16,0,0,1,4,.72,4,4,0,0,0,3.89.37c1.34-.73,2.31-1.82,4.62-1.82s22.12-.25,23.82-.25,1.34.85,2.55.85h4.25c1.22,0,1.1-.85,2.19-.85h6.68v1.1h14.59v-1.83" transform="translate(-612.84 -111.53)"/><path class="cls-1" d="M772.58,230.72V207.64h-4.52c-1,0-1.89-1-2.83-1s-1.06,1-1.79,1H760c-2.1,0-2.63-.85-6.94-.85H715.5" transform="translate(-612.84 -111.53)"/><line class="cls-1" x1="159.75" y1="119.19" x2="188.18" y2="119.19"/><path class="cls-1" d="M843.26,249.78c-.45-1-1.27-1.32-1.46-2.27s-1.58-1.71-1.83-2.21.63-1.27.63-1.9v-3.79a3,3,0,0,0-.57-2c-.44-.5.07-1.7.76-2.59h-2.1v-8.73h-3.82c-.86,0-.58,1.43-1.44,2.29s-1.14,2.1-2.19,2.39-1.34,1.63-2.11,2.58a4.75,4.75,0,0,1-3.53,1.82,6.9,6.9,0,0,0-3.73,1.05c-.77.57-.86-1.15-1.53-1.34s-.57-1.24-.57-1.81,0-1.63-1.15-1.63-1.53-.86-2.49-1.24-.38-2.49-1.43-2.49a4,4,0,0,1-2.58-1.53l-2.12.53v3.83h-9" transform="translate(-612.84 -111.53)"/><path class="cls-1" d="M726.52,341.92h8c1,0,1.85-.8,3.4-.8H755c1,0,1-.91,1.83-1.26s.79-.87.79-1.48-.79-.7-.79-1.66.7-1.4,1.57-1.49,1.31-1.05,2.88-1.48,2.36-1.23,2.36-2,1.05-1.23,2.36-1.23a5.21,5.21,0,0,1,3.76,1.66c.7,1,1.22,1.75,2.18,1.75h3.58" transform="translate(-612.84 -111.53)"/><path class="cls-1" d="M775.55,333.92s.09,2.27.09,3.14,1.57,2.19,2.27,2.8a3.74,3.74,0,0,1,1.4,2.71v4H790c.87,0,1-.44,1.66-.44s.78.61,1.48.61l25.07-.09c-.52-.78.09-1.57,1.05-1.92s.61-1.05.61-1.74v-5.07c0-.88-1.05-1.05-1.05-1.92v-2.89c0-.61.79-1.13,1.84-1.13s1.92-1.14,2.44-2.27,1.4-.61,2.1-1.58,1.22-3,2.33-4.17" transform="translate(-612.84 -111.53)"/><path class="cls-1" d="M827.5,324c-.71,1,1,2.31,1.82,2.24,1.82-.14,2.35-2.05,3.36-.84a3.72,3.72,0,0,1,1.12,3.09c-.28,1.12-.44,1.72.25,1.6,1.18-.53,4.06-1.2,4.82-2.19,1-1.38,0-2.28,1.67-3.85,1.38-1.29-.1-1.84-1.25-3.09-.69-.75-1.81-2.61-2.83-2.64-4.69-.17-.05-4.66.62-7.08a21.26,21.26,0,0,0,.15-4.38c0-1.17-2.39.61-2.31-1.63.09-2.57-2.38.12-2.29-2.45.06-1.79,1-1.15,2.61-1.1,3.93.14,5.54-.3,9.13-2,.56-.26.34-3.74.36-4.46,0-1.16-2.37.61-2.3-1.62s-2.35-.47-2.3-1.64c0-.49,0-1,0-1.48a3,3,0,0,0-.5-1.05c-1.34-1.41-2.9-3.15-1.06-4.87s4.24-3.08,4.12.39c-.06,1.67,0,5.11,2.54,5.2,2.15.08,2,.22,2.07-1.94,0-.49,1-.49,1.7-.4.27,0,.67.08.13-.48-1-1-1.92-2.05-2.88-3.07-1.49-1.6-.34-1.81-1.06-3.61-.53-1.32-2.3-1.63-2.24-3.19l.15-4.36c.09-2.45.14-1.81,2.42-1.9,1.44-.05,2.93.1,4.37.15,3.23.12,2.95-4.89,3-5.82,0-.57-.89-.29-1.24-.07-1.42.89-4.86,2.16-6.18.74-2.56-2.75-2.69-3.63-.36-5.93.65-.7,1.17-.36,1.14-.18-.5,2.69.89.5,2.17,1.88.66.72,2.7,2.67,3.5,2.53,1-.17.95-.37,1.06-.63s-.3-1.64.26-2.15,2.1-1.48,2.2-2c.26-1.55-2.25-3.51-2.19-5.2a4.38,4.38,0,0,1,2.52-4.27c.63-.31,2.35.67,2.38-.28a.41.41,0,0,1,.05-.18h-15" transform="translate(-612.84 -111.53)"/><path class="cls-1" d="M615.71,201.92q-.27,8-.56,16c-.1,2.9-1.31,4.91,1.83,5,1.13,0-.48,2.34.66,2.38,2.15.07,1,0,1,2.14,0,1.17,2.4-.61,2.32,1.64-.09,2.53,1.16,0,2.32,1.27s-1.43,2.31,1.1,2.4c.62,0-.43,1.81.49,1.78a2.72,2.72,0,0,1,2.24,2c0,.43-.21.84,0,1s.79,0,1.38,0c1,.19,1.3,1.16,1.38,2.35h39.52v-5.35c0-1.21.69-1.72.86-2.76s1.56-2,1.81-1.21,1.08.7,1.82,1a8.22,8.22,0,0,0,3.54,0" transform="translate(-612.84 -111.53)"/><path class="cls-1" d="M634.52,114.31c-6,0-12-.22-18.1-.44.05.42.11.83.16,1.24.68,5.19,1.8,10.42,1.62,15.66l-.66,18.69q-.56,15.85-1.1,31.71-.36,10.38-.73,20.75" transform="translate(-612.84 -111.53)"/><path class="cls-1" d="M662.63,113.55c-4.57,0-9.15.19-13.8.45-4.8.26-9.56.34-14.31.31" transform="translate(-612.84 -111.53)"/><path class="cls-1" d="M687.94,114l-4.18-.16c-7.14-.25-14.12-.38-21.13-.31" transform="translate(-612.84 -111.53)"/><path class="cls-1" d="M720.78,159.23c.66-1.75,2-2.19,1.75-3.72s-1.09-5-.22-6.35,3.29-2.63,3.29-4.16v-4.38H735v-3.06c0-1.1-.87-1.54-.87-2.41s1.75-.66,1.75-1.75V115.58c-16-.12-32-1-47.95-1.56" transform="translate(-612.84 -111.53)"/><path class="cls-1" d="M677.34,231.52c.69,1.73.82,2.77,2.12,2.88a7.32,7.32,0,0,0,2.87-.28c.83-.27,1.39,1.86,2.22.93a4.26,4.26,0,0,1,3.62-1.85v-7.42H698c1.2,0-.83-1.29-1.3-1.94s-1.3-.84-1.3-2.32.56-1.67,1.3-2.41.37-1.3.37-2.13-.83-.65-1.39-1.48a2.35,2.35,0,0,1-.46-2.23,7,7,0,0,0,.18-2.41,4.44,4.44,0,0,0-1.76-2.5c-.92-.74-.92-.83-.92-1.57" transform="translate(-612.84 -111.53)"/><path class="cls-1" d="M692.71,206.79h33.62a7,7,0,0,1,1.26-2.09,2.7,2.7,0,0,0,.95-2.32c-.21-.63-.74-1-.11-1.47s1.26-.84,1.26-1.78.95-1.9.95-3V181.67c0-.84-.74-1.47-.74-2.31v-5.62h-9.12V159.23" transform="translate(-612.84 -111.53)"/></svg>