<svg id="base_map" data-name="base map" xmlns="http://www.w3.org/2000/svg" viewBox="0 0 467.29 432.5"><defs><style>.cls-1{fill:#939598;stroke:#a7a9ac;stroke-width:0.84px;}</style></defs><path class="cls-1" d="M1020.88,161h-4.25c-1.22,0-.85-.85-2.55-.85s-21.51.24-23.82.24-3.28,1.1-4.62,1.82a4,4,0,0,1-3.89-.36,5.17,5.17,0,0,0-4-.73c-.38.14-1.09.36-1.89.61a26,26,0,0,1,0,4.56c-.09,2.58-2.36-.28-2.44,2.29,0,.79.23,3.56-.5,3.53-4.18-.14-1.39,4-1.53,7-.07,1.43-2,3.07-6.23,6.39-1.37,1.07-.44,3.38-.46,4.09a4,4,0,0,1-2.13,2.54c-1.92.32-1.56,1.09-2.33,2.23-1.36.52-.45,1.26-.06,1.56.62.46,0,1.83,1.55,1.88,1.8.07,1.62,2,0,2.35-2,.13.35,1.46.82,3a10.07,10.07,0,0,1,0,3c-.06,1.62-.46,1.16-2,1.11-1,0,.08,1.87-.45,2.36s-2.34-.77-2.38.29c0,.47,0,.94-.05,1.42h25.92v-6.44c0-1-1.22-1.46-1.22-2.07s1.58-1.21,3.28-1.21h6.69v9.72h23.21V191.63a1.3,1.3,0,0,1,1.45-1.33h12.76V160.16h-6.68C1022,160.16,1022.1,161,1020.88,161Z" transform="translate(-932.24 69.38)"/><path class="cls-1" d="M1037.41,239.4c.73-.73.85-1.83-.61-1.83h-9.23V226.39h-2.92V213.63h-9.11v-2.31H992.33V201.6h-6.69c-1.7,0-3.28.6-3.28,1.21s1.22,1.1,1.22,2.07v6.44H957.66l-.06,1.76c0,1.19-.08,2.37-.13,3.56a4.35,4.35,0,0,0-.05,1.63c.19,1.13,1,1.83,2,2.86a1.17,1.17,0,0,0,.91.34l1.38.05c.72,0,.27,2.77.24,3.56-.06,1.7.41,4.09-.31,5.26-.16.25-.49.62-.41.66a.93.93,0,0,1,.49.52,3.23,3.23,0,0,1-.06,1.84c0,.8-.06,1.59-.08,2.39l1.65,1.75c.21.23-.18.53-.48.53-2.12.05-1.19,2.66-1.42,4.8-.15,1.34.17,1.81-.73,2-.57.1-.57.41.15.57s.57,1.14.26,1.74a7.77,7.77,0,0,1-.48.78h55.18v1.82h11.91v-4.37h9c1.46,0,1.21-1,.61-1.58s-1.7-.85-1.7-2.07C1035.47,240.73,1036.68,240.12,1037.41,239.4Z" transform="translate(-932.24 69.38)"/><path class="cls-1" d="M1015.66,249.72V247.9H960.48a30.34,30.34,0,0,1-4.43,4.42c-2.84,2.64-4.69,3.65-4.83,7.62-.15,4.16-5.22,10.81-9.5,10.66-.73,0-.47,2.74-.5,3.54-.05,1.53.6,1.86,1.66,3,.83.91-.07,2.36.51,3,.79.87,2-.63,2.72.83,1.18,2.59,2.26,6,5.28,3.15l3.72-3.44c.53-.5,1.91.08,2.62-.07l9.3-2c1.89-.4,3.92.34,5.85-.07,5.48-1.19,10.23-2.57,15.73-1,2.71.78,6,2.91,8.18.86,1.83-1.73,3.86-1.06,6.33-1,5.12.18,10-.23,14.75,1.86,4.94,2.18,9.82,5,14.85,6.89q8.43,3.16,16.87,6.3a25.2,25.2,0,0,1,6.23,3.67c2.58,1.85,3.5,2.22,6.63,2.33h.11V249.72h-46.9Z" transform="translate(-932.24 69.38)"/><path class="cls-1" d="M1062.93,231.13c-1-.48-1-1.09-1-2.06v-7.29c0-.85.12-1.22-.37-1.83s.12-1.21.49-1.94a3.5,3.5,0,0,0-.24-2.43c-.25-.85-.37-1.58.6-2.07a3.1,3.1,0,0,0,1.7-2.31V208c0-.72-.73-1.33-1.7-2.55a2.49,2.49,0,0,1-.73-2.06v-.85h-13.24v3.76c0,1-2.19,1.22-3.65,1.22H1024a4.84,4.84,0,0,0-2.55.85,6.58,6.58,0,0,1-2.92.6h-3v4.62h9.11v12.76h2.92v11.18h9.23c1.46,0,1.34,1.1.61,1.83s-1.94,1.33-1.94,2.3c0,1.22,1.09,1.46,1.7,2.07s.85,1.58-.61,1.58h-9v4.37H1053c1.83-1.09,4.2-2.92,6-3.64a36.28,36.28,0,0,0,4.13-1.94,9.69,9.69,0,0,1-1.09-2.68c0-.73-.37-1.46.36-2.43s1.34-1.58,1.34-2.79.85-1.7,1.58-3S1063.9,231.62,1062.93,231.13Z" transform="translate(-932.24 69.38)"/><path class="cls-1" d="M1044.34,159.43h8c1,0,1.84-.81,3.4-.81h8.43v31.23c0,1.63.28,2.76.92,3.4s1,1.35.43,2.06-.71,1.62-1.49,2.05a3.36,3.36,0,0,0-1.63,1.84c-.21.71.14,1.56-.21,2.12a4.68,4.68,0,0,0-.52,1.26h-13.24v3.76c0,1-2.19,1.22-3.65,1.22H1024a4.84,4.84,0,0,0-2.55.85,6.58,6.58,0,0,1-2.92.6h-3V191.63a1.3,1.3,0,0,1,1.45-1.33h12.76V161.25h14.59Z" transform="translate(-932.24 69.38)"/><path class="cls-1" d="M1182.08-61.42c-.29.88,1.17,1,.39,2.15s-1.36,1.46-1,3.6-1.75,2.05-2.63,2.92-1.07,3.22-.58,4.48a13.12,13.12,0,0,1,.68,4.39c0,1.46-.2,3.31-.88,4s-2.34,1.85-2.43,3.31a2.6,2.6,0,0,1-1.56,2.24,2.06,2.06,0,0,0-.69,2.44c.49.87-.19,3.79-.19,5.55s-1.07,1.85-2,2-1.65,2.14-1.65,2.14,0,1.27.39,1.36c.6.15.91.81.68,1.76a5.35,5.35,0,0,1-.78,1.55H1194c1,0,1.56-2.15,2.24-3s2.33-.87,4.23-.79c.43-.56,2.33.81,2.37-.28,0-.61-.3-2,.44-2,2.77.09,2-1,2.14-3.47,0-1.37-.69-2.09-1.58-2.95-.55-.53-.83-.74-.77.82.12,3-1.08,5.55-5.26,5.4-1.73-.06-4.41.68-4.34-1.33.06-1.57.11-3.15.17-4.72.09-2.57,2.37.31,2.49-3.09,0-.8,4.34-2.69,5.15-2.66,1.58.06,2,.52,2-1.11,0-.89.29-1.1-.48-1.39l-6-2.23c-2.22-.83-2.18.65-2.07-2.27,0-1.57.77-3.15.83-4.72.09-2.64.32-3,2.28-4.78,1-.9,2.55-.07,3.86-1.3,1.55-1.45,3.37-7.19,1.8-8.89a31.21,31.21,0,0,1-2-4.18c-.5-1.08-1.83-.88-3.57.74-.29.88.37,1.19,1.07,1.75s-2.63,1-1.23,2.94c1.59,2.22,1.24,1.8-.71,3.63-.68.64-2.83.15-3.81.12-1.75-.06-1.11-.8-1.09-2.42,0-2.13.12-2.39,1.66-3.84.62-.58,1.67-2.24.94-3.15s-8.36-.21-9.49-.25l-1.07,0V-67C1184.23-63.85,1182.38-62.29,1182.08-61.42Z" transform="translate(-932.24 69.38)"/><path class="cls-1" d="M1203.84,25.38l.52.62c.41.44,1.5.55,1.53-.18.06-1.71,1-4.32-1-4.39-1.71-.06-2.33-1.23-2.79-.89s-.2,1.36,1.37,3C1204.26,24.46,1203.5,25,1203.84,25.38Z" transform="translate(-932.24 69.38)"/><path class="cls-1" d="M1165.78-11.75a5,5,0,0,0,.74,2.31c.31.63,1.15,1.79.42,2.42s-1.16.52-1.16,1.15.11,2.21.11,2.21h1v2c0,.53.63,1.37,1.15,1.37s1.47,1.26,1,1.89-.84,1.37-1.89.84-1.37-.21-1.58.32.32,1.26,1.16,1.15,1,1,.73,1.79-1.26.31-2,.84-.52,1.37-1.57,1.58-2.32,1.05-1.58,1.89,1.26,2.84.21,2.84-1.79-.11-2.1.42.31,1.36,1.15,1.26a1.26,1.26,0,0,1,1.48,1.16,1.92,1.92,0,0,1-1,1.68c-.74.42-1.37,1.05-.53,1.05h19.13c1.26,0,2.63-1.16,3.68-1.79a2.21,2.21,0,0,1,2.74,0,2.33,2.33,0,0,0,2.83.42,6.07,6.07,0,0,0,2.63-2,3,3,0,0,1,3-1.44c1.6.1,1.62,2.11,1.62,2.87,1.34.13,2,.06,2-2,0-.56,1.47-.63,1.93-.35s.77,1.24,1.07.87c1-1.24,4.17-1.42,4.22-.24s-.65,4-.29,4.35c1.08,1.15,2.37-.11,2.41-1.11q.13-3.94.28-7.89c0-1.63-.55-2.77,1.28-2.71,1.09,0,1.38.46,1.31,1.27,0,.32.23.75.48.55,1.7-1.43,4.19-3.2,4.26-5.16.1-2.82.25-3.57,2-5.29.3-.34.69-.9-.05-.94-1.18-.07-1.74.18-1.79,1.49,0,1.54-.71,1.81-1.86,2.88s-4.54.45-6.24.4c-2.51-.09-1.4-3-1.32-5.18s-.09-2,2.06-1.93c.75,0,.43-1.69.46-2.33.14-4-2.33-2.4-4.46-.4-1,1-5,.12-5.8-.79-1.87-2-3.8-3.22-3.7-6a4.22,4.22,0,0,1,2.52-3.52c.68-.39,2.53,1.18,3.79,2.53,1.78,1.94-.54,3.18,2.73,3.3,1.89.06,3.62.44,2.8-2.27s-3-1.69-4.65-2.54c-1.18-.6-3.3-3.36-2.19-4.83-1.9-.08-3.55-.08-4.23.79s-1.27,3-2.24,3h-24.06s-2.78.16-2.55,1.95a2.05,2.05,0,0,1-.42,1.79A3.43,3.43,0,0,0,1165.78-11.75Z" transform="translate(-932.24 69.38)"/><path class="cls-1" d="M1106.47-30.49c0-1.09.66-2.63,2-2.63a3.53,3.53,0,0,0,3.5-1.75,9.46,9.46,0,0,0,1.32-3.72c.21-1.31.21-2.84,1.09-3.94s0-3.5-.44-5-.65-3.51-1.53-4.38-1.09-2.63-.22-4.6-.22-3.72-.44-4.6a7.56,7.56,0,0,1,.88-3.94,7.11,7.11,0,0,0,.43-2.2l-52.38.38c-2.31,0-4.63,0-6.94,0V-49.1c0,1.1-1.75.88-1.75,1.75s.87,1.32.87,2.41v3.07h9.2s3.65.49,5.25,2.62c1.31,1.76.66,2,2,2h2.63v5.47h9.63v4.6c0,.87-1.09.21-1.09,1.09s1.2.22,1.2,1.2v2.52h9.09c1.31,0,1.53-1.31,2.4-.65a3.32,3.32,0,0,0,3.51.21c1.31-.65,1.09-2.84,2.19-3.06a8.89,8.89,0,0,0,4.38-2.41C1104.28-29.61,1106.47-29.39,1106.47-30.49Z" transform="translate(-932.24 69.38)"/><path class="cls-1" d="M1111.72-61.14c.22.88,1.32,2.63.44,4.6s-.66,3.72.22,4.6,1.09,2.84,1.53,4.38,1.32,3.94.44,5-.88,2.63-1.09,3.94,1.31,2.41,1.31,3.5c0,2,2.09-.76,3.72-1.09,1.1-.22,2.63-.22,3.07.66s.22,3.06,1.31,2.84,1.53.44,1.75,1.32,1.1.43,2,.22,1.53,1.31.66,2.18a4.1,4.1,0,0,0-1.1,3.07c0,1.09-.65,2.63,0,3.5s.44,1.75.22,2.85.88,1.09,1.32,2.19.87-1.32,1.75-.66a14,14,0,0,1,2.84,2.19c.66.88,2,.22,2.19-1.31s1.53-1.75,1.75-2.85,1.54-2.19,2.19-1.31,1.75,2.19,2.63,1.75,2.63-.66,3.28-2.63,1.32-3.5,3.07-3.5a4.51,4.51,0,0,0,4.16-2.63c.88-1.75.44-3.94,1.75-3.94s.66-1.53,0-2.19-1.53-1.53-.22-3.06,2.19-.88,2.41-2.41-.44-4.82.44-6.79,1.53-3.5,2-4.82,1.75-1.31,2.19-2.4,2.62-.88,3.72-.88.44-2.19,1.53-3.5.6-3.7,2.41-4.6c.88-.44,2-.9,1.75-2.19a7.41,7.41,0,0,1,0-2.43l-3.14-.1c-11.7-.41-23.49.1-35.21.2l-17.88.13a7.11,7.11,0,0,1-.43,2.2A7.56,7.56,0,0,0,1111.72-61.14Z" transform="translate(-932.24 69.38)"/><path class="cls-1" d="M1155.29-39.9c-.22,1.53-1.1.87-2.41,2.41s-.44,2.4.22,3.06,1.9,1.13,2.39,2.62c.39,1.17-.19,1.56-.19,2.44v7.11h14.32s.77-2,1.65-2.14,2-.2,2-2,.68-4.68.19-5.55a2.06,2.06,0,0,1,.69-2.44,2.6,2.6,0,0,0,1.56-2.24c.09-1.46,1.75-2.63,2.43-3.31s.88-2.53.88-4a13.12,13.12,0,0,0-.68-4.39c-.49-1.26-.3-3.6.58-4.48s3-.78,2.63-2.92.2-2.44,1-3.6-.68-1.27-.39-2.15,2.15-2.43,2.15-5.55v-.09c-4.5-.15-10.17-.3-15-.45a7.41,7.41,0,0,0,0,2.43c.24,1.29-.87,1.75-1.75,2.19-1.81.9-1.31,3.28-2.41,4.6s-.44,3.5-1.53,3.5-3.29-.22-3.72.88-1.75,1.09-2.19,2.4-1.1,2.85-2,4.82S1155.51-41.43,1155.29-39.9Z" transform="translate(-932.24 69.38)"/><path class="cls-1" d="M1158.42,57.12v3.79c0,.63-.88,1.39-.63,1.89s1.64,1.27,1.83,2.21,1,1.27,1.46,2.28h15a3.52,3.52,0,0,0,.56-1.4c0-.56-.54-1.07-.5-1.61.17-2.3.19-4.61.25-6.92a1.1,1.1,0,0,1,.74-1,17.44,17.44,0,0,0,3.63-2.24c.28-.2.47-.08.44.15-.13,1.22-.48,3.69-.11,4.2,1,1.5,2.37-.38,2.28,2.46,0,1.2,4.2-1.07.4-4.48-1.87-1.67,1.07-1.58,1.83-2.56s2.18-4,2.65-4.38c1.78-1.65,2.57,1.34,2.69-2.16a9,9,0,0,1,5-7.32c1.68-.75,3.76.51,4.81-2.19s-.5-2.26-2.27-2.47c-.86-.1-4.76.29-4.73-.53s-.18-4.37.52-4.34c3.4.12.55,2.38,3.1,2.47,1.65.06,3.52.88,3.58-1.06s2.48-2.28,2.53-3.83c0-.45.3-1.57.06-1.78l-.58-.47a9.7,9.7,0,0,0-1.8.15c-1.62.06-3.3-.11-4.93-.17-1.8-.06-4.58.77-4.5-1.33.1-3-.58-8.32,3.85-8.17.61,0,1.14.09,1.59.13,0-.76,0-2.77-1.62-2.87a3,3,0,0,0-3,1.44,6.07,6.07,0,0,1-2.63,2,2.33,2.33,0,0,1-2.83-.42,2.21,2.21,0,0,0-2.74,0c-1,.63-2.42,1.79-3.68,1.79h-15.35v5.89c0,1.16-1,1.29-1,2.43a5.84,5.84,0,0,1-.38,2.52c-.26.38.5,1.39,1.32,1.65s1.27,1,.7,1.7-1.52,1.71-1.58,2.72-.51,2.59.19,3.6,1.14,1.89.19,2.78a2.53,2.53,0,0,0-1.08,2v4.1a1.65,1.65,0,0,1-1.13,1.52,17.33,17.33,0,0,0-3.92,3.16c-.69.88-1.2,2.08-.76,2.59A3,3,0,0,1,1158.42,57.12Z" transform="translate(-932.24 69.38)"/><path class="cls-1" d="M1047.72-3.13c0,.84.74,1.47.74,2.31v14.4c0,1.16-1,2.11-1,3s-.63,1.37-1.26,1.79-.1.84.11,1.47a2.68,2.68,0,0,1-.95,2.31,7.09,7.09,0,0,0-1.26,2.09h26.7c4.31,0,4.84.86,6.94.86h3.47c.73,0,.84-1,1.79-1s1.78,1,2.83,1h4.52V5.91c0-.84-1.05-1.89-2.2-2.94s-5-4.84-5.68-5.47-1.79-.53-1.79-1.58V-13.4h-17.66c-.84,0-1.08.49-1.08,1.54v3.1h-14.27Z" transform="translate(-932.24 69.38)"/><path class="cls-1" d="M1127.49-17.35a3,3,0,0,1,0,3.55c-.43.64-1.61.8-2,1.61a4.93,4.93,0,0,0-.63,2.22c0,.54-.8.72-.8,1.7a2.56,2.56,0,0,1-.89,2.32,4.26,4.26,0,0,0-1.87,1.69c-.36.8-1.61,1.7-1.61,2.77s-.89,1.24-1.16,2.49a11.63,11.63,0,0,0-.18,2.94c0,.9-.62,2-.62,2.95,0,1.33-.62,1.6-.62,3.92h-6c-1.78,0-2.23,1.7-3.21,1.7a4.38,4.38,0,0,1-2.85-.72c-.72-.62-2.23-.73-3.75-.73H1090.4V5.91c0-.84-1.05-1.89-2.2-2.94s-5-4.84-5.68-5.47-1.79-.53-1.79-1.58V-14.23c0-.74.89-.74.89-1.81v-6.35h9.09c1.31,0,1.53-1.31,2.4-.65a3.32,3.32,0,0,0,3.51.21c1.31-.65,1.09-2.84,2.19-3.06a8.89,8.89,0,0,0,4.38-2.41c1.09-1.31,3.28-1.09,3.28-2.19s.66-2.63,2-2.63a3.53,3.53,0,0,0,3.5-1.75,9.46,9.46,0,0,0,1.32-3.72c-.22,1.32,1.31,2.41,1.31,3.5,0,2,2.09-.76,3.72-1.09,1.1-.22,2.63-.22,3.07.66s.22,3.06,1.31,2.84,1.53.44,1.75,1.32,1.1.43,2,.22,1.53,1.31.66,2.18a4.1,4.1,0,0,0-1.1,3.07c0,1.09-.65,2.63,0,3.5s.44,1.75.22,2.85S1127.05-18.45,1127.49-17.35Z" transform="translate(-932.24 69.38)"/><path class="cls-1" d="M1117.07,10.81c0-2.32.62-2.59.62-3.92,0-1,.62-2,.62-2.95a11.63,11.63,0,0,1,.18-2.94c.27-1.25,1.16-1.42,1.16-2.49s1.25-2,1.61-2.77a4.26,4.26,0,0,1,1.87-1.69,2.56,2.56,0,0,0,.89-2.32c0-1,.8-1.16.8-1.7a4.93,4.93,0,0,1,.63-2.22c.44-.81,1.62-1,2-1.61a3,3,0,0,0,0-3.55c.43,1.09.87-1.32,1.75-.66a14,14,0,0,1,2.84,2.19c.66.88,2,.22,2.19-1.31s1.53-1.75,1.75-2.85,1.54-2.19,2.19-1.31,1.75,2.19,2.63,1.75,2.63-.66,3.28-2.63,1.32-3.5,3.07-3.5a4.51,4.51,0,0,0,4.16-2.63c.88-1.75.44-3.94,1.75-3.94s.66-1.53,0-2.19c.66.66,1.9,1.13,2.39,2.62.39,1.17-.19,1.56-.19,2.44v7.11h14.32s0,1.27.39,1.36c.6.15.91.81.68,1.76a5.35,5.35,0,0,1-.78,1.55s-2.78.16-2.55,1.95a2.05,2.05,0,0,1-.42,1.79,3.43,3.43,0,0,0-1.16,2.1,5,5,0,0,0,.74,2.31c.31.63,1.15,1.79.42,2.42s-1.16.52-1.16,1.15.11,2.21.11,2.21h-11.37c-3,0-2.32,2.25-3.75,2.25s-1.6,1.43-2.5,1.43-1.78.54-1.78,1.07V3.5c0,.62-1,.44-1.78,1.16s-1.34,0-2-.63-1.52.36-1.52,1.43-.62,1.87-.45,2.76-.44,1.43-.8,2.59.27,1.61-.09,2.94a4,4,0,0,1-2.14,2.68,3.27,3.27,0,0,0-2.14,1.6c-.35.9-.53,2.14-1,3a2.69,2.69,0,0,1-2.76,1.07c-1-.18-1.52.35-2.41.8s-1.69-.09-2.32-.09-1.42.09-1.87-.54-1.43-.53-3-.09-.63-1.33-.45-2.67-1.69.45-2.32-.36.72-1.6,1.43-2.05-1.61-.62-1.78-1.25.26-1,.89-1.87-1.07-.8-.45-1.43.09-1.78.09-1.78Z" transform="translate(-932.24 69.38)"/><path class="cls-1" d="M1165.25,18.42v5.89c0,1.16-1,1.29-1,2.43a5.84,5.84,0,0,1-.38,2.52c-.26.38.5,1.39,1.32,1.65s1.27,1,.7,1.7-1.52,1.71-1.58,2.72-.51,2.59.19,3.6,1.14,1.89.19,2.78a2.53,2.53,0,0,0-1.08,2v4.1a1.66,1.66,0,0,1-1.13,1.52,17.33,17.33,0,0,0-3.92,3.16h-2.1V43.77h-3.82c-.86,0-.58,1.44-1.44,2.3s-1.14,2.1-2.2,2.39-1.33,1.62-2.1,2.58a4.77,4.77,0,0,1-3.53,1.81,6.82,6.82,0,0,0-3.73,1.06c-.77.57-.86-1.15-1.53-1.34s-.58-1.25-.58-1.82,0-1.62-1.14-1.62-1.53-.86-2.49-1.25-.38-2.48-1.43-2.48a4,4,0,0,1-2.58-1.53c-.67-.67-1.63-1.43-1.63-2.49V36.8c0-1-1.33-2.11-1.81-2.78s-.77-1.05,0-1.72,1.81-.28,2.29-.76,1.91-.48,1.91-.48V27c0-.86-1.33-.76-1.91-1.15s-.57-.76-.29-1.52a2.49,2.49,0,0,1,1-1.34c.89-.45,1.43-1,2.41-.8a2.69,2.69,0,0,0,2.76-1.07c.45-.9.63-2.14,1-3a3.27,3.27,0,0,1,2.14-1.6,4,4,0,0,0,2.14-2.68c.36-1.33-.27-1.78.09-2.94s1-1.69.8-2.59.45-1.69.45-2.76.89-2,1.52-1.43,1.16,1.34,2,.63,1.78-.54,1.78-1.16V1.09c0-.53.89-1.07,1.78-1.07s1.07-1.43,2.5-1.43.8-2.25,3.75-2.25h12.42v2c0,.53.63,1.37,1.15,1.37s1.47,1.26,1,1.89-.84,1.37-1.89.84-1.37-.21-1.58.32.32,1.26,1.16,1.15,1,1,.73,1.79-1.26.31-2,.84-.52,1.37-1.57,1.58-2.32,1.05-1.58,1.89,1.26,2.84.21,2.84-1.79-.11-2.1.42.31,1.36,1.15,1.26a1.26,1.26,0,0,1,1.48,1.16,1.92,1.92,0,0,1-1,1.68c-.74.42-1.37,1.05-.53,1.05Z" transform="translate(-932.24 69.38)"/><path class="cls-1" d="M1117.07,10.81h-6c-1.78,0-2.23,1.7-3.21,1.7a4.38,4.38,0,0,1-2.85-.72c-.72-.62-2.23-.73-3.75-.73H1090.4V48.23h37.42V44.39l2.12-.52c-.67-.67-1.63-1.43-1.63-2.49V36.8c0-1-1.33-2.11-1.81-2.78s-.77-1.05,0-1.72,1.81-.28,2.29-.76,1.91-.48,1.91-.48V27c0-.86-1.33-.76-1.91-1.15s-.57-.76-.29-1.52a2.49,2.49,0,0,1,1-1.34c-.89.44-1.69-.09-2.32-.09s-1.42.09-1.87-.54-1.43-.53-3-.09-.63-1.33-.45-2.67-1.69.45-2.32-.36.72-1.6,1.43-2.05-1.61-.62-1.78-1.25.26-1,.89-1.87-1.07-.8-.45-1.43.09-1.78.09-1.78Z" transform="translate(-932.24 69.38)"/><path class="cls-1" d="M1151.87,147.58c-.69.11-.53-.49-.25-1.61a3.71,3.71,0,0,0-1.12-3.08c-1-1.22-1.54.7-3.36.84-.84.06-2.53-1.26-1.82-2.24-1.11,1.11-1.63,3.21-2.33,4.17.53.53,1.13,1.94,2.28,1.32s1.69-.89,2.4-.71,2.22.62,2.49,1.6.89,1.68.36,2.57-.54,2.76.26,3.47,1.34,1.24.89,2.22-1.42,1.6-1.42,2.67v3.55c0,1.07.62,2.49,1.42,2.49h3.2c.89,0,1.16-1,2.49-1s1.2,1.83,2.13.89.62-1.77.27-2.84-1.16-3.11-2.22-3.11h-2.85c-.89,0-1.33-2.14,0-2.14s2.14-.44,3.91-.44a3.72,3.72,0,0,1,3.12,1.42c.53.62,1.68,1.6,1.77,2.76s.89,2.31.09,3.46a6.74,6.74,0,0,0-1.15,3.91,4.13,4.13,0,0,1-1.78,3.38c-1,.62-3.38-.09-4,.89a2.15,2.15,0,0,0,0,2.76,3.68,3.68,0,0,0,2.58,1.33h3.46c.89,0,1.69-1,2.85-1s1.68.89,2.75.89a10.19,10.19,0,0,0,3.47-.71,8.3,8.3,0,0,0,2.66-1.42,1.35,1.35,0,0,1,2.32.62c.53,1.33,1.68,2.13,1.68,3.29a11.92,11.92,0,0,0,.8,3.82c.45,1.16.18,2,1.07,2.67s2.1.1,2.52,1.37l.63-2.63c-.62-.89-1.9-2.48-1.37-3.37s1.6-1,2-2.57.8-2.94,2-3.47a7,7,0,0,0,2.84-3.56c.36-1.15.27-3.55.89-5.06s.53-4.27,1.33-5.78a42.36,42.36,0,0,1,2-3.73c.62-.89.09-1.42-.18-2.31a2.36,2.36,0,0,1,.71-2.58,2.81,2.81,0,0,0,.8-2.4v-1.6C1180.3,147,1166.06,147.24,1151.87,147.58Z" transform="translate(-932.24 69.38)"/><path class="cls-1" d="M1219,145.89c-8.14.3-16.3.52-24.47.73v1.6a2.81,2.81,0,0,1-.8,2.4,2.36,2.36,0,0,0-.71,2.58c.27.89.8,1.42.18,2.31a42.36,42.36,0,0,0-2,3.73c-.8,1.51-.71,4.27-1.33,5.78s-.53,3.91-.89,5.06a7,7,0,0,1-2.84,3.56c-1.16.53-1.51,1.87-2,3.47s-1.51,1.69-2,2.57.75,2.48,1.37,3.37a4.71,4.71,0,0,0,2.42-1c.63-.73.42-2.84,1.89-2.84h8.62c1.16,0,1.89-1.15,3.47-1.15h16.82c1.26,0,2.21-.74,3.79-.74s1.68.74,2.94.74h1.68a2.57,2.57,0,0,1,0-1.9c.42-.94-.94-.73-.84-1.68s1.47-1.47,1-2.63a4.94,4.94,0,0,1,0-3.25,4.69,4.69,0,0,0-.42-3.26c-.52-1.37.63-1.69-.21-2.63s-.63-1.47-.21-2.63,0-1.47-.52-2.63-1-2.73-.43-3.78,2-2.42,1.9-4.1a10.42,10.42,0,0,1,.77-4Z" transform="translate(-932.24 69.38)"/><path class="cls-1" d="M1250.48,202.23v-17h-31.23c-.22,1-1,1.32-1.87,1.76s0,1.76-1.09,2.42-2.2.44-2.75,1.21-2.09,1.76-1.21,2.53,1.54,3.4.55,4.5.33,1.76.33,3v3.85c0,1-1.76,1.65-.77,2.64a4,4,0,0,1,1.21,3.84c-.44,1.21.88,1,2,2.53s3.73,1.87,4.17,2.75.66.77,1.21,1,2.2.11,2.86,1.1,2.86,1.32,3.19,3.41.66,2.86,1.65,3.08a2.52,2.52,0,0,1,2.2,2.09,3.67,3.67,0,0,0,2.85,2.41c1,.22.33,2.09,1.32,2.42s1.76.77,1.54,1.87a1.73,1.73,0,0,0,1.87,1.87c.88-.11,1.54-.77,1.87-2.09a5.59,5.59,0,0,1,2-3.08c1.54-1.21,1.69-.07,2.86.66.88.55,1.87-.77,2.75.22s.44,2.2,1.76,2.2h3c.66,0,1.76-1.43,2.31-2.64s.92-.69,2-1.68.76-1.51,2.19-1.62,2.14-2.44,2.69-3.43c0,0,4.68-5.53,3.58-6.95s-3.32-3.45-3.43-5-4,3.94-5,3.72-1.21-.55-1-1.65-.55-1.1-.88-2.53-1.21-1.53-2.53-2.52-.88-1.32-1-3.08S1250.48,204.21,1250.48,202.23Z" transform="translate(-932.24 69.38)"/><path class="cls-1" d="M1226.16,145.65a10.42,10.42,0,0,0-.77,4c.1,1.68-1.37,3-1.9,4.1s-.1,2.63.43,3.78.94,1.47.52,2.63-.63,1.68.21,2.63-.31,1.26.21,2.63a4.69,4.69,0,0,1,.42,3.26,4.94,4.94,0,0,0,0,3.25c.42,1.16-.94,1.69-1,2.63s1.26.74.84,1.68a2.57,2.57,0,0,0,0,1.9s-.16,2.46-1.42,2.46-1.8.31-2.42,1.76c-.33.77-1.76,1.87-2,2.86h31.23v-40h-.07C1242.46,145.2,1234.26,145.39,1226.16,145.65Z" transform="translate(-932.24 69.38)"/><path class="cls-1" d="M1166.78,200.85h-3.1c-1.36,0-2.14,1.56-3,1.56h-2.84c-1.43,0-.78-1.63-2.14-1.63h-12v-2.71c0-.7-1.74-1.31-2.09-2.62s-.88-2.09-.35-3.14,1-1.84.7-2.8a3.44,3.44,0,0,1,.61-2.44c.35-.79,0-1.75,0-2.45s1.13-1.14,1.13-2.27v-3.49c0-1-1-.53-1.22-1.84s-1.31-1.31-1.31-2.27-.44-1.75-.44-2.62.09-2.88-.78-2.88-2,.34-2.62-.53a2.25,2.25,0,0,1,.08-2.53c.44-.87-1-1.22-1.48-2s.09-1.57,1-1.92.61-1,.61-1.75v-5.06c0-.88-1.05-1-1.05-1.93v-2.88c0-.61.79-1.14,1.84-1.14s1.92-1.13,2.44-2.27,1.4-.61,2.1-1.57h0c.53.53,1.13,1.94,2.28,1.32s1.69-.89,2.4-.71,2.22.62,2.49,1.6.89,1.68.36,2.57-.54,2.76.26,3.47,1.34,1.24.89,2.22-1.42,1.6-1.42,2.67v3.55c0,1.07.62,2.49,1.42,2.49h3.2c.89,0,1.16-1,2.49-1s1.2,1.83,2.13.89.63-1.77.27-2.84-1.16-3.11-2.22-3.11h-2.85c-.89,0-1.33-2.13,0-2.13s2.14-.45,3.91-.45a3.68,3.68,0,0,1,3.11,1.42c.54.63,1.69,1.6,1.78,2.76s.89,2.31.09,3.46a6.74,6.74,0,0,0-1.15,3.91,4.13,4.13,0,0,1-1.78,3.38c-1,.62-3.38-.09-4,.89a2.15,2.15,0,0,0,0,2.76,3.68,3.68,0,0,0,2.58,1.33h3.46c.89,0,1.69-1,2.85-1s1.68.89,2.75.89a10.19,10.19,0,0,0,3.47-.71,8.3,8.3,0,0,0,2.66-1.42,1.34,1.34,0,0,1,2.31.62c.54,1.33,1.69,2.13,1.69,3.29a11.92,11.92,0,0,0,.8,3.82c.45,1.16.18,2,1.07,2.67s2.1.1,2.52,1.37a4.26,4.26,0,0,1-1.17,1.26c-.73.49-.49,1.22-.73,1.95s-1.47.13-2.2,1.47-1.47,1.46-1.47,2.81-2.07-.25-2.56.61a7.43,7.43,0,0,0-1.47,2.93,17.65,17.65,0,0,0,0,2.68h-5.49C1166.86,199.39,1166.82,199.87,1166.78,200.85Z" transform="translate(-932.24 69.38)"/><path class="cls-1" d="M1196.41,219.54h-14.77v-2.32h-1.22c-1.22,0-1.59-1.83-2.08-2.81a2.56,2.56,0,0,0-2.68-1.59c-1.59,0-1.35-1.95-1.35-2.8s0-1-1.34-1.71-1-1-2.08-2.69a4.65,4.65,0,0,0-2.81-2.2,2.47,2.47,0,0,1-1.3-2.57c0-1,.08-1.46.94-1.46h5.49a17.65,17.65,0,0,1,0-2.68,7.43,7.43,0,0,1,1.47-2.93c.49-.86,2.56.73,2.56-.61s.74-1.47,1.47-2.81,2-.73,2.2-1.47,0-1.46.73-1.95a4.26,4.26,0,0,0,1.17-1.26s1.69.6,1.51,1.63-.58,1.09-1.1,1.78-1.56.78-1.56,2.08.69,2.33,1.56,2.33h3.19a1.93,1.93,0,0,1,2.07,1.38c.18.86.61,1.64-.43,2.33a12.58,12.58,0,0,0-2.5,1.64c-.61.69-.18,1.55,1.9,1.55a9,9,0,0,0,4-1c.69-.26,1.38.86,1.38,2.59v5.61c0,1.72-.78,2.93-1.3,4.32s-1.89,1.46-2.33,2.58-1.21,2.42.44,3,2.07.34,3.45-.09,2.59-1,3.37-.17,1.46,1.29,1,1.55S1196.41,219.54,1196.41,219.54Z" transform="translate(-932.24 69.38)"/><path class="cls-1" d="M1219.8,216.19c-.44-.88-3.08-1.21-4.17-2.75s-2.42-1.32-2-2.53a4,4,0,0,0-1.21-3.84c-1-1,.77-1.65.77-2.64v-3.85c0-1.21-1.32-1.87-.33-3s.33-3.73-.55-4.5.66-1.76,1.21-2.53,1.65-.55,2.75-1.21.21-2,1.09-2.42,1.65-.77,1.87-1.76,1.65-2.09,2-2.86c.62-1.45,1.16-1.76,2.42-1.76s1.42-2.46,1.42-2.46h-1.68c-1.26,0-1.37-.74-2.94-.74s-2.53.74-3.79.74h-16.82c-1.58,0-2.31,1.15-3.47,1.15h-8.62c-1.47,0-1.26,2.11-1.89,2.84a4.71,4.71,0,0,1-2.42,1l-.63,2.63s1.69.6,1.51,1.63-.58,1.09-1.1,1.78-1.56.78-1.56,2.08.69,2.33,1.56,2.33h3.19a1.93,1.93,0,0,1,2.07,1.38c.18.86.61,1.64-.43,2.33a12.58,12.58,0,0,0-2.5,1.64c-.61.69-.18,1.55,1.9,1.55a9,9,0,0,0,4-1c.69-.26,1.38.86,1.38,2.59v5.61c0,1.72-.78,2.93-1.3,4.32s-1.89,1.46-2.33,2.58-1.21,2.42.44,3,2.07.34,3.45-.09,2.59-1,3.37-.17,1.46,1.29,1,1.55-1,.75-1,.75c1.59,0,1,1,2.81,1h9.52c.81-1.64,1.84-2.68,3.14-2.94s1.9-.08,3.71.43a3.19,3.19,0,0,0,3.28-.86C1219.22,216.81,1219.8,216.19,1219.8,216.19Z" transform="translate(-932.24 69.38)"/><path class="cls-1" d="M1208.74,220.52c.14,4-.88,3.78-2.07,8s-2.09,3.58-2.39,6.11-1.34,3.14-1.34,3.14a35.42,35.42,0,0,1,0,4c-.15.74-1.79,1.19-1.79,1.19v4.63a11.91,11.91,0,0,1-2.09.74c-1.19.3-3.73,2.24-4.78,2.24h-4.17c-1,0-2.09.3-2.84-.75s-1.19-2.39-2.68-2.39h-7.31c0-1.49-1.35-4-2.84-4.47s-3.43,0-5.07.3-2.09-.15-1.79-1.35a4.08,4.08,0,0,0,0-3c-.45-1.34.74-3.13-.15-4.78a5.76,5.76,0,0,1-.9-3.58c0-1.34-.89-1.49-2.68-1.49s-2.84-1-4.48-1-2.24-2.09-2.68-3.43S1155,222.21,1154,221s-.75-3.29-.75-4-1.34-1.35-1.34-2.09,1.19-.75,1.19-1.64v-3.73c0-1.35-1.19-2.84-2.08-3.73s-1.35-2.09-2.39-2.39a4.85,4.85,0,0,1-2.53-2.63h9.62c1.36,0,.71,1.63,2.14,1.63h2.84c.84,0,1.62-1.56,3-1.56h3.1a2.47,2.47,0,0,0,1.3,2.57,4.65,4.65,0,0,1,2.81,2.2c1.1,1.71.74,1.95,2.08,2.69s1.34.85,1.34,1.7-.24,2.81,1.34,2.81a2.56,2.56,0,0,1,2.69,1.59c.49,1,.86,2.81,2.08,2.81h1.22v2.32h14.77c1.59,0,1,1,2.81,1Z" transform="translate(-932.24 69.38)"/><path class="cls-1" d="M1201.15,247.58V243s1.64-.45,1.79-1.19a35.42,35.42,0,0,0,0-4s1-.6,1.34-3.14,1.19-1.93,2.39-6.11,2.21-4,2.07-8c.81-1.64,1.84-2.68,3.14-2.94s1.9-.08,3.71.43a3.19,3.19,0,0,0,3.28-.86c.35-.34.93-1,.93-1,.44.88.66.77,1.21,1s2.2.11,2.86,1.1,2.86,1.32,3.19,3.41.66,2.86,1.65,3.08a2.52,2.52,0,0,1,2.2,2.09,3.67,3.67,0,0,0,2.85,2.41c1,.22.33,2.09,1.32,2.42s1.76.77,1.54,1.87a1.73,1.73,0,0,0,1.87,1.87c.88-.11,1.54-.77,1.87-2.09a5.59,5.59,0,0,1,2-3.08c1.54-1.21,1.69-.07,2.86.66,0,0-.56,1.44-1,2.42s-.36,1.83-.73,3a8.29,8.29,0,0,0-3,.74,32.06,32.06,0,0,1-6.86,1.49c-1.35,0-2.54,1.64-4.18,1.49s-4.63.75-6,.75-2.83,1.49-4,1.49-1.94,1.64-2.83,2.54-2.39.77-2.39,2.23a10,10,0,0,0-2.66-.79c-1.33-.15-1.66-.9-4.06-.42-1.4.28-.84.42-2.38.14s-1.4-.42-2.25.42A4.49,4.49,0,0,1,1201.15,247.58Z" transform="translate(-932.24 69.38)"/><path class="cls-1" d="M1265.63,217.79a27.33,27.33,0,0,1,14.59-7.57s-.5-18.54-.5-19.75-.88-1.21-.88-2.09,1-1,1-2.09-.77-1.54-.77-2.75v-4.62c0-2.08-.77-3.29-.77-4.28s.22-1.87-.77-2.64-.88-2.09-1.54-2.75-.55-1.76-.55-2.86a2.51,2.51,0,0,0-1.1-2.31,2.84,2.84,0,0,1-1-2.31,7,7,0,0,0-1.43-3.51A9.07,9.07,0,0,1,1270,153v-8c-6.52.12-13.06.18-19.56.18v57c0,2,1.09,2,1.2,3.74s-.33,2.09,1,3.08,2.2,1.1,2.53,2.52,1.1,1.43.88,2.53,0,1.43,1,1.65,4.85-5.26,5-3.72S1265.63,217.79,1265.63,217.79Z" transform="translate(-932.24 69.38)"/><path class="cls-1" d="M1318,184.15c-.92-.29.59-1.77.22-2.24s-.39.39-1.09-.21-.32-1.76-1.15-2.29.34-1.11.81-2.87c.25-.92-1-1.21-.85-2.17.23-2.09,1-1.31,1-3.25,0-1.18.08-2.37.13-3.56a3.6,3.6,0,0,1,.06-1.85c.47-1.22,2.78-.37,3.45-2.78.22-.75-1.13-1.82-1-3a1.74,1.74,0,0,1,2.11-1.73c.13,0,.3-.14,0-.39l-1.32-1.41c-.17-.19-.08-.48.11-.45,2.89.36,1.34-2.75,2-4.14.5-.93-.07-1.15,0-1.79.1-2.62,1.37.19,2.42-1.1.69-.84,1-3.78,1.11-5.43,0-.27,0-.71-.29-.37-.56.55-1,1.13-1.62,1.68-.21.25-.57.32-.47-.21s0-.86,0-1.29-.34-.54-.52-.52c-13.24,1.56-29.36,1.67-43.44,2.07-3.19.09-6.38.15-9.58.21v8a9.07,9.07,0,0,0,1.87,5.28,7,7,0,0,1,1.43,3.51,2.84,2.84,0,0,0,1,2.31,2.51,2.51,0,0,1,1.1,2.31c0,1.1-.11,2.2.55,2.86s.55,2,1.54,2.75.77,1.65.77,2.64.77,2.2.77,4.28a11.61,11.61,0,0,0,5.49.77c2.31-.22,2.53,1.21,4.84.88,2.72-.39,2.42,1.65,4.62,1.65,2.64,0,4.6-.34,5.61.33,1.64,1.1,1.75,1.6,3.84,1.6C1305.11,184.15,1313.69,184.2,1318,184.15Z" transform="translate(-932.24 69.38)"/><path class="cls-1" d="M1322.83,227.05c2.24-.14,2.16,1.87,3.42,3.69s-3.2,6.34-1.1,5.08,2.25,1.26,3.65,1.12,1.54-2.52,3.5-1.26a7,7,0,0,0,3.25,1.25h.06c1,0,0-1.93.63-2.5,1.22-1.13,1.8-2.13,3.46-2.07.72,0,3,.48,3.56.13,1.36-1-1.07-2.4.69-2a2.15,2.15,0,0,0,1.85-.81c.61-1.06-1.41-2.6-2.12-.47a1.88,1.88,0,0,1-2.72.82,3.19,3.19,0,0,1-.78-1.11,13.12,13.12,0,0,1-1.4-4.09c.13-3.57-2.36-.49-2.24-4.08.06-1.62-1.42-1.9-.72-2.87s1.46-6.12,1.07-6.95-1.23,3.63-2.43,2.29-1.67-3.73-2.2-4.83.06-1.88.12-3.55-.38-1.2-2-1.25c-.81,0-.2-1.73-.28-2.39s.52-2.36-.29-2.39c-1.58-.05-2,.38-1.95-1.26,0-1.3-1.66-1.36-2.5-1.43s-1.25-1.37-2.12-2.26.58-1.59.09-2.38-1.57-.39-2.53-.23-.35-1-1.3-1.45.64-.82-.61-1.81,0-3.56-.89-3.84c-4.35,0-12.93,0-14.58,0-2.09,0-2.2-.5-3.84-1.6-1-.67-3-.33-5.61-.33-2.2,0-1.9-2-4.62-1.65-2.31.33-2.53-1.1-4.84-.88a11.61,11.61,0,0,1-5.49-.77v4.62c0,1.21.77,1.65.77,2.75s-1,1.21-1,2.09.88.88.88,2.09.5,19.75.5,19.75c1.94,0,9.85.91,11.67,1.75a21.76,21.76,0,0,0,4.93,1.86c1.55.28,3.36,2.54,6,3s-.07,6,3.16,5.4,6.82,2.57,9.2,1.44S1320.59,227.19,1322.83,227.05Z" transform="translate(-932.24 69.38)"/><path class="cls-1" d="M1318.9,246c.84-.79,2.31.14,3.42-.89,1.73-1.61,1.46-1.61,3.07.1,3.14,3.34,3.25-1.08,3.33-3.43,0-.73,2.77-.28,3.56-.25,1.9.07,1-.7,1.27-2.3.43-2.23-.52-2.41,2-2.32a7,7,0,0,1-3.25-1.25c-2-1.26-2.1,1.12-3.5,1.26s-1.55-2.38-3.65-1.12-4.48,3.23-5.74,1.4-.85-3.78-3.09-3.64,1.7-2.58-.68-1.46-6.58,5.94-8.47,9.57c-1.5,2.9-3.58,1.12-5.55,2.74a6.64,6.64,0,0,1-5.76,1.33l-4.71,0c0,2,.5,1.59.36,4.67,0,0-1,4.87-1,6.08,0,2.43-1.08,3.47-1.08,4.77s.67,2.13,1.45,2.13h2.75a3.26,3.26,0,0,0,2.28-.89c.93-.72,2-1.34,2.7-.88s2.28,2.65,3.32,3.58c.52-.46.52-1,2.07-1.14s2.13.42,3.43.83,1.55,1.71,2.69,3.42a3.36,3.36,0,0,0,.88-1c.37-.62-.15-1.92-.67-3.79s-2.59-1.81-4.15-1.66-2.33-.78-3.79-1.76-.62-2-.15-3,2.07-3.06,3.47-2,2.91.26,4.93-1,2.08,1.14,3,1.35,1.71-1.45,2.77-2.57C1315.45,250.08,1317.09,247.72,1318.9,246Z" transform="translate(-932.24 69.38)"/><path class="cls-1" d="M1330.51,281.16c.71,3.29,3.79,3.13,3.79,1.72,0-1.86,4.57-1,7.24-1.06-.41-4.51-4.76.34-4.6-4.18.06-1.61-.54-2.75,1.28-2.69,1.13,0,1.39.49,1.29,1.38-.35.95.21.66.46.46,1.72-1.38,4.52-3.24,4.17-.29-.29.68-.1,1.24.62.41.92-1.05,1.44-2,2.55-.81,1.58,1.68,1.66,1.38,3.85,1.67s2.28,0,3.85,1.67a2.82,2.82,0,0,0,2.51,1c.62,0,.35-.75.19-1.09l-1.32-2.87c-.37-.87,0-1.19,1.29-1.24a3.52,3.52,0,0,0,3.11-1.86c1.31-2.28-.79-2.4,2.83-2.28,2.76.1,2.07,1.48,4.28,2.53a9.73,9.73,0,0,0,3.53.2c.87,0,.73-.54.51-.76a4.77,4.77,0,0,1-1.53-2.35c-.08-1.08-.63-1.15-1-.85-1.74,1.45-3.85,2.64-3.73-.69,0-1.5-1.48-2.4-3-2.75-1.69-.37-.89-1.06-.39-1.56a2.39,2.39,0,0,1,1.52-.89c1.09,0,3.36.51,4.36.15,1.69-.6,1.64-2.3,3.64-2.23,1.44,0,2.13-.74,3.05-1.68.55-.49.55-1-.28-1-2.36-.09-4.6.24-7,.15-1.5.05-1-.74-.55-1.23,1.28-1.43,3-3.4,4.16-3.37,2.93.11,4.34,1.07,4.45-2.22,0-1.6.63-2.32-1.09-2.38s-1.16-.49-1.11-2.06c.08-2.34-4.33,1.39-4.63,1.68-1.39,1.31-1.94,4.86-2.6,6.65-.28.74-2.67.62-4,.4-.54-.08-1.24,0-.88-1.2.31-1.08.68-2.34.11-3.38-.27-.5-1.91-.07-2.35-.29-1.27-.64-2.75-2.68-3.88-4.1-.57-.58-.31-1,.42-.75,1.77.61,2.33-2.29,4.08-2.23,1.58.06,2,.52,2-1.12,0-1.05.31-1.19-.69-1.22-2.11-.07-4.25-.06-6.35-.22-1.83-.15-2.47-.35-3.34-1.15-.37-.34-1.44-.69-1.48,1.44,0,1.73-.81,2.68-2.79,4.53-1.21,1.14-1.65,2-3.3,1.94-1.82-.06-1.1.69-1.27,2.3-.27,2.45-.18,5-.26,7.47-.13,3.62-.75.34-2.45,1.92-1.24,1.16,1.26,2.41-1.26,2.32-2.21-.08-6.28.59-8.27-.29-1.82-.8-3.54-5.44-2.12-7.18s2.3,1.81,2.43-1.9c0-.69-2.13-.66-2.61-.22-2,1.86-3.68,1.94-5.58,3.13a2.69,2.69,0,0,1-2.22-.17c-1.58-.66-2.73-.64-3.8-3.61-1.06,1.12-1.84,2.78-2.77,2.57s-1-2.59-3-1.35-3.53,2-4.93,1-3,1-3.47,2-1.3,2,.15,3,2.23,1.92,3.79,1.76,3.63-.21,4.15,1.66,1,3.17.67,3.79a3.36,3.36,0,0,1-.88,1,23.24,23.24,0,0,0,2,4c1.51,1.85.51,2.5,2.29,3.28,1.43.63,3.15-.78,4.79-.57s2.28,2.38,2,3.15c-.35,1,0,1.29,1.08,1.64a5.24,5.24,0,0,0,3.43-.36,2,2,0,0,1,2.93.22C1329.48,280.47,1330,278.77,1330.51,281.16Z" transform="translate(-932.24 69.38)"/><path class="cls-1" d="M1398.69,331.59c-1.74-.06-2.34-.14-2.08-1.72.23-.67-.08-.67-1.3.06-1.78,1.05-4.47,2.3-5.71,1.34s1.52-2.31-1.11-2.4c-2.26-.08-.35-.91-1.1-2.41-.47-1-1.8-1.5-2.28-2.46-.76-1.51,1.16-2.32-1.11-2.4s-.36-.91-1.1-2.43c-.28-.59-2.09-2.62-2.54-2.21-1.23,1.14-2.18,1.57-2.24,3.23,0,1.36-.92,1.76-2.41,1.12-2.66-1.14-1.39-4.81-3.38-4.87s-5.95.68-5.88-1.38c.08-2.25-.88-.41-2.32-1.26a7.74,7.74,0,0,1-1.78-1.86c-.21-.38-.78-.53-.62.14.43,1.86-1.11,1.6-3.09,1.53-2.42-.08-4.09.58-4-1.63.25-.78-.11-.78-.56-.58l-3.1,1.42c-1.12.66-1-.15-.93-.43.06-1.61-.8-2.27-2.09-3.65-.38-.41.85-1.42,1.66-2.08.5-.28.65-.59-.7-.51a8.12,8.12,0,0,1-3.63-.5c-.35-.34,0-2,.21-3.31.06-.47.36-1.41-.71-.61s-3.21,1.95-4,1.78-2.55-2.94-3.1-3.33-1.89-1-3.12-1.8a1.23,1.23,0,0,1-.51-1.66c.29-.85.86-1.23,1.74-2,.21-.19.73-.89-.62-.72s-1.15-.86-1.09-2.56c.07-2.31-.26-2.4,2.09-2.32.73,0,.46-2.74.49-3.53.07-1.83,1.15-1.15,2.78-1.09,1.16,0,6.8.81,8.23.52.88,1.38-.66,2.12,2.79,2.24.71,0,1.46.95,2.07,1.72.43.76.79.39.81-.38,0-1.32-.44-1.61-2-1.66-1.12,0-2-2.86-3.63-2.47-1.13-.31-1.55.22-3-1.32-.69-.75-3.1-.62-3.16-1.32-2.67.06-7.24-.8-7.24,1.06,0,1.41-3.08,1.57-3.79-1.72-.52-2.39-1-.69-1.79-1.5a2,2,0,0,0-2.93-.22,5.24,5.24,0,0,1-3.43.36c-1.13-.35-1.43-.64-1.08-1.64.28-.77-.35-2.93-2-3.15s-3.36,1.2-4.79.57c-1.78-.78-.78-1.43-2.29-3.28a23.24,23.24,0,0,1-2-4c-1.14-1.71-1.4-3-2.69-3.42s-1.87-1-3.43-.83-1.55.68-2.07,1.14a8.35,8.35,0,0,0-1.92,3.59c-.22,1.34-1.34,1.91-2.35,2.58s-2.69,1.68-2.25,2.8a6.31,6.31,0,0,1,.45,4.15c-.45,1.57.23,4.26,1.46,4.93s.9,2.25,1.23,2.92,1.8,1.57,2,2.35,1.68,2,1.68,3.37,1.24,1.45,1.24,2.69v4.93c0,1-.56,1.35-.56,2.24s.78.67.78,1.57a17.64,17.64,0,0,0,.67,4.37,4.85,4.85,0,0,1,2.68-.61l5.48.19c2.75.1,2.16-1.44,4.44-2.22,3.07-1.06,2.32,1.72,2.25,3.64-.08,2.4-.33,3.33,1.36,5.12,1.34,1.44.71,3.49.64,5.4,0,.56,0,1.05,0,1.44-.21,1.2-.27,1.9.72,1.51,2.36-.95,5.44-.17,8-.08,1.81.06,3.63,1.6,5.19,2.46,1.17.63,2.7.26,4,1,3.74,2,6.78,4.23,11.08,4.38,2.06.07,2.54,2.46,4.14,2.52s3.58.57,4.28,2.51c.28.8-.74,4.72.2,4.75,2.93.1,2,1.32,1.87,4.06,0,1,2.45.94,3.49,2.05a11.7,11.7,0,0,0,3.49,1.68c.26.87-.39,2.81-.93,4.76-.32,1.09-1.77,2.6-2.59,3.48s-3.52,2.26-3.57,3.71c0,1.67.06,2.15.71,2.92,1,.94,1.86-.19,2.26-.91a26.67,26.67,0,0,0,1.35-2.57c.43-1,0-2,.64-2.63,2.28-2.13,3.91-8.27,6.87-9,1.12-.26,3.57.12,4.74.16,2.33.08,2.38-.28,2.3,2.09-.09,2.77,3.43,3,5.75,3,.57.1,1.56-.26.2-1.13-.41-.44-1.08-1.46-.24-2.28,1.79-1.73,3.35-3.63,5.9-3.54,5.43.19.54-2.42,3.09-4.8,1.68-1.58,2.25-1.83,2.33-4.12,0-1.17,2.36.78,2.44-1.46C1399,334.36,1399.42,331.61,1398.69,331.59Z" transform="translate(-932.24 69.38)"/><path class="cls-1" d="M1297.51,310.38c.61.61,1.52,2.92,2.62,3.17.09-2.59-.78-4.39,2.16-4.29.91,0,1.5-1,2.13-1.58a17.64,17.64,0,0,1-.67-4.37c0-.9-.78-.67-.78-1.57s.56-1.23.56-2.24v-4.93c0-1.24-1.24-1.35-1.24-2.69s-1.45-2.58-1.68-3.37-1.68-1.68-2-2.35,0-2.25-1.23-2.92-1.91-3.36-1.46-4.93a6.31,6.31,0,0,0-.45-4.15c-.44-1.12,1.24-2.13,2.25-2.8s2.13-1.24,2.35-2.58a8.35,8.35,0,0,1,1.92-3.59c-1-.93-2.65-3.11-3.32-3.58s-1.77.16-2.7.88a3.26,3.26,0,0,1-2.28.89h-2.75c-.78,0-1.45-.83-1.45-2.13s1.08-2.34,1.08-4.77c0-1.21,1-6.08,1-6.08.14-3.08.23-1,.23-3.05,0-2.94-.59-1.62-.59-1.62a26.47,26.47,0,0,1-5.67-1.91c-1.83-.84-2.09-1.37-4-1.37l-4.53-.76s-.17,17.41-.17,19,1,1.22,1,2.44,1.1,1.59,1.59,2.44.73,2.08,1.34,3.05,2.32,1.47,3.18,2.45,2.8,1.22,2.8,1.95v2.69c0,.73-1.46,1.71-1.83,2.8s-1.83,2.57-1.83,3.67-1,2.32-1,4.15h2.81c.86,0,1.1,1.1,2.2,1.1s1.1,2.2,1.1,3.17-1.1,1.1-1.1,2.2,1.1,1.71,1.1,2.93v2.69c0,.73-1.34.36-2.08,1.46s-.36,1.47.25,2.44,1,3.06,1.83,3.79,1.59,1.34,1.59,2.44,1,1.22,2,1.47a15,15,0,0,0,2.93.49C1295.31,310.51,1296.9,309.77,1297.51,310.38Z" transform="translate(-932.24 69.38)"/><path class="cls-1" d="M1268.45,280.35a21.52,21.52,0,0,1,1,4.52c0,1.09.24,1.46,1.83,1.46H1282c0-1.83,1-3.05,1-4.15s1.47-2.57,1.83-3.67c.43-1.27,2.32-2.37,1.72-3.13v-2c.66-1-1.72-1.17-2.69-2.28s-2.57-1.47-3.18-2.45-.85-2.19-1.34-3.05-1.59-1.22-1.59-2.44-1-.85-1-2.44.17-19,.17-19l-6.07-.73s-3.83-.49-4-.26a23.64,23.64,0,0,0-2.71,6.44c-.37,1.34-1.71,3.17-2.93,3.17h-3.06c-1,0-1.58,1.1-2.56,1.1s-1.59.73-2.32,1.1-1.71,1.46-1.22,2.56a4.71,4.71,0,0,1,.73,2.44v7.7s2.08.85,1.83,2,1,1.83,2.08,1.22,2.44,1.59,2.2,3.18,1,3.17,2,4a5.91,5.91,0,0,0,3.66,1.83A4.18,4.18,0,0,1,1268.45,280.35Z" transform="translate(-932.24 69.38)"/><path class="cls-1" d="M1252.82,265.21h-3.66c-1,0-1.47,1.1-2.2,1.1s-1.22-1.59-2.2-1.35-1.71,1-2.32-.24-1.59-1.59-1.1-2.81a2.68,2.68,0,0,0-.48-2.93,2,2,0,0,1,.12-2.44c.49-.61.12-1.47-.25-2.32a10.94,10.94,0,0,1-1.1-2.93c-.12-1.1.86-1.47,1.59-2.81s-.12-2.93.25-4.27,1.71-2.81,1.58-4.28a8.33,8.33,0,0,1,.37-3.54c.37-1.22.24-2.07.73-3s1-2.42,1-2.42c.88.55,1.87-.77,2.75.22s.44,2.2,1.76,2.2h3c.66,0,1.76-1.43,2.31-2.64.23-.49,2-2.94,4-5.73,1.08-1.47,1.26-3.56,2.34-5,1.87-2.46,6.59-6.1,7-6.47,1.1-1,5-1.31,6.19-1.66.3-.09-2.81,2.08-4.17,3.87-1.13,1.48-1.27,1-2.49,2.9-.75,1.17-1.3,4.25-1.78,5.34s-2.26,2.62-2.55,3.56c-.44,1.45.31,3.23.23,4.32a15.68,15.68,0,0,0,.09,4.64l5.26,4.21c-1.46,3.05-4.43,4.5-5,6.44-.37,1.34-1.71,3.17-2.93,3.17h-3.06c-1,0-1.58,1.1-2.56,1.1s-1.59.73-2.32,1.1-1.71,1.46-1.22,2.56a4.71,4.71,0,0,1,.73,2.44Z" transform="translate(-932.24 69.38)"/><path class="cls-1" d="M1221.44,264h7.16c1.8,0,1.8-1.05,2.69-1.49s2.83.3,3.58.89,1.79,1.94,2.54,1.05a1.7,1.7,0,0,1,2.53,0c.6.59,1.46.44,2.5.29-.61-1.22-1.59-1.59-1.1-2.81a2.68,2.68,0,0,0-.48-2.93,2,2,0,0,1,.12-2.44c.49-.61.12-1.47-.25-2.32a10.94,10.94,0,0,1-1.1-2.93c-.12-1.1.86-1.47,1.59-2.81s-.12-2.93.25-4.27,1.71-2.81,1.58-4.28a8.33,8.33,0,0,1,.37-3.54,8.29,8.29,0,0,0-3,.74,32.06,32.06,0,0,1-6.86,1.49c-1.35,0-2.54,1.64-4.18,1.49s-4.63.75-6,.75-2.83,1.49-4,1.49-1.94,1.64-2.83,2.54-1.79.89-2.39,2.23.45,1.94.45,3.29.15,3.13.15,4.17.74,1.5,1.79,1.5,1,.74,1,2.38.15,2.39,1.64,2.39S1221.44,262.18,1221.44,264Z" transform="translate(-932.24 69.38)"/><path class="cls-1" d="M1186.83,256.82a9.18,9.18,0,0,1,1.94,4.51c.28,1.68,1.12,1.82,2.1,2.24s1.26,2.25,1.26,3.65-.14,2.38,1,2.8a15.78,15.78,0,0,0,3.37.42c.84.14,2.38,0,2.94.84s2.66,1.83,2.52,3.23-1.12,2.1-.28,3.36,1.83,2.67.42,3.37c-.84.42-1,1-1,2.1a16.7,16.7,0,0,1-.14,2.1c.84,1,1.68,2.52.84,3.79s-.84,2,.14,2.52a2,2,0,0,1,1,1.63h0a1.43,1.43,0,0,0,1.79-1.35c.15-1.19,1.64-1.94,2.54-3.28,1.38-2.06,2.38-4,3.73-5.37,1.34-1.5.89-1.5,3-4.48a42,42,0,0,0,4-7.31c.9-1.94,1-3.43,1.49-4.18s1.94-.6,1.94-.6V264c0-1.8-.75-3.13-2.24-3.13s-1.64-.74-1.64-2.39,0-2.38-1-2.38-1.79-.45-1.79-1.5-.15-2.83-.15-4.17-1-1.94-.45-3.29a10,10,0,0,0-2.66-.79c-1.33-.15-1.66-.9-4.06-.42-1.4.28-.84.42-2.38.14s-1.4-.42-2.25.42a4.49,4.49,0,0,1-1.63,1.11,11.91,11.91,0,0,1-2.09.74c-1.19.3-3.73,2.24-4.78,2.24h-4.17c0,1.94-.6,3-1.2,3h-2.08v3.29Z" transform="translate(-932.24 69.38)"/><path class="cls-1" d="M1309.39,328.11a8.13,8.13,0,0,0-5.12,2.56c-1.25,1.17-1.82,2.11-3.49,2.53s-1.6-.23-1.71-.49c-1.09-2.67-4.19-5-4.07-8.29.06-1.64.47-1.17,2.06-1.12,1.09,0-.27,1.94.29,2.39s4.21.15,5.1.18c2.84.1,2.93-2.28.08-2.38-1.9-.06-3.69.19-2.66-2.47.52-1.34,4-2.45,2.54-4.67-.39-.59-2.4.65-2.36-.45,0-.78.06-1.57.08-2.35-1.1-.25-2-2.56-2.62-3.17s-2.2.13-2.93.13a15,15,0,0,1-2.93-.49c-1-.25-2-.37-2-1.47s-.74-1.71-1.59-2.44-1.22-2.81-1.83-3.79-1-1.34-.25-2.44,2.08-.73,2.08-1.46v-2.69c0-1.22-1.1-1.83-1.1-2.93s1.1-1.22,1.1-2.2,0-3.17-1.1-3.17-1.34-1.1-2.2-1.1h-13.55c-1.59,0-1.83-.37-1.83-1.46a21.52,21.52,0,0,0-1-4.52,4.18,4.18,0,0,0-3.91-2.93,5.91,5.91,0,0,1-3.66-1.83c-1-.86-2.2-2.45-2-4s-1.1-3.79-2.2-3.18-2.32-.12-2.08-1.22-1.83-2-1.83-2h-3.66c-1,0-1.47,1.1-2.2,1.1s-1.22-1.59-2.2-1.35-1.71,1-2.32-.24c-1,.15-1.9.3-2.5-.29a1.7,1.7,0,0,0-2.53,0c-.75.89-1.79-.45-2.54-1.05s-2.68-1.34-3.58-.89-.89,1.49-2.69,1.49h-7.16v2.83s-1.49-.14-1.94.6-.59,2.24-1.49,4.18a42,42,0,0,1-4,7.31c-2.09,3-1.64,3-3,4.48h10.29v-2.54a4.43,4.43,0,0,0,3.14-1c1.19-1.19,3.13-3.28,3.88-1.93s1.19,2.53,1.79,3,.44,2.83,1.49,3.43.15,2.54,2.09,3a7.86,7.86,0,0,1,4.17,2.38c.75.9,2.69,3,3.44,3.73s1,1.94,3,2.39,1.49,1.49,2.69,2.69,2.38.59,2.68,1.79.6,3,1.79,3.28,1.2,2.24,2.39,3.28,3.28,2.09,3.88,3.43,3.13,1.64,3.28,3.43a3.81,3.81,0,0,0,2.54,3.29c1,.29,1.64,2.23,2.83,2.38s1.2,3.88,1.2,5.08,1.19,1.64,1.19,2.68-.64,1.81-.9,3.14a9.59,9.59,0,0,0,.68,6.29c1.41-.62.83-2.78,1-3.61a19.89,19.89,0,0,1,2.68-6.86c.36-.88,2.09-1.64,3-.45a29.51,29.51,0,0,0,2.24,3.27c1.07,1.15.14,2.6,1,3.5,1.79,1.91,1.94,2.05,2,4.57,0,.83-.62,4.08-.16,4.73.28.39,2.09-.31,2.37.08s-.07,1.89-.08,2.37c-.12,3.48-.2,1.21-2.46,2.3s-1.54,2.43-4.24,2.34c-.54,0-1.65,1-2.55,1.45-2.47,1-2.42,2,1.2.67a101.84,101.84,0,0,0,20-9.52,53.84,53.84,0,0,0,8.16-6.86c2-1.87,4-4.72,6.55-5.66C1310.37,328.53,1310.62,328,1309.39,328.11Z" transform="translate(-932.24 69.38)"/><path class="cls-1" d="M1267.84,330.23c.26-1.33.9-2.09.9-3.14s-1.19-1.49-1.19-2.68,0-4.93-1.2-5.08-1.79-2.09-2.83-2.38a3.81,3.81,0,0,1-2.54-3.29c-.15-1.79-2.68-2.09-3.28-3.43s-2.69-2.38-3.88-3.43-1.19-3-2.39-3.28-1.49-2.09-1.79-3.28-1.49-.6-2.68-1.79-.75-2.24-2.69-2.69-2.24-1.64-3-2.39-2.69-2.83-3.44-3.73a7.86,7.86,0,0,0-4.17-2.38c-1.94-.45-1-2.39-2.09-3s-.9-3-1.49-3.43-1-1.64-1.79-3-2.69.74-3.88,1.93a4.43,4.43,0,0,1-3.14,1v2.54H1211c-1.35,1.34-2.35,3.31-3.73,5.37-.9,1.34-2.39,2.09-2.54,3.28a1.43,1.43,0,0,1-1.79,1.35,5.84,5.84,0,0,0-3.43,1.34c-.9.75-3.28,2.24-4.63,1.64a2.27,2.27,0,0,0-3,.6c-.9.89-1.94,1.79-1.94,2.68s.15,1.79-1.34,1.79-2.69.45-2.69,1.5a35.63,35.63,0,0,1-.89,4.58,3.24,3.24,0,0,1,2.34.95c1.38,1.45,1.49,1.57,1.42,3.56,0,1,1.73.09,2.34.45,3.38,2,1.6,3.75.15,6.4-.76,1.38-1.52.1-2.76.64-.79.35-1.63,1.52-2.27,2.12-1,1-.07,4.92-3.09,4.81-2.15-.07-1.71-.29-1.93-2.07-.28-2.28-2.72-1.6-1.41.56s3.62,3.88,5.44,5.82c.85.9,1.74.25,2.85.59a22.72,22.72,0,0,1,3.93,2.14c1.21.66,1.83,2.29,3,2.84,1,.45,3,.1,4,.14,2.23.08,3.82,2.51,6,2.59,4.51.15,12.12-1.08,15.28,2.29,1.59,1.69,1.49,5.41,4,5.5,1.9.06,3.6,2.35,5,4,.26.33.82,1.46.64-.14-.1-.88.26-1.31,1.39-1.27,2.53.09,0-1.18,1.26-2.33s2.3,1.42,2.39-1.1c.06-1.63.48-1.17,2-1.11l7.11.25c1.12,0-.31-2.39.82-2.35s2,.54,2-.67c.07-1.85-.66-6.4,1.41-6.33.95,0,5.9.52,5.93-.16,0-1.33.09-2.67.14-4,0-1.12-2.37.31-2.33-.82.11-3.14,2.55-1,2.59-3.29-.38-1.31.69-.16,1.07.26s1,2.27,1-.11c-.07-3.41,4.17,1.46,5.23,1.49,4,.14.49,3.33,2.65,5.66.63.68,2.28,2.37,3.84,1.67A9.59,9.59,0,0,1,1267.84,330.23Z" transform="translate(-932.24 69.38)"/><path class="cls-1" d="M1201.94,291.75c-1-.56-1-1.26-.14-2.52s0-2.81-.84-3.79-2-2.52-3.08-2.52-2.94.28-3.93-.56a5.33,5.33,0,0,0-3.22-1.54,7.79,7.79,0,0,1-4.2-1.13,10,10,0,0,0-5.61-1.54,9,9,0,0,1-4.77-1c-1-.56-.7-2.8-.28-4.2s1-2.67,0-3.65a9.92,9.92,0,0,1-2.24-3.78,5,5,0,0,0-2.24-3,11.48,11.48,0,0,1-4.35-4h-3c-3.73,0-4.18.74-6.87.74s-3.13.6-4.47,1.79-1.94,2.54-3.14,4.48-2.23,4.62-4,5.67-3.58,2.68-5.08,3.43-2.68,3.43-4,4a25,25,0,0,0-5.73,4.65c.29,1.33,1,2.15,2.39.82a22.46,22.46,0,0,1,6.86-4.23c1.35-.62,13.52-.57,14.43.4.47.5-.06,6.94-.5,7.34-1.23,1.13-2.17,1.56-2.23,3.21-.07,1.83.69,1.09,2.32,1.28.58.06,7.1,0,7.08.45-.11,3.37-.31,4.22,1.64,6.44.15.17.67.57,0,1.05a6.81,6.81,0,0,0-2,2.95c-.25.72,0,1.29,1,.76,2.75-1.08,5.33-1.52,7.57-3.11.36-.25,1.08-1.14,1,.73-.09,2.05,2,3.22,4.27,3.3,2.81.1,4.15.87,6.65,2.24,1.23.67,2.64.41,3.94.47a35.63,35.63,0,0,0,.89-4.58c0-1.05,1.19-1.5,2.69-1.5s1.34-.89,1.34-1.79,1-1.79,1.94-2.68a2.27,2.27,0,0,1,3-.6c1.35.6,3.73-.89,4.63-1.64a5.84,5.84,0,0,1,3.43-1.34h0A2,2,0,0,0,1201.94,291.75Z" transform="translate(-932.24 69.38)"/><path class="cls-1" d="M1096.35,203.43h-34.64a2.49,2.49,0,0,0,.73,2.06c1,1.22,1.7,1.83,1.7,2.55v3.16a3.1,3.1,0,0,1-1.7,2.31c-1,.49-.85,1.22-.6,2.07a3.5,3.5,0,0,1,.24,2.43c-.37.73-1,1.34-.49,1.94s.37,1,.37,1.83v7.29c0,1,0,1.58,1,2.06s3,.73,2.31,2.07-1.58,1.82-1.58,3-.61,1.82-1.34,2.79-.36,1.7-.36,2.43a9.69,9.69,0,0,0,1.09,2.68,10.38,10.38,0,0,1,3.65-.73c.73,0,1-1.58,2.06-1.21a6.39,6.39,0,0,1,3.28,2.43,3.21,3.21,0,0,0,2.68,1.57,4.4,4.4,0,0,1,3,1.22c.73.85,2.43,2.31,3.77,1.34s3-.85,4-1.95,1.22-2.31,2.19-2.67a4.28,4.28,0,0,0,2.06-2.55c.25-.85,1.22-.73,2-1.58s1.34-.61,2.07-1.22,2.55-1.94,2.55-2.91v-3.41c0-.85,1.21-1.94,2.31-2.06a2.47,2.47,0,0,0,2.06-1.46c.37-.73,1.82-.61,2.31-.85s-.24-2.07.24-2.8a5,5,0,0,1,2-1.94c1.09-.61.36-.73,1.21-1.34s0-2.43,0-2.43h-1.7v-2.31c0-.73-1.46-.85-1.46-1.94v-7.66h-6.92Z" transform="translate(-932.24 69.38)"/><path class="cls-1" d="M1106.43,222c-.65.82-.12.73-1.21,1.34a5,5,0,0,0-2,1.94c-.48.73.25,2.56-.24,2.8s-1.94.12-2.31.85a2.47,2.47,0,0,1-2.06,1.46c-1.1.12-2.31,1.21-2.31,2.06v3.41c0,1-1.83,2.3-2.55,2.91h6.73c1,0,1.41,1.1,3.11,1.1s1.46,1.33,3,1.33,3.28.37,4.13-.36,1.58,0,1.33,1.09-.66,3,0,3.65,2.68,1,3.53,1.7,2.06,1.94,3.52,1.94a11,11,0,0,1,3.28.73,19.34,19.34,0,0,1,1.34-4.25c.61-1.7.49-2.92,1.46-4a10.55,10.55,0,0,0,2.43-5.11c.12-1.7-.49-2.55-1.34-2.43a9.62,9.62,0,0,0-3.28,1.1,1.32,1.32,0,0,1-2.06-1,2.12,2.12,0,0,1,.85-2.43c.85-.61,1.58-.61,1.94-1.71s-.12-1.7-1-1.82a1.39,1.39,0,0,1-.85-2.19c.61-1.09,2.06-.48,1.7-1.82a14.23,14.23,0,0,0-1.34-3.64c-.61-1,0-1.34.61-2.19s.49-2.68-.24-3-1.58-1.34-2.8-1-2.91,1.09-3.77.73-1.57-1.22-2.79-.49a4.89,4.89,0,0,0-1.94,3,5.79,5.79,0,0,1-2.56,2.79A6.91,6.91,0,0,0,1106.43,222Z" transform="translate(-932.24 69.38)"/><path class="cls-1" d="M1119.68,294.45a4.19,4.19,0,0,0,.1-1,10.45,10.45,0,0,0-1.08-.09l-7.46-.26c-3.49-.12-3-2.12-4-5.39-.92-3.1-.53-4.15,1.81-6.35,1.91-1.79,4.76-3,7-4.37s4.44-1.83,6.3-3.47a8.53,8.53,0,0,0-.15-3.13c-.49-1.46-1.21-2.07-1.21-3.89a35.21,35.21,0,0,0-.49-5.23c-.24-1.58-1.22-3.4-.73-5s1.58-2.43,2.19-3.76a5.42,5.42,0,0,0,.48-2.56,11,11,0,0,0-3.28-.73c-1.46,0-2.67-1.21-3.52-1.94s-2.86-1-3.53-1.7-.24-2.55,0-3.65-.48-1.82-1.33-1.09-2.55.36-4.13.36-1.34-1.33-3-1.33-2.07-1.1-3.11-1.1h-6.73c-.73.61-1.34.37-2.07,1.22s-1.7.73-2,1.58a4.28,4.28,0,0,1-2.06,2.55c-1,.36-1.22,1.58-2.19,2.67s-2.67,1-4,1.95-3-.49-3.77-1.34a4.4,4.4,0,0,0-3-1.22,3.21,3.21,0,0,1-2.68-1.57,6.39,6.39,0,0,0-3.28-2.43c-1.09-.37-1.33,1.21-2.06,1.21a10.38,10.38,0,0,0-3.65.73,36.28,36.28,0,0,1-4.13,1.94c-1.76.72-4.13,2.55-6,3.64h9.6v48.81c4.85.16,9.87-.09,14.64.76,5.78,1,11.62,2.52,17.5,2.72,2.8.1,5.07-2.49,7.74-3.71,2.13-1,4.14-.61,6.47-.53,1.75.06,5.86-.5,7.33.56l.09.07a9.61,9.61,0,0,1,1.16-.79A5.33,5.33,0,0,0,1119.68,294.45Z" transform="translate(-932.24 69.38)"/><path class="cls-1" d="M1093.37,151.43s.09,2.27.09,3.14,1.57,2.18,2.27,2.8a3.74,3.74,0,0,1,1.4,2.7v4h2.27V170c0,1.14,1.75,1.05,2.45,1.57a2.64,2.64,0,0,1,1.22,2.45v7.86c0,1.4-1.31,2.19-1.84,2.8a4.29,4.29,0,0,0-1,2.79c0,1.23-.87,1.14-.87,1.92v4.28h-4.46V197h-14.41a4.66,4.66,0,0,0-2.53.62c-.87.52-.87,1.74-.87,2.62s-.27,1.13-1.05,1.57-.63,1.6-.63,1.6h-13.74v-.85a4.68,4.68,0,0,1,.52-1.26c.35-.56,0-1.41.21-2.12a3.36,3.36,0,0,1,1.63-1.84c.78-.43.92-1.35,1.49-2.05s.21-1.42-.43-2.06-.92-1.77-.92-3.4V158.62h8.64c1,0,1-.9,1.83-1.25s.79-.88.79-1.49-.79-.7-.79-1.66.7-1.4,1.57-1.48,1.31-1.05,2.88-1.49,2.36-1.22,2.36-2,1-1.22,2.36-1.22a5.21,5.21,0,0,1,3.76,1.66c.7,1,1.22,1.75,2.18,1.75Z" transform="translate(-932.24 69.38)"/><path class="cls-1" d="M1121,214.5c0-1-.15-3.41.63-3.76s1.31,0,1.84.87a1.7,1.7,0,0,0,2.44.44,9.86,9.86,0,0,1,3.24-1.4c1.13-.17,2.88-.61,3.75-.26s2.1,1.66,3.76,1.66h10.22c1.66,0,1.4-.35.09-1.75s-1.84-1.22-1.84-2.1V206h-2.27v-1.75c0-.78-1.75-1-1.75-1.83s.09-1.66.88-1.66h1.74v-2.71c0-.7-1.74-1.31-2.09-2.62s-.88-2.09-.35-3.14,1-1.84.7-2.8a3.44,3.44,0,0,1,.61-2.44c.35-.79,0-1.75,0-2.45s1.13-1.14,1.13-2.27v-3.5c0-1-1-.52-1.22-1.83s-1.31-1.31-1.31-2.27-.44-1.75-.44-2.62.09-2.88-.78-2.88-2,.34-2.62-.53a2.23,2.23,0,0,1,.09-2.53c.43-.88-1-1.22-1.49-2l-25.07.09c-.7,0-.87-.62-1.48-.62s-.79.44-1.66.44h-8.39V170c0,1.14,1.75,1.05,2.45,1.57a2.64,2.64,0,0,1,1.22,2.45v7.86c0,1.4-1.31,2.19-1.84,2.8a4.29,4.29,0,0,0-1,2.79c0,1.23-.87,1.14-.87,1.92v4.28h-4.46V197h-14.41a4.66,4.66,0,0,0-2.53.62c-.87.52-.87,1.74-.87,2.62s-.27,1.13-1.05,1.57-.63,1.6-.63,1.6h20.9v4.25h6.92v7.66c0,1.09,1.46,1.21,1.46,1.94v2.31h1.7s.85,1.82,0,2.43a6.91,6.91,0,0,1,2.43-1.46,5.79,5.79,0,0,0,2.56-2.79,4.89,4.89,0,0,1,1.94-3c1.22-.73,1.94.12,2.79.49s2.56-.37,3.77-.73A1.78,1.78,0,0,1,1121,214.5Z" transform="translate(-932.24 69.38)"/><path class="cls-1" d="M1132.93,306.55c1.37,1.46,1.49,1.58,3.47,1.65,3.09.1,5.15-.8,5.27-4.17,0-1,2.27-2.78,3.78-4,2.15-1.9-.66-.83-1-1.22s1-3.12-1.14-1.27c-1.91,1.61-2.14.68-4.33-1.7-1.44-1.56-1.56-1.83-3.67-1.9-1,0,.28-2.35-.49-2.38l-8.09-.28c-2.26-.08-.42.86-1.26,2.31a8.07,8.07,0,0,1-1.81,1.9.59.59,0,0,1-1.05,0,3.61,3.61,0,0,0-2.8-2,4.19,4.19,0,0,1-.1,1,5.33,5.33,0,0,1-2.19,3.16,9.61,9.61,0,0,0-1.16.79c1.56,1.16,4.79,4.54,6.61,4.6,1.17,0,3.5-.36,4.53.16s1.36,2,2.29,2.46C1131.1,306.33,1131.74,305.29,1132.93,306.55Z" transform="translate(-932.24 69.38)"/><path class="cls-1" d="M1178.17,257.72c2.24,0,4-.89,5.52-.89h3.14v-3.29h2.08c.6,0,1.2-1,1.2-3-1,0-2.09.3-2.84-.75s-1.19-2.39-2.68-2.39h-16.86c-1.64,0-2.69,3-4.48,3h-6.56c-1.79,0-1.35-1.49-2.54-3s-2.39-1.79-2.69-3.28-1.79-1.34-4-1.94-4.63-1.19-6.12-.15-.3,2.54-1.94,3.14-1.94,3.58-4,3.58-2.24-1.49-4.48-1.49-3.58-1.5-4.62-1.5-2.44-.06-2.44-.06a19.34,19.34,0,0,0-1.34,4.25,5.42,5.42,0,0,1-.48,2.56c-.61,1.33-1.7,2.18-2.19,3.76s.49,3.4.73,5a35.21,35.21,0,0,1,.49,5.23c0,1.82.72,2.43,1.21,3.89a8.53,8.53,0,0,1,.15,3.13,1.56,1.56,0,0,0,.2-.16c1.28-1.2,1.45-1.15,3.23-1.09.93,0,2-1.49,2.64-2.1a1.45,1.45,0,0,1,2.51,1.09c-.09,2.63,1.41-.1,2.33,1.28,1.31,2-2.17,5.42-2.62,7a10.14,10.14,0,0,0,0,3.84,25,25,0,0,1,5.73-4.65c1.35-.6,2.54-3.28,4-4s3.29-2.39,5.08-3.43,2.83-3.73,4-5.67,1.8-3.28,3.14-4.48,1.79-1.79,4.47-1.79,3.14-.74,6.87-.74h8.65C1174.29,258.62,1175.93,257.72,1178.17,257.72Z" transform="translate(-932.24 69.38)"/><path class="cls-1" d="M1123.81,245.72c.61-1.7.49-2.92,1.46-4a10.55,10.55,0,0,0,2.43-5.11c.12-1.7-.49-2.55-1.34-2.43a9.62,9.62,0,0,0-3.28,1.1,1.32,1.32,0,0,1-2.06-1,2.12,2.12,0,0,1,.85-2.43c.85-.61,1.58-.61,1.94-1.71s-.12-1.7-1-1.82a1.39,1.39,0,0,1-.85-2.19c.61-1.09,2.06-.48,1.7-1.82a14.23,14.23,0,0,0-1.34-3.64c-.61-1,0-1.34.61-2.19s.49-2.68-.24-3-1.68-1-1.68-1c0-1-.15-3.41.63-3.76s1.31,0,1.84.87a1.7,1.7,0,0,0,2.44.44,9.86,9.86,0,0,1,3.24-1.4c1.13-.17,2.88-.61,3.75-.26s2.1,1.66,3.76,1.66h10.22c1.66,0,1.4-.35.09-1.75s-1.84-1.22-1.84-2.1V206h-2.27v-1.75c0-.78-1.75-1-1.75-1.83s.09-1.66.88-1.66h4.07a4.85,4.85,0,0,0,2.53,2.63c1,.3,1.49,1.49,2.39,2.39s2.09,2.38,2.09,3.73v3.73c0,.89-1.2.89-1.2,1.64s1.34,1.34,1.34,2.09-.29,2.83.75,4,2.24,2.23,2.69,3.58,1,3.43,2.68,3.43,2.69,1,4.48,1,2.68.15,2.68,1.49a5.8,5.8,0,0,0,.9,3.59c.89,1.64-.3,3.43.15,4.77a4.08,4.08,0,0,1,0,3c-.3,1.2.15,1.65,1.79,1.35s3.58-.75,5.07-.3,2.84,3,2.84,4.47h-9.55c-1.64,0-2.69,3-4.48,3h-6.56c-1.79,0-1.35-1.49-2.54-3s-2.39-1.79-2.69-3.28-1.79-1.34-4-1.94-4.63-1.19-6.12-.15-.3,2.54-1.94,3.14-1.94,3.58-4,3.58-2.24-1.49-4.48-1.49-3.58-1.5-4.62-1.5S1123.81,245.72,1123.81,245.72Z" transform="translate(-932.24 69.38)"/><path class="cls-1" d="M1201,285.44a16.7,16.7,0,0,0,.14-2.1c0-1.12.14-1.68,1-2.1,1.41-.7.42-2.11-.42-3.37s.14-2,.28-3.36-2-2.38-2.52-3.23-2.1-.7-2.94-.84a15.78,15.78,0,0,1-3.37-.42c-1.12-.42-1-1.4-1-2.8s-.28-3.23-1.26-3.65-1.82-.56-2.1-2.24a9.18,9.18,0,0,0-1.94-4.51h-3.14c-1.49,0-3.28.89-5.52.89s-3.88.9-5.52.9H1167a11.48,11.48,0,0,0,4.35,4,5,5,0,0,1,2.24,3,9.92,9.92,0,0,0,2.24,3.78c1,1,.42,2.24,0,3.65s-.7,3.64.28,4.2a9,9,0,0,0,4.77,1,10,10,0,0,1,5.61,1.54,7.79,7.79,0,0,0,4.2,1.13,5.33,5.33,0,0,1,3.22,1.54c1,.84,2.81.56,3.93.56S1200.12,284.46,1201,285.44Z" transform="translate(-932.24 69.38)"/><path class="cls-1" d="M1081.62-22.39v-2.52c0-1-1.2-.32-1.2-1.2s1.09-.22,1.09-1.09v-4.6h-9.63v-5.47h-2.63c-1.31,0-.66-.22-2-2-1.6-2.13-5.25-2.62-5.25-2.62h-18.61v4.38c0,1.53-2.41,2.84-3.29,4.16s0,4.81.22,6.34-1.09,2-1.75,3.73v14.5H1062v-3.1c0-1.05.24-1.54,1.08-1.54h17.66v-.83c0-.74.89-.74.89-1.81Z" transform="translate(-932.24 69.38)"/><path class="cls-1" d="M995.16,49c.69,1.72.82,2.77,2.12,2.88a7.32,7.32,0,0,0,2.87-.28c.83-.28,1.39,1.85,2.22.93A4.21,4.21,0,0,1,1006,50.7V43.29h9.82c1.2,0-.83-1.3-1.3-1.95s-1.3-.83-1.3-2.31.56-1.67,1.3-2.41.37-1.3.37-2.13-.83-.65-1.39-1.49a2.33,2.33,0,0,1-.46-2.22,7,7,0,0,0,.18-2.41,4.44,4.44,0,0,0-1.76-2.5c-.92-.74-.92-.84-.92-1.58h22.79v3.25c0,1.2.93.65,2,1.76a2.61,2.61,0,0,1,.84,3.15c-.37,1.48.46,2,1,2.78a3.42,3.42,0,0,1,.92,2.78c0,1.76-.46,1.57-1.11,2.87s.83.93.65,2.32.83,1,1.3,2.41-.65,1.66-1.58,2.68-.65,2-.65,2.88V54.6c0,1.29-.18,2.68-1.3,1.85a2.2,2.2,0,0,0-3.15,0c-1.11.92.56,1.11.1,2s.27,1.11.27,2.68-.09,2.69-1.11,3.53a3.53,3.53,0,0,0-1.29,3.24c0,1.57,0,3.1.55,3.71s.37,1-.18,2-.19,1.85.64,1.85h2.23c.74,0,.65,1.3,1.11,1.3H1036v3c0,.93.28,1.48.93,1.48h2.22c.65,0,.84.28,1.39,1.49s1.11,1.39,2,1.39h3.71c.92,0,1.57,1.29,1.94,2.5s1.21,1.76,2.32,3.06,2.27,1.32,3.15,3a14.21,14.21,0,0,1-2.87,2.23c-1.3.65-2.78,1.39-3.06,2.41s-2,2.22-3,2.69-2.5,1.11-3,2.22a7.06,7.06,0,0,1-3.34,3.24,6.52,6.52,0,0,0-2.87,2.32c-.83,1-2.22.28-3.06,1.11s-.68,1.56-.88,2.44c-1.1-.36-1.82,0-3-1.34s-4.25-1.54-6.93-1.54h-16V90.33h-8.83V79.39c0-.84-1-.7-1-1.68s1-.7,1-1.54V71h-9.75V52.05c0-1.21.69-1.73.86-2.76s1.56-2,1.81-1.21,1.08.7,1.82,1a8.22,8.22,0,0,0,3.54,0" transform="translate(-932.24 69.38)"/><path class="cls-1" d="M996.88,79.39c0-.84-1-.7-1-1.68s1-.7,1-1.54V71h-9.75V57.4H947.61c0,.51,0,1.05,0,1.59-.07,1.92,2.13,2.92,3.48,4,1.09.85,1.75,3.19.75,4a1.13,1.13,0,0,0,.07,2,2.79,2.79,0,0,1,1.13,2.53c0,1.08,2-.14,2.35.44s.11,2.4-.45,2.38c-2.94-.1-2.06,1.72-2.15,4.31-.07,1.94-.28,2.68-1.11,3.61-.69.66-1.1,1.28-.16,1.31,1.59,0,1,1.79,1,3.71-.06,1.63.39,1.19,2,1.25,1.1,0-.26,1.93.29,2.38.82.68,4.78.17,5.93.21,1.48,0,1.38,1.62,1.19,3.15-.12,1.31-.81,1.76-1.52,1.73-1.4.15-1.81.82-.57,1.81.89.7,2.13.78,3.84.53.69-.1.24,3.59.21,4.38,0,1.08,1.92-.13,2.33.45s-.14,1.81-.08,2.36a17.47,17.47,0,0,1,.5,3.54c-.08,1.52-.72,2.91-.76,3.94-.08,2.26.41,2.51,2,4.19.61.65,2.63-.22,2.6.71,0,.74-.55,3.82-.16,4.38,1,1.35,2.43-1.35,2.34,1.26s0,3.53,1.54,5.31c.65.8.57.17.57-.48.17-1.35,1.37-1.38,2.79-1.24,0-1.07.15-5.06.34-6.67a2.73,2.73,0,0,1,2.81-2.52h6.87a6.17,6.17,0,0,1,1.68-3.08c1.12-1.13,1.82-4.07,2.38-5.19s1.54-1.12,3.36-1.12h10.8V90.33h-8.83Z" transform="translate(-932.24 69.38)"/><path class="cls-1" d="M1044.34,148.49c0-1.45-1-2.06-1-3.52V122.85a3.49,3.49,0,0,0-1.7-3,6.56,6.56,0,0,1-2.43-3.76c-.12-1.1-1.09-2.92-2.91-2.92s-3.53-1.34-4.62-1.7-1.82,0-3-1.34-4.25-1.54-6.93-1.54H994.91c-1.82,0-2.8,0-3.36,1.12s-1.26,4.06-2.38,5.19a6.17,6.17,0,0,0-1.68,3.08h-6.87a2.73,2.73,0,0,0-2.81,2.52c-.19,1.61-.34,5.6-.34,6.67.5.05,1,.12,1.56.16a.44.44,0,0,1,.34.69c-.43.91-.8,2-1.47,2.32-1.33.66-.09,2.45,1,3.71a.52.52,0,0,1-.55.77c-2.66-.31-2,4.31-.41,4.36,2.74.1,1,5.23,1,5.93-.06,1.91-.79.91-2.41,1.11s-2.34-.8-2.41,1.1c0,.84-.29,3.56.24,3.57,1.73.07,4.4-.67,4.33,1.34-.08,2.46.64,3.58-2.12,3.48-1,0,.18,2.31-1.69,2.42-.3,0-.68.35-.06,1.19a5.3,5.3,0,0,1,1,2.46c.8-.25,1.51-.47,1.89-.61a5.17,5.17,0,0,1,4,.73,4,4,0,0,0,3.89.36c1.34-.72,2.31-1.82,4.62-1.82s22.12-.24,23.82-.24,1.33.85,2.55.85h4.25c1.22,0,1.1-.85,2.19-.85h6.68v1.09h14.59v-1.82c0-1.09-1.1-2.31-1.1-3.28v-4.38C1043.24,150.44,1044.34,150,1044.34,148.49Z" transform="translate(-932.24 69.38)"/><path class="cls-1" d="M1090.4,25.15h-4.52c-1.05,0-1.89-1-2.83-1s-1.06,1-1.79,1h-3.47c-2.1,0-2.63-.86-6.94-.86h-37.53v3.25c0,1.2.93.65,2,1.76a2.61,2.61,0,0,1,.84,3.15c-.37,1.48.46,2,1,2.78a3.42,3.42,0,0,1,.92,2.78c0,1.76-.46,1.57-1.11,2.87s.83.93.65,2.32.83,1,1.3,2.41-.65,1.66-1.58,2.68-.65,2-.65,2.88V54.6c0,1.29-.18,2.68-1.3,1.85a2.2,2.2,0,0,0-3.15,0c-1.11.92.56,1.11.1,2s.27,1.11.27,2.68-.09,2.69-1.11,3.53a3.53,3.53,0,0,0-1.29,3.24c0,1.57,0,3.1.55,3.71H1060c1.34,0,2.49-.2,2.49-1.54V63.38c0-1,1.15-1.15,2.3-1.15s20.33.76,21.09,0a9.72,9.72,0,0,0,1.92-2.11c1-1.8,1.73-2.3,1-3.65s.77-1.53,1-2.49a31.28,31.28,0,0,0,.76-3.64c0-.77,0-2.11,0-2.11Z" transform="translate(-932.24 69.38)"/><path class="cls-1" d="M1085.85,62.23a3.89,3.89,0,0,0,.6,1.94,9.15,9.15,0,0,1,1.37,2.77c.6,1.64-1.34,2.53-2.08,3.73s.3,1.78,1.19,2.68.15,1.19-.15,2.23-1.34,1.94-.89,2.84.74,1.64,0,2.08-1.64.3-1.2,1.49a3,3,0,0,0,2.69,1.94c1,0,3-.15,3.13.9s1.79,1.64,1.34,2.83.15,2.23,1.49,2.83.74,1.94.15,3.28,1.94,1.49,3,1a2.66,2.66,0,0,1,3,.9,15.22,15.22,0,0,1-2.53,1.49c-1.35.59-2.84,1.49-4.48,1.34s-3,1.34-4.62,1.34-2.68,1.34-5.06,1.34-9,2.39-10.29,2.24-4.17.74-5.81,1.34-3.73,1.34-4.77.89-2.09.6-4.62.15-.15-1.19-.75-1.64-1.49-1.19-.59-1.64,1-2.38.3-2.38-1.94-.3-2.09-1.19.18-2.41,1.19-2.69c1.64-.44,1.79-2.38.45-1.79s-1.43-.54-2.07-1.74c-1-1.83-2-1.76-3.15-3s-2-1.86-2.32-3.06-1-2.5-1.94-2.5h-3.71c-.93,0-1.48-.19-2-1.39s-.74-1.49-1.39-1.49h-2.22c-.65,0-.93-.55-.93-1.48v-3h-1.39c-.46,0-.37-1.3-1.11-1.3h-2.23c-.83,0-1.2-.84-.64-1.85s.78-1.44.18-2H1060c1.34,0,2.49-.2,2.49-1.54V63.38c0-1,1.15-1.15,2.3-1.15S1085.09,63,1085.85,62.23Z" transform="translate(-932.24 69.38)"/><path class="cls-1" d="M1090.4,48.23h28.44V62.14c0,.91-.83.5-.83,1.55v49.1c-1.44-1.43-2.28-1.87-3-1.23s-.67,1.31-1.65,1.55a1.19,1.19,0,0,1-1.46-.82c-.29-.88.28-1.83-.27-2.56a3.94,3.94,0,0,0-2.74-1.55c-1.19-.09-.73-.82-1.56-1.83s-2.28-1.46-2.28-2.92V98.59c0-1.1-.55-1.83-1.55-1.83s-1.56,1-2.29.46a6.23,6.23,0,0,1-1.75-1.51,2.37,2.37,0,0,0-3-.9c-1,.45-3.58.3-3-1s1.19-2.68-.15-3.28-1.94-1.64-1.49-2.83-1.19-1.79-1.34-2.83-2.09-.9-3.13-.9a3,3,0,0,1-2.69-1.94c-.44-1.19.45-1,1.2-1.49s.44-1.19,0-2.08.59-1.79.89-2.84,1-1.34.15-2.23-1.94-1.49-1.19-2.68,2.68-2.09,2.08-3.73a9.15,9.15,0,0,0-1.37-2.77,3.89,3.89,0,0,1-.6-1.94,9.72,9.72,0,0,0,1.92-2.11c1-1.8,1.73-2.3,1-3.65s.77-1.53,1-2.49a31.28,31.28,0,0,0,.76-3.64C1090.45,49.57,1090.4,48.23,1090.4,48.23Z" transform="translate(-932.24 69.38)"/><path class="cls-1" d="M1134.1,120.46c-.07-1,.84-1.4,1.54-2.1s.56-2-.42-1.68a3.13,3.13,0,0,1-3.22-1.4c-1-1.27-.84-4.07-.7-5.33s1.54-1.82,2.24-2.52,1.4-.85,2-.14,1.83.56,3.23.42,1.12-1.55.42-2.25-3.09-.28-4.07-.28-2-1.12-2.52-2.1,0-2.24-.7-3.08-1-1.54-.42-2,.56-1.68,1.12-2.8,2.1-1.12,2.24,0a6.91,6.91,0,0,0,1.4,3.09c.7,1,0,2.66,1.13,2.66s1.54-.84,2.38,0,2.1.84,3.5.56,1.26-1.54,1.12-2.52-1.54-1-2.66-1a7.12,7.12,0,0,1-3.92-.84c-1.41-.84-.85-2,.14-2.38a3.8,3.8,0,0,0,2-2.66c.14-1-1-2.1-2.1-2.53s-1.69-1.82-2.67-2.8-.42-1.68.42-2.38a3.35,3.35,0,0,0,1-2.66c0-.85.42-1.55,1.83-2.53s2.24-.84,2.66.28.28,2.11,1.4,2.67,2.1-1,2.94-1.69a3,3,0,0,0,.57-3.22c-.42-.84-1-1.54-.14-2.52s.84-3,.84-3.65.56-1.26,1.26-2.1,2.1.28,3.08.84,2.24-.28,3.23-.84,1.26-1.82,2-2.38,1.68.7,2,1.68.7,1,1.82,1.82,2.24-1.68,1.19-2.85c-.45-1-1.27-1.33-1.46-2.28s-1.58-1.7-1.83-2.21.63-1.26.63-1.89V57.12a3,3,0,0,0-.57-2c-.44-.51.07-1.71.76-2.59h-2.1V43.77h-3.82c-.86,0-.58,1.44-1.44,2.3s-1.14,2.1-2.2,2.39-1.33,1.62-2.1,2.58a4.77,4.77,0,0,1-3.53,1.81,6.82,6.82,0,0,0-3.73,1.06c-.77.57-.86-1.15-1.53-1.34s-.58-1.25-.58-1.82,0-1.62-1.14-1.62-1.53-.86-2.49-1.25-.38-2.48-1.43-2.48a4,4,0,0,1-2.58-1.53l-2.12.52v3.84h-9V62.14c0,.91-.83.5-.83,1.55v49.1c.78.76,2.17,2.68.89,3s-1.92,1.06-1.17,1.81,2,1.07,2.13,2.13.43,1.92-.32,2.14-.53,1.17.21,1.38,2,.43,2.67-.32,1.6-1.49,1.6-.74-.11,2.24.75,1.81a1.32,1.32,0,0,0,.64-2,4.27,4.27,0,0,1-.86-2.77,3.17,3.17,0,0,1,1.28-2.24,2.09,2.09,0,0,1,2.67-.21c.85.74,1.92,0,2.56.85s.32,1.81,1.28,2.13A14.13,14.13,0,0,1,1134.1,120.46Z" transform="translate(-932.24 69.38)"/><path class="cls-1" d="M1099.45,95.71a15.22,15.22,0,0,1-2.53,1.49c-1.35.59-2.84,1.49-4.48,1.34s-3,1.34-4.62,1.34-2.68,1.34-5.06,1.34-9,2.39-10.29,2.24-4.17.74-5.81,1.34-3.73,1.34-4.77.89-2.09.6-4.62.15-.15-1.19-.75-1.64-1.49-1.19-.59-1.64,1-2.38.3-2.38-1.94-.3-2.09-1.19.18-2.41,1.19-2.69c1.64-.44,1.79-2.38.45-1.79s-1.43-.54-2.07-1.74a14.21,14.21,0,0,1-2.87,2.23c-1.3.65-2.78,1.39-3.06,2.41s-2,2.22-3,2.69-2.5,1.11-3,2.22a7.06,7.06,0,0,1-3.34,3.24,6.52,6.52,0,0,0-2.87,2.32c-.83,1-2.22.28-3.06,1.11s-.68,1.56-.88,2.44c1.09.36,2.79,1.7,4.62,1.7s2.79,1.82,2.91,2.92a6.56,6.56,0,0,0,2.43,3.76,3.49,3.49,0,0,1,1.7,3V145c0,1.46,1,2.07,1,3.52s-1.1,1.95-1.1,3.28v4.38c0,1,1.1,2.19,1.1,3.28h8c1,0,1.84-.81,3.4-.81h17.07c1,0,1-.9,1.83-1.25s.79-.88.79-1.49-.79-.7-.79-1.66.7-1.4,1.57-1.48,1.31-1.05,2.88-1.49,2.36-1.22,2.36-2,1-1.22,2.36-1.22a5.21,5.21,0,0,1,3.76,1.66c.7,1,1.22,1.75,2.18,1.75h8.65c1.13,0,1.75.61,1.31-1.75s-1-3.76-1-5.42v-6.2c0-1.48-.88-1.83-.88-3.06s1-1.39,1-2.27-.78-.52-.78-2v-16c0-1.22.35-1.84,1-2.1s1.14.44,2.1.09,1.57-.26,1.75.52.26,2,1.22,2h2.8c.7,0,.87-.87,1.83-1.13s1.22-1.31,2-1.31a1.5,1.5,0,0,0,1-.53c-.29-.88.28-1.83-.27-2.56a3.94,3.94,0,0,0-2.74-1.55c-1.19-.09-.73-.82-1.56-1.83s-2.28-1.46-2.28-2.92V98.59c0-1.1-.55-1.83-1.55-1.83s-1.56,1-2.29.46A6.23,6.23,0,0,1,1099.45,95.71Z" transform="translate(-932.24 69.38)"/><path class="cls-1" d="M1093.37,151.43s.09,2.27.09,3.14,1.57,2.18,2.27,2.8a3.74,3.74,0,0,1,1.4,2.7v4h10.66c.87,0,1-.44,1.66-.44s.78.62,1.48.62l25.07-.09c-.52-.79.09-1.57,1-1.92s.61-1,.61-1.75v-5.07c0-.87-1.05-1-1.05-1.92v-2.88c0-.61.79-1.14,1.84-1.14s1.92-1.13,2.44-2.27,1.4-.61,2.1-1.57,1.22-3.06,2.33-4.17c.7-1-.29-2,.7-3.51s-.42-2.1-.84-3.22a4,4,0,0,1,1.82-4.21,2.77,2.77,0,0,0,1.26-3.5,1.73,1.73,0,0,0-2.66-.7c-1.13.7-2-.42-2.53-1.12a3,3,0,0,0-3.08-1,3.8,3.8,0,0,1-3.79-1.83c-.84-1.26-2-1.3-2.1-2a14.13,14.13,0,0,0-1.76-.73c-1-.32-.64-1.28-1.28-2.13s-1.71-.11-2.56-.85a2.09,2.09,0,0,0-2.67.21,3.17,3.17,0,0,0-1.28,2.24,4.27,4.27,0,0,0,.86,2.77,1.32,1.32,0,0,1-.64,2c-.86.43-.75-1.07-.75-1.81s-1,0-1.6.74-1.92.54-2.67.32-1-1.17-.21-1.38.43-1.07.32-2.14-1.39-1.38-2.13-2.13-.11-1.49,1.17-1.81-.11-2.24-.89-3c-1.44-1.43-2.28-1.87-3-1.23s-.67,1.31-1.65,1.55a1.19,1.19,0,0,1-1.46-.82,1.5,1.5,0,0,1-1,.53c-.79,0-1,1.05-2,1.31s-1.13,1.13-1.83,1.13h-2.8c-1,0-1-1.22-1.22-2s-.79-.87-1.75-.52-1.4-.35-2.1-.09-1,.88-1,2.1v16c0,1.49.78,1.14.78,2s-1,1.05-1,2.27.88,1.58.88,3.06v6.2c0,1.66.52,3.06,1,5.42s-.18,1.75-1.31,1.75Z" transform="translate(-932.24 69.38)"/><path class="cls-1" d="M1156.69,145.38c1-1.38,0-2.27,1.67-3.85,1.38-1.29-.1-1.83-1.25-3.09-.69-.75-1.81-2.6-2.83-2.64-4.69-.16,0-4.66.62-7.08a21.17,21.17,0,0,0,.15-4.37c0-1.18-2.39.61-2.31-1.64.09-2.57-2.38.13-2.29-2.45.06-1.79,1-1.15,2.61-1.09,3.93.14,5.54-.3,9.13-2,.56-.26.34-3.74.36-4.46,0-1.16-2.37.6-2.3-1.63s-2.35-.47-2.3-1.63c0-.49,0-1,0-1.48a2.87,2.87,0,0,0-.5-1.05c-1.34-1.41-2.9-3.16-1.06-4.87s4.24-3.08,4.12.39c-.06,1.66,0,5.11,2.54,5.2,2.15.07,2,.22,2.07-1.94,0-.49,1-.5,1.7-.41.27,0,.67.08.13-.47-1-1-1.92-2-2.88-3.08-1.49-1.59-.34-1.81-1.06-3.6-.53-1.32-2.3-1.63-2.24-3.2l.15-4.36c.08-2.44.14-1.81,2.42-1.9,1.44,0,2.93.11,4.37.16,3.23.11,3-4.9,3-5.82,0-.57-.89-.29-1.24-.08-1.42.89-4.86,2.16-6.18.74-2.56-2.74-2.69-3.62-.36-5.92.65-.71,1.17-.37,1.13-.18-.49,2.69.9.5,2.18,1.88.66.72,2.7,2.67,3.5,2.52,1-.17,1-.36,1.06-.62s-.3-1.64.26-2.16,2.1-1.48,2.2-2c.26-1.56-2.25-3.51-2.19-5.2a4.37,4.37,0,0,1,2.52-4.27c.63-.32,2.35.66,2.38-.29a.41.41,0,0,1,0-.17h-15c1.06,1.17-.12,3.65-1.19,2.85s-1.54-.84-1.82-1.82-1.26-2.24-2-1.68-1,1.82-2,2.38-2.25,1.4-3.23.84-2.38-1.68-3.08-.84-1.26,1.4-1.26,2.1,0,2.67-.84,3.65-.28,1.68.14,2.52a3.05,3.05,0,0,1-.56,3.22c-.85.7-1.83,2.25-3,1.69s-1-1.55-1.4-2.67-1.26-1.26-2.66-.28-1.83,1.68-1.83,2.53a3.35,3.35,0,0,1-1,2.66c-.84.7-1.4,1.4-.42,2.38s1.54,2.38,2.67,2.8,2.24,1.55,2.1,2.53a3.8,3.8,0,0,1-2,2.66c-1,.42-1.55,1.54-.14,2.38a7.12,7.12,0,0,0,3.92.84c1.12,0,2.52,0,2.66,1s.28,2.24-1.12,2.52-2.66.28-3.5-.56-1.26,0-2.38,0-.43-1.68-1.13-2.66a6.91,6.91,0,0,1-1.4-3.09c-.14-1.12-1.68-1.12-2.24,0s-.56,2.38-1.12,2.8-.28,1.13.42,2,.14,2.1.7,3.08,1.54,2.1,2.52,2.1,3.37-.42,4.07.28,1,2.11-.42,2.25-2.67.28-3.23-.42-1.26-.57-2,.14-2.1,1.26-2.24,2.52-.28,4.06.7,5.33a3.13,3.13,0,0,0,3.22,1.4c1-.28,1.12,1,.42,1.68s-1.61,1.11-1.54,2.1c.05.66,1.26.7,2.1,2a3.8,3.8,0,0,0,3.79,1.83,3,3,0,0,1,3.08,1c.56.7,1.4,1.82,2.53,1.12a1.73,1.73,0,0,1,2.66.7,2.77,2.77,0,0,1-1.26,3.5,4,4,0,0,0-1.82,4.21c.42,1.12,1.82,1.68.84,3.22s0,2.53-.7,3.51,1,2.3,1.82,2.24c1.82-.14,2.34-2.06,3.36-.84a3.71,3.71,0,0,1,1.12,3.08c-.28,1.12-.44,1.72.25,1.61C1153.05,147,1155.93,146.38,1156.69,145.38Z" transform="translate(-932.24 69.38)"/><path class="cls-1" d="M992.65,43.85a19,19,0,0,0-4-1.9,4.25,4.25,0,0,1-2.68-2.51c-.52-1.46-1.9-.86-2.33-2.15s.08-2.51-1-3.37a10.86,10.86,0,0,1-2.67-2.59c-.52-.86-2-1.47-1.13-2.59s2.25-1.55,1.82-2.59-1-1.12-1-2v-2.5a2,2,0,0,0-1.21-1.81c-.61-.17-3.63-.35-4.4-1.38-1.14-1.52-2.62-1.92-2.62-3.64V11.55a11.85,11.85,0,0,0-2.85-2.41c-1.09-.44-.65-2.85-2.19-2.85s-3.5.44-4.81-.66-2.41-2.4-4.16-2.18-3.29,1.09-3.5,2.18a5.44,5.44,0,0,1-2.63,3.29,4.83,4.83,0,0,0-2.63,3.72c-.22,1.75-2.63,3.5-4.38,4.6s-3.06,2.19-3.94,2.19h-6.77q-.27,8-.56,16c-.1,2.89-1.31,4.9,1.83,5,1.13,0-.48,2.35.66,2.38,2.15.08,1,0,.95,2.15,0,1.16,2.4-.61,2.32,1.63-.09,2.54,1.15,0,2.32,1.27s-1.43,2.32,1.1,2.41c.62,0-.43,1.81.49,1.77a2.75,2.75,0,0,1,2.24,2c0,.43-.21.85,0,1s.79,0,1.38,0c1,.19,1.3,1.16,1.38,2.36h39.52V52.05c0-1.21.69-1.73.86-2.76s1.56-2,1.81-1.21,1.08.7,1.82,1a8.22,8.22,0,0,0,3.54,0C994.47,47.3,993.86,44.8,992.65,43.85Z" transform="translate(-932.24 69.38)"/><path class="cls-1" d="M984.09,14.17c-.88-.65-2-.43-2-1.53S981.24,10,979.93,10s-2,0-1.75-1.09.65-2.85-.66-2.85a2,2,0,0,1-2.19-1.75c-.22-1.09-.22-1.53-2-1.75s-2-.88-2-2-1.09-2-1.75-1.31-3.07,0-2.41-1.32S967-4.22,965.7-4.22s-1.1-1.75-.22-2.84-1.1-3.94-1.31-4.82a3.89,3.89,0,0,0-3.29-3.06c-2.41-.44-1.09-2.85-2.41-4s1.1-1.53,1.75-2.62-2-1.53-1.53-3.5a3.78,3.78,0,0,0-2-3.95c-.87-.43.88-1.53,0-2.4s-1.09-2.41-1.09-4.16-.22-2.85-2-1.75-1.32-.88-.44-2,2-2,2.41-3.5,0-2.63-1.32-2-1.75-.44,0-2,1.1-3.28.88-4.6-1.1-2.19-2.19-3.5.22-3.72,1.09-4.82-1.31-2.18-2.62-2.4.44-1.76,1.31-2,1.31-.88.22-2a2.7,2.7,0,0,1-.66-2.23c-6,0-12-.23-18.1-.44,0,.41.11.83.16,1.24.68,5.19,1.8,10.42,1.62,15.65L935.36-33q-.55,15.86-1.1,31.71-.37,10.37-.73,20.75h6.77c.88,0,2.19-1.1,3.94-2.19s4.16-2.85,4.38-4.6a4.83,4.83,0,0,1,2.63-3.72,5.44,5.44,0,0,0,2.63-3.29c.21-1.09,1.75-2,3.5-2.18s2.84,1.09,4.16,2.18,3.28.66,4.81.66,1.1,2.41,2.19,2.85a11.85,11.85,0,0,1,2.85,2.41v3.28H985Z" transform="translate(-932.24 69.38)"/><path class="cls-1" d="M986.93-12.32c0-.87-.65-2.84-.65-4.59s.87-3.07.87-5.26V-41.65h-2.41a4.48,4.48,0,0,1,0-3.07,4.78,4.78,0,0,0,.88-2.84c0-1.32-1.31-2.63,0-3.51s.44-1.31-.44-2.84-3.06-2.63-1.31-3.29.66-1.75-1.31-2.84-2.85-1.54-3.07-3.51.66-2.4.88-3.94c0-.3.06-.81.08-1.45-4.57,0-9.15.19-13.8.44s-9.56.34-14.31.32a2.7,2.7,0,0,0,.66,2.23c1.09,1.09.66,1.75-.22,2s-2.63,1.75-1.31,2,3.5,1.31,2.62,2.4-2.18,3.51-1.09,4.82,2,2.19,2.19,3.5.88,3.07-.88,4.6-1.31,2.63,0,2,1.75.44,1.32,2-1.54,2.41-2.41,3.5-1.31,3.07.44,2,2,0,2,1.75.22,3.28,1.09,4.16-.87,2,0,2.4a3.78,3.78,0,0,1,2,3.95c-.44,2,2.19,2.4,1.53,3.5s-3.06,1.53-1.75,2.62,0,3.51,2.41,4a3.89,3.89,0,0,1,3.29,3.06c.21.88,2.18,3.72,1.31,4.82s-1.1,2.84.22,2.84,2.19.88,1.53,2.19,1.75,2,2.41,1.32,1.75.22,1.75,1.31.22,1.75,2,2,1.75.66,2,1.75a2,2,0,0,0,2.19,1.75c1.31,0,.88,1.75.66,2.85s.43,1.09,1.75,1.09,2.19,1.54,2.19,2.63,1.09.88,2,1.53l.87.66.66.66h5V11.55c0-.88-1.76-2-2.19-3.07s1.09-2.19,1.31-3.5,1.75-2.41,1.09-3.72-3.06-2-2.4-2.85,1.31-1.75,2.19-1.09,2.4.21,2.4-1.54h-6.13Z" transform="translate(-932.24 69.38)"/><path class="cls-1" d="M1001.58-68.63c-7.14-.25-14.12-.39-21.13-.31,0,.64,0,1.15-.08,1.45-.22,1.54-1.1,2-.88,3.94s1.1,2.41,3.07,3.51,3.06,2.19,1.31,2.84.44,1.75,1.31,3.29,1.75,2,.44,2.84,0,2.19,0,3.51a4.78,4.78,0,0,1-.88,2.84,4.48,4.48,0,0,0,0,3.07h2.41v19.48c0,2.19-.87,3.5-.87,5.26s.65,3.72.65,4.59v8.1h19.27V-8.38h7.66v-2.19a26.46,26.46,0,0,0-1.53-4.37,18.68,18.68,0,0,1-.88-5.48V-30.71c0-1.31-1.31-1.31-1.31-2.84v-3.94h-4.38v-31C1004.37-68.53,1003-68.59,1001.58-68.63Z" transform="translate(-932.24 69.38)"/><path class="cls-1" d="M1005.76-68.48v31h4.38v3.94c0,1.53,1.31,1.53,1.31,2.84v7.45h27.15c.66-1.75,2-2.19,1.75-3.73s-1.09-5-.22-6.34,3.29-2.63,3.29-4.16v-4.38h9.41v-3.07c0-1.09-.87-1.53-.87-2.41s1.75-.65,1.75-1.75V-66.91C1037.73-67,1021.73-67.87,1005.76-68.48Z" transform="translate(-932.24 69.38)"/><path class="cls-1" d="M1008,15.49H985.62l-.66-.66H971.39c0,1.72,1.48,2.12,2.62,3.64.77,1,3.79,1.21,4.4,1.38a2,2,0,0,1,1.21,1.81v2.5c0,.87.52.95,1,2s-1,1.47-1.82,2.59.61,1.73,1.13,2.59a10.86,10.86,0,0,0,2.67,2.59c1.12.86.61,2.07,1,3.37s1.81.69,2.33,2.15A4.25,4.25,0,0,0,988.6,42a19,19,0,0,1,4,1.9c1.21.95,1.82,3.45,2.51,5.18s.82,2.77,2.12,2.88a7.32,7.32,0,0,0,2.87-.28c.83-.28,1.39,1.85,2.22.93A4.21,4.21,0,0,1,1006,50.7V43.29h9.82c1.2,0-.83-1.3-1.3-1.95s-1.3-.83-1.3-2.31.56-1.67,1.3-2.41.37-1.3.37-2.13-.83-.65-1.39-1.49a2.33,2.33,0,0,1-.46-2.22,7,7,0,0,0,.18-2.41,4.44,4.44,0,0,0-1.76-2.5c-.92-.74-.92-.84-.92-1.58a4.48,4.48,0,0,0-.93-2.69c-.74-1-1.57-1-1.57-2Z" transform="translate(-932.24 69.38)"/><path class="cls-1" d="M1044.15,24.29a7.09,7.09,0,0,1,1.26-2.09,2.68,2.68,0,0,0,.95-2.31c-.21-.63-.74-1.05-.11-1.47s1.26-.84,1.26-1.79,1-1.89,1-3V-.82c0-.84-.74-1.47-.74-2.31V-8.76h-9.12v-14.5h-27.15v2.84a18.68,18.68,0,0,0,.88,5.48,26.46,26.46,0,0,1,1.53,4.37v2.19h-7.66v4.16H993.06c0,1.75-1.53,2.19-2.4,1.54s-1.54.21-2.19,1.09,1.75,1.53,2.4,2.85S990,3.66,989.78,5s-1.75,2.41-1.31,3.5,2.19,2.19,2.19,3.07v3.94H1008v4.08c0,1,.83,1,1.57,2a4.48,4.48,0,0,1,.93,2.69h33.62Z" transform="translate(-932.24 69.38)"/></svg>