<svg id="base_map" data-name="base map" xmlns="http://www.w3.org/2000/svg" viewBox="0 0 400.84 334.24"><defs><style>.cls-1{fill:#015067;stroke:#fff;stroke-width:0.84px;}.cls-2{fill:none;}</style></defs><path class="cls-1" d="M546.33,416.19h7.17c1.79,0,1.79-1,2.68-1.49s2.83.3,3.58.9,1.79,1.94,2.54,1a1.72,1.72,0,0,1,2.53,0c.6.6,1.46.44,2.5.29-.61-1.22-1.59-1.58-1.1-2.8a2.68,2.68,0,0,0-.48-2.93,2,2,0,0,1,.12-2.45c.49-.61.12-1.46-.25-2.32a10.81,10.81,0,0,1-1.1-2.93c-.12-1.09.86-1.46,1.59-2.8s-.12-2.94.25-4.28,1.71-2.81,1.58-4.27a8.31,8.31,0,0,1,.37-3.54,8.43,8.43,0,0,0-3,.73,31.52,31.52,0,0,1-6.86,1.5c-1.35,0-2.54,1.64-4.18,1.49s-4.63.74-6,.74-2.83,1.5-4,1.5-1.94,1.64-2.83,2.53-1.79.9-2.39,2.24.45,1.94.45,3.28.15,3.14.15,4.18.74,1.49,1.79,1.49,1,.75,1,2.39.15,2.39,1.64,2.39S546.33,414.4,546.33,416.19Z" transform="translate(-168.03 -83.25)"/><rect class="cls-2" width="18.83" height="32.37"/></svg>