<svg id="base_map" data-name="base map" xmlns="http://www.w3.org/2000/svg" viewBox="0 0 222.67 319.11"><defs><style>.cls-1{fill:#015067;stroke:#fff;stroke-width:0.84px;}.cls-2{fill:none;}</style></defs><path class="cls-1" d="M387.82,383.35c-1-.49-1-1.09-1-2.07V374c0-.85.12-1.21-.37-1.82s.12-1.22.49-1.94a3.52,3.52,0,0,0-.24-2.44c-.25-.85-.37-1.58.6-2.06a3.09,3.09,0,0,0,1.7-2.31v-3.16c0-.73-.72-1.34-1.7-2.55a2.51,2.51,0,0,1-.73-2.07v-.85H373.36v3.77c0,1-2.19,1.21-3.65,1.21H348.93a4.93,4.93,0,0,0-2.55.85,6.44,6.44,0,0,1-2.92.61h-3v4.62h9.11v12.76h2.92v11.18h9.23c1.46,0,1.34,1.09.61,1.82s-1.94,1.34-1.94,2.31c0,1.22,1.09,1.46,1.7,2.07s.85,1.58-.61,1.58h-9v4.37h25.39c1.83-1.09,4.2-2.92,6-3.64a35,35,0,0,0,4.13-1.95,9.64,9.64,0,0,1-1.09-2.67c0-.73-.37-1.46.36-2.43s1.34-1.58,1.34-2.8.85-1.7,1.58-3S388.79,383.83,387.82,383.35Z" transform="translate(-168.03 -83.25)"/><rect class="cls-2" width="18.83" height="32.37"/></svg>