<svg id="base_map" data-name="base map" xmlns="http://www.w3.org/2000/svg" viewBox="0 0 471.45 436.66"><defs><style>.cls-1{fill:none;stroke:#006838;stroke-linecap:round;stroke-linejoin:round;stroke-width:5px;}</style></defs><path class="cls-1" d="M661,339.88a26,26,0,0,1,0,4.56c-.09,2.58-2.36-.28-2.45,2.28,0,.8.24,3.57-.49,3.54-4.18-.14-1.4,4-1.53,7-.07,1.43-2,3.06-6.23,6.38-1.37,1.08-.44,3.39-.46,4.1a4,4,0,0,1-2.13,2.54c-1.92.32-1.56,1.09-2.33,2.23-1.36.52-.45,1.26-.06,1.56.61.46,0,1.83,1.55,1.88,1.8.07,1.62,2,0,2.35-2,.13.35,1.46.82,3a10.41,10.41,0,0,1,0,3c-.06,1.62-.46,1.16-2,1.11-1,0,.08,1.87-.45,2.36s-2.34-.77-2.38.29c0,.47,0,.94-.05,1.42" transform="translate(-615.29 -106.68)"/><path class="cls-1" d="M642.79,389.46l-.06,1.76c0,1.19-.08,2.37-.13,3.56a4.35,4.35,0,0,0-.05,1.63c.19,1.13,1,1.82,2,2.86a1.21,1.21,0,0,0,.91.34l1.38.05c.71,0,.26,2.77.24,3.56-.06,1.69.41,4.08-.31,5.26-.16.25-.49.62-.41.66a.93.93,0,0,1,.49.52,3.23,3.23,0,0,1-.06,1.84l-.09,2.39,1.66,1.75c.21.23-.18.53-.48.53-2.12.05-1.19,2.66-1.42,4.8-.15,1.34.17,1.81-.73,2-.57.1-.57.41.15.57s.57,1.14.26,1.74a7.77,7.77,0,0,1-.48.78" transform="translate(-615.29 -106.68)"/><path class="cls-1" d="M645.61,426a29.79,29.79,0,0,1-4.43,4.41c-2.84,2.65-4.7,3.66-4.83,7.63-.15,4.16-5.22,10.81-9.5,10.66-.73,0-.47,2.74-.5,3.54-.05,1.53.6,1.86,1.66,3,.83.91-.07,2.36.5,3,.8.87,2-.63,2.73.83,1.18,2.59,2.26,6,5.28,3.15l3.71-3.44c.54-.5,1.92.08,2.63-.07l9.3-2c1.88-.4,3.92.34,5.85-.07,5.48-1.19,10.23-2.57,15.73-1,2.71.78,6,2.91,8.18.86,1.83-1.73,3.86-1.06,6.32-1,5.12.18,10-.23,14.76,1.86,4.94,2.18,9.81,5,14.85,6.89q8.43,3.17,16.87,6.3a25.2,25.2,0,0,1,6.23,3.67c2.58,1.85,3.5,2.21,6.63,2.33h.11V427.86" transform="translate(-615.29 -106.68)"/><path class="cls-1" d="M738.09,427.86c1.83-1.09,4.2-2.92,6-3.64a36.28,36.28,0,0,0,4.13-1.94,9.82,9.82,0,0,1-1.09-2.68c0-.73-.37-1.46.36-2.43s1.34-1.58,1.34-2.79.85-1.71,1.58-3-1.34-1.58-2.31-2.07-1-1.09-1-2.06v-7.29c0-.85.12-1.22-.37-1.83s.12-1.21.49-1.94a3.45,3.45,0,0,0-.25-2.43c-.24-.85-.36-1.58.61-2.07a3.1,3.1,0,0,0,1.7-2.31v-3.16c0-.73-.73-1.33-1.7-2.55a2.49,2.49,0,0,1-.73-2.06v-.85" transform="translate(-615.29 -106.68)"/><path class="cls-1" d="M729.47,337.57h8c1,0,1.84-.81,3.4-.81h8.43V368c0,1.63.28,2.76.92,3.4s1,1.35.42,2.05-.7,1.63-1.48,2.06a3.36,3.36,0,0,0-1.63,1.84c-.21.71.14,1.56-.21,2.12a4.68,4.68,0,0,0-.52,1.26" transform="translate(-615.29 -106.68)"/><path class="cls-1" d="M885.57,156.74c.43-.56,2.33.81,2.37-.28,0-.61-.3-2,.44-2,2.77.1,2-1,2.14-3.46.05-1.38-.69-2.09-1.58-2.95-.55-.53-.83-.74-.77.82.12,3-1.08,5.55-5.26,5.4-1.73-.06-4.41.68-4.34-1.33.06-1.57.11-3.15.17-4.72.09-2.57,2.37.31,2.49-3.09,0-.8,4.34-2.69,5.15-2.66,1.58.06,2,.52,2-1.12,0-.88.28-1.09-.48-1.38l-6-2.23c-2.22-.83-2.18.65-2.07-2.27,0-1.57.77-3.15.83-4.72.09-2.64.32-3,2.28-4.78,1-.9,2.55-.07,3.86-1.3,1.55-1.45,3.37-7.19,1.8-8.89a30,30,0,0,1-2-4.18c-.5-1.08-1.83-.88-3.57.74-.29.88.37,1.19,1.07,1.75s-2.63,1-1.23,2.94c1.59,2.22,1.24,1.8-.71,3.63-.68.64-2.83.15-3.81.12-1.75-.06-1.11-.8-1.09-2.42,0-2.13.12-2.39,1.66-3.84.62-.58,1.67-2.25.94-3.15s-8.36-.22-9.49-.26l-1.07,0v.09" transform="translate(-615.29 -106.68)"/><path class="cls-1" d="M889,203.52l.52.62c.41.44,1.5.55,1.53-.18.06-1.71,1-4.32-1-4.39-1.71-.06-2.33-1.23-2.79-.89s-.2,1.36,1.37,3C889.39,202.6,888.63,203.09,889,203.52Z" transform="translate(-615.29 -106.68)"/><path class="cls-1" d="M882.28,194.62c1.34.13,2,.06,2-2,0-.56,1.47-.63,1.93-.35.31.19.77,1.24,1.07.87,1-1.24,4.17-1.42,4.22-.24s-.65,4-.29,4.34c1.08,1.16,2.37-.1,2.41-1.1q.14-3.94.28-7.89c0-1.63-.55-2.77,1.28-2.71,1.09,0,1.38.46,1.31,1.27,0,.32.23.75.48.54,1.7-1.42,4.19-3.19,4.26-5.15.1-2.82.25-3.57,2-5.29.3-.34.69-.9,0-.94-1.18-.07-1.74.18-1.79,1.49,0,1.54-.71,1.81-1.86,2.88s-4.54.45-6.24.4c-2.51-.09-1.4-3-1.32-5.18s-.09-2,2.06-1.93c.75,0,.43-1.69.46-2.33.14-4-2.33-2.4-4.46-.4-1.05,1-5,.12-5.8-.79-1.87-2-3.8-3.22-3.7-6a4.22,4.22,0,0,1,2.52-3.52c.68-.39,2.53,1.18,3.79,2.53,1.78,1.94-.54,3.18,2.73,3.3,1.89.06,3.62.44,2.8-2.27s-3-1.69-4.65-2.54c-1.18-.6-3.3-3.36-2.19-4.83" transform="translate(-615.29 -106.68)"/><path class="cls-1" d="M798.16,110.86l-52.38.38c-2.31,0-4.63,0-6.94,0V129c0,1.1-1.75.88-1.75,1.75s.87,1.32.87,2.41v3.07" transform="translate(-615.29 -106.68)"/><path class="cls-1" d="M854.39,110.63l-3.14-.1c-11.7-.41-23.49.1-35.21.2l-17.88.13" transform="translate(-615.29 -106.68)"/><path class="cls-1" d="M869.36,111.17v-.09c-4.5-.15-10.17-.3-15-.45" transform="translate(-615.29 -106.68)"/><path class="cls-1" d="M861.18,245.43a3.67,3.67,0,0,0,.56-1.4c0-.56-.54-1.07-.5-1.61.17-2.3.19-4.61.25-6.92a1.1,1.1,0,0,1,.74-1,17.44,17.44,0,0,0,3.63-2.24c.27-.2.47-.08.44.14-.13,1.23-.48,3.7-.11,4.21,1,1.5,2.37-.38,2.28,2.46,0,1.2,4.2-1.07.4-4.48-1.87-1.67,1.07-1.58,1.83-2.56s2.18-3.95,2.65-4.38c1.77-1.65,2.57,1.34,2.69-2.16a9,9,0,0,1,5-7.32c1.68-.75,3.76.51,4.81-2.19s-.5-2.26-2.28-2.47c-.85-.1-4.75.29-4.72-.54s-.18-4.36.52-4.33c3.4.12.55,2.38,3.1,2.47,1.65,0,3.51.88,3.58-1.06s2.47-2.28,2.53-3.83c0-.45.3-1.57.06-1.78l-.58-.47a9.7,9.7,0,0,0-1.8.15c-1.62.06-3.31-.11-4.93-.17-1.8-.06-4.58.77-4.5-1.33.1-3-.58-8.32,3.85-8.17.61,0,1.14.09,1.59.13" transform="translate(-615.29 -106.68)"/><path class="cls-1" d="M732.85,169.38V175c0,.84.74,1.47.74,2.31v14.4c0,1.16-1,2.1-1,3.05s-.63,1.37-1.26,1.79-.1.84.11,1.47a2.68,2.68,0,0,1-1,2.31,7.09,7.09,0,0,0-1.26,2.09" transform="translate(-615.29 -106.68)"/><path class="cls-1" d="M879.64,324.76c-14.21.35-28.45.62-42.64,1-.69.11-.53-.49-.25-1.61a3.71,3.71,0,0,0-1.12-3.08c-1-1.22-1.54.7-3.36.84-.84.06-2.53-1.26-1.82-2.24-1.11,1.11-1.63,3.21-2.33,4.17" transform="translate(-615.29 -106.68)"/><path class="cls-1" d="M911.29,323.79l-7.18.24c-8.14.3-16.3.52-24.47.73" transform="translate(-615.29 -106.68)"/><path class="cls-1" d="M930.33,409.06c.88.55,1.87-.77,2.75.22s.44,2.2,1.76,2.2h3c.66,0,1.76-1.43,2.31-2.64a13.24,13.24,0,0,1,1.8-2.68,33.6,33.6,0,0,1,2.08-2.85c.84-1,1.14-3.1,2.07-4.67l3.75-3.9" transform="translate(-615.29 -106.68)"/><path class="cls-1" d="M935.6,323.34h-.06c-7.95,0-16.15.19-24.25.45" transform="translate(-615.29 -106.68)"/><path class="cls-1" d="M831.23,378.92H828.9v-2.71c0-.7-1.74-1.31-2.09-2.62s-.88-2.09-.35-3.14,1-1.84.7-2.8.26-1.66.61-2.45,0-1.74,0-2.44,1.13-1.14,1.13-2.27V357c0-1-1-.52-1.22-1.83s-1.31-1.31-1.31-2.27-.44-1.75-.44-2.62.09-2.88-.78-2.88-2,.34-2.62-.53a2.25,2.25,0,0,1,.08-2.53c.44-.88-1-1.22-1.48-2s.09-1.57,1-1.92.61-1,.61-1.75v-5.07c0-.87-1-1-1-1.92v-2.88c0-.61.79-1.14,1.84-1.14s1.92-1.13,2.44-2.27,1.4-.61,2.1-1.57h0" transform="translate(-615.29 -106.68)"/><path class="cls-1" d="M875.24,428.7c-1,0-2.09.3-2.84-.75s-1.19-2.39-2.68-2.39h-7.31c0-1.49-1.35-4-2.84-4.47s-3.43,0-5.07.3-2.09-.15-1.79-1.35a4.08,4.08,0,0,0,0-3c-.45-1.34.74-3.14-.15-4.78a5.76,5.76,0,0,1-.9-3.58c0-1.34-.89-1.49-2.68-1.49s-2.84-1-4.48-1-2.24-2.09-2.68-3.43-1.65-2.39-2.69-3.59-.75-3.28-.75-4S837,393.78,837,393s1.19-.75,1.19-1.64v-3.73c0-1.35-1.19-2.84-2.08-3.73s-1.35-2.09-2.39-2.39a4.84,4.84,0,0,1-2.53-2.64" transform="translate(-615.29 -106.68)"/><path class="cls-1" d="M930.33,409.06s-.56,1.44-1.05,2.42-.36,1.83-.73,3" transform="translate(-615.29 -106.68)"/><path class="cls-1" d="M949.81,394.74c6.08-6.41,15.54-6.38,15.54-6.38s-.5-18.54-.5-19.75-.88-1.21-.88-2.09,1-1,1-2.09-.77-1.54-.77-2.75v-4.62c0-2.09-.77-3.3-.77-4.28s.22-1.87-.77-2.64-.88-2.09-1.54-2.75-.55-1.76-.55-2.86a2.51,2.51,0,0,0-1.1-2.31,2.84,2.84,0,0,1-1-2.31,7,7,0,0,0-1.43-3.52,9,9,0,0,1-1.87-5.27v-8c-6.52.12-13.06.18-19.57.18" transform="translate(-615.29 -106.68)"/><path class="cls-1" d="M1003.17,362.28c-.92-.28.59-1.77.22-2.23s-.39.39-1.09-.22-.32-1.75-1.15-2.28.34-1.12.81-2.87c.25-.92-1-1.21-.85-2.17.23-2.09,1-1.31,1-3.25,0-1.18.08-2.37.13-3.56a3.6,3.6,0,0,1,.06-1.85c.47-1.22,2.78-.37,3.45-2.78.22-.75-1.13-1.83-1-3a1.74,1.74,0,0,1,2.11-1.73c.13,0,.3-.14,0-.39l-1.32-1.41c-.17-.19-.08-.48.11-.45,2.89.36,1.34-2.75,2-4.14.5-.93-.07-1.15-.05-1.79.1-2.62,1.37.19,2.42-1.1.69-.84,1-3.78,1.11-5.43,0-.27,0-.71-.29-.38-.56.56-1,1.14-1.62,1.69-.21.25-.57.32-.48-.21s0-.86,0-1.29-.34-.54-.53-.52c-13.23,1.56-29.35,1.67-43.43,2.07-3.19.09-6.38.15-9.58.21v8a9,9,0,0,0,1.87,5.27,7,7,0,0,1,1.43,3.52,2.84,2.84,0,0,0,1,2.31,2.51,2.51,0,0,1,1.1,2.31c0,1.1-.11,2.2.55,2.86s.55,2,1.54,2.75.77,1.65.77,2.64.77,2.19.77,4.28" transform="translate(-615.29 -106.68)"/><path class="cls-1" d="M1020.68,415.07h.06c1,0,0-1.94.63-2.5,1.22-1.13,1.8-2.13,3.46-2.07.72,0,3.05.48,3.56.12,1.36-1-1.07-2.4.69-2a2.16,2.16,0,0,0,1.85-.81c.61-1.06-1.41-2.6-2.12-.47a1.88,1.88,0,0,1-2.72.82,3.19,3.19,0,0,1-.78-1.11,13.12,13.12,0,0,1-1.4-4.09c.13-3.57-2.36-.49-2.24-4.08.06-1.62-1.42-1.9-.72-2.87s1.46-6.12,1.07-6.95-1.23,3.63-2.43,2.29-1.67-3.74-2.2-4.83.06-1.88.12-3.55-.39-1.2-2-1.26c-.81,0-.2-1.72-.28-2.38s.52-2.36-.29-2.39c-1.58-.05-2,.38-2-1.26.05-1.3-1.65-1.36-2.5-1.43s-1.24-1.37-2.11-2.26.58-1.59.09-2.38-1.57-.39-2.53-.23-.35-1-1.31-1.45.65-.82-.6-1.81,0-3.56-.89-3.85" transform="translate(-615.29 -106.68)"/><path class="cls-1" d="M964.19,357.06v4.62c0,1.21.77,1.65.77,2.75s-1,1.21-1,2.09.88.88.88,2.09.5,19.75.5,19.75" transform="translate(-615.29 -106.68)"/><path class="cls-1" d="M1001.59,431c-1-2.79.63-5.15,2.44-6.85.84-.79,2.31.14,3.42-.9,1.73-1.6,1.46-1.6,3.07.11,3.14,3.34,3.25-1.08,3.33-3.43,0-.73,2.77-.28,3.56-.25,1.9.07,1-.7,1.27-2.3.42-2.23-.52-2.41,2-2.32" transform="translate(-615.29 -106.68)"/><path class="cls-1" d="M1026.66,460c-.4-4.51-4.75.34-4.59-4.18,0-1.61-.54-2.75,1.28-2.69,1.13,0,1.39.49,1.29,1.38-.35.95.21.66.46.46,1.72-1.38,4.52-3.24,4.17-.29-.29.68-.11,1.24.62.41.92-1.05,1.44-2,2.55-.81,1.58,1.68,1.66,1.38,3.85,1.67s2.28,0,3.85,1.67a2.82,2.82,0,0,0,2.51,1c.62,0,.35-.75.19-1.09l-1.32-2.87c-.37-.87,0-1.19,1.29-1.24a3.52,3.52,0,0,0,3.11-1.86c1.31-2.28-.79-2.41,2.83-2.28,2.76.1,2.07,1.48,4.28,2.53a9.69,9.69,0,0,0,3.52.2c.88,0,.74-.54.52-.77a4.75,4.75,0,0,1-1.53-2.34c-.08-1.08-.63-1.15-1-.85-1.74,1.45-3.85,2.64-3.73-.69,0-1.5-1.48-2.4-3-2.75-1.69-.37-.89-1.06-.39-1.56a2.39,2.39,0,0,1,1.52-.89c1.09,0,3.36.51,4.36.15,1.69-.6,1.63-2.3,3.64-2.23,1.44.05,2.13-.74,3-1.68.55-.49.55-1-.28-1-2.36-.08-4.6.24-7,.16-1.5.05-1-.74-.55-1.23,1.28-1.43,3-3.41,4.16-3.37,2.93.11,4.34,1.07,4.45-2.22.05-1.6.63-2.32-1.1-2.38s-1.15-.49-1.1-2.06c.08-2.34-4.33,1.39-4.63,1.68-1.39,1.31-1.94,4.86-2.6,6.65-.28.74-2.67.62-4,.4-.54-.08-1.24,0-.88-1.2.31-1.08.68-2.34.11-3.38-.27-.5-1.91-.07-2.35-.29-1.27-.64-2.75-2.68-3.88-4.1-.57-.59-.31-1,.42-.75,1.77.61,2.32-2.29,4.08-2.23,1.58.06,2,.52,2-1.12,0-1.06.31-1.19-.7-1.22-2.1-.08-4.24-.06-6.34-.22-1.83-.15-2.48-.35-3.34-1.15-.37-.34-1.44-.69-1.48,1.44,0,1.73-.81,2.68-2.79,4.53-1.21,1.14-1.66,2-3.3,1.94-1.82-.06-1.1.69-1.27,2.3-.27,2.45-.18,5-.26,7.47-.13,3.62-.75.34-2.45,1.92-1.24,1.16,1.26,2.41-1.26,2.32-2.21-.08-6.28.59-8.27-.29-1.82-.8-3.54-5.44-2.12-7.18s2.3,1.81,2.43-1.9c0-.69-2.13-.66-2.61-.22-2,1.86-3.68,1.94-5.58,3.13a2.72,2.72,0,0,1-2.22-.17c-1.58-.66-2.73-.64-3.8-3.61" transform="translate(-615.29 -106.68)"/><path class="cls-1" d="M989.55,485.82a4.76,4.76,0,0,1,2.68-.61l5.48.19c2.75.1,2.16-1.44,4.44-2.22,3.07-1.06,2.32,1.72,2.25,3.63-.08,2.41-.33,3.34,1.36,5.13,1.34,1.44.71,3.49.64,5.4,0,.56,0,1.05,0,1.44-.21,1.19-.27,1.9.72,1.51,2.36-1,5.44-.17,8-.08,1.81.06,3.63,1.6,5.19,2.46,1.17.63,2.7.26,4,1,3.74,2,6.78,4.23,11.08,4.38,2.06.07,2.54,2.46,4.14,2.52s3.58.56,4.28,2.51c.28.8-.74,4.72.2,4.75,2.93.1,2,1.32,1.87,4.06,0,1,2.45.94,3.49,2a11.7,11.7,0,0,0,3.49,1.68c.25.87-.39,2.81-.93,4.76-.32,1.09-1.78,2.59-2.59,3.48s-3.52,2.26-3.57,3.71c-.06,1.67.06,2.15.71,2.92,1,.94,1.85-.2,2.26-.91a27.9,27.9,0,0,0,1.35-2.57c.43-1,0-2,.64-2.64,2.28-2.12,3.91-8.26,6.87-9,1.12-.26,3.57.12,4.74.16,2.33.08,2.38-.28,2.3,2.09-.1,2.76,3.43,3,5.75,3,.57.1,1.56-.26.2-1.13-.41-.44-1.08-1.46-.24-2.28,1.79-1.73,3.34-3.63,5.9-3.54,5.43.19.53-2.42,3.09-4.8,1.68-1.58,2.25-1.83,2.33-4.12,0-1.17,2.36.78,2.44-1.46,0-.8.48-3.55-.25-3.57-1.74-.06-2.34-.14-2.08-1.72.23-.67-.08-.67-1.3.06-1.78,1.05-4.47,2.3-5.71,1.34s1.52-2.31-1.11-2.4c-2.26-.08-.35-.91-1.1-2.41-.47-1-1.8-1.5-2.28-2.46-.76-1.51,1.16-2.33-1.11-2.4s-.37-.91-1.1-2.44c-.28-.58-2.09-2.62-2.54-2.2-1.23,1.14-2.18,1.57-2.24,3.23,0,1.36-.92,1.76-2.41,1.12-2.66-1.14-1.4-4.81-3.38-4.88s-6,.69-5.88-1.37c.08-2.25-.88-.41-2.32-1.26a7.74,7.74,0,0,1-1.78-1.86c-.21-.38-.78-.53-.63.14.44,1.86-1.11,1.6-3.08,1.53-2.42-.09-4.09.58-4-1.63.25-.78-.12-.78-.56-.58l-3.1,1.42c-1.12.66-.95-.15-.94-.43.07-1.61-.79-2.28-2.08-3.65-.38-.41.85-1.42,1.66-2.08.5-.28.65-.59-.7-.51a8.12,8.12,0,0,1-3.63-.5c-.35-.34,0-2,.21-3.31.06-.47.36-1.41-.71-.61s-3.21,1.95-4,1.78-2.55-2.94-3.1-3.33-1.89-1-3.12-1.8a1.23,1.23,0,0,1-.51-1.66c.29-.85.86-1.23,1.74-2,.21-.19.73-.89-.62-.73s-1.15-.85-1.09-2.55c.07-2.31-.26-2.4,2.09-2.32.73,0,.46-2.74.49-3.53.07-1.83,1.15-1.15,2.78-1.09,1.16,0,6.8.81,8.23.52.88,1.38-.66,2.12,2.79,2.24.71,0,1.46.95,2.07,1.72.43.76.79.39.81-.38,0-1.32-.44-1.61-2-1.66-1.12,0-2-2.86-3.63-2.47-1.14-.31-1.55.21-3-1.32-.69-.75-3.1-.62-3.17-1.32" transform="translate(-615.29 -106.68)"/><path class="cls-1" d="M985.26,491.69c.09-2.59-.78-4.39,2.16-4.29.91,0,1.5-1,2.13-1.58" transform="translate(-615.29 -106.68)"/><path class="cls-1" d="M927.57,442.86c-.61-1.22-1.59-1.59-1.1-2.81a2.66,2.66,0,0,0-.49-2.93,2,2,0,0,1,.13-2.44c.48-.61.12-1.47-.25-2.32a10.94,10.94,0,0,1-1.1-2.93c-.12-1.1.86-1.47,1.59-2.81s-.12-2.93.24-4.27,1.71-2.81,1.59-4.28a8.33,8.33,0,0,1,.37-3.54c.37-1.22.24-2.07.73-3s1.05-2.42,1.05-2.42c.88.55,1.87-.77,2.75.22s.44,2.2,1.76,2.2h3c.66,0,1.76-1.43,2.31-2.64.23-.49,2-2.94,4-5.73,1.08-1.47,1.07-3.72,2.34-5,.79-.79,2.08-2.24,3.33-3.39a32.19,32.19,0,0,1,2.9-2.46,21.55,21.55,0,0,1,6.54-3" transform="translate(-615.29 -106.68)"/><path class="cls-1" d="M906.57,442.12h7.16c1.79,0,1.79-1.05,2.69-1.49s2.83.29,3.58.89,1.79,1.94,2.54,1.05a1.7,1.7,0,0,1,2.53,0c.6.59,1.46.44,2.5.29-.61-1.22-1.59-1.59-1.1-2.81a2.66,2.66,0,0,0-.49-2.93,2,2,0,0,1,.13-2.44c.48-.61.12-1.47-.25-2.32a10.94,10.94,0,0,1-1.1-2.93c-.12-1.1.86-1.47,1.59-2.81s-.12-2.93.24-4.27,1.71-2.81,1.59-4.28a8.33,8.33,0,0,1,.37-3.54" transform="translate(-615.29 -106.68)"/><path class="cls-1" d="M875.24,428.7h0c0,1.94-.6,3-1.2,3H872V435h0a9.18,9.18,0,0,1,1.94,4.51c.28,1.68,1.12,1.82,2.1,2.24s1.26,2.25,1.26,3.65-.14,2.38,1,2.8a15.78,15.78,0,0,0,3.37.42c.84.14,2.38,0,2.94.84s2.66,1.82,2.52,3.23-1.12,2.1-.28,3.36,1.83,2.66.42,3.37c-.84.42-1,1-1,2.1a16.7,16.7,0,0,1-.14,2.1c.84,1,1.68,2.52.84,3.78s-.84,2,.14,2.53a2,2,0,0,1,1,1.62h0a1.43,1.43,0,0,0,1.79-1.35c.15-1.19,1.64-1.94,2.54-3.28,1.38-2.06,2.38-4,3.73-5.38s.89-1.49,3-4.47a42.72,42.72,0,0,0,4-7.31c.9-1.94,1-3.43,1.49-4.18s1.94-.6,1.94-.6v-2.83" transform="translate(-615.29 -106.68)"/><path class="cls-1" d="M953.65,514.66c1.41-.63.83-2.78,1-3.61a19.74,19.74,0,0,1,2.68-6.86c.36-.88,2.09-1.64,3-.45a28.48,28.48,0,0,0,2.24,3.26c1.07,1.16.14,2.61,1,3.51,1.79,1.91,1.94,2,2,4.57,0,.83-.62,4.08-.16,4.73.28.39,2.09-.31,2.37.08s-.07,1.89-.08,2.37c-.12,3.48-.2,1.21-2.46,2.3s-1.54,2.43-4.24,2.34c-.54,0-1.65,1-2.55,1.45-2.47,1-2.42,1.95,1.2.67a101.84,101.84,0,0,0,20-9.52,53.84,53.84,0,0,0,8.16-6.86c2-1.87,4-4.72,6.55-5.67,1.21-.3,1.46-.88.23-.72a8.13,8.13,0,0,0-5.12,2.56c-1.25,1.16-1.82,2.11-3.49,2.53s-1.61-.23-1.71-.5c-1.09-2.66-4.19-5-4.07-8.28.06-1.65.47-1.17,2-1.12,1.1,0-.26,1.94.3,2.39s4.21.14,5.1.18c2.84.09,2.92-2.28.08-2.38-1.9-.07-3.69.19-2.66-2.47.52-1.34,4-2.45,2.54-4.67-.39-.59-2.4.65-2.36-.45,0-.78.06-1.57.08-2.35" transform="translate(-615.29 -106.68)"/><path class="cls-1" d="M927.57,442.86c-1,.15-1.9.3-2.5-.29a1.7,1.7,0,0,0-2.53,0c-.75.89-1.79-.45-2.54-1.05s-2.68-1.34-3.58-.89-.9,1.49-2.69,1.49h-7.16V445s-1.49-.15-1.94.6-.59,2.24-1.49,4.18a42.72,42.72,0,0,1-4,7.31c-2.09,3-1.64,3-3,4.47" transform="translate(-615.29 -106.68)"/><path class="cls-1" d="M896.13,461.51c-1.35,1.35-2.35,3.32-3.73,5.38-.9,1.34-2.39,2.09-2.54,3.28a1.43,1.43,0,0,1-1.79,1.35,5.84,5.84,0,0,0-3.43,1.34c-.9.74-3.28,2.24-4.63,1.64a2.27,2.27,0,0,0-3,.6c-.9.89-1.94,1.79-1.94,2.68s.15,1.79-1.34,1.79-2.69.45-2.69,1.49a35.5,35.5,0,0,1-.89,4.59,3.24,3.24,0,0,1,2.34,1c1.38,1.45,1.48,1.57,1.42,3.56,0,.95,1.73.09,2.34.45,3.38,2,1.6,3.75.15,6.39-.76,1.39-1.52.11-2.76.65-.79.35-1.63,1.52-2.27,2.12-1,1-.07,4.92-3.09,4.81-2.16-.08-1.71-.29-1.93-2.07-.29-2.28-2.72-1.6-1.41.56s3.62,3.88,5.44,5.82c.85.9,1.74.25,2.85.59a22.72,22.72,0,0,1,3.93,2.14c1.21.66,1.83,2.29,3,2.84,1,.44,3,.1,4,.14,2.23.08,3.81,2.51,6,2.59,4.51.15,12.12-1.08,15.28,2.29,1.59,1.69,1.49,5.41,4,5.5,1.9.06,3.6,2.35,5,4,.26.33.82,1.46.64-.14-.1-.88.26-1.31,1.39-1.27,2.53.08,0-1.18,1.26-2.33s2.3,1.42,2.39-1.1c0-1.63.48-1.17,2-1.11l7.11.25c1.12,0-.31-2.39.82-2.36s2,.55,2-.66c.07-1.85-.66-6.4,1.41-6.33,1,0,5.9.52,5.93-.17,0-1.32.09-2.66.14-4,0-1.13-2.37.31-2.33-.82.11-3.14,2.55-1,2.59-3.29-.38-1.31.68-.16,1.07.26s1,2.27,1-.11c-.06-3.41,4.18,1.46,5.24,1.49,4,.14.49,3.33,2.65,5.66.63.68,2.28,2.37,3.84,1.67" transform="translate(-615.29 -106.68)"/><path class="cls-1" d="M815.79,461.55c.29,1.32,1,2.15,2.39.82a22.46,22.46,0,0,1,6.86-4.23c1.35-.62,13.52-.57,14.43.4.47.5-.06,6.94-.5,7.34-1.23,1.13-2.17,1.55-2.23,3.21-.07,1.83.69,1.09,2.32,1.28.58.06,7.1,0,7.08.45-.11,3.37-.31,4.22,1.64,6.44.15.17.67.57,0,1.05a6.84,6.84,0,0,0-2,2.94c-.25.73,0,1.3,1,.77,2.75-1.08,5.33-1.52,7.57-3.11.36-.25,1.08-1.14,1,.73-.09,2.05,2,3.22,4.27,3.3,2.81.1,4.15.87,6.65,2.24,1.23.67,2.64.41,3.94.47a35.5,35.5,0,0,0,.89-4.59c0-1,1.19-1.49,2.69-1.49s1.34-.89,1.34-1.79,1-1.79,1.94-2.68a2.27,2.27,0,0,1,3-.6c1.35.6,3.73-.9,4.63-1.64a5.84,5.84,0,0,1,3.43-1.34h0a2,2,0,0,0-1-1.62c-1-.56-1-1.26-.14-2.53s0-2.8-.84-3.78-2-2.52-3.08-2.52-3,.28-3.93-.56a5.35,5.35,0,0,0-3.22-1.55,7.91,7.91,0,0,1-4.21-1.12,10,10,0,0,0-5.6-1.54,9,9,0,0,1-4.77-1c-1-.56-.7-2.8-.28-4.2s1-2.67,0-3.65a9.92,9.92,0,0,1-2.24-3.78,5,5,0,0,0-2.24-2.95,11.48,11.48,0,0,1-4.35-4" transform="translate(-615.29 -106.68)"/><path class="cls-1" d="M746.84,381.57a2.49,2.49,0,0,0,.73,2.06c1,1.22,1.7,1.82,1.7,2.55v3.16a3.1,3.1,0,0,1-1.7,2.31c-1,.49-.85,1.22-.61,2.07a3.45,3.45,0,0,1,.25,2.43c-.37.73-1,1.33-.49,1.94s.37,1,.37,1.83v7.29c0,1,0,1.58,1,2.06s3,.73,2.31,2.07-1.58,1.82-1.58,3-.61,1.82-1.34,2.79-.36,1.7-.36,2.43a9.82,9.82,0,0,0,1.09,2.68" transform="translate(-615.29 -106.68)"/><path class="cls-1" d="M804.91,471.59a10.45,10.45,0,0,0-1.08-.09l-7.46-.26c-3.49-.12-3-2.12-4-5.39-.92-3.11-.53-4.15,1.81-6.35,1.91-1.79,4.76-3,7-4.37s4.44-1.83,6.3-3.47" transform="translate(-615.29 -106.68)"/><path class="cls-1" d="M748.18,422.28a36.28,36.28,0,0,1-4.13,1.94c-1.76.72-4.13,2.55-6,3.64h9.6v48.81c4.85.16,9.87-.09,14.64.76,5.78,1,11.62,2.52,17.5,2.72,2.8.1,5.07-2.49,7.74-3.71,2.13-1,4.14-.61,6.47-.53,1.75.06,5.86-.5,7.33.56l.09.07" transform="translate(-615.29 -106.68)"/><path class="cls-1" d="M746.84,381.57v-.85a4.68,4.68,0,0,1,.52-1.26c.35-.56,0-1.41.21-2.12a3.36,3.36,0,0,1,1.63-1.84c.78-.43.92-1.35,1.48-2.06s.22-1.41-.42-2.05-.92-1.77-.92-3.4V336.76H758c1,0,1-.91,1.84-1.25s.78-.88.78-1.49-.78-.7-.78-1.66.7-1.4,1.57-1.48,1.31-1.05,2.88-1.49,2.36-1.22,2.36-2,1-1.22,2.36-1.22a5.21,5.21,0,0,1,3.76,1.66c.7,1,1.22,1.75,2.18,1.75h3.58s.09,2.27.09,3.14,1.57,2.18,2.27,2.8a3.74,3.74,0,0,1,1.4,2.7v4h2.27" transform="translate(-615.29 -106.68)"/><path class="cls-1" d="M828.9,378.92v-2.71c0-.7-1.74-1.31-2.09-2.62s-.88-2.1-.35-3.14,1-1.84.7-2.8.26-1.66.61-2.45,0-1.74,0-2.44,1.13-1.14,1.13-2.27V357c0-1-1-.52-1.22-1.83s-1.31-1.31-1.31-2.27-.44-1.75-.44-2.62.09-2.89-.78-2.89-2,.35-2.62-.52a2.25,2.25,0,0,1,.08-2.53c.44-.88-1-1.22-1.48-2l-25.07.09c-.7,0-.87-.62-1.49-.62s-.78.44-1.66.44h-8.38" transform="translate(-615.29 -106.68)"/><path class="cls-1" d="M801.46,476.54c1.56,1.16,4.79,4.54,6.61,4.6,1.17,0,3.49-.36,4.53.16s1.36,2,2.29,2.46c1.34.71,2-.33,3.17.93,1.37,1.46,1.49,1.58,3.47,1.65,3.09.1,5.15-.8,5.27-4.17,0-1,2.27-2.78,3.78-4,2.15-1.9-.66-.83-1-1.22s1.05-3.12-1.14-1.27c-1.91,1.61-2.14.68-4.33-1.7-1.44-1.56-1.56-1.83-3.67-1.9-1,0,.28-2.36-.49-2.38l-8.09-.28c-2.26-.08-.42.86-1.27,2.31a7.62,7.62,0,0,1-1.8,1.89.59.59,0,0,1-1,0,3.61,3.61,0,0,0-2.8-2" transform="translate(-615.29 -106.68)"/><path class="cls-1" d="M857.78,436.76c1.64,0,3.28-.9,5.52-.9s4-.89,5.52-.89H872v-3.29H874c.6,0,1.2-1,1.2-3-1,0-2.09.3-2.84-.75s-1.19-2.39-2.68-2.39" transform="translate(-615.29 -106.68)"/><path class="cls-1" d="M807.51,451.66a1.56,1.56,0,0,0,.2-.16c1.28-1.2,1.45-1.15,3.23-1.09.93,0,2-1.5,2.64-2.11a1.45,1.45,0,0,1,2.51,1.1c-.09,2.63,1.41-.1,2.33,1.27,1.31,2-2.17,5.43-2.62,7a10.14,10.14,0,0,0,0,3.84" transform="translate(-615.29 -106.68)"/><path class="cls-1" d="M828.9,378.92h2.33a4.85,4.85,0,0,0,2.53,2.63c1,.3,1.49,1.49,2.39,2.39s2.08,2.38,2.08,3.73v3.73c0,.89-1.19.89-1.19,1.64s1.34,1.34,1.34,2.09-.29,2.83.75,4,2.24,2.24,2.69,3.59,1,3.43,2.68,3.43,2.69,1,4.48,1,2.68.15,2.68,1.49a5.76,5.76,0,0,0,.9,3.58c.89,1.65-.3,3.44.15,4.78a4.08,4.08,0,0,1,0,3c-.3,1.2.15,1.65,1.79,1.35s3.58-.75,5.07-.3,2.84,3,2.84,4.47" transform="translate(-615.29 -106.68)"/><path class="cls-1" d="M886.09,463.58a16.7,16.7,0,0,0,.14-2.1c0-1.12.14-1.68,1-2.1,1.41-.71.42-2.11-.42-3.37s.14-2,.28-3.36-2-2.39-2.52-3.23-2.1-.7-2.94-.84a15.78,15.78,0,0,1-3.37-.42c-1.12-.42-1-1.4-1-2.8s-.28-3.23-1.26-3.65-1.82-.56-2.1-2.24A9.18,9.18,0,0,0,872,435h-3.14c-1.49,0-3.28.89-5.52.89s-3.88.9-5.52.9h-5.61a11.48,11.48,0,0,0,4.35,4,5,5,0,0,1,2.24,2.95,9.92,9.92,0,0,0,2.24,3.78c1,1,.42,2.24,0,3.65s-.7,3.64.28,4.2a9,9,0,0,0,4.77,1,10,10,0,0,1,5.6,1.54,7.91,7.91,0,0,0,4.21,1.12,5.35,5.35,0,0,1,3.22,1.55c1,.84,2.81.56,3.93.56S885.25,462.6,886.09,463.58Z" transform="translate(-615.29 -106.68)"/><path class="cls-1" d="M738,136.27h-9.41v4.38c0,1.53-2.41,2.84-3.29,4.16s0,4.81.22,6.34-1.09,2-1.75,3.73v14.5h9.12" transform="translate(-615.29 -106.68)"/><path class="cls-1" d="M718.45,202.43v3.25c0,1.2.93.64,2,1.76a2.61,2.61,0,0,1,.84,3.15c-.38,1.48.46,2,1,2.78a3.39,3.39,0,0,1,.93,2.78c0,1.76-.46,1.57-1.11,2.87s.83.93.65,2.32.83,1,1.3,2.41-.65,1.66-1.58,2.68-.65,1.95-.65,2.88v3.42c0,1.3-.18,2.69-1.3,1.86a2.2,2.2,0,0,0-3.15,0c-1.11.92.56,1.11.1,2s.27,1.11.27,2.68-.09,2.69-1.11,3.53a3.53,3.53,0,0,0-1.3,3.24c0,1.57,0,3.1.56,3.71s.37,1-.18,2-.19,1.86.64,1.86h2.23c.74,0,.65,1.3,1.11,1.3h1.39v3c0,.93.28,1.48.93,1.48h2.22c.65,0,.83.28,1.39,1.49s1.11,1.39,2,1.39h3.71c.92,0,1.57,1.29,1.94,2.5s1.21,1.76,2.32,3.06,2.27,1.31,3.15,3.05a14.53,14.53,0,0,1-2.87,2.23c-1.3.65-2.78,1.39-3.06,2.41s-2,2.22-3,2.68-2.5,1.12-3,2.23a7.11,7.11,0,0,1-3.34,3.24,6.52,6.52,0,0,0-2.87,2.32c-.83,1-2.22.28-3.06,1.11s-.68,1.56-.88,2.44c-1.1-.37-1.82,0-3-1.34s-4.25-1.54-6.93-1.54h-16" transform="translate(-615.29 -106.68)"/><path class="cls-1" d="M632.74,235.54c0,.5,0,1.05,0,1.59-.07,1.92,2.13,2.92,3.48,4,1.09.86,1.75,3.2.75,4a1.13,1.13,0,0,0,.07,2,2.79,2.79,0,0,1,1.13,2.53c0,1.08,2-.14,2.35.44s.11,2.4-.45,2.38c-2.94-.1-2.06,1.72-2.15,4.31-.07,1.94-.28,2.68-1.11,3.6-.69.67-1.1,1.29-.16,1.32,1.59.05,1,1.79,1,3.71-.06,1.63.39,1.19,2,1.25,1.1,0-.26,1.93.29,2.38.82.68,4.78.17,5.93.21,1.47.05,1.38,1.62,1.19,3.15-.12,1.31-.81,1.76-1.52,1.72-1.4.16-1.82.83-.57,1.82.89.7,2.13.78,3.84.53.69-.1.24,3.59.21,4.38,0,1.08,1.92-.13,2.33.45s-.14,1.81-.08,2.36a17.47,17.47,0,0,1,.5,3.54c-.08,1.52-.72,2.91-.76,3.94-.08,2.26.41,2.51,2,4.19.61.65,2.63-.22,2.6.71,0,.74-.55,3.82-.16,4.37,1,1.36,2.43-1.34,2.34,1.27s0,3.53,1.54,5.31c.65.8.56.17.57-.48.17-1.35,1.37-1.38,2.79-1.24,0-1.07.15-5.06.34-6.67a2.72,2.72,0,0,1,2.81-2.52h6.86A6.2,6.2,0,0,1,674.3,293c1.12-1.13,1.82-4.07,2.38-5.19s1.54-1.12,3.36-1.12h10.8" transform="translate(-615.29 -106.68)"/><path class="cls-1" d="M729.47,337.57c0-1.09-1.1-2.31-1.1-3.28v-4.38c0-1.33,1.1-1.82,1.1-3.28s-1-2.06-1-3.52V301a3.48,3.48,0,0,0-1.7-3,6.56,6.56,0,0,1-2.43-3.76c-.12-1.1-1.09-2.92-2.91-2.92s-3.53-1.34-4.62-1.7-1.82,0-3-1.34-4.25-1.54-6.93-1.54H680c-1.82,0-2.8,0-3.36,1.12s-1.26,4.06-2.38,5.19a6.2,6.2,0,0,0-1.69,3.08h-6.86a2.72,2.72,0,0,0-2.81,2.52c-.19,1.61-.34,5.6-.34,6.67.5.05,1,.12,1.56.16a.44.44,0,0,1,.34.69c-.43.91-.8,2-1.47,2.32-1.33.66-.1,2.44,1,3.71a.52.52,0,0,1-.55.77c-2.66-.31-2,4.3-.41,4.36,2.74.1,1,5.23,1,5.93-.07,1.91-.79.91-2.41,1.11s-2.34-.8-2.41,1.1c0,.84-.29,3.56.24,3.57,1.73.06,4.4-.67,4.33,1.34-.08,2.46.64,3.58-2.12,3.48-1,0,.18,2.31-1.69,2.42-.3,0-.68.35-.06,1.19a5.3,5.3,0,0,1,1,2.46" transform="translate(-615.29 -106.68)"/><path class="cls-1" d="M729.28,202.43H718.45v3.25c0,1.2.93.64,2,1.76a2.61,2.61,0,0,1,.84,3.15c-.38,1.48.46,2,1,2.78a3.39,3.39,0,0,1,.93,2.78c0,1.76-.46,1.57-1.11,2.87s.83.93.65,2.32.83,1,1.3,2.41-.65,1.66-1.58,2.68-.65,1.95-.65,2.88v3.42c0,1.3-.18,2.69-1.3,1.86a2.2,2.2,0,0,0-3.15,0c-1.11.92.56,1.11.1,2s.27,1.11.27,2.68-.09,2.69-1.11,3.53a3.53,3.53,0,0,0-1.3,3.24c0,1.57,0,3.1.56,3.71" transform="translate(-615.29 -106.68)"/><path class="cls-1" d="M738.84,270.91c-1-1.83-2-1.76-3.15-3.05s-2-1.86-2.32-3.06-1-2.5-1.94-2.5h-3.71c-.93,0-1.48-.19-2-1.39s-.74-1.49-1.39-1.49h-2.22c-.65,0-.93-.55-.93-1.48v-3h-1.39c-.46,0-.37-1.3-1.11-1.3h-2.23c-.83,0-1.2-.84-.64-1.86s.78-1.43.18-2" transform="translate(-615.29 -106.68)"/><path class="cls-1" d="M738.84,270.91a14.53,14.53,0,0,1-2.87,2.23c-1.3.65-2.78,1.39-3.06,2.41s-2,2.22-3,2.68-2.5,1.12-3,2.23a7.11,7.11,0,0,1-3.34,3.24,6.52,6.52,0,0,0-2.87,2.32c-.83,1-2.22.28-3.06,1.11s-.68,1.56-.88,2.44c1.09.36,2.79,1.7,4.62,1.7s2.79,1.82,2.91,2.92a6.56,6.56,0,0,0,2.43,3.76,3.48,3.48,0,0,1,1.7,3v22.12c0,1.46,1,2.07,1,3.52s-1.1,1.95-1.1,3.28v4.38c0,1,1.1,2.19,1.1,3.28h8c1,0,1.84-.81,3.4-.81H758c1,0,1-.91,1.84-1.25s.78-.88.78-1.49-.78-.7-.78-1.66.7-1.4,1.57-1.48,1.31-1.05,2.88-1.49,2.36-1.22,2.36-2,1-1.22,2.36-1.22a5.21,5.21,0,0,1,3.76,1.66c.7,1,1.22,1.75,2.18,1.75h3.58" transform="translate(-615.29 -106.68)"/><path class="cls-1" d="M778.5,329.57s.09,2.27.09,3.14,1.57,2.18,2.27,2.8a3.74,3.74,0,0,1,1.4,2.7v4h10.65c.88,0,1.05-.44,1.66-.44s.79.62,1.49.62l25.07-.09c-.52-.79.09-1.57,1-1.92s.61-1,.61-1.75v-5.07c0-.87-1-1-1-1.92v-2.88c0-.61.79-1.14,1.84-1.14s1.92-1.13,2.44-2.27,1.4-.61,2.1-1.57,1.22-3.06,2.32-4.17" transform="translate(-615.29 -106.68)"/><path class="cls-1" d="M830.44,319.63c-.7,1,1,2.3,1.83,2.24,1.82-.14,2.34-2.06,3.36-.84a3.71,3.71,0,0,1,1.12,3.08c-.28,1.12-.44,1.72.25,1.61,1.18-.54,4.06-1.2,4.82-2.2,1-1.38,0-2.27,1.67-3.85,1.38-1.29-.1-1.83-1.25-3.09-.69-.75-1.81-2.6-2.83-2.64-4.69-.16,0-4.66.62-7.08a21.17,21.17,0,0,0,.15-4.37c0-1.18-2.39.61-2.31-1.64.09-2.57-2.38.13-2.29-2.45.06-1.79,1-1.15,2.61-1.09,3.93.13,5.54-.3,9.13-2,.56-.26.33-3.75.36-4.46,0-1.16-2.38.6-2.3-1.63s-2.35-.47-2.3-1.63c0-.49,0-1,0-1.48a2.87,2.87,0,0,0-.5-1c-1.34-1.41-2.9-3.16-1.06-4.87s4.24-3.08,4.12.38c-.06,1.67,0,5.12,2.54,5.2,2.15.08,2,.23,2.07-1.93,0-.49,1-.5,1.7-.41.27,0,.67.08.12-.47-1-1-1.91-2.05-2.87-3.08-1.49-1.59-.35-1.81-1.06-3.6-.53-1.32-2.3-1.63-2.24-3.2l.15-4.36c.08-2.44.14-1.81,2.42-1.9,1.44-.05,2.93.11,4.37.16,3.23.11,3-4.9,3-5.82,0-.57-.89-.29-1.24-.08-1.43.89-4.86,2.16-6.18.74-2.56-2.74-2.69-3.62-.36-5.93.65-.7,1.17-.36,1.13-.17-.49,2.69.9.5,2.17,1.88.67.72,2.71,2.67,3.51,2.52,1-.17,1-.36,1.06-.62s-.3-1.64.26-2.16,2.1-1.48,2.2-2c.26-1.56-2.25-3.51-2.19-5.2a4.36,4.36,0,0,1,2.52-4.27c.63-.32,2.35.66,2.38-.29a.41.41,0,0,1,0-.17" transform="translate(-615.29 -106.68)"/><path class="cls-1" d="M618.66,197.57q-.28,8-.56,16c-.1,2.89-1.31,4.9,1.83,5,1.13,0-.48,2.34.66,2.38,2.15.08,1,0,.95,2.14,0,1.17,2.4-.6,2.32,1.64-.09,2.54,1.15,0,2.32,1.27s-1.43,2.32,1.1,2.4c.62,0-.43,1.82.49,1.78a2.75,2.75,0,0,1,2.24,2c0,.43-.21.85,0,1s.79,0,1.37,0c1,.19,1.31,1.16,1.39,2.36" transform="translate(-615.29 -106.68)"/><path class="cls-1" d="M637.47,110c-6,0-12-.23-18.1-.44,0,.41.11.83.16,1.24.68,5.18,1.8,10.42,1.62,15.65l-.66,18.7q-.56,15.85-1.1,31.71-.37,10.37-.73,20.75" transform="translate(-615.29 -106.68)"/><path class="cls-1" d="M665.58,109.2c-4.57,0-9.15.18-13.8.44s-9.56.34-14.31.32" transform="translate(-615.29 -106.68)"/><path class="cls-1" d="M690.89,109.66l-4.18-.15c-7.14-.25-14.12-.39-21.13-.31" transform="translate(-615.29 -106.68)"/><path class="cls-1" d="M723.73,154.88c.66-1.76,2-2.19,1.75-3.73s-1.09-5-.22-6.34,3.29-2.63,3.29-4.16v-4.38H738V133.2c0-1.09-.87-1.53-.87-2.41s1.75-.65,1.75-1.75V111.23c-16-.12-32-1-48-1.57" transform="translate(-615.29 -106.68)"/><path class="cls-1" d="M718.45,202.43h10.83a7.09,7.09,0,0,1,1.26-2.09,2.68,2.68,0,0,0,1-2.31c-.21-.63-.74-1.05-.11-1.47s1.26-.84,1.26-1.79,1-1.89,1-3.05v-14.4c0-.84-.74-1.47-.74-2.31v-5.63h-9.12v-14.5" transform="translate(-615.29 -106.68)"/></svg>