<svg id="base_map" data-name="base map" xmlns="http://www.w3.org/2000/svg" viewBox="0 0 360.9 136.67"><defs><style>.cls-1{fill:#015067;stroke:#fff;stroke-width:0.84px;}.cls-2{fill:none;}</style></defs><path class="cls-1" d="M483.31,209.33v3.79c0,.64-.88,1.39-.63,1.9s1.64,1.26,1.83,2.21,1,1.26,1.46,2.27h15a3.46,3.46,0,0,0,.56-1.4c0-.56-.54-1.06-.5-1.6.17-2.3.19-4.62.25-6.93a1.08,1.08,0,0,1,.74-.95,17.44,17.44,0,0,0,3.63-2.24c.28-.21.47-.08.44.14-.13,1.22-.48,3.7-.11,4.21,1.05,1.5,2.38-.39,2.28,2.46,0,1.2,4.2-1.08.4-4.48-1.87-1.68,1.07-1.58,1.83-2.56s2.18-4,2.65-4.39c1.78-1.64,2.57,1.35,2.69-2.16a9,9,0,0,1,5-7.31c1.68-.75,3.76.5,4.81-2.2s-.5-2.26-2.27-2.47c-.86-.1-4.76.29-4.73-.53s-.18-4.36.52-4.34c3.4.12.55,2.38,3.1,2.47,1.65.06,3.52.89,3.58-1.05s2.48-2.28,2.53-3.83c0-.45.3-1.57.06-1.79l-.58-.47a9.76,9.76,0,0,0-1.8.16c-1.62.06-3.3-.12-4.93-.17-1.8-.07-4.58.77-4.5-1.33.1-3-.58-8.33,3.85-8.17.61,0,1.14.08,1.59.13,0-.76,0-2.77-1.62-2.88a3.07,3.07,0,0,0-3,1.45,6.07,6.07,0,0,1-2.63,2,2.33,2.33,0,0,1-2.83-.42,2.21,2.21,0,0,0-2.74,0c-1.05.63-2.42,1.78-3.68,1.78H490.14v5.89c0,1.17-.95,1.29-.95,2.43a5.87,5.87,0,0,1-.38,2.53c-.25.38.5,1.39,1.32,1.64s1.27,1,.7,1.71a5.56,5.56,0,0,0-1.58,2.71c-.06,1-.51,2.59.19,3.6s1.14,1.9.19,2.78a2.53,2.53,0,0,0-1.07,2v4.11a1.63,1.63,0,0,1-1.14,1.51,17.89,17.89,0,0,0-3.92,3.16c-.69.89-1.2,2.09-.76,2.59A3,3,0,0,1,483.31,209.33Z" transform="translate(-168.03 -83.25)"/><rect class="cls-2" width="18.83" height="32.37"/></svg>