<svg id="base_map" data-name="base map" xmlns="http://www.w3.org/2000/svg" viewBox="0 0 285 319.46"><defs><style>.cls-1{fill:#015067;stroke:#fff;stroke-width:0.84px;}.cls-2{fill:none;}</style></defs><path class="cls-1" d="M431.32,374.24c-.65.81-.12.73-1.21,1.33a5,5,0,0,0-1.95,1.95c-.48.73.25,2.55-.24,2.79s-1.94.13-2.31.85a2.47,2.47,0,0,1-2.06,1.46c-1.1.12-2.31,1.22-2.31,2.07v3.4c0,1-1.83,2.31-2.55,2.92h6.73c1,0,1.41,1.09,3.11,1.09s1.46,1.34,3,1.34,3.28.36,4.13-.37,1.58,0,1.33,1.1-.66,3,0,3.64,2.68,1,3.53,1.7,2.06,1.95,3.52,1.95a10.71,10.71,0,0,1,3.28.73,19.58,19.58,0,0,1,1.34-4.26c.61-1.7.49-2.91,1.46-4a10.52,10.52,0,0,0,2.43-5.1c.12-1.7-.49-2.55-1.34-2.43a9.58,9.58,0,0,0-3.28,1.09,1.32,1.32,0,0,1-2.06-1,2.13,2.13,0,0,1,.85-2.43c.85-.61,1.58-.61,1.94-1.7s-.12-1.7-1-1.82a1.39,1.39,0,0,1-.85-2.19c.61-1.09,2.06-.49,1.7-1.82a14.31,14.31,0,0,0-1.34-3.65c-.61-1,0-1.34.61-2.19s.49-2.67-.24-3-1.58-1.34-2.8-1-2.91,1.1-3.76.73-1.58-1.21-2.8-.48a4.86,4.86,0,0,0-1.94,3,5.79,5.79,0,0,1-2.56,2.79A6.76,6.76,0,0,0,431.32,374.24Z" transform="translate(-168.03 -83.25)"/><rect class="cls-2" width="18.83" height="32.37"/></svg>