<svg id="base_map" data-name="base map" xmlns="http://www.w3.org/2000/svg" viewBox="0 0 354.88 288.92"><defs><style>.cls-1{fill:#015067;stroke:#fff;stroke-width:0.84px;}.cls-2{fill:none;}</style></defs><path class="cls-1" d="M521.3,371.76H506.53v-2.33h-1.22c-1.22,0-1.59-1.83-2.08-2.8a2.56,2.56,0,0,0-2.68-1.59c-1.59,0-1.35-2-1.35-2.81s0-1-1.34-1.71-1-1-2.08-2.68a4.63,4.63,0,0,0-2.8-2.2,2.46,2.46,0,0,1-1.31-2.57c.05-1,.08-1.46.94-1.46h5.49a17.8,17.8,0,0,1,0-2.69,7.49,7.49,0,0,1,1.47-2.93c.49-.85,2.56.74,2.56-.61s.74-1.46,1.47-2.81,1.95-.73,2.2-1.46,0-1.47.73-1.95a4.23,4.23,0,0,0,1.17-1.27s1.69.6,1.51,1.63-.58,1.1-1.1,1.79-1.56.78-1.56,2.07.69,2.33,1.56,2.33h3.19a1.94,1.94,0,0,1,2.07,1.38c.18.87.61,1.64-.43,2.33a12.58,12.58,0,0,0-2.5,1.64c-.61.69-.18,1.56,1.9,1.56a9,9,0,0,0,4-1c.69-.26,1.38.87,1.38,2.59v5.61c0,1.73-.78,2.94-1.29,4.32s-1.9,1.47-2.34,2.59-1.2,2.42.44,3,2.07.35,3.45-.08,2.59-1,3.37-.18,1.46,1.3,1,1.56S521.3,371.76,521.3,371.76Z" transform="translate(-168.03 -83.25)"/><rect class="cls-2" width="18.83" height="32.37"/></svg>