<svg id="base_map" data-name="base map" xmlns="http://www.w3.org/2000/svg" viewBox="0 0 238.9 60.63"><defs><style>.cls-1{fill:#015067;stroke:#fff;stroke-width:0.84px;}.cls-2{fill:none;}</style></defs><path class="cls-1" d="M406.51,129.83v-2.52c0-1-1.2-.33-1.2-1.2s1.09-.22,1.09-1.1v-4.6h-9.63v-5.47h-2.63c-1.31,0-.66-.22-2-2-1.6-2.14-5.25-2.63-5.25-2.63H368.31v4.38c0,1.53-2.41,2.85-3.29,4.16s0,4.82.22,6.35-1.09,2-1.75,3.72v14.51h23.39v-3.1c0-1.05.24-1.54,1.08-1.54h17.66V138c0-.75.89-.75.89-1.81Z" transform="translate(-168.03 -83.25)"/><rect class="cls-2" width="18.83" height="32.37"/></svg>