<svg id="base_map" data-name="base map" xmlns="http://www.w3.org/2000/svg" viewBox="0 0 256.95 175.34"><defs><style>.cls-1{fill:#015067;stroke:#fff;stroke-width:0.84px;}.cls-2{fill:none;}</style></defs><path class="cls-1" d="M410.74,214.44a3.87,3.87,0,0,0,.6,1.94,9.35,9.35,0,0,1,1.37,2.78c.6,1.64-1.34,2.53-2.08,3.72s.3,1.79,1.19,2.68.15,1.2-.15,2.24-1.34,1.94-.89,2.83.74,1.64,0,2.09-1.64.3-1.2,1.49a3,3,0,0,0,2.69,1.94c1,0,3-.15,3.13.89s1.79,1.64,1.34,2.83.15,2.24,1.49,2.84.74,1.93.15,3.27,1.94,1.49,3,1.05a2.67,2.67,0,0,1,3,.89,14.48,14.48,0,0,1-2.53,1.49c-1.35.6-2.84,1.49-4.47,1.34s-3,1.35-4.63,1.35-2.68,1.34-5.06,1.34-8.95,2.38-10.29,2.23-4.17.75-5.81,1.34-3.73,1.34-4.77.9-2.09.59-4.62.15-.15-1.2-.74-1.64-1.49-1.2-.6-1.64,1-2.39.3-2.39-1.94-.29-2.09-1.19.18-2.4,1.19-2.68c1.64-.45,1.79-2.39.45-1.79s-1.43-.55-2.07-1.74c-1-1.83-2-1.76-3.15-3.06s-1.95-1.85-2.32-3.06-1-2.5-1.94-2.5h-3.71c-.93,0-1.48-.18-2-1.39s-.74-1.48-1.39-1.48h-2.22c-.65,0-.93-.56-.93-1.48v-3h-1.39c-.46,0-.37-1.3-1.11-1.3h-2.22c-.84,0-1.21-.83-.65-1.85s.78-1.44.18-2h29.15c1.34,0,2.49-.19,2.49-1.53v-6.74c0-1,1.15-1.15,2.3-1.15S410,215.21,410.74,214.44Z" transform="translate(-168.03 -83.25)"/><rect class="cls-2" width="18.83" height="32.37"/></svg>