<svg id="base_map" data-name="base map" xmlns="http://www.w3.org/2000/svg" viewBox="0 0 152.59 126.78"><defs><style>.cls-1{fill:#015067;stroke:#fff;stroke-width:0.84px;}.cls-2{fill:none;}</style></defs><path class="cls-1" d="M317.54,196.06a19,19,0,0,0-4.05-1.9,4.21,4.21,0,0,1-2.68-2.5c-.52-1.47-1.9-.86-2.33-2.16s.09-2.5-1-3.36a11,11,0,0,1-2.67-2.59c-.52-.87-2-1.47-1.13-2.59s2.25-1.56,1.82-2.59-.95-1.13-.95-2v-2.5a2,2,0,0,0-1.21-1.82c-.6-.17-3.63-.34-4.4-1.38-1.14-1.51-2.62-1.92-2.62-3.63v-3.29a11.85,11.85,0,0,0-2.85-2.41c-1.09-.43-.65-2.84-2.18-2.84s-3.51.43-4.82-.66-2.41-2.41-4.16-2.19-3.28,1.1-3.5,2.19a5.4,5.4,0,0,1-2.63,3.28,4.83,4.83,0,0,0-2.63,3.73c-.22,1.75-2.63,3.5-4.38,4.59s-3.06,2.19-3.94,2.19h-6.77q-.27,8-.56,16c-.1,2.9-1.31,4.91,1.83,5,1.13,0-.48,2.34.66,2.38,2.15.08,1,0,.95,2.14,0,1.17,2.4-.61,2.32,1.64-.09,2.54,1.16,0,2.32,1.27s-1.43,2.31,1.1,2.4c.62,0-.43,1.81.49,1.78a2.73,2.73,0,0,1,2.24,2c0,.43-.21.85,0,1s.79,0,1.38,0c1,.19,1.3,1.16,1.38,2.36H312v-5.36c0-1.21.69-1.72.86-2.76s1.56-2,1.81-1.21,1.08.7,1.82,1a8.22,8.22,0,0,0,3.54,0C319.36,199.52,318.75,197,317.54,196.06Z" transform="translate(-168.03 -83.25)"/><rect class="cls-2" width="18.83" height="32.37"/></svg>