<svg id="base_map" data-name="base map" xmlns="http://www.w3.org/2000/svg" viewBox="0 0 247.69 94.53"><defs><style>.cls-1{fill:#015067;stroke:#fff;stroke-width:0.84px;}.cls-2{fill:none;}</style></defs><path class="cls-1" d="M372.61,149.08c0,.84.74,1.48.74,2.32v14.4c0,1.16-1,2.1-1,3s-.63,1.36-1.26,1.78-.1.85.11,1.48a2.69,2.69,0,0,1-.95,2.31,7,7,0,0,0-1.26,2.09h26.7c4.31,0,4.84.85,6.94.85h3.47c.73,0,.84-1.05,1.79-1.05s1.78,1.05,2.83,1.05h4.52V158.12c0-.84-1.05-1.89-2.2-2.94s-5-4.83-5.68-5.47-1.79-.52-1.79-1.57v-9.32H388c-.84,0-1.08.49-1.08,1.54v3.1H372.61Z" transform="translate(-168.03 -83.25)"/><rect class="cls-2" width="18.83" height="32.37"/></svg>