<svg id="base_map" data-name="base map" xmlns="http://www.w3.org/2000/svg" viewBox="0 0 328.05 92.5"><defs><style>.cls-1{fill:#015067;stroke:#fff;stroke-width:0.84px;}.cls-2{fill:none;}</style></defs><path class="cls-1" d="M442,163c0-2.32.62-2.59.62-3.93,0-1,.62-2,.62-2.94a12.11,12.11,0,0,1,.18-2.94c.27-1.25,1.16-1.43,1.16-2.5s1.25-2,1.61-2.76a4.28,4.28,0,0,1,1.87-1.7,2.54,2.54,0,0,0,.89-2.32c0-1,.8-1.16.8-1.69a5,5,0,0,1,.63-2.23c.44-.8,1.62-1,2.05-1.6a3,3,0,0,0,0-3.56c.43,1.1.87-1.31,1.75-.65A13.61,13.61,0,0,1,457,136.4c.66.87,2,.21,2.19-1.32s1.54-1.75,1.75-2.84,1.54-2.19,2.19-1.32,1.76,2.19,2.63,1.75,2.63-.65,3.29-2.62,1.31-3.51,3.06-3.51a4.5,4.5,0,0,0,4.16-2.62c.88-1.75.44-3.94,1.75-3.94s.66-1.54,0-2.19c.66.65,1.9,1.13,2.39,2.62.39,1.17-.19,1.56-.19,2.43V130h14.32s0,1.27.39,1.37c.6.15.91.81.68,1.75a5.32,5.32,0,0,1-.78,1.56s-2.78.16-2.55,1.94a2,2,0,0,1-.42,1.79c-.42.53-1.16,1.16-1.16,2.1a5,5,0,0,0,.74,2.32c.31.63,1.15,1.78.42,2.41s-1.16.53-1.16,1.16.11,2.21.11,2.21H479.41c-2.94,0-2.32,2.25-3.75,2.25s-1.6,1.43-2.49,1.43-1.79.53-1.79,1.07v2.4c0,.63-1,.45-1.78,1.16s-1.34,0-2-.62-1.52.36-1.52,1.43-.62,1.87-.45,2.76-.44,1.43-.8,2.59.27,1.6-.09,2.94a3.92,3.92,0,0,1-2.14,2.67,3.29,3.29,0,0,0-2.14,1.61c-.35.89-.53,2.14-1,3a2.67,2.67,0,0,1-2.76,1.07c-1-.18-1.52.36-2.41.8s-1.69-.09-2.32-.09-1.42.09-1.87-.53-1.43-.54-3-.09-.63-1.34-.45-2.67-1.69.44-2.32-.36.72-1.61,1.43-2-1.61-.63-1.78-1.25.26-1,.89-1.87-1.07-.81-.45-1.43.09-1.78.09-1.78Z" transform="translate(-168.03 -83.25)"/><rect class="cls-2" width="18.83" height="32.37"/></svg>