<svg id="base_map" data-name="base map" xmlns="http://www.w3.org/2000/svg" viewBox="0 0 260.35 272.81"><defs><style>.cls-1{fill:#015067;stroke:#fff;stroke-width:0.84px;}.cls-2{fill:none;}</style></defs><path class="cls-1" d="M418.26,303.64s.09,2.27.09,3.15,1.57,2.18,2.27,2.79a3.74,3.74,0,0,1,1.4,2.71v4h2.27v5.94c0,1.13,1.75,1.05,2.45,1.57a2.63,2.63,0,0,1,1.22,2.45v7.86c0,1.39-1.31,2.18-1.84,2.79a4.3,4.3,0,0,0-1,2.8c0,1.22-.87,1.13-.87,1.92v4.28h-4.45v3.32H405.42a4.74,4.74,0,0,0-2.53.61c-.87.53-.87,1.75-.87,2.62s-.27,1.14-1,1.57-.63,1.6-.63,1.6H386.6v-.85a4.68,4.68,0,0,1,.52-1.25c.35-.57,0-1.42.21-2.12a3.36,3.36,0,0,1,1.63-1.84c.78-.43.92-1.35,1.49-2.06s.21-1.41-.43-2-.92-1.77-.92-3.4V310.84h8.64c1,0,1-.91,1.83-1.26s.79-.87.79-1.48-.79-.7-.79-1.66.7-1.4,1.57-1.49,1.31-1.05,2.88-1.48,2.36-1.23,2.36-2,1.05-1.22,2.36-1.22a5.18,5.18,0,0,1,3.76,1.66c.7,1,1.22,1.74,2.18,1.74Z" transform="translate(-168.03 -83.25)"/><rect class="cls-2" width="18.83" height="32.37"/></svg>