<svg id="base_map" data-name="base map" xmlns="http://www.w3.org/2000/svg" viewBox="0 0 360.07 355.38"><defs><style>.cls-1{fill:#015067;stroke:#fff;stroke-width:0.84px;}.cls-2{fill:none;}</style></defs><path class="cls-1" d="M525.85,437.66a16.76,16.76,0,0,0,.14-2.11c0-1.12.14-1.68,1-2.1,1.41-.7.42-2.1-.42-3.36s.14-2,.28-3.37-2-2.38-2.52-3.22-2.1-.7-2.94-.84a15.85,15.85,0,0,1-3.37-.42c-1.12-.42-1-1.4-1-2.8s-.28-3.23-1.26-3.65-1.82-.56-2.1-2.24a9.14,9.14,0,0,0-1.94-4.51h-3.14c-1.49,0-3.28.9-5.52.9s-3.88.89-5.52.89h-5.61a11.5,11.5,0,0,0,4.35,4,5,5,0,0,1,2.24,2.94,10,10,0,0,0,2.24,3.79c1,1,.42,2.24,0,3.64s-.7,3.65.28,4.21a9,9,0,0,0,4.77,1,10,10,0,0,1,5.61,1.54,7.86,7.86,0,0,0,4.2,1.12,5.33,5.33,0,0,1,3.22,1.54c1,.84,2.81.56,3.93.56S525,436.67,525.85,437.66Z" transform="translate(-168.03 -83.25)"/><rect class="cls-2" width="18.83" height="32.37"/></svg>