<svg id="base_map" data-name="base map" xmlns="http://www.w3.org/2000/svg" viewBox="0 0 272.01 46.99"><defs><style>.cls-1{fill:#015067;stroke:#fff;stroke-width:0.84px;}.cls-2{fill:none;}</style></defs><path class="cls-1" d="M431.36,121.73c0-1.1.66-2.63,2-2.63a3.55,3.55,0,0,0,3.5-1.75,9.51,9.51,0,0,0,1.32-3.72c.22-1.32.21-2.85,1.09-3.94s0-3.51-.44-5-.65-3.5-1.53-4.38-1.09-2.62-.22-4.59-.22-3.73-.44-4.6a7.54,7.54,0,0,1,.88-3.94,7.11,7.11,0,0,0,.43-2.2l-52.38.37c-2.31,0-4.63,0-6.94,0v17.82c0,1.09-1.75.87-1.75,1.75s.87,1.31.87,2.41v3.06h9.2s3.65.49,5.25,2.63c1.31,1.75.66,2,2,2h2.63v5.47h9.63V125c0,.88-1.09.22-1.09,1.1s1.2.21,1.2,1.2v2.52h9.09c1.31,0,1.53-1.32,2.4-.66a3.3,3.3,0,0,0,3.51.22c1.31-.66,1.09-2.85,2.19-3.07a8.79,8.79,0,0,0,4.38-2.4C429.17,122.6,431.36,122.82,431.36,121.73Z" transform="translate(-168.03 -83.25)"/><rect class="cls-2" width="18.83" height="32.37"/></svg>