<svg id="base_map" data-name="base map" xmlns="http://www.w3.org/2000/svg" viewBox="0 0 383.63 252.46"><defs><style>.cls-1{fill:#015067;stroke:#fff;stroke-width:0.84px;}.cls-2{fill:none;}</style></defs><path class="cls-1" d="M543.87,298.11q-12.21.43-24.47.72v1.61a2.81,2.81,0,0,1-.8,2.4,2.35,2.35,0,0,0-.71,2.57c.27.89.8,1.43.18,2.31s-1.25,2.23-2.05,3.74-.71,4.26-1.33,5.77-.53,3.92-.89,5.07a7,7,0,0,1-2.84,3.56c-1.16.53-1.51,1.86-2,3.46s-1.51,1.69-2,2.58.75,2.47,1.37,3.36a4.76,4.76,0,0,0,2.42-.94c.63-.74.42-2.84,1.89-2.84h8.62c1.16,0,1.89-1.16,3.47-1.16h16.82c1.26,0,2.21-.73,3.79-.73s1.68.73,2.94.73H550a2.54,2.54,0,0,1,0-1.89c.42-.95-.94-.74-.84-1.68s1.47-1.47,1-2.63a5,5,0,0,1,0-3.26,4.7,4.7,0,0,0-.42-3.26c-.52-1.36.63-1.68-.21-2.63s-.63-1.47-.21-2.62,0-1.48-.52-2.63-.95-2.74-.43-3.79,2-2.42,1.9-4.1a10.41,10.41,0,0,1,.77-4C548.65,297.94,546.25,298,543.87,298.11Z" transform="translate(-168.03 -83.25)"/><rect class="cls-2" width="18.83" height="32.37"/></svg>