<svg id="base_map" data-name="base map" xmlns="http://www.w3.org/2000/svg" viewBox="0 0 195.22 319.11"><defs><style>.cls-1{fill:#015067;stroke:#fff;stroke-width:0.84px;}.cls-2{fill:none;}</style></defs><path class="cls-1" d="M362.3,391.61c.73-.73.85-1.82-.61-1.82h-9.23V378.61h-2.92V365.85h-9.11v-2.32H317.22v-9.72h-6.69c-1.7,0-3.28.61-3.28,1.22s1.22,1.09,1.22,2.06v6.44H282.55l-.06,1.77c0,1.18-.08,2.37-.13,3.55a4.35,4.35,0,0,0-.05,1.63c.19,1.14,1,1.83,1.95,2.87a1.21,1.21,0,0,0,.91.34l1.38.05c.72,0,.27,2.76.24,3.55-.06,1.7.41,4.09-.31,5.26-.16.26-.49.63-.41.66a.91.91,0,0,1,.49.53,3.23,3.23,0,0,1-.06,1.84c0,.79-.06,1.59-.08,2.39l1.65,1.75c.21.22-.18.52-.48.53-2.12.05-1.19,2.66-1.42,4.79-.15,1.35.17,1.82-.73,2-.57.11-.57.42.15.57s.58,1.14.26,1.75c-.14.26-.31.52-.48.78h55.18v1.82h11.91v-4.37h9c1.46,0,1.22-1,.61-1.58s-1.7-.85-1.7-2.07C360.36,393,361.57,392.34,362.3,391.61Z" transform="translate(-168.03 -83.25)"/><rect class="cls-2" width="18.83" height="32.37"/></svg>