<svg id="base_map" data-name="base map" xmlns="http://www.w3.org/2000/svg" viewBox="0 0 471.45 436.66"><defs><style>.cls-1{fill:none;stroke:#f9ed32;stroke-width:5px;stroke-dasharray:3 3;}</style></defs><path class="cls-1" d="M406.22,386.18v-1.1h-6.68c-1.1,0-1,.85-2.19.85H393.1c-1.22,0-.85-.85-2.55-.85s-21.51.25-23.82.25-3.28,1.09-4.62,1.82a4,4,0,0,1-3.89-.37,5.16,5.16,0,0,0-4-.72c-.38.14-1.09.36-1.89.6a26,26,0,0,1,0,4.56c-.09,2.58-2.36-.28-2.45,2.29,0,.8.24,3.56-.49,3.54-4.18-.15-1.4,4-1.54,7-.06,1.42-2,3.06-6.22,6.38-1.37,1.07-.44,3.38-.47,4.1a4,4,0,0,1-2.12,2.54c-1.92.31-1.56,1.09-2.34,2.23-1.35.52-.45,1.26,0,1.56.61.45,0,1.82,1.55,1.88,1.8.06,1.62,2,0,2.35-2,.12.34,1.45.82,3a10.34,10.34,0,0,1,0,3c-.06,1.62-.46,1.17-2,1.11-1.05,0,.07,1.87-.45,2.37s-2.35-.77-2.38.28c0,.47,0,.95-.05,1.42" transform="translate(-306.63 -153.46)"/><path class="cls-1" d="M334.13,436.24l-.06,1.77c0,1.18-.09,2.37-.13,3.55a4.35,4.35,0,0,0-.05,1.63c.19,1.14.95,1.83,1.95,2.87a1.2,1.2,0,0,0,.91.34l1.37,0c.72,0,.27,2.77.24,3.56-.05,1.7.42,4.09-.3,5.26-.16.26-.49.63-.42.66a.91.91,0,0,1,.5.52,3.27,3.27,0,0,1-.06,1.85l-.09,2.38,1.65,1.76c.21.22-.17.52-.47.53-2.12.05-1.2,2.66-1.42,4.79-.15,1.35.17,1.82-.73,2-.57.1-.57.42.14.57s.58,1.14.27,1.74c-.15.27-.31.53-.49.79" transform="translate(-306.63 -153.46)"/><path class="cls-1" d="M336.94,472.83a30.71,30.71,0,0,1-4.42,4.41c-2.84,2.64-4.7,3.65-4.84,7.63-.14,4.16-5.21,10.8-9.49,10.65-.73,0-.47,2.75-.5,3.55-.05,1.53.6,1.86,1.65,3,.84.91-.06,2.37.51,3,.79.88,2-.62,2.72.84,1.19,2.58,2.26,6,5.29,3.15l3.71-3.44c.54-.5,1.91.08,2.63-.07l9.3-2c1.88-.4,3.92.34,5.85-.08,5.48-1.18,10.22-2.56,15.72-1,2.72.78,6,2.92,8.19.86,1.83-1.72,3.86-1.06,6.32-1,5.12.18,10-.24,14.76,1.85,4.94,2.19,9.81,5,14.85,6.89,5.62,2.12,11.24,4.21,16.87,6.31a25.35,25.35,0,0,1,6.23,3.66c2.58,1.85,3.49,2.22,6.63,2.33H439v-48.8" transform="translate(-306.63 -153.46)"/><path class="cls-1" d="M429.43,474.65c1.82-1.09,4.2-2.92,6-3.64a37.17,37.17,0,0,0,4.13-1.95,9.39,9.39,0,0,1-1.1-2.67c0-.73-.36-1.46.37-2.43s1.34-1.58,1.34-2.8.85-1.7,1.58-3-1.34-1.58-2.31-2.06-1-1.1-1-2.07V446.7c0-.85.13-1.21-.36-1.82s.12-1.22.49-1.95a3.45,3.45,0,0,0-.25-2.43c-.24-.85-.36-1.58.61-2.06a3.12,3.12,0,0,0,1.7-2.31V433c0-.73-.73-1.34-1.7-2.55a2.51,2.51,0,0,1-.73-2.07v-.85" transform="translate(-306.63 -153.46)"/><path class="cls-1" d="M406.22,386.18H420.8v-1.83h8.05c1,0,1.84-.8,3.4-.8h8.43v31.23c0,1.63.28,2.76.92,3.4s1,1.34.42,2.05-.71,1.63-1.48,2a3.41,3.41,0,0,0-1.63,1.85c-.22.7.14,1.55-.22,2.12a4.86,4.86,0,0,0-.51,1.25" transform="translate(-306.63 -153.46)"/><path class="cls-1" d="M576.91,203.53c.43-.57,2.32.81,2.36-.29,0-.61-.29-2,.45-2,2.76.1,2-1,2.14-3.46,0-1.38-.69-2.09-1.58-3-.55-.52-.83-.73-.77.83.12,3-1.08,5.54-5.26,5.4-1.73-.06-4.41.67-4.34-1.34.06-1.57.11-3.14.17-4.71.09-2.58,2.37.3,2.49-3.1,0-.8,4.34-2.68,5.14-2.65,1.58.05,2,.52,2-1.12,0-.88.28-1.1-.48-1.38l-6-2.24c-2.21-.82-2.17.66-2.07-2.26.06-1.58.78-3.15.84-4.73.09-2.64.31-2.94,2.28-4.77,1-.9,2.55-.08,3.86-1.31,1.55-1.44,3.37-7.19,1.8-8.89a30.41,30.41,0,0,1-2-4.17c-.51-1.08-1.83-.88-3.57.73-.29.88.37,1.19,1.07,1.76s-2.63,1-1.23,2.93c1.58,2.22,1.24,1.81-.71,3.64-.69.64-2.83.15-3.81.11-1.75-.06-1.11-.8-1.09-2.41,0-2.13.12-2.4,1.66-3.85.61-.58,1.67-2.24.94-3.15s-8.36-.21-9.49-.25l-1.07,0s0,.06,0,.09" transform="translate(-306.63 -153.46)"/><path class="cls-1" d="M573.62,241.41c1.34.13,2,.06,2-2,0-.57,1.47-.64,1.93-.36s.78,1.24,1.08.87c1-1.24,4.17-1.41,4.22-.24s-.65,4-.29,4.35c1.08,1.15,2.37-.1,2.41-1.11l.27-7.89c.06-1.62-.54-2.77,1.29-2.7,1.09,0,1.38.45,1.31,1.27,0,.32.23.75.48.54,1.7-1.42,4.19-3.19,4.26-5.16.09-2.82.25-3.56,2-5.29.31-.33.69-.9,0-.94-1.19-.06-1.74.18-1.79,1.49,0,1.54-.71,1.81-1.86,2.88s-4.55.46-6.24.4c-2.51-.09-1.4-3-1.32-5.17s-.09-2,2.06-1.93c.75,0,.43-1.69.46-2.34.14-4-2.34-2.4-4.46-.4-1.06,1-4.95.13-5.8-.79-1.87-2-3.8-3.21-3.71-6a4.23,4.23,0,0,1,2.53-3.51c.68-.39,2.53,1.18,3.78,2.53,1.79,1.93-.54,3.18,2.74,3.29,1.89.07,3.62.45,2.8-2.26s-3-1.7-4.66-2.54c-1.17-.6-3.3-3.36-2.18-4.83" transform="translate(-306.63 -153.46)"/><path class="cls-1" d="M489.5,157.65l-52.38.37c-2.31,0-4.63,0-6.95,0v17.82c0,1.09-1.75.87-1.75,1.75s.88,1.31.88,2.41v3.06" transform="translate(-306.63 -153.46)"/><path class="cls-1" d="M504,207.57c.44,1.1.88-1.31,1.76-.65a14.19,14.19,0,0,1,2.84,2.18c.66.88,2,.22,2.19-1.31s1.53-1.75,1.75-2.85,1.53-2.18,2.19-1.31,1.75,2.19,2.63,1.75,2.63-.65,3.28-2.62,1.32-3.51,3.07-3.51a4.5,4.5,0,0,0,4.16-2.62c.87-1.76.43-3.95,1.75-3.95s.65-1.53,0-2.18-1.53-1.54-.22-3.07,2.19-.88,2.41-2.41-.44-4.81.43-6.78,1.54-3.51,2-4.82,1.76-1.31,2.19-2.41,2.63-.87,3.73-.87.43-2.19,1.53-3.51.6-3.69,2.41-4.6c.87-.43,2-.89,1.75-2.18a7.79,7.79,0,0,1,0-2.44l-3.13-.1c-11.7-.41-23.5.11-35.21.2l-17.88.14" transform="translate(-306.63 -153.46)"/><path class="cls-1" d="M560.69,158s0-.06,0-.09c-4.5-.15-10.17-.3-15-.45a7.79,7.79,0,0,0,0,2.44c.23,1.29-.88,1.75-1.75,2.18-1.81.91-1.32,3.29-2.41,4.6s-.44,3.51-1.53,3.51-3.29-.22-3.73.87-1.75,1.1-2.19,2.41-1.09,2.85-2,4.82-.21,5.25-.43,6.78-1.1.88-2.41,2.41-.44,2.41.22,3.07" transform="translate(-306.63 -153.46)"/><path class="cls-1" d="M535.08,277.43c-.7.89-1.2,2.09-.76,2.59a3.08,3.08,0,0,1,.57,2v3.79c0,.63-.89,1.39-.63,1.9s1.64,1.26,1.83,2.21,1,1.26,1.45,2.27h15a3.61,3.61,0,0,0,.55-1.4c0-.56-.53-1.06-.49-1.6.17-2.3.19-4.62.25-6.93a1.08,1.08,0,0,1,.74-.95,17.87,17.87,0,0,0,3.63-2.24c.27-.21.47-.08.44.14-.13,1.22-.48,3.7-.12,4.21,1.06,1.5,2.38-.39,2.29,2.45,0,1.21,4.2-1.07.4-4.47-1.87-1.68,1.06-1.58,1.83-2.56s2.18-4,2.65-4.39c1.77-1.64,2.56,1.35,2.69-2.16a9,9,0,0,1,5-7.31c1.68-.75,3.76.5,4.8-2.2s-.49-2.26-2.27-2.47c-.86-.1-4.75.29-4.73-.53s-.17-4.36.53-4.34c3.4.12.55,2.38,3.1,2.47,1.65.06,3.51.89,3.58-1.05s2.47-2.28,2.53-3.83c0-.45.3-1.58.06-1.79l-.58-.47a9.76,9.76,0,0,0-1.8.16c-1.63.06-3.31-.12-4.93-.17-1.81-.07-4.58.77-4.51-1.33.11-3-.57-8.33,3.86-8.18.61,0,1.14.09,1.59.14" transform="translate(-306.63 -153.46)"/><path class="cls-1" d="M420.62,249.22h26.7c4.31,0,4.83.85,6.94.85h3.47c.73,0,.84-1,1.78-1s1.79,1,2.84,1h4.52V230.83c0-.84-1.05-1.89-2.21-2.94s-5-4.84-5.67-5.47-1.8-.52-1.8-1.57v-9.32H439.54c-.84,0-1.09.49-1.09,1.54v3.1H424.19" transform="translate(-306.63 -153.46)"/><path class="cls-1" d="M504,207.57a3,3,0,0,1,0,3.55c-.43.64-1.61.81-2.06,1.61a5,5,0,0,0-.62,2.23c0,.53-.8.71-.8,1.69a2.55,2.55,0,0,1-.89,2.32,4.31,4.31,0,0,0-1.88,1.7c-.35.8-1.6,1.69-1.6,2.76s-.89,1.25-1.16,2.5a11.63,11.63,0,0,0-.18,2.94c0,.89-.62,2-.62,2.94,0,1.34-.63,1.61-.63,3.93" transform="translate(-306.63 -153.46)"/><path class="cls-1" d="M466.87,236v-5.15c0-.84-1.05-1.89-2.21-2.94s-5-4.84-5.67-5.47-1.8-.52-1.8-1.57v-9.32" transform="translate(-306.63 -153.46)"/><path class="cls-1" d="M505.93,247.86c-.89.45-1.7-.09-2.32-.09s-1.43.09-1.87-.53-1.43-.54-3-.09-.63-1.34-.45-2.68-1.7.45-2.32-.35.71-1.61,1.43-2.05-1.61-.63-1.79-1.25.27-1,.9-1.87-1.07-.81-.45-1.43.09-1.78.09-1.78h-2.59c0-2.32.63-2.59.63-3.93,0-1,.62-2.05.62-2.94a11.63,11.63,0,0,1,.18-2.94c.27-1.25,1.16-1.43,1.16-2.5s1.25-2,1.6-2.76a4.31,4.31,0,0,1,1.88-1.7,2.55,2.55,0,0,0,.89-2.32c0-1,.8-1.16.8-1.69a5,5,0,0,1,.62-2.23c.45-.8,1.63-1,2.06-1.61a3,3,0,0,0,0-3.55c.44,1.1.88-1.31,1.76-.65a14.19,14.19,0,0,1,2.84,2.18c.66.88,2,.22,2.19-1.31s1.53-1.75,1.75-2.85,1.53-2.18,2.19-1.31,1.75,2.19,2.63,1.75,2.63-.65,3.28-2.62,1.32-3.51,3.07-3.51a4.5,4.5,0,0,0,4.16-2.62c.87-1.76.43-3.95,1.75-3.95s.66-1.53,0-2.18" transform="translate(-306.63 -153.46)"/><path class="cls-1" d="M535.08,277.43H533V268.7h-3.83c-.86,0-.57,1.43-1.43,2.29s-1.15,2.1-2.2,2.39-1.34,1.63-2.1,2.58a4.77,4.77,0,0,1-3.54,1.82,7,7,0,0,0-3.73,1.05c-.76.57-.86-1.15-1.52-1.34s-.58-1.24-.58-1.81,0-1.63-1.14-1.63-1.53-.86-2.49-1.24-.38-2.49-1.43-2.49a4,4,0,0,1-2.58-1.53c-.67-.67-1.63-1.43-1.63-2.48v-4.59c0-1-1.34-2.1-1.82-2.77s-.76-1.05,0-1.72,1.82-.29,2.3-.77,1.91-.47,1.91-.47v-4.11c0-.86-1.34-.77-1.91-1.15s-.57-.77-.29-1.53a2.53,2.53,0,0,1,1-1.34" transform="translate(-306.63 -153.46)"/><path class="cls-1" d="M466.87,236v37.17h37.42v-3.83l2.12-.53c-.67-.67-1.63-1.43-1.63-2.48v-4.59c0-1-1.34-2.1-1.82-2.77s-.76-1.05,0-1.72,1.82-.29,2.3-.77,1.91-.47,1.91-.47v-4.11c0-.86-1.34-.77-1.91-1.15s-.57-.77-.29-1.53a2.53,2.53,0,0,1,1-1.34c-.89.45-1.7-.09-2.32-.09s-1.43.09-1.87-.53-1.43-.54-3-.09-.63-1.34-.45-2.68-1.7.45-2.32-.35.71-1.61,1.43-2.05-1.61-.63-1.79-1.25.27-1,.9-1.87-1.07-.81-.45-1.43.09-1.78.09-1.78h-2.59" transform="translate(-306.63 -153.46)"/><path class="cls-1" d="M571,371.54c-14.22.35-28.45.63-42.64,1-.69.12-.53-.48-.25-1.6a3.72,3.72,0,0,0-1.12-3.09c-1-1.21-1.54.7-3.37.84-.83.07-2.52-1.26-1.82-2.24-1.1,1.12-1.63,3.21-2.32,4.17" transform="translate(-306.63 -153.46)"/><path class="cls-1" d="M601.54,403a2.54,2.54,0,0,1,0-1.89c.42-.95-.95-.74-.84-1.68s1.47-1.48,1-2.63a4.9,4.9,0,0,1,0-3.26,4.82,4.82,0,0,0-.42-3.26c-.53-1.37.63-1.68-.21-2.63s-.63-1.47-.21-2.63,0-1.47-.53-2.62-.94-2.74-.42-3.79,2-2.42,1.89-4.1a10.9,10.9,0,0,1,.77-4l-7.17.25q-12.21.44-24.47.72" transform="translate(-306.63 -153.46)"/><path class="cls-1" d="M595.72,410.11c-.22,1-1,1.32-1.87,1.76s0,1.76-1.1,2.42-2.2.44-2.75,1.21-2.08,1.76-1.21,2.53,1.54,3.41.55,4.51.33,1.76.33,3v3.84c0,1-1.75,1.65-.77,2.64a4.06,4.06,0,0,1,1.21,3.85c-.44,1.21.88,1,2,2.53s3.74,1.87,4.18,2.75.66.77,1.21,1,2.2.11,2.86,1.09,2.86,1.32,3.19,3.41.66,2.86,1.64,3.08a2.52,2.52,0,0,1,2.2,2.09,3.67,3.67,0,0,0,2.86,2.42c1,.22.33,2.09,1.32,2.42s1.76.77,1.54,1.87a1.73,1.73,0,0,0,1.87,1.86c.88-.11,1.54-.76,1.87-2.08a5.65,5.65,0,0,1,2-3.09c1.54-1.21,1.69-.07,2.86.66.87.55,1.86-.76,2.74.23s.44,2.2,1.76,2.2h3c.66,0,1.76-1.43,2.31-2.64a13.24,13.24,0,0,1,1.8-2.68,31.7,31.7,0,0,1,2.08-2.86c.84-1,1.14-3.1,2.07-4.66l3.75-3.91" transform="translate(-306.63 -153.46)"/><path class="cls-1" d="M626.94,370.13h-.07c-7.94,0-16.14.19-24.25.44a10.9,10.9,0,0,0-.77,4c.11,1.68-1.36,3-1.89,4.1s-.1,2.63.42,3.79,1,1.47.53,2.62-.63,1.69.21,2.63-.32,1.26.21,2.63a4.82,4.82,0,0,1,.42,3.26,4.9,4.9,0,0,0,0,3.26c.42,1.15-1,1.68-1,2.63s1.26.73.84,1.68a2.54,2.54,0,0,0,0,1.89s-.16,2.47-1.42,2.47-1.8.31-2.42,1.76c-.33.77-1.76,1.87-2,2.85" transform="translate(-306.63 -153.46)"/><path class="cls-1" d="M522.57,425.7h-2.33V423c0-.7-1.75-1.31-2.09-2.62s-.88-2.1-.35-3.15,1-1.83.69-2.79.27-1.66.62-2.45,0-1.75,0-2.45,1.13-1.13,1.13-2.27v-3.49c0-1-1-.53-1.22-1.83s-1.31-1.32-1.31-2.28-.44-1.74-.44-2.62.09-2.88-.78-2.88-2,.35-2.62-.52a2.25,2.25,0,0,1,.08-2.54c.44-.87-1-1.22-1.48-2s.08-1.57,1-1.92.61-1.05.61-1.74v-5.07c0-.87-1-1.05-1-1.92v-2.89c0-.61.79-1.13,1.83-1.13s1.93-1.14,2.45-2.27,1.4-.61,2.1-1.58h0" transform="translate(-306.63 -153.46)"/><path class="cls-1" d="M585.21,445.44c.81-1.64,1.84-2.67,3.14-2.93s1.9-.09,3.71.43a3.22,3.22,0,0,0,3.28-.86l.93-1c-.44-.88-3.08-1.21-4.18-2.75s-2.42-1.32-2-2.53A4.06,4.06,0,0,0,588.9,432c-1-1,.77-1.65.77-2.64v-3.84c0-1.21-1.31-1.87-.33-3s.33-3.74-.55-4.51.66-1.76,1.21-2.53,1.65-.55,2.75-1.21.22-2,1.1-2.42,1.65-.77,1.87-1.76,1.65-2.08,2-2.85c.62-1.45,1.16-1.76,2.42-1.76s1.42-2.47,1.42-2.47" transform="translate(-306.63 -153.46)"/><path class="cls-1" d="M585.21,445.44c.14,4-.88,3.78-2.07,8s-2.09,3.58-2.39,6.12-1.34,3.13-1.34,3.13a35.44,35.44,0,0,1,0,4c-.15.75-1.79,1.2-1.79,1.2v4.62a11.44,11.44,0,0,1-2.09.75c-1.2.3-3.73,2.24-4.78,2.24h-4.17c-1.05,0-2.09.29-2.84-.75s-1.19-2.39-2.69-2.39h-7.31c0-1.49-1.34-4-2.83-4.48s-3.43,0-5.07.3-2.09-.15-1.79-1.34a4.21,4.21,0,0,0,0-3c-.45-1.34.74-3.13-.15-4.77a5.77,5.77,0,0,1-.9-3.58c0-1.34-.89-1.49-2.69-1.49s-2.83-1.05-4.47-1.05-2.24-2.09-2.69-3.43-1.64-2.39-2.68-3.58-.75-3.28-.75-4-1.34-1.34-1.34-2.09,1.19-.74,1.19-1.64v-3.73c0-1.34-1.19-2.83-2.09-3.73s-1.34-2.09-2.38-2.39a4.82,4.82,0,0,1-2.53-2.63" transform="translate(-306.63 -153.46)"/><path class="cls-1" d="M577.62,472.5v-4.63s1.64-.44,1.79-1.19a35.44,35.44,0,0,0,0-4s1-.59,1.34-3.13,1.19-1.94,2.39-6.12,2.21-4,2.07-8c.81-1.64,1.84-2.67,3.14-2.93s1.9-.09,3.71.43a3.22,3.22,0,0,0,3.28-.86l.93-1c.44.88.66.77,1.21,1s2.2.11,2.86,1.09,2.86,1.32,3.19,3.41.66,2.86,1.64,3.08a2.52,2.52,0,0,1,2.2,2.09,3.67,3.67,0,0,0,2.86,2.42c1,.22.33,2.09,1.32,2.42s1.76.77,1.54,1.87a1.73,1.73,0,0,0,1.87,1.86c.88-.11,1.54-.76,1.87-2.08a5.65,5.65,0,0,1,2-3.09c1.54-1.21,1.69-.07,2.86.66" transform="translate(-306.63 -153.46)"/><path class="cls-1" d="M641.15,441.52c6.08-6.41,15.53-6.38,15.53-6.38" transform="translate(-306.63 -153.46)"/><path class="cls-1" d="M646.51,370c-6.53.11-13.07.18-19.57.18" transform="translate(-306.63 -153.46)"/><path class="cls-1" d="M694.51,409.07c-.92-.28.59-1.77.22-2.23s-.39.38-1.09-.22-.32-1.76-1.15-2.29.34-1.11.81-2.86c.25-.93-1-1.21-.85-2.17.23-2.09,1-1.32,1-3.25,0-1.19.08-2.38.12-3.56a3.56,3.56,0,0,1,.07-1.85c.46-1.22,2.77-.37,3.45-2.79.21-.75-1.13-1.82-1-3a1.74,1.74,0,0,1,2.1-1.73c.14,0,.31-.13,0-.38l-1.32-1.42c-.18-.19-.09-.47.11-.45,2.89.36,1.34-2.74,2-4.14.5-.92-.07-1.15-.05-1.79.09-2.61,1.37.19,2.42-1.1.68-.83,1-3.77,1.11-5.43,0-.27,0-.71-.29-.37-.56.56-1,1.14-1.62,1.69-.21.25-.57.32-.48-.22s0-.86,0-1.29-.33-.54-.52-.52c-13.23,1.56-29.35,1.68-43.44,2.07q-4.77.13-9.57.22" transform="translate(-306.63 -153.46)"/><path class="cls-1" d="M656.68,435.14c2,0,9.86.91,11.68,1.75a21.76,21.76,0,0,0,4.93,1.86c1.54.28,3.35,2.55,6,3s-.07,5.95,3.15,5.39,6.83,2.57,9.21,1.45,5.38,3.56,7.63,3.42,2.16,1.86,3.42,3.68-3.2,6.35-1.1,5.09,2.24,1.26,3.64,1.12,1.55-2.53,3.51-1.26a6.94,6.94,0,0,0,3.24,1.24h.07c1,0,0-1.93.63-2.5,1.22-1.13,1.79-2.12,3.46-2.06.72,0,3.05.47,3.56.12,1.36-1-1.07-2.4.68-2a2.19,2.19,0,0,0,1.86-.81c.6-1.06-1.41-2.6-2.12-.48a1.88,1.88,0,0,1-2.72.82,3.23,3.23,0,0,1-.78-1.1,13.08,13.08,0,0,1-1.4-4.1c.12-3.57-2.36-.49-2.24-4.07.06-1.63-1.42-1.91-.72-2.87s1.46-6.13,1.06-7-1.22,3.64-2.42,2.29-1.67-3.73-2.2-4.83.06-1.88.12-3.55-.39-1.19-2-1.25c-.81,0-.21-1.72-.28-2.39s.52-2.35-.29-2.38c-1.58-.06-2,.37-2-1.26,0-1.3-1.65-1.37-2.5-1.43s-1.24-1.37-2.11-2.27.57-1.58.08-2.38-1.57-.38-2.52-.23-.35-1-1.31-1.45.64-.81-.6-1.81,0-3.56-.89-3.84" transform="translate(-306.63 -153.46)"/><path class="cls-1" d="M692.93,477.79c-1-2.78.63-5.15,2.44-6.85.84-.79,2.31.15,3.42-.89,1.72-1.6,1.46-1.61,3.07.11,3.14,3.34,3.25-1.08,3.33-3.43,0-.74,2.76-.28,3.56-.25,1.89.06,1-.71,1.27-2.31.42-2.23-.52-2.4,2-2.32a6.94,6.94,0,0,1-3.24-1.24c-2-1.27-2.11,1.12-3.51,1.26s-1.54-2.39-3.64-1.12-4.49,3.22-5.75,1.4-.84-3.79-3.08-3.65,1.7-2.58-.68-1.46-6.58,5.94-8.47,9.57c-1.51,2.9-3.58,1.12-5.56,2.75a6.64,6.64,0,0,1-5.75,1.33l-4.71,0" transform="translate(-306.63 -153.46)"/><path class="cls-1" d="M718,506.75c-.4-4.52-4.75.33-4.59-4.19.05-1.61-.54-2.75,1.27-2.68,1.14,0,1.4.49,1.3,1.37-.35.95.21.66.46.46,1.72-1.38,4.52-3.24,4.17-.29-.29.68-.11,1.25.62.42.92-1,1.43-2,2.55-.81,1.58,1.68,1.66,1.38,3.85,1.66s2.28,0,3.85,1.68a2.84,2.84,0,0,0,2.51,1c.62.05.34-.74.19-1.08l-1.32-2.87c-.38-.88,0-1.19,1.28-1.24a3.5,3.5,0,0,0,3.11-1.86c1.32-2.28-.78-2.41,2.84-2.28,2.76.09,2.06,1.48,4.28,2.52a9.45,9.45,0,0,0,3.52.2c.88,0,.74-.54.52-.76a4.79,4.79,0,0,1-1.53-2.34c-.08-1.08-.64-1.15-1-.86-1.74,1.46-3.85,2.65-3.73-.69.05-1.49-1.48-2.39-2.95-2.74-1.69-.37-.9-1.07-.4-1.56a2.4,2.4,0,0,1,1.53-.89c1.09,0,3.35.51,4.36.15,1.69-.61,1.63-2.31,3.63-2.24,1.45.05,2.14-.73,3-1.68.56-.48.56-1-.27-1-2.36-.08-4.61.24-7,.16-1.5.05-1-.75-.55-1.23,1.28-1.43,3-3.41,4.16-3.37,2.93.1,4.34,1.07,4.45-2.22,0-1.61.63-2.33-1.1-2.39S750,474.61,750,473c.08-2.34-4.33,1.4-4.63,1.68-1.39,1.31-1.94,4.87-2.61,6.65-.27.75-2.66.63-4,.41-.55-.09-1.24,0-.89-1.21.31-1.08.68-2.33.12-3.38-.27-.5-1.91-.06-2.35-.28-1.28-.65-2.75-2.69-3.88-4.1-.57-.59-.31-1,.42-.75,1.76.6,2.32-2.29,4.08-2.23,1.58.05,2,.51,2-1.13,0-1.05.31-1.18-.7-1.22-2.1-.07-4.24-.05-6.34-.22-1.83-.14-2.48-.35-3.35-1.15-.36-.33-1.43-.69-1.48,1.44,0,1.73-.8,2.69-2.78,4.54-1.22,1.14-1.66,2-3.31,1.93-1.81-.06-1.09.69-1.26,2.31-.27,2.45-.18,5-.27,7.46-.12,3.62-.74.34-2.44,1.93-1.24,1.15,1.26,2.4-1.26,2.31-2.21-.07-6.29.59-8.28-.29-1.82-.8-3.53-5.44-2.12-7.17s2.31,1.81,2.44-1.91c0-.69-2.13-.66-2.61-.22-2,1.86-3.68,1.94-5.59,3.14a2.74,2.74,0,0,1-2.21-.17c-1.58-.66-2.73-.64-3.8-3.62" transform="translate(-306.63 -153.46)"/><path class="cls-1" d="M680.89,532.61a4.85,4.85,0,0,1,2.68-.62l5.47.19c2.76.1,2.17-1.43,4.45-2.22,3.07-1.06,2.32,1.72,2.25,3.64-.08,2.4-.33,3.33,1.36,5.13,1.34,1.43.71,3.49.64,5.4,0,.56,0,1-.06,1.43-.21,1.2-.26,1.91.73,1.51,2.35-.94,5.44-.16,8-.08,1.81.07,3.63,1.61,5.18,2.46,1.18.64,2.71.27,4,1,3.74,2,6.79,4.22,11.09,4.37,2.06.07,2.54,2.47,4.13,2.52s3.58.57,4.29,2.52c.28.8-.74,4.71.2,4.74,2.92.1,2,1.33,1.87,4.06,0,1,2.45,1,3.48,2.06a12.07,12.07,0,0,0,3.49,1.68c.26.86-.39,2.81-.93,4.76-.31,1.09-1.77,2.59-2.58,3.47s-3.52,2.27-3.57,3.71c-.06,1.67,0,2.15.71,2.92,1,.94,1.85-.19,2.26-.9a27.9,27.9,0,0,0,1.35-2.57c.43-1,0-2,.64-2.64,2.28-2.13,3.91-8.27,6.87-9,1.11-.26,3.57.13,4.74.17,2.33.08,2.38-.29,2.3,2.08-.1,2.77,3.43,2.95,5.75,3,.57.11,1.56-.25.19-1.13-.4-.43-1.07-1.46-.23-2.27,1.79-1.73,3.34-3.63,5.9-3.54,5.43.19.53-2.43,3.08-4.81,1.69-1.58,2.26-1.83,2.34-4.12,0-1.16,2.36.78,2.44-1.45,0-.81.48-3.55-.25-3.58-1.74-.06-2.34-.13-2.08-1.71.23-.68-.08-.68-1.3.05-1.78,1.06-4.47,2.3-5.72,1.35s1.52-2.31-1.1-2.4c-2.27-.08-.35-.91-1.1-2.42-.48-1-1.81-1.5-2.28-2.46-.76-1.5,1.16-2.32-1.11-2.4s-.37-.91-1.1-2.43c-.29-.59-2.09-2.62-2.55-2.2-1.22,1.13-2.18,1.57-2.23,3.23-.05,1.35-.92,1.75-2.41,1.11-2.66-1.13-1.4-4.8-3.38-4.87s-5.95.68-5.88-1.38c.08-2.25-.88-.41-2.32-1.25a7.93,7.93,0,0,1-1.78-1.86c-.21-.38-.78-.54-.63.14.43,1.86-1.11,1.59-3.08,1.52-2.42-.08-4.09.58-4-1.63.25-.77-.12-.77-.56-.58l-3.11,1.43c-1.12.66-.94-.16-.93-.43.07-1.62-.79-2.28-2.08-3.65-.38-.41.85-1.43,1.66-2.09.49-.28.65-.59-.7-.5a8.24,8.24,0,0,1-3.63-.5c-.36-.35,0-2,.21-3.32,0-.47.36-1.41-.72-.6s-3.2,1.94-4,1.77-2.55-2.94-3.1-3.33-1.89-1-3.12-1.8a1.23,1.23,0,0,1-.51-1.66c.29-.85.85-1.22,1.74-2,.21-.19.72-.88-.63-.72s-1.14-.86-1.09-2.56c.08-2.31-.25-2.39,2.09-2.31.74,0,.47-2.74.5-3.54.06-1.82,1.15-1.15,2.77-1.09,1.16,0,6.8.82,8.23.52.89,1.38-.65,2.12,2.8,2.24.71,0,1.46,1,2.06,1.73.43.75.8.39.81-.38,0-1.32-.43-1.61-2-1.67-1.12,0-2-2.85-3.63-2.46-1.14-.31-1.55.21-3-1.33-.69-.74-3.1-.62-3.17-1.31" transform="translate(-306.63 -153.46)"/><path class="cls-1" d="M667.62,470.65a27,27,0,0,1-5.68-1.9c-1.82-.84-2.08-1.38-4-1.38l-4.52-.76s-.17,17.42-.17,19,1,1.22,1,2.44,1.1,1.59,1.59,2.45.73,2.07,1.34,3.05,2.32,1.46,3.17,2.44,2.81,1.22,2.81,1.95v2.69c0,.73-1.46,1.71-1.83,2.81s-1.83,2.56-1.83,3.66-1,2.32-1,4.15h2.81c.85,0,1.1,1.1,2.2,1.1s1.1,2.2,1.1,3.18-1.1,1.1-1.1,2.19,1.1,1.71,1.1,2.94v2.68c0,.73-1.35.37-2.08,1.47s-.37,1.46.24,2.44,1,3,1.84,3.78,1.58,1.35,1.58,2.45,1,1.22,2,1.46a14.77,14.77,0,0,0,2.93.49c.73,0,2.32-.73,2.93-.12s1.52,2.92,2.62,3.16c.09-2.58-.79-4.38,2.16-4.28.91,0,1.5-1,2.13-1.58" transform="translate(-306.63 -153.46)"/><path class="cls-1" d="M658.47,511.25c0-1.83,1-3.05,1-4.15s1.46-2.56,1.83-3.66c.42-1.27,2.32-2.38,1.71-3.13v-2c.66-1-1.73-1.17-2.7-2.28s-2.56-1.46-3.17-2.44-.86-2.2-1.34-3.05-1.59-1.22-1.59-2.45-1-.85-1-2.44.17-19,.17-19l-6.07-.72s-1.59-.49-1.72-.26" transform="translate(-306.63 -153.46)"/><path class="cls-1" d="M621.67,455.84c.87.55,1.86-.76,2.74.23s.44,2.2,1.76,2.2h3c.66,0,1.76-1.43,2.31-2.64.23-.5,2-2.95,4-5.74,1.09-1.47,1.08-3.72,2.35-5,.79-.79,2.07-2.24,3.33-3.4a31.74,31.74,0,0,1,2.89-2.45,22.14,22.14,0,0,1,6.54-3c.3-.09-2.38,2.78-3.74,4.56-1.13,1.49-1.28,1-2.49,2.9-.75,1.17-1.3,4.25-1.78,5.34s-2.27,2.63-2.55,3.57c-.44,1.45.31,3.23.23,4.31a15.79,15.79,0,0,0,.09,4.65l5.26,4.21" transform="translate(-306.63 -153.46)"/><path class="cls-1" d="M577.62,472.5a11.44,11.44,0,0,1-2.09.75c-1.2.3-3.73,2.24-4.78,2.24h-4.17c0,1.94-.6,3-1.2,3h-2.09v3.28h0a9.1,9.1,0,0,1,2,4.51c.28,1.68,1.12,1.82,2.1,2.24s1.26,2.24,1.26,3.64-.14,2.39,1,2.81a15.69,15.69,0,0,0,3.36.42c.85.14,2.39,0,2.95.84s2.66,1.82,2.52,3.22-1.12,2.1-.28,3.37,1.82,2.66.42,3.36c-.84.42-1,1-1,2.1a17,17,0,0,1-.14,2.11c.84,1,1.68,2.52.84,3.78s-.84,2,.14,2.52a2,2,0,0,1,1,1.63h0" transform="translate(-306.63 -153.46)"/><path class="cls-1" d="M645,561.45c1.41-.63.82-2.78,1-3.61a19.88,19.88,0,0,1,2.69-6.87c.36-.88,2.09-1.64,3-.45a29.59,29.59,0,0,0,2.25,3.27c1.07,1.15.14,2.6,1,3.51,1.78,1.91,1.94,2.05,2,4.56,0,.83-.62,4.09-.16,4.73.27.4,2.09-.3,2.37.09s-.07,1.88-.09,2.37c-.12,3.47-.19,1.2-2.45,2.29s-1.54,2.44-4.25,2.34c-.54,0-1.64,1-2.54,1.45-2.47,1-2.42,2,1.2.68a102.16,102.16,0,0,0,20-9.53c3.07-1.89,5.52-4.39,8.16-6.85,2-1.88,4-4.72,6.55-5.67,1.21-.31,1.46-.88.22-.72a8.17,8.17,0,0,0-5.11,2.55c-1.25,1.17-1.82,2.12-3.5,2.53s-1.6-.23-1.7-.49c-1.09-2.66-4.19-5-4.07-8.29,0-1.64.47-1.17,2-1.12,1.1,0-.27,1.94.29,2.39s4.21.15,5.11.18c2.84.1,2.92-2.27.08-2.37-1.9-.07-3.69.19-2.66-2.48.52-1.34,4-2.45,2.54-4.66-.39-.59-2.4.64-2.36-.45,0-.79.05-1.57.08-2.36-1.1-.24-2-2.55-2.62-3.16s-2.2.12-2.93.12a14.77,14.77,0,0,1-2.93-.49c-1-.24-2-.37-2-1.46s-.73-1.71-1.58-2.45-1.22-2.8-1.84-3.78-1-1.34-.24-2.44,2.08-.74,2.08-1.47v-2.68c0-1.23-1.1-1.84-1.1-2.94s1.1-1.22,1.1-2.19,0-3.18-1.1-3.18-1.35-1.1-2.2-1.1h-2.81" transform="translate(-306.63 -153.46)"/><path class="cls-1" d="M579.41,518.3a5.91,5.91,0,0,0-3.43,1.34c-.9.75-3.29,2.24-4.63,1.65a2.27,2.27,0,0,0-3,.59c-.9.9-1.94,1.79-1.94,2.69s.15,1.79-1.35,1.79-2.68.45-2.68,1.49a35.86,35.86,0,0,1-.89,4.59,3.19,3.19,0,0,1,2.34.94c1.38,1.46,1.48,1.58,1.41,3.56,0,.95,1.73.1,2.34.45,3.39,2,1.61,3.75.16,6.4-.77,1.39-1.52.11-2.76.65-.79.34-1.63,1.52-2.27,2.12-1,1-.07,4.91-3.09,4.81-2.16-.08-1.72-.29-1.94-2.08-.28-2.27-2.72-1.6-1.4.57s3.62,3.88,5.44,5.81c.85.91,1.74.25,2.85.59a22.77,22.77,0,0,1,3.93,2.15c1.21.66,1.83,2.29,3,2.84.94.44,3,.1,4,.14,2.23.07,3.81,2.5,6,2.58,4.51.16,12.12-1.07,15.28,2.3,1.58,1.69,1.49,5.4,4,5.49,1.89.07,3.59,2.35,5,4,.27.32.83,1.46.65-.15-.1-.88.26-1.31,1.39-1.27,2.52.09,0-1.17,1.26-2.33s2.3,1.42,2.39-1.1c0-1.63.47-1.16,2-1.11l7.11.25c1.13,0-.31-2.39.82-2.35s2,.55,2-.67c.06-1.84-.66-6.4,1.41-6.32,1,0,5.9.51,5.93-.17,0-1.33.09-2.66.13-4,0-1.12-2.36.31-2.32-.82.11-3.13,2.55-1,2.59-3.29-.38-1.3.68-.16,1.07.26s1,2.28,1-.11c-.07-3.4,4.18,1.46,5.24,1.5,4,.14.49,3.32,2.65,5.65.63.68,2.28,2.38,3.84,1.68" transform="translate(-306.63 -153.46)"/><path class="cls-1" d="M507.13,508.33c.29,1.33,1,2.15,2.39.83a22.49,22.49,0,0,1,6.86-4.24c1.35-.62,13.52-.57,14.43.4.47.51-.06,6.94-.51,7.35-1.22,1.12-2.17,1.55-2.22,3.21-.07,1.83.69,1.08,2.32,1.27.58.07,7.1.05,7.08.45-.12,3.37-.32,4.22,1.63,6.44.16.18.67.57,0,1.06a6.78,6.78,0,0,0-2,2.94c-.25.72-.05,1.29,1,.77,2.75-1.08,5.33-1.52,7.57-3.11.36-.26,1.08-1.14,1,.73-.09,2,2,3.22,4.27,3.29,2.81.1,4.15.88,6.64,2.24,1.24.67,2.65.41,4,.48a35.86,35.86,0,0,0,.89-4.59c0-1,1.19-1.49,2.68-1.49s1.35-.9,1.35-1.79,1-1.79,1.94-2.69a2.27,2.27,0,0,1,3-.59c1.34.59,3.73-.9,4.63-1.65a5.91,5.91,0,0,1,3.43-1.34h0a2,2,0,0,0-1-1.63c-1-.56-1-1.26-.14-2.52s0-2.8-.84-3.78" transform="translate(-306.63 -153.46)"/><path class="cls-1" d="M438.18,428.35a2.51,2.51,0,0,0,.73,2.07c1,1.21,1.7,1.82,1.7,2.55v3.16a3.12,3.12,0,0,1-1.7,2.31c-1,.48-.85,1.21-.61,2.06a3.45,3.45,0,0,1,.25,2.43c-.37.73-1,1.34-.49,1.95s.36,1,.36,1.82V454c0,1,0,1.58,1,2.07s3,.73,2.31,2.06-1.58,1.83-1.58,3-.61,1.82-1.34,2.8-.37,1.7-.37,2.43a9.39,9.39,0,0,0,1.1,2.67" transform="translate(-306.63 -153.46)"/><path class="cls-1" d="M496.25,518.38a10.2,10.2,0,0,0-1.09-.1l-7.45-.26c-3.49-.12-3-2.11-3.95-5.38-.93-3.11-.53-4.16,1.81-6.35,1.91-1.79,4.76-3,7-4.38s4.44-1.83,6.3-3.46" transform="translate(-306.63 -153.46)"/><path class="cls-1" d="M439.52,469.06a37.17,37.17,0,0,1-4.13,1.95c-1.76.72-4.14,2.55-6,3.64H439v48.8c4.85.16,9.86-.09,14.64.76,5.78,1,11.62,2.52,17.5,2.73,2.8.1,5.07-2.5,7.74-3.72,2.12-1,4.14-.6,6.47-.52,1.75.06,5.86-.51,7.33.56l.09.06" transform="translate(-306.63 -153.46)"/><path class="cls-1" d="M438.18,428.35v-.85a4.86,4.86,0,0,1,.51-1.25c.36-.57,0-1.42.22-2.12a3.41,3.41,0,0,1,1.63-1.85c.77-.42.92-1.34,1.48-2s.21-1.42-.42-2.05-.92-1.77-.92-3.4V383.55h8.63c1,0,1.05-.91,1.84-1.26s.78-.87.78-1.48-.78-.7-.78-1.66.7-1.4,1.57-1.49,1.31-1.05,2.88-1.48,2.36-1.23,2.36-2,1.05-1.23,2.36-1.23a5.17,5.17,0,0,1,3.75,1.66c.7,1,1.23,1.75,2.19,1.75h3.58s.09,2.27.09,3.14,1.57,2.19,2.27,2.8a3.74,3.74,0,0,1,1.4,2.71v4h2.27" transform="translate(-306.63 -153.46)"/><path class="cls-1" d="M520.24,425.7V423c0-.7-1.75-1.31-2.09-2.62s-.88-2.1-.35-3.15,1-1.83.69-2.79.27-1.66.62-2.45,0-1.75,0-2.45,1.13-1.13,1.13-2.27v-3.49c0-1-1-.53-1.22-1.84s-1.31-1.31-1.31-2.27-.44-1.74-.44-2.62.09-2.88-.78-2.88-2,.35-2.62-.52a2.25,2.25,0,0,1,.08-2.54c.44-.87-1-1.22-1.48-2l-25.07.09c-.7,0-.88-.61-1.49-.61s-.78.44-1.66.44h-8.38" transform="translate(-306.63 -153.46)"/><path class="cls-1" d="M492.8,523.32c1.56,1.17,4.78,4.54,6.61,4.61,1.17,0,3.49-.36,4.53.15s1.36,2,2.29,2.46c1.34.71,2-.32,3.17.94,1.37,1.46,1.49,1.57,3.46,1.64,3.1.11,5.16-.8,5.27-4.17,0-1,2.27-2.78,3.79-4,2.15-1.89-.67-.83-1-1.21s1.05-3.12-1.15-1.27c-1.9,1.6-2.13.68-4.32-1.71-1.44-1.56-1.57-1.82-3.67-1.9-1.05,0,.28-2.35-.49-2.38l-8.09-.28c-2.26-.08-.42.87-1.27,2.32a7.79,7.79,0,0,1-1.8,1.89.58.58,0,0,1-1.05,0,3.63,3.63,0,0,0-2.8-2" transform="translate(-306.63 -153.46)"/><path class="cls-1" d="M563.29,481.75v-3.28h2.09c.6,0,1.2-1,1.2-3-1.05,0-2.09.29-2.84-.75s-1.19-2.39-2.68-2.39" transform="translate(-306.63 -153.46)"/><path class="cls-1" d="M498.85,498.45l.2-.17c1.28-1.2,1.44-1.14,3.23-1.08.92,0,2-1.5,2.64-2.11a1.45,1.45,0,0,1,2.51,1.1c-.09,2.63,1.41-.11,2.33,1.27,1.31,2-2.17,5.43-2.62,7a10.09,10.09,0,0,0,0,3.83" transform="translate(-306.63 -153.46)"/><path class="cls-1" d="M520.24,425.7h2.33a4.79,4.79,0,0,0,2.53,2.63c1,.3,1.49,1.5,2.38,2.39s2.09,2.39,2.09,3.73v3.73c0,.9-1.19.9-1.19,1.64s1.34,1.34,1.34,2.09-.3,2.84.75,4,2.24,2.24,2.68,3.58,1.05,3.43,2.69,3.43,2.68,1.05,4.48,1.05,2.68.15,2.68,1.49a5.77,5.77,0,0,0,.9,3.58c.89,1.64-.3,3.43.15,4.77a4.21,4.21,0,0,1,0,3c-.3,1.19.14,1.64,1.79,1.34s3.58-.74,5.07-.3,2.83,3,2.83,4.48" transform="translate(-306.63 -153.46)"/><path class="cls-1" d="M577.43,510.37a17,17,0,0,0,.14-2.11c0-1.12.14-1.68,1-2.1,1.4-.7.42-2.1-.42-3.36s.14-2,.28-3.37-2-2.38-2.52-3.22-2.1-.7-2.95-.84a15.69,15.69,0,0,1-3.36-.42c-1.12-.42-1-1.41-1-2.81s-.28-3.22-1.26-3.64-1.82-.56-2.1-2.24a9.1,9.1,0,0,0-2-4.51h0" transform="translate(-306.63 -153.46)"/><path class="cls-1" d="M429.3,183.05h-9.41v4.38c0,1.53-2.41,2.85-3.29,4.16s0,4.82.22,6.35-1.09,2-1.75,3.72v14.51h23.38v-3.1c0-1,.25-1.54,1.09-1.54h17.65" transform="translate(-306.63 -153.46)"/><path class="cls-1" d="M387,249.22h22.8v3.24c0,1.21.93.65,2,1.76a2.6,2.6,0,0,1,.83,3.15c-.37,1.48.47,2,1,2.78a3.39,3.39,0,0,1,.93,2.78c0,1.76-.46,1.58-1.11,2.87s.83.93.65,2.32.83,1,1.29,2.41-.65,1.67-1.57,2.69-.65,1.94-.65,2.87v3.43c0,1.3-.19,2.69-1.3,1.85a2.22,2.22,0,0,0-3.15,0c-1.11.93.56,1.11.09,2s.28,1.11.28,2.69-.09,2.69-1.11,3.52a3.54,3.54,0,0,0-1.3,3.24c0,1.58,0,3.11.56,3.71s.37,1-.19,2-.18,1.85.65,1.85H410c.74,0,.64,1.3,1.11,1.3h1.39v3c0,.92.28,1.48.92,1.48h2.23c.65,0,.83.28,1.39,1.48a1.89,1.89,0,0,0,2,1.39h3.7c.93,0,1.58,1.3,1.95,2.5s1.21,1.76,2.32,3.06,2.27,1.32,3.15,3.06a14.64,14.64,0,0,1-2.87,2.22c-1.3.65-2.78,1.39-3.06,2.41s-2,2.23-3,2.69-2.5,1.11-3,2.22a7.12,7.12,0,0,1-3.34,3.25,6.44,6.44,0,0,0-2.87,2.31c-.84,1-2.23.28-3.06,1.12s-.68,1.56-.88,2.43c-1.1-.36-1.83,0-3-1.33s-4.26-1.55-6.93-1.55h-16" transform="translate(-306.63 -153.46)"/><path class="cls-1" d="M324.08,282.32c0,.51,0,1.05,0,1.6-.07,1.92,2.13,2.91,3.48,4,1.09.86,1.74,3.2.75,4a1.13,1.13,0,0,0,.07,2,2.76,2.76,0,0,1,1.13,2.52c0,1.09,2-.13,2.35.45s.11,2.4-.45,2.38c-2.94-.11-2.06,1.72-2.15,4.3-.07,1.95-.28,2.68-1.12,3.61-.68.67-1.09,1.29-.16,1.32,1.6,0,1,1.79,1,3.7-.06,1.63.38,1.2,1.95,1.25,1.09,0-.26,1.94.29,2.39.82.67,4.78.17,5.92.21,1.48,0,1.39,1.61,1.2,3.15-.12,1.3-.81,1.76-1.52,1.72-1.4.15-1.82.83-.57,1.81.88.71,2.12.78,3.83.54.69-.1.25,3.59.22,4.37,0,1.09,1.92-.13,2.33.45s-.15,1.81-.08,2.36A17,17,0,0,1,343,334c-.07,1.53-.71,2.92-.75,3.94-.08,2.26.4,2.51,2,4.19.61.65,2.63-.21,2.59.71,0,.74-.54,3.83-.15,4.38,1,1.35,2.43-1.35,2.33,1.26-.09,2.77,0,3.54,1.55,5.31.65.81.56.18.56-.47.18-1.36,1.38-1.39,2.8-1.25,0-1.07.15-5.05.34-6.66a2.72,2.72,0,0,1,2.8-2.53H364a6.17,6.17,0,0,1,1.68-3.08c1.13-1.12,1.83-4.06,2.39-5.19s1.54-1.12,3.36-1.12h10.79" transform="translate(-306.63 -153.46)"/><path class="cls-1" d="M408.17,336.35c-1.1-.36-1.83,0-3-1.33s-4.26-1.55-6.93-1.55H371.38c-1.82,0-2.8,0-3.36,1.12s-1.26,4.07-2.39,5.19a6.17,6.17,0,0,0-1.68,3.08h-6.87a2.72,2.72,0,0,0-2.8,2.53c-.19,1.61-.34,5.59-.34,6.66l1.56.17a.44.44,0,0,1,.34.69c-.43.91-.8,2-1.47,2.32-1.33.65-.1,2.44,1,3.71a.53.53,0,0,1-.56.77c-2.65-.32-2,4.3-.4,4.36,2.74.09,1,5.22,1,5.93-.07,1.91-.79.91-2.42,1.1s-2.34-.8-2.4,1.1c0,.85-.29,3.56.24,3.58,1.73.06,4.4-.67,4.33,1.33-.08,2.46.64,3.58-2.13,3.49-1,0,.19,2.31-1.69,2.41-.29,0-.67.35-.05,1.2a5.37,5.37,0,0,1,1,2.45c.8-.24,1.51-.46,1.89-.6a5.16,5.16,0,0,1,4,.72,4,4,0,0,0,3.89.37c1.34-.73,2.31-1.82,4.62-1.82s22.11-.25,23.82-.25,1.33.85,2.55.85h4.25c1.22,0,1.09-.85,2.19-.85h6.68v1.1H420.8v-1.83" transform="translate(-306.63 -153.46)"/><path class="cls-1" d="M466.87,273.15V250.07h-4.52c-1.05,0-1.89-1-2.84-1s-1.05,1-1.78,1h-3.47c-2.11,0-2.63-.85-6.94-.85H409.79v3.24c0,1.21.93.65,2,1.76a2.6,2.6,0,0,1,.83,3.15c-.37,1.48.47,2,1,2.78a3.39,3.39,0,0,1,.93,2.78c0,1.76-.46,1.58-1.11,2.87s.83.93.65,2.32.83,1,1.29,2.41-.65,1.67-1.57,2.69-.65,1.94-.65,2.87v3.43c0,1.3-.19,2.69-1.3,1.85a2.22,2.22,0,0,0-3.15,0c-1.11.93.56,1.11.09,2s.28,1.11.28,2.69-.09,2.69-1.11,3.52a3.54,3.54,0,0,0-1.3,3.24c0,1.58,0,3.11.56,3.71" transform="translate(-306.63 -153.46)"/><path class="cls-1" d="M430.18,317.7c-1-1.83-2-1.76-3.15-3.06s-1.95-1.85-2.32-3.06-1-2.5-1.95-2.5h-3.7a1.89,1.89,0,0,1-2-1.39c-.56-1.2-.74-1.48-1.39-1.48H413.4c-.64,0-.92-.56-.92-1.48v-3h-1.39c-.47,0-.37-1.3-1.11-1.3h-2.23c-.83,0-1.2-.83-.65-1.85s.79-1.44.19-2" transform="translate(-306.63 -153.46)"/><line class="cls-1" x1="160.25" y1="119.69" x2="188.68" y2="119.69"/><path class="cls-1" d="M537.54,292.21c-.44-1-1.26-1.32-1.45-2.27s-1.58-1.71-1.83-2.21.63-1.27.63-1.9V282a3.08,3.08,0,0,0-.57-2c-.44-.5.06-1.7.76-2.59H533V268.7h-3.83c-.86,0-.57,1.43-1.43,2.29s-1.15,2.1-2.2,2.39-1.34,1.63-2.1,2.58a4.77,4.77,0,0,1-3.54,1.82,7,7,0,0,0-3.73,1.05c-.76.57-.86-1.15-1.52-1.34s-.58-1.24-.58-1.81,0-1.63-1.14-1.63-1.53-.86-2.49-1.24-.38-2.49-1.43-2.49a4,4,0,0,1-2.58-1.53l-2.12.53v3.83h-9" transform="translate(-306.63 -153.46)"/><path class="cls-1" d="M430.18,317.7a14.64,14.64,0,0,1-2.87,2.22c-1.3.65-2.78,1.39-3.06,2.41s-2,2.23-3,2.69-2.5,1.11-3,2.22a7.12,7.12,0,0,1-3.34,3.25,6.44,6.44,0,0,0-2.87,2.31c-.84,1-2.23.28-3.06,1.12s-.68,1.56-.88,2.43" transform="translate(-306.63 -153.46)"/><path class="cls-1" d="M420.8,384.35h8.05c1,0,1.84-.8,3.4-.8h17.06c1,0,1.05-.91,1.84-1.26s.78-.87.78-1.48-.78-.7-.78-1.66.7-1.4,1.57-1.49,1.31-1.05,2.88-1.48,2.36-1.23,2.36-2,1.05-1.23,2.36-1.23a5.17,5.17,0,0,1,3.75,1.66c.7,1,1.23,1.75,2.19,1.75h3.58" transform="translate(-306.63 -153.46)"/><path class="cls-1" d="M469.84,376.35s.09,2.27.09,3.14,1.57,2.19,2.27,2.8a3.74,3.74,0,0,1,1.4,2.71v4h10.65c.88,0,1.05-.44,1.66-.44s.79.61,1.49.61l25.07-.09c-.53-.78.08-1.57,1-1.92s.61-1.05.61-1.74v-5.07c0-.88-1-1.05-1-1.92v-2.89c0-.61.79-1.13,1.83-1.13s1.93-1.14,2.45-2.27,1.4-.61,2.1-1.58,1.22-3.05,2.32-4.17" transform="translate(-306.63 -153.46)"/><path class="cls-1" d="M521.78,366.41c-.7,1,1,2.31,1.82,2.24,1.83-.14,2.35-2,3.37-.84a3.72,3.72,0,0,1,1.12,3.09c-.28,1.12-.44,1.72.25,1.6,1.17-.53,4.06-1.2,4.82-2.19,1.05-1.38,0-2.28,1.66-3.85,1.39-1.29-.09-1.84-1.24-3.09-.7-.75-1.81-2.61-2.83-2.64-4.69-.17,0-4.66.62-7.08a22,22,0,0,0,.15-4.38c0-1.17-2.39.61-2.31-1.63.08-2.57-2.38.12-2.3-2.45.07-1.79,1-1.15,2.62-1.1,3.93.14,5.54-.3,9.13-2,.56-.26.33-3.74.36-4.46,0-1.16-2.38.61-2.3-1.62s-2.35-.47-2.31-1.64c0-.49,0-1,.05-1.48a2.91,2.91,0,0,0-.49-1.05c-1.35-1.41-2.9-3.15-1.06-4.87s4.23-3.08,4.11.39c-.06,1.67.05,5.11,2.55,5.2,2.15.08,2,.22,2.07-1.94,0-.49,1-.49,1.7-.4.27,0,.67.08.12-.48-1-1-1.91-2-2.87-3.07-1.49-1.6-.35-1.81-1.06-3.61-.53-1.32-2.3-1.63-2.25-3.19s.11-2.91.16-4.36c.08-2.45.14-1.81,2.42-1.9,1.44,0,2.93.1,4.37.15,3.23.12,2.95-4.89,3-5.82,0-.57-.9-.29-1.24-.07-1.43.89-4.87,2.16-6.18.74-2.56-2.75-2.69-3.63-.37-5.93.66-.7,1.18-.36,1.14-.18-.49,2.69.9.5,2.17,1.88.67.72,2.71,2.67,3.51,2.53,1-.17,1-.37,1.06-.63s-.3-1.64.26-2.15,2.1-1.48,2.19-2c.27-1.55-2.24-3.51-2.19-5.2a4.41,4.41,0,0,1,2.52-4.27c.64-.31,2.36.67,2.39-.28a.41.41,0,0,1,0-.18h-15" transform="translate(-306.63 -153.46)"/><path class="cls-1" d="M347.86,239.75v-3.28a11.85,11.85,0,0,0-2.85-2.41c-1.09-.44-.65-2.84-2.19-2.84s-3.5.43-4.81-.66-2.41-2.41-4.16-2.19-3.29,1.09-3.51,2.19a5.41,5.41,0,0,1-2.62,3.28,4.81,4.81,0,0,0-2.63,3.73c-.22,1.75-2.63,3.5-4.38,4.59s-3.06,2.19-3.94,2.19H310q-.28,8-.56,16c-.1,2.9-1.31,4.91,1.83,5,1.13,0-.48,2.34.66,2.38,2.14.07,1,0,.94,2.14,0,1.17,2.4-.61,2.32,1.64-.08,2.53,1.16,0,2.32,1.27s-1.42,2.31,1.1,2.4c.63,0-.42,1.81.5,1.78a2.72,2.72,0,0,1,2.24,2c0,.43-.22.85,0,1s.78,0,1.37,0c1,.19,1.3,1.16,1.39,2.35" transform="translate(-306.63 -153.46)"/><path class="cls-1" d="M328.81,156.74c-6,0-12-.22-18.1-.44.05.42.11.83.16,1.25.68,5.18,1.8,10.41,1.61,15.65q-.32,9.35-.65,18.69l-1.11,31.71L310,244.35h6.77c.88,0,2.19-1.09,3.94-2.19s4.16-2.84,4.38-4.59a4.81,4.81,0,0,1,2.63-3.73,5.41,5.41,0,0,0,2.62-3.28c.22-1.1,1.75-2,3.51-2.19s2.84,1.09,4.16,2.19,3.28.66,4.81.66,1.1,2.4,2.19,2.84a11.85,11.85,0,0,1,2.85,2.41v3.28h13.57" transform="translate(-306.63 -153.46)"/><polyline class="cls-1" points="54.81 86.29 55.46 86.95 60.5 86.95"/><path class="cls-1" d="M356.92,156c-4.57.05-9.15.19-13.8.45-4.8.26-9.56.34-14.31.31" transform="translate(-306.63 -153.46)"/><path class="cls-1" d="M382.23,156.45l-4.18-.16c-7.14-.25-14.12-.38-21.13-.31" transform="translate(-306.63 -153.46)"/><path class="cls-1" d="M415.07,201.66c.66-1.75,2-2.19,1.75-3.72s-1.09-5-.22-6.35,3.29-2.63,3.29-4.16v-4.38h9.41V180c0-1.1-.88-1.54-.88-2.41s1.75-.66,1.75-1.75V158c-16-.12-32-1-47.94-1.56" transform="translate(-306.63 -153.46)"/><path class="cls-1" d="M387,249.22a4.44,4.44,0,0,0-.92-2.69c-.74-1-1.58-1-1.58-2v-4.08h-22.4l-.66-.66H347.86" transform="translate(-306.63 -153.46)"/><polyline class="cls-1" points="117.56 62.7 108.44 62.7 108.44 48.2"/><path class="cls-1" d="M367.12,240.41h17.37v4.08c0,1,.84,1,1.58,2a4.44,4.44,0,0,1,.92,2.69h33.63" transform="translate(-306.63 -153.46)"/></svg>