<svg id="base_map" data-name="base map" xmlns="http://www.w3.org/2000/svg" viewBox="0 0 287.98 117.61"><defs><style>.cls-1{fill:#015067;stroke:#fff;stroke-width:0.84px;}.cls-2{fill:none;}</style></defs><path class="cls-1" d="M442,163h-6c-1.78,0-2.23,1.69-3.21,1.69a4.43,4.43,0,0,1-2.85-.71c-.72-.63-2.23-.73-3.75-.73H415.29v37.17h37.42v-3.84l2.12-.52c-.67-.67-1.63-1.44-1.63-2.49V189c0-.95-1.33-2.1-1.81-2.77s-.77-1.05,0-1.72,1.81-.29,2.29-.77,1.91-.47,1.91-.47v-4.11c0-.86-1.33-.77-1.91-1.15s-.57-.76-.29-1.53a2.58,2.58,0,0,1,1-1.34c-.89.45-1.69-.09-2.32-.09s-1.42.09-1.87-.53-1.43-.54-3-.09-.63-1.34-.45-2.67-1.69.44-2.32-.36.72-1.61,1.43-2-1.61-.63-1.78-1.25.26-1,.89-1.87-1.07-.81-.45-1.43.09-1.78.09-1.78Z" transform="translate(-168.03 -83.25)"/><rect class="cls-2" width="18.83" height="32.37"/></svg>