<svg id="base_map" data-name="base map" xmlns="http://www.w3.org/2000/svg" viewBox="0 0 341.51 47.12"><defs><style>.cls-1{fill:#015067;stroke:#fff;stroke-width:0.84px;}.cls-2{fill:none;}</style></defs><path class="cls-1" d="M480.18,112.31c-.22,1.54-1.09.88-2.41,2.41s-.44,2.41.22,3.07,1.9,1.13,2.39,2.62c.39,1.17-.19,1.56-.19,2.43V130h14.32s.78-2,1.65-2.14,1.95-.19,1.95-2,.68-4.67.2-5.55a2,2,0,0,1,.68-2.43,2.6,2.6,0,0,0,1.56-2.24c.09-1.47,1.75-2.63,2.43-3.32s.88-2.53.88-4a13.06,13.06,0,0,0-.68-4.38c-.49-1.27-.3-3.61.58-4.48s3-.78,2.63-2.92.2-2.44,1-3.61-.68-1.27-.39-2.14,2.15-2.44,2.15-5.55v-.1c-4.5-.15-10.17-.3-15-.44a7.41,7.41,0,0,0,0,2.43c.24,1.29-.87,1.75-1.75,2.19-1.81.9-1.31,3.28-2.41,4.59s-.44,3.51-1.53,3.51-3.28-.22-3.72.87-1.75,1.1-2.19,2.41-1.1,2.85-2,4.82S480.4,110.78,480.18,112.31Z" transform="translate(-168.03 -83.25)"/><rect class="cls-2" width="18.83" height="32.37"/></svg>