<svg id="base_map" data-name="base map" xmlns="http://www.w3.org/2000/svg" viewBox="0 0 461.77 383.03"><defs><style>.cls-1{fill:#015067;stroke:#fff;stroke-width:0.84px;}.cls-2{fill:none;}</style></defs><path class="cls-1" d="M622.4,462.6c.61.61,1.53,2.92,2.62,3.16.09-2.58-.78-4.38,2.16-4.28.91,0,1.5-1,2.14-1.58a17.37,17.37,0,0,1-.68-4.37c0-.9-.78-.68-.78-1.57s.56-1.24.56-2.24v-4.94c0-1.23-1.24-1.34-1.24-2.69s-1.45-2.58-1.68-3.36-1.68-1.68-2-2.36,0-2.24-1.23-2.91-1.91-3.37-1.46-4.93a6.31,6.31,0,0,0-.45-4.15c-.44-1.12,1.24-2.13,2.25-2.81s2.13-1.23,2.35-2.58a8.42,8.42,0,0,1,1.92-3.58c-1-.94-2.65-3.11-3.32-3.58s-1.77.15-2.7.88a3.25,3.25,0,0,1-2.28.88h-2.75c-.78,0-1.45-.83-1.45-2.12s1.09-2.34,1.09-4.78c0-1.21.95-6.07.95-6.07.14-3.09.23-1.05.23-3.05,0-2.95-.59-1.63-.59-1.63a27,27,0,0,1-5.67-1.9c-1.83-.84-2.09-1.37-4-1.37l-4.53-.77s-.17,17.42-.17,19,1,1.22,1,2.45,1.1,1.58,1.59,2.44.73,2.07,1.34,3,2.32,1.46,3.18,2.44,2.8,1.22,2.8,2v2.68c0,.73-1.46,1.71-1.83,2.81s-1.83,2.56-1.83,3.66-1,2.32-1,4.16h2.81c.86,0,1.1,1.09,2.2,1.09s1.1,2.2,1.1,3.18-1.1,1.1-1.1,2.2,1.1,1.71,1.1,2.93v2.68c0,.74-1.34.37-2.08,1.47s-.36,1.46.25,2.44,1,3,1.83,3.79,1.59,1.34,1.59,2.44,1,1.22,1.95,1.46a14.29,14.29,0,0,0,2.93.49C620.2,462.72,621.79,462,622.4,462.6Z" transform="translate(-168.03 -83.25)"/><rect class="cls-2" width="18.83" height="32.37"/></svg>