<svg id="base_map" data-name="base map" xmlns="http://www.w3.org/2000/svg" viewBox="0 0 201.62 231.97"><defs><style>.cls-1{fill:#015067;stroke:#fff;stroke-width:0.84px;}.cls-2{fill:none;}</style></defs><path class="cls-1" d="M369.23,300.71c0-1.46-1-2.07-1-3.53V275.07a3.47,3.47,0,0,0-1.7-3,6.55,6.55,0,0,1-2.43-3.77c-.12-1.09-1.09-2.91-2.91-2.91s-3.53-1.34-4.62-1.7-1.82,0-3-1.34-4.25-1.55-6.93-1.55H319.8c-1.82,0-2.8,0-3.36,1.13s-1.26,4.06-2.38,5.18a6.16,6.16,0,0,0-1.68,3.09h-6.87a2.72,2.72,0,0,0-2.81,2.52c-.19,1.61-.34,5.59-.34,6.66.5.05,1,.13,1.56.17a.44.44,0,0,1,.34.69c-.43.91-.8,2-1.47,2.32-1.33.65-.09,2.44,1,3.71a.52.52,0,0,1-.55.77c-2.66-.32-2,4.3-.41,4.36,2.74.09,1,5.22,1,5.93-.06,1.91-.79.91-2.41,1.1s-2.34-.8-2.41,1.1c0,.85-.29,3.56.24,3.58,1.73.06,4.4-.67,4.33,1.34-.08,2.45.64,3.57-2.12,3.48-1,0,.18,2.31-1.69,2.41-.3,0-.68.35-.06,1.2a5.26,5.26,0,0,1,1,2.45c.8-.24,1.51-.46,1.89-.6a5.12,5.12,0,0,1,4,.73,4,4,0,0,0,3.89.36c1.34-.73,2.31-1.82,4.62-1.82s22.12-.25,23.82-.25,1.34.86,2.55.86h4.25c1.22,0,1.1-.86,2.19-.86h6.68v1.1h14.59v-1.82c0-1.1-1.1-2.31-1.1-3.29V304C368.13,302.65,369.23,302.17,369.23,300.71Z" transform="translate(-168.03 -83.25)"/><rect class="cls-2" width="18.83" height="32.37"/></svg>