<svg id="base_map" data-name="base map" xmlns="http://www.w3.org/2000/svg" viewBox="0 0 205.74 93.67"><defs><style>.cls-1{fill:#015067;stroke:#fff;stroke-width:0.84px;}.cls-2{fill:none;}</style></defs><path class="cls-1" d="M369,176.51a7,7,0,0,1,1.26-2.09,2.69,2.69,0,0,0,.95-2.31c-.21-.63-.74-1.05-.11-1.48s1.26-.84,1.26-1.78,1-1.89,1-3V151.4c0-.84-.74-1.48-.74-2.32v-5.62h-9.12V129H336.34v2.85a18.62,18.62,0,0,0,.88,5.47,26.17,26.17,0,0,1,1.53,4.38v2.19h-7.66V148H318c0,1.75-1.53,2.19-2.4,1.53s-1.54.22-2.19,1.1,1.75,1.53,2.41,2.84-.88,2.41-1.1,3.72-1.75,2.41-1.31,3.51,2.19,2.19,2.19,3.06v3.94h17.37v4.08c0,1,.83,1,1.57,2a4.48,4.48,0,0,1,.93,2.69H369Z" transform="translate(-168.03 -83.25)"/><rect class="cls-2" width="18.83" height="32.37"/></svg>