<svg id="base_map" data-name="base map" xmlns="http://www.w3.org/2000/svg" viewBox="0 0 347.39 377.59"><defs><style>.cls-1{fill:#015067;stroke:#fff;stroke-width:0.84px;}.cls-2{fill:none;}</style></defs><path class="cls-1" d="M457.82,458.77c1.37,1.46,1.49,1.57,3.47,1.64,3.09.11,5.15-.8,5.27-4.17,0-1,2.27-2.78,3.78-4,2.15-1.89-.66-.83-1-1.21s1.05-3.12-1.14-1.27c-1.91,1.61-2.13.68-4.33-1.71-1.44-1.56-1.56-1.82-3.67-1.9-1.05,0,.28-2.35-.49-2.38l-8.09-.28c-2.26-.08-.42.87-1.26,2.32a8,8,0,0,1-1.8,1.89.59.59,0,0,1-1.06,0,3.62,3.62,0,0,0-2.8-2,4.24,4.24,0,0,1-.1,1,5.26,5.26,0,0,1-2.19,3.15,9.61,9.61,0,0,0-1.16.79c1.56,1.17,4.79,4.54,6.61,4.61,1.17,0,3.5-.36,4.53.16s1.36,2,2.29,2.45C456,458.54,456.63,457.51,457.82,458.77Z" transform="translate(-168.03 -83.25)"/><path class="cls-1" d="M503.06,409.94c2.24,0,4-.9,5.52-.9h3.14v-3.28h2.08c.6,0,1.2-1,1.2-3-1,0-2.09.29-2.84-.75s-1.19-2.39-2.68-2.39H492.62c-1.64,0-2.69,3-4.48,3h-6.56c-1.79,0-1.35-1.49-2.54-3s-2.39-1.79-2.68-3.28-1.8-1.34-4-1.94-4.63-1.2-6.12-.15-.3,2.53-1.94,3.13-1.94,3.58-4,3.58-2.24-1.49-4.48-1.49-3.58-1.49-4.62-1.49-2.44-.07-2.44-.07a19.58,19.58,0,0,0-1.34,4.26,5.39,5.39,0,0,1-.48,2.55c-.61,1.34-1.7,2.19-2.19,3.77s.49,3.4.73,5a35.08,35.08,0,0,1,.49,5.23c0,1.82.72,2.43,1.21,3.88a8.6,8.6,0,0,1,.15,3.14l.2-.17c1.28-1.2,1.45-1.14,3.23-1.08.93,0,2-1.5,2.64-2.11a1.45,1.45,0,0,1,2.51,1.1c-.09,2.63,1.41-.1,2.33,1.27,1.32,2-2.17,5.43-2.62,7a10.13,10.13,0,0,0,0,3.84,24.94,24.94,0,0,1,5.74-4.66c1.34-.59,2.53-3.28,4-4s3.29-2.39,5.08-3.44,2.83-3.73,4-5.67,1.79-3.28,3.13-4.47,1.79-1.79,4.47-1.79,3.14-.75,6.87-.75h8.65C499.18,410.83,500.82,409.94,503.06,409.94Z" transform="translate(-168.03 -83.25)"/><rect class="cls-2" width="18.83" height="32.37"/></svg>