<svg id="base_map" data-name="base map" xmlns="http://www.w3.org/2000/svg" viewBox="0 0 472.45 437.66"><defs><style>.cls-1{fill:none;stroke:#9e1f63;stroke-linejoin:round;stroke-width:6px;}</style></defs><path class="cls-1" d="M711.93,343.65v-1.09h-6.68c-1.09,0-1,.85-2.19.85h-4.25c-1.21,0-.85-.85-2.55-.85s-21.51.24-23.82.24-3.28,1.09-4.62,1.82a4,4,0,0,1-3.89-.36,5.12,5.12,0,0,0-4-.73c-.38.14-1.09.36-1.89.6a26.09,26.09,0,0,1,0,4.57c-.09,2.57-2.35-.29-2.44,2.28,0,.8.23,3.57-.5,3.54-4.18-.14-1.39,4-1.53,7-.07,1.43-2,3.06-6.23,6.38-1.37,1.08-.44,3.39-.46,4.1a4,4,0,0,1-2.13,2.54c-1.92.31-1.56,1.09-2.33,2.23-1.36.52-.45,1.26-.06,1.56.62.45,0,1.83,1.55,1.88,1.8.06,1.62,2,0,2.35-2,.12.35,1.46.82,3a10,10,0,0,1,0,3c-.06,1.63-.46,1.17-2,1.12-1.05,0,.08,1.86-.45,2.36s-2.34-.77-2.38.28c0,.48,0,.95,0,1.42" transform="translate(-611.84 -110.43)"/><path class="cls-1" d="M639.84,393.71l-.06,1.77c0,1.18-.08,2.37-.13,3.55a4.4,4.4,0,0,0,0,1.64c.19,1.13,1,1.82,1.95,2.86a1.21,1.21,0,0,0,.91.34l1.38.05c.72,0,.27,2.76.24,3.55-.06,1.7.41,4.09-.31,5.26-.16.26-.49.63-.41.66a.91.91,0,0,1,.49.53,3.23,3.23,0,0,1-.06,1.84c0,.8-.06,1.59-.08,2.39l1.65,1.75c.21.23-.18.52-.48.53-2.12.05-1.19,2.66-1.42,4.8-.15,1.34.17,1.81-.73,2-.57.11-.57.42.15.58s.58,1.13.26,1.74c-.14.26-.31.52-.48.78" transform="translate(-611.84 -110.43)"/><path class="cls-1" d="M642.66,430.3a30.28,30.28,0,0,1-4.43,4.41c-2.84,2.64-4.69,3.65-4.83,7.63-.15,4.16-5.22,10.8-9.5,10.66-.73,0-.47,2.74-.5,3.54,0,1.53.6,1.86,1.66,3,.83.9-.07,2.36.51,3,.79.88,2-.62,2.72.84,1.18,2.59,2.26,6,5.28,3.15l3.72-3.44c.53-.5,1.91.08,2.62-.07l9.3-2c1.89-.4,3.92.34,5.85-.07,5.48-1.19,10.23-2.57,15.73-1,2.71.78,6,2.92,8.18.86,1.83-1.72,3.86-1.06,6.33-1,5.12.18,10-.24,14.75,1.85,4.94,2.19,9.82,5,14.85,6.89,5.62,2.12,11.25,4.21,16.87,6.31a25.48,25.48,0,0,1,6.23,3.66c2.58,1.86,3.5,2.22,6.63,2.33h.11V432.12" transform="translate(-611.84 -110.43)"/><path class="cls-1" d="M735.14,432.12c1.83-1.09,4.2-2.92,6-3.64a35,35,0,0,0,4.13-2,9.64,9.64,0,0,1-1.09-2.67c0-.73-.37-1.46.36-2.43s1.34-1.58,1.34-2.8.85-1.7,1.58-3-1.34-1.58-2.31-2.07-1-1.09-1-2.07v-7.29c0-.85.12-1.21-.37-1.82s.12-1.21.49-1.94A3.5,3.5,0,0,0,744,398c-.25-.85-.37-1.58.6-2.07a3.09,3.09,0,0,0,1.7-2.31v-3.16c0-.73-.72-1.34-1.7-2.55a2.51,2.51,0,0,1-.73-2.07V385" transform="translate(-611.84 -110.43)"/><path class="cls-1" d="M711.93,343.65h14.59v-1.82h8c1,0,1.85-.81,3.4-.81h8.43v31.23c0,1.63.28,2.76.92,3.4s1,1.34.43,2.05-.71,1.63-1.49,2.06a3.36,3.36,0,0,0-1.63,1.84c-.21.71.14,1.55-.21,2.12a4.68,4.68,0,0,0-.52,1.25" transform="translate(-611.84 -110.43)"/><path class="cls-1" d="M882.62,161c.43-.56,2.33.81,2.37-.29,0-.61-.3-2,.44-2,2.77.1,2.05-1,2.14-3.46,0-1.38-.69-2.09-1.58-3-.54-.52-.83-.73-.77.83.13,3-1.08,5.55-5.26,5.4-1.73-.06-4.41.67-4.34-1.33.06-1.57.11-3.15.17-4.72.09-2.57,2.37.3,2.49-3.09,0-.8,4.34-2.69,5.15-2.66,1.58.05,2,.52,2-1.12,0-.88.29-1.1-.48-1.38L879,142c-2.22-.83-2.18.65-2.07-2.27.05-1.57.77-3.15.83-4.72.09-2.64.32-2.95,2.28-4.78,1-.9,2.55-.08,3.86-1.3,1.55-1.45,3.37-7.2,1.8-8.89a31.21,31.21,0,0,1-2-4.18c-.5-1.08-1.83-.88-3.57.74-.29.87.37,1.19,1.07,1.75s-2.63,1-1.23,2.94c1.59,2.22,1.24,1.8-.71,3.63-.68.64-2.83.15-3.81.11-1.75-.06-1.11-.8-1.09-2.41,0-2.13.12-2.4,1.66-3.85.62-.57,1.67-2.24.94-3.15s-8.36-.21-9.49-.25l-1.07,0v.09" transform="translate(-611.84 -110.43)"/><path class="cls-1" d="M848.07,178.74h1v2c0,.52.63,1.36,1.15,1.36s1.47,1.26,1,1.9-.84,1.36-1.89.84-1.37-.21-1.58.31.32,1.26,1.16,1.16,1.05,1.05.73,1.79-1.26.31-2,.84-.53,1.36-1.58,1.57-2.31,1.05-1.58,1.9,1.26,2.83.21,2.83-1.79-.1-2.1.42.31,1.37,1.16,1.27a1.26,1.26,0,0,1,1.47,1.15,1.92,1.92,0,0,1-1.05,1.68c-.74.42-1.37,1.06-.53,1.06h19.13c1.26,0,2.63-1.16,3.68-1.79a2.21,2.21,0,0,1,2.74,0,2.33,2.33,0,0,0,2.83.42,6.07,6.07,0,0,0,2.63-2,3.07,3.07,0,0,1,3.05-1.45c1.6.11,1.62,2.12,1.62,2.88,1.34.13,2,.06,2-2,0-.57,1.47-.64,1.93-.36s.77,1.24,1.07.88c1-1.25,4.17-1.42,4.22-.24s-.65,4-.29,4.34c1.08,1.15,2.37-.1,2.41-1.1.09-2.63.18-5.27.28-7.9,0-1.62-.55-2.76,1.28-2.7,1.09,0,1.38.45,1.32,1.27,0,.32.22.75.47.54,1.7-1.42,4.19-3.19,4.26-5.16.1-2.81.25-3.56,2-5.29.3-.33.69-.89-.05-.93-1.18-.07-1.74.17-1.78,1.48-.06,1.55-.72,1.82-1.87,2.89s-4.54.45-6.24.39c-2.51-.09-1.4-3-1.32-5.17s-.09-2,2.06-1.93c.75,0,.44-1.69.46-2.33.14-4-2.33-2.4-4.46-.4-1,1-5,.12-5.8-.79-1.87-2-3.8-3.22-3.7-6a4.22,4.22,0,0,1,2.52-3.52c.68-.39,2.54,1.18,3.79,2.53,1.78,1.94-.54,3.18,2.73,3.29,1.89.07,3.62.45,2.8-2.26s-3-1.69-4.65-2.54c-1.18-.6-3.3-3.36-2.19-4.83" transform="translate(-611.84 -110.43)"/><path class="cls-1" d="M795.21,115.12l-52.38.37c-2.31,0-4.63,0-6.94,0V133.3c0,1.09-1.75.88-1.75,1.75s.87,1.31.87,2.41v3.06" transform="translate(-611.84 -110.43)"/><path class="cls-1" d="M851.44,114.89l-3.14-.11c-11.7-.41-23.49.11-35.21.2l-17.88.14" transform="translate(-611.84 -110.43)"/><path class="cls-1" d="M866.41,115.43v-.09c-4.5-.15-10.17-.3-15-.45" transform="translate(-611.84 -110.43)"/><path class="cls-1" d="M858.23,249.68a3.46,3.46,0,0,0,.56-1.4c0-.55-.54-1.06-.5-1.6.17-2.3.19-4.62.25-6.93a1.08,1.08,0,0,1,.74-.95,17.44,17.44,0,0,0,3.63-2.24c.28-.21.47-.08.44.14-.13,1.23-.48,3.7-.11,4.21,1,1.5,2.38-.39,2.28,2.46,0,1.2,4.2-1.08.4-4.48-1.87-1.68,1.07-1.58,1.83-2.56s2.18-4,2.65-4.39c1.78-1.64,2.57,1.35,2.69-2.15a9,9,0,0,1,5-7.32c1.68-.75,3.76.51,4.81-2.19s-.5-2.26-2.27-2.47c-.86-.11-4.76.28-4.73-.54s-.18-4.36.52-4.34c3.4.12.55,2.39,3.1,2.47,1.65.06,3.52.89,3.58-1.05s2.48-2.28,2.53-3.83c0-.45.3-1.57.06-1.78l-.58-.48a9.76,9.76,0,0,0-1.8.16c-1.62.06-3.3-.11-4.93-.17-1.8-.06-4.58.77-4.5-1.33.1-3-.58-8.33,3.85-8.17.61,0,1.14.08,1.59.13,0-.76,0-2.77-1.62-2.88a3.07,3.07,0,0,0-3.05,1.45,6.07,6.07,0,0,1-2.63,2,2.33,2.33,0,0,1-2.83-.42,2.21,2.21,0,0,0-2.74,0c-1.05.63-2.42,1.79-3.68,1.79H847.43" transform="translate(-611.84 -110.43)"/><path class="cls-1" d="M729.9,173.64v5.62c0,.85.74,1.48.74,2.32V196c0,1.16-.95,2.1-.95,3.05s-.63,1.36-1.26,1.79-.1.84.11,1.47a2.69,2.69,0,0,1-.95,2.31,7.09,7.09,0,0,0-1.26,2.09H753c4.31,0,4.84.85,6.94.85h3.47c.73,0,.84-1,1.79-1s1.78,1,2.83,1h4.52V193.46" transform="translate(-611.84 -110.43)"/><path class="cls-1" d="M799.25,193.21h-6c-1.78,0-2.23,1.69-3.21,1.69a4.43,4.43,0,0,1-2.85-.71c-.72-.63-2.23-.73-3.75-.73H772.58" transform="translate(-611.84 -110.43)"/><path class="cls-1" d="M848.07,178.74H836.7c-2.94,0-2.32,2.25-3.75,2.25s-1.6,1.43-2.49,1.43-1.79.53-1.79,1.07v2.41c0,.62-1,.44-1.78,1.15s-1.34,0-2-.62-1.52.36-1.52,1.43-.62,1.87-.45,2.76-.44,1.43-.8,2.59.27,1.6-.09,2.94a3.92,3.92,0,0,1-2.14,2.67,3.29,3.29,0,0,0-2.14,1.61c-.35.89-.53,2.14-1,3a2.67,2.67,0,0,1-2.76,1.07c-1-.18-1.52.36-2.41.8s-1.69-.08-2.32-.08-1.42.08-1.87-.54-1.43-.53-3-.09-.63-1.34-.45-2.67-1.69.44-2.32-.36.72-1.61,1.43-2.05-1.61-.63-1.78-1.25.27-1,.89-1.87-1.07-.81-.45-1.43.09-1.78.09-1.78h-2.58" transform="translate(-611.84 -110.43)"/><path class="cls-1" d="M811.64,205.33c.89-.44,1.43-1,2.41-.8a2.67,2.67,0,0,0,2.76-1.07c.45-.89.63-2.14,1-3a3.29,3.29,0,0,1,2.14-1.61,3.92,3.92,0,0,0,2.14-2.67c.36-1.34-.26-1.78.09-2.94s1-1.7.8-2.59.45-1.69.45-2.76.89-2.05,1.52-1.43,1.16,1.34,2,.62,1.78-.53,1.78-1.15v-2.41c0-.54.89-1.07,1.79-1.07S831.53,181,833,181s.81-2.25,3.75-2.25h12.42v2c0,.52.63,1.36,1.15,1.36s1.47,1.26,1,1.9-.84,1.36-1.89.84-1.37-.21-1.58.31.32,1.26,1.16,1.16,1.05,1.05.73,1.79-1.26.31-2,.84-.53,1.36-1.58,1.57-2.31,1.05-1.58,1.9,1.26,2.83.21,2.83-1.79-.1-2.1.42.31,1.37,1.16,1.27a1.26,1.26,0,0,1,1.47,1.15,1.92,1.92,0,0,1-1.05,1.68c-.74.42-1.37,1.06-.53,1.06h3.78" transform="translate(-611.84 -110.43)"/><path class="cls-1" d="M811.64,205.33c-.89.45-1.69-.08-2.32-.08s-1.42.08-1.87-.54-1.43-.53-3-.09-.63-1.34-.45-2.67-1.69.44-2.32-.36.72-1.61,1.43-2.05-1.61-.63-1.78-1.25.27-1,.89-1.87-1.07-.81-.45-1.43.09-1.78.09-1.78h-8.56c-1.78,0-2.23,1.69-3.21,1.69a4.43,4.43,0,0,1-2.85-.71c-.72-.63-2.23-.73-3.75-.73H772.58v37.17" transform="translate(-611.84 -110.43)"/><path class="cls-1" d="M876.69,329c-14.21.36-28.45.63-42.64,1-.69.12-.53-.48-.25-1.6a3.71,3.71,0,0,0-1.12-3.08c-1-1.22-1.54.7-3.36.84-.84.06-2.53-1.27-1.82-2.25-1.11,1.12-1.63,3.22-2.33,4.18" transform="translate(-611.84 -110.43)"/><path class="cls-1" d="M905.57,360.5h1.68a2.54,2.54,0,0,1,0-1.89c.42-.95-.94-.74-.84-1.68s1.47-1.47,1.05-2.63a5,5,0,0,1,0-3.26,4.7,4.7,0,0,0-.42-3.26c-.52-1.36.63-1.68-.21-2.63s-.63-1.47-.21-2.62,0-1.48-.52-2.63-1-2.74-.43-3.79,2-2.41,1.9-4.1a10.41,10.41,0,0,1,.77-4c-2.4.07-4.8.15-7.18.24-8.14.3-16.3.52-24.47.72" transform="translate(-611.84 -110.43)"/><path class="cls-1" d="M901.43,367.59c-.22,1-1,1.32-1.87,1.76s0,1.76-1.09,2.41-2.2.44-2.75,1.21-2.09,1.76-1.21,2.53,1.54,3.41.55,4.51.33,1.76.33,3v3.85c0,1-1.76,1.64-.77,2.63a4.06,4.06,0,0,1,1.21,3.85c-.44,1.21.88,1,2,2.53s3.73,1.87,4.17,2.75.66.77,1.21,1,2.2.11,2.86,1.1,2.86,1.32,3.19,3.41.66,2.85,1.65,3.07a2.52,2.52,0,0,1,2.2,2.09,3.67,3.67,0,0,0,2.86,2.42c1,.22.32,2.09,1.31,2.42s1.76.77,1.54,1.87a1.73,1.73,0,0,0,1.87,1.86c.88-.11,1.54-.76,1.87-2.08a5.59,5.59,0,0,1,2-3.08c1.54-1.22,1.69-.08,2.86.66" transform="translate(-611.84 -110.43)"/><path class="cls-1" d="M932.66,327.6h-.07c-8,0-16.15.19-24.25.45a10.41,10.41,0,0,0-.77,4c.1,1.69-1.37,3.05-1.9,4.1s-.1,2.63.43,3.79.94,1.47.52,2.63-.63,1.68.21,2.62-.31,1.27.21,2.63a4.7,4.7,0,0,1,.42,3.26,5,5,0,0,0,0,3.26c.42,1.16-.94,1.68-1.05,2.63s1.26.73.84,1.68a2.54,2.54,0,0,0,0,1.89s-.16,2.47-1.42,2.47-1.8.31-2.42,1.76c-.33.77-1.76,1.87-2,2.86" transform="translate(-611.84 -110.43)"/><path class="cls-1" d="M828.28,383.17H826v-2.7c0-.7-1.74-1.31-2.09-2.62s-.88-2.1-.35-3.15,1-1.83.7-2.79.26-1.66.61-2.45,0-1.74,0-2.44,1.13-1.14,1.13-2.27v-3.5c0-1-1-.52-1.22-1.83s-1.31-1.31-1.31-2.27-.44-1.75-.44-2.62.09-2.89-.78-2.89-2,.35-2.62-.52a2.23,2.23,0,0,1,.09-2.53c.43-.88-1-1.23-1.49-2s.09-1.58,1.05-1.93.61-1,.61-1.74v-5.07c0-.87-1.05-1-1.05-1.92V333c0-.61.79-1.14,1.84-1.14s1.92-1.14,2.44-2.27,1.4-.61,2.1-1.57h0" transform="translate(-611.84 -110.43)"/><path class="cls-1" d="M902,398.59c-.44-.88-3.08-1.21-4.17-2.75s-2.42-1.32-2-2.53a4.06,4.06,0,0,0-1.21-3.85c-1-1,.77-1.65.77-2.63V383c0-1.21-1.32-1.87-.33-3s.33-3.74-.55-4.51.66-1.76,1.21-2.53,1.65-.55,2.75-1.21.21-2,1.09-2.41,1.65-.77,1.87-1.76,1.65-2.09,2-2.86c.62-1.45,1.16-1.76,2.42-1.76s1.42-2.47,1.42-2.47h-1.68" transform="translate(-611.84 -110.43)"/><path class="cls-1" d="M872.29,433c-1,0-2.09.3-2.84-.75s-1.19-2.39-2.68-2.39h-7.31c0-1.49-1.35-4-2.84-4.48s-3.43,0-5.07.3-2.09-.15-1.79-1.34a4.08,4.08,0,0,0,0-3c-.45-1.35.74-3.14-.15-4.78a5.77,5.77,0,0,1-.9-3.58c0-1.34-.89-1.49-2.68-1.49s-2.84-1.05-4.48-1.05-2.24-2.09-2.68-3.43-1.64-2.38-2.69-3.58-.75-3.28-.75-4-1.34-1.34-1.34-2.09,1.2-.74,1.2-1.64v-3.73c0-1.34-1.2-2.83-2.09-3.73s-1.35-2.09-2.39-2.38a4.84,4.84,0,0,1-2.53-2.64" transform="translate(-611.84 -110.43)"/><path class="cls-1" d="M902,398.59c.44.88.66.77,1.21,1s2.2.11,2.86,1.1,2.86,1.32,3.19,3.41.66,2.85,1.65,3.07a2.52,2.52,0,0,1,2.2,2.09,3.67,3.67,0,0,0,2.86,2.42c1,.22.32,2.09,1.31,2.42s1.76.77,1.54,1.87a1.73,1.73,0,0,0,1.87,1.86c.88-.11,1.54-.76,1.87-2.08a5.59,5.59,0,0,1,2-3.08c1.54-1.22,1.69-.08,2.86.66,0,0-.56,1.44-1,2.42s-.36,1.83-.73,3.05" transform="translate(-611.84 -110.43)"/><path class="cls-1" d="M952.22,327.42c-6.52.12-13.06.18-19.56.18" transform="translate(-611.84 -110.43)"/><path class="cls-1" d="M1000.22,366.54c-.92-.28.59-1.77.23-2.23s-.4.39-1.1-.22-.32-1.75-1.15-2.28.34-1.12.81-2.87c.25-.93-1-1.21-.85-2.17.23-2.09,1-1.32,1-3.25,0-1.19.08-2.37.13-3.56a3.6,3.6,0,0,1,.06-1.85c.47-1.22,2.78-.37,3.45-2.79.22-.74-1.13-1.82-1-3a1.74,1.74,0,0,1,2.11-1.73c.13,0,.3-.13,0-.38l-1.32-1.42c-.17-.19-.08-.47.11-.45,2.9.37,1.34-2.74,2-4.13.5-.93-.07-1.15,0-1.79.1-2.62,1.37.19,2.43-1.1.68-.84,1-3.78,1.1-5.44,0-.27.05-.71-.29-.37-.56.56-1,1.14-1.62,1.69-.21.25-.57.32-.47-.21s0-.87,0-1.29-.34-.55-.52-.52c-13.24,1.55-29.36,1.67-43.44,2.06q-4.78.14-9.58.22" transform="translate(-611.84 -110.43)"/><path class="cls-1" d="M1023.72,464.22c-.41-4.52-4.76.33-4.6-4.18.06-1.62-.54-2.75,1.28-2.69,1.13,0,1.39.49,1.29,1.37-.35.95.21.66.46.46,1.72-1.37,4.52-3.24,4.17-.28-.29.67-.1,1.24.62.41.92-1.05,1.44-2,2.55-.81,1.58,1.68,1.66,1.38,3.85,1.66s2.28,0,3.85,1.68a2.85,2.85,0,0,0,2.51,1c.62,0,.35-.75.19-1.09l-1.32-2.87c-.37-.88,0-1.19,1.29-1.24a3.52,3.52,0,0,0,3.11-1.86c1.31-2.28-.79-2.41,2.83-2.28,2.76.09,2.07,1.48,4.28,2.53a9.75,9.75,0,0,0,3.53.19c.88,0,.73-.53.51-.76a4.79,4.79,0,0,1-1.53-2.34c-.08-1.08-.63-1.15-1-.85-1.74,1.45-3.85,2.64-3.73-.69.05-1.5-1.48-2.4-2.95-2.75-1.69-.37-.89-1.07-.39-1.56a2.39,2.39,0,0,1,1.52-.89c1.09,0,3.36.51,4.36.15,1.69-.61,1.64-2.31,3.64-2.24,1.44.05,2.13-.73,3-1.68.55-.48.55-1-.28-1-2.36-.08-4.6.24-7,.16-1.5.05-1-.74-.55-1.23,1.28-1.43,3-3.41,4.16-3.37,2.94.1,4.34,1.07,4.45-2.22,0-1.61.63-2.33-1.09-2.39s-1.16-.48-1.11-2.05c.08-2.34-4.33,1.39-4.63,1.68-1.38,1.3-1.94,4.86-2.6,6.65-.28.74-2.67.62-4,.4-.54-.09-1.24,0-.88-1.2s.68-2.34.11-3.38c-.27-.51-1.91-.07-2.35-.29-1.27-.64-2.74-2.69-3.88-4.1-.57-.59-.31-1,.42-.75,1.77.61,2.33-2.29,4.08-2.23,1.58.06,2,.51,2-1.13,0-1.05.31-1.18-.69-1.21-2.11-.08-4.25-.06-6.34-.23-1.84-.14-2.48-.35-3.35-1.15-.37-.33-1.44-.68-1.48,1.44,0,1.73-.81,2.69-2.79,4.54-1.21,1.14-1.65,2-3.3,1.94-1.82-.07-1.1.69-1.27,2.3-.27,2.45-.18,5-.26,7.46-.13,3.63-.75.34-2.45,1.93-1.24,1.15,1.26,2.4-1.26,2.32-2.21-.08-6.28.58-8.27-.29-1.82-.8-3.54-5.45-2.12-7.18s2.31,1.81,2.43-1.91c0-.69-2.13-.66-2.61-.22-2,1.86-3.68,1.95-5.58,3.14a2.72,2.72,0,0,1-2.22-.17c-1.58-.66-2.73-.64-3.8-3.61" transform="translate(-611.84 -110.43)"/><path class="cls-1" d="M986.61,490.08a4.71,4.71,0,0,1,2.67-.61l5.48.19c2.75.09,2.16-1.44,4.44-2.22,3.07-1.07,2.32,1.71,2.26,3.63-.09,2.41-.34,3.33,1.35,5.13,1.34,1.44.71,3.49.64,5.4,0,.56,0,1-.05,1.44-.21,1.19-.27,1.9.72,1.5,2.36-.94,5.44-.16,8-.07,1.81.06,3.63,1.6,5.19,2.45,1.17.64,2.7.27,4,1,3.74,2,6.78,4.22,11.08,4.37,2.06.07,2.54,2.47,4.14,2.52s3.58.57,4.28,2.52c.28.8-.74,4.71.2,4.75,2.93.1,2,1.32,1.87,4.06,0,1,2.45.94,3.49,2.05a12,12,0,0,0,3.49,1.68c.26.87-.39,2.81-.93,4.76-.31,1.09-1.77,2.59-2.59,3.47s-3.52,2.27-3.57,3.71c0,1.67.06,2.16.72,2.93,1,.94,1.85-.2,2.26-.91.49-.87,1-1.75,1.34-2.57.43-1,0-2,.64-2.64,2.29-2.13,3.91-8.27,6.87-9,1.12-.26,3.57.13,4.74.17,2.33.08,2.38-.29,2.3,2.09-.09,2.76,3.43,3,5.75,3,.57.1,1.56-.26.2-1.14-.41-.43-1.08-1.46-.24-2.27,1.79-1.73,3.35-3.63,5.9-3.54,5.43.19.54-2.42,3.09-4.81,1.68-1.58,2.25-1.83,2.33-4.11,0-1.17,2.36.78,2.44-1.46,0-.81.48-3.55-.25-3.57-1.74-.06-2.34-.14-2.08-1.72.23-.67-.08-.67-1.3.05-1.78,1.06-4.46,2.31-5.71,1.35s1.52-2.31-1.11-2.4c-2.26-.08-.35-.91-1.1-2.42-.47-1-1.8-1.49-2.28-2.46-.75-1.5,1.17-2.32-1.11-2.4s-.36-.91-1.1-2.43c-.28-.58-2.09-2.62-2.54-2.2-1.22,1.13-2.18,1.57-2.24,3.23,0,1.35-.92,1.75-2.41,1.11-2.66-1.13-1.39-4.8-3.38-4.87s-6,.68-5.88-1.37c.08-2.26-.88-.41-2.32-1.26a7.74,7.74,0,0,1-1.78-1.86c-.21-.38-.78-.53-.62.14.43,1.86-1.11,1.6-3.08,1.53-2.43-.09-4.1.57-4-1.63.25-.78-.11-.78-.56-.59l-3.1,1.43c-1.12.66-1-.16-.93-.43.06-1.62-.8-2.28-2.08-3.65-.39-.41.84-1.43,1.65-2.08.5-.29.65-.6-.7-.51a8.12,8.12,0,0,1-3.63-.5c-.35-.34,0-2,.21-3.32.06-.47.36-1.4-.71-.6s-3.21,1.94-4,1.77-2.55-2.94-3.1-3.33-1.89-1-3.12-1.8a1.22,1.22,0,0,1-.51-1.65c.29-.86.86-1.23,1.74-2,.21-.18.73-.88-.62-.72s-1.15-.85-1.09-2.55c.07-2.32-.26-2.4,2.09-2.32.73,0,.46-2.74.49-3.53.07-1.83,1.16-1.15,2.78-1.1,1.16,0,6.8.82,8.23.52.89,1.39-.66,2.12,2.79,2.25.71,0,1.46,1,2.07,1.72.43.75.79.39.81-.38,0-1.32-.44-1.61-2-1.67-1.12,0-2-2.85-3.63-2.46-1.13-.31-1.54.21-3-1.32-.69-.75-3.1-.63-3.16-1.32" transform="translate(-611.84 -110.43)"/><path class="cls-1" d="M982.31,495.94c.09-2.58-.78-4.38,2.16-4.28.91,0,1.5-1,2.14-1.58" transform="translate(-611.84 -110.43)"/><path class="cls-1" d="M998.64,435.27c-1-2.79.63-5.16,2.44-6.86.84-.79,2.31.15,3.42-.89,1.73-1.6,1.46-1.61,3.07.11,3.14,3.34,3.25-1.08,3.33-3.43,0-.73,2.77-.28,3.56-.25,1.9.06,1-.7,1.27-2.31.43-2.23-.52-2.4,2-2.32a7,7,0,0,1-3.25-1.24c-2-1.26-2.1,1.12-3.5,1.26s-1.54-2.38-3.65-1.12-4.48,3.22-5.74,1.4-.85-3.79-3.09-3.64,1.7-2.59-.68-1.47-6.58,5.94-8.46,9.57c-1.51,2.91-3.59,1.12-5.56,2.75a6.66,6.66,0,0,1-5.76,1.33l-4.71,0a27,27,0,0,1-5.67-1.9c-1.83-.84-2.09-1.37-4-1.37l-4.53-.77" transform="translate(-611.84 -110.43)"/><path class="cls-1" d="M959.1,424.08l-6.07-.72s-1.59-.49-1.72-.26c-1.84,3.28-4.44,4.57-4.95,6.43-.37,1.35-1.71,3.18-2.93,3.18h-3.06c-1,0-1.58,1.1-2.56,1.1s-1.59.73-2.32,1.09-1.71,1.47-1.22,2.57a4.69,4.69,0,0,1,.73,2.44v7.69" transform="translate(-611.84 -110.43)"/><path class="cls-1" d="M927.38,413.32s-.56,1.44-1,2.42-.36,1.83-.73,3.05a8.31,8.31,0,0,0-.37,3.54c.13,1.46-1.22,2.93-1.58,4.27s.48,2.93-.25,4.28-1.71,1.71-1.59,2.81a11.07,11.07,0,0,0,1.1,2.93c.37.85.74,1.7.25,2.32a2,2,0,0,0-.12,2.44,2.68,2.68,0,0,1,.48,2.93c-.49,1.22.49,1.59,1.1,2.81s1.35.48,2.32.24,1.47,1.34,2.2,1.34,1.22-1.1,2.2-1.1H935v-7.69a4.69,4.69,0,0,0-.73-2.44c-.49-1.1.49-2.2,1.22-2.57s1.34-1.09,2.32-1.09,1.59-1.1,2.56-1.1h3.06c1.22,0,2.56-1.83,2.93-3.18.52-1.93,3.49-3.38,4.95-6.43l-5.26-4.21a15.79,15.79,0,0,1-.09-4.65c.08-1.08-.67-2.86-.23-4.31.29-.94,2.06-2.46,2.55-3.57s1-4.16,1.78-5.34c1.22-1.91,1.36-1.41,2.49-2.89,1.36-1.79,4.05-4.66,3.75-4.57,4.16-1.55,6.1-.94,6.1-.94,1.94,0,9.85.9,11.67,1.74a21.29,21.29,0,0,0,4.93,1.86c1.55.28,3.36,2.55,6,3s-.07,5.95,3.16,5.39,6.82,2.57,9.2,1.45,5.39,3.56,7.63,3.42,2.16,1.86,3.42,3.68-3.2,6.35-1.1,5.09,2.25,1.26,3.65,1.12,1.54-2.52,3.5-1.26a7,7,0,0,0,3.25,1.24h.06c1,0,0-1.93.63-2.5,1.22-1.12,1.8-2.12,3.46-2.06.73,0,3.05.47,3.56.12,1.36-1-1.07-2.4.69-2a2.15,2.15,0,0,0,1.85-.81c.61-1.06-1.41-2.6-2.12-.47a1.88,1.88,0,0,1-2.72.81,3.12,3.12,0,0,1-.78-1.1,13.08,13.08,0,0,1-1.4-4.1c.13-3.57-2.36-.49-2.24-4.07.06-1.62-1.42-1.91-.72-2.87s1.46-6.13,1.07-7-1.23,3.64-2.43,2.29-1.67-3.73-2.2-4.83.06-1.87.12-3.55-.38-1.19-2-1.25c-.81,0-.2-1.72-.28-2.39s.52-2.35-.29-2.38c-1.57-.06-2,.37-1.95-1.26,0-1.3-1.66-1.37-2.5-1.43s-1.25-1.37-2.12-2.27.58-1.58.09-2.37-1.57-.39-2.53-.24-.35-1-1.3-1.44.64-.82-.61-1.82,0-3.56-.89-3.84" transform="translate(-611.84 -110.43)"/><path class="cls-1" d="M903.62,446.38h7.17c1.79,0,1.79-1.05,2.68-1.5s2.84.3,3.58.9,1.79,1.94,2.54,1a1.72,1.72,0,0,1,2.53,0c.6.6,1.46.44,2.5.3-.61-1.22-1.59-1.59-1.1-2.81a2.68,2.68,0,0,0-.48-2.93,2,2,0,0,1,.12-2.44c.49-.62.12-1.47-.25-2.32a11.07,11.07,0,0,1-1.1-2.93c-.12-1.1.86-1.47,1.59-2.81s-.12-2.93.25-4.28,1.71-2.81,1.58-4.27a8.31,8.31,0,0,1,.37-3.54" transform="translate(-611.84 -110.43)"/><path class="cls-1" d="M872.29,433h0c0,1.94-.6,3-1.2,3H869v3.28h0a9.14,9.14,0,0,1,1.94,4.51c.28,1.68,1.12,1.82,2.1,2.24s1.26,2.24,1.26,3.65-.14,2.38,1,2.8a15.85,15.85,0,0,0,3.37.42c.84.14,2.38,0,2.94.84s2.66,1.82,2.52,3.22-1.12,2.11-.28,3.37,1.83,2.66.42,3.36c-.84.42-1,1-1,2.1a16.76,16.76,0,0,1-.14,2.11c.84,1,1.69,2.52.84,3.78s-.84,2,.14,2.52a2,2,0,0,1,1,1.63h0a1.42,1.42,0,0,0,1.79-1.34c.15-1.19,1.64-1.94,2.54-3.28a37.74,37.74,0,0,1,3.73-5.38c1.34-1.49.89-1.49,3-4.47a42.39,42.39,0,0,0,4-7.31c.9-1.94,1-3.44,1.49-4.18s1.94-.6,1.94-.6v-2.83" transform="translate(-611.84 -110.43)"/><path class="cls-1" d="M950.7,518.92c1.41-.63.83-2.78,1-3.61a19.86,19.86,0,0,1,2.68-6.87c.36-.88,2.09-1.64,3-.44a29.38,29.38,0,0,0,2.24,3.26c1.08,1.16.14,2.61,1,3.51,1.79,1.91,1.94,2.05,2,4.56,0,.84-.62,4.09-.16,4.74.28.39,2.09-.31,2.37.08s-.07,1.88-.08,2.37c-.12,3.47-.2,1.2-2.46,2.3s-1.54,2.43-4.24,2.33c-.54,0-1.65,1-2.55,1.46-2.47,1-2.42,1.95,1.2.67a102.41,102.41,0,0,0,20-9.52,53.84,53.84,0,0,0,8.16-6.86c2-1.88,4-4.72,6.55-5.67,1.21-.31,1.46-.88.23-.72a8.09,8.09,0,0,0-5.11,2.56c-1.26,1.16-1.83,2.11-3.5,2.52s-1.6-.23-1.71-.49c-1.09-2.66-4.19-5-4.07-8.29.06-1.64.47-1.17,2.06-1.11,1.09,0-.27,1.93.29,2.38s4.21.15,5.1.18c2.84.1,2.93-2.27.08-2.37-1.89-.07-3.69.19-2.66-2.47.52-1.34,4-2.46,2.54-4.67-.39-.59-2.4.64-2.36-.45,0-.78.06-1.57.08-2.36" transform="translate(-611.84 -110.43)"/><path class="cls-1" d="M935,447.6h-3.66c-1,0-1.47,1.1-2.2,1.1s-1.22-1.58-2.2-1.34-1.71,1-2.32-.24c-1,.14-1.9.3-2.5-.3a1.72,1.72,0,0,0-2.53,0c-.75.9-1.79-.44-2.54-1s-2.68-1.34-3.58-.9-.89,1.5-2.68,1.5h-7.17v2.83s-1.49-.15-1.94.6-.59,2.24-1.49,4.18a42.39,42.39,0,0,1-4,7.31c-2.09,3-1.64,3-3,4.47" transform="translate(-611.84 -110.43)"/><path class="cls-1" d="M893.18,465.77a37.74,37.74,0,0,0-3.73,5.38c-.9,1.34-2.39,2.09-2.54,3.28a1.42,1.42,0,0,1-1.79,1.34,5.86,5.86,0,0,0-3.43,1.35c-.9.74-3.28,2.23-4.63,1.64a2.27,2.27,0,0,0-3,.59c-.9.9-1.94,1.79-1.94,2.69s.15,1.79-1.34,1.79-2.69.45-2.69,1.49a35.5,35.5,0,0,1-.89,4.59,3.19,3.19,0,0,1,2.34.94c1.38,1.46,1.49,1.58,1.42,3.57,0,.95,1.73.09,2.34.45,3.38,2,1.6,3.75.15,6.39-.76,1.39-1.52.11-2.76.65-.79.35-1.63,1.52-2.27,2.12-1,1-.07,4.91-3.09,4.81-2.15-.08-1.71-.29-1.93-2.08-.28-2.27-2.72-1.6-1.41.57s3.62,3.88,5.44,5.81c.85.91,1.74.26,2.85.59a23.47,23.47,0,0,1,3.93,2.15c1.21.66,1.83,2.29,3,2.84.94.44,2.95.1,4,.14,2.23.07,3.82,2.51,6,2.58,4.51.16,12.12-1.07,15.28,2.3,1.59,1.69,1.49,5.41,4,5.49,1.9.07,3.6,2.36,5,4,.27.33.82,1.46.64-.15-.1-.88.26-1.31,1.39-1.27,2.53.09,0-1.17,1.26-2.33s2.3,1.42,2.39-1.1c.06-1.63.48-1.16,2.05-1.1l7.11.24c1.13,0-.31-2.39.82-2.35s2,.55,2-.67c.07-1.84-.66-6.39,1.41-6.32.95,0,5.9.52,5.93-.17,0-1.33.09-2.66.14-4,0-1.13-2.37.3-2.33-.82.11-3.14,2.55-1,2.59-3.3-.38-1.3.69-.15,1.07.26s1,2.28,1-.11c-.07-3.4,4.17,1.47,5.24,1.5,3.95.14.48,3.33,2.64,5.65.63.69,2.28,2.38,3.84,1.68" transform="translate(-611.84 -110.43)"/><path class="cls-1" d="M812.84,465.81c.29,1.32,1,2.15,2.39.82a22.61,22.61,0,0,1,6.86-4.24c1.35-.61,13.52-.57,14.43.41.48.5-.06,6.93-.5,7.34-1.23,1.13-2.17,1.55-2.23,3.21-.07,1.83.69,1.08,2.32,1.27.58.07,7.1.05,7.08.46-.11,3.36-.31,4.22,1.64,6.43.15.18.67.57,0,1.06a6.78,6.78,0,0,0-2,2.94c-.25.72,0,1.29,1,.77,2.74-1.08,5.32-1.52,7.56-3.11.36-.25,1.08-1.14,1,.73-.1,2,2,3.22,4.27,3.3,2.8.09,4.14.87,6.64,2.24,1.23.67,2.64.4,3.94.47a35.5,35.5,0,0,0,.89-4.59c0-1,1.19-1.49,2.69-1.49s1.34-.9,1.34-1.79,1-1.79,1.94-2.69a2.27,2.27,0,0,1,3-.59c1.35.59,3.73-.9,4.63-1.64a5.86,5.86,0,0,1,3.43-1.35h0a2,2,0,0,0-1-1.63c-1-.56-1-1.26-.14-2.52s0-2.8-.84-3.78" transform="translate(-611.84 -110.43)"/><path class="cls-1" d="M743.89,385.82a2.51,2.51,0,0,0,.73,2.07c1,1.21,1.7,1.82,1.7,2.55v3.16a3.09,3.09,0,0,1-1.7,2.31c-1,.49-.85,1.22-.6,2.07a3.5,3.5,0,0,1,.24,2.43c-.37.73-1,1.33-.49,1.94s.37,1,.37,1.82v7.29c0,1,0,1.58,1,2.07s3,.73,2.31,2.07-1.58,1.82-1.58,3-.61,1.83-1.34,2.8-.36,1.7-.36,2.43a9.64,9.64,0,0,0,1.09,2.67" transform="translate(-611.84 -110.43)"/><path class="cls-1" d="M802,475.85a8.25,8.25,0,0,0-1.08-.09l-7.46-.26c-3.49-.13-3-2.12-3.95-5.39-.92-3.11-.53-4.16,1.81-6.35,1.91-1.79,4.76-3,7-4.37s4.44-1.84,6.3-3.47" transform="translate(-611.84 -110.43)"/><path class="cls-1" d="M745.23,426.53a35,35,0,0,1-4.13,2c-1.76.72-4.13,2.55-6,3.64h9.6v48.81c4.85.16,9.87-.1,14.64.75,5.78,1,11.62,2.53,17.5,2.73,2.8.1,5.07-2.49,7.74-3.71,2.13-1,4.14-.61,6.47-.53,1.75.06,5.86-.5,7.33.56l.09.06" transform="translate(-611.84 -110.43)"/><path class="cls-1" d="M743.89,385.82V385a4.68,4.68,0,0,1,.52-1.25c.35-.57,0-1.41.21-2.12a3.36,3.36,0,0,1,1.63-1.84c.78-.43.92-1.35,1.49-2.06s.21-1.41-.43-2.05-.92-1.77-.92-3.4V341H755c1,0,1-.91,1.83-1.26s.79-.87.79-1.48-.79-.7-.79-1.66.7-1.4,1.57-1.49,1.31-1.05,2.88-1.48,2.36-1.22,2.36-2,1.05-1.22,2.36-1.22a5.18,5.18,0,0,1,3.76,1.66c.7,1,1.22,1.74,2.18,1.74h3.58s.09,2.27.09,3.15,1.57,2.18,2.27,2.79a3.74,3.74,0,0,1,1.4,2.71v4h2.27" transform="translate(-611.84 -110.43)"/><path class="cls-1" d="M826,383.17v-2.7c0-.7-1.74-1.31-2.09-2.62s-.88-2.1-.35-3.15,1-1.83.7-2.79.26-1.66.61-2.45,0-1.75,0-2.44,1.13-1.14,1.13-2.28v-3.49c0-1-1-.52-1.22-1.83s-1.31-1.31-1.31-2.27-.44-1.75-.44-2.63.09-2.88-.78-2.88-2,.35-2.62-.52a2.25,2.25,0,0,1,.09-2.54c.43-.87-1-1.22-1.49-2l-25.07.08c-.7,0-.87-.61-1.48-.61s-.79.44-1.66.44h-8.39" transform="translate(-611.84 -110.43)"/><path class="cls-1" d="M798.51,480.79c1.56,1.17,4.79,4.54,6.61,4.61,1.17,0,3.5-.36,4.53.16s1.36,2,2.29,2.45c1.34.72,2-.32,3.17.94,1.37,1.46,1.49,1.57,3.47,1.64,3.09.11,5.15-.8,5.27-4.17,0-1,2.27-2.78,3.78-4,2.15-1.89-.66-.82-1-1.21s1-3.12-1.14-1.27c-1.91,1.61-2.13.68-4.33-1.71-1.44-1.55-1.56-1.82-3.67-1.9-1.05,0,.28-2.35-.49-2.37l-8.09-.29c-2.26-.08-.42.87-1.26,2.32a8,8,0,0,1-1.8,1.89.59.59,0,0,1-1.06,0,3.62,3.62,0,0,0-2.8-2" transform="translate(-611.84 -110.43)"/><path class="cls-1" d="M869,439.22v-3.28h2.08c.6,0,1.2-1,1.2-3-1,0-2.09.3-2.84-.75s-1.19-2.39-2.68-2.39" transform="translate(-611.84 -110.43)"/><path class="cls-1" d="M804.56,455.92l.2-.17c1.28-1.2,1.45-1.14,3.23-1.08.93,0,2-1.5,2.64-2.11a1.45,1.45,0,0,1,2.51,1.1c-.09,2.63,1.41-.1,2.33,1.27,1.32,2-2.17,5.43-2.62,7a10.13,10.13,0,0,0,0,3.84" transform="translate(-611.84 -110.43)"/><path class="cls-1" d="M826,383.17h2.33a4.84,4.84,0,0,0,2.53,2.64c1,.29,1.49,1.49,2.39,2.38s2.09,2.39,2.09,3.73v3.73c0,.9-1.2.9-1.2,1.64s1.35,1.35,1.35,2.09-.3,2.84.74,4,2.24,2.24,2.69,3.58,1,3.43,2.68,3.43,2.69,1.05,4.48,1.05,2.68.15,2.68,1.49a5.77,5.77,0,0,0,.9,3.58c.89,1.64-.3,3.43.15,4.78a4.08,4.08,0,0,1,0,3c-.3,1.19.15,1.64,1.79,1.34s3.58-.74,5.07-.3,2.84,3,2.84,4.48" transform="translate(-611.84 -110.43)"/><path class="cls-1" d="M883.14,467.84a16.76,16.76,0,0,0,.14-2.11c0-1.12.14-1.68,1-2.1,1.41-.7.42-2.1-.42-3.36s.14-2,.28-3.37-2-2.38-2.52-3.22-2.1-.7-2.94-.84a15.85,15.85,0,0,1-3.37-.42c-1.12-.42-1-1.4-1-2.8s-.28-3.23-1.26-3.65-1.82-.56-2.1-2.24a9.14,9.14,0,0,0-1.94-4.51h0" transform="translate(-611.84 -110.43)"/><path class="cls-1" d="M735,140.52H725.6v4.38c0,1.54-2.41,2.85-3.29,4.16s0,4.82.22,6.35-1.09,2-1.75,3.72v14.51h9.12" transform="translate(-611.84 -110.43)"/><path class="cls-1" d="M669.31,239.8v-5.36c0-1.2.69-1.72.86-2.76s1.56-2,1.81-1.21,1.08.7,1.82.95a8.22,8.22,0,0,0,3.54,0" transform="translate(-611.84 -110.43)"/><path class="cls-1" d="M677.34,231.42c.69,1.73.82,2.78,2.12,2.88a7.33,7.33,0,0,0,2.87-.27c.83-.28,1.39,1.85,2.22.92a4.26,4.26,0,0,1,3.62-1.85v-7.41H698c1.2,0-.83-1.3-1.3-1.95s-1.3-.83-1.3-2.32.56-1.67,1.3-2.41.37-1.29.37-2.13-.83-.65-1.39-1.48a2.33,2.33,0,0,1-.46-2.22,7,7,0,0,0,.18-2.41,4.49,4.49,0,0,0-1.76-2.51c-.92-.74-.92-.83-.92-1.57H715.5" transform="translate(-611.84 -110.43)"/><path class="cls-1" d="M669.31,239.8H629.79c0,.5,0,1,0,1.59-.07,1.92,2.13,2.91,3.49,4,1.08.86,1.74,3.2.74,4a1.13,1.13,0,0,0,.07,2,2.76,2.76,0,0,1,1.13,2.52c0,1.09,2-.13,2.35.45s.11,2.4-.45,2.38c-2.94-.1-2.06,1.72-2.15,4.3-.07,2-.27,2.68-1.11,3.61-.69.67-1.1,1.29-.16,1.32,1.59.05,1,1.79,1,3.71-.06,1.62.39,1.19,2,1.24,1.09,0-.27,1.94.28,2.39.82.67,4.79.17,5.93.21,1.48.05,1.38,1.62,1.19,3.15-.12,1.31-.81,1.76-1.52,1.72-1.4.16-1.81.83-.57,1.82.89.7,2.13.77,3.84.53.69-.1.24,3.59.21,4.38,0,1.08,1.92-.13,2.34.45.3.42-.15,1.8-.09,2.36a16.78,16.78,0,0,1,.5,3.53c-.08,1.53-.72,2.92-.76,3.95-.08,2.25.41,2.5,2,4.19.61.65,2.63-.22,2.6.71,0,.74-.55,3.82-.16,4.37,1,1.36,2.43-1.34,2.34,1.27s0,3.53,1.54,5.31c.65.8.57.17.57-.48.17-1.35,1.37-1.39,2.79-1.25" transform="translate(-611.84 -110.43)"/><path class="cls-1" d="M659.65,309.52c.5.05,1,.13,1.56.17a.44.44,0,0,1,.34.69c-.43.91-.8,2-1.47,2.32-1.33.65-.09,2.44,1,3.71a.52.52,0,0,1-.55.77c-2.66-.32-2,4.3-.41,4.36,2.74.09,1,5.23,1,5.93-.06,1.91-.79.91-2.41,1.11s-2.34-.81-2.41,1.09c0,.85-.29,3.56.24,3.58,1.73.06,4.4-.67,4.33,1.34-.08,2.45.64,3.57-2.12,3.48-1,0,.18,2.31-1.69,2.41-.3,0-.68.36-.06,1.2a5.26,5.26,0,0,1,1,2.45c.8-.24,1.51-.46,1.89-.6a5.12,5.12,0,0,1,4,.73,4,4,0,0,0,3.89.36c1.34-.73,2.31-1.82,4.62-1.82s22.12-.24,23.82-.24,1.34.85,2.55.85h4.25c1.22,0,1.1-.85,2.19-.85h6.68v1.09h14.59v-1.82" transform="translate(-611.84 -110.43)"/><path class="cls-1" d="M768,244.62a9.5,9.5,0,0,0,1.92-2.11c1-1.8,1.73-2.3,1-3.64s.77-1.53,1-2.49a31.89,31.89,0,0,0,.77-3.64c0-.77-.06-2.11-.06-2.11V207.54h-4.52c-1,0-1.89-1-2.83-1s-1.06,1-1.79,1H760c-2.1,0-2.63-.85-6.94-.85H715.5" transform="translate(-611.84 -110.43)"/><path class="cls-1" d="M768,244.62a3.87,3.87,0,0,0,.6,1.94,9.35,9.35,0,0,1,1.37,2.78c.6,1.64-1.34,2.53-2.08,3.72s.3,1.79,1.19,2.69.15,1.19-.15,2.23-1.34,1.94-.89,2.83.74,1.64,0,2.09-1.64.3-1.2,1.49a3,3,0,0,0,2.69,1.94c1,0,3-.15,3.13.89s1.79,1.64,1.34,2.83.15,2.24,1.49,2.84.74,1.93.15,3.27,1.94,1.5,3,1a2.67,2.67,0,0,1,3,.89" transform="translate(-611.84 -110.43)"/><path class="cls-1" d="M800.19,295.19c-1.43-1.44-2.28-1.87-3-1.23s-.67,1.31-1.64,1.55a1.21,1.21,0,0,1-1.47-.82c-.29-.89.28-1.83-.27-2.56a3.94,3.94,0,0,0-2.74-1.55c-1.19-.09-.73-.83-1.56-1.83s-2.28-1.46-2.28-2.92V281c0-1.09-.55-1.82-1.55-1.82s-1.56,1-2.29.45a6.07,6.07,0,0,1-1.75-1.51,2.37,2.37,0,0,0-3-.89c-1,.45-3.58.3-3-1s1.19-2.68-.15-3.27-1.94-1.64-1.49-2.84-1.19-1.78-1.34-2.83-2.09-.89-3.13-.89a3,3,0,0,1-2.69-1.94c-.44-1.19.45-1,1.2-1.49s.44-1.19,0-2.09.59-1.79.89-2.83,1-1.34.15-2.23-1.94-1.49-1.19-2.69,2.68-2.08,2.08-3.72a9.35,9.35,0,0,0-1.37-2.78,3.87,3.87,0,0,1-.6-1.94,9.5,9.5,0,0,0,1.92-2.11c1-1.8,1.73-2.3,1-3.64s.77-1.53,1-2.49a31.72,31.72,0,0,0,.76-3.64c0-.77,0-2.11,0-2.11" transform="translate(-611.84 -110.43)"/><path class="cls-1" d="M800.19,295.19c.78.75,2.17,2.67.89,3s-1.92,1.07-1.17,1.82,2,1.06,2.13,2.13.43,1.92-.32,2.13-.53,1.18.21,1.39,2,.43,2.67-.32,1.6-1.49,1.6-.75-.11,2.24.75,1.82a1.32,1.32,0,0,0,.64-2,4.29,4.29,0,0,1-.86-2.77,3.17,3.17,0,0,1,1.28-2.24,2.09,2.09,0,0,1,2.67-.22c.85.75,1.92,0,2.56.86s.32,1.81,1.28,2.13a14.13,14.13,0,0,1,1.76.73" transform="translate(-611.84 -110.43)"/><path class="cls-1" d="M794.07,294.69c-.29-.89.28-1.83-.27-2.56a3.94,3.94,0,0,0-2.74-1.55c-1.19-.09-.73-.83-1.56-1.83s-2.28-1.46-2.28-2.92V281c0-1.09-.55-1.82-1.55-1.82s-1.56,1-2.29.45a6.07,6.07,0,0,1-1.75-1.51" transform="translate(-611.84 -110.43)"/><path class="cls-1" d="M726.52,341.83h8c1,0,1.85-.81,3.4-.81H755c1,0,1-.91,1.83-1.26s.79-.87.79-1.48-.79-.7-.79-1.66.7-1.4,1.57-1.49,1.31-1.05,2.88-1.48,2.36-1.22,2.36-2,1.05-1.22,2.36-1.22a5.18,5.18,0,0,1,3.76,1.66c.7,1,1.22,1.74,2.18,1.74h3.58" transform="translate(-611.84 -110.43)"/><path class="cls-1" d="M775.55,333.82s.09,2.27.09,3.15,1.57,2.18,2.27,2.79a3.74,3.74,0,0,1,1.4,2.71v4H790c.87,0,1-.44,1.66-.44s.78.61,1.48.61l25.07-.08c-.52-.79.09-1.58,1.05-1.93s.61-1,.61-1.74v-5.07c0-.87-1.05-1-1.05-1.92V333c0-.61.79-1.14,1.84-1.14s1.92-1.14,2.44-2.27,1.4-.61,2.1-1.57,1.22-3.06,2.33-4.18c.7-1-.28-2,.7-3.5s-.42-2.1-.84-3.22a4,4,0,0,1,1.82-4.21,2.77,2.77,0,0,0,1.26-3.5,1.73,1.73,0,0,0-2.66-.7c-1.12.7-2-.43-2.53-1.13a3,3,0,0,0-3.08-1,3.81,3.81,0,0,1-3.79-1.82c-.84-1.26-2-1.3-2.1-2a14.13,14.13,0,0,0-1.76-.73c-1-.32-.64-1.28-1.28-2.13s-1.71-.11-2.56-.86a2.09,2.09,0,0,0-2.67.22,3.17,3.17,0,0,0-1.28,2.24,4.29,4.29,0,0,0,.86,2.77,1.32,1.32,0,0,1-.64,2c-.86.42-.75-1.07-.75-1.82s-1,0-1.6.75-1.92.53-2.67.32-1-1.17-.21-1.39.43-1.06.32-2.13-1.38-1.39-2.13-2.13-.11-1.5,1.17-1.82-.11-2.24-.89-3c-1.43-1.44-2.28-1.87-3-1.23s-.67,1.31-1.64,1.55a1.21,1.21,0,0,1-1.47-.82" transform="translate(-611.84 -110.43)"/><path class="cls-1" d="M816.28,302.86c.05.66,1.26.7,2.1,2a3.81,3.81,0,0,0,3.79,1.82,3,3,0,0,1,3.08,1c.56.7,1.41,1.83,2.53,1.13a1.73,1.73,0,0,1,2.66.7,2.77,2.77,0,0,1-1.26,3.5,4,4,0,0,0-1.82,4.21c.42,1.12,1.82,1.68.84,3.22s0,2.52-.7,3.5,1,2.31,1.82,2.25c1.82-.14,2.35-2.06,3.36-.84a3.71,3.71,0,0,1,1.12,3.08c-.28,1.12-.44,1.72.25,1.6,1.18-.53,4.06-1.19,4.82-2.19,1-1.38,0-2.28,1.67-3.85,1.38-1.29-.1-1.84-1.25-3.09-.69-.75-1.81-2.61-2.83-2.64-4.69-.16-.05-4.66.62-7.08a21.26,21.26,0,0,0,.15-4.38c0-1.17-2.39.61-2.31-1.63.09-2.57-2.38.13-2.29-2.45.06-1.79,1-1.15,2.61-1.1,3.93.14,5.54-.3,9.13-1.95.56-.26.34-3.75.36-4.46,0-1.17-2.37.6-2.3-1.63s-2.35-.47-2.3-1.64c0-.49,0-1,0-1.47a3,3,0,0,0-.5-1.06c-1.34-1.41-2.9-3.15-1.06-4.86s4.24-3.09,4.12.38c-.06,1.67,0,5.12,2.54,5.2,2.15.08,2,.22,2.07-1.93,0-.49,1-.5,1.7-.41.27,0,.67.08.13-.47-1-1-1.92-2.05-2.88-3.08-1.49-1.6-.34-1.81-1.06-3.6-.53-1.33-2.3-1.64-2.24-3.2l.15-4.36c.09-2.44.14-1.81,2.42-1.9,1.44-.05,2.93.1,4.37.15,3.23.12,2.95-4.89,3-5.82,0-.56-.89-.29-1.24-.07-1.42.89-4.86,2.16-6.18.74-2.56-2.75-2.69-3.63-.36-5.93.65-.7,1.17-.36,1.14-.18-.5,2.69.89.5,2.17,1.88.66.72,2.7,2.67,3.5,2.53,1-.17.95-.37,1.06-.62s-.3-1.64.26-2.16,2.1-1.48,2.2-2c.26-1.55-2.25-3.51-2.19-5.19a4.36,4.36,0,0,1,2.52-4.27c.63-.32,2.35.66,2.38-.29a.49.49,0,0,1,.05-.18" transform="translate(-611.84 -110.43)"/><path class="cls-1" d="M615.71,201.82q-.27,8-.56,16c-.1,2.9-1.31,4.91,1.83,5,1.13,0-.48,2.34.66,2.38,2.15.08,1,0,1,2.14,0,1.17,2.4-.61,2.32,1.64-.09,2.54,1.16,0,2.32,1.27s-1.43,2.31,1.1,2.4c.62,0-.43,1.81.49,1.78a2.75,2.75,0,0,1,2.24,2c0,.43-.21.85,0,1s.79,0,1.38,0c1,.19,1.3,1.16,1.38,2.36h39.52v-5.36c0-1.2.69-1.72.86-2.76s1.56-2,1.81-1.21,1.08.7,1.82.95a8.22,8.22,0,0,0,3.54,0" transform="translate(-611.84 -110.43)"/><path class="cls-1" d="M634.52,114.22c-6,0-12-.23-18.1-.45.05.42.11.83.16,1.25.68,5.18,1.8,10.42,1.62,15.65l-.66,18.7q-.56,15.84-1.1,31.7-.36,10.38-.73,20.75" transform="translate(-611.84 -110.43)"/><path class="cls-1" d="M662.63,113.46c-4.57.05-9.15.18-13.8.44-4.8.27-9.56.34-14.31.32" transform="translate(-611.84 -110.43)"/><path class="cls-1" d="M687.94,113.92l-4.18-.16c-7.14-.25-14.12-.38-21.13-.3" transform="translate(-611.84 -110.43)"/><path class="cls-1" d="M720.78,159.13c.66-1.75,2-2.19,1.75-3.72s-1.09-5-.22-6.35,3.29-2.62,3.29-4.16v-4.38H735v-3.06c0-1.1-.87-1.53-.87-2.41s1.75-.66,1.75-1.75V115.49c-16-.13-32-1-47.95-1.57" transform="translate(-611.84 -110.43)"/><path class="cls-1" d="M677.34,231.42c.69,1.73.82,2.78,2.12,2.88a7.33,7.33,0,0,0,2.87-.27c.83-.28,1.39,1.85,2.22.92a4.26,4.26,0,0,1,3.62-1.85v-7.41H698c1.2,0-.83-1.3-1.3-1.95s-1.3-.83-1.3-2.32.56-1.67,1.3-2.41.37-1.29.37-2.13-.83-.65-1.39-1.48a2.33,2.33,0,0,1-.46-2.22,7,7,0,0,0,.18-2.41,4.49,4.49,0,0,0-1.76-2.51c-.92-.74-.92-.83-.92-1.57" transform="translate(-611.84 -110.43)"/><path class="cls-1" d="M692.71,206.69h33.62a7.09,7.09,0,0,1,1.26-2.09,2.69,2.69,0,0,0,.95-2.31c-.21-.63-.74-1-.11-1.47s1.26-.85,1.26-1.79.95-1.89.95-3.05v-14.4c0-.84-.74-1.47-.74-2.32v-5.62h-9.12V159.13" transform="translate(-611.84 -110.43)"/></svg>