<svg id="base_map" data-name="base map" xmlns="http://www.w3.org/2000/svg" viewBox="0 0 351.79 256.16"><defs><style>.cls-1{fill:#015067;stroke:#fff;stroke-width:0.84px;}.cls-2{fill:none;}</style></defs><path class="cls-1" d="M476.76,299.79c-.69.12-.53-.48-.25-1.6a3.73,3.73,0,0,0-1.12-3.09c-1-1.21-1.54.7-3.36.84-.84.07-2.53-1.26-1.82-2.24-1.11,1.12-1.63,3.21-2.33,4.18.53.53,1.13,1.93,2.28,1.31s1.69-.89,2.4-.71,2.22.62,2.49,1.6.89,1.69.36,2.58-.54,2.75.26,3.46,1.34,1.25.89,2.23-1.42,1.6-1.42,2.66v3.56c0,1.06.62,2.49,1.42,2.49h3.2c.89,0,1.16-1,2.49-1s1.2,1.82,2.13.89.63-1.78.27-2.85-1.16-3.11-2.22-3.11h-2.85c-.89,0-1.33-2.13,0-2.13s2.14-.44,3.91-.44a3.72,3.72,0,0,1,3.12,1.42c.53.62,1.68,1.6,1.77,2.75s.89,2.31.09,3.47a6.72,6.72,0,0,0-1.15,3.91,4.16,4.16,0,0,1-1.78,3.38c-1,.62-3.38-.09-4,.89a2.14,2.14,0,0,0,0,2.75,3.69,3.69,0,0,0,2.58,1.34h3.46c.89,0,1.69-1,2.85-1s1.69.89,2.75.89a10.19,10.19,0,0,0,3.47-.71,8.69,8.69,0,0,0,2.67-1.43,1.34,1.34,0,0,1,2.31.63c.53,1.33,1.69,2.13,1.69,3.28a11.66,11.66,0,0,0,.8,3.83c.44,1.15.17,1.95,1.06,2.66s2.1.11,2.52,1.37l.63-2.63c-.62-.89-1.9-2.47-1.37-3.36s1.6-1,2-2.58.8-2.93,2-3.46a7,7,0,0,0,2.84-3.56c.36-1.15.27-3.55.89-5.07s.53-4.26,1.33-5.77,1.43-2.85,2.05-3.74.09-1.42-.18-2.31a2.35,2.35,0,0,1,.71-2.57,2.81,2.81,0,0,0,.8-2.4v-1.61C505.19,299.18,491,299.46,476.76,299.79Z" transform="translate(-168.03 -83.25)"/><rect class="cls-2" width="18.83" height="32.37"/></svg>