<svg id="base_map" data-name="base map" xmlns="http://www.w3.org/2000/svg" viewBox="0 0 426.02 420.95"><defs><style>.cls-1{fill:#015067;stroke:#fff;stroke-width:0.84px;}.cls-2{fill:none;}</style></defs><path class="cls-1" d="M592.74,482.44c.25-1.33.89-2.09.89-3.13s-1.19-1.49-1.19-2.69,0-4.92-1.2-5.07-1.79-2.09-2.83-2.39a3.8,3.8,0,0,1-2.54-3.28c-.15-1.79-2.68-2.09-3.28-3.43s-2.69-2.39-3.88-3.43-1.19-3-2.39-3.29-1.49-2.09-1.79-3.28-1.49-.6-2.68-1.79-.75-2.24-2.69-2.68-2.24-1.65-3-2.39-2.69-2.84-3.43-3.73a7.94,7.94,0,0,0-4.18-2.39c-1.94-.45-1.05-2.39-2.09-3s-.9-3-1.49-3.44-1-1.64-1.79-3-2.69.75-3.88,1.94a4.45,4.45,0,0,1-3.14,1v2.54H535.89a37.74,37.74,0,0,0-3.73,5.38c-.9,1.34-2.39,2.08-2.54,3.28a1.42,1.42,0,0,1-1.79,1.34,5.91,5.91,0,0,0-3.43,1.34c-.9.75-3.28,2.24-4.63,1.65a2.27,2.27,0,0,0-3,.59c-.9.9-1.94,1.79-1.94,2.69s.15,1.79-1.34,1.79-2.69.45-2.69,1.49a35.5,35.5,0,0,1-.89,4.59,3.19,3.19,0,0,1,2.34.94c1.38,1.46,1.49,1.58,1.42,3.57,0,.94,1.73.09,2.34.44,3.38,2,1.6,3.76.15,6.4-.76,1.39-1.52.11-2.76.65-.79.35-1.63,1.52-2.27,2.12-1,1-.07,4.91-3.09,4.81-2.15-.08-1.71-.29-1.93-2.08-.28-2.27-2.72-1.6-1.41.57s3.62,3.88,5.44,5.81c.85.91,1.74.26,2.85.59a22.77,22.77,0,0,1,3.93,2.15c1.21.66,1.83,2.29,3,2.84.94.44,2.95.1,4,.14,2.23.07,3.82,2.51,6,2.58,4.51.16,12.12-1.07,15.28,2.3,1.59,1.69,1.49,5.41,4,5.49,1.9.07,3.6,2.35,5,4,.27.32.82,1.46.64-.15-.1-.88.26-1.31,1.39-1.27,2.53.09,0-1.17,1.26-2.33s2.3,1.42,2.39-1.1c.06-1.63.48-1.16,2-1.11l7.11.25c1.13,0-.31-2.39.82-2.35s2,.55,2-.67c.07-1.84-.66-6.4,1.41-6.32,1,0,5.9.52,5.93-.17,0-1.33.09-2.66.14-4,0-1.13-2.37.3-2.33-.82.11-3.14,2.55-1,2.59-3.3-.38-1.3.69-.15,1.07.26s1,2.28,1-.11c-.07-3.4,4.17,1.46,5.24,1.5,4,.14.48,3.33,2.64,5.65.63.69,2.28,2.38,3.84,1.68A9.58,9.58,0,0,1,592.74,482.44Z" transform="translate(-168.03 -83.25)"/><rect class="cls-2" width="18.83" height="32.37"/></svg>