<svg id="base_map" data-name="base map" xmlns="http://www.w3.org/2000/svg" viewBox="0 0 431.84 335.69"><defs><style>.cls-1{fill:#015067;stroke:#fff;stroke-width:0.84px;}.cls-2{fill:none;}</style></defs><path class="cls-1" d="M577.71,417.42h-3.66c-1,0-1.47,1.1-2.2,1.1s-1.22-1.58-2.2-1.34-1.71,1-2.32-.25-1.59-1.58-1.1-2.8a2.68,2.68,0,0,0-.48-2.93,2,2,0,0,1,.12-2.45c.49-.61.12-1.46-.25-2.32a10.81,10.81,0,0,1-1.1-2.93c-.12-1.09.86-1.46,1.59-2.8s-.12-2.94.25-4.28,1.71-2.81,1.58-4.27a8.31,8.31,0,0,1,.37-3.54c.37-1.22.24-2.08.73-3.05s1.05-2.42,1.05-2.42c.88.55,1.87-.77,2.75.22s.44,2.2,1.76,2.2h3c.66,0,1.76-1.43,2.31-2.64.23-.5,2-2.95,4-5.74,1.08-1.46,1.26-3.55,2.34-5,1.87-2.46,6.59-6.1,7-6.47,1.09-1,5-1.32,6.18-1.66.3-.09-2.81,2.08-4.17,3.87-1.13,1.48-1.27,1-2.49,2.89-.75,1.17-1.29,4.25-1.78,5.34s-2.26,2.63-2.55,3.57c-.44,1.45.31,3.23.23,4.31a15.79,15.79,0,0,0,.09,4.65l5.26,4.21c-1.46,3.05-4.43,4.5-4.95,6.43-.37,1.34-1.71,3.18-2.93,3.18h-3.06c-1,0-1.58,1.09-2.56,1.09s-1.59.74-2.32,1.1-1.71,1.47-1.22,2.57a4.69,4.69,0,0,1,.73,2.44Z" transform="translate(-168.03 -83.25)"/><rect class="cls-2" width="18.83" height="32.37"/></svg>