<svg id="base_map" data-name="base map" xmlns="http://www.w3.org/2000/svg" viewBox="0 0 305.36 291.33"><defs><style>.cls-1{fill:#015067;stroke:#fff;stroke-width:0.84px;}.cls-2{fill:none;}</style></defs><path class="cls-1" d="M445.93,366.72c0-1-.15-3.42.63-3.77s1.31,0,1.84.88a1.69,1.69,0,0,0,2.44.43,9.84,9.84,0,0,1,3.24-1.39c1.13-.18,2.88-.61,3.75-.27s2.1,1.66,3.76,1.66h10.22c1.66,0,1.4-.35.09-1.74s-1.84-1.23-1.84-2.1v-2.18h-2.27v-1.75c0-.79-1.75-1-1.75-1.84s.09-1.66.88-1.66h1.74v-2.7c0-.7-1.74-1.31-2.09-2.62s-.88-2.1-.35-3.15,1-1.83.7-2.79.26-1.66.61-2.45,0-1.75,0-2.45,1.13-1.13,1.13-2.27v-3.49c0-1-1-.52-1.22-1.83s-1.31-1.31-1.31-2.28-.44-1.74-.44-2.62.09-2.88-.78-2.88-2,.35-2.62-.52a2.25,2.25,0,0,1,.09-2.54c.43-.87-1-1.22-1.49-2l-25.07.08c-.7,0-.87-.61-1.48-.61s-.79.44-1.66.44h-8.39v5.94c0,1.13,1.75,1.05,2.45,1.57a2.63,2.63,0,0,1,1.22,2.45v7.86c0,1.39-1.31,2.18-1.84,2.79a4.3,4.3,0,0,0-1,2.8c0,1.22-.87,1.13-.87,1.92v4.28h-4.45v3.32H405.42a4.74,4.74,0,0,0-2.53.61c-.87.53-.87,1.75-.87,2.62s-.27,1.14-1,1.57-.63,1.6-.63,1.6h20.9v4.26h6.92v7.65c0,1.1,1.46,1.22,1.46,1.95v2.31h1.7s.85,1.82,0,2.43a6.76,6.76,0,0,1,2.43-1.46,5.79,5.79,0,0,0,2.56-2.79,4.86,4.86,0,0,1,1.94-3c1.22-.73,1.94.12,2.8.48s2.55-.36,3.76-.73A1.84,1.84,0,0,1,445.93,366.72Z" transform="translate(-168.03 -83.25)"/><rect class="cls-2" width="18.83" height="32.37"/></svg>