<svg id="base_map" data-name="base map" xmlns="http://www.w3.org/2000/svg" viewBox="0 0 162.99 198.61"><defs><style>.cls-1{fill:#015067;stroke:#fff;stroke-width:0.84px;}.cls-2{fill:none;}</style></defs><path class="cls-1" d="M321.77,231.61c0-.84-1-.7-1-1.68s1-.7,1-1.54V223.2H312V209.62H272.5c0,.5,0,1,0,1.59-.07,1.92,2.13,2.91,3.49,4,1.08.86,1.74,3.2.74,4a1.13,1.13,0,0,0,.07,2,2.76,2.76,0,0,1,1.13,2.52c0,1.09,2-.13,2.35.45s.11,2.4-.45,2.38c-2.94-.1-2.06,1.72-2.15,4.3-.07,2-.27,2.68-1.11,3.61-.69.67-1.1,1.29-.16,1.32,1.59,0,1,1.79,1,3.71-.06,1.62.39,1.19,2,1.24,1.09,0-.27,1.94.28,2.39.82.67,4.79.17,5.93.21,1.48,0,1.38,1.62,1.19,3.15-.12,1.3-.81,1.76-1.52,1.72-1.4.16-1.81.83-.57,1.82.89.7,2.13.77,3.84.53.69-.1.24,3.59.21,4.37,0,1.09,1.92-.13,2.34.46.3.42-.15,1.8-.09,2.36a16.78,16.78,0,0,1,.5,3.53c-.08,1.53-.72,2.92-.76,4-.08,2.25.41,2.5,2,4.19.61.64,2.63-.22,2.6.71,0,.73-.55,3.82-.16,4.37,1,1.36,2.43-1.34,2.34,1.26-.1,2.77,0,3.54,1.54,5.32.65.8.57.17.57-.48.17-1.35,1.37-1.39,2.79-1.25,0-1.07.15-5,.34-6.66a2.72,2.72,0,0,1,2.81-2.52h6.87a6.16,6.16,0,0,1,1.68-3.09c1.12-1.12,1.82-4.06,2.38-5.18s1.54-1.13,3.36-1.13h10.8V242.54h-8.83Z" transform="translate(-168.03 -83.25)"/><rect class="cls-2" width="18.83" height="32.37"/></svg>