<svg id="base_map" data-name="base map" xmlns="http://www.w3.org/2000/svg" viewBox="0 0 326.61 53.95"><defs><style>.cls-1{fill:#015067;stroke:#fff;stroke-width:0.84px;}.cls-2{fill:none;}</style></defs><path class="cls-1" d="M436.61,91.08c.22.87,1.32,2.62.44,4.6s-.66,3.72.22,4.59,1.1,2.85,1.53,4.38,1.32,3.94.44,5-.87,2.62-1.09,3.94,1.31,2.41,1.31,3.5c0,2,2.09-.77,3.72-1.09,1.1-.22,2.63-.22,3.07.65s.22,3.07,1.31,2.85,1.53.44,1.75,1.31,1.1.44,2,.22,1.53,1.31.66,2.19a4.09,4.09,0,0,0-1.1,3.06c0,1.1-.65,2.63,0,3.51s.44,1.75.22,2.84.88,1.1,1.32,2.19.87-1.31,1.75-.65A13.61,13.61,0,0,1,457,136.4c.66.87,2,.21,2.19-1.32s1.54-1.75,1.75-2.84,1.54-2.19,2.19-1.32,1.76,2.19,2.63,1.75,2.63-.65,3.29-2.62,1.31-3.51,3.06-3.51a4.5,4.5,0,0,0,4.16-2.62c.88-1.75.44-3.94,1.75-3.94s.66-1.54,0-2.19-1.53-1.54-.22-3.07,2.19-.87,2.41-2.41-.44-4.81.44-6.78,1.53-3.51,2-4.82,1.75-1.31,2.19-2.41,2.62-.87,3.72-.87.44-2.19,1.53-3.51.6-3.69,2.41-4.59c.88-.44,2-.9,1.75-2.19a7.41,7.41,0,0,1,0-2.43L491,84.6c-11.7-.41-23.49.11-35.21.2l-17.88.14a7.11,7.11,0,0,1-.43,2.2A7.54,7.54,0,0,0,436.61,91.08Z" transform="translate(-168.03 -83.25)"/><rect class="cls-2" width="18.83" height="32.37"/></svg>