<svg id="base_map" data-name="base map" xmlns="http://www.w3.org/2000/svg" viewBox="0 0 173.47 122.17"><defs><style>.cls-1{fill:#015067;stroke:#fff;stroke-width:0.84px;}.cls-2{fill:none;}</style></defs><path class="cls-1" d="M332.92,167.7H310.51l-.66-.65H296.28c0,1.71,1.48,2.12,2.62,3.63.77,1,3.8,1.21,4.4,1.38a2,2,0,0,1,1.21,1.82v2.5c0,.86.52,1,.95,2s-.95,1.46-1.82,2.59.61,1.72,1.13,2.59a11,11,0,0,0,2.67,2.59c1.13.86.61,2.07,1,3.36s1.81.69,2.33,2.16a4.21,4.21,0,0,0,2.68,2.5,19,19,0,0,1,4.05,1.9c1.21.95,1.82,3.46,2.51,5.18s.82,2.78,2.12,2.88a7.13,7.13,0,0,0,2.87-.28c.83-.27,1.39,1.86,2.22.93a4.26,4.26,0,0,1,3.62-1.85V195.5h9.82c1.2,0-.83-1.29-1.3-1.94s-1.3-.84-1.3-2.32.56-1.67,1.3-2.41.37-1.3.37-2.13-.83-.65-1.39-1.48a2.35,2.35,0,0,1-.46-2.23,7,7,0,0,0,.18-2.41,4.47,4.47,0,0,0-1.76-2.5c-.92-.74-.92-.83-.92-1.57a4.48,4.48,0,0,0-.93-2.69c-.74-1-1.57-1-1.57-2Z" transform="translate(-168.03 -83.25)"/><rect class="cls-2" width="18.83" height="32.37"/></svg>