<svg id="base_map" data-name="base map" xmlns="http://www.w3.org/2000/svg" viewBox="0 0 467.48 420.88"><defs><style>.cls-1{fill:#015067;stroke:#fff;stroke-width:0.84px;}.cls-2{fill:none;}</style></defs><path class="cls-1" d="M634.28,480.33a8.13,8.13,0,0,0-5.12,2.56c-1.25,1.16-1.82,2.11-3.49,2.52s-1.6-.23-1.71-.49c-1.09-2.66-4.19-5-4.07-8.29.06-1.64.47-1.17,2.06-1.11,1.09,0-.27,1.93.29,2.38s4.21.15,5.1.18c2.84.1,2.93-2.27.08-2.37-1.9-.07-3.69.19-2.66-2.47.52-1.34,4-2.46,2.54-4.67-.39-.59-2.4.64-2.36-.45,0-.79.06-1.57.08-2.36-1.09-.24-2-2.55-2.62-3.16s-2.2.12-2.93.12a14.29,14.29,0,0,1-2.93-.49c-1-.24-1.95-.36-1.95-1.46s-.74-1.71-1.59-2.44-1.22-2.81-1.83-3.79-1-1.34-.25-2.44,2.08-.73,2.08-1.47V448c0-1.22-1.1-1.83-1.1-2.93s1.1-1.23,1.1-2.2,0-3.18-1.1-3.18-1.34-1.09-2.2-1.09H596.15c-1.59,0-1.83-.37-1.83-1.47a21.81,21.81,0,0,0-1-4.52,4.18,4.18,0,0,0-3.91-2.93,5.81,5.81,0,0,1-3.66-1.83c-1-.85-2.2-2.44-1.95-4s-1.1-3.78-2.2-3.17-2.32-.13-2.08-1.22-1.83-2-1.83-2h-3.66c-1,0-1.47,1.1-2.2,1.1s-1.22-1.58-2.2-1.34-1.71,1-2.32-.25c-1,.15-1.9.31-2.5-.29a1.72,1.72,0,0,0-2.53,0c-.75.9-1.79-.45-2.54-1s-2.68-1.34-3.58-.9-.89,1.49-2.68,1.49h-7.17V419s-1.49-.15-1.94.6-.59,2.24-1.49,4.17a41.67,41.67,0,0,1-4,7.31c-2.09,3-1.64,3-3,4.48h10.29v-2.54a4.45,4.45,0,0,0,3.14-1c1.19-1.19,3.13-3.28,3.88-1.94s1.19,2.54,1.79,3,.44,2.84,1.49,3.44.15,2.53,2.09,3a7.94,7.94,0,0,1,4.18,2.39c.74.89,2.68,3,3.43,3.73s1,1.94,3,2.39,1.49,1.49,2.69,2.68,2.38.6,2.68,1.79.6,3,1.79,3.28,1.2,2.24,2.39,3.29,3.28,2.08,3.88,3.43,3.13,1.64,3.28,3.43a3.8,3.8,0,0,0,2.54,3.28c1,.3,1.64,2.24,2.83,2.39s1.2,3.88,1.2,5.07,1.19,1.64,1.19,2.69-.64,1.8-.89,3.13a9.58,9.58,0,0,0,.67,6.3c1.41-.63.83-2.78,1-3.61a19.86,19.86,0,0,1,2.68-6.87c.36-.88,2.09-1.64,3-.44a29.38,29.38,0,0,0,2.24,3.26c1.08,1.15.14,2.6,1,3.51,1.79,1.91,1.94,2.05,2,4.56,0,.83-.62,4.09-.16,4.74.28.39,2.09-.31,2.37.08s-.07,1.88-.08,2.37c-.12,3.47-.2,1.2-2.46,2.3s-1.54,2.43-4.24,2.33c-.54,0-1.65,1-2.55,1.46-2.47,1-2.42,1.95,1.2.67a102.41,102.41,0,0,0,20-9.52,53.84,53.84,0,0,0,8.16-6.86c2-1.88,4-4.72,6.55-5.67C635.26,480.74,635.51,480.17,634.28,480.33Z" transform="translate(-168.03 -83.25)"/><rect class="cls-2" width="18.83" height="32.37"/></svg>