<svg id="base_map" data-name="base map" xmlns="http://www.w3.org/2000/svg" viewBox="0 0 468.45 433.66"><defs><style>.cls-1{fill:none;stroke:#00a651;stroke-linecap:round;stroke-linejoin:round;stroke-width:2px;}</style></defs><path class="cls-1" d="M1078.38,7V5.92h-6.69c-1.09,0-1,.85-2.18.85h-4.26c-1.21,0-.85-.85-2.55-.85s-21.51.24-23.82.24-3.28,1.09-4.61,1.82a4,4,0,0,1-3.89-.36,5.14,5.14,0,0,0-4-.73c-.39.14-1.09.36-1.89.6a28.22,28.22,0,0,1,0,4.57c-.09,2.57-2.36-.28-2.45,2.28,0,.8.23,3.57-.49,3.54-4.18-.14-1.4,4-1.54,7-.06,1.43-2,3.06-6.22,6.38-1.38,1.08-.44,3.39-.47,4.1a4,4,0,0,1-2.13,2.54c-1.92.31-1.55,1.09-2.33,2.23-1.35.52-.45,1.26,0,1.56.61.45,0,1.83,1.54,1.88,1.81.06,1.63,2,0,2.35-2,.12.34,1.46.81,3a10,10,0,0,1,0,3c0,1.63-.45,1.17-2,1.12-1,0,.08,1.86-.44,2.36s-2.35-.77-2.39.28c0,.48,0,1-.05,1.42" transform="translate(-980.28 224.21)"/><path class="cls-1" d="M1006.28,57.07l-.06,1.77-.12,3.55A4.43,4.43,0,0,0,1006,64c.2,1.13,1,1.82,2,2.86a1.18,1.18,0,0,0,.9.34l1.38,0c.72,0,.27,2.76.24,3.55-.06,1.7.41,4.09-.3,5.26-.16.26-.49.63-.42.66a1,1,0,0,1,.5.53,3.25,3.25,0,0,1-.07,1.84c0,.8-.05,1.59-.08,2.39l1.65,1.75c.21.23-.17.52-.47.53-2.13,0-1.2,2.66-1.43,4.8-.14,1.34.17,1.81-.73,2-.57.11-.57.42.15.58s.58,1.13.26,1.74a8.21,8.21,0,0,1-.48.78" transform="translate(-980.28 224.21)"/><path class="cls-1" d="M1009.1,93.66a30.71,30.71,0,0,1-4.42,4.41c-2.84,2.64-4.7,3.65-4.84,7.63-.15,4.16-5.21,10.81-9.49,10.66-.73,0-.47,2.74-.5,3.54-.06,1.53.59,1.86,1.65,3,.84.9-.07,2.36.51,3,.79.88,2-.62,2.72.84,1.18,2.59,2.26,6,5.29,3.15l3.71-3.44c.53-.5,1.91.08,2.63-.07l9.29-2c1.89-.4,3.92.34,5.85-.07,5.48-1.19,10.23-2.57,15.73-1,2.71.78,6,2.92,8.18.86,1.84-1.72,3.86-1.06,6.33-1,5.12.18,10-.24,14.75,1.85,5,2.19,9.82,5,14.86,6.89,5.62,2.12,11.24,4.21,16.86,6.31a25.72,25.72,0,0,1,6.24,3.66c2.57,1.86,3.49,2.22,6.62,2.33h.12V95.48" transform="translate(-980.28 224.21)"/><path class="cls-1" d="M1101.59,95.48c1.82-1.09,4.19-2.92,6-3.64a34,34,0,0,0,4.13-2,9.64,9.64,0,0,1-1.09-2.67c0-.73-.36-1.46.37-2.43s1.33-1.58,1.33-2.8.85-1.7,1.58-3-1.34-1.58-2.31-2.07-1-1.09-1-2.07V67.53c0-.85.12-1.21-.36-1.82s.12-1.21.48-1.94,0-1.58-.24-2.43-.37-1.58.61-2.07a3.12,3.12,0,0,0,1.7-2.31V53.8c0-.73-.73-1.34-1.7-2.55a2.47,2.47,0,0,1-.73-2.07v-.85" transform="translate(-980.28 224.21)"/><path class="cls-1" d="M1078.38,7H1093V5.19h8c1,0,1.84-.81,3.4-.81h8.42V35.61a4.81,4.81,0,0,0,.92,3.4c.64.64,1,1.34.43,2.05s-.71,1.63-1.49,2.06a3.4,3.4,0,0,0-1.63,1.84c-.21.71.14,1.55-.21,2.12a4.86,4.86,0,0,0-.51,1.25" transform="translate(-980.28 224.21)"/><path class="cls-1" d="M1249.06-175.64c.43-.56,2.33.81,2.37-.29,0-.61-.3-2,.44-2,2.77.1,2.06-1,2.14-3.46,0-1.38-.69-2.09-1.58-3-.54-.52-.83-.73-.76.83.12,3-1.09,5.55-5.27,5.4-1.72-.06-4.4.67-4.33-1.33,0-1.57.11-3.15.16-4.72.09-2.57,2.37.3,2.49-3.09,0-.8,4.35-2.69,5.15-2.66,1.58,0,2,.52,2-1.12,0-.88.29-1.1-.48-1.38l-6-2.23c-2.21-.83-2.17.65-2.07-2.27.05-1.57.78-3.15.83-4.72.1-2.64.32-3,2.29-4.78,1-.9,2.54-.08,3.85-1.3,1.55-1.45,3.38-7.2,1.8-8.89a31.28,31.28,0,0,1-2-4.18c-.51-1.08-1.83-.88-3.58.74-.29.87.37,1.19,1.08,1.75s-2.63,1-1.23,2.94c1.58,2.22,1.23,1.8-.72,3.63-.68.64-2.83.15-3.8.11-1.75-.06-1.12-.8-1.09-2.41,0-2.13.11-2.4,1.65-3.85.62-.57,1.67-2.24,1-3.15-.61-.76-8.36-.21-9.5-.25l-1.07,0v.09" transform="translate(-980.28 224.21)"/><path class="cls-1" d="M1245.77-137.76c1.35.13,2,.06,2-2,0-.57,1.47-.64,1.93-.36.31.2.78,1.24,1.08.88,1-1.25,4.16-1.42,4.21-.24s-.64,4-.28,4.34c1.07,1.15,2.37-.1,2.4-1.1.1-2.63.19-5.27.28-7.9.06-1.62-.55-2.76,1.28-2.7,1.1,0,1.38.45,1.32,1.27,0,.32.22.75.48.54,1.7-1.42,4.18-3.19,4.25-5.16.1-2.81.25-3.56,2-5.29.31-.33.69-.89,0-.93-1.18-.07-1.74.17-1.78,1.48-.06,1.55-.72,1.82-1.87,2.89s-4.54.45-6.24.39c-2.51-.09-1.39-3-1.32-5.17s-.08-2,2.07-1.93c.75,0,.43-1.69.45-2.33.14-4-2.33-2.4-4.46-.4-1,1-5,.12-5.8-.79-1.87-2-3.8-3.22-3.7-6a4.24,4.24,0,0,1,2.52-3.52c.69-.39,2.54,1.18,3.79,2.53,1.79,1.94-.54,3.18,2.73,3.29,1.89.07,3.62.45,2.8-2.26s-3-1.69-4.65-2.54c-1.18-.6-3.3-3.36-2.19-4.83" transform="translate(-980.28 224.21)"/><path class="cls-1" d="M1161.66-221.52l-52.38.37c-2.32,0-4.63,0-7,0v17.81c0,1.09-1.75.88-1.75,1.75s.88,1.31.88,2.41v3.06" transform="translate(-980.28 224.21)"/><path class="cls-1" d="M1217.88-221.75l-3.13-.11c-11.71-.41-23.5.11-35.21.2l-17.88.14" transform="translate(-980.28 224.21)"/><path class="cls-1" d="M1232.85-221.21v-.09c-4.49-.15-10.17-.3-15-.45" transform="translate(-980.28 224.21)"/><path class="cls-1" d="M1207.24-101.74c-.7.89-1.2,2.09-.76,2.59a3.09,3.09,0,0,1,.57,2v3.79c0,.64-.89,1.39-.64,1.9s1.65,1.26,1.84,2.21,1,1.26,1.45,2.27h15a3.46,3.46,0,0,0,.56-1.4c0-.55-.53-1.06-.49-1.6.16-2.3.18-4.62.24-6.93a1.09,1.09,0,0,1,.75-1,17.44,17.44,0,0,0,3.63-2.24c.27-.21.46-.08.44.14-.13,1.23-.48,3.7-.12,4.21,1,1.5,2.38-.38,2.28,2.46,0,1.2,4.2-1.08.41-4.48-1.87-1.68,1.06-1.58,1.83-2.56s2.18-4,2.64-4.39c1.78-1.64,2.57,1.35,2.69-2.15a9,9,0,0,1,5-7.32c1.68-.75,3.77.51,4.81-2.19s-.49-2.26-2.27-2.47c-.86-.11-4.76.28-4.73-.54s-.17-4.36.53-4.34c3.39.12.55,2.39,3.1,2.47,1.64.06,3.51.89,3.58-1.05s2.47-2.28,2.52-3.83c0-.45.31-1.57.07-1.78l-.58-.48a9.87,9.87,0,0,0-1.81.16c-1.62.06-3.3-.11-4.93-.17-1.8-.06-4.57.77-4.5-1.33.11-3-.58-8.33,3.85-8.17.62,0,1.15.08,1.59.13" transform="translate(-980.28 224.21)"/><path class="cls-1" d="M1092.77-129.95h26.7c4.31,0,4.84.85,6.94.85h3.47c.74,0,.84-1.05,1.79-1.05s1.79,1.05,2.84,1.05H1139" transform="translate(-980.28 224.21)"/><path class="cls-1" d="M1207.24-101.74h-2.11v-8.73h-3.82c-.86,0-.57,1.43-1.43,2.29s-1.15,2.11-2.2,2.39-1.34,1.63-2.1,2.58a4.78,4.78,0,0,1-3.54,1.82,7,7,0,0,0-3.73,1c-.76.58-.86-1.14-1.53-1.34s-.57-1.24-.57-1.81,0-1.63-1.15-1.63-1.53-.86-2.48-1.24-.39-2.48-1.44-2.48a4.08,4.08,0,0,1-2.58-1.53" transform="translate(-980.28 224.21)"/><polyline class="cls-1" points="158.75 95.11 158.75 118.19 187.18 118.19 196.17 118.19 196.17 114.36 198.28 113.83"/><path class="cls-1" d="M1243.14-7.63c-14.22.36-28.46.63-42.65,1-.69.12-.52-.48-.24-1.6a3.71,3.71,0,0,0-1.12-3.08c-1-1.22-1.55.7-3.37.84-.84.06-2.52-1.27-1.82-2.25-1.1,1.12-1.63,3.22-2.33,4.18" transform="translate(-980.28 224.21)"/><path class="cls-1" d="M1273.7,23.86a2.48,2.48,0,0,1,0-1.89c.42-.95-1-.74-.85-1.68s1.48-1.47,1.06-2.63a4.84,4.84,0,0,1,0-3.26,4.77,4.77,0,0,0-.43-3.26c-.52-1.36.64-1.68-.21-2.63s-.63-1.47-.21-2.62,0-1.48-.52-2.63-1-2.74-.42-3.79,2-2.41,1.89-4.1a10.6,10.6,0,0,1,.77-4c-2.4.07-4.8.15-7.17.24-8.14.3-16.31.52-24.47.72" transform="translate(-980.28 224.21)"/><path class="cls-1" d="M1267.88,31c-.22,1-1,1.32-1.87,1.76s0,1.76-1.1,2.41-2.2.44-2.75,1.21-2.09,1.76-1.21,2.53,1.54,3.41.55,4.51.33,1.76.33,3v3.85c0,1-1.76,1.64-.77,2.63a4.06,4.06,0,0,1,1.21,3.85c-.44,1.21.88,1,2,2.53s3.74,1.87,4.18,2.75.66.77,1.21,1,2.19.11,2.85,1.1,2.86,1.32,3.19,3.41.66,2.85,1.65,3.07a2.52,2.52,0,0,1,2.2,2.09,3.67,3.67,0,0,0,2.86,2.42c1,.22.33,2.09,1.32,2.42s1.76.77,1.54,1.87a1.73,1.73,0,0,0,1.87,1.86c.87-.11,1.54-.76,1.86-2.08a5.65,5.65,0,0,1,2-3.08c1.54-1.22,1.69-.08,2.86.66.88.55,1.87-.77,2.75.22s.44,2.2,1.76,2.2h3c.66,0,1.76-1.43,2.31-2.64a13.24,13.24,0,0,1,1.8-2.68c.85-1.18,1.14-1.77,2.07-2.86s1.14-3.1,2.08-4.66l3.75-3.91" transform="translate(-980.28 224.21)"/><path class="cls-1" d="M1299.1-9H1299c-8,0-16.14.19-24.25.45a10.6,10.6,0,0,0-.77,4c.11,1.69-1.37,3.05-1.89,4.1s-.11,2.63.42,3.79.94,1.47.52,2.63-.63,1.68.21,2.62-.31,1.27.21,2.63a4.77,4.77,0,0,1,.43,3.26,4.84,4.84,0,0,0,0,3.26c.42,1.16-1,1.68-1.06,2.63s1.27.73.85,1.68a2.48,2.48,0,0,0,0,1.89s-.16,2.47-1.43,2.47-1.79.31-2.41,1.76c-.33.77-1.76,1.87-2,2.86" transform="translate(-980.28 224.21)"/><path class="cls-1" d="M1194.73,46.53h-2.33v-2.7c0-.7-1.75-1.31-2.1-2.62s-.87-2.1-.35-3.15,1-1.83.7-2.79.26-1.66.61-2.45,0-1.74,0-2.44,1.14-1.14,1.14-2.27v-3.5c0-1-1-.52-1.22-1.83s-1.31-1.31-1.31-2.27-.44-1.75-.44-2.62.09-2.89-.79-2.89-2,.35-2.62-.52a2.23,2.23,0,0,1,.09-2.53c.44-.88-1-1.23-1.49-2s.09-1.58,1.05-1.92.61-1,.61-1.75V1.2c0-.87-1-1-1-1.92V-3.6c0-.61.79-1.14,1.84-1.14S1189-5.88,1189.52-7s1.39-.61,2.09-1.57h0" transform="translate(-980.28 224.21)"/><path class="cls-1" d="M1257.37,66.27a4.77,4.77,0,0,1,3.13-2.93c1.3-.26,1.9-.09,3.71.43a3.23,3.23,0,0,0,3.29-.86l.93-1c-.44-.88-3.08-1.21-4.18-2.75s-2.42-1.32-2-2.53a4.06,4.06,0,0,0-1.21-3.85c-1-1,.77-1.65.77-2.63V46.34c0-1.21-1.32-1.87-.33-3s.33-3.74-.55-4.51.66-1.76,1.21-2.53,1.65-.55,2.75-1.21.22-2,1.1-2.41,1.65-.77,1.87-1.76,1.65-2.09,2-2.86c.62-1.45,1.15-1.76,2.41-1.76s1.43-2.47,1.43-2.47" transform="translate(-980.28 224.21)"/><path class="cls-1" d="M1257.37,66.27c.13,4-.88,3.79-2.08,8s-2.09,3.59-2.38,6.12-1.35,3.14-1.35,3.14a35.26,35.26,0,0,1,0,4c-.15.75-1.79,1.2-1.79,1.2v4.62a11.09,11.09,0,0,1-2.09.75c-1.19.3-3.73,2.24-4.77,2.24h-4.18c-1,0-2.09.3-2.83-.75s-1.2-2.39-2.69-2.39h-7.31c0-1.49-1.34-4-2.84-4.48s-3.43,0-5.07.3-2.09-.15-1.79-1.34a4.08,4.08,0,0,0,0-3c-.45-1.35.75-3.14-.15-4.78a5.82,5.82,0,0,1-.89-3.58c0-1.34-.9-1.49-2.69-1.49s-2.83-1-4.47-1-2.24-2.09-2.69-3.43-1.64-2.38-2.69-3.58-.74-3.28-.74-4-1.34-1.34-1.34-2.09,1.19-.74,1.19-1.64V55.28c0-1.34-1.19-2.83-2.09-3.73s-1.34-2.09-2.39-2.38a4.85,4.85,0,0,1-2.52-2.64" transform="translate(-980.28 224.21)"/><path class="cls-1" d="M1249.77,93.33V88.71s1.64-.45,1.79-1.2a35.26,35.26,0,0,0,0-4s1-.6,1.35-3.14,1.19-1.94,2.38-6.12,2.21-4,2.08-8a4.77,4.77,0,0,1,3.13-2.93c1.3-.26,1.9-.09,3.71.43a3.23,3.23,0,0,0,3.29-.86l.93-1c.44.88.66.77,1.21,1s2.19.11,2.85,1.1,2.86,1.32,3.19,3.41.66,2.85,1.65,3.07a2.52,2.52,0,0,1,2.2,2.09,3.67,3.67,0,0,0,2.86,2.42c1,.22.33,2.09,1.32,2.42s1.76.77,1.54,1.87a1.73,1.73,0,0,0,1.87,1.86c.87-.11,1.54-.76,1.86-2.08a5.65,5.65,0,0,1,2-3.08c1.54-1.22,1.69-.08,2.86.66" transform="translate(-980.28 224.21)"/><path class="cls-1" d="M1313.31,62.35c6.07-6.41,15.53-6.37,15.53-6.37" transform="translate(-980.28 224.21)"/><path class="cls-1" d="M1318.67-9.22c-6.53.12-13.07.18-19.57.18" transform="translate(-980.28 224.21)"/><path class="cls-1" d="M1366.66,29.9c-.92-.28.59-1.77.23-2.23s-.4.39-1.09-.22-.32-1.75-1.16-2.28.35-1.12.82-2.87c.25-.93-1-1.21-.86-2.17.24-2.09,1-1.32,1-3.25,0-1.19.08-2.37.12-3.56a3.71,3.71,0,0,1,.06-1.85c.47-1.22,2.78-.37,3.46-2.79.21-.74-1.13-1.82-1-3a1.75,1.75,0,0,1,2.11-1.73c.14,0,.31-.13,0-.38L1369,2.11c-.18-.19-.09-.47.1-.45,2.9.37,1.35-2.74,2-4.13.5-.93-.08-1.15,0-1.79.09-2.62,1.36.19,2.42-1.1.68-.84,1-3.78,1.11-5.44,0-.27,0-.71-.3-.37-.55.56-1,1.14-1.62,1.69-.2.25-.56.32-.47-.21s0-.87,0-1.29-.33-.55-.52-.52c-13.24,1.55-29.36,1.67-43.44,2.06-3.18.09-6.38.16-9.57.22" transform="translate(-980.28 224.21)"/><path class="cls-1" d="M1328.84,56c1.94,0,9.85.9,11.68,1.74a21.29,21.29,0,0,0,4.93,1.86c1.54.28,3.35,2.55,6,3s-.06,6,3.16,5.39,6.82,2.57,9.21,1.45,5.38,3.56,7.62,3.42,2.16,1.86,3.42,3.68-3.2,6.35-1.09,5.09,2.24,1.26,3.64,1.12,1.54-2.52,3.5-1.26a7,7,0,0,0,3.25,1.24h.06c1,0,0-1.93.63-2.5,1.23-1.12,1.8-2.12,3.47-2.06.72,0,3.05.47,3.55.12,1.36-1-1.07-2.4.69-2a2.17,2.17,0,0,0,1.86-.81c.6-1.06-1.42-2.6-2.13-.47a1.87,1.87,0,0,1-2.71.81,3.25,3.25,0,0,1-.79-1.1,13,13,0,0,1-1.39-4.1c.12-3.57-2.37-.49-2.24-4.07,0-1.62-1.43-1.91-.72-2.87s1.46-6.13,1.06-7-1.22,3.64-2.43,2.29-1.67-3.73-2.2-4.83.07-1.87.12-3.55-.38-1.19-2-1.25c-.81,0-.21-1.72-.29-2.39s.52-2.35-.28-2.38c-1.58-.06-2,.37-2-1.26,0-1.3-1.65-1.37-2.5-1.43s-1.24-1.37-2.11-2.27.57-1.58.08-2.37-1.57-.39-2.52-.24-.35-1-1.31-1.44.64-.82-.6-1.82,0-3.56-.9-3.84" transform="translate(-980.28 224.21)"/><path class="cls-1" d="M1365.09,98.63c-1-2.79.62-5.16,2.44-6.86.84-.79,2.31.15,3.42-.89,1.72-1.6,1.46-1.61,3.07.11,3.13,3.34,3.24-1.08,3.33-3.43,0-.73,2.76-.28,3.56-.25,1.89.06,1-.7,1.26-2.31.43-2.23-.52-2.4,2-2.32a7,7,0,0,1-3.25-1.24c-2-1.26-2.1,1.12-3.5,1.26s-1.54-2.38-3.64-1.12-4.49,3.22-5.75,1.4-.84-3.79-3.08-3.64,1.69-2.59-.69-1.46-6.58,5.93-8.46,9.56c-1.51,2.91-3.59,1.12-5.56,2.75a6.64,6.64,0,0,1-5.75,1.33l-4.72,0" transform="translate(-980.28 224.21)"/><path class="cls-1" d="M1390.16,127.58c-.41-4.52-4.75.33-4.6-4.18.06-1.62-.54-2.75,1.28-2.69,1.14,0,1.4.49,1.3,1.37-.36,1,.21.66.46.46,1.72-1.37,4.51-3.24,4.16-.28-.29.67-.1,1.24.63.41.92-1,1.43-2,2.55-.81,1.57,1.68,1.65,1.38,3.84,1.66s2.28,0,3.85,1.68a2.85,2.85,0,0,0,2.51,1c.63,0,.35-.75.19-1.09-.44-1-.87-1.92-1.31-2.87s0-1.19,1.28-1.24a3.51,3.51,0,0,0,3.11-1.86c1.31-2.28-.78-2.41,2.83-2.28,2.77.09,2.07,1.48,4.28,2.53a9.75,9.75,0,0,0,3.53.19c.88,0,.73-.53.52-.76a4.81,4.81,0,0,1-1.54-2.34c-.07-1.08-.63-1.15-1-.85-1.74,1.45-3.84,2.64-3.73-.69,0-1.5-1.47-2.4-2.94-2.75-1.7-.37-.9-1.07-.4-1.56a2.41,2.41,0,0,1,1.52-.89c1.1,0,3.36.51,4.37.15,1.68-.61,1.63-2.31,3.63-2.24,1.45,0,2.13-.73,3-1.68.55-.48.55-1-.28-1-2.36-.08-4.6.24-7,.16-1.49,0-1-.74-.55-1.23,1.29-1.43,3-3.41,4.17-3.37,2.93.1,4.34,1.07,4.44-2.22.06-1.61.63-2.33-1.09-2.39s-1.16-.48-1.11-2.05c.09-2.34-4.33,1.39-4.63,1.68-1.38,1.3-1.93,4.86-2.6,6.65-.28.74-2.66.62-4,.4-.55-.09-1.25,0-.89-1.2.31-1.09.68-2.34.12-3.38-.27-.51-1.92-.07-2.35-.29-1.28-.64-2.75-2.69-3.88-4.1-.58-.59-.32-1,.42-.75,1.76.61,2.32-2.29,4.07-2.23,1.58.06,2,.51,2-1.13,0-1,.3-1.18-.7-1.21-2.11-.08-4.24-.06-6.34-.23-1.84-.14-2.48-.35-3.35-1.15-.36-.33-1.44-.68-1.48,1.44,0,1.73-.81,2.69-2.78,4.54-1.22,1.14-1.66,2-3.31,1.94-1.81-.07-1.09.69-1.27,2.3-.27,2.45-.17,5-.26,7.46-.13,3.63-.75.34-2.45,1.93-1.24,1.15,1.26,2.4-1.26,2.32-2.2-.08-6.28.58-8.27-.29-1.82-.8-3.54-5.45-2.12-7.18s2.31,1.81,2.44-1.91c0-.69-2.13-.66-2.62-.22-2,1.86-3.68,2-5.58,3.14a2.72,2.72,0,0,1-2.22-.17c-1.57-.66-2.72-.64-3.79-3.61" transform="translate(-980.28 224.21)"/><path class="cls-1" d="M1353.05,153.44a4.74,4.74,0,0,1,2.68-.61l5.47.19c2.75.09,2.17-1.44,4.44-2.22,3.08-1.07,2.33,1.71,2.26,3.63-.09,2.41-.34,3.33,1.35,5.13,1.35,1.44.71,3.49.64,5.4,0,.56,0,1-.05,1.44-.21,1.19-.26,1.9.72,1.5,2.36-.94,5.44-.16,8-.07,1.81.06,3.62,1.6,5.18,2.45,1.17.64,2.7.27,4,1,3.74,2,6.78,4.22,11.09,4.37,2.06.08,2.53,2.47,4.13,2.52s3.58.57,4.28,2.52c.29.8-.74,4.71.21,4.75,2.92.1,2,1.32,1.87,4.06,0,1,2.45.94,3.48,2.05a12,12,0,0,0,3.49,1.68c.26.87-.39,2.81-.93,4.76-.31,1.09-1.77,2.59-2.59,3.47s-3.51,2.27-3.56,3.71c-.06,1.67,0,2.16.71,2.93,1,.94,1.85-.2,2.26-.91a27.9,27.9,0,0,0,1.35-2.57c.43-1,0-2,.64-2.64,2.28-2.13,3.91-8.27,6.87-9,1.11-.26,3.57.13,4.73.17,2.33.08,2.39-.28,2.31,2.09-.1,2.76,3.43,2.95,5.75,3,.57.1,1.55-.26.19-1.14-.41-.43-1.08-1.46-.24-2.27,1.79-1.73,3.35-3.63,5.9-3.54,5.43.19.54-2.42,3.09-4.81,1.68-1.58,2.26-1.83,2.34-4.11,0-1.17,2.36.78,2.43-1.46,0-.81.48-3.55-.25-3.57-1.74-.06-2.34-.14-2.07-1.72.23-.67-.09-.67-1.31.05-1.77,1.06-4.46,2.31-5.71,1.35s1.52-2.31-1.1-2.4c-2.27-.08-.35-.91-1.1-2.42-.48-1-1.81-1.49-2.29-2.46-.75-1.5,1.17-2.32-1.1-2.4s-.37-.91-1.11-2.43c-.28-.58-2.09-2.62-2.54-2.2-1.22,1.13-2.18,1.57-2.24,3.23,0,1.36-.91,1.75-2.41,1.11-2.65-1.13-1.39-4.8-3.38-4.87s-5.94.68-5.87-1.37c.08-2.26-.89-.41-2.33-1.26a8.14,8.14,0,0,1-1.78-1.86c-.21-.38-.78-.53-.62.14.43,1.86-1.11,1.6-3.08,1.53-2.43-.09-4.09.57-4-1.63.25-.78-.11-.78-.55-.59l-3.11,1.43c-1.12.66-.94-.16-.93-.43.07-1.62-.79-2.28-2.08-3.65-.38-.41.85-1.43,1.66-2.08.49-.29.65-.6-.7-.51a8.07,8.07,0,0,1-3.63-.5c-.36-.34,0-2,.2-3.32.06-.47.37-1.4-.71-.6s-3.21,1.94-4,1.77-2.55-2.94-3.09-3.33c-.7-.5-1.9-1-3.13-1.8a1.22,1.22,0,0,1-.5-1.65c.28-.86.85-1.23,1.73-2,.21-.18.73-.88-.62-.72s-1.15-.85-1.09-2.55c.07-2.32-.26-2.4,2.09-2.32.73,0,.47-2.74.5-3.53.06-1.83,1.15-1.15,2.77-1.1,1.16,0,6.8.82,8.23.52.89,1.39-.65,2.13,2.79,2.25.71,0,1.46,1,2.07,1.72.43.75.79.39.81-.38,0-1.32-.44-1.61-2-1.67-1.11,0-2-2.85-3.62-2.46-1.14-.31-1.55.21-3-1.32-.7-.75-3.11-.63-3.17-1.32" transform="translate(-980.28 224.21)"/><path class="cls-1" d="M1330.63,132.09h2.81c.85,0,1.09,1.09,2.19,1.09s1.1,2.2,1.1,3.18-1.1,1.1-1.1,2.2,1.1,1.71,1.1,2.93v2.68c0,.74-1.34.37-2.07,1.47s-.37,1.46.24,2.44,1,3,1.83,3.79,1.59,1.34,1.59,2.44,1,1.22,2,1.46a14.29,14.29,0,0,0,2.93.49c.74,0,2.32-.73,2.93-.12s1.53,2.92,2.63,3.16c.09-2.58-.79-4.38,2.15-4.28.91,0,1.5-1,2.14-1.58" transform="translate(-980.28 224.21)"/><path class="cls-1" d="M1339.77,91.48a27,27,0,0,1-5.67-1.9c-1.82-.84-2.09-1.37-4-1.37l-4.53-.77" transform="translate(-980.28 224.21)"/><path class="cls-1" d="M1325.54,87.44l-6.06-.72s-1.6-.49-1.73-.26c-1.83,3.28-4.44,4.57-5,6.43-.37,1.35-1.71,3.18-2.93,3.18h-3c-1,0-1.59,1.1-2.57,1.1s-1.58.73-2.32,1.09-1.71,1.47-1.22,2.57a4.7,4.7,0,0,1,.74,2.44V111s2.07.86,1.83,2,1,1.83,2.07,1.22,2.44,1.58,2.2,3.17,1,3.18,2,4a5.84,5.84,0,0,0,3.67,1.83,4.17,4.17,0,0,1,3.9,2.93,21.18,21.18,0,0,1,1,4.52c0,1.1.24,1.47,1.83,1.47h10.75" transform="translate(-980.28 224.21)"/><path class="cls-1" d="M1293.82,76.68c.88.55,1.87-.77,2.75.22s.44,2.2,1.76,2.2h3c.66,0,1.76-1.43,2.31-2.64.22-.5,2-2.95,4-5.73,1.08-1.47,1.08-3.73,2.34-5,.8-.79,2.08-2.24,3.34-3.4a30.24,30.24,0,0,1,2.89-2.45,22,22,0,0,1,6.54-3c.3-.09-2.39,2.78-3.74,4.57-1.14,1.48-1.28,1-2.5,2.89-.74,1.18-1.29,4.25-1.78,5.34s-2.26,2.63-2.54,3.57c-.44,1.45.3,3.23.23,4.31a15.67,15.67,0,0,0,.08,4.65l5.26,4.21c-1.46,3.05-4.42,4.5-5,6.43-.37,1.35-1.71,3.18-2.93,3.18h-3c-1,0-1.59,1.1-2.57,1.1s-1.58.73-2.32,1.09-1.71,1.47-1.22,2.57a4.7,4.7,0,0,1,.74,2.44V111" transform="translate(-980.28 224.21)"/><path class="cls-1" d="M1249.77,93.33a11.09,11.09,0,0,1-2.09.75c-1.19.3-3.73,2.24-4.77,2.24h-4.18c0,1.94-.59,3-1.19,3h-2.09v3.28h0a9.14,9.14,0,0,1,1.94,4.51c.28,1.68,1.12,1.82,2.1,2.24s1.27,2.24,1.27,3.65-.15,2.38,1,2.8a15.69,15.69,0,0,0,3.36.42c.84.14,2.38,0,2.94.84s2.67,1.82,2.53,3.22-1.12,2.11-.28,3.37,1.82,2.66.42,3.36c-.84.42-1,1-1,2.1a16.76,16.76,0,0,1-.14,2.11c.84,1,1.68,2.52.84,3.78s-.84,2,.14,2.52a2,2,0,0,1,1,1.63h0" transform="translate(-980.28 224.21)"/><path class="cls-1" d="M1317.15,182.28c1.41-.63.82-2.78,1-3.61a19.88,19.88,0,0,1,2.69-6.87c.36-.88,2.08-1.64,3-.44a29.46,29.46,0,0,0,2.25,3.26c1.07,1.16.14,2.61,1,3.51,1.78,1.91,1.93,2.05,2,4.56,0,.84-.62,4.09-.17,4.74.28.39,2.1-.31,2.37.08s-.06,1.88-.08,2.37c-.12,3.47-.19,1.2-2.45,2.3s-1.55,2.43-4.25,2.33c-.54,0-1.64,1-2.54,1.46-2.47,1-2.42,1.95,1.19.67a102.5,102.5,0,0,0,20-9.52,53.76,53.76,0,0,0,8.15-6.86c2-1.88,4-4.72,6.55-5.67,1.22-.31,1.47-.88.23-.72a8.11,8.11,0,0,0-5.11,2.56c-1.26,1.16-1.83,2.11-3.5,2.52s-1.6-.23-1.71-.49c-1.08-2.66-4.18-5-4.07-8.29.06-1.64.48-1.17,2.06-1.11,1.1,0-.27,1.93.29,2.38s4.21.15,5.1.18c2.85.1,2.93-2.27.09-2.37-1.9-.07-3.7.19-2.66-2.47.51-1.34,4-2.46,2.54-4.67-.39-.59-2.4.64-2.36-.45,0-.78,0-1.57.08-2.36-1.1-.24-2-2.55-2.63-3.16s-2.19.12-2.93.12a14.29,14.29,0,0,1-2.93-.49c-1-.24-2-.36-2-1.46s-.73-1.71-1.59-2.44-1.22-2.81-1.83-3.79-1-1.34-.24-2.44,2.07-.73,2.07-1.47v-2.68c0-1.22-1.1-1.83-1.1-2.93s1.1-1.22,1.1-2.2,0-3.18-1.1-3.18-1.34-1.09-2.19-1.09h-13.56c-1.59,0-1.83-.37-1.83-1.47a21.18,21.18,0,0,0-1-4.52,4.17,4.17,0,0,0-3.9-2.93,5.84,5.84,0,0,1-3.67-1.83c-1-.85-2.19-2.44-2-4s-1.1-3.78-2.2-3.17-2.32-.12-2.07-1.22-1.83-2-1.83-2" transform="translate(-980.28 224.21)"/><path class="cls-1" d="M1251.56,139.13a5.91,5.91,0,0,0-3.43,1.35c-.89.74-3.28,2.23-4.62,1.64a2.29,2.29,0,0,0-3,.59c-.89.9-1.94,1.79-1.94,2.69s.15,1.79-1.34,1.79-2.69.45-2.69,1.49a35.5,35.5,0,0,1-.89,4.59,3.2,3.2,0,0,1,2.35.94c1.37,1.46,1.48,1.58,1.41,3.57,0,.95,1.73.09,2.34.45,3.38,2,1.61,3.75.15,6.39-.76,1.39-1.51.11-2.75.65-.8.35-1.64,1.52-2.28,2.12-1,1-.06,4.91-3.08,4.81-2.16-.08-1.72-.29-1.94-2.08-.28-2.27-2.72-1.6-1.4.57s3.62,3.88,5.44,5.81c.85.91,1.73.26,2.84.59a23.56,23.56,0,0,1,3.94,2.15c1.2.66,1.83,2.29,3,2.84.94.44,2.95.1,4,.14,2.23.07,3.81,2.51,6,2.58,4.51.16,12.11-1.07,15.27,2.3,1.59,1.69,1.5,5.41,4,5.49,1.89.07,3.59,2.36,5,4,.27.33.82,1.46.64-.15-.09-.88.26-1.31,1.4-1.27,2.52.09,0-1.17,1.26-2.33s2.29,1.42,2.38-1.1c.06-1.63.48-1.16,2.05-1.1l7.11.24c1.13,0-.31-2.39.82-2.35s2,.55,2-.67c.06-1.84-.66-6.39,1.41-6.32.94,0,5.9.52,5.92-.17,0-1.33.09-2.66.14-4,0-1.13-2.37.3-2.33-.82.11-3.14,2.56-1,2.6-3.3-.38-1.3.68-.15,1.07.26s1,2.28,1-.11c-.07-3.4,4.18,1.47,5.24,1.5,3.95.14.49,3.33,2.64,5.65.64.69,2.28,2.38,3.85,1.68" transform="translate(-980.28 224.21)"/><path class="cls-1" d="M1179.29,129.17c.29,1.32,1,2.15,2.39.82a22.37,22.37,0,0,1,6.86-4.24c1.35-.61,13.52-.57,14.43.41.47.5-.07,6.93-.51,7.34-1.22,1.13-2.17,1.55-2.23,3.21-.06,1.83.7,1.08,2.32,1.27.59.07,7.1.05,7.09.46-.12,3.36-.32,4.22,1.63,6.43.15.18.67.57,0,1.06a6.78,6.78,0,0,0-2,2.94c-.25.72,0,1.29,1,.77,2.74-1.08,5.32-1.52,7.57-3.11.36-.25,1.07-1.14,1,.73-.09,2,2,3.22,4.27,3.3,2.8.09,4.14.87,6.64,2.24,1.23.67,2.65.4,3.94.47a35.5,35.5,0,0,0,.89-4.59c0-1,1.2-1.49,2.69-1.49s1.34-.9,1.34-1.79,1.05-1.79,1.94-2.69a2.29,2.29,0,0,1,3-.59c1.34.59,3.73-.9,4.62-1.64a5.91,5.91,0,0,1,3.43-1.35h0a2,2,0,0,0-1-1.63c-1-.56-1-1.26-.14-2.52s0-2.8-.84-3.78" transform="translate(-980.28 224.21)"/><path class="cls-1" d="M1110.34,49.18a2.47,2.47,0,0,0,.73,2.07c1,1.21,1.7,1.82,1.7,2.55V57a3.12,3.12,0,0,1-1.7,2.31c-1,.49-.85,1.22-.61,2.07s.61,1.7.24,2.43-1,1.33-.48,1.94.36,1,.36,1.82v7.29c0,1,0,1.58,1,2.07s3,.73,2.31,2.07-1.58,1.82-1.58,3-.61,1.83-1.33,2.8-.37,1.7-.37,2.43a9.64,9.64,0,0,0,1.09,2.67" transform="translate(-980.28 224.21)"/><path class="cls-1" d="M1168.4,139.21a8.1,8.1,0,0,0-1.08-.09l-7.45-.26c-3.49-.13-3-2.12-3.95-5.39-.93-3.11-.54-4.16,1.81-6.35,1.91-1.79,4.75-3,7-4.37s4.43-1.84,6.3-3.47" transform="translate(-980.28 224.21)"/><path class="cls-1" d="M1111.67,89.89a34,34,0,0,1-4.13,2c-1.76.72-4.13,2.55-6,3.64h9.6v48.81c4.84.16,9.86-.1,14.64.75,5.78,1,11.62,2.53,17.5,2.73,2.8.1,5.06-2.49,7.73-3.71,2.13-1,4.14-.61,6.48-.53,1.75.06,5.85-.5,7.33.56l.08.06" transform="translate(-980.28 224.21)"/><path class="cls-1" d="M1110.34,49.18v-.85a4.86,4.86,0,0,1,.51-1.25c.35-.57,0-1.41.21-2.12a3.4,3.4,0,0,1,1.63-1.84c.78-.43.92-1.35,1.49-2.06s.21-1.41-.43-2.05a4.81,4.81,0,0,1-.92-3.4V4.38h8.64c1,0,1-.91,1.83-1.26s.79-.87.79-1.48-.79-.7-.79-1.66.7-1.4,1.58-1.49,1.31-1,2.88-1.48,2.36-1.22,2.36-2,1.05-1.22,2.36-1.22a5.19,5.19,0,0,1,3.75,1.66c.7,1,1.22,1.74,2.18,1.74H1142s.08,2.27.08,3.15,1.58,2.18,2.27,2.79a3.74,3.74,0,0,1,1.4,2.71v4H1148" transform="translate(-980.28 224.21)"/><path class="cls-1" d="M1192.4,46.53v-2.7c0-.7-1.75-1.31-2.1-2.62s-.87-2.1-.35-3.15,1-1.83.7-2.79.26-1.66.61-2.45,0-1.75,0-2.44,1.14-1.14,1.14-2.28V24.61c0-1-1-.52-1.22-1.83s-1.32-1.31-1.32-2.27-.43-1.75-.43-2.63.09-2.88-.79-2.88-2,.35-2.62-.52a2.23,2.23,0,0,1,.09-2.53c.44-.88-1-1.23-1.49-2l-25.07.08c-.7,0-.87-.61-1.48-.61s-.79.44-1.66.44H1148" transform="translate(-980.28 224.21)"/><path class="cls-1" d="M1165,144.15c1.57,1.17,4.79,4.54,6.61,4.61,1.18,0,3.5-.36,4.54.16s1.35,2,2.29,2.45c1.34.72,2-.32,3.17.94,1.37,1.46,1.49,1.57,3.46,1.64,3.1.11,5.15-.8,5.27-4.17,0-1,2.27-2.78,3.79-4,2.14-1.89-.67-.82-1-1.21s1.06-3.12-1.14-1.27c-1.91,1.61-2.13.68-4.33-1.7-1.44-1.56-1.56-1.83-3.67-1.91-1.05,0,.29-2.35-.49-2.37l-8.09-.29c-2.26-.08-.41.87-1.26,2.32a7.62,7.62,0,0,1-1.8,1.89.59.59,0,0,1-1.06,0,3.62,3.62,0,0,0-2.8-2" transform="translate(-980.28 224.21)"/><path class="cls-1" d="M1235.45,102.58V99.3h2.09c.6,0,1.19-1,1.19-3-1,0-2.09.3-2.83-.75s-1.2-2.39-2.69-2.39" transform="translate(-980.28 224.21)"/><path class="cls-1" d="M1171,119.28l.2-.17c1.27-1.2,1.44-1.14,3.22-1.08.93,0,2-1.5,2.64-2.11a1.46,1.46,0,0,1,2.52,1.1c-.09,2.63,1.4-.1,2.32,1.27,1.32,2-2.17,5.43-2.61,7a10.13,10.13,0,0,0,0,3.84" transform="translate(-980.28 224.21)"/><path class="cls-1" d="M1192.4,46.53h2.33a4.85,4.85,0,0,0,2.52,2.64c1,.29,1.5,1.49,2.39,2.38s2.09,2.39,2.09,3.73V59c0,.9-1.19.9-1.19,1.64s1.34,1.35,1.34,2.09-.3,2.84.74,4,2.24,2.24,2.69,3.58,1,3.44,2.69,3.44,2.68,1,4.47,1,2.69.15,2.69,1.49a5.82,5.82,0,0,0,.89,3.58c.9,1.64-.3,3.43.15,4.78a4.08,4.08,0,0,1,0,3c-.3,1.19.15,1.64,1.79,1.34s3.58-.74,5.07-.3,2.84,3,2.84,4.48" transform="translate(-980.28 224.21)"/><path class="cls-1" d="M1249.59,131.2a16.76,16.76,0,0,0,.14-2.11c0-1.12.14-1.68,1-2.1,1.4-.7.42-2.1-.42-3.36s.14-2,.28-3.37-2-2.38-2.53-3.22-2.1-.7-2.94-.84a15.69,15.69,0,0,1-3.36-.42c-1.13-.42-1-1.4-1-2.8s-.28-3.23-1.27-3.65-1.82-.56-2.1-2.24a9.14,9.14,0,0,0-1.94-4.51h0" transform="translate(-980.28 224.21)"/><path class="cls-1" d="M1101.46-196.12H1092v4.38c0,1.54-2.41,2.85-3.28,4.16s0,4.82.22,6.35-1.1,2-1.75,3.72" transform="translate(-980.28 224.21)"/><path class="cls-1" d="M1059.15-129.95H1082v3.24c0,1.21.92.65,2,1.76a2.61,2.61,0,0,1,.83,3.15c-.37,1.49.46,2,1,2.78a3.4,3.4,0,0,1,.93,2.78c0,1.77-.47,1.58-1.12,2.88s.84.92.65,2.31.84,1,1.3,2.41-.65,1.67-1.58,2.69-.64,2-.64,2.87v3.43c0,1.3-.19,2.69-1.3,1.85a2.22,2.22,0,0,0-3.15,0c-1.11.93.55,1.12.09,2s.28,1.12.28,2.69-.09,2.69-1.11,3.52a3.56,3.56,0,0,0-1.3,3.25c0,1.57-.05,3.1.56,3.7s.37,1-.19,2-.19,1.86.65,1.86h2.22c.74,0,.65,1.29,1.11,1.29h1.39v3c0,.92.28,1.48.93,1.48h2.23c.64,0,.83.28,1.39,1.48a1.88,1.88,0,0,0,2,1.39h3.71c.93,0,1.58,1.3,1.95,2.5s1.2,1.77,2.31,3.06,2.28,1.32,3.15,3.06a14.21,14.21,0,0,1-2.87,2.23c-1.3.64-2.78,1.39-3.06,2.4s-2,2.23-3,2.69-2.5,1.11-3,2.23a7.08,7.08,0,0,1-3.33,3.24,6.61,6.61,0,0,0-2.88,2.32c-.83,1-2.22.27-3,1.11s-.69,1.56-.89,2.44c-1.09-.37-1.82,0-3-1.34s-4.25-1.54-6.92-1.54h-16" transform="translate(-980.28 224.21)"/><path class="cls-1" d="M996.23-96.84c0,.5,0,1,0,1.59-.07,1.92,2.13,2.92,3.48,4,1.08.86,1.74,3.2.74,4a1.13,1.13,0,0,0,.08,2,2.78,2.78,0,0,1,1.12,2.52c0,1.09,2-.13,2.36.45s.1,2.4-.46,2.38c-2.94-.1-2.06,1.72-2.15,4.3-.06,2-.27,2.68-1.11,3.61-.68.67-1.1,1.29-.16,1.32,1.6.05,1,1.79,1,3.71,0,1.62.39,1.19,2,1.24,1.09,0-.27,1.94.29,2.39.82.67,4.78.17,5.92.21,1.48.05,1.38,1.62,1.19,3.15-.11,1.31-.81,1.76-1.52,1.72-1.4.16-1.81.83-.57,1.82.89.7,2.13.77,3.84.53.69-.1.24,3.59.22,4.38,0,1.08,1.92-.13,2.33.45.31.42-.15,1.8-.08,2.36a16.89,16.89,0,0,1,.49,3.53c-.08,1.53-.72,2.92-.75,3.95-.08,2.25.4,2.5,2,4.19.61.65,2.63-.22,2.6.71,0,.74-.55,3.82-.15,4.37,1,1.36,2.42-1.34,2.33,1.27s0,3.53,1.55,5.31c.65.8.56.17.56-.48.17-1.35,1.37-1.39,2.79-1.25,0-1.07.15-5.05.35-6.66a2.71,2.71,0,0,1,2.8-2.52h6.87a6.16,6.16,0,0,1,1.68-3.09c1.12-1.12,1.82-4.06,2.38-5.18s1.55-1.12,3.37-1.12h10.79" transform="translate(-980.28 224.21)"/><path class="cls-1" d="M1080.32-42.81c-1.09-.37-1.82,0-3-1.34s-4.25-1.54-6.92-1.54h-26.82c-1.82,0-2.81,0-3.37,1.12s-1.26,4.06-2.38,5.18a6.16,6.16,0,0,0-1.68,3.09h-6.87a2.71,2.71,0,0,0-2.8,2.52c-.2,1.61-.35,5.59-.35,6.66.51.05,1,.13,1.56.17a.44.44,0,0,1,.35.69c-.44.91-.8,2-1.47,2.32-1.34.65-.1,2.44,1,3.71a.53.53,0,0,1-.56.77c-2.65-.32-2,4.3-.41,4.36,2.75.09,1,5.23,1,5.93-.07,1.91-.79.91-2.42,1.11s-2.34-.81-2.41,1.09c0,.85-.29,3.56.25,3.58,1.72.06,4.4-.67,4.33,1.34-.09,2.45.63,3.57-2.13,3.48-1,0,.18,2.31-1.69,2.41-.29,0-.68.36,0,1.2a5.48,5.48,0,0,1,1,2.45c.8-.24,1.5-.46,1.89-.6a5.14,5.14,0,0,1,4,.73,4,4,0,0,0,3.89.36c1.33-.73,2.3-1.82,4.61-1.82s22.12-.24,23.82-.24,1.34.85,2.55.85h4.26c1.21,0,1.09-.85,2.18-.85h6.69V7H1093V5.19" transform="translate(-980.28 224.21)"/><path class="cls-1" d="M1139-106V-129.1h-4.52c-1,0-1.89-1.05-2.84-1.05s-1.05,1.05-1.79,1.05h-3.47c-2.1,0-2.63-.85-6.94-.85H1082v3.24c0,1.21.92.65,2,1.76a2.61,2.61,0,0,1,.83,3.15c-.37,1.49.46,2,1,2.78a3.4,3.4,0,0,1,.93,2.78c0,1.77-.47,1.58-1.12,2.88s.84.92.65,2.31.84,1,1.3,2.41-.65,1.67-1.58,2.69-.64,2-.64,2.87v3.43c0,1.3-.19,2.69-1.3,1.85a2.22,2.22,0,0,0-3.15,0c-1.11.93.55,1.12.09,2s.28,1.12.28,2.69-.09,2.69-1.11,3.52a3.56,3.56,0,0,0-1.3,3.25c0,1.57-.05,3.1.56,3.7" transform="translate(-980.28 224.21)"/><path class="cls-1" d="M1102.33-61.47c-1-1.83-2-1.76-3.15-3.06s-1.94-1.85-2.31-3.06-1-2.5-1.95-2.5h-3.71a1.88,1.88,0,0,1-2-1.39c-.56-1.2-.75-1.48-1.39-1.48h-2.23c-.65,0-.93-.56-.93-1.48v-3h-1.39c-.46,0-.37-1.29-1.11-1.29h-2.22c-.84,0-1.21-.84-.65-1.86s.79-1.43.19-2" transform="translate(-980.28 224.21)"/><line class="cls-1" x1="158.75" y1="118.19" x2="187.18" y2="118.19"/><path class="cls-1" d="M1209.7-87c-.44-1-1.26-1.32-1.45-2.27s-1.58-1.71-1.84-2.21.64-1.26.64-1.9v-3.79a3.09,3.09,0,0,0-.57-2c-.45-.5.06-1.7.76-2.59h-2.11v-8.73h-3.82c-.86,0-.57,1.43-1.43,2.29s-1.15,2.11-2.2,2.39-1.34,1.63-2.1,2.58a4.78,4.78,0,0,1-3.54,1.82,7,7,0,0,0-3.73,1c-.76.58-.86-1.14-1.53-1.34s-.57-1.24-.57-1.81,0-1.63-1.15-1.63-1.53-.86-2.48-1.24-.39-2.48-1.44-2.48a4.08,4.08,0,0,1-2.58-1.53l-2.11.52V-106h-9" transform="translate(-980.28 224.21)"/><path class="cls-1" d="M1102.33-61.47a14.21,14.21,0,0,1-2.87,2.23c-1.3.64-2.78,1.39-3.06,2.4s-2,2.23-3,2.69-2.5,1.11-3,2.23a7.08,7.08,0,0,1-3.33,3.24,6.61,6.61,0,0,0-2.88,2.32c-.83,1-2.22.27-3,1.11s-.69,1.56-.89,2.44" transform="translate(-980.28 224.21)"/><path class="cls-1" d="M1093,5.19h8c1,0,1.84-.81,3.4-.81h17.06c1,0,1-.91,1.83-1.26s.79-.87.79-1.48-.79-.7-.79-1.66.7-1.4,1.58-1.49,1.31-1,2.88-1.48,2.36-1.22,2.36-2,1.05-1.22,2.36-1.22a5.19,5.19,0,0,1,3.75,1.66c.7,1,1.22,1.74,2.18,1.74H1142" transform="translate(-980.28 224.21)"/><path class="cls-1" d="M1142-2.82s.08,2.27.08,3.15,1.58,2.18,2.27,2.79a3.74,3.74,0,0,1,1.4,2.71v4h10.66c.87,0,1-.44,1.66-.44s.78.61,1.48.61l25.07-.08c-.52-.79.09-1.58,1.05-1.93s.61-1,.61-1.74V1.2c0-.87-1-1-1-1.92V-3.6c0-.61.78-1.14,1.83-1.14S1189-5.88,1189.52-7s1.39-.61,2.09-1.57,1.23-3.06,2.33-4.18" transform="translate(-980.28 224.21)"/><path class="cls-1" d="M1193.94-12.76c-.7,1,1,2.31,1.82,2.25,1.82-.14,2.35-2.06,3.37-.84a3.71,3.71,0,0,1,1.12,3.08c-.28,1.12-.45,1.72.24,1.6,1.18-.53,4.07-1.19,4.83-2.19,1-1.38,0-2.28,1.66-3.85,1.39-1.29-.09-1.84-1.25-3.09-.69-.75-1.81-2.61-2.82-2.64-4.69-.16-.06-4.66.61-7.08a21.26,21.26,0,0,0,.16-4.38c0-1.17-2.4.61-2.32-1.63.09-2.57-2.38.13-2.29-2.45.06-1.79,1-1.15,2.62-1.1,3.92.14,5.53-.3,9.13-2,.56-.26.33-3.75.35-4.46,0-1.17-2.37.6-2.29-1.63s-2.35-.47-2.31-1.64c0-.49,0-1,0-1.47a2.82,2.82,0,0,0-.5-1.06c-1.34-1.41-2.9-3.15-1-4.86s4.23-3.09,4.11.38c-.06,1.67,0,5.12,2.54,5.2,2.16.08,2,.22,2.08-1.93,0-.49,1-.5,1.69-.41.28,0,.68.08.13-.47-1-1-1.92-2-2.88-3.08-1.48-1.6-.34-1.81-1.06-3.6-.53-1.33-2.29-1.64-2.24-3.2l.15-4.36c.09-2.44.15-1.81,2.42-1.9,1.44,0,2.93.1,4.38.15,3.23.12,2.94-4.89,3-5.82,0-.56-.9-.29-1.25-.07-1.42.89-4.86,2.16-6.18.74-2.55-2.75-2.69-3.63-.36-5.93.65-.7,1.17-.36,1.14-.18-.5,2.69.9.5,2.17,1.88.66.72,2.7,2.67,3.5,2.53,1-.17.95-.37,1.06-.62s-.29-1.64.27-2.16,2.09-1.48,2.19-2c.27-1.55-2.25-3.51-2.19-5.19a4.37,4.37,0,0,1,2.52-4.27c.64-.32,2.35.66,2.39-.29a.74.74,0,0,1,0-.18h-15" transform="translate(-980.28 224.21)"/><path class="cls-1" d="M982.16-134.82q-.28,8-.56,16c-.11,2.9-1.32,4.91,1.82,5,1.13,0-.47,2.34.66,2.38,2.15.08,1,0,.95,2.14,0,1.17,2.4-.61,2.32,1.64-.09,2.54,1.16,0,2.32,1.27s-1.43,2.31,1.1,2.4c.63,0-.43,1.81.5,1.78a2.78,2.78,0,0,1,2.24,2c0,.43-.22.85,0,1s.79,0,1.38,0c1,.19,1.3,1.16,1.38,2.36" transform="translate(-980.28 224.21)"/><path class="cls-1" d="M1001-222.42c-6,0-12-.23-18.1-.45.06.42.11.83.16,1.25.68,5.18,1.8,10.42,1.62,15.65q-.33,9.34-.65,18.7l-1.11,31.7-.72,20.75" transform="translate(-980.28 224.21)"/><path class="cls-1" d="M1039.28-138.76v-3.94c0-.87-1.75-2-2.19-3.06s1.1-2.19,1.31-3.51,1.76-2.4,1.1-3.72-3.07-2-2.41-2.84,1.31-1.75,2.19-1.1,2.41.22,2.41-1.53" transform="translate(-980.28 224.21)"/><path class="cls-1" d="M1029.07-223.18c-4.57.05-9.15.18-13.79.44-4.81.27-9.56.34-14.32.32" transform="translate(-980.28 224.21)"/><path class="cls-1" d="M1054.39-222.72l-4.18-.16c-7.15-.25-14.13-.38-21.14-.3" transform="translate(-980.28 224.21)"/><path class="cls-1" d="M1041.69-158.46h13.13v-4.16h7.67v-2.19a26.46,26.46,0,0,0-1.54-4.38,18.9,18.9,0,0,1-.87-5.47v-2.85" transform="translate(-980.28 224.21)"/><path class="cls-1" d="M1060.08-177.51h27.15c.65-1.75,2-2.19,1.75-3.72s-1.1-5-.22-6.35,3.28-2.62,3.28-4.16v-4.38h9.42v-3.06c0-1.1-.88-1.53-.88-2.41s1.75-.66,1.75-1.75v-17.81c-16-.13-32-1-47.94-1.57" transform="translate(-980.28 224.21)"/><path class="cls-1" d="M1059.15-129.95a4.42,4.42,0,0,0-.93-2.69c-.74-1-1.57-1-1.57-2v-4.08h-17.37" transform="translate(-980.28 224.21)"/><path class="cls-1" d="M1087.23-177.51h-27.15v2.85a18.9,18.9,0,0,0,.87,5.47,26.46,26.46,0,0,1,1.54,4.38v2.19h-7.67v4.16h-13.13c0,1.75-1.53,2.19-2.41,1.53s-1.53.22-2.19,1.1,1.75,1.53,2.41,2.84-.88,2.41-1.1,3.72-1.75,2.41-1.31,3.51,2.19,2.19,2.19,3.06v3.94h17.37v4.08c0,1,.83,1,1.57,2a4.42,4.42,0,0,1,.93,2.69h33.62" transform="translate(-980.28 224.21)"/></svg>