<svg id="base_map" data-name="base map" xmlns="http://www.w3.org/2000/svg" viewBox="0 0 326.47 123.4"><defs><style>.cls-1{fill:#015067;stroke:#fff;stroke-width:0.84px;}.cls-2{fill:none;}</style></defs><path class="cls-1" d="M490.14,170.63v5.89c0,1.17-.95,1.29-.95,2.43a5.87,5.87,0,0,1-.38,2.53c-.26.38.5,1.39,1.32,1.64s1.27,1,.7,1.71a5.56,5.56,0,0,0-1.58,2.71c-.06,1-.51,2.59.19,3.6s1.14,1.9.19,2.78a2.54,2.54,0,0,0-1.08,2v4.11a1.62,1.62,0,0,1-1.13,1.51,17.89,17.89,0,0,0-3.92,3.16h-2.1V196h-3.82c-.86,0-.58,1.43-1.44,2.29s-1.14,2.11-2.19,2.39-1.34,1.63-2.11,2.58a4.75,4.75,0,0,1-3.53,1.82,6.9,6.9,0,0,0-3.73,1.05c-.77.58-.86-1.15-1.53-1.34s-.57-1.24-.57-1.81,0-1.63-1.15-1.63-1.53-.86-2.49-1.24-.38-2.49-1.43-2.49a4.07,4.07,0,0,1-2.58-1.52c-.67-.67-1.63-1.44-1.63-2.49V189c0-.95-1.33-2.1-1.81-2.77s-.77-1.05,0-1.72,1.81-.29,2.29-.77,1.91-.47,1.91-.47v-4.11c0-.86-1.33-.77-1.91-1.15s-.57-.76-.29-1.53a2.58,2.58,0,0,1,1-1.34c.89-.44,1.43-1,2.41-.8a2.67,2.67,0,0,0,2.76-1.07c.45-.89.63-2.14,1-3a3.29,3.29,0,0,1,2.14-1.61,3.92,3.92,0,0,0,2.14-2.67c.36-1.34-.26-1.78.09-2.94s1-1.7.8-2.59.45-1.69.45-2.76.89-2.05,1.52-1.43,1.16,1.34,2,.62,1.78-.53,1.78-1.16v-2.4c0-.54.89-1.07,1.79-1.07s1.07-1.43,2.49-1.43.81-2.25,3.75-2.25h12.42v2c0,.52.63,1.36,1.15,1.36s1.47,1.26.95,1.89-.84,1.37-1.89.85-1.37-.21-1.58.31.32,1.26,1.16,1.16,1.05,1.05.73,1.78-1.26.32-2,.85-.52,1.36-1.57,1.57-2.31,1-1.58,1.89,1.26,2.84.21,2.84-1.79-.1-2.1.42.31,1.37,1.16,1.26a1.27,1.27,0,0,1,1.47,1.16,1.92,1.92,0,0,1-1.05,1.68c-.74.42-1.37,1-.53,1Z" transform="translate(-168.03 -83.25)"/><rect class="cls-2" width="18.83" height="32.37"/></svg>