<svg id="base_map" data-name="base map" xmlns="http://www.w3.org/2000/svg" viewBox="0 0 492.43 337.86"><defs><style>.cls-1{fill:#015067;stroke:#fff;stroke-width:0.84px;}.cls-2{fill:none;}</style></defs><path class="cls-1" d="M643.79,398.23c.84-.79,2.31.15,3.42-.89,1.73-1.6,1.46-1.61,3.07.11,3.14,3.34,3.25-1.08,3.33-3.43,0-.74,2.77-.28,3.56-.25,1.9.06,1-.71,1.27-2.31.43-2.23-.52-2.4,2-2.32a7,7,0,0,1-3.25-1.24c-2-1.26-2.1,1.12-3.5,1.26s-1.55-2.38-3.65-1.12-4.48,3.22-5.74,1.4-.85-3.79-3.09-3.65,1.7-2.58-.68-1.46-6.58,5.94-8.46,9.57c-1.51,2.91-3.59,1.12-5.56,2.75a6.67,6.67,0,0,1-5.76,1.33l-4.71,0c0,2,.5,1.59.36,4.68,0,0-.95,4.86-.95,6.07,0,2.44-1.09,3.48-1.09,4.78s.67,2.12,1.45,2.12h2.75a3.25,3.25,0,0,0,2.28-.88c.93-.73,2-1.35,2.7-.88s2.28,2.64,3.32,3.58c.52-.47.52-1,2.07-1.14s2.13.41,3.43.83,1.55,1.71,2.69,3.42a3.32,3.32,0,0,0,.88-1c.37-.62-.15-1.92-.67-3.78s-2.59-1.82-4.15-1.66-2.33-.78-3.79-1.77-.62-2-.15-3,2.07-3.07,3.47-2,2.91.26,4.93-1,2.08,1.14,3,1.35,1.71-1.46,2.77-2.57C640.34,402.3,642,399.93,643.79,398.23Z" transform="translate(-168.03 -83.25)"/><rect class="cls-2" width="18.83" height="32.37"/></svg>