<svg id="base_map" data-name="base map" xmlns="http://www.w3.org/2000/svg" viewBox="0 0 469.45 434.66"><defs><style>.cls-1{fill:none;stroke:#00aeef;stroke-linecap:round;stroke-linejoin:round;stroke-width:3px;}</style></defs><path class="cls-1" d="M713.7,340.78v-1.1H707c-1.09,0-1,.85-2.19.85h-4.25c-1.22,0-.85-.85-2.55-.85s-21.51.25-23.82.25-3.28,1.09-4.62,1.82a4,4,0,0,1-3.89-.37,5.21,5.21,0,0,0-4-.73c-.38.14-1.09.37-1.89.61a26,26,0,0,1,0,4.56c-.09,2.58-2.36-.28-2.45,2.29,0,.79.24,3.56-.49,3.54-4.18-.15-1.39,4-1.53,7-.07,1.42-2,3.06-6.23,6.38-1.37,1.07-.44,3.38-.46,4.1a4,4,0,0,1-2.13,2.54c-1.92.31-1.56,1.09-2.33,2.23-1.36.52-.45,1.26-.06,1.55.61.46,0,1.83,1.55,1.89,1.8.06,1.62,2,0,2.34-2,.13.35,1.46.82,3a10.41,10.41,0,0,1,0,3c-.06,1.62-.46,1.17-2,1.11-1,0,.08,1.87-.45,2.37s-2.34-.78-2.38.28c0,.47,0,.95,0,1.42" transform="translate(-615.11 -109.06)"/><path class="cls-1" d="M641.61,390.84l-.06,1.77c0,1.18-.08,2.36-.13,3.55a4.35,4.35,0,0,0,0,1.63c.19,1.13,1,1.83,2,2.86a1.19,1.19,0,0,0,.91.35l1.38,0c.72,0,.27,2.77.24,3.56-.06,1.7.41,4.09-.31,5.26-.16.26-.49.63-.41.66a.93.93,0,0,1,.49.52,3.27,3.27,0,0,1-.06,1.85c0,.79-.06,1.59-.08,2.38l1.65,1.76c.21.22-.18.52-.48.53-2.12.05-1.19,2.65-1.42,4.79-.15,1.35.17,1.82-.73,2-.57.1-.57.41.15.57s.57,1.14.26,1.74c-.14.27-.31.53-.48.79" transform="translate(-615.11 -109.06)"/><path class="cls-1" d="M644.43,427.43a30.78,30.78,0,0,1-4.43,4.41c-2.84,2.64-4.7,3.65-4.83,7.63-.15,4.16-5.22,10.8-9.5,10.65-.73,0-.47,2.75-.5,3.54,0,1.54.6,1.87,1.66,3,.83.91-.07,2.37.5,3,.8.87,2-.63,2.73.83,1.18,2.59,2.26,6,5.28,3.16l3.71-3.44c.54-.5,1.92.08,2.63-.07l9.3-2c1.89-.4,3.92.33,5.85-.08,5.48-1.18,10.23-2.56,15.73-1,2.71.78,6,2.92,8.18.86,1.83-1.72,3.86-1.06,6.33-1,5.12.17,10-.24,14.75,1.85,4.94,2.19,9.82,5,14.85,6.89,5.62,2.12,11.25,4.21,16.87,6.31a24.86,24.86,0,0,1,6.23,3.66c2.58,1.85,3.5,2.22,6.63,2.33h.11v-48.8" transform="translate(-615.11 -109.06)"/><path class="cls-1" d="M736.91,429.25c1.83-1.09,4.2-2.92,6-3.64a37.17,37.17,0,0,0,4.13-1.95" transform="translate(-615.11 -109.06)"/><line class="cls-1" x1="130.56" y1="273.89" x2="130.56" y2="273.04"/><path class="cls-1" d="M713.7,340.78h14.59V339h8c1,0,1.84-.8,3.4-.8h8.43v31.23c0,1.62.28,2.76.92,3.39s1,1.35.42,2.06-.7,1.63-1.48,2.05a3.43,3.43,0,0,0-1.63,1.84c-.21.71.14,1.56-.21,2.13a4.55,4.55,0,0,0-.52,1.25" transform="translate(-615.11 -109.06)"/><path class="cls-1" d="M884.39,158.13c.43-.57,2.33.81,2.37-.29,0-.61-.3-2,.44-2,2.77.09,2-1,2.14-3.46,0-1.38-.69-2.09-1.58-3-.55-.52-.83-.74-.77.83.12,3-1.08,5.54-5.26,5.4-1.73-.06-4.41.67-4.34-1.34.06-1.57.11-3.14.17-4.71.09-2.58,2.37.3,2.49-3.1,0-.8,4.34-2.68,5.15-2.66,1.58.06,2,.52,2-1.11,0-.88.29-1.1-.48-1.39l-6-2.23c-2.22-.82-2.18.66-2.07-2.27,0-1.57.77-3.14.83-4.72.09-2.64.32-2.94,2.28-4.78,1-.9,2.55-.07,3.86-1.3,1.55-1.44,3.37-7.19,1.8-8.89a31.21,31.21,0,0,1-2-4.18c-.5-1.07-1.83-.88-3.57.74-.29.88.37,1.19,1.07,1.76s-2.63,1-1.23,2.93c1.59,2.22,1.24,1.81-.71,3.64-.68.64-2.83.14-3.81.11-1.75-.06-1.11-.8-1.09-2.41,0-2.13.12-2.4,1.66-3.85.62-.58,1.67-2.24.94-3.15s-8.36-.21-9.49-.25l-1.07,0v.09" transform="translate(-615.11 -109.06)"/><path class="cls-1" d="M887.79,204.9l.52.63c.41.43,1.5.54,1.53-.18.06-1.72,1-4.33-1-4.4-1.71-.06-2.33-1.23-2.79-.89s-.2,1.37,1.37,3C888.21,204,887.45,204.48,887.79,204.9Z" transform="translate(-615.11 -109.06)"/><path class="cls-1" d="M881.1,196c1.34.13,2,.06,2-2,0-.57,1.47-.64,1.93-.36.31.19.77,1.24,1.07.87,1-1.24,4.17-1.42,4.22-.24s-.65,4-.29,4.35c1.08,1.15,2.37-.11,2.41-1.11q.13-3.94.28-7.89c0-1.62-.55-2.77,1.28-2.7,1.09,0,1.38.45,1.31,1.26,0,.32.23.76.48.55,1.7-1.42,4.19-3.2,4.26-5.16.1-2.82.25-3.57,2-5.29.3-.33.69-.9-.05-.94-1.18-.06-1.74.18-1.79,1.49,0,1.54-.71,1.81-1.86,2.88s-4.54.46-6.24.4c-2.51-.09-1.4-3-1.32-5.17s-.09-2,2.06-1.93c.75,0,.43-1.69.46-2.34.14-4-2.33-2.4-4.46-.4-1,1-4.95.12-5.8-.79-1.87-2-3.8-3.22-3.7-6a4.2,4.2,0,0,1,2.52-3.51c.68-.39,2.53,1.17,3.79,2.53,1.78,1.93-.54,3.18,2.73,3.29,1.89.07,3.62.45,2.8-2.26s-3-1.7-4.65-2.54c-1.18-.61-3.3-3.37-2.19-4.83" transform="translate(-615.11 -109.06)"/><path class="cls-1" d="M797,112.25l-52.38.37c-2.31,0-4.63,0-6.94,0v17.82c0,1.09-1.75.87-1.75,1.75s.87,1.31.87,2.41v3.06H746s3.65.49,5.25,2.63c1.31,1.75.66,2,2,2h2.63v5.47h9.63v4.6c0,.87-1.09.22-1.09,1.09s1.2.22,1.2,1.21v2.51" transform="translate(-615.11 -109.06)"/><path class="cls-1" d="M853.21,112l-3.14-.1c-11.7-.41-23.49.1-35.21.2l-17.88.14" transform="translate(-615.11 -109.06)"/><path class="cls-1" d="M868.18,112.55v-.09c-4.5-.15-10.17-.3-15-.45" transform="translate(-615.11 -109.06)"/><path class="cls-1" d="M842.56,232c-.69.88-1.2,2.08-.76,2.59a3,3,0,0,1,.57,2v3.79c0,.63-.88,1.39-.63,1.9s1.64,1.26,1.83,2.21,1,1.26,1.45,2.27h15a3.67,3.67,0,0,0,.56-1.4c0-.56-.54-1.07-.5-1.6.17-2.31.19-4.62.25-6.93a1.08,1.08,0,0,1,.74-.95,17.92,17.92,0,0,0,3.63-2.25c.27-.2.47-.08.44.15-.13,1.22-.48,3.69-.11,4.21,1,1.5,2.37-.39,2.28,2.45,0,1.2,4.2-1.07.4-4.47-1.87-1.68,1.07-1.58,1.83-2.57s2.18-3.95,2.65-4.38c1.78-1.65,2.57,1.35,2.69-2.16a9,9,0,0,1,5-7.31c1.68-.75,3.76.5,4.81-2.2s-.5-2.26-2.27-2.47c-.86-.1-4.76.29-4.73-.53s-.18-4.36.52-4.34c3.4.12.55,2.38,3.1,2.47,1.65.06,3.51.89,3.58-1.06s2.48-2.28,2.53-3.82c0-.45.3-1.58.06-1.79l-.58-.47a9.76,9.76,0,0,0-1.8.16c-1.62,0-3.3-.12-4.93-.18-1.8-.06-4.58.77-4.5-1.33.1-3-.58-8.32,3.85-8.17.61,0,1.14.09,1.59.14" transform="translate(-615.11 -109.06)"/><path class="cls-1" d="M774.35,204.67V185.43c0-.84-1.05-1.89-2.2-2.94s-5-4.84-5.68-5.47-1.79-.52-1.79-1.58v-9.31" transform="translate(-615.11 -109.06)"/><path class="cls-1" d="M774.35,190.58v-5.15c0-.84-1.05-1.89-2.2-2.94s-5-4.84-5.68-5.47-1.79-.52-1.79-1.58V165.29c0-.74.89-.74.89-1.81v-6.35" transform="translate(-615.11 -109.06)"/><path class="cls-1" d="M842.56,232h-2.1V223.3h-3.82c-.86,0-.58,1.43-1.44,2.29s-1.14,2.1-2.2,2.39-1.33,1.62-2.1,2.58a4.75,4.75,0,0,1-3.53,1.82,6.82,6.82,0,0,0-3.73,1.05c-.77.57-.86-1.15-1.53-1.34s-.58-1.24-.58-1.82,0-1.62-1.14-1.62-1.53-.86-2.49-1.24-.38-2.49-1.43-2.49a4,4,0,0,1-2.58-1.53" transform="translate(-615.11 -109.06)"/><path class="cls-1" d="M774.35,190.58v37.17h37.42v-3.83l2.12-.53" transform="translate(-615.11 -109.06)"/><path class="cls-1" d="M878.46,326.14c-14.21.35-28.45.62-42.64,1-.69.12-.53-.48-.25-1.61a3.71,3.71,0,0,0-1.12-3.08c-1-1.22-1.54.7-3.36.84-.84.07-2.53-1.26-1.82-2.24-1.11,1.12-1.63,3.21-2.33,4.17" transform="translate(-615.11 -109.06)"/><path class="cls-1" d="M909,357.63a2.54,2.54,0,0,1,0-1.89c.42-.95-.94-.74-.84-1.69s1.47-1.47,1.05-2.62a5,5,0,0,1,0-3.26,4.7,4.7,0,0,0-.42-3.26c-.52-1.37.63-1.68-.21-2.63s-.63-1.47-.21-2.63,0-1.47-.53-2.63-.94-2.73-.42-3.78,2-2.42,1.9-4.1a10.46,10.46,0,0,1,.77-4l-7.18.25q-12.21.43-24.47.72" transform="translate(-615.11 -109.06)"/><path class="cls-1" d="M903.2,364.71c-.22,1-1,1.32-1.87,1.76s0,1.76-1.1,2.42-2.19.44-2.74,1.21-2.09,1.76-1.21,2.53,1.54,3.41.55,4.51.33,1.76.33,3V384c0,1-1.76,1.65-.77,2.64a4.06,4.06,0,0,1,1.21,3.85c-.44,1.21.88,1,2,2.53s3.73,1.87,4.17,2.74.66.77,1.21,1,2.2.11,2.86,1.1,2.86,1.32,3.19,3.41.66,2.86,1.65,3.08a2.52,2.52,0,0,1,2.2,2.09,3.67,3.67,0,0,0,2.85,2.42c1,.22.33,2.09,1.32,2.42s1.76.76,1.54,1.86a1.73,1.73,0,0,0,1.87,1.87c.88-.11,1.54-.77,1.87-2.08a5.65,5.65,0,0,1,2-3.09c1.54-1.21,1.69-.07,2.86.66.88.55,1.87-.76,2.75.23s.44,2.2,1.76,2.2h3c.66,0,1.76-1.43,2.31-2.64a12.91,12.91,0,0,1,1.81-2.68,30.26,30.26,0,0,1,2.07-2.86c.84-1,1.14-3.1,2.07-4.67l3.75-3.9" transform="translate(-615.11 -109.06)"/><path class="cls-1" d="M934.42,324.72h-.06c-8,0-16.15.19-24.25.45a10.46,10.46,0,0,0-.77,4c.1,1.68-1.37,3.05-1.9,4.1s-.1,2.63.42,3.78.95,1.48.53,2.63-.63,1.68.21,2.63-.31,1.26.21,2.63a4.7,4.7,0,0,1,.42,3.26,5,5,0,0,0,0,3.26c.42,1.15-.94,1.68-1.05,2.62s1.26.74.84,1.69a2.54,2.54,0,0,0,0,1.89s-.16,2.47-1.42,2.47-1.8.31-2.42,1.75c-.33.77-1.76,1.87-2,2.86" transform="translate(-615.11 -109.06)"/><path class="cls-1" d="M830.05,380.3h-2.33v-2.7c0-.7-1.74-1.31-2.09-2.62s-.88-2.1-.35-3.15,1-1.84.7-2.8a3.44,3.44,0,0,1,.61-2.44c.35-.79,0-1.75,0-2.45s1.13-1.13,1.13-2.27v-3.49c0-1-1-.53-1.22-1.84s-1.31-1.31-1.31-2.27-.44-1.74-.44-2.62.09-2.88-.78-2.88-2,.35-2.62-.52a2.27,2.27,0,0,1,.08-2.54c.44-.87-1-1.22-1.48-2s.09-1.57,1-1.92.61-1,.61-1.75V335c0-.88-1.05-1.05-1.05-1.92v-2.89c0-.61.79-1.13,1.84-1.13s1.92-1.14,2.44-2.28,1.4-.61,2.1-1.57h0" transform="translate(-615.11 -109.06)"/><path class="cls-1" d="M903.75,395.71c-.44-.87-3.08-1.2-4.17-2.74s-2.42-1.32-2-2.53a4.06,4.06,0,0,0-1.21-3.85c-1-1,.77-1.65.77-2.64V380.1c0-1.2-1.32-1.87-.33-3s.33-3.74-.55-4.51.66-1.76,1.21-2.53,1.65-.55,2.74-1.21.22-2,1.1-2.42,1.65-.77,1.87-1.76,1.65-2.09,2-2.86c.62-1.44,1.16-1.75,2.42-1.75s1.42-2.47,1.42-2.47" transform="translate(-615.11 -109.06)"/><path class="cls-1" d="M874.06,430.08c-1,0-2.09.3-2.84-.74S870,427,868.54,427h-7.31c0-1.5-1.35-4-2.84-4.48s-3.43,0-5.07.3-2.09-.15-1.79-1.34a4.11,4.11,0,0,0,0-3c-.45-1.34.74-3.13-.15-4.77a5.77,5.77,0,0,1-.9-3.58c0-1.35-.89-1.49-2.68-1.49s-2.84-1.05-4.48-1.05-2.24-2.09-2.68-3.43-1.65-2.39-2.69-3.58-.75-3.28-.75-4-1.34-1.34-1.34-2.09,1.19-.74,1.19-1.64v-3.73c0-1.34-1.19-2.84-2.08-3.73s-1.35-2.09-2.39-2.39a4.85,4.85,0,0,1-2.53-2.63" transform="translate(-615.11 -109.06)"/><path class="cls-1" d="M903.75,395.71c.44.88.66.77,1.21,1s2.2.11,2.86,1.1,2.86,1.32,3.19,3.41.66,2.86,1.65,3.08a2.52,2.52,0,0,1,2.2,2.09,3.67,3.67,0,0,0,2.85,2.42c1,.22.33,2.09,1.32,2.42s1.76.76,1.54,1.86a1.73,1.73,0,0,0,1.87,1.87c.88-.11,1.54-.77,1.87-2.08a5.65,5.65,0,0,1,2-3.09c1.54-1.21,1.69-.07,2.86.66,0,0-.56,1.45-1,2.42s-.36,1.83-.73,3.06" transform="translate(-615.11 -109.06)"/><path class="cls-1" d="M948.63,396.12c6.08-6.41,15.54-6.38,15.54-6.38" transform="translate(-615.11 -109.06)"/><path class="cls-1" d="M954,324.54c-6.52.12-13.06.18-19.57.18" transform="translate(-615.11 -109.06)"/><path class="cls-1" d="M1002,363.67c-.92-.28.59-1.77.22-2.24s-.39.39-1.09-.21-.32-1.76-1.15-2.29.34-1.11.81-2.87c.25-.92-1-1.21-.85-2.16.23-2.1,1-1.32,1-3.25,0-1.19.08-2.38.13-3.56a3.64,3.64,0,0,1,.06-1.86c.47-1.22,2.78-.36,3.45-2.78.22-.75-1.13-1.82-1-3a1.74,1.74,0,0,1,2.11-1.73c.13,0,.3-.14,0-.38l-1.32-1.42c-.17-.19-.08-.47.11-.45,2.89.36,1.34-2.74,2-4.14.5-.93-.07-1.15,0-1.79.1-2.61,1.37.19,2.42-1.1.69-.83,1-3.78,1.11-5.43,0-.27.05-.71-.29-.37-.56.56-1,1.14-1.62,1.69-.21.25-.57.32-.48-.22s0-.86,0-1.29-.34-.54-.53-.52c-13.23,1.56-29.35,1.68-43.43,2.07q-4.79.14-9.58.21" transform="translate(-615.11 -109.06)"/><path class="cls-1" d="M964.17,389.74c1.94,0,9.85.91,11.67,1.75a21.76,21.76,0,0,0,4.93,1.86c1.54.28,3.36,2.55,6,3s-.07,5.95,3.16,5.39,6.82,2.57,9.2,1.45,5.39,3.56,7.63,3.42,2.16,1.86,3.42,3.68-3.2,6.35-1.1,5.08,2.24,1.27,3.65,1.13,1.54-2.53,3.5-1.27a7,7,0,0,0,3.25,1.25h.06c1,0,0-1.93.63-2.5,1.22-1.13,1.8-2.12,3.46-2.06.72,0,3.05.47,3.56.12,1.36-1-1.07-2.4.69-2a2.17,2.17,0,0,0,1.85-.81c.61-1.07-1.41-2.6-2.12-.48a1.88,1.88,0,0,1-2.72.82,3.23,3.23,0,0,1-.78-1.1,13.16,13.16,0,0,1-1.4-4.1c.13-3.57-2.36-.49-2.24-4.08.06-1.62-1.42-1.9-.72-2.86s1.46-6.13,1.07-7-1.23,3.63-2.43,2.29-1.67-3.73-2.2-4.83.06-1.88.12-3.55-.39-1.2-2-1.25c-.81,0-.2-1.72-.28-2.39s.52-2.36-.29-2.38c-1.58-.06-2,.37-2-1.26,0-1.3-1.65-1.37-2.5-1.44s-1.24-1.37-2.11-2.26.58-1.58.09-2.38-1.57-.38-2.53-.23-.35-1-1.31-1.45.65-.82-.6-1.81,0-3.56-.89-3.84" transform="translate(-615.11 -109.06)"/><path class="cls-1" d="M1000.41,432.39c-1-2.79.63-5.15,2.44-6.85.84-.79,2.31.15,3.42-.89,1.73-1.61,1.46-1.61,3.07.11,3.14,3.34,3.25-1.08,3.33-3.44,0-.73,2.77-.27,3.56-.25,1.9.07,1-.7,1.27-2.3.43-2.23-.52-2.41,2-2.32a7,7,0,0,1-3.25-1.25c-2-1.26-2.1,1.13-3.5,1.27s-1.55-2.39-3.65-1.13-4.48,3.23-5.74,1.41-.85-3.79-3.09-3.65,1.7-2.58-.68-1.46-6.58,5.94-8.47,9.57c-1.5,2.9-3.58,1.12-5.56,2.74a6.62,6.62,0,0,1-5.75,1.34l-4.71,0" transform="translate(-615.11 -109.06)"/><path class="cls-1" d="M1025.49,461.35c-.41-4.52-4.76.33-4.6-4.19.05-1.61-.54-2.75,1.28-2.68,1.13,0,1.39.49,1.29,1.37-.35.95.21.66.46.46,1.72-1.38,4.52-3.24,4.17-.29-.29.68-.1,1.25.62.42.92-1.05,1.44-2,2.55-.82,1.58,1.69,1.66,1.38,3.85,1.67s2.28,0,3.85,1.68a2.84,2.84,0,0,0,2.51,1c.62,0,.35-.74.19-1.09l-1.32-2.86c-.37-.88,0-1.19,1.29-1.24a3.53,3.53,0,0,0,3.11-1.87c1.31-2.28-.79-2.4,2.83-2.28,2.76.1,2.07,1.49,4.28,2.53a9.47,9.47,0,0,0,3.52.2c.88,0,.74-.54.52-.76a4.79,4.79,0,0,1-1.53-2.34c-.08-1.09-.63-1.16-1-.86-1.74,1.46-3.85,2.65-3.73-.69,0-1.49-1.48-2.39-3-2.75-1.69-.36-.89-1.06-.39-1.56a2.48,2.48,0,0,1,1.52-.89c1.09,0,3.36.52,4.36.16,1.69-.61,1.64-2.31,3.64-2.24,1.44.05,2.13-.73,3-1.68.55-.48.55-1-.28-1-2.36-.08-4.6.24-7,.16-1.5,0-1-.75-.55-1.23,1.28-1.44,3-3.41,4.16-3.37,2.93.1,4.34,1.06,4.45-2.22,0-1.61.63-2.33-1.09-2.39s-1.16-.49-1.11-2.06c.08-2.34-4.33,1.4-4.63,1.68-1.39,1.31-1.94,4.87-2.6,6.65-.28.75-2.67.62-4,.41-.54-.09-1.24,0-.88-1.21.31-1.08.68-2.33.11-3.38-.27-.5-1.91-.06-2.35-.28-1.27-.65-2.75-2.69-3.88-4.1-.57-.59-.31-1,.42-.75,1.77.6,2.33-2.29,4.08-2.23,1.58.05,2,.51,2-1.13,0-1.05.31-1.18-.7-1.22-2.1-.07-4.24-.06-6.34-.22-1.83-.14-2.48-.35-3.34-1.15-.37-.34-1.44-.69-1.48,1.44,0,1.73-.81,2.68-2.79,4.54-1.21,1.14-1.65,2-3.3,1.93-1.82-.06-1.1.69-1.27,2.31-.27,2.45-.18,5-.26,7.46-.13,3.62-.75.34-2.45,1.92-1.24,1.16,1.26,2.41-1.26,2.32-2.21-.07-6.28.59-8.27-.29-1.82-.8-3.54-5.44-2.12-7.17s2.3,1.81,2.43-1.91c0-.69-2.13-.66-2.61-.22-2,1.86-3.68,1.94-5.58,3.14a2.72,2.72,0,0,1-2.22-.18c-1.58-.65-2.73-.64-3.8-3.61" transform="translate(-615.11 -109.06)"/><path class="cls-1" d="M988.37,487.21a4.85,4.85,0,0,1,2.68-.62l5.48.19c2.75.1,2.16-1.43,4.44-2.22,3.07-1.06,2.32,1.72,2.25,3.64-.08,2.4-.33,3.33,1.36,5.13,1.34,1.43.71,3.49.64,5.39,0,.57,0,1-.05,1.44-.21,1.2-.27,1.9.72,1.51,2.36-.94,5.44-.17,8-.08,1.81.07,3.63,1.61,5.19,2.46,1.17.64,2.7.27,4,1,3.74,2,6.78,4.23,11.08,4.38,2.06.07,2.54,2.47,4.14,2.52s3.58.57,4.28,2.52c.28.8-.74,4.71.2,4.74,2.93.1,2,1.32,1.87,4.06,0,1,2.45,1,3.49,2.06a12,12,0,0,0,3.49,1.68c.25.86-.39,2.81-.93,4.75-.32,1.09-1.78,2.6-2.59,3.48s-3.52,2.26-3.57,3.71c0,1.67.06,2.15.71,2.92,1,.94,1.85-.19,2.26-.9a27.9,27.9,0,0,0,1.35-2.57c.43-1,0-2,.64-2.64,2.28-2.13,3.91-8.27,6.87-9,1.12-.26,3.57.12,4.74.16,2.33.09,2.38-.28,2.3,2.09-.1,2.77,3.43,3,5.75,3,.57.11,1.56-.26.2-1.13-.41-.43-1.08-1.46-.24-2.27,1.79-1.73,3.35-3.63,5.9-3.54,5.43.19.53-2.43,3.09-4.81,1.68-1.58,2.25-1.83,2.33-4.12,0-1.16,2.36.78,2.44-1.46,0-.8.48-3.54-.25-3.57-1.74-.06-2.34-.13-2.08-1.72.23-.67-.08-.67-1.3.06-1.78,1.06-4.47,2.3-5.71,1.34s1.52-2.3-1.11-2.4c-2.26-.07-.35-.91-1.1-2.41-.47-1-1.8-1.5-2.28-2.46-.76-1.51,1.16-2.32-1.11-2.4s-.36-.91-1.1-2.43c-.28-.59-2.09-2.62-2.54-2.21-1.23,1.14-2.18,1.58-2.24,3.24,0,1.35-.92,1.75-2.41,1.11-2.66-1.13-1.4-4.8-3.38-4.87s-6,.68-5.88-1.38c.08-2.25-.88-.41-2.32-1.26a7.56,7.56,0,0,1-1.78-1.86c-.21-.37-.78-.53-.62.15.43,1.86-1.12,1.59-3.09,1.52-2.42-.08-4.09.58-4-1.63.25-.78-.11-.78-.56-.58l-3.1,1.43c-1.12.66-1-.16-.94-.43.07-1.62-.79-2.28-2.08-3.66-.38-.41.85-1.42,1.66-2.08.5-.28.65-.59-.7-.5a8.09,8.09,0,0,1-3.63-.51c-.35-.34,0-2,.21-3.31.06-.47.36-1.41-.71-.61s-3.21,1.95-4,1.78-2.55-2.94-3.1-3.33-1.89-1-3.12-1.8a1.23,1.23,0,0,1-.51-1.66c.29-.85.86-1.23,1.74-2,.21-.19.73-.88-.62-.72s-1.15-.86-1.09-2.56c.07-2.31-.26-2.4,2.09-2.31.73,0,.46-2.74.49-3.54.07-1.82,1.15-1.15,2.78-1.09,1.16,0,6.8.81,8.23.52.88,1.38-.66,2.12,2.79,2.24.71,0,1.46,1,2.07,1.72.43.76.79.4.81-.38,0-1.32-.44-1.6-2-1.66-1.12,0-2-2.86-3.63-2.46-1.13-.32-1.55.21-3-1.33-.69-.74-3.1-.62-3.16-1.31" transform="translate(-615.11 -109.06)"/><path class="cls-1" d="M966,465.85h2.81c.86,0,1.1,1.1,2.2,1.1s1.1,2.2,1.1,3.18-1.1,1.09-1.1,2.19,1.1,1.71,1.1,2.93v2.69c0,.73-1.34.37-2.08,1.47s-.36,1.46.25,2.44,1,3,1.83,3.78,1.59,1.35,1.59,2.44,1,1.23,2,1.47a15,15,0,0,0,2.93.49c.73,0,2.32-.73,2.93-.12s1.52,2.92,2.62,3.16c.09-2.58-.78-4.39,2.16-4.28.91,0,1.5-1,2.13-1.58" transform="translate(-615.11 -109.06)"/><path class="cls-1" d="M975.1,425.25a27,27,0,0,1-5.67-1.9c-1.83-.84-2.09-1.38-4-1.38l-4.53-.76" transform="translate(-615.11 -109.06)"/><path class="cls-1" d="M936.77,444.73s2.08.85,1.83,1.95,1,1.83,2.08,1.22,2.44,1.59,2.2,3.18,1,3.17,2,4a5.86,5.86,0,0,0,3.66,1.83,4.18,4.18,0,0,1,3.91,2.93,21.52,21.52,0,0,1,1,4.52c0,1.1.24,1.46,1.83,1.46H966" transform="translate(-615.11 -109.06)"/><path class="cls-1" d="M960.87,421.21l-6.07-.72s-1.59-.49-1.72-.27" transform="translate(-615.11 -109.06)"/><path class="cls-1" d="M936.77,444.73h-3.66c-1,0-1.47,1.1-2.2,1.1s-1.22-1.59-2.2-1.34-1.71,1-2.32-.25-1.59-1.58-1.1-2.81a2.66,2.66,0,0,0-.49-2.93,2,2,0,0,1,.13-2.44c.49-.61.12-1.46-.25-2.32a10.81,10.81,0,0,1-1.1-2.93c-.12-1.1.86-1.46,1.59-2.81s-.12-2.93.25-4.27,1.71-2.81,1.58-4.27a8.31,8.31,0,0,1,.37-3.54c.37-1.23.24-2.08.73-3.06s1-2.42,1-2.42c.88.55,1.87-.76,2.75.23s.44,2.2,1.76,2.2h3c.66,0,1.76-1.43,2.31-2.64.23-.5,2-3,4-5.74,1.08-1.47,1.07-3.72,2.34-5,.79-.78,2.08-2.24,3.33-3.39a31,31,0,0,1,2.9-2.45,21.92,21.92,0,0,1,6.54-3c.3-.09-2.39,2.78-3.75,4.56-1.13,1.49-1.27,1-2.49,2.9-.75,1.17-1.3,4.25-1.78,5.34s-2.27,2.62-2.55,3.56c-.44,1.46.31,3.24.23,4.32a15.79,15.79,0,0,0,.09,4.65l5.26,4.2" transform="translate(-615.11 -109.06)"/><path class="cls-1" d="M926.39,444.24c-.61-1.22-1.59-1.58-1.1-2.81a2.66,2.66,0,0,0-.49-2.93,2,2,0,0,1,.13-2.44c.49-.61.12-1.46-.25-2.32a10.81,10.81,0,0,1-1.1-2.93c-.12-1.1.86-1.46,1.59-2.81s-.12-2.93.25-4.27,1.71-2.81,1.58-4.27a8.31,8.31,0,0,1,.37-3.54" transform="translate(-615.11 -109.06)"/><path class="cls-1" d="M874.06,430.08h0c0,1.95-.6,3-1.2,3h-2.08v3.28h0a9.1,9.1,0,0,1,1.94,4.51c.28,1.68,1.12,1.82,2.1,2.24s1.26,2.24,1.26,3.64-.14,2.38,1,2.81a15.78,15.78,0,0,0,3.37.42c.84.14,2.38,0,2.94.84s2.66,1.82,2.52,3.22-1.12,2.1-.28,3.36,1.83,2.67.42,3.37c-.84.42-1,1-1,2.1a16.7,16.7,0,0,1-.14,2.1c.84,1,1.68,2.53.84,3.79s-.84,2,.14,2.52a2,2,0,0,1,1,1.63h0" transform="translate(-615.11 -109.06)"/><path class="cls-1" d="M952.47,516.05c1.41-.63.83-2.79,1-3.62a19.89,19.89,0,0,1,2.68-6.86c.36-.88,2.09-1.64,3-.45a29.51,29.51,0,0,0,2.24,3.27c1.07,1.15.14,2.6,1,3.5,1.79,1.91,1.94,2.05,2,4.57,0,.83-.62,4.09-.16,4.73.28.4,2.09-.3,2.37.09s-.07,1.88-.08,2.37c-.12,3.47-.2,1.2-2.46,2.29s-1.54,2.43-4.24,2.34c-.54,0-1.65,1-2.55,1.45-2.47,1-2.42,2,1.2.68a101.89,101.89,0,0,0,20-9.53,53.26,53.26,0,0,0,8.16-6.86c2-1.87,4-4.71,6.55-5.66,1.21-.31,1.46-.88.23-.72a8.12,8.12,0,0,0-5.12,2.55c-1.25,1.17-1.82,2.11-3.49,2.53s-1.61-.23-1.71-.49c-1.09-2.66-4.19-5-4.07-8.29.06-1.64.47-1.17,2.06-1.12,1.09,0-.27,1.94.29,2.39s4.21.15,5.1.18c2.84.1,2.92-2.28.08-2.37-1.9-.07-3.69.19-2.66-2.48.52-1.34,4-2.45,2.54-4.66-.39-.59-2.4.64-2.36-.45,0-.79.06-1.57.08-2.36-1.1-.24-2-2.55-2.62-3.16s-2.2.12-2.93.12a15,15,0,0,1-2.93-.49c-1-.24-2-.37-2-1.47s-.74-1.7-1.59-2.44-1.22-2.81-1.83-3.78-1-1.35-.25-2.44,2.08-.74,2.08-1.47v-2.69c0-1.22-1.1-1.83-1.1-2.93s1.1-1.22,1.1-2.19,0-3.18-1.1-3.18-1.34-1.1-2.2-1.1H955.21c-1.59,0-1.83-.36-1.83-1.46a21.52,21.52,0,0,0-1-4.52,4.18,4.18,0,0,0-3.91-2.93,5.86,5.86,0,0,1-3.66-1.83c-1-.86-2.2-2.44-2-4s-1.1-3.79-2.2-3.18-2.32-.12-2.08-1.22-1.83-1.95-1.83-1.95h-3.66c-1,0-1.47,1.1-2.2,1.1s-1.22-1.59-2.2-1.34-1.71,1-2.32-.25" transform="translate(-615.11 -109.06)"/><path class="cls-1" d="M886.89,472.9a5.91,5.91,0,0,0-3.43,1.34c-.9.75-3.28,2.24-4.63,1.64a2.28,2.28,0,0,0-3,.6c-.9.9-1.94,1.79-1.94,2.69s.15,1.79-1.34,1.79-2.69.44-2.69,1.49A35.86,35.86,0,0,1,869,487a3.19,3.19,0,0,1,2.34.94c1.38,1.46,1.48,1.57,1.42,3.56,0,.95,1.73.1,2.34.45,3.38,2,1.6,3.75.15,6.4-.76,1.39-1.52.1-2.76.64-.79.35-1.63,1.53-2.27,2.13-1,1-.07,4.91-3.09,4.8-2.16-.07-1.71-.29-1.93-2.07-.29-2.27-2.72-1.6-1.41.56s3.62,3.88,5.44,5.82c.85.91,1.74.25,2.85.59A22.72,22.72,0,0,1,876,513c1.21.66,1.83,2.3,3,2.84,1,.45,3,.11,4,.14,2.23.08,3.81,2.51,6,2.59,4.51.16,12.12-1.07,15.28,2.29,1.59,1.7,1.49,5.41,4,5.5,1.9.06,3.6,2.35,5,4,.26.32.82,1.46.64-.15-.1-.88.26-1.31,1.39-1.27,2.53.09,0-1.17,1.26-2.33s2.3,1.42,2.39-1.1c.06-1.63.48-1.16,2-1.11l7.11.25c1.12,0-.31-2.39.82-2.35s2,.55,2-.67c.07-1.84-.66-6.4,1.41-6.33.95,0,5.9.52,5.93-.16,0-1.33.09-2.66.14-4,0-1.12-2.37.31-2.33-.82.11-3.13,2.55-1,2.59-3.29-.38-1.3.69-.16,1.07.26s1,2.28,1-.11c-.06-3.41,4.18,1.46,5.24,1.5,4,.14.49,3.32,2.65,5.65.63.68,2.28,2.37,3.84,1.68" transform="translate(-615.11 -109.06)"/><path class="cls-1" d="M814.61,462.93c.29,1.33,1,2.15,2.39.83a22.3,22.3,0,0,1,6.86-4.24c1.35-.62,13.52-.57,14.43.4.47.51-.06,6.94-.5,7.34-1.23,1.13-2.17,1.56-2.23,3.22-.07,1.83.69,1.08,2.32,1.27.58.07,7.1.05,7.08.45-.11,3.37-.31,4.22,1.64,6.44.15.17.67.57,0,1.06a6.72,6.72,0,0,0-2,2.94c-.25.72,0,1.29,1,.77,2.75-1.08,5.33-1.52,7.57-3.11.36-.26,1.08-1.14,1,.73-.09,2,2,3.22,4.27,3.29,2.81.1,4.15.87,6.65,2.24,1.23.67,2.64.41,3.94.48a35.86,35.86,0,0,0,.89-4.59c0-1.05,1.19-1.49,2.69-1.49s1.34-.9,1.34-1.79,1-1.79,1.94-2.69a2.28,2.28,0,0,1,3-.6c1.35.6,3.73-.89,4.63-1.64a5.91,5.91,0,0,1,3.43-1.34h0a2,2,0,0,0-1-1.63c-1-.56-1-1.26-.14-2.52s0-2.8-.84-3.79" transform="translate(-615.11 -109.06)"/><path class="cls-1" d="M747,423.66a10.38,10.38,0,0,1,3.65-.73c.72,0,1-1.58,2.06-1.21a6.39,6.39,0,0,1,3.28,2.43,3.22,3.22,0,0,0,2.68,1.58,4.4,4.4,0,0,1,3,1.21c.73.85,2.43,2.31,3.77,1.34s3-.85,4-1.94,1.22-2.31,2.19-2.68a4.25,4.25,0,0,0,2.06-2.55c.25-.85,1.22-.73,1.95-1.58s1.34-.61,2.06-1.21,2.56-1.95,2.56-2.92V412c0-.85,1.21-1.95,2.31-2.07a2.47,2.47,0,0,0,2.06-1.46c.37-.73,1.82-.61,2.31-.85s-.24-2.06.24-2.79a5,5,0,0,1,1.95-1.95c1.09-.61.36-.73,1.21-1.33s0-2.44,0-2.44h-1.7v-2.3c0-.73-1.46-.86-1.46-1.95v-7.65H780.3V383H745.66" transform="translate(-615.11 -109.06)"/><path class="cls-1" d="M790.38,401.55c-.65.81-.12.72-1.21,1.33a5,5,0,0,0-1.95,1.95c-.48.73.25,2.55-.24,2.79s-1.94.12-2.31.85a2.47,2.47,0,0,1-2.06,1.46c-1.1.12-2.31,1.22-2.31,2.07v3.4c0,1-1.83,2.31-2.56,2.92" transform="translate(-615.11 -109.06)"/><path class="cls-1" d="M803.73,473a10.24,10.24,0,0,0-1.08-.1l-7.46-.26c-3.49-.12-3-2.11-4-5.39-.92-3.1-.53-4.15,1.81-6.35,1.91-1.79,4.76-3,7-4.37s4.44-1.83,6.3-3.46" transform="translate(-615.11 -109.06)"/><path class="cls-1" d="M777.74,418.32c-.72.6-1.33.36-2.06,1.21s-1.7.73-1.95,1.58a4.25,4.25,0,0,1-2.06,2.55c-1,.37-1.22,1.58-2.19,2.68s-2.67,1-4,1.94-3-.49-3.77-1.34a4.4,4.4,0,0,0-3-1.21,3.22,3.22,0,0,1-2.68-1.58,6.39,6.39,0,0,0-3.28-2.43c-1.09-.37-1.34,1.21-2.06,1.21a10.38,10.38,0,0,0-3.65.73,37.17,37.17,0,0,1-4.13,1.95c-1.76.72-4.13,2.55-6,3.64h9.6v48.8c4.85.16,9.87-.09,14.64.76,5.78,1,11.62,2.52,17.5,2.73,2.8.1,5.07-2.5,7.74-3.72,2.13-1,4.14-.61,6.47-.52,1.75.06,5.86-.51,7.33.55l.09.07" transform="translate(-615.11 -109.06)"/><path class="cls-1" d="M759.4,383H745.66v-.85a4.55,4.55,0,0,1,.52-1.25c.35-.57,0-1.42.21-2.13a3.43,3.43,0,0,1,1.63-1.84c.78-.42.92-1.34,1.48-2.05s.22-1.42-.42-2.06-.92-1.77-.92-3.39V338.15h8.63c1,0,1.05-.91,1.84-1.26s.79-.88.79-1.49-.79-.69-.79-1.66.7-1.39,1.57-1.48,1.31-1.05,2.88-1.49,2.36-1.22,2.36-2,1-1.23,2.36-1.23a5.21,5.21,0,0,1,3.76,1.66c.7,1,1.22,1.75,2.18,1.75h3.58s.09,2.27.09,3.14,1.57,2.19,2.27,2.8a3.74,3.74,0,0,1,1.4,2.71v4h2.27" transform="translate(-615.11 -109.06)"/><path class="cls-1" d="M827.72,380.3v-2.71c0-.69-1.74-1.3-2.09-2.62s-.88-2.09-.35-3.14,1-1.84.7-2.8a3.44,3.44,0,0,1,.61-2.44c.35-.79,0-1.75,0-2.45s1.13-1.13,1.13-2.27v-3.49c0-1-1-.53-1.22-1.84s-1.31-1.31-1.31-2.27-.44-1.75-.44-2.62.09-2.88-.78-2.88-2,.35-2.62-.53a2.25,2.25,0,0,1,.08-2.53c.44-.87-1-1.22-1.48-2l-25.07.09c-.7,0-.87-.61-1.49-.61s-.78.43-1.65.43h-8.39" transform="translate(-615.11 -109.06)"/><path class="cls-1" d="M759.4,383h20.9v4.26h6.92v7.65c0,1.09,1.46,1.22,1.46,1.95v2.3h1.7s.85,1.83,0,2.44" transform="translate(-615.11 -109.06)"/><path class="cls-1" d="M800.28,477.92c1.56,1.16,4.79,4.54,6.61,4.6,1.17,0,3.5-.35,4.53.16s1.36,2,2.29,2.46c1.34.71,2-.32,3.17.94,1.37,1.45,1.49,1.57,3.47,1.64,3.09.11,5.15-.8,5.27-4.17,0-1,2.27-2.78,3.78-4,2.15-1.9-.66-.83-1-1.21s1-3.12-1.14-1.27c-1.91,1.6-2.14.68-4.33-1.71-1.44-1.56-1.56-1.83-3.67-1.9-1.05,0,.28-2.35-.49-2.38l-8.09-.28c-2.26-.08-.42.87-1.27,2.32a8,8,0,0,1-1.8,1.89.58.58,0,0,1-1.05,0,3.57,3.57,0,0,0-2.8-2" transform="translate(-615.11 -109.06)"/><path class="cls-1" d="M870.78,436.35v-3.28h2.08c.6,0,1.2-1,1.2-3-1,0-2.09.3-2.84-.74S870,427,868.54,427" transform="translate(-615.11 -109.06)"/><path class="cls-1" d="M806.33,453.05l.2-.17c1.28-1.2,1.45-1.15,3.23-1.08.93,0,2-1.5,2.64-2.11a1.45,1.45,0,0,1,2.51,1.1c-.09,2.62,1.41-.11,2.33,1.27,1.31,2-2.17,5.42-2.62,7a10.09,10.09,0,0,0,0,3.83" transform="translate(-615.11 -109.06)"/><path class="cls-1" d="M827.72,380.3h2.33a4.85,4.85,0,0,0,2.53,2.63c1,.3,1.49,1.49,2.39,2.39s2.08,2.39,2.08,3.73v3.73c0,.9-1.19.9-1.19,1.64s1.34,1.34,1.34,2.09-.29,2.83.75,4,2.24,2.24,2.69,3.58,1,3.43,2.68,3.43,2.69,1.05,4.48,1.05,2.68.14,2.68,1.49a5.77,5.77,0,0,0,.9,3.58c.89,1.64-.3,3.43.15,4.77a4.11,4.11,0,0,1,0,3c-.3,1.19.15,1.64,1.79,1.34s3.58-.75,5.07-.3,2.84,3,2.84,4.48" transform="translate(-615.11 -109.06)"/><path class="cls-1" d="M884.91,465a16.7,16.7,0,0,0,.14-2.1c0-1.12.14-1.68,1-2.1,1.41-.7.42-2.1-.42-3.37s.14-2,.28-3.36-2-2.38-2.52-3.22-2.1-.7-2.94-.84a15.78,15.78,0,0,1-3.37-.42c-1.12-.43-1-1.41-1-2.81s-.28-3.22-1.26-3.64-1.82-.56-2.1-2.24a9.1,9.1,0,0,0-1.94-4.51h0" transform="translate(-615.11 -109.06)"/><path class="cls-1" d="M764.68,166.13v-.84c0-.74.89-.74.89-1.81v-8.86c0-1-1.2-.33-1.2-1.21s1.09-.22,1.09-1.09v-4.6h-9.63v-5.47H753.2c-1.31,0-.66-.22-2-2-1.6-2.14-5.25-2.63-5.25-2.63h-9.2" transform="translate(-615.11 -109.06)"/><path class="cls-1" d="M671.08,236.92v-5.35c0-1.21.69-1.73.86-2.76s1.56-2,1.81-1.21,1.08.7,1.82,1a8.22,8.22,0,0,0,3.54,0" transform="translate(-615.11 -109.06)"/><path class="cls-1" d="M679.11,228.55c.69,1.73.82,2.77,2.12,2.88a7.32,7.32,0,0,0,2.87-.28c.83-.28,1.39,1.86,2.22.93a4.23,4.23,0,0,1,3.62-1.85v-7.42h9.82c1.2,0-.83-1.3-1.3-1.94s-1.3-.84-1.3-2.32.56-1.67,1.3-2.41.37-1.3.37-2.13-.83-.65-1.39-1.48a2.35,2.35,0,0,1-.46-2.23,7,7,0,0,0,.18-2.41,4.44,4.44,0,0,0-1.76-2.5c-.92-.74-.92-.83-.92-1.58h22.79v3.25c0,1.2.93.65,2,1.76a2.61,2.61,0,0,1,.84,3.15c-.37,1.48.46,2,1,2.78a3.42,3.42,0,0,1,.92,2.78c0,1.76-.46,1.58-1.11,2.87s.83.93.65,2.32.83,1,1.3,2.41-.65,1.67-1.58,2.69-.65,1.94-.65,2.87v3.43c0,1.3-.18,2.69-1.3,1.85a2.21,2.21,0,0,0-3.15,0c-1.11.93.56,1.11.1,2s.27,1.11.27,2.69-.09,2.68-1.11,3.52a3.54,3.54,0,0,0-1.29,3.24c0,1.58-.05,3.11.55,3.71" transform="translate(-615.11 -109.06)"/><path class="cls-1" d="M671.08,236.92H631.56c0,.51,0,1.05,0,1.6-.07,1.92,2.13,2.91,3.48,4,1.09.85,1.75,3.2.75,4a1.13,1.13,0,0,0,.07,2A2.79,2.79,0,0,1,637,251c0,1.08,2-.14,2.35.45.3.44.11,2.39-.45,2.38-2.94-.11-2.06,1.72-2.15,4.3-.07,1.95-.28,2.68-1.11,3.61-.69.66-1.1,1.29-.16,1.31,1.59.05,1,1.8,1,3.71-.06,1.63.39,1.19,1.95,1.25,1.1,0-.26,1.94.29,2.39.82.67,4.78.16,5.93.2,1.48.06,1.38,1.62,1.19,3.16-.12,1.3-.81,1.76-1.52,1.72-1.4.15-1.82.83-.57,1.81.89.7,2.13.78,3.84.53.69-.1.24,3.6.21,4.38,0,1.09,1.92-.13,2.33.45S650,284.49,650,285a17.59,17.59,0,0,1,.5,3.54c-.08,1.53-.72,2.92-.76,3.94-.08,2.26.41,2.51,2,4.19.61.65,2.63-.22,2.6.71,0,.74-.55,3.82-.16,4.38,1,1.35,2.43-1.35,2.34,1.26s0,3.54,1.54,5.31c.65.8.56.18.57-.48.17-1.35,1.37-1.38,2.79-1.24" transform="translate(-615.11 -109.06)"/><path class="cls-1" d="M661.42,306.65l1.56.17a.44.44,0,0,1,.34.69c-.43.91-.8,2-1.47,2.31-1.33.66-.1,2.45,1,3.72a.52.52,0,0,1-.55.77c-2.66-.32-2,4.3-.41,4.35,2.74.1,1,5.23,1,5.94-.06,1.9-.79.91-2.41,1.1s-2.34-.8-2.41,1.1c0,.84-.29,3.56.24,3.58,1.73.06,4.4-.68,4.33,1.33-.08,2.46.64,3.58-2.12,3.49-1,0,.18,2.3-1.69,2.41-.3,0-.68.35-.06,1.2a5.26,5.26,0,0,1,1,2.45c.8-.24,1.51-.47,1.89-.61a5.21,5.21,0,0,1,4,.73,4,4,0,0,0,3.89.37c1.34-.73,2.31-1.82,4.62-1.82s22.12-.25,23.82-.25,1.33.85,2.55.85h4.25c1.22,0,1.1-.85,2.19-.85h6.68v1.1h14.59V339" transform="translate(-615.11 -109.06)"/><path class="cls-1" d="M717.27,203.81v3.25c0,1.2.93.65,2,1.76a2.61,2.61,0,0,1,.84,3.15c-.37,1.48.46,2,1,2.78a3.42,3.42,0,0,1,.92,2.78c0,1.76-.46,1.58-1.11,2.87s.83.93.65,2.32.83,1,1.3,2.41-.65,1.67-1.58,2.69-.65,1.94-.65,2.87v3.43c0,1.3-.18,2.69-1.3,1.85a2.21,2.21,0,0,0-3.15,0c-1.11.93.56,1.11.1,2s.27,1.11.27,2.69-.09,2.68-1.11,3.52a3.54,3.54,0,0,0-1.29,3.24c0,1.58-.05,3.11.55,3.71h29.15c1.34,0,2.49-.19,2.49-1.54V242.9c0-1,1.15-1.15,2.3-1.15s20.33.77,21.09,0a9.72,9.72,0,0,0,1.92-2.11c1-1.8,1.73-2.3,1-3.64s.77-1.54,1-2.5a30.86,30.86,0,0,0,.76-3.64c0-.77,0-2.11,0-2.11V204.67" transform="translate(-615.11 -109.06)"/><path class="cls-1" d="M714.77,251.17h29.15c1.34,0,2.49-.19,2.49-1.54V242.9c0-1,1.15-1.15,2.3-1.15s20.33.77,21.09,0" transform="translate(-615.11 -109.06)"/><path class="cls-1" d="M769.8,241.75a9.72,9.72,0,0,0,1.92-2.11c1-1.8,1.73-2.3,1-3.64s.77-1.54,1-2.5a30.86,30.86,0,0,0,.76-3.64c0-.77,0-2.11,0-2.11h28.44" transform="translate(-615.11 -109.06)"/><path class="cls-1" d="M845,246.81c-.45-1-1.27-1.33-1.46-2.27s-1.58-1.71-1.83-2.21.63-1.27.63-1.9v-3.79a3,3,0,0,0-.57-2c-.44-.51.07-1.71.76-2.59h-2.1V223.3h-3.82c-.86,0-.58,1.43-1.44,2.29s-1.14,2.1-2.2,2.39-1.33,1.62-2.1,2.58a4.75,4.75,0,0,1-3.53,1.82,6.82,6.82,0,0,0-3.73,1.05c-.77.57-.86-1.15-1.53-1.34s-.58-1.24-.58-1.82,0-1.62-1.14-1.62-1.53-.86-2.49-1.24-.38-2.49-1.43-2.49a4,4,0,0,1-2.58-1.53l-2.12.53v3.83h-9" transform="translate(-615.11 -109.06)"/><path class="cls-1" d="M728.29,339h8c1,0,1.84-.8,3.4-.8h17.06c1,0,1.05-.91,1.84-1.26s.79-.88.79-1.49-.79-.69-.79-1.66.7-1.39,1.57-1.48,1.31-1.05,2.88-1.49,2.36-1.22,2.36-2,1-1.23,2.36-1.23a5.21,5.21,0,0,1,3.76,1.66c.7,1,1.22,1.75,2.18,1.75h3.58" transform="translate(-615.11 -109.06)"/><path class="cls-1" d="M777.32,331s.09,2.27.09,3.14,1.57,2.19,2.27,2.8a3.74,3.74,0,0,1,1.4,2.71v4h10.66c.87,0,1-.43,1.65-.43s.79.61,1.49.61L820,343.7c-.52-.78.09-1.57,1-1.92s.61-1,.61-1.75V335c0-.88-1.05-1.05-1.05-1.92v-2.89c0-.61.79-1.13,1.84-1.13s1.92-1.14,2.44-2.28,1.4-.61,2.1-1.57,1.22-3.05,2.32-4.17" transform="translate(-615.11 -109.06)"/><path class="cls-1" d="M829.26,321c-.7,1,1,2.31,1.83,2.24,1.82-.14,2.34-2.06,3.36-.84a3.71,3.71,0,0,1,1.12,3.08c-.28,1.13-.44,1.73.25,1.61,1.18-.54,4.06-1.2,4.82-2.19,1.05-1.38,0-2.28,1.67-3.86,1.38-1.28-.1-1.83-1.25-3.08-.69-.75-1.81-2.61-2.83-2.65-4.69-.16-.05-4.65.62-7.07a21.29,21.29,0,0,0,.15-4.38c0-1.18-2.39.61-2.31-1.64.09-2.56-2.38.13-2.29-2.44.06-1.79,1-1.16,2.61-1.1,3.93.14,5.54-.3,9.13-2,.56-.26.33-3.74.36-4.46,0-1.16-2.37.61-2.3-1.63s-2.35-.46-2.3-1.63c0-.49,0-1,.05-1.48a3,3,0,0,0-.5-1c-1.34-1.41-2.9-3.15-1.06-4.87s4.24-3.08,4.12.39c-.06,1.66,0,5.11,2.54,5.2,2.15.07,2,.22,2.07-1.94,0-.49,1-.49,1.7-.4.27,0,.67.08.13-.48-1-1-1.92-2.05-2.88-3.08-1.49-1.59-.35-1.8-1.06-3.6-.53-1.32-2.3-1.63-2.24-3.19l.15-4.36c.08-2.45.14-1.81,2.42-1.9,1.44-.05,2.93.1,4.37.15,3.23.11,2.95-4.89,3-5.82,0-.57-.89-.29-1.24-.07-1.42.89-4.86,2.16-6.18.74-2.56-2.75-2.69-3.63-.36-5.93.65-.7,1.17-.36,1.13-.18-.49,2.69.9.5,2.18,1.88.66.72,2.7,2.67,3.5,2.53,1-.17.95-.37,1.06-.63s-.3-1.64.26-2.15,2.1-1.48,2.2-2c.26-1.56-2.25-3.51-2.19-5.2a4.38,4.38,0,0,1,2.52-4.27c.63-.32,2.35.67,2.38-.28a.41.41,0,0,1,0-.18H845" transform="translate(-615.11 -109.06)"/><path class="cls-1" d="M617.48,199q-.29,8-.56,16c-.1,2.9-1.31,4.9,1.83,5,1.13,0-.48,2.35.66,2.39,2.15.07,1,0,1,2.14,0,1.16,2.4-.61,2.32,1.64-.09,2.53,1.15,0,2.32,1.27s-1.43,2.31,1.1,2.4c.62,0-.43,1.81.49,1.78a2.72,2.72,0,0,1,2.24,2c0,.42-.21.84,0,1s.79,0,1.37,0c1,.2,1.31,1.17,1.39,2.36h39.52v-5.35c0-1.21.69-1.73.86-2.76s1.56-2,1.81-1.21,1.08.7,1.82,1a8.22,8.22,0,0,0,3.54,0" transform="translate(-615.11 -109.06)"/><path class="cls-1" d="M636.29,111.34c-6,0-12-.23-18.1-.44,0,.41.11.83.16,1.24.68,5.19,1.8,10.42,1.62,15.66l-.66,18.69q-.55,15.85-1.1,31.71-.37,10.38-.73,20.75" transform="translate(-615.11 -109.06)"/><path class="cls-1" d="M664.4,110.58c-4.57,0-9.15.19-13.8.45-4.8.26-9.56.34-14.31.31" transform="translate(-615.11 -109.06)"/><path class="cls-1" d="M689.71,111.05l-4.18-.16c-7.14-.25-14.12-.38-21.13-.31" transform="translate(-615.11 -109.06)"/><path class="cls-1" d="M736.78,137.65v-3.06c0-1.1-.87-1.54-.87-2.41s1.75-.66,1.75-1.75V112.61c-16-.12-32-1-47.95-1.56" transform="translate(-615.11 -109.06)"/><path class="cls-1" d="M679.11,228.55c.69,1.73.82,2.77,2.12,2.88a7.32,7.32,0,0,0,2.87-.28c.83-.28,1.39,1.86,2.22.93a4.23,4.23,0,0,1,3.62-1.85v-7.42h9.82c1.2,0-.83-1.3-1.3-1.94s-1.3-.84-1.3-2.32.56-1.67,1.3-2.41.37-1.3.37-2.13-.83-.65-1.39-1.48a2.35,2.35,0,0,1-.46-2.23,7,7,0,0,0,.18-2.41,4.44,4.44,0,0,0-1.76-2.5c-.92-.74-.92-.83-.92-1.58" transform="translate(-615.11 -109.06)"/><path class="cls-1" d="M694.48,203.81h22.79" transform="translate(-615.11 -109.06)"/></svg>