<svg id="base_map" data-name="base map" xmlns="http://www.w3.org/2000/svg" viewBox="0 0 211.08 180.94"><defs><style>.cls-1{fill:#015067;stroke:#fff;stroke-width:0.84px;}.cls-2{fill:none;}</style></defs><path class="cls-1" d="M320.05,201.24c.69,1.73.82,2.78,2.12,2.88a7.13,7.13,0,0,0,2.87-.28c.83-.27,1.39,1.86,2.22.93a4.26,4.26,0,0,1,3.62-1.85V195.5h9.82c1.2,0-.83-1.29-1.3-1.94s-1.3-.84-1.3-2.32.56-1.67,1.3-2.41.37-1.3.37-2.13-.83-.65-1.39-1.48a2.35,2.35,0,0,1-.46-2.23,7,7,0,0,0,.18-2.41,4.47,4.47,0,0,0-1.76-2.5c-.92-.74-.92-.83-.92-1.57h22.79v3.24c0,1.21.93.65,2,1.76a2.61,2.61,0,0,1,.84,3.15c-.37,1.49.46,2,1,2.78a3.42,3.42,0,0,1,.92,2.78c0,1.76-.46,1.58-1.11,2.88s.83.92.65,2.31.83,1,1.3,2.41-.65,1.67-1.58,2.69-.65,2-.65,2.87v3.43c0,1.3-.18,2.69-1.29,1.85a2.23,2.23,0,0,0-3.16,0c-1.11.93.56,1.12.1,2s.28,1.12.28,2.69-.1,2.69-1.12,3.52a3.55,3.55,0,0,0-1.29,3.24c0,1.58-.05,3.11.55,3.71s.37,1-.18,2-.19,1.85.65,1.85h2.22c.74,0,.65,1.3,1.11,1.3h1.39v3c0,.92.28,1.48.93,1.48h2.22c.65,0,.84.28,1.39,1.48s1.11,1.39,2,1.39h3.71c.92,0,1.57,1.3,1.94,2.5s1.21,1.77,2.32,3.06,2.27,1.32,3.15,3.06a13.93,13.93,0,0,1-2.87,2.22c-1.3.65-2.78,1.39-3.06,2.41s-2,2.23-3,2.69-2.5,1.11-3,2.23a7.11,7.11,0,0,1-3.34,3.24,6.46,6.46,0,0,0-2.87,2.32c-.83,1-2.22.27-3.06,1.11s-.68,1.56-.88,2.44c-1.1-.37-1.82,0-3-1.34s-4.25-1.55-6.93-1.55h-16V242.54h-8.83V231.61c0-.84-1-.7-1-1.68s1-.7,1-1.54V223.2H312V204.26c0-1.21.69-1.72.86-2.76s1.56-2,1.81-1.21,1.08.7,1.82,1a8.22,8.22,0,0,0,3.54,0" transform="translate(-168.03 -83.25)"/><rect class="cls-2" width="18.83" height="32.37"/></svg>