<svg id="base_map" data-name="base map" xmlns="http://www.w3.org/2000/svg" viewBox="0 0 422.91 304.82"><defs><style>.cls-1{fill:#015067;stroke:#fff;stroke-width:0.84px;}.cls-2{fill:none;}</style></defs><path class="cls-1" d="M575.37,354.45v-17H544.14c-.22,1-1,1.32-1.87,1.75s0,1.76-1.09,2.42-2.2.44-2.75,1.21-2.09,1.76-1.21,2.53,1.54,3.41.55,4.51.33,1.76.33,3v3.84c0,1-1.76,1.65-.77,2.64a4.06,4.06,0,0,1,1.21,3.85c-.44,1.21.88,1,2,2.53s3.73,1.87,4.17,2.75.66.77,1.21,1,2.2.11,2.86,1.1,2.86,1.32,3.19,3.4.66,2.86,1.65,3.08a2.52,2.52,0,0,1,2.2,2.09,3.67,3.67,0,0,0,2.86,2.42c1,.22.32,2.09,1.31,2.42s1.76.77,1.54,1.87a1.73,1.73,0,0,0,1.87,1.86c.88-.11,1.54-.76,1.87-2.08a5.59,5.59,0,0,1,2-3.08c1.54-1.22,1.69-.08,2.86.66.88.55,1.87-.77,2.75.22s.44,2.2,1.76,2.2h3c.66,0,1.76-1.43,2.31-2.64s.92-.7,2-1.69.76-1.51,2.19-1.62,2.14-2.44,2.69-3.43c0,0,4.68-5.52,3.58-6.95s-3.32-3.45-3.43-5-4,3.94-5,3.72-1.21-.55-1-1.65-.55-1.1-.88-2.53-1.21-1.54-2.53-2.53-.88-1.32-1-3.08S575.37,356.42,575.37,354.45Z" transform="translate(-168.03 -83.25)"/><rect class="cls-2" width="18.83" height="32.37"/></svg>