<svg id="base_map" data-name="base map" xmlns="http://www.w3.org/2000/svg" viewBox="0 0 468.45 433.66"><defs><style>.cls-1,.cls-10,.cls-100,.cls-101,.cls-102,.cls-103,.cls-104,.cls-105,.cls-106,.cls-107,.cls-108,.cls-109,.cls-11,.cls-110,.cls-111,.cls-112,.cls-113,.cls-114,.cls-12,.cls-13,.cls-14,.cls-15,.cls-16,.cls-17,.cls-18,.cls-19,.cls-2,.cls-20,.cls-21,.cls-22,.cls-23,.cls-24,.cls-25,.cls-26,.cls-27,.cls-28,.cls-29,.cls-3,.cls-30,.cls-31,.cls-32,.cls-33,.cls-34,.cls-35,.cls-36,.cls-37,.cls-38,.cls-39,.cls-4,.cls-40,.cls-41,.cls-42,.cls-43,.cls-44,.cls-45,.cls-46,.cls-47,.cls-48,.cls-49,.cls-5,.cls-50,.cls-51,.cls-52,.cls-53,.cls-54,.cls-55,.cls-56,.cls-57,.cls-58,.cls-59,.cls-6,.cls-60,.cls-61,.cls-62,.cls-63,.cls-64,.cls-65,.cls-66,.cls-67,.cls-68,.cls-69,.cls-7,.cls-70,.cls-71,.cls-72,.cls-73,.cls-74,.cls-75,.cls-76,.cls-77,.cls-78,.cls-79,.cls-8,.cls-80,.cls-81,.cls-82,.cls-83,.cls-84,.cls-85,.cls-86,.cls-87,.cls-88,.cls-89,.cls-9,.cls-90,.cls-91,.cls-92,.cls-93,.cls-94,.cls-95,.cls-96,.cls-97,.cls-98,.cls-99{fill:none;stroke:#f7941d;stroke-width:2px;}.cls-2{stroke-dasharray:0.99 0.99;}.cls-3{stroke-dasharray:1.01 1.01;}.cls-4{stroke-dasharray:0.99 0.99;}.cls-5{stroke-dasharray:0.96 0.96;}.cls-6{stroke-dasharray:1 1;}.cls-7{stroke-dasharray:1.02 1.02;}.cls-8{stroke-dasharray:0.96 0.96;}.cls-9{stroke-dasharray:1.02 1.02;}.cls-10{stroke-dasharray:1.04 1.04;}.cls-11{stroke-dasharray:1 1;}.cls-12{stroke-dasharray:0.99 0.99;}.cls-13{stroke-dasharray:1.01 1.01;}.cls-14{stroke-dasharray:1.01 1.01;}.cls-15{stroke-dasharray:0.99 0.99;}.cls-16{stroke-dasharray:1 1;}.cls-17{stroke-dasharray:1 1;}.cls-18{stroke-dasharray:0.93 0.93;}.cls-19{stroke-dasharray:1.03 1.03;}.cls-20{stroke-dasharray:0.93 0.93;}.cls-21{stroke-dasharray:1 1;}.cls-22{stroke-dasharray:1.02 1.02;}.cls-23{stroke-dasharray:1.02 1.02;}.cls-24{stroke-dasharray:1.1 1.1;}.cls-25{stroke-dasharray:1.03 1.03;}.cls-26{stroke-dasharray:0.96 0.96;}.cls-27{stroke-dasharray:0.98 0.98;}.cls-28{stroke-dasharray:0.95 0.95;}.cls-29{stroke-dasharray:0.99 0.99;}.cls-30{stroke-dasharray:1.27 1.27;}.cls-31{stroke-dasharray:1.02 1.02;}.cls-32{stroke-dasharray:0.99 0.99;}.cls-33{stroke-dasharray:0.99 0.99;}.cls-34{stroke-dasharray:0.98 0.98;}.cls-35{stroke-dasharray:0.97 0.97;}.cls-36{stroke-dasharray:1.01 1.01;}.cls-37{stroke-dasharray:1.01 1.01;}.cls-38{stroke-dasharray:1 1;}.cls-39{stroke-dasharray:0.98 0.98;}.cls-40{stroke-dasharray:1 1;}.cls-41{stroke-dasharray:1.01 1.01;}.cls-42{stroke-dasharray:0.96 0.96;}.cls-43{stroke-dasharray:1.01 1.01;}.cls-44{stroke-dasharray:0.99 0.99;}.cls-45{stroke-dasharray:0.98 0.98;}.cls-46{stroke-dasharray:0.95 0.95;}.cls-47{stroke-dasharray:0.98 0.98;}.cls-48{stroke-dasharray:1.01 1.01;}.cls-49{stroke-dasharray:1.01 1.01;}.cls-50{stroke-dasharray:0.99 0.99;}.cls-51{stroke-dasharray:0.99 0.99;}.cls-52{stroke-dasharray:1 1;}.cls-53{stroke-dasharray:1.01 1.01;}.cls-54{stroke-dasharray:1 1;}.cls-55{stroke-dasharray:0.96 0.96;}.cls-56{stroke-dasharray:1.07 1.07;}.cls-57{stroke-dasharray:1 1;}.cls-58{stroke-dasharray:1.02 1.02;}.cls-59{stroke-dasharray:1.08 1.08;}.cls-60{stroke-dasharray:1 1;}.cls-61{stroke-dasharray:0.98 0.98;}.cls-62{stroke-dasharray:1.01 1.01;}.cls-63{stroke-dasharray:1.01 1.01;}.cls-64{stroke-dasharray:0.98 0.98;}.cls-65{stroke-dasharray:0.91 0.91;}.cls-66{stroke-dasharray:0.76 0.76;}.cls-67{stroke-dasharray:1.01 1.01;}.cls-68{stroke-dasharray:0.9 0.9;}.cls-69{stroke-dasharray:1 1;}.cls-70{stroke-dasharray:1.02 1.02;}.cls-71{stroke-dasharray:1.01 1.01;}.cls-72{stroke-dasharray:1 1;}.cls-73{stroke-dasharray:0.99 0.99;}.cls-74{stroke-dasharray:1 1;}.cls-75{stroke-dasharray:1.02 1.02;}.cls-76{stroke-dasharray:0.96 0.96;}.cls-77{stroke-dasharray:0.99 0.99;}.cls-78{stroke-dasharray:1.01 1.01;}.cls-79{stroke-dasharray:0.98 0.98;}.cls-80{stroke-dasharray:1 1;}.cls-81{stroke-dasharray:1.01 1.01;}.cls-82{stroke-dasharray:1.02 1.02;}.cls-83{stroke-dasharray:0.99 0.99;}.cls-84{stroke-dasharray:1 1;}.cls-85{stroke-dasharray:1.17 1.17;}.cls-86{stroke-dasharray:1.01 1.01;}.cls-87{stroke-dasharray:0.93 0.93;}.cls-88{stroke-dasharray:1.03 1.03;}.cls-89{stroke-dasharray:0.9 0.9;}.cls-90{stroke-dasharray:1.05 1.05;}.cls-91{stroke-dasharray:0.98 0.98;}.cls-92{stroke-dasharray:0.92 0.92;}.cls-93{stroke-dasharray:1.02 1.02;}.cls-94{stroke-dasharray:1.04 1.04;}.cls-95{stroke-dasharray:0.99 0.99;}.cls-96{stroke-dasharray:1.01 1.01;}.cls-97{stroke-dasharray:1 1;}.cls-98{stroke-dasharray:1 1;}.cls-99{stroke-dasharray:1.02 1.02;}.cls-100{stroke-dasharray:1.03 1.03;}.cls-101{stroke-dasharray:0.89 0.89;}.cls-102{stroke-dasharray:0.99 0.99;}.cls-103{stroke-dasharray:0.98 0.98;}.cls-104{stroke-dasharray:1.01 1.01;}.cls-105{stroke-dasharray:1 1;}.cls-106{stroke-dasharray:0.99 0.99;}.cls-107{stroke-dasharray:1.01 1.01;}.cls-108{stroke-dasharray:1 1;}.cls-109{stroke-dasharray:1 1;}.cls-110{stroke-dasharray:0.97 0.97;}.cls-111{stroke-dasharray:1.02 1.02;}.cls-112{stroke-dasharray:1 1;}.cls-113{stroke-dasharray:0.99 0.99;}.cls-114{stroke-dasharray:1.04 1.04;}</style></defs><line class="cls-1" x1="98.1" y1="231.21" x2="98.1" y2="230.71"/><path class="cls-1" d="M712.29,340.4v-.5h-.5" transform="translate(-614.19 -109.78)"/><path class="cls-2" d="M710.81,339.9h-5.2c-1.1,0-1,.85-2.19.85h-4.25c-1.22,0-.85-.85-2.56-.85s-21.5.24-23.81.24-3.29,1.1-4.62,1.82a4,4,0,0,1-3.89-.36,5.17,5.17,0,0,0-4-.73l-.93.31" transform="translate(-614.19 -109.78)"/><path class="cls-1" d="M658.87,341.33l-.48.15.06.49" transform="translate(-614.19 -109.78)"/><path class="cls-3" d="M658.48,343c0,.88-.09,1.87-.13,3.06-.09,2.58-2.36-.28-2.45,2.28,0,.8.24,3.57-.49,3.54-4.18-.14-1.4,4-1.54,7-.06,1.43-2,3.07-6.22,6.38-1.38,1.08-.44,3.39-.47,4.1a3.93,3.93,0,0,1-2.12,2.54c-1.92.32-1.56,1.09-2.34,2.23-1.35.52-.45,1.26-.05,1.56.61.46,0,1.83,1.54,1.88,1.81.07,1.63,2,0,2.35-2,.13.34,1.46.82,3a10.41,10.41,0,0,1,0,3c-.06,1.62-.46,1.16-2,1.11-1,0,.08,1.87-.44,2.36s-2.35-.77-2.38.29l0,.41" transform="translate(-614.19 -109.78)"/><path class="cls-1" d="M640.21,390.56v.5" transform="translate(-614.19 -109.78)"/><path class="cls-1" d="M640.2,391.06c0,.16,0,.33,0,.5" transform="translate(-614.19 -109.78)"/><path class="cls-4" d="M640.14,392.55v.27l-.12,3.56A4.6,4.6,0,0,0,640,398c.2,1.13,1,1.83,2,2.86a1.19,1.19,0,0,0,.91.34l1.37.05c.72,0,.27,2.77.24,3.56-.06,1.69.41,4.08-.3,5.26-.16.25-.49.62-.42.66a.94.94,0,0,1,.5.52,3.25,3.25,0,0,1-.07,1.84c0,.47,0,.93,0,1.4" transform="translate(-614.19 -109.78)"/><path class="cls-1" d="M644.08,415c0,.17,0,.33,0,.5l.34.36" transform="translate(-614.19 -109.78)"/><path class="cls-5" d="M645.06,416.55l.65.69c.21.23-.17.53-.47.53-2.12.05-1.2,2.66-1.43,4.8-.14,1.34.18,1.81-.73,2-.57.1-.57.41.15.57s.58,1.08.29,1.68" transform="translate(-614.19 -109.78)"/><path class="cls-1" d="M643.29,427.22c-.09.14-.18.28-.28.42" transform="translate(-614.19 -109.78)"/><path class="cls-1" d="M643,427.64c-.09.14-.19.27-.29.4" transform="translate(-614.19 -109.78)"/><path class="cls-6" d="M642.07,428.81c-1.07,1.17-2.38,2.22-3.48,3.24-2.84,2.65-4.7,3.66-4.84,7.63-.14,4.16-5.21,10.81-9.49,10.66-.73,0-.47,2.74-.5,3.54,0,1.53.59,1.86,1.65,3,.84.91-.06,2.36.51,3,.79.87,2.05-.63,2.72.83,1.19,2.59,2.26,6,5.29,3.15l3.71-3.44c.53-.5,1.91.08,2.63-.07l9.3-2c1.88-.4,3.92.34,5.85-.07,5.47-1.19,10.22-2.57,15.72-1,2.71.78,6,2.91,8.19.86,1.83-1.73,3.86-1.06,6.32-1,5.12.18,10-.23,14.76,1.86,4.94,2.18,9.81,5,14.85,6.89q8.43,3.16,16.87,6.3a25.38,25.38,0,0,1,6.23,3.67c2.31,1.66,3.29,2.13,5.73,2.28" transform="translate(-614.19 -109.78)"/><path class="cls-1" d="M744.6,478.25l.39,0h.11v-.5" transform="translate(-614.19 -109.78)"/><line class="cls-7" x1="130.91" y1="366.97" x2="130.91" y2="320.7"/><line class="cls-1" x1="130.91" y1="320.19" x2="130.91" y2="319.69"/><path class="cls-1" d="M735.5,429.46l.42-.26" transform="translate(-614.19 -109.78)"/><path class="cls-8" d="M736.73,428.68a34,34,0,0,1,4.72-2.86c1.48-.6,2.58-1.13,3.28-1.48" transform="translate(-614.19 -109.78)"/><path class="cls-1" d="M745.15,424.12l.44-.24-.22-.46" transform="translate(-614.19 -109.78)"/><path class="cls-9" d="M744.91,422.52a3.45,3.45,0,0,1-.42-1.32c0-.73-.36-1.46.37-2.43s1.33-1.58,1.33-2.79.85-1.7,1.58-3-1.33-1.58-2.31-2.07-1-1.09-1-2.06v-7.29c0-.85.12-1.22-.36-1.83s.12-1.21.48-1.94,0-1.58-.24-2.43-.36-1.58.61-2.07a3.1,3.1,0,0,0,1.7-2.31v-3.16c0-.73-.73-1.33-1.7-2.55a2.74,2.74,0,0,1-.75-1.91" transform="translate(-614.19 -109.78)"/><line class="cls-1" x1="130.06" y1="273.04" x2="130.06" y2="272.54"/><line class="cls-1" x1="98.1" y1="231.21" x2="98.6" y2="231.21"/><line class="cls-10" x1="99.64" y1="231.21" x2="111.66" y2="231.21"/><polyline class="cls-1" points="112.18 231.21 112.68 231.21 112.68 230.71"/><path class="cls-1" d="M726.87,339.67v-.5h.5" transform="translate(-614.19 -109.78)"/><path class="cls-11" d="M728.37,339.17h6.55c1,0,1.84-.81,3.4-.81h7.43" transform="translate(-614.19 -109.78)"/><path class="cls-1" d="M746.25,338.36h.5v.5" transform="translate(-614.19 -109.78)"/><path class="cls-12" d="M746.75,339.85v29.74c0,1.63.28,2.76.92,3.4s1,1.35.42,2.05-.71,1.63-1.49,2.06a3.38,3.38,0,0,0-1.62,1.84c-.22.71.14,1.56-.22,2.12l-.17.31" transform="translate(-614.19 -109.78)"/><path class="cls-1" d="M744.4,381.84a4.62,4.62,0,0,0-.15.48" transform="translate(-614.19 -109.78)"/><path class="cls-1" d="M883,158.34a.51.51,0,0,1,.47-.13" transform="translate(-614.19 -109.78)"/><path class="cls-13" d="M884.42,158.43c.49.11.9.13.92-.37s-.29-2,.45-2c2.76.1,2.05-1,2.14-3.46,0-1.37-.69-2.09-1.59-2.95-.54-.53-.82-.74-.76.82.12,3-1.09,5.55-5.26,5.4-1.73-.06-4.41.68-4.34-1.33,0-1.57.11-3.15.16-4.72.09-2.57,2.38.31,2.5-3.09,0-.8,4.34-2.69,5.14-2.66,1.58.06,2,.52,2.05-1.12,0-.88.28-1.09-.48-1.38l-6-2.23c-2.21-.83-2.17.65-2.07-2.27.06-1.57.78-3.15.84-4.72.09-2.64.31-2.95,2.28-4.78,1-.9,2.55-.07,3.86-1.3,1.54-1.45,3.37-7.19,1.79-8.89a31.28,31.28,0,0,1-2-4.18c-.51-1.08-1.83-.88-3.57.74-.3.88.36,1.19,1.07,1.75s-2.63,1-1.23,2.94c1.58,2.22,1.24,1.8-.71,3.63-.69.64-2.83.15-3.81.12-1.75-.06-1.11-.8-1.09-2.42,0-2.13.12-2.39,1.66-3.84.61-.58,1.67-2.25.94-3.15s-8.36-.22-9.5-.25h-.06" transform="translate(-614.19 -109.78)"/><path class="cls-1" d="M867.27,112.7l-.5,0s0,.06,0,.09" transform="translate(-614.19 -109.78)"/><path class="cls-1" d="M879.69,196.22l.5,0" transform="translate(-614.19 -109.78)"/><path class="cls-14" d="M881.15,196.06c.35-.25.54-.78.57-1.85,0-.56,1.47-.63,1.93-.35s.78,1.24,1.08.87c1-1.24,4.16-1.42,4.22-.24s-.65,4-.29,4.35c1.08,1.15,2.37-.11,2.41-1.11l.27-7.89c.06-1.63-.54-2.77,1.29-2.71,1.09,0,1.38.46,1.31,1.27,0,.32.23.75.48.55,1.7-1.43,4.19-3.2,4.25-5.16.1-2.82.25-3.57,2-5.29.31-.34.69-.9,0-.94-1.18-.07-1.73.18-1.78,1.49-.05,1.54-.72,1.81-1.87,2.88s-4.54.45-6.24.4c-2.51-.09-1.39-3-1.31-5.18s-.09-2,2.06-1.93c.75,0,.43-1.69.45-2.33.15-4-2.33-2.4-4.46-.4-1.05,1-4.94.12-5.79-.79-1.88-2-3.81-3.22-3.71-6a4.23,4.23,0,0,1,2.53-3.52c.68-.39,2.53,1.18,3.78,2.53,1.79,1.94-.54,3.18,2.73,3.3,1.9.06,3.62.44,2.8-2.27s-3-1.69-4.65-2.54c-.95-.49-2.54-2.41-2.5-3.89" transform="translate(-614.19 -109.78)"/><path class="cls-1" d="M882.75,158.78a1.65,1.65,0,0,1,.22-.44" transform="translate(-614.19 -109.78)"/><path class="cls-1" d="M795.57,112.46h-.5" transform="translate(-614.19 -109.78)"/><path class="cls-15" d="M794.08,112.47l-50.89.37h-6" transform="translate(-614.19 -109.78)"/><path class="cls-1" d="M736.74,112.83h-.5v.5" transform="translate(-614.19 -109.78)"/><path class="cls-16" d="M736.24,114.33v16.31c0,1.1-1.75.88-1.75,1.75s.88,1.32.88,2.41v2.07" transform="translate(-614.19 -109.78)"/><path class="cls-1" d="M735.37,137.37v.5" transform="translate(-614.19 -109.78)"/><path class="cls-1" d="M851.79,112.23l-.5,0" transform="translate(-614.19 -109.78)"/><path class="cls-17" d="M850.29,112.18l-1.63-.05c-11.7-.41-23.5.1-35.21.2l-16.88.12" transform="translate(-614.19 -109.78)"/><path class="cls-1" d="M796.07,112.46h-.5" transform="translate(-614.19 -109.78)"/><path class="cls-1" d="M866.76,112.77s0-.06,0-.09l-.5,0" transform="translate(-614.19 -109.78)"/><path class="cls-18" d="M865.34,112.63l-12.57-.37" transform="translate(-614.19 -109.78)"/><path class="cls-1" d="M852.29,112.24h-.5" transform="translate(-614.19 -109.78)"/><path class="cls-1" d="M841.15,232.25c-.1.13-.2.26-.29.4" transform="translate(-614.19 -109.78)"/><path class="cls-19" d="M840.38,233.57a1.3,1.3,0,0,0,0,1.27,3.06,3.06,0,0,1,.57,2v3.79c0,.63-.89,1.39-.63,1.89s1.64,1.27,1.83,2.21a3.09,3.09,0,0,0,.9,1.42" transform="translate(-614.19 -109.78)"/><path class="cls-1" d="M843.37,246.58a2.73,2.73,0,0,1,.24.45h.5" transform="translate(-614.19 -109.78)"/><line class="cls-20" x1="230.85" y1="137.25" x2="243.43" y2="137.25"/><path class="cls-1" d="M858.09,247h.5a4.83,4.83,0,0,1,.23-.44" transform="translate(-614.19 -109.78)"/><path class="cls-21" d="M859.14,245.65v0c0-.56-.53-1.07-.49-1.61.17-2.3.19-4.61.25-6.92a1.08,1.08,0,0,1,.74-1,17.44,17.44,0,0,0,3.63-2.24c.27-.2.46-.08.44.14-.13,1.23-.48,3.7-.12,4.21,1.06,1.5,2.38-.38,2.29,2.46,0,1.2,4.2-1.07.4-4.48-1.87-1.67,1.06-1.58,1.83-2.56s2.18-3.95,2.65-4.38c1.77-1.65,2.56,1.34,2.68-2.16a9,9,0,0,1,5-7.32c1.68-.75,3.77.51,4.81-2.19s-.49-2.26-2.27-2.47c-.86-.1-4.76.29-4.73-.54s-.17-4.36.53-4.33c3.39.12.55,2.38,3.1,2.47,1.65.05,3.51.88,3.58-1.06s2.47-2.28,2.53-3.83c0-.45.3-1.57.06-1.78l-.58-.47a9.64,9.64,0,0,0-1.8.15c-1.63.06-3.31-.11-4.94-.17-1.8-.06-4.57.77-4.5-1.33.11-3-.57-8.32,3.85-8.17l.6,0" transform="translate(-614.19 -109.78)"/><path class="cls-1" d="M879.19,196.17l.5.05" transform="translate(-614.19 -109.78)"/><path class="cls-1" d="M730.26,171v.5" transform="translate(-614.19 -109.78)"/><path class="cls-22" d="M730.26,172.5v4.11c0,.84.73,1.47.73,2.31v14.4c0,1.16-.94,2.11-.94,3.05s-.63,1.37-1.26,1.79-.11.84.1,1.47a2.67,2.67,0,0,1-.94,2.31,4.41,4.41,0,0,0-.84,1.18" transform="translate(-614.19 -109.78)"/><path class="cls-1" d="M726.89,203.58c-.13.26-.21.45-.21.45h.5" transform="translate(-614.19 -109.78)"/><path class="cls-23" d="M728.2,204h25.19c4.31,0,4.83.86,6.93.86h3.47c.74,0,.85-1,1.79-1s1.79,1,2.84,1h3.51" transform="translate(-614.19 -109.78)"/><path class="cls-1" d="M772.44,204.89h.5" transform="translate(-614.19 -109.78)"/><line class="cls-1" x1="226.95" y1="122.47" x2="226.45" y2="122.47"/><polyline class="cls-1" points="225.35 122.47 224.85 122.47 224.85 121.97"/><line class="cls-24" x1="224.85" y1="120.86" x2="224.85" y2="114.79"/><path class="cls-1" d="M839.05,224v-.5h-.5" transform="translate(-614.19 -109.78)"/><path class="cls-25" d="M837.52,223.51h-2.3c-.86,0-.57,1.44-1.43,2.3s-1.15,2.1-2.2,2.39-1.34,1.62-2.1,2.58a4.81,4.81,0,0,1-3.54,1.81,6.87,6.87,0,0,0-3.73,1.06c-.76.57-.86-1.15-1.53-1.34s-.57-1.25-.57-1.82,0-1.62-1.15-1.62-1.53-.86-2.48-1.25-.38-2.48-1.44-2.48a2.94,2.94,0,0,1-1.84-.83" transform="translate(-614.19 -109.78)"/><path class="cls-1" d="M812.83,224l-.36-.35" transform="translate(-614.19 -109.78)"/><line class="cls-1" x1="158.75" y1="95.11" x2="158.75" y2="95.61"/><line class="cls-26" x1="158.75" y1="96.57" x2="158.75" y2="117.21"/><polyline class="cls-1" points="158.75 117.69 158.75 118.19 159.25 118.19"/><polyline class="cls-27" points="160.23 118.19 187.18 118.19 195.17 118.19"/><polyline class="cls-1" points="195.67 118.19 196.17 118.19 196.17 117.69"/><line class="cls-28" x1="196.17" y1="116.75" x2="196.17" y2="115.33"/><polyline class="cls-1" points="196.17 114.86 196.17 114.36 196.65 114.24"/><line class="cls-1" x1="197.79" y1="113.95" x2="198.28" y2="113.83"/><path class="cls-1" d="M877.05,326.36h-.5" transform="translate(-614.19 -109.78)"/><path class="cls-29" d="M875.56,326.39c-13.72.34-27.46.6-41.15.93-.7.11-.53-.49-.25-1.61a3.71,3.71,0,0,0-1.12-3.08c-1-1.22-1.54.7-3.37.84a2.4,2.4,0,0,1-1.89-1.3" transform="translate(-614.19 -109.78)"/><path class="cls-1" d="M827.69,321.69a.76.76,0,0,1,.16-.46c-.11.11-.22.24-.33.37" transform="translate(-614.19 -109.78)"/><path class="cls-30" d="M826.86,322.68c-.29.58-.54,1.2-.79,1.73" transform="translate(-614.19 -109.78)"/><path class="cls-1" d="M825.79,325c-.09.15-.18.3-.27.42" transform="translate(-614.19 -109.78)"/><path class="cls-1" d="M907.61,357.85a2,2,0,0,1-.14-.48" transform="translate(-614.19 -109.78)"/><path class="cls-31" d="M907.47,356.36a2.21,2.21,0,0,1,.14-.41c.42-.94-1-.73-.84-1.68s1.47-1.47,1.05-2.63a4.9,4.9,0,0,1,0-3.26,4.78,4.78,0,0,0-.42-3.25c-.53-1.37.63-1.69-.21-2.63s-.63-1.47-.21-2.63,0-1.47-.53-2.63-1-2.73-.42-3.78,2-2.42,1.89-4.1a9.21,9.21,0,0,1,.45-3" transform="translate(-614.19 -109.78)"/><path class="cls-1" d="M908.53,325.86c.05-.16.11-.32.16-.47l-.5,0" transform="translate(-614.19 -109.78)"/><path class="cls-32" d="M907.2,325.44l-5.68.19c-7.81.29-15.65.5-23.48.7" transform="translate(-614.19 -109.78)"/><path class="cls-1" d="M877.55,326.34l-.5,0" transform="translate(-614.19 -109.78)"/><path class="cls-1" d="M927.73,410.66a1,1,0,0,0,.48.14" transform="translate(-614.19 -109.78)"/><path class="cls-33" d="M929.18,410.59a1.11,1.11,0,0,1,1.3.29c.88,1,.44,2.2,1.76,2.2h3c.66,0,1.76-1.43,2.31-2.64a13.24,13.24,0,0,1,1.8-2.68,31.54,31.54,0,0,1,2.08-2.85c.84-1,1.14-3.1,2.07-4.67l3.06-3.18" transform="translate(-614.19 -109.78)"/><path class="cls-1" d="M946.87,396.7l.35-.36-.3-.4" transform="translate(-614.19 -109.78)"/><path class="cls-34" d="M946.34,395.14a13.48,13.48,0,0,1-1.78-3.37c-.48-1.47-4,3.94-4.95,3.72s-1.21-.55-1-1.65-.55-1.1-.88-2.53-1.21-1.53-2.53-2.52-.88-1.32-1-3.08S933,384,933,382V365.92" transform="translate(-614.19 -109.78)"/><polyline class="cls-1" points="318.82 255.65 318.82 255.15 318.32 255.15"/><line class="cls-35" x1="317.34" y1="255.15" x2="288.58" y2="255.15"/><line class="cls-1" x1="288.1" y1="255.15" x2="287.6" y2="255.15"/><path class="cls-1" d="M933,324.94h-.5" transform="translate(-614.19 -109.78)"/><path class="cls-36" d="M931.5,324.94c-7.17,0-14.51.19-21.8.42" transform="translate(-614.19 -109.78)"/><path class="cls-1" d="M909.19,325.37l-.5,0c-.05.15-.11.31-.16.47" transform="translate(-614.19 -109.78)"/><path class="cls-37" d="M908.24,326.83a8.37,8.37,0,0,0-.32,2.53c.11,1.68-1.36,3.05-1.89,4.1s-.1,2.62.42,3.78.95,1.47.53,2.63-.63,1.68.21,2.63-.32,1.26.21,2.63a4.78,4.78,0,0,1,.42,3.25,4.9,4.9,0,0,0,0,3.26c.42,1.16-1,1.69-1.05,2.63s1.26.74.84,1.68a2.57,2.57,0,0,0,0,1.9s-.16,2.46-1.42,2.46-1.8.31-2.42,1.76a17.34,17.34,0,0,1-1.53,2" transform="translate(-614.19 -109.78)"/><path class="cls-1" d="M902,364.47a1.75,1.75,0,0,0-.18.46h.5" transform="translate(-614.19 -109.78)"/><line class="cls-35" x1="289.07" y1="255.15" x2="317.83" y2="255.15"/><line class="cls-1" x1="318.32" y1="255.15" x2="318.82" y2="255.15"/><line class="cls-1" x1="214.45" y1="270.74" x2="213.95" y2="270.74"/><path class="cls-1" d="M826.81,380.52h-.5V380" transform="translate(-614.19 -109.78)"/><path class="cls-38" d="M826.31,379v-1.21c0-.7-1.75-1.31-2.1-2.62s-.87-2.09-.35-3.14,1-1.84.7-2.8.27-1.66.62-2.45a5.9,5.9,0,0,0,0-2.44c0-.7,1.13-1.14,1.13-2.27v-3.5c0-1-1-.52-1.22-1.83s-1.31-1.31-1.31-2.27-.44-1.75-.44-2.62.09-2.88-.79-2.88-2,.34-2.62-.53a2.23,2.23,0,0,1,.09-2.53c.44-.88-1-1.22-1.48-2s.08-1.57,1-1.92.62-1.05.62-1.75v-5.07c0-.87-1.05-1-1.05-1.92v-2.88c0-.61.78-1.14,1.83-1.14s1.92-1.13,2.45-2.27c.33-.73.82-.77,1.31-1" transform="translate(-614.19 -109.78)"/><path class="cls-1" d="M825.18,325.76a1.69,1.69,0,0,0,.34-.36h0" transform="translate(-614.19 -109.78)"/><path class="cls-1" d="M901.79,364.93a1.75,1.75,0,0,1,.18-.46" transform="translate(-614.19 -109.78)"/><path class="cls-39" d="M902.53,363.66a9,9,0,0,0,1.24-1.59c.62-1.45,1.15-1.76,2.42-1.76.71,0,1.08-.8,1.25-1.49" transform="translate(-614.19 -109.78)"/><path class="cls-1" d="M907.55,358.34c0-.29.06-.49.06-.49" transform="translate(-614.19 -109.78)"/><path class="cls-1" d="M883.69,427.32l-.46.2" transform="translate(-614.19 -109.78)"/><path class="cls-40" d="M882.3,427.86l-.7.2c-1.2.3-3.73,2.24-4.78,2.24h-4.18c-1,0-2.09.3-2.83-.75s-1.2-2.39-2.69-2.39h-6.31" transform="translate(-614.19 -109.78)"/><path class="cls-1" d="M860.31,427.16h-.5a2.85,2.85,0,0,0,0-.49" transform="translate(-614.19 -109.78)"/><path class="cls-41" d="M859.51,425.69c-.49-1.31-1.47-2.68-2.53-3-1.5-.45-3.43,0-5.08.3s-2.08-.15-1.79-1.35a4.08,4.08,0,0,0,0-3c-.44-1.34.75-3.13-.15-4.78a5.81,5.81,0,0,1-.89-3.58c0-1.34-.9-1.49-2.69-1.49s-2.83-1-4.47-1-2.24-2.09-2.69-3.43-1.64-2.39-2.68-3.59-.75-3.28-.75-4-1.34-1.35-1.34-2.09,1.19-.75,1.19-1.64v-3.73c0-1.35-1.19-2.84-2.09-3.73s-1.34-2.09-2.39-2.39a4.48,4.48,0,0,1-2.06-1.75" transform="translate(-614.19 -109.78)"/><path class="cls-1" d="M828.84,381a2.57,2.57,0,0,1-.2-.46" transform="translate(-614.19 -109.78)"/><path class="cls-1" d="M927.73,410.66l-.18.46" transform="translate(-614.19 -109.78)"/><path class="cls-42" d="M927.18,412c-.15.37-.33.75-.49,1.08a6.9,6.9,0,0,0-.52,2.09" transform="translate(-614.19 -109.78)"/><path class="cls-1" d="M926.08,415.64a5,5,0,0,1-.12.49,4.19,4.19,0,0,0-.5,0" transform="translate(-614.19 -109.78)"/><path class="cls-43" d="M924.47,416.36c-.41.11-.9.27-1.54.51a32.27,32.27,0,0,1-6.87,1.49c-1.34,0-2.53,1.64-4.18,1.49s-4.62.75-6,.75-2.84,1.49-4,1.49-1.94,1.64-2.84,2.54c-.63.63-1.57.75-2.06,1.3" transform="translate(-614.19 -109.78)"/><path class="cls-1" d="M896.74,426.36a1.55,1.55,0,0,0-.07.5l-.46-.19" transform="translate(-614.19 -109.78)"/><path class="cls-44" d="M895.28,426.35a7.55,7.55,0,0,0-1.27-.28c-1.33-.15-1.66-.9-4.06-.42-1.41.28-.85.42-2.39.14s-1.4-.42-2.24.42a3.88,3.88,0,0,1-.75.64" transform="translate(-614.19 -109.78)"/><path class="cls-1" d="M884.13,427.08c-.12.06-.26.13-.44.24" transform="translate(-614.19 -109.78)"/><line class="cls-1" x1="318.82" y1="255.15" x2="318.82" y2="255.65"/><path class="cls-45" d="M933,366.41V382c0,2,1.1,2,1.21,3.74s-.33,2.09,1,3.08,2.2,1.09,2.53,2.52,1.1,1.43.88,2.53,0,1.43,1,1.65,4.78-5.26,4.89-3.72a14.85,14.85,0,0,0,2.13,3.78" transform="translate(-614.19 -109.78)"/><path class="cls-1" d="M946.92,395.94l.3.4.35-.36" transform="translate(-614.19 -109.78)"/><path class="cls-46" d="M948.27,395.32c4.82-4.29,11.14-5.15,13.52-5.32" transform="translate(-614.19 -109.78)"/><path class="cls-1" d="M962.26,390h.49" transform="translate(-614.19 -109.78)"/><path class="cls-1" d="M952.58,324.76h-.5" transform="translate(-614.19 -109.78)"/><path class="cls-47" d="M951.1,324.79c-5.71.09-11.42.14-17.1.15" transform="translate(-614.19 -109.78)"/><path class="cls-1" d="M933.51,324.94H933" transform="translate(-614.19 -109.78)"/><path class="cls-1" d="M1000.58,363.88a.38.38,0,0,1-.31-.35" transform="translate(-614.19 -109.78)"/><path class="cls-48" d="M1000.6,362.59c.18-.39.35-.75.2-.94-.36-.46-.39.39-1.09-.21s-.32-1.76-1.15-2.29.34-1.12.81-2.87c.25-.92-1-1.21-.85-2.17.23-2.09,1-1.31,1-3.25,0-1.18.08-2.37.12-3.56a3.58,3.58,0,0,1,.07-1.85c.46-1.22,2.77-.37,3.45-2.78.21-.75-1.13-1.82-1-3a1.73,1.73,0,0,1,2.1-1.73c.14,0,.31-.14,0-.39l-1.32-1.41c-.18-.19-.09-.48.1-.45,2.9.36,1.35-2.75,2-4.14.5-.93-.07-1.15,0-1.79.09-2.62,1.37.19,2.42-1.1.68-.84,1-3.78,1.11-5.43,0-.27,0-.71-.3-.38-.55.56-1,1.14-1.61,1.69-.21.25-.57.32-.48-.21s0-.86,0-1.29-.33-.54-.52-.52c-13.24,1.56-29.35,1.67-43.44,2.07q-4.27.12-8.57.19" transform="translate(-614.19 -109.78)"/><path class="cls-1" d="M953.08,324.75h-.5" transform="translate(-614.19 -109.78)"/><path class="cls-1" d="M962.75,390h.5" transform="translate(-614.19 -109.78)"/><path class="cls-49" d="M964.25,390c3,.23,8.67,1,10.18,1.67a21.76,21.76,0,0,0,4.93,1.86c1.54.28,3.35,2.54,6,3s-.06,6,3.16,5.4,6.83,2.56,9.21,1.44,5.38,3.56,7.63,3.42,2.15,1.86,3.42,3.69-3.2,6.34-1.1,5.08,2.24,1.26,3.64,1.12,1.54-2.52,3.51-1.26a7.15,7.15,0,0,0,3.24,1.25h.06c1,0,0-1.93.64-2.5,1.22-1.13,1.79-2.13,3.46-2.07.72,0,3,.48,3.55.13,1.37-1-1.07-2.41.69-2a2.17,2.17,0,0,0,1.86-.81c.6-1.06-1.42-2.6-2.13-.47a1.87,1.87,0,0,1-2.71.82,3.32,3.32,0,0,1-.79-1.11,13.32,13.32,0,0,1-1.39-4.09c.12-3.57-2.37-.49-2.24-4.08.06-1.62-1.43-1.9-.72-2.87s1.46-6.12,1.06-6.95-1.22,3.63-2.43,2.29-1.67-3.74-2.2-4.83.07-1.88.13-3.55-.39-1.2-2-1.25c-.81,0-.21-1.73-.29-2.39s.52-2.36-.28-2.39c-1.58-.05-2,.38-2-1.26.05-1.3-1.65-1.36-2.5-1.43s-1.24-1.37-2.11-2.26.57-1.59.08-2.38-1.57-.39-2.52-.23-.35-1-1.31-1.45.64-.82-.6-1.81c-.84-.68-.54-2.06-.53-3" transform="translate(-614.19 -109.78)"/><path class="cls-1" d="M1000.89,364.25a.49.49,0,0,0-.31-.37" transform="translate(-614.19 -109.78)"/><path class="cls-1" d="M999,432.61a4.42,4.42,0,0,1-.15-.48" transform="translate(-614.19 -109.78)"/><path class="cls-50" d="M998.7,431.15c-.12-2.16,1.25-4,2.74-5.39.84-.79,2.31.14,3.42-.89,1.72-1.61,1.46-1.61,3.07.1,3.13,3.34,3.25-1.08,3.33-3.43,0-.73,2.76-.28,3.56-.25,1.89.07,1-.7,1.26-2.3.36-1.86-.23-2.29,1-2.34" transform="translate(-614.19 -109.78)"/><path class="cls-1" d="M1017.58,416.65l.5,0a4.52,4.52,0,0,1-.49-.07" transform="translate(-614.19 -109.78)"/><path class="cls-51" d="M1016.64,416.33a9.19,9.19,0,0,1-1.8-.91c-2-1.26-2.11,1.12-3.51,1.26s-1.54-2.38-3.64-1.12-4.49,3.23-5.75,1.4-.84-3.78-3.08-3.64,1.7-2.58-.69-1.46-6.57,5.93-8.46,9.56c-1.51,2.91-3.59,1.12-5.56,2.75a6.61,6.61,0,0,1-5.75,1.33l-3.72,0" transform="translate(-614.19 -109.78)"/><line class="cls-1" x1="359.99" y1="315.69" x2="359.49" y2="315.69"/><path class="cls-1" d="M1024.07,461.56a3.4,3.4,0,0,0-.07-.49" transform="translate(-614.19 -109.78)"/><path class="cls-52" d="M1023.67,460.13c-1.18-1.87-4.33,1.11-4.19-2.75,0-1.61-.55-2.75,1.27-2.69,1.14,0,1.4.49,1.3,1.38-.35.95.21.66.46.46,1.72-1.38,4.52-3.24,4.16-.29-.28.68-.1,1.24.63.41.92-1,1.43-2,2.55-.81,1.57,1.68,1.65,1.38,3.85,1.67s2.28,0,3.84,1.67a2.85,2.85,0,0,0,2.52,1c.62,0,.34-.75.19-1.09l-1.32-2.87c-.38-.87,0-1.19,1.28-1.24a3.51,3.51,0,0,0,3.11-1.86c1.32-2.28-.78-2.41,2.84-2.28,2.76.1,2.06,1.48,4.28,2.53a9.67,9.67,0,0,0,3.52.2c.88,0,.74-.54.52-.77a4.68,4.68,0,0,1-1.53-2.34c-.08-1.08-.64-1.15-1-.85-1.73,1.45-3.84,2.64-3.73-.69.06-1.5-1.47-2.4-2.94-2.75-1.7-.37-.9-1.06-.4-1.56a2.41,2.41,0,0,1,1.52-.89c1.1,0,3.36.51,4.37.15,1.69-.6,1.63-2.3,3.63-2.23,1.45.05,2.14-.74,3-1.68.56-.49.56-1-.28-1-2.35-.09-4.6.23-7,.15-1.5.05-1-.74-.55-1.23,1.28-1.43,3-3.41,4.16-3.37,2.93.11,4.34,1.07,4.45-2.22,0-1.6.63-2.32-1.1-2.38s-1.16-.49-1.1-2.06c.08-2.34-4.33,1.39-4.63,1.68-1.39,1.31-1.94,4.86-2.61,6.65-.27.74-2.66.62-4,.4-.55-.08-1.25,0-.89-1.2.31-1.08.68-2.34.12-3.38-.27-.5-1.92-.07-2.35-.29-1.28-.64-2.75-2.68-3.88-4.1-.57-.59-.31-1,.42-.75,1.76.61,2.32-2.29,4.07-2.23,1.58.06,2,.52,2-1.12,0-1,.3-1.19-.7-1.22-2.1-.08-4.24-.06-6.34-.22-1.84-.15-2.48-.35-3.35-1.15-.36-.34-1.43-.69-1.48,1.44,0,1.73-.8,2.68-2.78,4.53-1.22,1.14-1.66,2-3.31,1.94-1.81-.06-1.09.69-1.27,2.3-.26,2.45-.17,5-.26,7.47-.12,3.62-.75.34-2.44,1.92-1.24,1.16,1.26,2.41-1.26,2.32-2.21-.08-6.29.59-8.28-.29-1.82-.8-3.54-5.44-2.12-7.18s2.31,1.81,2.44-1.9c0-.69-2.13-.66-2.61-.22-2,1.86-3.68,1.94-5.59,3.13a2.69,2.69,0,0,1-2.22-.17c-1.39-.58-2.45-.63-3.41-2.68" transform="translate(-614.19 -109.78)"/><path class="cls-1" d="M999.18,433.08l-.18-.47" transform="translate(-614.19 -109.78)"/><path class="cls-1" d="M987,487.42a1.42,1.42,0,0,1,.42-.25" transform="translate(-614.19 -109.78)"/><path class="cls-53" d="M988.36,486.9a6.94,6.94,0,0,1,1.28-.09l5.47.19c2.76.1,2.17-1.44,4.45-2.22,3.07-1.06,2.32,1.72,2.25,3.63-.08,2.41-.34,3.34,1.35,5.13,1.35,1.44.71,3.49.65,5.4,0,.56,0,1.05-.06,1.44-.21,1.19-.26,1.9.73,1.51,2.35-.95,5.43-.17,8-.08,1.81.06,3.63,1.6,5.18,2.46,1.18.63,2.7.26,4,1,3.74,2,6.79,4.23,11.09,4.38,2.06.07,2.54,2.46,4.13,2.52s3.58.56,4.28,2.51c.29.8-.73,4.72.21,4.75,2.92.1,2,1.32,1.87,4.06,0,1,2.45.94,3.48,2a9.4,9.4,0,0,0,2.54,1.36" transform="translate(-614.19 -109.78)"/><path class="cls-1" d="M1049.75,527.07a1.56,1.56,0,0,0,.47.14,1.85,1.85,0,0,1,.06.5" transform="translate(-614.19 -109.78)"/><path class="cls-54" d="M1050.16,528.7c-.18.93-.54,2.1-.87,3.27s-1.77,2.59-2.58,3.48-3.52,2.26-3.57,3.71c-.06,1.67,0,2.15.71,2.92,1,.94,1.85-.19,2.26-.91a27.9,27.9,0,0,0,1.35-2.57c.43-1,0-2,.64-2.63,2.28-2.13,3.91-8.27,6.87-9,1.11-.26,3.57.12,4.74.16,2.33.08,2.38-.28,2.3,2.09-.1,2.76,3.43,3,5.75,3,.57.1,1.55-.26.19-1.13-.4-.44-1.07-1.46-.23-2.28,1.79-1.73,3.34-3.63,5.89-3.54,5.43.19.54-2.42,3.09-4.8,1.68-1.58,2.26-1.83,2.34-4.12,0-1.17,2.36.78,2.44-1.46,0-.8.48-3.55-.26-3.57-1.73-.06-2.33-.14-2.07-1.72.23-.67-.08-.67-1.31.06-1.77,1.05-4.46,2.3-5.71,1.34s1.52-2.31-1.1-2.4c-2.27-.08-.35-.91-1.1-2.41-.48-1-1.81-1.5-2.29-2.46-.75-1.51,1.17-2.33-1.1-2.4s-.37-.91-1.1-2.44c-.29-.58-2.1-2.62-2.55-2.2-1.22,1.14-2.18,1.57-2.24,3.23,0,1.36-.91,1.76-2.41,1.12-2.65-1.14-1.39-4.81-3.37-4.88s-5.95.69-5.88-1.37c.08-2.25-.88-.41-2.32-1.26a8,8,0,0,1-1.79-1.86c-.2-.38-.77-.53-.62.14.43,1.86-1.11,1.6-3.08,1.53-2.42-.09-4.09.58-4-1.63.24-.78-.12-.78-.56-.58l-3.11,1.42c-1.12.66-.94-.15-.93-.43.07-1.61-.79-2.28-2.08-3.65-.38-.41.85-1.42,1.66-2.08.49-.28.65-.59-.7-.51a8.09,8.09,0,0,1-3.63-.5c-.36-.34,0-2,.21-3.31,0-.47.36-1.41-.72-.61s-3.21,1.95-4,1.78-2.55-2.94-3.09-3.33c-.7-.51-1.9-1-3.12-1.8a1.23,1.23,0,0,1-.51-1.66c.29-.85.85-1.23,1.74-2,.2-.19.72-.89-.63-.72s-1.14-.86-1.09-2.56c.08-2.31-.25-2.4,2.09-2.32.74,0,.47-2.74.5-3.53.06-1.83,1.15-1.15,2.77-1.09,1,0,5.09.58,7.24.58" transform="translate(-614.19 -109.78)"/><path class="cls-1" d="M1029.71,464.8l.49-.05a1.87,1.87,0,0,1,.22.45" transform="translate(-614.19 -109.78)"/><path class="cls-55" d="M1030.58,466.14c.09.5.4.78,2.42.85.71,0,1.46.95,2.06,1.72.43.76.8.39.81-.38,0-1.32-.44-1.61-2-1.66-1.11,0-1.95-2.86-3.62-2.47-1.14-.31-1.55.21-3-1.32-.45-.48-1.61-.6-2.39-.81" transform="translate(-614.19 -109.78)"/><path class="cls-1" d="M1024.39,461.91c-.18-.09-.31-.2-.32-.35" transform="translate(-614.19 -109.78)"/><path class="cls-1" d="M973.69,425.47l-.49-.1" transform="translate(-614.19 -109.78)"/><path class="cls-56" d="M972.16,425.1a29.7,29.7,0,0,1-4.15-1.54c-1.82-.84-2.08-1.37-4-1.37l-3.5-.59" transform="translate(-614.19 -109.78)"/><path class="cls-1" d="M960,421.51l-.49-.09v.5" transform="translate(-614.19 -109.78)"/><path class="cls-57" d="M959.44,422.92c0,4.25-.15,16.21-.15,17.51,0,1.58,1,1.22,1,2.44s1.09,1.59,1.58,2.44.74,2.08,1.35,3.05,2.32,1.47,3.17,2.45,2.81,1.22,2.81,1.95v2.69c0,.73-1.47,1.71-1.83,2.8s-1.83,2.57-1.83,3.67c0,.88-.64,1.84-.88,3.14" transform="translate(-614.19 -109.78)"/><path class="cls-1" d="M964.56,465.57c0,.16,0,.33,0,.5h.5" transform="translate(-614.19 -109.78)"/><path class="cls-58" d="M966.06,466.07h1.29c.85,0,1.1,1.1,2.2,1.1s1.09,2.2,1.09,3.17-1.09,1.1-1.09,2.2,1.09,1.71,1.09,2.93v2.69c0,.73-1.34.36-2.07,1.46s-.37,1.47.24,2.44,1,3.06,1.83,3.79,1.59,1.34,1.59,2.44,1,1.22,2,1.47a14.69,14.69,0,0,0,2.93.48c.73,0,2.32-.73,2.93-.12.45.45,1.06,1.82,1.79,2.61" transform="translate(-614.19 -109.78)"/><path class="cls-1" d="M982.22,493.07a1.34,1.34,0,0,0,.45.22c0-.17,0-.34,0-.51" transform="translate(-614.19 -109.78)"/><path class="cls-59" d="M982.64,491.7c-.08-1.7-.11-2.78,2.18-2.7a2,2,0,0,0,1.44-.82" transform="translate(-614.19 -109.78)"/><path class="cls-1" d="M986.61,487.78c.12-.13.23-.25.35-.36" transform="translate(-614.19 -109.78)"/><path class="cls-1" d="M964.54,466.07c0-.17,0-.34,0-.5" transform="translate(-614.19 -109.78)"/><path class="cls-60" d="M964.75,464.58a12.83,12.83,0,0,0,.77-2.66c0-1.1,1.46-2.57,1.83-3.67.42-1.27,2.32-2.37,1.71-3.13v-2c.67-1-1.72-1.17-2.69-2.28s-2.56-1.47-3.17-2.45-.86-2.19-1.35-3.05-1.58-1.22-1.58-2.44-1-.86-1-2.44c0-1.36.12-14.3.16-18" transform="translate(-614.19 -109.78)"/><path class="cls-1" d="M959.45,421.92v-.5l-.5-.05" transform="translate(-614.19 -109.78)"/><path class="cls-61" d="M958,421.25l-4.59-.55s-.36-.11-.76-.2" transform="translate(-614.19 -109.78)"/><path class="cls-1" d="M952.15,420.41c-.24,0-.44,0-.48,0" transform="translate(-614.19 -109.78)"/><path class="cls-1" d="M926,416.13a5,5,0,0,0,.12-.49" transform="translate(-614.19 -109.78)"/><path class="cls-42" d="M926.25,414.7a4.84,4.84,0,0,1,.44-1.62c.23-.47.48-1.05.68-1.52" transform="translate(-614.19 -109.78)"/><path class="cls-1" d="M927.55,411.12l.18-.46a1,1,0,0,0,.48.14" transform="translate(-614.19 -109.78)"/><path class="cls-62" d="M929.19,410.58a1.13,1.13,0,0,1,1.29.3c.88,1,.44,2.2,1.76,2.2h3c.66,0,1.76-1.43,2.31-2.64.22-.49,2-2.94,4-5.73,1.08-1.47,1.08-3.72,2.35-5,.79-.79,2.07-2.24,3.33-3.39a32.94,32.94,0,0,1,2.89-2.46,21.66,21.66,0,0,1,6.54-3c.3-.09-2.38,2.77-3.74,4.56-1.13,1.48-1.28,1-2.49,2.9-.75,1.17-1.3,4.25-1.79,5.34s-2.26,2.62-2.54,3.56c-.44,1.45.3,3.23.23,4.32a15.61,15.61,0,0,0,.08,4.64l4.48,3.58" transform="translate(-614.19 -109.78)"/><line class="cls-1" x1="337.08" y1="310.35" x2="337.47" y2="310.66"/><path class="cls-1" d="M926,416.13a4.19,4.19,0,0,0-.5,0" transform="translate(-614.19 -109.78)"/><path class="cls-63" d="M924.47,416.35c-.4.12-.9.28-1.54.52a32.27,32.27,0,0,1-6.87,1.49c-1.34,0-2.53,1.64-4.18,1.49s-4.62.75-6,.75-2.84,1.49-4,1.49-1.94,1.64-2.84,2.54c-.65.65-1.3.82-1.83,1.39" transform="translate(-614.19 -109.78)"/><path class="cls-1" d="M896.9,426.42a3.61,3.61,0,0,0-.23.44" transform="translate(-614.19 -109.78)"/><path class="cls-1" d="M896.67,426.86l-.46-.19" transform="translate(-614.19 -109.78)"/><path class="cls-64" d="M895.29,426.35a7.66,7.66,0,0,0-1.28-.28c-1.33-.15-1.66-.9-4.06-.42-1.41.28-.85.42-2.39.14s-1.4-.42-2.24.42a4.86,4.86,0,0,1-1.63,1.11,11.91,11.91,0,0,1-2.09.74c-1.2.3-3.73,2.24-4.78,2.24h-3.18" transform="translate(-614.19 -109.78)"/><path class="cls-1" d="M873.14,430.3h-.5c0,.17,0,.34,0,.5" transform="translate(-614.19 -109.78)"/><path class="cls-65" d="M872.52,431.7c-.21,1-.64,1.58-1.07,1.58h-1.14" transform="translate(-614.19 -109.78)"/><path class="cls-1" d="M869.86,433.28h-.5v.5" transform="translate(-614.19 -109.78)"/><line class="cls-66" x1="255.17" y1="324.77" x2="255.17" y2="325.91"/><path class="cls-1" d="M869.36,436.07v.5h0c.11.12.22.25.32.38" transform="translate(-614.19 -109.78)"/><path class="cls-67" d="M870.22,437.79a10.82,10.82,0,0,1,1.08,3.28c.28,1.68,1.13,1.82,2.11,2.24s1.26,2.25,1.26,3.65-.14,2.38,1,2.8a15.69,15.69,0,0,0,3.36.42c.84.14,2.39,0,3,.84s2.66,1.83,2.52,3.23-1.12,2.1-.28,3.36,1.82,2.66.42,3.37c-.84.42-1,1-1,2.1,0,.4,0,.77,0,1.1" transform="translate(-614.19 -109.78)"/><path class="cls-1" d="M883.56,464.69c0,.3-.06.49-.06.49s.21.25.31.39" transform="translate(-614.19 -109.78)"/><path class="cls-68" d="M884.29,466.34a2.5,2.5,0,0,1,.05,2.62c-.84,1.27-.84,2,.14,2.53a1.94,1.94,0,0,1,.73.72" transform="translate(-614.19 -109.78)"/><path class="cls-1" d="M885.38,472.63a2.08,2.08,0,0,1,.1.48h0" transform="translate(-614.19 -109.78)"/><path class="cls-1" d="M951.06,516.26a1.33,1.33,0,0,0,.41-.27" transform="translate(-614.19 -109.78)"/><path class="cls-69" d="M951.94,515.11a20.16,20.16,0,0,0,.08-2.46,19.84,19.84,0,0,1,2.69-6.86c.36-.88,2.09-1.64,3-.45a29.59,29.59,0,0,0,2.25,3.27c1.07,1.15.14,2.6,1,3.5,1.78,1.91,1.93,2,2,4.57,0,.83-.62,4.08-.17,4.73.28.39,2.1-.31,2.38.08s-.07,1.89-.09,2.37c-.12,3.48-.19,1.21-2.45,2.3s-1.54,2.43-4.25,2.34c-.54,0-1.64,1-2.54,1.45-2.47,1-2.42,1.95,1.19.67a101.93,101.93,0,0,0,20-9.52,53.84,53.84,0,0,0,8.16-6.86c2-1.87,4-4.72,6.54-5.67,1.22-.3,1.47-.88.23-.72a8.11,8.11,0,0,0-5.11,2.56c-1.25,1.16-1.83,2.11-3.5,2.53s-1.6-.23-1.71-.5c-1.08-2.66-4.18-5-4.07-8.28.06-1.64.48-1.17,2.06-1.12,1.1,0-.27,1.94.29,2.39s4.21.15,5.11.18c2.84.09,2.92-2.28.08-2.38-1.9-.07-3.69.19-2.66-2.47.52-1.34,4-2.45,2.54-4.67-.39-.59-2.4.65-2.36-.45,0-.45,0-.9,0-1.35" transform="translate(-614.19 -109.78)"/><path class="cls-1" d="M982.65,493.79l0-.5a1.34,1.34,0,0,1-.45-.22" transform="translate(-614.19 -109.78)"/><path class="cls-70" d="M981.52,492.34c-.59-.79-1.09-1.84-1.47-2.22-.61-.61-2.2.12-2.93.12a14.69,14.69,0,0,1-2.93-.48c-1-.25-2-.37-2-1.47s-.73-1.71-1.59-2.44-1.22-2.81-1.83-3.79-1-1.34-.24-2.44,2.07-.73,2.07-1.46v-2.69c0-1.22-1.09-1.83-1.09-2.93s1.09-1.22,1.09-2.2,0-3.17-1.09-3.17-1.35-1.1-2.2-1.1h-1.8" transform="translate(-614.19 -109.78)"/><path class="cls-1" d="M965,466.07h-.5" transform="translate(-614.19 -109.78)"/><path class="cls-1" d="M885.48,473.12a1.39,1.39,0,0,0-.5,0" transform="translate(-614.19 -109.78)"/><path class="cls-71" d="M884,473.38a7.06,7.06,0,0,0-2,1.08c-.89.75-3.28,2.24-4.62,1.64a2.28,2.28,0,0,0-3,.6c-.89.89-1.94,1.79-1.94,2.68s.15,1.79-1.34,1.79-2.68.45-2.68,1.49a25.07,25.07,0,0,1-.66,3.62" transform="translate(-614.19 -109.78)"/><path class="cls-1" d="M867.69,486.77l-.11.48.49.05" transform="translate(-614.19 -109.78)"/><path class="cls-72" d="M869,487.56a2.74,2.74,0,0,1,.89.64c1.38,1.45,1.48,1.57,1.41,3.56,0,.95,1.73.09,2.34.45,3.39,2,1.61,3.75.16,6.39-.77,1.39-1.52.11-2.76.65-.8.35-1.63,1.52-2.27,2.12-1,1-.07,4.92-3.09,4.81-2.16-.08-1.72-.29-1.94-2.07-.28-2.28-2.72-1.6-1.4.56s3.62,3.88,5.44,5.82c.85.9,1.73.25,2.85.59a22.72,22.72,0,0,1,3.93,2.14c1.21.66,1.83,2.29,3,2.84.94.45,3,.1,4,.14,2.23.08,3.81,2.51,6,2.59,4.51.15,12.12-1.08,15.27,2.29,1.59,1.69,1.5,5.41,4,5.5,1.89.06,3.59,2.35,5,4,.27.33.82,1.46.65-.14-.1-.88.26-1.31,1.39-1.27,2.52.08,0-1.18,1.26-2.33s2.3,1.42,2.39-1.1c.05-1.63.47-1.17,2-1.11l7.11.25c1.13,0-.31-2.39.82-2.36s2,.55,2-.66c.06-1.85-.66-6.4,1.41-6.33.95,0,5.9.52,5.92-.17,0-1.32.1-2.66.14-4,0-1.13-2.36.31-2.32-.82.11-3.14,2.55-1,2.59-3.29-.38-1.31.68-.16,1.07.26s1,2.27,1-.11c-.07-3.41,4.18,1.46,5.24,1.49,4,.14.49,3.33,2.65,5.66a5.31,5.31,0,0,0,2.85,1.83" transform="translate(-614.19 -109.78)"/><path class="cls-1" d="M950.58,516.41a2.21,2.21,0,0,0,.48-.15" transform="translate(-614.19 -109.78)"/><path class="cls-1" d="M813.2,463.15c0,.17.08.33.13.48" transform="translate(-614.19 -109.78)"/><path class="cls-73" d="M813.84,464.47c.4.31,1,.24,1.75-.5a22.46,22.46,0,0,1,6.86-4.23c1.35-.62,13.52-.57,14.43.4.47.5-.06,6.94-.51,7.34-1.22,1.13-2.17,1.55-2.23,3.21-.06,1.83.7,1.09,2.33,1.28.58.06,7.09,0,7.08.45-.12,3.37-.32,4.22,1.63,6.44.16.17.67.57,0,1.05a6.93,6.93,0,0,0-2,2.94c-.24.73,0,1.3,1,.77,2.74-1.08,5.33-1.52,7.57-3.11.36-.25,1.08-1.14,1,.73-.09,2.05,2,3.22,4.27,3.3,2.81.1,4.15.87,6.64,2.24a5.88,5.88,0,0,0,3,.47" transform="translate(-614.19 -109.78)"/><path class="cls-1" d="M867.08,487.24h.5l.11-.48" transform="translate(-614.19 -109.78)"/><path class="cls-71" d="M867.92,485.78a20.68,20.68,0,0,0,.55-3.12c0-1,1.19-1.49,2.68-1.49s1.34-.89,1.34-1.79,1-1.79,1.94-2.68a2.28,2.28,0,0,1,3-.6c1.34.6,3.73-.89,4.62-1.64a7.26,7.26,0,0,1,2.45-1.24" transform="translate(-614.19 -109.78)"/><path class="cls-1" d="M885,473.12a1.39,1.39,0,0,1,.5,0h0a2.08,2.08,0,0,0-.1-.48" transform="translate(-614.19 -109.78)"/><path class="cls-68" d="M884.94,471.85a1.71,1.71,0,0,0-.46-.36c-1-.56-1-1.26-.14-2.53a2.74,2.74,0,0,0-.27-3" transform="translate(-614.19 -109.78)"/><path class="cls-1" d="M883.81,465.57c-.1-.14-.21-.27-.31-.39" transform="translate(-614.19 -109.78)"/><path class="cls-1" d="M744.25,383.17a1.36,1.36,0,0,0,0,.49" transform="translate(-614.19 -109.78)"/><path class="cls-74" d="M744.56,384.6a3.44,3.44,0,0,0,.42.63c1,1.22,1.7,1.82,1.7,2.55v3.16a3.1,3.1,0,0,1-1.7,2.31c-1,.49-.85,1.22-.61,2.07s.61,1.7.24,2.43-1,1.34-.48,1.94.36,1,.36,1.83v7.29c0,1,0,1.58,1,2.06s3,.73,2.31,2.07-1.58,1.82-1.58,3-.6,1.82-1.33,2.79-.37,1.7-.37,2.43a4.71,4.71,0,0,0,.65,1.77" transform="translate(-614.19 -109.78)"/><path class="cls-1" d="M745.37,423.42l.22.46" transform="translate(-614.19 -109.78)"/><path class="cls-1" d="M802.32,473.19l-.5-.05" transform="translate(-614.19 -109.78)"/><path class="cls-75" d="M800.81,473.08l-7-.24c-3.49-.12-3-2.12-3.95-5.39-.93-3.1-.54-4.15,1.81-6.35,1.91-1.79,4.75-3,7-4.37,1.81-1.12,3.79-1.67,5.5-2.84" transform="translate(-614.19 -109.78)"/><path class="cls-1" d="M804.53,453.58l.39-.32" transform="translate(-614.19 -109.78)"/><path class="cls-1" d="M745.59,423.88l-.44.24" transform="translate(-614.19 -109.78)"/><path class="cls-8" d="M744.3,424.55c-.69.34-1.65.78-2.85,1.27a40,40,0,0,0-5.12,3.12" transform="translate(-614.19 -109.78)"/><path class="cls-1" d="M735.92,429.2l-.42.26h.5" transform="translate(-614.19 -109.78)"/><line class="cls-76" x1="122.76" y1="319.69" x2="129.93" y2="319.69"/><polyline class="cls-1" points="130.41 319.69 130.91 319.69 130.91 320.19"/><line class="cls-7" x1="130.91" y1="321.2" x2="130.91" y2="367.48"/><path class="cls-1" d="M745.1,477.77v.5h.5" transform="translate(-614.19 -109.78)"/><path class="cls-77" d="M746.58,478.31c4.38.08,8.87-.05,13.16.72,5.78,1,11.62,2.52,17.5,2.72,2.8.1,5.07-2.49,7.74-3.71,2.12-1,4.13-.61,6.47-.53,1.49.05,4.7-.35,6.53.19" transform="translate(-614.19 -109.78)"/><path class="cls-1" d="M798.44,477.88a1.58,1.58,0,0,1,.34.19l.08.07" transform="translate(-614.19 -109.78)"/><line class="cls-1" x1="130.06" y1="273.39" x2="130.06" y2="272.89"/><path class="cls-78" d="M744.45,381.69a4.07,4.07,0,0,1,.31-.63c.36-.56,0-1.41.22-2.12a3.38,3.38,0,0,1,1.62-1.84c.78-.43.92-1.35,1.49-2.06s.21-1.41-.42-2.05-.92-1.77-.92-3.4V339.36" transform="translate(-614.19 -109.78)"/><path class="cls-1" d="M746.75,338.86v-.5h.5" transform="translate(-614.19 -109.78)"/><path class="cls-79" d="M748.22,338.36h7.16c1,0,1-.91,1.84-1.25s.78-.88.78-1.49-.78-.7-.78-1.66.69-1.4,1.57-1.48,1.31-1.05,2.88-1.49,2.36-1.22,2.36-2,1.05-1.22,2.36-1.22a5.19,5.19,0,0,1,3.75,1.66c.7,1,1.23,1.75,2.19,1.75h2.59" transform="translate(-614.19 -109.78)"/><path class="cls-1" d="M775.41,331.17h.5s0,.19,0,.49" transform="translate(-614.19 -109.78)"/><path class="cls-80" d="M776,332.66c0,.61,0,1.27,0,1.65,0,.87,1.57,2.18,2.27,2.8a3.73,3.73,0,0,1,1.39,2.7v3" transform="translate(-614.19 -109.78)"/><path class="cls-1" d="M779.66,343.33v.5h.5" transform="translate(-614.19 -109.78)"/><line class="cls-1" x1="167.24" y1="234.05" x2="167.74" y2="234.05"/><path class="cls-1" d="M826.31,380.52V380" transform="translate(-614.19 -109.78)"/><path class="cls-81" d="M826.31,379v-1.2c0-.7-1.75-1.31-2.1-2.62s-.87-2.09-.35-3.14,1-1.84.7-2.8.27-1.66.61-2.45,0-1.74,0-2.44,1.14-1.14,1.14-2.27v-3.5c0-1-1-.52-1.22-1.83s-1.31-1.31-1.31-2.27-.44-1.75-.44-2.62.09-2.89-.79-2.89-2,.35-2.62-.52a2.23,2.23,0,0,1,.09-2.53c.29-.58-.22-.93-.75-1.32" transform="translate(-614.19 -109.78)"/><path class="cls-1" d="M818.87,344.29a1.91,1.91,0,0,1-.33-.37H818" transform="translate(-614.19 -109.78)"/><path class="cls-82" d="M817,343.92l-23.55.09c-.7,0-.88-.62-1.49-.62s-.79.44-1.66.44H783" transform="translate(-614.19 -109.78)"/><path class="cls-1" d="M782.43,343.83h-.49" transform="translate(-614.19 -109.78)"/><path class="cls-1" d="M798.86,478.14l.4.3" transform="translate(-614.19 -109.78)"/><path class="cls-83" d="M800,479.08c1.68,1.46,4,3.61,5.47,3.66,1.17,0,3.49-.36,4.53.16s1.36,2,2.29,2.46c1.34.71,2-.33,3.17.93,1.37,1.46,1.49,1.58,3.46,1.65,3.1.1,5.15-.8,5.27-4.17,0-1,2.27-2.78,3.79-4,2.14-1.9-.67-.83-1-1.22s1-3.12-1.15-1.27c-1.91,1.61-2.13.68-4.33-1.7-1.43-1.56-1.56-1.83-3.67-1.9-1,0,.29-2.36-.49-2.38l-8.08-.28c-2.27-.08-.42.86-1.27,2.31a7.62,7.62,0,0,1-1.8,1.89.59.59,0,0,1-1,0,4.12,4.12,0,0,0-1.84-1.76" transform="translate(-614.19 -109.78)"/><path class="cls-1" d="M802.81,473.29l-.49-.1" transform="translate(-614.19 -109.78)"/><path class="cls-1" d="M804.92,453.26l.2-.16.18-.17" transform="translate(-614.19 -109.78)"/><path class="cls-84" d="M806.08,452.3c.58-.37,1-.33,2.26-.29.93,0,2-1.49,2.64-2.11a1.46,1.46,0,0,1,2.52,1.1c-.09,2.63,1.41-.1,2.32,1.28,1.32,2-2.17,5.42-2.61,7a9.55,9.55,0,0,0-.15,2.86" transform="translate(-614.19 -109.78)"/><path class="cls-1" d="M813.11,462.66c0,.17,0,.33.09.49" transform="translate(-614.19 -109.78)"/><line class="cls-1" x1="255.17" y1="326.79" x2="255.17" y2="326.29"/><line class="cls-66" x1="255.17" y1="325.53" x2="255.17" y2="324.39"/><path class="cls-1" d="M869.36,433.78v-.5h.5" transform="translate(-614.19 -109.78)"/><path class="cls-65" d="M870.76,433.28h.69c.49,0,1-.7,1.14-2" transform="translate(-614.19 -109.78)"/><path class="cls-1" d="M872.63,430.8c0-.16,0-.33,0-.5l-.5,0" transform="translate(-614.19 -109.78)"/><path class="cls-85" d="M871,430.3a1.75,1.75,0,0,1-1.16-.75,7.3,7.3,0,0,0-1.64-2.1" transform="translate(-614.19 -109.78)"/><path class="cls-1" d="M867.62,427.22a1.9,1.9,0,0,0-.5-.06" transform="translate(-614.19 -109.78)"/><line class="cls-1" x1="212.12" y1="270.74" x2="212.62" y2="270.74"/><path class="cls-1" d="M828.14,380.52h.5a4.18,4.18,0,0,0,.2.45" transform="translate(-614.19 -109.78)"/><path class="cls-86" d="M829.41,381.81a4,4,0,0,0,1.75,1.34c1.05.3,1.5,1.49,2.39,2.39s2.09,2.38,2.09,3.73V393c0,.89-1.19.89-1.19,1.64s1.34,1.34,1.34,2.09-.3,2.83.75,4,2.24,2.24,2.68,3.59,1,3.43,2.69,3.43,2.68,1,4.47,1,2.69.15,2.69,1.49a5.85,5.85,0,0,0,.89,3.59c.9,1.64-.29,3.43.15,4.77a4.08,4.08,0,0,1,0,3c-.29,1.2.15,1.65,1.79,1.35s3.58-.75,5.08-.3c1.19.36,2.29,2.05,2.68,3.48" transform="translate(-614.19 -109.78)"/><path class="cls-1" d="M859.77,426.67a2.85,2.85,0,0,1,0,.49" transform="translate(-614.19 -109.78)"/><path class="cls-1" d="M883.5,465.18s0-.19.06-.49" transform="translate(-614.19 -109.78)"/><path class="cls-67" d="M883.63,463.68c0-.19,0-.39,0-.6,0-1.12.14-1.68,1-2.1,1.4-.71.42-2.11-.42-3.37s.14-2,.28-3.36-2-2.39-2.52-3.23-2.11-.7-3-.84a15.69,15.69,0,0,1-3.36-.42c-1.12-.42-1-1.4-1-2.8s-.28-3.23-1.26-3.65-1.83-.56-2.11-2.24a10.34,10.34,0,0,0-1.33-3.71" transform="translate(-614.19 -109.78)"/><path class="cls-1" d="M869.68,436.94c-.1-.13-.21-.26-.32-.38h0" transform="translate(-614.19 -109.78)"/><line class="cls-1" x1="121.17" y1="28.09" x2="120.67" y2="28.09"/><line class="cls-87" x1="119.74" y1="28.09" x2="112.73" y2="28.09"/><path class="cls-1" d="M726.45,137.87H726v.49" transform="translate(-614.19 -109.78)"/><path class="cls-88" d="M726,139.39v2.86c0,1.53-2.4,2.84-3.28,4.16s0,4.81.22,6.34-1.1,2-1.75,3.73V170" transform="translate(-614.19 -109.78)"/><polyline class="cls-1" points="106.94 60.7 106.94 61.2 107.44 61.2"/><line class="cls-89" x1="108.35" y1="61.21" x2="115.11" y2="61.21"/><line class="cls-1" x1="115.56" y1="61.21" x2="116.06" y2="61.21"/><path class="cls-1" d="M669.66,237.14v-.5" transform="translate(-614.19 -109.78)"/><path class="cls-90" d="M669.66,235.59v-3.8c0-1.21.69-1.73.87-2.77s1.55-2,1.81-1.2,1.08.7,1.81,1a6.41,6.41,0,0,0,2.53.15" transform="translate(-614.19 -109.78)"/><path class="cls-1" d="M677.2,228.85l.49-.08" transform="translate(-614.19 -109.78)"/><path class="cls-1" d="M677.69,228.77c.07.16.13.31.18.46" transform="translate(-614.19 -109.78)"/><path class="cls-91" d="M678.22,230.15c.35.89.69,1.42,1.59,1.5a7.29,7.29,0,0,0,2.87-.28c.84-.28,1.39,1.85,2.23.93a4.4,4.4,0,0,1,2.63-1.77" transform="translate(-614.19 -109.78)"/><path class="cls-1" d="M688,230.46l.5,0v-.5" transform="translate(-614.19 -109.78)"/><line class="cls-92" x1="74.33" y1="119.25" x2="74.33" y2="114.21"/><path class="cls-1" d="M688.52,223.53V223h.5" transform="translate(-614.19 -109.78)"/><path class="cls-93" d="M690,223h8.31c1.2,0-.84-1.3-1.3-1.95s-1.3-.83-1.3-2.31.56-1.67,1.3-2.41.37-1.3.37-2.14-.84-.64-1.39-1.48a2.3,2.3,0,0,1-.46-2.22,7.28,7.28,0,0,0,.18-2.41,4.44,4.44,0,0,0-1.76-2.5,5.42,5.42,0,0,1-.69-.62" transform="translate(-614.19 -109.78)"/><path class="cls-1" d="M693.08,204.53a3.63,3.63,0,0,1,0-.5h.5" transform="translate(-614.19 -109.78)"/><line class="cls-94" x1="80.41" y1="94.25" x2="100.65" y2="94.25"/><line class="cls-1" x1="101.17" y1="94.25" x2="101.67" y2="94.25"/><line class="cls-1" x1="55.47" y1="127.36" x2="54.97" y2="127.36"/><line class="cls-95" x1="53.98" y1="127.36" x2="16.94" y2="127.36"/><path class="cls-1" d="M630.64,237.14h-.5c0,.16,0,.33,0,.5" transform="translate(-614.19 -109.78)"/><path class="cls-96" d="M630.16,238.64v.09c-.07,1.92,2.13,2.92,3.48,4,1.09.86,1.74,3.2.75,4a1.13,1.13,0,0,0,.07,2,2.81,2.81,0,0,1,1.13,2.53c0,1.08,1.95-.14,2.35.44s.1,2.4-.45,2.38c-3-.1-2.06,1.72-2.15,4.31-.07,1.94-.28,2.68-1.12,3.61-.68.66-1.1,1.28-.16,1.31,1.6.05,1,1.79,1,3.71-.06,1.63.38,1.19,2,1.25,1.09,0-.27,1.93.29,2.38.82.68,4.78.17,5.92.21,1.48,0,1.39,1.62,1.2,3.15-.12,1.31-.81,1.76-1.52,1.72-1.4.16-1.82.83-.57,1.82.88.7,2.12.78,3.83.53.69-.1.25,3.59.22,4.38,0,1.08,1.92-.13,2.33.45s-.15,1.81-.08,2.36a16.9,16.9,0,0,1,.49,3.54c-.08,1.52-.72,2.91-.75,3.94-.08,2.26.4,2.51,2,4.19.6.65,2.63-.22,2.59.71,0,.74-.54,3.82-.15,4.37,1,1.36,2.42-1.34,2.33,1.27-.09,2.76,0,3.53,1.55,5.31.65.8.56.17.56-.48.13-1,.84-1.29,1.78-1.3" transform="translate(-614.19 -109.78)"/><path class="cls-1" d="M659.5,306.83l.51,0" transform="translate(-614.19 -109.78)"/><path class="cls-1" d="M660,306.87l.49.05" transform="translate(-614.19 -109.78)"/><path class="cls-97" d="M661.49,307h.07a.44.44,0,0,1,.35.69c-.43.91-.8,2-1.47,2.32-1.34.66-.1,2.44,1,3.71a.53.53,0,0,1-.56.77c-2.65-.31-2,4.3-.4,4.36,2.74.1,1,5.23,1,5.93-.07,1.91-.79.91-2.42,1.11s-2.34-.8-2.4,1.1c0,.84-.29,3.56.24,3.57,1.72.07,4.4-.67,4.33,1.34-.09,2.46.64,3.58-2.13,3.48-1,0,.18,2.31-1.69,2.42-.29,0-.67.35,0,1.19a5.73,5.73,0,0,1,.8,1.49" transform="translate(-614.19 -109.78)"/><path class="cls-1" d="M658.29,341c0,.16.07.32.1.49l.48-.15" transform="translate(-614.19 -109.78)"/><path class="cls-2" d="M659.81,341l.47-.16a5.17,5.17,0,0,1,4,.73,4,4,0,0,0,3.89.36c1.33-.72,2.31-1.82,4.62-1.82s22.11-.24,23.81-.24,1.34.85,2.56.85h4.25c1.21,0,1.09-.85,2.19-.85h5.7" transform="translate(-614.19 -109.78)"/><path class="cls-1" d="M711.79,339.9h.5v.5" transform="translate(-614.19 -109.78)"/><polyline class="cls-1" points="98.1 230.71 98.1 231.21 98.6 231.21"/><line class="cls-10" x1="99.64" y1="231.21" x2="111.66" y2="231.21"/><polyline class="cls-1" points="112.18 231.21 112.68 231.21 112.68 230.71"/><line class="cls-1" x1="112.68" y1="229.89" x2="112.68" y2="229.39"/><line class="cls-1" x1="158.75" y1="118.19" x2="158.75" y2="117.69"/><line class="cls-26" x1="158.75" y1="116.73" x2="158.75" y2="96.09"/><path class="cls-1" d="M772.94,205.39v-.5h-.5" transform="translate(-614.19 -109.78)"/><path class="cls-98" d="M771.44,204.89h-3c-1,0-1.89-1-2.84-1s-1.05,1-1.79,1h-3.47c-2.1,0-2.62-.86-6.93-.86H716.86" transform="translate(-614.19 -109.78)"/><line class="cls-1" x1="102.17" y1="94.25" x2="101.67" y2="94.25"/><line class="cls-1" x1="158.75" y1="118.19" x2="159.25" y2="118.19"/><line class="cls-99" x1="160.26" y1="118.19" x2="186.17" y2="118.19"/><line class="cls-1" x1="186.68" y1="118.19" x2="187.18" y2="118.19"/><path class="cls-1" d="M843.61,247a2.73,2.73,0,0,0-.24-.45" transform="translate(-614.19 -109.78)"/><path class="cls-100" d="M842.72,245.78a2,2,0,0,1-.56-1c-.19-.94-1.58-1.7-1.83-2.21s.63-1.26.63-1.89v-3.79a3.06,3.06,0,0,0-.57-2c-.31-.36-.15-1.06.21-1.74" transform="translate(-614.19 -109.78)"/><path class="cls-1" d="M840.86,232.65c.09-.14.19-.27.29-.4h-.5" transform="translate(-614.19 -109.78)"/><polyline class="cls-1" points="225.35 122.47 224.85 122.47 224.85 121.97"/><line class="cls-24" x1="224.85" y1="120.86" x2="224.85" y2="114.79"/><path class="cls-1" d="M839.05,224v-.5h-.5" transform="translate(-614.19 -109.78)"/><path class="cls-25" d="M837.52,223.51h-2.3c-.86,0-.57,1.44-1.43,2.3s-1.15,2.1-2.2,2.39-1.34,1.62-2.1,2.58a4.81,4.81,0,0,1-3.54,1.81,6.87,6.87,0,0,0-3.73,1.06c-.76.57-.86-1.15-1.53-1.34s-.57-1.25-.57-1.82,0-1.62-1.15-1.62-1.53-.86-2.48-1.25-.38-2.48-1.44-2.48a2.94,2.94,0,0,1-1.84-.83" transform="translate(-614.19 -109.78)"/><path class="cls-1" d="M812.83,224l-.36-.35-.48.12" transform="translate(-614.19 -109.78)"/><polyline class="cls-1" points="196.65 114.24 196.17 114.36 196.17 114.86"/><line class="cls-28" x1="196.17" y1="115.8" x2="196.17" y2="117.22"/><polyline class="cls-1" points="196.17 117.69 196.17 118.19 195.67 118.19"/><line class="cls-101" x1="194.78" y1="118.19" x2="188.12" y2="118.19"/><line class="cls-1" x1="187.68" y1="118.19" x2="187.18" y2="118.19"/><path class="cls-1" d="M726.87,339.17h.5" transform="translate(-614.19 -109.78)"/><path class="cls-102" d="M728.36,339.17h6.56c1,0,1.84-.81,3.4-.81h17.06c1,0,1-.91,1.84-1.25s.78-.88.78-1.49-.78-.7-.78-1.66.69-1.4,1.57-1.48,1.31-1.05,2.88-1.49,2.36-1.22,2.36-2,1.05-1.22,2.36-1.22a5.19,5.19,0,0,1,3.75,1.66c.7,1,1.23,1.75,2.19,1.75h2.59" transform="translate(-614.19 -109.78)"/><path class="cls-1" d="M775.41,331.17h.5" transform="translate(-614.19 -109.78)"/><path class="cls-1" d="M775.91,331.17s0,.19,0,.49" transform="translate(-614.19 -109.78)"/><path class="cls-80" d="M776,332.66c0,.61,0,1.27,0,1.65,0,.87,1.57,2.18,2.27,2.8a3.73,3.73,0,0,1,1.39,2.7v3" transform="translate(-614.19 -109.78)"/><path class="cls-1" d="M779.66,343.33v.5h.5" transform="translate(-614.19 -109.78)"/><path class="cls-103" d="M781.14,343.83h9.18c.87,0,1-.44,1.66-.44s.79.62,1.49.62l24.09-.09" transform="translate(-614.19 -109.78)"/><path class="cls-1" d="M818,343.92h.5a1,1,0,0,1-.19-.46" transform="translate(-614.19 -109.78)"/><path class="cls-104" d="M818.69,342.55a2.32,2.32,0,0,1,.89-.55c1-.35.62-1.05.62-1.75v-5.07c0-.87-1.05-1-1.05-1.92v-2.88c0-.61.78-1.14,1.83-1.14s1.92-1.13,2.45-2.27,1.4-.61,2.09-1.57c.56-.76,1-2.24,1.71-3.38" transform="translate(-614.19 -109.78)"/><path class="cls-1" d="M827.52,321.6c.11-.13.22-.26.33-.37" transform="translate(-614.19 -109.78)"/><path class="cls-1" d="M827.85,321.23a.76.76,0,0,0-.16.46" transform="translate(-614.19 -109.78)"/><path class="cls-105" d="M828.06,322.6a2.32,2.32,0,0,0,1.61.87c1.83-.14,2.35-2.06,3.37-.84a3.71,3.71,0,0,1,1.12,3.08c-.28,1.12-.45,1.72.25,1.61,1.17-.54,4.06-1.2,4.82-2.2,1-1.38,0-2.27,1.66-3.85,1.39-1.29-.09-1.83-1.24-3.09-.7-.75-1.81-2.6-2.83-2.64-4.69-.16-.06-4.66.61-7.08a21.16,21.16,0,0,0,.16-4.37c0-1.18-2.39.61-2.32-1.64.09-2.57-2.38.13-2.29-2.45.07-1.79,1-1.15,2.62-1.09,3.93.13,5.54-.3,9.13-2,.56-.26.33-3.75.36-4.46,0-1.16-2.38.6-2.3-1.63s-2.35-.47-2.31-1.63c0-.49,0-1,0-1.48a2.72,2.72,0,0,0-.5-1.05c-1.34-1.41-2.89-3.16-1-4.87s4.23-3.08,4.11.38c-.06,1.67,0,5.12,2.55,5.21,2.15.07,2,.22,2.07-1.94,0-.49.95-.5,1.69-.41.28,0,.68.08.13-.47-1-1-1.91-2.05-2.87-3.08-1.49-1.59-.35-1.81-1.07-3.6-.52-1.32-2.29-1.63-2.24-3.2s.1-2.9.16-4.36c.08-2.44.14-1.81,2.41-1.9,1.44,0,2.94.11,4.38.16,3.23.11,2.94-4.9,3-5.82,0-.57-.9-.29-1.25-.08-1.42.89-4.86,2.16-6.18.74-2.55-2.74-2.68-3.62-.36-5.93.65-.7,1.17-.36,1.14-.17-.49,2.69.9.5,2.17,1.88.67.72,2.71,2.67,3.5,2.52,1-.17,1-.36,1.07-.62s-.3-1.64.26-2.16,2.1-1.48,2.19-2c.27-1.56-2.25-3.51-2.19-5.2a4.39,4.39,0,0,1,2.52-4.27c.41-.2,1.25.12,1.82.14" transform="translate(-614.19 -109.78)"/><path class="cls-1" d="M858.43,247.49a.41.41,0,0,0,.11-.29.41.41,0,0,1,.05-.17h-.5" transform="translate(-614.19 -109.78)"/><line class="cls-20" x1="242.96" y1="137.25" x2="230.38" y2="137.25"/><line class="cls-1" x1="229.92" y1="137.25" x2="229.42" y2="137.25"/><path class="cls-1" d="M616.07,199.17c0,.16,0,.33,0,.5" transform="translate(-614.19 -109.78)"/><path class="cls-106" d="M616,200.66l-.51,14.52c-.1,2.89-1.32,4.9,1.82,5,1.13,0-.47,2.34.66,2.38,2.15.08,1,0,1,2.15,0,1.16,2.4-.61,2.32,1.63-.09,2.54,1.16,0,2.32,1.27s-1.42,2.32,1.1,2.4c.63,0-.42,1.82.5,1.78a2.75,2.75,0,0,1,2.24,2c0,.43-.22.85,0,1s.79,0,1.38,0a1.64,1.64,0,0,1,1.24,1.37" transform="translate(-614.19 -109.78)"/><path class="cls-1" d="M630.09,236.64a4,4,0,0,1,0,.5h.5" transform="translate(-614.19 -109.78)"/><line class="cls-95" x1="17.44" y1="127.36" x2="54.48" y2="127.36"/><path class="cls-1" d="M669.16,237.14h.5v-.5" transform="translate(-614.19 -109.78)"/><path class="cls-90" d="M669.66,235.59v-3.8c0-1.21.69-1.73.87-2.77s1.55-2,1.81-1.2,1.08.7,1.81,1a6.41,6.41,0,0,0,2.53.15" transform="translate(-614.19 -109.78)"/><path class="cls-1" d="M677.2,228.85l.49-.08" transform="translate(-614.19 -109.78)"/><path class="cls-1" d="M634.87,111.56h-.49" transform="translate(-614.19 -109.78)"/><path class="cls-107" d="M633.37,111.55c-5.17,0-10.35-.22-15.58-.4" transform="translate(-614.19 -109.78)"/><path class="cls-1" d="M617.28,111.14l-.51,0c0,.16.05.33.07.49" transform="translate(-614.19 -109.78)"/><path class="cls-108" d="M617,112.61c.68,5.1,1.76,10.25,1.58,15.4q-.33,9.36-.65,18.7l-1.11,31.71-.69,19.74" transform="translate(-614.19 -109.78)"/><path class="cls-1" d="M616.08,198.67v.5" transform="translate(-614.19 -109.78)"/><path class="cls-1" d="M663,110.8h-.49" transform="translate(-614.19 -109.78)"/><path class="cls-109" d="M661.48,110.82c-4.07.06-8.15.19-12.29.42-4.47.25-8.89.33-13.31.32" transform="translate(-614.19 -109.78)"/><path class="cls-1" d="M635.37,111.56h-.5" transform="translate(-614.19 -109.78)"/><path class="cls-1" d="M688.3,111.26l-.5,0" transform="translate(-614.19 -109.78)"/><path class="cls-110" d="M686.83,111.21l-2.71-.1c-6.81-.24-13.47-.37-20.15-.32" transform="translate(-614.19 -109.78)"/><path class="cls-1" d="M663.48,110.79H663" transform="translate(-614.19 -109.78)"/><path class="cls-1" d="M721.14,156.48a4,4,0,0,1,.2-.46" transform="translate(-614.19 -109.78)"/><path class="cls-111" d="M721.88,155.15c.58-.81,1.16-1.34,1-2.4-.22-1.53-1.1-5-.22-6.34s3.28-2.63,3.28-4.16v-3.38" transform="translate(-614.19 -109.78)"/><path class="cls-1" d="M726,138.36v-.49h.5" transform="translate(-614.19 -109.78)"/><line class="cls-87" x1="113.19" y1="28.09" x2="120.21" y2="28.09"/><path class="cls-1" d="M734.87,137.87h.5v-.5" transform="translate(-614.19 -109.78)"/><path class="cls-16" d="M735.37,136.36V134.8c0-1.09-.88-1.53-.88-2.41s1.75-.65,1.75-1.75V113.83" transform="translate(-614.19 -109.78)"/><path class="cls-1" d="M736.24,113.33v-.5h-.5" transform="translate(-614.19 -109.78)"/><path class="cls-112" d="M734.74,112.82c-15.14-.16-30.3-.94-45.44-1.52" transform="translate(-614.19 -109.78)"/><path class="cls-1" d="M688.8,111.28l-.5,0" transform="translate(-614.19 -109.78)"/><path class="cls-1" d="M677.69,228.77c.07.16.13.31.18.46" transform="translate(-614.19 -109.78)"/><path class="cls-91" d="M678.22,230.15c.35.89.69,1.42,1.59,1.5a7.29,7.29,0,0,0,2.87-.28c.84-.28,1.39,1.85,2.23.93a4.4,4.4,0,0,1,2.63-1.77" transform="translate(-614.19 -109.78)"/><path class="cls-1" d="M688,230.46l.5,0v-.5" transform="translate(-614.19 -109.78)"/><line class="cls-92" x1="74.33" y1="119.25" x2="74.33" y2="114.21"/><path class="cls-1" d="M688.52,223.53V223h.5" transform="translate(-614.19 -109.78)"/><path class="cls-93" d="M690,223h8.31c1.2,0-.84-1.3-1.3-1.95s-1.3-.83-1.3-2.31.56-1.67,1.3-2.41.37-1.3.37-2.14-.84-.64-1.39-1.48a2.3,2.3,0,0,1-.46-2.22,7.28,7.28,0,0,0,.18-2.41,4.44,4.44,0,0,0-1.76-2.5,5.42,5.42,0,0,1-.69-.62" transform="translate(-614.19 -109.78)"/><path class="cls-1" d="M693.08,204.53a3.63,3.63,0,0,1,0-.5" transform="translate(-614.19 -109.78)"/><polyline class="cls-1" points="78.87 94.25 78.95 94.25 79.37 94.25"/><polyline class="cls-113" points="80.36 94.25 101.67 94.25 111.5 94.25"/><path class="cls-1" d="M726.18,204h.5s.08-.19.21-.45" transform="translate(-614.19 -109.78)"/><path class="cls-22" d="M727.36,202.67a3.23,3.23,0,0,1,.59-.73,2.67,2.67,0,0,0,.94-2.31c-.21-.63-.73-1-.1-1.47s1.26-.84,1.26-1.79.94-1.89.94-3.05v-14.4c0-.84-.73-1.47-.73-2.31V172" transform="translate(-614.19 -109.78)"/><path class="cls-1" d="M730.26,171.48V171h-.5" transform="translate(-614.19 -109.78)"/><line class="cls-89" x1="114.66" y1="61.21" x2="107.89" y2="61.21"/><polyline class="cls-1" points="107.44 61.2 106.94 61.2 106.94 60.7"/><line class="cls-114" x1="106.94" y1="59.67" x2="106.94" y2="47.72"/><line class="cls-1" x1="106.94" y1="47.2" x2="106.94" y2="46.7"/></svg>