<svg id="base_map" data-name="base map" xmlns="http://www.w3.org/2000/svg" viewBox="0 0 483.25 253.55"><defs><style>.cls-1{fill:#015067;stroke:#fff;stroke-width:0.84px;}.cls-2{fill:none;}</style></defs><path class="cls-1" d="M642.93,336.36c-.92-.28.59-1.77.22-2.23s-.39.39-1.09-.22-.32-1.76-1.15-2.28.34-1.12.81-2.87c.25-.93-1-1.21-.85-2.17.23-2.09,1-1.32,1-3.25,0-1.19.08-2.37.13-3.56a3.6,3.6,0,0,1,.06-1.85c.47-1.22,2.78-.37,3.45-2.79.22-.74-1.13-1.82-1-3a1.74,1.74,0,0,1,2.11-1.73c.13,0,.3-.13,0-.38l-1.32-1.42c-.17-.19-.08-.47.11-.45,2.89.36,1.34-2.74,2-4.13.5-.93-.07-1.15,0-1.79.1-2.62,1.37.19,2.43-1.11.68-.83,1-3.77,1.1-5.43,0-.27,0-.71-.29-.37-.56.56-1,1.14-1.62,1.69-.21.25-.57.32-.47-.21s0-.87,0-1.3-.34-.54-.52-.52c-13.24,1.56-29.36,1.68-43.44,2.07q-4.78.14-9.58.22v7.95a9.07,9.07,0,0,0,1.87,5.28,7,7,0,0,1,1.43,3.52,2.84,2.84,0,0,0,1,2.31,2.51,2.51,0,0,1,1.1,2.31c0,1.1-.11,2.2.55,2.86s.55,2,1.54,2.74.77,1.65.77,2.64.77,2.2.77,4.29a11.61,11.61,0,0,0,5.49.77c2.31-.22,2.53,1.21,4.84.88,2.72-.39,2.42,1.65,4.62,1.65,2.64,0,4.6-.35,5.61.33,1.64,1.1,1.75,1.59,3.84,1.59C630,336.36,638.58,336.41,642.93,336.36Z" transform="translate(-168.03 -83.25)"/><rect class="cls-2" width="18.83" height="32.37"/></svg>