<svg id="base_map" data-name="base map" xmlns="http://www.w3.org/2000/svg" viewBox="0 0 382.38 289.9"><defs><style>.cls-1{fill:#015067;stroke:#fff;stroke-width:0.84px;}.cls-2{fill:none;}</style></defs><path class="cls-1" d="M544.69,368.41c-.44-.88-3.08-1.21-4.17-2.75s-2.42-1.32-2-2.53a4.06,4.06,0,0,0-1.21-3.85c-1-1,.77-1.65.77-2.64V352.8c0-1.21-1.32-1.87-.33-3s.33-3.74-.55-4.51.66-1.76,1.21-2.53,1.65-.55,2.75-1.21.21-2,1.09-2.42,1.65-.77,1.87-1.75,1.65-2.09,2-2.86c.62-1.45,1.16-1.76,2.42-1.76s1.42-2.47,1.42-2.47h-1.68c-1.26,0-1.37-.73-2.94-.73s-2.53.73-3.79.73H524.73c-1.58,0-2.31,1.16-3.47,1.16h-8.62c-1.47,0-1.26,2.1-1.89,2.84a4.76,4.76,0,0,1-2.42.94l-.63,2.63s1.69.6,1.51,1.63-.58,1.1-1.1,1.79-1.56.78-1.56,2.07.69,2.33,1.56,2.33h3.19a1.94,1.94,0,0,1,2.07,1.38c.18.87.61,1.64-.43,2.33a12.58,12.58,0,0,0-2.5,1.64c-.61.69-.18,1.56,1.9,1.56a9,9,0,0,0,4-1c.69-.26,1.38.87,1.38,2.59v5.61c0,1.73-.78,2.94-1.29,4.32s-1.9,1.47-2.34,2.59-1.2,2.42.44,3,2.07.35,3.45-.08,2.59-1,3.37-.18,1.46,1.3,1,1.56-1.05.75-1.05.75c1.59,0,1,1,2.81,1h9.53c.8-1.64,1.83-2.67,3.13-2.93s1.9-.09,3.71.43a3.21,3.21,0,0,0,3.28-.86C544.11,369,544.69,368.41,544.69,368.41Z" transform="translate(-168.03 -83.25)"/><rect class="cls-2" width="18.83" height="32.37"/></svg>