<svg id="base_map" data-name="base map" xmlns="http://www.w3.org/2000/svg" viewBox="0 0 219.85 367.93"><defs><style>.cls-1{fill:#015067;stroke:#fff;stroke-width:0.84px;}.cls-2{fill:none;}</style></defs><path class="cls-1" d="M340.55,401.94v-1.82H285.37a30.28,30.28,0,0,1-4.43,4.41c-2.84,2.64-4.69,3.65-4.83,7.63-.15,4.16-5.22,10.8-9.5,10.65-.73,0-.47,2.75-.5,3.55-.05,1.53.6,1.86,1.66,3,.83.9-.07,2.36.51,3,.79.88,2-.62,2.72.84,1.18,2.58,2.26,6,5.28,3.15l3.72-3.44c.53-.5,1.91.08,2.62-.07l9.3-2c1.89-.4,3.92.34,5.85-.07,5.48-1.19,10.23-2.57,15.73-1,2.71.78,6,2.92,8.18.86,1.83-1.72,3.86-1.06,6.33-1,5.12.18,10-.24,14.75,1.85,4.94,2.19,9.82,5,14.85,6.89,5.62,2.12,11.25,4.21,16.87,6.31a25.48,25.48,0,0,1,6.23,3.66c2.58,1.86,3.5,2.22,6.63,2.33h.11v-48.8h-46.9Z" transform="translate(-168.03 -83.25)"/><rect class="cls-2" width="18.83" height="32.37"/></svg>