<svg id="base_map" data-name="base map" xmlns="http://www.w3.org/2000/svg" viewBox="0 0 362.69 51.8"><defs><style>.cls-1{fill:#015067;stroke:#fff;stroke-width:0.84px;}.cls-2{fill:none;}</style></defs><path class="cls-1" d="M507,90.8c-.29.87,1.17,1,.39,2.14s-1.36,1.46-1,3.61-1.75,2-2.63,2.92-1.07,3.21-.58,4.48a13.06,13.06,0,0,1,.68,4.38c0,1.46-.2,3.31-.88,4s-2.34,1.85-2.43,3.32a2.6,2.6,0,0,1-1.56,2.24,2,2,0,0,0-.68,2.43c.48.88-.2,3.8-.2,5.55s-1.07,1.85-1.95,2-1.65,2.14-1.65,2.14,0,1.27.39,1.37c.6.15.91.81.68,1.75a5.32,5.32,0,0,1-.78,1.56h24.06c1,0,1.57-2.16,2.24-3s2.34-.88,4.23-.79c.43-.56,2.33.81,2.37-.29,0-.61-.3-2,.44-2,2.77.1,2.05-1,2.14-3.46.05-1.38-.69-2.09-1.58-3-.54-.52-.83-.73-.77.83.13,3-1.08,5.55-5.26,5.4-1.73-.06-4.41.67-4.34-1.33.06-1.58.11-3.15.17-4.72.09-2.57,2.37.3,2.49-3.09,0-.81,4.34-2.69,5.15-2.66,1.58,0,2,.52,2-1.12,0-.88.29-1.1-.48-1.38l-6-2.24c-2.22-.82-2.18.66-2.07-2.26.05-1.58.77-3.15.83-4.72.09-2.65.32-3,2.28-4.78,1-.9,2.55-.08,3.86-1.3,1.55-1.45,3.37-7.2,1.8-8.9a31,31,0,0,1-2-4.17c-.5-1.08-1.83-.88-3.57.74-.29.87.37,1.19,1.07,1.75s-2.63,1-1.23,2.93c1.59,2.22,1.24,1.81-.71,3.64-.68.64-2.83.15-3.81.11-1.75-.06-1.11-.8-1.09-2.41,0-2.13.12-2.4,1.66-3.85.62-.57,1.67-2.24.94-3.15-.6-.76-8.36-.21-9.49-.25l-1.07,0v.1C509.12,88.36,507.27,89.92,507,90.8Z" transform="translate(-168.03 -83.25)"/><rect class="cls-2" width="18.83" height="32.37"/></svg>