<svg id="base_map" data-name="base map" xmlns="http://www.w3.org/2000/svg" viewBox="0 0 264.09 318.46"><defs><style>.cls-1{fill:#015067;stroke:#fff;stroke-width:0.84px;}.cls-2{fill:none;}</style></defs><path class="cls-1" d="M421.24,355.64H386.6a2.51,2.51,0,0,0,.73,2.07c1,1.21,1.7,1.82,1.7,2.55v3.16a3.09,3.09,0,0,1-1.7,2.31c-1,.48-.85,1.21-.6,2.06a3.52,3.52,0,0,1,.24,2.44c-.37.72-1,1.33-.49,1.94s.37,1,.37,1.82v7.29c0,1,0,1.58,1,2.07s3,.73,2.31,2.07-1.58,1.82-1.58,3-.61,1.83-1.34,2.8-.36,1.7-.36,2.43a9.64,9.64,0,0,0,1.09,2.67,10.5,10.5,0,0,1,3.65-.72c.73,0,1-1.58,2.06-1.22a6.45,6.45,0,0,1,3.28,2.43,3.22,3.22,0,0,0,2.68,1.58,4.4,4.4,0,0,1,3,1.22c.73.85,2.44,2.3,3.77,1.33s3-.85,4-1.94,1.22-2.31,2.19-2.68a4.31,4.31,0,0,0,2.07-2.55c.24-.85,1.21-.73,1.94-1.58s1.34-.6,2.07-1.21,2.55-1.95,2.55-2.92v-3.4c0-.85,1.21-1.95,2.31-2.07a2.47,2.47,0,0,0,2.06-1.46c.37-.72,1.82-.6,2.31-.85s-.24-2.06.24-2.79a5,5,0,0,1,1.95-1.95c1.09-.6.36-.72,1.21-1.33s0-2.43,0-2.43h-1.7V369.5c0-.73-1.46-.85-1.46-1.95V359.9h-6.92Z" transform="translate(-168.03 -83.25)"/><rect class="cls-2" width="18.83" height="32.37"/></svg>