<svg id="base_map" data-name="base map" xmlns="http://www.w3.org/2000/svg" viewBox="0 0 458.9 218.67"><defs><style>.cls-1{fill:none;stroke:#754c29;stroke-linecap:round;stroke-linejoin:round;}</style></defs><path class="cls-1" d="M720,419.34c.72-.73.85-1.82-.61-1.82H710.1V406.34h-2.91V393.58h-9.12v-2.32H674.86v-9.72h-6.68c-1.7,0-3.28.61-3.28,1.22s1.21,1.09,1.21,2.06v6.44H640.2c0,.59,0,1.18-.07,1.77l-.12,3.55a4.6,4.6,0,0,0-.06,1.63c.2,1.13,1,1.83,2,2.87a1.19,1.19,0,0,0,.91.34l1.37,0c.72,0,.27,2.77.24,3.56-.06,1.7.41,4.09-.3,5.26-.16.26-.49.63-.42.66a.94.94,0,0,1,.5.52,3.29,3.29,0,0,1-.07,1.85c0,.79,0,1.59-.08,2.38l1.65,1.76c.21.22-.17.52-.47.53-2.12,0-1.2,2.66-1.43,4.79-.14,1.35.18,1.82-.73,2-.57.1-.57.41.15.57s.58,1.14.26,1.74a7.24,7.24,0,0,1-.48.79h55.18v1.82H710.1v-4.38h9c1.45,0,1.21-1,.6-1.58s-1.7-.85-1.7-2.06C718,420.68,719.22,420.07,720,419.34Z" transform="translate(-623.24 -324.47)"/><path class="cls-1" d="M698.19,429.67v-1.82H643a30.71,30.71,0,0,1-4.42,4.41c-2.84,2.64-4.7,3.65-4.84,7.63-.14,4.16-5.21,10.8-9.49,10.65-.73,0-.47,2.75-.5,3.55,0,1.53.59,1.86,1.65,3,.84.91-.06,2.37.51,3,.79.88,2.05-.63,2.72.84,1.19,2.58,2.26,6,5.29,3.15l3.71-3.44c.53-.5,1.91.08,2.63-.07l9.3-2c1.88-.4,3.92.34,5.85-.08,5.47-1.18,10.22-2.56,15.72-1,2.71.78,6,2.92,8.19.86,1.83-1.72,3.86-1.06,6.32-1,5.12.18,10-.24,14.76,1.85,4.94,2.19,9.81,5,14.85,6.89,5.62,2.12,11.24,4.21,16.87,6.31a25.35,25.35,0,0,1,6.23,3.66c2.58,1.85,3.49,2.22,6.63,2.33h.11v-48.8H698.19Z" transform="translate(-623.24 -324.47)"/><path class="cls-1" d="M933,382.17v-17H901.79c-.22,1-1,1.32-1.87,1.76s0,1.76-1.1,2.42-2.2.44-2.75,1.21-2.09,1.76-1.21,2.53,1.54,3.41.55,4.51.33,1.76.33,3v3.84c0,1-1.76,1.65-.77,2.64a4.06,4.06,0,0,1,1.21,3.85c-.44,1.21.88,1,2,2.53s3.74,1.87,4.18,2.75.66.77,1.21,1,2.2.1,2.86,1.09,2.86,1.32,3.18,3.41.66,2.86,1.65,3.08a2.52,2.52,0,0,1,2.2,2.09,3.67,3.67,0,0,0,2.86,2.42c1,.22.33,2.09,1.32,2.42s1.76.77,1.54,1.87a1.73,1.73,0,0,0,1.87,1.86c.88-.11,1.54-.76,1.87-2.08a5.65,5.65,0,0,1,2-3.09c1.53-1.21,1.69-.07,2.85.66.88.55,1.87-.76,2.75.23s.44,2.2,1.76,2.2h3c.66,0,1.76-1.43,2.31-2.64a13.24,13.24,0,0,1,1.8-2.68,31.7,31.7,0,0,1,2.08-2.86c.84-1,1.14-3.1,2.07-4.66l3.75-3.91a16,16,0,0,1-2.66-4.57c-.48-1.46-4,3.95-4.95,3.73s-1.21-.55-1-1.65-.55-1.1-.88-2.53-1.21-1.54-2.53-2.53-.88-1.32-1-3.08S933,384.15,933,382.17Z" transform="translate(-623.24 -324.47)"/><path class="cls-1" d="M883.69,427.52v-4.63s1.64-.44,1.79-1.19a37.94,37.94,0,0,0,0-4s1-.6,1.34-3.13,1.19-1.94,2.38-6.12,2.22-4,2.08-8c.8-1.64,1.84-2.68,3.13-2.93s1.9-.09,3.72.43a3.22,3.22,0,0,0,3.28-.86l.93-1c.44.88.66.77,1.21,1s2.2.1,2.86,1.09,2.86,1.32,3.18,3.41.66,2.86,1.65,3.08a2.52,2.52,0,0,1,2.2,2.09,3.67,3.67,0,0,0,2.86,2.42c1,.22.33,2.09,1.32,2.42s1.76.77,1.54,1.87a1.73,1.73,0,0,0,1.87,1.86c.88-.11,1.54-.76,1.87-2.08a5.65,5.65,0,0,1,2-3.09c1.53-1.21,1.69-.07,2.85.66,0,0-.55,1.45-1,2.42a18.1,18.1,0,0,0-.73,3.06,8.21,8.21,0,0,0-3,.73,31.67,31.67,0,0,1-6.87,1.49c-1.34,0-2.53,1.65-4.18,1.5s-4.62.74-6,.74-2.84,1.49-4,1.49-1.94,1.65-2.84,2.54-2.38.77-2.38,2.24a10.18,10.18,0,0,0-2.66-.79c-1.33-.15-1.66-.9-4.06-.42-1.41.28-.85.42-2.39.14s-1.4-.42-2.24.42A4.67,4.67,0,0,1,883.69,427.52Z" transform="translate(-623.24 -324.47)"/><path class="cls-1" d="M947.22,396.54c6.07-6.41,15.53-6.38,15.53-6.38s-.5-18.54-.5-19.75-.88-1.21-.88-2.09,1-1,1-2.09-.77-1.54-.77-2.75v-4.61c0-2.09-.77-3.3-.77-4.29s.22-1.87-.77-2.64-.87-2.09-1.53-2.75-.55-1.76-.55-2.86a2.49,2.49,0,0,0-1.1-2.3,2.84,2.84,0,0,1-1-2.31,7,7,0,0,0-1.43-3.52,9,9,0,0,1-1.87-5.28V325c-6.53.11-13.07.17-19.57.18v57c0,2,1.1,2,1.21,3.74s-.33,2.09,1,3.08,2.2,1.1,2.53,2.53,1.1,1.43.88,2.53,0,1.43,1,1.65,4.78-5.27,4.89-3.73C944.87,393.51,947.22,396.54,947.22,396.54Z" transform="translate(-623.24 -324.47)"/><path class="cls-1" d="M1005.37,407c2.24-.14,2.15,1.86,3.42,3.68s-3.2,6.35-1.1,5.09,2.24,1.26,3.64,1.12,1.54-2.53,3.51-1.26a6.94,6.94,0,0,0,3.24,1.24h.06c1,0,0-1.93.64-2.5,1.22-1.13,1.79-2.12,3.46-2.06.72,0,3,.47,3.55.12,1.37-1-1.06-2.4.69-2a2.19,2.19,0,0,0,1.86-.81c.6-1.07-1.42-2.6-2.13-.48a1.87,1.87,0,0,1-2.71.82,3.36,3.36,0,0,1-.79-1.1,13.28,13.28,0,0,1-1.39-4.1c.12-3.57-2.37-.49-2.24-4.08.06-1.62-1.43-1.9-.72-2.86s1.46-6.13,1.06-7-1.22,3.64-2.43,2.29-1.67-3.73-2.2-4.83.07-1.88.13-3.55-.39-1.2-2-1.25c-.81,0-.21-1.72-.29-2.39s.52-2.36-.28-2.38c-1.58-.06-2,.37-2-1.26.05-1.3-1.65-1.37-2.5-1.43s-1.24-1.37-2.11-2.27.57-1.58.08-2.38-1.57-.38-2.52-.23-.35-1-1.31-1.45.64-.81-.6-1.81,0-3.56-.89-3.84c-4.36.05-12.93,0-14.58,0-2.09,0-2.2-.5-3.85-1.6-1-.67-3-.33-5.61-.33-2.19,0-1.89-2-4.61-1.64-2.31.33-2.53-1.1-4.84-.88a11.67,11.67,0,0,1-5.5-.77v4.61c0,1.21.77,1.65.77,2.75s-1,1.21-1,2.09.88.88.88,2.09.5,19.75.5,19.75c2,0,9.86.91,11.68,1.75a21.76,21.76,0,0,0,4.93,1.86c1.54.28,3.35,2.55,6,3s-.06,5.95,3.16,5.39,6.83,2.57,9.21,1.45S1003.12,407.14,1005.37,407Z" transform="translate(-623.24 -324.47)"/><path class="cls-1" d="M1001.44,426c.84-.79,2.31.15,3.42-.89,1.72-1.61,1.46-1.61,3.07.11,3.13,3.34,3.25-1.08,3.33-3.44,0-.73,2.76-.27,3.56-.24,1.89.06,1-.71,1.26-2.31.43-2.23-.51-2.41,2-2.32a6.94,6.94,0,0,1-3.24-1.24c-2-1.27-2.11,1.12-3.51,1.26s-1.54-2.39-3.64-1.12-4.49,3.22-5.75,1.4-.84-3.79-3.08-3.65,1.7-2.58-.69-1.46-6.57,5.94-8.46,9.57c-1.51,2.9-3.59,1.12-5.56,2.75a6.64,6.64,0,0,1-5.75,1.33l-4.71,0c0,2,.5,1.59.36,4.68,0,0-1,4.86-1,6.07,0,2.44-1.09,3.48-1.09,4.77s.68,2.13,1.45,2.13h2.75a3.28,3.28,0,0,0,2.29-.88c.93-.73,2-1.35,2.69-.88s2.29,2.64,3.32,3.58c.52-.47.52-1,2.08-1.15s2.12.42,3.42.84,1.56,1.71,2.7,3.42a3.32,3.32,0,0,0,.88-1c.36-.62-.16-1.92-.67-3.78s-2.6-1.82-4.15-1.66-2.34-.78-3.79-1.77-.62-2-.16-3,2.08-3.06,3.48-2,2.9.26,4.93-1,2.07,1.14,3,1.34,1.71-1.45,2.77-2.57C998,430,999.62,427.66,1001.44,426Z" transform="translate(-623.24 -324.47)"/><path class="cls-1" d="M1013,461.1c.72,3.29,3.79,3.13,3.79,1.72,0-1.86,4.58-1,7.24-1.05-.41-4.52-4.75.33-4.59-4.19,0-1.61-.55-2.75,1.27-2.68,1.14,0,1.4.49,1.3,1.37-.35,1,.21.66.46.46,1.72-1.38,4.52-3.24,4.16-.29-.28.68-.1,1.25.63.42.92-1.05,1.43-2,2.55-.81,1.57,1.68,1.65,1.37,3.85,1.66s2.28,0,3.84,1.68a2.87,2.87,0,0,0,2.52,1c.62.05.34-.74.19-1.09l-1.32-2.86c-.38-.88,0-1.19,1.28-1.24a3.51,3.51,0,0,0,3.11-1.86c1.32-2.29-.78-2.41,2.84-2.28,2.76.09,2.06,1.48,4.28,2.52a9.45,9.45,0,0,0,3.52.2c.88,0,.74-.54.52-.76a4.72,4.72,0,0,1-1.53-2.34c-.08-1.08-.64-1.15-1-.86-1.73,1.46-3.84,2.65-3.73-.69.06-1.49-1.47-2.39-2.94-2.75-1.7-.36-.9-1.06-.4-1.55a2.48,2.48,0,0,1,1.52-.9c1.1,0,3.36.52,4.37.16,1.69-.61,1.63-2.31,3.63-2.24,1.45,0,2.14-.73,3-1.68.56-.48.56-1-.28-1-2.35-.08-4.6.24-7,.16-1.5.05-1-.75-.55-1.23,1.28-1.44,3-3.41,4.16-3.37,2.93.1,4.34,1.06,4.45-2.22,0-1.61.63-2.33-1.1-2.39s-1.16-.49-1.1-2.06c.08-2.34-4.33,1.4-4.63,1.68-1.39,1.31-1.94,4.87-2.61,6.65-.27.75-2.66.63-4,.41-.55-.09-1.25,0-.89-1.21.31-1.08.68-2.33.12-3.38-.27-.5-1.92-.06-2.35-.28-1.28-.65-2.75-2.69-3.88-4.1-.57-.59-.31-1,.42-.75,1.76.6,2.32-2.29,4.07-2.23,1.58,0,2,.51,2-1.13,0-1.05.3-1.18-.7-1.22-2.1-.07-4.24-.05-6.34-.22-1.84-.14-2.48-.35-3.35-1.15-.36-.33-1.43-.69-1.48,1.44,0,1.73-.8,2.69-2.78,4.54-1.22,1.14-1.66,2-3.31,1.93-1.81-.06-1.09.69-1.27,2.31-.26,2.45-.17,5-.26,7.46-.12,3.62-.75.34-2.44,1.92-1.24,1.16,1.26,2.41-1.26,2.32-2.21-.07-6.29.59-8.28-.29-1.82-.8-3.54-5.44-2.12-7.17s2.31,1.81,2.44-1.91c0-.69-2.13-.66-2.61-.22-2,1.86-3.68,1.94-5.59,3.14a2.73,2.73,0,0,1-2.22-.18c-1.57-.65-2.72-.64-3.79-3.61-1.06,1.12-1.84,2.78-2.77,2.57s-1-2.59-3-1.34-3.53,2-4.93,1-3,1-3.48,2-1.29,2,.16,3,2.23,1.92,3.79,1.77,3.63-.21,4.15,1.66,1,3.16.67,3.78a3.32,3.32,0,0,1-.88,1,22.52,22.52,0,0,0,2,4c1.5,1.86.5,2.5,2.29,3.29,1.43.63,3.14-.79,4.79-.57s2.28,2.37,2,3.14c-.36,1-.06,1.3,1.07,1.65a5.33,5.33,0,0,0,3.44-.36,2,2,0,0,1,2.93.21C1012,460.42,1012.52,458.71,1013,461.1Z" transform="translate(-623.24 -324.47)"/><path class="cls-1" d="M1081.22,511.53c-1.73-.06-2.33-.13-2.07-1.72.23-.67-.08-.67-1.31.06-1.77,1.06-4.46,2.3-5.71,1.34s1.52-2.3-1.1-2.39c-2.27-.08-.35-.91-1.1-2.42-.48-1-1.81-1.5-2.29-2.46-.75-1.5,1.17-2.32-1.1-2.4s-.37-.91-1.1-2.43c-.29-.59-2.1-2.62-2.55-2.2-1.22,1.13-2.18,1.57-2.24,3.23,0,1.35-.91,1.75-2.41,1.11-2.65-1.13-1.39-4.8-3.37-4.87s-5.95.68-5.88-1.38c.08-2.25-.88-.41-2.32-1.25a8,8,0,0,1-1.79-1.87c-.2-.37-.77-.53-.62.15.43,1.86-1.11,1.59-3.08,1.52-2.42-.08-4.09.58-4-1.63.24-.77-.12-.77-.56-.58l-3.11,1.43c-1.12.66-.94-.16-.93-.43.07-1.62-.79-2.28-2.08-3.65-.38-.41.85-1.43,1.66-2.09.49-.28.65-.59-.7-.5a8.24,8.24,0,0,1-3.63-.5c-.36-.35,0-2,.21-3.32,0-.47.36-1.41-.72-.6s-3.21,1.94-4,1.77-2.55-2.94-3.09-3.33c-.7-.5-1.9-1-3.12-1.8a1.23,1.23,0,0,1-.51-1.66c.29-.85.85-1.22,1.74-2,.2-.19.72-.88-.63-.72s-1.14-.86-1.09-2.56c.08-2.31-.25-2.39,2.09-2.31.74,0,.47-2.74.5-3.54.06-1.82,1.15-1.15,2.77-1.09,1.16,0,6.8.82,8.23.52.89,1.38-.65,2.12,2.8,2.24.71,0,1.46,1,2.06,1.73.43.75.8.39.81-.38,0-1.32-.44-1.61-2-1.67-1.11,0-1.95-2.85-3.62-2.46-1.14-.31-1.55.21-3-1.33-.69-.74-3.11-.62-3.17-1.31-2.66.05-7.24-.81-7.24,1.05,0,1.41-3.07,1.57-3.79-1.72-.52-2.39-1-.68-1.78-1.5a2,2,0,0,0-2.93-.21,5.33,5.33,0,0,1-3.44.36c-1.13-.35-1.43-.65-1.07-1.65.28-.77-.36-2.93-2-3.14s-3.36,1.2-4.79.57c-1.79-.79-.79-1.43-2.29-3.29a22.52,22.52,0,0,1-2-4c-1.14-1.71-1.4-3-2.7-3.42s-1.87-1-3.42-.84-1.56.68-2.08,1.15a8.3,8.3,0,0,0-1.91,3.58c-.23,1.35-1.35,1.91-2.36,2.58s-2.69,1.68-2.24,2.8a6.32,6.32,0,0,1,.45,4.15c-.45,1.57.22,4.26,1.46,4.94s.89,2.24,1.23,2.91,1.79,1.57,2,2.36,1.68,2,1.68,3.36,1.23,1.46,1.23,2.69v4.93c0,1-.56,1.35-.56,2.25s.79.67.79,1.57a17.3,17.3,0,0,0,.67,4.37,4.83,4.83,0,0,1,2.68-.62l5.47.19c2.76.1,2.17-1.43,4.45-2.22,3.07-1.06,2.32,1.72,2.25,3.64-.08,2.4-.34,3.33,1.35,5.13,1.35,1.43.71,3.49.65,5.4,0,.56,0,1-.06,1.43-.21,1.2-.26,1.9.73,1.51,2.35-.94,5.43-.16,8-.08,1.81.07,3.63,1.61,5.18,2.46,1.18.64,2.7.27,4,1,3.74,2,6.79,4.22,11.09,4.37,2.06.07,2.54,2.47,4.13,2.52s3.58.57,4.28,2.52c.29.8-.73,4.71.21,4.74,2.92.1,2,1.33,1.87,4.06,0,1,2.45,1,3.48,2.06a12.07,12.07,0,0,0,3.49,1.68c.26.86-.39,2.81-.93,4.76-.31,1.09-1.77,2.59-2.58,3.47s-3.52,2.26-3.57,3.71c-.06,1.67,0,2.15.71,2.92,1,.94,1.85-.19,2.26-.9a27.9,27.9,0,0,0,1.35-2.57c.43-1,0-2,.64-2.64,2.28-2.13,3.91-8.27,6.87-9,1.11-.26,3.57.13,4.74.17,2.33.08,2.38-.29,2.3,2.08-.1,2.77,3.43,2.95,5.75,3,.57.11,1.55-.25.19-1.13-.4-.43-1.07-1.46-.23-2.27,1.79-1.73,3.34-3.63,5.89-3.54,5.43.19.54-2.43,3.09-4.81,1.68-1.58,2.26-1.83,2.34-4.12,0-1.16,2.36.78,2.44-1.46C1081.5,514.3,1082,511.56,1081.22,511.53Z" transform="translate(-623.24 -324.47)"/><path class="cls-1" d="M980.05,490.33c.61.61,1.52,2.92,2.62,3.16.09-2.58-.79-4.38,2.15-4.28.91,0,1.5-1,2.14-1.58a17.3,17.3,0,0,1-.67-4.37c0-.9-.79-.68-.79-1.57s.56-1.24.56-2.25v-4.93c0-1.23-1.23-1.35-1.23-2.69s-1.46-2.58-1.68-3.36-1.68-1.69-2-2.36,0-2.24-1.23-2.91-1.91-3.37-1.46-4.94a6.32,6.32,0,0,0-.45-4.15c-.45-1.12,1.23-2.13,2.24-2.8s2.13-1.23,2.36-2.58a8.3,8.3,0,0,1,1.91-3.58c-1-.94-2.64-3.12-3.32-3.58s-1.76.15-2.69.88a3.28,3.28,0,0,1-2.29.88h-2.75c-.77,0-1.45-.83-1.45-2.13s1.09-2.33,1.09-4.77c0-1.21,1-6.07,1-6.07a8,8,0,0,0-.23-3.21,14.46,14.46,0,0,1-.13-1.47,26.85,26.85,0,0,1-5.68-1.9c-1.82-.84-2.08-1.38-4-1.38l-4.52-.76s-.17,17.42-.17,19,1,1.22,1,2.44,1.09,1.59,1.58,2.45.74,2.07,1.35,3.05,2.32,1.46,3.17,2.44,2.81,1.22,2.81,1.95v2.69c0,.73-1.47,1.71-1.83,2.81s-1.83,2.56-1.83,3.66-1,2.32-1,4.15h2.81c.85,0,1.1,1.1,2.2,1.1s1.09,2.2,1.09,3.18-1.09,1.1-1.09,2.19,1.09,1.71,1.09,2.93v2.69c0,.73-1.34.37-2.07,1.47s-.37,1.46.24,2.44,1,3.05,1.83,3.78,1.59,1.35,1.59,2.45,1,1.22,2,1.46a14.77,14.77,0,0,0,2.93.49C977.85,490.45,979.44,489.72,980.05,490.33Z" transform="translate(-623.24 -324.47)"/><path class="cls-1" d="M951,460.29a21.69,21.69,0,0,1,1,4.52c0,1.1.25,1.46,1.83,1.46h10.75c0-1.83,1-3,1-4.15s1.46-2.56,1.83-3.66c.42-1.27,2.32-2.38,1.71-3.14v-2c.67-1-1.72-1.17-2.69-2.28s-2.56-1.46-3.17-2.44-.86-2.2-1.35-3.05-1.58-1.22-1.58-2.45-1-.85-1-2.44.17-19,.17-19l-6.07-.72s-1.6-.49-1.72-.27c-1.84,3.29-4.45,4.57-5,6.44-.36,1.34-1.71,3.17-2.93,3.17h-3c-1,0-1.59,1.1-2.56,1.1s-1.59.74-2.32,1.1-1.71,1.47-1.23,2.57a4.7,4.7,0,0,1,.74,2.44v7.69s2.07.86,1.83,2,1,1.84,2.07,1.23,2.45,1.58,2.2,3.17,1,3.17,2,4a5.84,5.84,0,0,0,3.66,1.83A4.18,4.18,0,0,1,951,460.29Z" transform="translate(-623.24 -324.47)"/><path class="cls-1" d="M935.36,445.15h-3.67c-1,0-1.46,1.1-2.19,1.1s-1.23-1.59-2.2-1.34-1.71,1-2.32-.25-1.59-1.58-1.1-2.8a2.7,2.7,0,0,0-.49-2.94,2,2,0,0,1,.12-2.44c.49-.61.13-1.46-.24-2.32a10.19,10.19,0,0,1-1.1-2.93c-.12-1.1.85-1.46,1.59-2.81s-.12-2.93.24-4.27,1.71-2.81,1.59-4.27a8.31,8.31,0,0,1,.37-3.54,18.1,18.1,0,0,1,.73-3.06c.49-1,1-2.42,1-2.42.88.55,1.87-.76,2.75.23s.44,2.2,1.76,2.2h3c.66,0,1.76-1.43,2.31-2.64.22-.5,2-2.95,4-5.74,1.08-1.47,1.08-3.72,2.35-5,.79-.78,2.07-2.23,3.33-3.39a31.74,31.74,0,0,1,2.89-2.45,22,22,0,0,1,6.54-3c.3-.09-2.38,2.78-3.74,4.56-1.13,1.49-1.28,1-2.49,2.9-.75,1.17-1.3,4.25-1.79,5.34s-2.26,2.62-2.54,3.57c-.44,1.45.3,3.23.23,4.31a15.67,15.67,0,0,0,.08,4.65l5.27,4.2c-1.47,3.06-4.43,4.5-5,6.44-.36,1.34-1.71,3.17-2.93,3.17h-3c-1,0-1.59,1.1-2.56,1.1s-1.59.74-2.32,1.1-1.71,1.47-1.23,2.57a4.7,4.7,0,0,1,.74,2.44Z" transform="translate(-623.24 -324.47)"/><path class="cls-1" d="M904,443.92h7.16c1.79,0,1.79-1,2.69-1.49s2.83.3,3.58.9,1.79,1.94,2.53,1a1.72,1.72,0,0,1,2.54,0c.6.6,1.45.44,2.5.29-.61-1.22-1.59-1.58-1.1-2.8a2.7,2.7,0,0,0-.49-2.94,2,2,0,0,1,.12-2.44c.49-.61.13-1.46-.24-2.32a10.19,10.19,0,0,1-1.1-2.93c-.12-1.1.85-1.46,1.59-2.81s-.12-2.93.24-4.27,1.71-2.81,1.59-4.27a8.31,8.31,0,0,1,.37-3.54,8.21,8.21,0,0,0-3,.73,31.67,31.67,0,0,1-6.87,1.49c-1.34,0-2.53,1.65-4.18,1.5s-4.62.74-6,.74-2.84,1.49-4,1.49-1.94,1.65-2.84,2.54-1.79.9-2.38,2.24.44,1.94.44,3.28.15,3.13.15,4.18S898,436,899.05,436s1.05.75,1.05,2.39.15,2.38,1.64,2.38S904,442.13,904,443.92Z" transform="translate(-623.24 -324.47)"/><path class="cls-1" d="M869.36,436.77a9.1,9.1,0,0,1,1.94,4.51c.28,1.68,1.13,1.82,2.11,2.24s1.26,2.24,1.26,3.64-.14,2.39,1,2.81a15.69,15.69,0,0,0,3.36.42c.84.14,2.39,0,3,.84s2.66,1.82,2.52,3.22-1.12,2.1-.28,3.37,1.82,2.66.42,3.36c-.84.42-1,1-1,2.1a16.7,16.7,0,0,1-.14,2.1c.84,1,1.68,2.53.84,3.79s-.84,2,.14,2.52a2,2,0,0,1,1,1.63h0a1.43,1.43,0,0,0,1.79-1.34c.15-1.2,1.64-1.94,2.53-3.28a37.74,37.74,0,0,1,3.73-5.38c1.35-1.49.9-1.49,3-4.48a42.35,42.35,0,0,0,4-7.31c.89-1.94,1-3.43,1.49-4.18s1.94-.59,1.94-.59v-2.84c0-1.79-.75-3.13-2.24-3.13s-1.64-.74-1.64-2.38,0-2.39-1.05-2.39-1.79-.45-1.79-1.49-.15-2.84-.15-4.18-1-1.94-.44-3.28a10.18,10.18,0,0,0-2.66-.79c-1.33-.15-1.66-.9-4.06-.42-1.41.28-.85.42-2.39.14s-1.4-.42-2.24.42a4.67,4.67,0,0,1-1.63,1.1,11.44,11.44,0,0,1-2.09.75c-1.2.3-3.73,2.24-4.78,2.24h-4.18c0,1.95-.59,3-1.19,3h-2.09v3.28Z" transform="translate(-623.24 -324.47)"/><path class="cls-1" d="M991.92,508.06a8.09,8.09,0,0,0-5.11,2.55c-1.25,1.17-1.83,2.12-3.5,2.53s-1.6-.23-1.71-.49c-1.08-2.66-4.18-5-4.07-8.29.06-1.64.48-1.17,2.06-1.12,1.1,0-.27,1.94.29,2.39s4.21.15,5.11.18c2.84.1,2.92-2.27.08-2.37-1.9-.07-3.69.19-2.66-2.48.52-1.34,4-2.45,2.54-4.66-.39-.59-2.4.64-2.36-.45,0-.79,0-1.57.08-2.36-1.1-.24-2-2.55-2.62-3.16s-2.2.12-2.93.12a14.77,14.77,0,0,1-2.93-.49c-1-.24-2-.37-2-1.46s-.73-1.71-1.59-2.45-1.22-2.81-1.83-3.78-1-1.34-.24-2.44,2.07-.74,2.07-1.47v-2.69c0-1.22-1.09-1.83-1.09-2.93s1.09-1.22,1.09-2.19,0-3.18-1.09-3.18-1.35-1.1-2.2-1.1H953.79c-1.58,0-1.83-.36-1.83-1.46a21.69,21.69,0,0,0-1-4.52,4.18,4.18,0,0,0-3.91-2.93,5.84,5.84,0,0,1-3.66-1.83c-1-.86-2.2-2.44-2-4s-1.1-3.78-2.2-3.17-2.32-.13-2.07-1.23-1.83-2-1.83-2h-3.67c-1,0-1.46,1.1-2.19,1.1s-1.23-1.59-2.2-1.34-1.71,1-2.32-.25c-1.05.15-1.9.31-2.5-.29a1.72,1.72,0,0,0-2.54,0c-.74.9-1.79-.45-2.53-1s-2.69-1.35-3.58-.9-.9,1.49-2.69,1.49H904v2.84s-1.49-.15-1.94.59-.6,2.24-1.49,4.18a42.35,42.35,0,0,1-4,7.31c-2.09,3-1.64,3-3,4.48h10.3v-2.54a4.42,4.42,0,0,0,3.13-1c1.2-1.2,3.14-3.28,3.88-1.94s1.19,2.54,1.79,3,.45,2.84,1.49,3.43.15,2.54,2.09,3a7.9,7.9,0,0,1,4.18,2.39c.75.89,2.69,3,3.43,3.73s1,1.94,3,2.38,1.49,1.5,2.68,2.69,2.39.6,2.69,1.79.6,3,1.79,3.28,1.19,2.24,2.39,3.28,3.28,2.09,3.88,3.44,3.13,1.64,3.28,3.43a3.81,3.81,0,0,0,2.53,3.28c1.05.3,1.64,2.24,2.84,2.39s1.19,3.88,1.19,5.07,1.2,1.64,1.2,2.69-.64,1.8-.9,3.13a9.61,9.61,0,0,0,.68,6.3c1.41-.63.82-2.78,1-3.61a19.88,19.88,0,0,1,2.69-6.87c.36-.88,2.09-1.64,3-.45a29.59,29.59,0,0,0,2.25,3.27c1.07,1.15.14,2.6,1,3.51,1.78,1.91,1.93,2,2,4.56,0,.83-.62,4.09-.17,4.73.28.4,2.1-.3,2.38.09s-.07,1.88-.09,2.37c-.12,3.47-.19,1.2-2.45,2.29s-1.54,2.44-4.25,2.34c-.54,0-1.64,1-2.54,1.45-2.47,1-2.42,2,1.19.68a102,102,0,0,0,20-9.53c3.07-1.89,5.52-4.39,8.16-6.85,2-1.88,4-4.72,6.54-5.67C992.91,508.47,993.16,507.9,991.92,508.06Z" transform="translate(-623.24 -324.47)"/><path class="cls-1" d="M950.38,510.17c.26-1.33.9-2.09.9-3.13s-1.2-1.5-1.2-2.69,0-4.92-1.19-5.07-1.79-2.09-2.84-2.39a3.81,3.81,0,0,1-2.53-3.28c-.15-1.79-2.69-2.09-3.28-3.43s-2.69-2.39-3.88-3.44-1.2-3-2.39-3.28-1.49-2.09-1.79-3.28-1.49-.6-2.69-1.79-.74-2.24-2.68-2.69-2.24-1.64-3-2.38-2.68-2.84-3.43-3.73a7.9,7.9,0,0,0-4.18-2.39c-1.94-.45-1-2.39-2.09-3s-.89-3-1.49-3.43-1-1.64-1.79-3-2.68.74-3.88,1.94a4.42,4.42,0,0,1-3.13,1v2.54h-10.3a37.74,37.74,0,0,0-3.73,5.38c-.89,1.34-2.38,2.08-2.53,3.28a1.43,1.43,0,0,1-1.79,1.34,6,6,0,0,0-3.44,1.34c-.89.75-3.28,2.24-4.62,1.64a2.3,2.3,0,0,0-3,.6c-.89.9-1.94,1.79-1.94,2.69s.15,1.79-1.34,1.79-2.68.44-2.68,1.49a35.86,35.86,0,0,1-.89,4.59,3.19,3.19,0,0,1,2.34.94c1.38,1.46,1.48,1.58,1.41,3.56,0,1,1.73.1,2.34.45,3.39,2,1.61,3.75.16,6.4-.77,1.39-1.52.11-2.76.64-.8.35-1.63,1.53-2.27,2.13-1,1-.07,4.91-3.09,4.8-2.16-.07-1.72-.29-1.94-2.07-.28-2.27-2.72-1.6-1.4.56s3.62,3.89,5.44,5.82c.85.91,1.73.25,2.85.59a22.77,22.77,0,0,1,3.93,2.15c1.21.65,1.83,2.29,3,2.84.94.44,3,.1,4,.13,2.23.08,3.81,2.51,6,2.59,4.51.16,12.12-1.07,15.27,2.3,1.59,1.69,1.5,5.4,4,5.49,1.89.07,3.59,2.35,5,4,.27.32.82,1.46.65-.15-.1-.88.26-1.31,1.39-1.27,2.52.09,0-1.17,1.26-2.33s2.3,1.42,2.39-1.1c.05-1.63.47-1.16,2-1.11l7.11.25c1.13,0-.31-2.39.82-2.35s2,.55,2-.67c.06-1.84-.66-6.4,1.41-6.32.95,0,5.9.51,5.92-.17,0-1.33.1-2.66.14-4,0-1.12-2.36.31-2.32-.82.11-3.13,2.55-1,2.59-3.29-.38-1.3.68-.16,1.07.26s1,2.28,1-.11c-.07-3.4,4.18,1.46,5.24,1.5,4,.14.49,3.32,2.65,5.65.63.68,2.27,2.37,3.84,1.68A9.61,9.61,0,0,1,950.38,510.17Z" transform="translate(-623.24 -324.47)"/><path class="cls-1" d="M884.48,471.69c-1-.56-1-1.26-.14-2.52s0-2.8-.84-3.79-2-2.52-3.09-2.52-2.94.28-3.92-.56a5.33,5.33,0,0,0-3.22-1.54,7.89,7.89,0,0,1-4.21-1.12,10,10,0,0,0-5.61-1.54,8.84,8.84,0,0,1-4.76-1c-1-.56-.7-2.8-.28-4.2s1-2.66,0-3.64a10,10,0,0,1-2.24-3.79,5,5,0,0,0-2.25-2.94,11.55,11.55,0,0,1-4.34-4h-3.05c-3.73,0-4.17.75-6.86.75s-3.13.59-4.48,1.79-1.94,2.53-3.13,4.47-2.24,4.63-4,5.67-3.58,2.69-5.07,3.43-2.69,3.44-4,4a25.32,25.32,0,0,0-5.73,4.65c.29,1.33,1,2.15,2.39.83a22.49,22.49,0,0,1,6.86-4.24c1.35-.62,13.52-.57,14.43.4.47.51-.06,6.94-.51,7.35-1.22,1.12-2.17,1.55-2.23,3.21-.06,1.83.7,1.08,2.33,1.27.58.07,7.09.05,7.08.45-.12,3.37-.32,4.22,1.63,6.44.16.18.67.57,0,1.06a6.87,6.87,0,0,0-2,2.94c-.24.72,0,1.29,1,.77,2.74-1.08,5.33-1.52,7.57-3.11.36-.26,1.08-1.14,1,.73-.09,2,2,3.22,4.27,3.29,2.81.1,4.15.88,6.64,2.24,1.24.67,2.65.41,4,.48a35.86,35.86,0,0,0,.89-4.59c0-1.05,1.19-1.49,2.68-1.49s1.34-.9,1.34-1.79,1-1.79,1.94-2.69a2.3,2.3,0,0,1,3-.6c1.34.6,3.73-.89,4.62-1.64a6,6,0,0,1,3.44-1.34h0A2,2,0,0,0,884.48,471.69Z" transform="translate(-623.24 -324.47)"/><path class="cls-1" d="M802.21,474.39a3.67,3.67,0,0,0,.11-1,10.2,10.2,0,0,0-1.09-.1l-7.45-.26c-3.49-.12-3-2.11-3.95-5.38-.93-3.11-.54-4.16,1.81-6.35,1.91-1.8,4.75-3,7-4.38s4.44-1.83,6.3-3.46a9.06,9.06,0,0,0-.15-3.14c-.49-1.46-1.22-2.06-1.22-3.89a35.11,35.11,0,0,0-.48-5.22c-.25-1.58-1.22-3.4-.73-5s1.58-2.43,2.18-3.77a5.47,5.47,0,0,0,.49-2.55,10.71,10.71,0,0,0-3.28-.73c-1.46,0-2.68-1.22-3.53-1.95s-2.85-1-3.52-1.7-.24-2.55,0-3.64-.49-1.83-1.34-1.1-2.55.37-4.13.37-1.33-1.34-3-1.34-2.06-1.09-3.1-1.09h-6.74c-.73.6-1.34.36-2.06,1.21s-1.71.73-1.95,1.58a4.25,4.25,0,0,1-2.06,2.55c-1,.37-1.22,1.58-2.19,2.68s-2.68,1-4,1.94-3-.49-3.77-1.34a4.43,4.43,0,0,0-3-1.21,3.21,3.21,0,0,1-2.67-1.58,6.53,6.53,0,0,0-3.28-2.43c-1.1-.36-1.34,1.21-2.07,1.21a10.29,10.29,0,0,0-3.64.73,36.89,36.89,0,0,1-4.14,1.95c-1.76.72-4.13,2.55-6,3.64h9.6v48.8c4.85.16,9.86-.09,14.64.76,5.78,1,11.62,2.52,17.5,2.73,2.8.1,5.07-2.5,7.74-3.72,2.12-1,4.13-.6,6.47-.52,1.75.06,5.86-.51,7.33.55l.08.07a9.65,9.65,0,0,1,1.17-.79A5.25,5.25,0,0,0,802.21,474.39Z" transform="translate(-623.24 -324.47)"/><path class="cls-1" d="M815.47,486.5c1.37,1.46,1.49,1.57,3.46,1.64,3.1.11,5.15-.8,5.27-4.17,0-1,2.27-2.78,3.79-4,2.14-1.89-.67-.83-1-1.21s1-3.12-1.15-1.27c-1.91,1.6-2.13.68-4.33-1.71-1.43-1.56-1.56-1.82-3.67-1.9-1,0,.29-2.35-.49-2.38l-8.08-.28c-2.27-.08-.42.87-1.27,2.32a7.79,7.79,0,0,1-1.8,1.89.59.59,0,0,1-1,0,3.63,3.63,0,0,0-2.8-2,3.67,3.67,0,0,1-.11,1,5.25,5.25,0,0,1-2.18,3.16,9.65,9.65,0,0,0-1.17.79c1.57,1.16,4.79,4.54,6.62,4.6,1.17.05,3.49-.35,4.53.16s1.36,2,2.29,2.46C813.64,486.27,814.28,485.24,815.47,486.5Z" transform="translate(-623.24 -324.47)"/><path class="cls-1" d="M860.71,437.66c2.24,0,4-.89,5.52-.89h3.13v-3.28h2.09c.6,0,1.19-1,1.19-3-1,0-2.08.3-2.83-.74s-1.19-2.39-2.69-2.39H850.26c-1.64,0-2.68,3-4.47,3h-6.57c-1.79,0-1.34-1.49-2.53-3s-2.39-1.79-2.69-3.28-1.79-1.35-4-1.94-4.62-1.2-6.12-.15-.29,2.53-1.93,3.13-1.94,3.58-4,3.58-2.24-1.49-4.48-1.49-3.58-1.49-4.63-1.49-2.43-.07-2.43-.07a18.74,18.74,0,0,0-1.34,4.26,5.47,5.47,0,0,1-.49,2.55c-.6,1.34-1.7,2.19-2.18,3.77s.48,3.4.73,5a35.11,35.11,0,0,1,.48,5.22c0,1.83.73,2.43,1.22,3.89a9.06,9.06,0,0,1,.15,3.14l.2-.17c1.27-1.2,1.44-1.14,3.22-1.08.93,0,2-1.5,2.64-2.11a1.46,1.46,0,0,1,2.52,1.1c-.09,2.63,1.41-.11,2.32,1.27,1.32,2-2.17,5.43-2.61,7a10.09,10.09,0,0,0,0,3.83,25.32,25.32,0,0,1,5.73-4.65c1.34-.59,2.54-3.28,4-4s3.28-2.38,5.07-3.43,2.84-3.73,4-5.67,1.79-3.28,3.13-4.47,1.79-1.79,4.48-1.79,3.13-.75,6.86-.75h8.66C856.83,438.56,858.47,437.66,860.71,437.66Z" transform="translate(-623.24 -324.47)"/><path class="cls-1" d="M806.35,425.66c.6-1.7.48-2.91,1.45-4a10.43,10.43,0,0,0,2.43-5.1c.13-1.7-.48-2.55-1.33-2.43a9.37,9.37,0,0,0-3.28,1.09,1.33,1.33,0,0,1-2.07-1,2.14,2.14,0,0,1,.85-2.43c.85-.61,1.58-.61,2-1.7s-.13-1.7-1-1.82a1.39,1.39,0,0,1-.85-2.19c.61-1.1,2.07-.49,1.7-1.83a14,14,0,0,0-1.33-3.64c-.61-1,0-1.34.61-2.19s.48-2.67-.25-3-1.67-.95-1.67-.95c0-1-.16-3.42.63-3.77s1.31,0,1.83.88a1.7,1.7,0,0,0,2.45.43,10,10,0,0,1,3.23-1.4c1.14-.17,2.88-.61,3.76-.26s2.09,1.66,3.75,1.66h10.23c1.65,0,1.39-.35.08-1.75s-1.83-1.22-1.83-2.09V386h-2.27v-1.74c0-.79-1.75-1-1.75-1.84s.09-1.66.87-1.66h4.08a4.8,4.8,0,0,0,2.52,2.63c1.05.3,1.5,1.5,2.39,2.39s2.09,2.39,2.09,3.73v3.73c0,.9-1.19.9-1.19,1.64s1.34,1.34,1.34,2.09-.3,2.84.75,4,2.24,2.24,2.68,3.58,1,3.43,2.69,3.43,2.68,1,4.47,1,2.69.15,2.69,1.49a5.82,5.82,0,0,0,.89,3.58c.9,1.64-.29,3.43.15,4.77a4.11,4.11,0,0,1,0,3c-.29,1.19.15,1.64,1.79,1.34s3.58-.75,5.08-.3,2.83,3,2.83,4.48h-9.55c-1.64,0-2.68,3-4.47,3h-6.57c-1.79,0-1.34-1.49-2.53-3s-2.39-1.79-2.69-3.28-1.79-1.35-4-1.94-4.62-1.2-6.12-.15-.29,2.53-1.93,3.13-1.94,3.58-4,3.58-2.24-1.49-4.48-1.49-3.58-1.49-4.63-1.49S806.35,425.66,806.35,425.66Z" transform="translate(-623.24 -324.47)"/><path class="cls-1" d="M883.5,465.38a16.7,16.7,0,0,0,.14-2.1c0-1.12.14-1.68,1-2.1,1.4-.7.42-2.1-.42-3.36s.14-2,.28-3.37-2-2.38-2.52-3.22-2.11-.7-3-.84a15.69,15.69,0,0,1-3.36-.42c-1.12-.42-1-1.41-1-2.81s-.28-3.22-1.26-3.64-1.83-.56-2.11-2.24a9.1,9.1,0,0,0-1.94-4.51h-3.13c-1.49,0-3.28.89-5.52.89s-3.88.9-5.52.9h-5.61a11.55,11.55,0,0,0,4.34,4,5,5,0,0,1,2.25,2.94,10,10,0,0,0,2.24,3.79c1,1,.42,2.24,0,3.64s-.7,3.64.28,4.2a8.84,8.84,0,0,0,4.76,1,10,10,0,0,1,5.61,1.54,7.89,7.89,0,0,0,4.21,1.12,5.33,5.33,0,0,1,3.22,1.54c1,.84,2.8.56,3.92.56S882.66,464.4,883.5,465.38Z" transform="translate(-623.24 -324.47)"/></svg>