<svg id="base_map" data-name="base map" xmlns="http://www.w3.org/2000/svg" viewBox="0 0 469.45 434.66"><defs><style>.cls-1{fill:none;stroke:#92278f;stroke-linecap:round;stroke-linejoin:round;stroke-width:3px;}</style></defs><path class="cls-1" d="M703.42,342.53h-4.25c-1.22,0-.85-.85-2.56-.85s-21.5.25-23.81.25-3.29,1.09-4.62,1.82a4,4,0,0,1-3.89-.37,5.21,5.21,0,0,0-4-.73c-.39.14-1.09.37-1.89.61a26,26,0,0,1,0,4.56c-.09,2.58-2.36-.28-2.45,2.29,0,.79.24,3.56-.49,3.54-4.18-.15-1.4,4-1.54,7-.06,1.42-2,3.06-6.22,6.38-1.38,1.07-.44,3.38-.47,4.1a4,4,0,0,1-2.12,2.54c-1.92.31-1.56,1.09-2.34,2.23-1.35.52-.45,1.26-.05,1.55.61.46,0,1.83,1.54,1.89,1.81.06,1.63,2,0,2.34-2,.13.34,1.46.82,3a10.41,10.41,0,0,1,0,3c-.06,1.62-.46,1.17-2,1.11-1,0,.08,1.87-.44,2.37s-2.35-.78-2.38.28c0,.47,0,.95,0,1.42h25.91V386.4c0-1-1.21-1.46-1.21-2.07s1.58-1.21,3.28-1.21h6.68v9.72h23.21V373.16a1.32,1.32,0,0,1,1.46-1.34h12.76V341.68h-6.68C704.51,341.68,704.63,342.53,703.42,342.53Z" transform="translate(-613.69 -111.06)"/><path class="cls-1" d="M720,420.92c.72-.73.85-1.82-.61-1.82H710.1V407.92h-2.91V395.16h-9.12v-2.32H674.86v-9.72h-6.68c-1.7,0-3.28.61-3.28,1.21s1.21,1.1,1.21,2.07v6.44H640.2c0,.59,0,1.18-.07,1.77l-.12,3.55a4.6,4.6,0,0,0-.06,1.63c.2,1.13,1,1.83,2,2.86a1.16,1.16,0,0,0,.91.35l1.37,0c.72,0,.27,2.77.24,3.56-.06,1.7.41,4.09-.3,5.26-.16.26-.49.63-.42.66a.94.94,0,0,1,.5.52,3.29,3.29,0,0,1-.07,1.85c0,.79,0,1.59-.08,2.38l1.65,1.76c.21.22-.17.52-.47.53-2.12.05-1.2,2.65-1.43,4.79-.14,1.35.18,1.82-.73,2-.57.1-.57.41.15.57s.58,1.14.26,1.74a7.24,7.24,0,0,1-.48.79h55.18v1.82H710.1v-4.38h9c1.45,0,1.21-1,.6-1.58s-1.7-.85-1.7-2.06C718,422.26,719.22,421.65,720,420.92Z" transform="translate(-613.69 -111.06)"/><path class="cls-1" d="M698.19,431.25v-1.82H643a30.71,30.71,0,0,1-4.42,4.41c-2.84,2.64-4.7,3.65-4.84,7.63-.14,4.16-5.21,10.8-9.49,10.65-.73,0-.47,2.75-.5,3.54,0,1.54.59,1.87,1.65,3,.84.91-.06,2.37.51,3,.79.87,2.05-.63,2.72.83,1.19,2.59,2.26,6,5.29,3.16l3.71-3.44c.53-.5,1.91.08,2.63-.07l9.3-2c1.88-.4,3.92.33,5.85-.08,5.47-1.18,10.22-2.56,15.72-1,2.71.78,6,2.92,8.19.86,1.83-1.72,3.86-1.06,6.32-1,5.12.17,10-.24,14.76,1.85,4.94,2.19,9.81,5,14.85,6.89,5.62,2.12,11.24,4.21,16.87,6.31a25,25,0,0,1,6.23,3.66c2.58,1.85,3.49,2.22,6.63,2.33h.11v-48.8H698.19Z" transform="translate(-613.69 -111.06)"/><path class="cls-1" d="M745.46,412.66c-1-.49-1-1.1-1-2.07V403.3c0-.85.12-1.22-.36-1.82s.12-1.22.48-2,0-1.58-.24-2.43-.36-1.58.61-2.06a3.12,3.12,0,0,0,1.7-2.31v-3.16c0-.73-.73-1.34-1.7-2.55a2.51,2.51,0,0,1-.73-2.07v-.85H731v3.77c0,1-2.18,1.21-3.64,1.21H706.58a4.9,4.9,0,0,0-2.55.85,6.48,6.48,0,0,1-2.92.6h-3v4.63h9.12v12.76h2.91V419.1h9.24c1.46,0,1.33,1.09.61,1.82s-2,1.34-2,2.31c0,1.21,1.1,1.46,1.7,2.06s.85,1.58-.6,1.58h-9v4.38h25.4c1.82-1.09,4.19-2.92,6-3.64a36.89,36.89,0,0,0,4.14-1.95,9.51,9.51,0,0,1-1.1-2.67c0-.73-.36-1.46.37-2.43s1.33-1.59,1.33-2.8.85-1.7,1.58-3S746.44,413.14,745.46,412.66Z" transform="translate(-613.69 -111.06)"/><path class="cls-1" d="M726.87,341h8c1,0,1.84-.8,3.4-.8h8.43v31.23c0,1.62.28,2.76.92,3.39s1,1.35.42,2.06-.71,1.63-1.49,2.05a3.45,3.45,0,0,0-1.62,1.84c-.22.71.14,1.56-.22,2.13a4.72,4.72,0,0,0-.51,1.25H731v3.77c0,1-2.18,1.21-3.64,1.21H706.58a4.9,4.9,0,0,0-2.55.85,6.48,6.48,0,0,1-2.92.6h-3V373.16a1.32,1.32,0,0,1,1.46-1.34h12.76v-29h14.58Z" transform="translate(-613.69 -111.06)"/><path class="cls-1" d="M864.62,120.11c-.29.87,1.17,1,.39,2.14s-1.36,1.46-1,3.6-1.76,2.05-2.63,2.92-1.08,3.22-.59,4.48a12.91,12.91,0,0,1,.68,4.39c0,1.46-.19,3.31-.87,4s-2.34,1.85-2.44,3.31a2.58,2.58,0,0,1-1.56,2.24,2.05,2.05,0,0,0-.68,2.44c.49.88-.19,3.8-.19,5.55s-1.07,1.85-2,2-1.66,2.14-1.66,2.14,0,1.27.39,1.37c.61.15.92.8.68,1.75a5.07,5.07,0,0,1-.78,1.56H876.5c1,0,1.57-2.16,2.24-3s2.34-.88,4.23-.79c.44-.57,2.33.81,2.37-.29,0-.61-.29-2,.45-2,2.76.09,2.05-1,2.14-3.46,0-1.38-.69-2.09-1.59-3-.54-.52-.82-.74-.76.83.12,3-1.09,5.54-5.26,5.4-1.73-.06-4.41.67-4.34-1.34,0-1.57.11-3.14.16-4.71.09-2.58,2.38.3,2.5-3.1,0-.8,4.34-2.68,5.14-2.66,1.58.06,2,.52,2.05-1.11,0-.88.28-1.1-.48-1.39l-6-2.23c-2.21-.82-2.17.66-2.07-2.27.06-1.57.78-3.14.84-4.72.09-2.64.31-2.94,2.28-4.78,1-.9,2.55-.07,3.86-1.3,1.54-1.44,3.37-7.19,1.79-8.89a31.28,31.28,0,0,1-2-4.18c-.51-1.07-1.83-.88-3.57.74-.3.88.36,1.19,1.07,1.76s-2.63,1-1.23,2.93c1.58,2.22,1.24,1.81-.71,3.64-.69.64-2.83.14-3.81.11-1.75-.06-1.11-.8-1.09-2.41,0-2.13.12-2.4,1.66-3.85.61-.58,1.67-2.24.94-3.15s-8.36-.21-9.5-.25l-1.06,0s0,.06,0,.09C866.76,117.67,864.91,119.23,864.62,120.11Z" transform="translate(-613.69 -111.06)"/><path class="cls-1" d="M886.37,206.9l.53.63c.4.43,1.5.54,1.52-.18.06-1.72,1-4.33-1-4.4-1.71-.06-2.33-1.23-2.79-.89s-.21,1.37,1.37,3C886.8,206,886,206.48,886.37,206.9Z" transform="translate(-613.69 -111.06)"/><path class="cls-1" d="M848.32,169.77a5,5,0,0,0,.73,2.31c.32.63,1.16,1.79.42,2.42s-1.15.53-1.15,1.16.1,2.21.1,2.21h1.05v2c0,.53.63,1.37,1.16,1.37s1.47,1.26.94,1.89-.84,1.37-1.89.84-1.36-.21-1.57.32.31,1.26,1.15,1.15,1,1.06.74,1.79-1.26.32-2,.84-.53,1.37-1.58,1.58-2.31,1.05-1.57,1.89,1.26,2.84.21,2.84-1.79-.11-2.11.42.32,1.37,1.16,1.26a1.27,1.27,0,0,1,1.47,1.16,1.9,1.9,0,0,1-1.05,1.68c-.73.42-1.37,1.05-.52,1.05h19.13c1.26,0,2.63-1.15,3.68-1.79a2.2,2.2,0,0,1,2.73,0,2.33,2.33,0,0,0,2.84.43,6.21,6.21,0,0,0,2.63-2,3.06,3.06,0,0,1,3-1.45c1.6.11,1.63,2.12,1.63,2.88,1.34.13,2,.06,2-2,0-.57,1.47-.64,1.93-.36s.78,1.24,1.08.87c1-1.24,4.16-1.42,4.22-.24s-.65,4-.29,4.35c1.08,1.15,2.37-.11,2.41-1.11l.27-7.89c.06-1.62-.54-2.77,1.29-2.7,1.09,0,1.38.45,1.31,1.26,0,.32.23.76.48.55,1.7-1.42,4.19-3.2,4.25-5.16.1-2.82.25-3.57,2-5.29.31-.33.69-.9,0-.94-1.18-.06-1.73.18-1.78,1.49-.05,1.54-.72,1.81-1.87,2.88s-4.54.46-6.24.4c-2.51-.09-1.39-3-1.31-5.17s-.09-2,2.06-1.93c.75,0,.43-1.69.45-2.34.15-4-2.33-2.4-4.46-.4-1.05,1-4.94.12-5.79-.79-1.88-2-3.81-3.22-3.71-6a4.21,4.21,0,0,1,2.53-3.51c.68-.39,2.53,1.17,3.78,2.53,1.79,1.93-.54,3.18,2.73,3.29,1.9.07,3.62.45,2.8-2.26s-3-1.7-4.65-2.54c-1.17-.61-3.3-3.37-2.19-4.83-1.89-.09-3.55-.09-4.23.79s-1.26,3-2.24,3H852.44s-2.77.16-2.55,1.94a2,2,0,0,1-.42,1.79A3.42,3.42,0,0,0,848.32,169.77Z" transform="translate(-613.69 -111.06)"/><path class="cls-1" d="M789,151c0-1.09.65-2.62,2-2.62a3.55,3.55,0,0,0,3.5-1.75,9.68,9.68,0,0,0,1.31-3.73c.22-1.31.22-2.84,1.1-3.94s0-3.5-.44-5-.66-3.5-1.53-4.38-1.1-2.63-.22-4.6-.22-3.72-.44-4.6.22-2.4.87-3.94a6.71,6.71,0,0,0,.44-2.19l-52.38.37c-2.32,0-4.63,0-7,0v17.82c0,1.09-1.75.87-1.75,1.75s.88,1.31.88,2.41v3.06h9.19s3.65.49,5.26,2.63c1.31,1.75.65,2,2,2h2.62v5.47h9.64v4.6c0,.87-1.1.22-1.1,1.09s1.21.22,1.21,1.21v2.51h9.08c1.32,0,1.53-1.31,2.41-.65a3.33,3.33,0,0,0,3.5.22c1.32-.66,1.1-2.85,2.19-3.07a8.73,8.73,0,0,0,4.38-2.41C786.82,151.91,789,152.13,789,151Z" transform="translate(-613.69 -111.06)"/><path class="cls-1" d="M794.26,120.38c.22.88,1.31,2.63.44,4.6s-.66,3.72.22,4.6,1.09,2.85,1.53,4.38,1.31,3.94.44,5-.88,2.63-1.1,3.94,1.32,2.41,1.32,3.51c0,2,2.08-.77,3.72-1.1,1.09-.22,2.62-.22,3.06.66s.22,3.06,1.32,2.85,1.53.43,1.75,1.31,1.09.44,2,.22,1.53,1.31.65,2.19a4.1,4.1,0,0,0-1.09,3.06c0,1.1-.66,2.63,0,3.5s.44,1.76.22,2.85.87,1.1,1.31,2.19.88-1.31,1.75-.66a14.38,14.38,0,0,1,2.85,2.19c.66.88,2,.22,2.19-1.31s1.53-1.75,1.75-2.85,1.53-2.19,2.19-1.31,1.75,2.19,2.63,1.75,2.62-.66,3.28-2.63,1.31-3.5,3.07-3.5a4.5,4.5,0,0,0,4.16-2.63c.87-1.75.43-3.94,1.75-3.94s.65-1.53,0-2.19-1.54-1.53-.22-3.06,2.19-.88,2.41-2.41-.44-4.82.43-6.79,1.54-3.5,2-4.81,1.76-1.32,2.19-2.41,2.63-.88,3.72-.88.44-2.19,1.54-3.5.6-3.69,2.41-4.6c.87-.43,2-.89,1.75-2.19a7.73,7.73,0,0,1-.05-2.43l-3.13-.1c-11.7-.41-23.5.1-35.21.2l-17.88.14a6.71,6.71,0,0,1-.44,2.19C794.48,118,794,119.51,794.26,120.38Z" transform="translate(-613.69 -111.06)"/><path class="cls-1" d="M837.83,141.62c-.22,1.53-1.1.88-2.41,2.41s-.44,2.41.22,3.06,1.89,1.14,2.39,2.63c.39,1.16-.2,1.55-.2,2.43v7.11h14.32s.78-2,1.66-2.14,2-.2,2-2,.68-4.67.19-5.55a2.05,2.05,0,0,1,.68-2.44,2.58,2.58,0,0,0,1.56-2.24c.1-1.46,1.75-2.63,2.44-3.31s.87-2.53.87-4a12.91,12.91,0,0,0-.68-4.39c-.49-1.26-.29-3.6.59-4.48s3-.77,2.63-2.92.19-2.43,1-3.6-.68-1.27-.39-2.14,2.14-2.44,2.14-5.56c0,0,0-.06,0-.09-4.5-.15-10.18-.3-15-.45a7.73,7.73,0,0,0,.05,2.43c.23,1.3-.88,1.76-1.75,2.19-1.81.91-1.32,3.29-2.41,4.6s-.44,3.5-1.54,3.5-3.28-.22-3.72.88-1.75,1.09-2.19,2.41-1.09,2.84-2,4.81S838,140.09,837.83,141.62Z" transform="translate(-613.69 -111.06)"/><path class="cls-1" d="M841,238.64v3.79c0,.63-.89,1.39-.63,1.9s1.64,1.26,1.83,2.21,1,1.26,1.45,2.27h15a3.68,3.68,0,0,0,.55-1.4c0-.56-.53-1.07-.49-1.6.17-2.31.19-4.62.25-6.93a1.06,1.06,0,0,1,.74-.95,17.92,17.92,0,0,0,3.63-2.25c.27-.2.46-.08.44.15-.13,1.22-.48,3.69-.12,4.21,1.06,1.5,2.38-.39,2.29,2.45,0,1.2,4.2-1.07.4-4.47-1.87-1.68,1.06-1.58,1.83-2.57s2.18-3.95,2.65-4.38c1.77-1.65,2.56,1.35,2.68-2.16a9,9,0,0,1,5-7.31c1.68-.75,3.77.5,4.81-2.2s-.49-2.26-2.27-2.47c-.86-.1-4.76.29-4.73-.53s-.17-4.36.53-4.34c3.39.12.55,2.38,3.1,2.47,1.65.06,3.51.89,3.58-1.06s2.47-2.28,2.53-3.82c0-.45.3-1.58.06-1.79l-.58-.47a9.69,9.69,0,0,0-1.8.16c-1.63,0-3.31-.12-4.94-.18-1.8-.06-4.57.77-4.5-1.33.11-3-.57-8.32,3.85-8.17.62,0,1.15.09,1.6.14,0-.76,0-2.77-1.63-2.88a3.06,3.06,0,0,0-3,1.45,6.21,6.21,0,0,1-2.63,2,2.33,2.33,0,0,1-2.84-.43,2.2,2.2,0,0,0-2.73,0c-1.05.64-2.42,1.79-3.68,1.79H847.79v5.89c0,1.17-1,1.29-1,2.43a5.71,5.71,0,0,1-.38,2.53c-.25.37.51,1.39,1.33,1.64s1.26,1,.69,1.7-1.51,1.71-1.57,2.72-.51,2.59.18,3.6,1.14,1.89.19,2.78a2.54,2.54,0,0,0-1.07,2v4.11a1.63,1.63,0,0,1-1.14,1.51,17.85,17.85,0,0,0-3.91,3.16c-.7.88-1.2,2.08-.76,2.59A3.06,3.06,0,0,1,841,238.64Z" transform="translate(-613.69 -111.06)"/><path class="cls-1" d="M730.26,178.39c0,.84.73,1.47.73,2.31v14.41c0,1.15-.94,2.1-.94,3s-.63,1.37-1.26,1.79-.11.84.1,1.47a2.7,2.7,0,0,1-.94,2.32,6.84,6.84,0,0,0-1.27,2.08h26.71c4.31,0,4.83.86,6.93.86h3.47c.74,0,.84-1,1.79-1s1.79,1,2.84,1h4.52V187.43c0-.84-1.05-1.89-2.21-2.94s-5-4.84-5.67-5.47-1.8-.52-1.8-1.58v-9.31H745.61c-.84,0-1.09.48-1.09,1.54v3.1H730.26Z" transform="translate(-613.69 -111.06)"/><path class="cls-1" d="M810,164.17a3,3,0,0,1,0,3.55c-.42.64-1.6.81-2,1.61a5,5,0,0,0-.62,2.23c0,.53-.8.71-.8,1.69a2.54,2.54,0,0,1-.9,2.32,4.38,4.38,0,0,0-1.87,1.69c-.35.81-1.6,1.7-1.6,2.77s-.89,1.25-1.16,2.5a11.6,11.6,0,0,0-.18,2.94c0,.89-.62,2-.62,2.94,0,1.34-.63,1.61-.63,3.92h-6c-1.79,0-2.23,1.7-3.21,1.7a4.42,4.42,0,0,1-2.86-.72c-.71-.62-2.22-.73-3.74-.73H772.94v-5.15c0-.84-1.05-1.89-2.21-2.94s-5-4.84-5.67-5.47-1.8-.52-1.8-1.58V167.29c0-.74.9-.74.9-1.81v-6.35h9.08c1.32,0,1.53-1.31,2.41-.65a3.33,3.33,0,0,0,3.5.22c1.32-.66,1.1-2.85,2.19-3.07a8.73,8.73,0,0,0,4.38-2.41c1.1-1.31,3.28-1.09,3.28-2.19s.66-2.62,2-2.62a3.55,3.55,0,0,0,3.5-1.75,9.68,9.68,0,0,0,1.31-3.73c-.22,1.32,1.32,2.41,1.32,3.51,0,2,2.08-.77,3.72-1.1,1.09-.22,2.62-.22,3.06.66s.22,3.06,1.32,2.85,1.53.43,1.75,1.31,1.09.44,2,.22,1.53,1.31.65,2.19a4.1,4.1,0,0,0-1.09,3.06c0,1.1-.66,2.63,0,3.5s.44,1.76.22,2.85S809.58,163.08,810,164.17Z" transform="translate(-613.69 -111.06)"/><path class="cls-1" d="M799.6,192.33c0-2.31.63-2.58.63-3.92,0-1,.62-2,.62-2.94a11.6,11.6,0,0,1,.18-2.94c.27-1.25,1.16-1.43,1.16-2.5s1.25-2,1.6-2.77a4.38,4.38,0,0,1,1.87-1.69,2.54,2.54,0,0,0,.9-2.32c0-1,.8-1.16.8-1.69a5,5,0,0,1,.62-2.23c.45-.8,1.63-1,2-1.61a3,3,0,0,0,0-3.55c.44,1.1.88-1.31,1.75-.66a14.38,14.38,0,0,1,2.85,2.19c.66.88,2,.22,2.19-1.31s1.53-1.75,1.75-2.85,1.53-2.19,2.19-1.31,1.75,2.19,2.63,1.75,2.62-.66,3.28-2.63,1.31-3.5,3.07-3.5a4.5,4.5,0,0,0,4.16-2.63c.87-1.75.43-3.94,1.75-3.94s.65-1.53,0-2.19c.65.66,1.89,1.14,2.39,2.63.39,1.16-.2,1.55-.2,2.43v7.11h14.32s0,1.27.39,1.37c.61.15.92.8.68,1.75a5.07,5.07,0,0,1-.78,1.56s-2.77.16-2.55,1.94a2,2,0,0,1-.42,1.79,3.42,3.42,0,0,0-1.15,2.1,5,5,0,0,0,.73,2.31c.32.63,1.16,1.79.42,2.42s-1.15.53-1.15,1.16.1,2.21.1,2.21H837.05c-2.94,0-2.32,2.25-3.74,2.25s-1.61,1.42-2.5,1.42-1.78.54-1.78,1.07V185c0,.63-1,.45-1.79,1.16s-1.33,0-2-.62-1.51.35-1.51,1.42-.63,1.88-.45,2.77-.44,1.42-.8,2.58.26,1.61-.09,2.95a4,4,0,0,1-2.14,2.67,3.26,3.26,0,0,0-2.14,1.61c-.36.89-.54,2.14-1,3a2.69,2.69,0,0,1-2.77,1.07c-1-.18-1.51.36-2.4.8" transform="translate(-613.69 -111.06)"/><path class="cls-1" d="M847.79,199.94v5.89c0,1.17-1,1.29-1,2.43a5.71,5.71,0,0,1-.38,2.53c-.25.37.51,1.39,1.33,1.64s1.26,1,.69,1.7a5.8,5.8,0,0,0-1.58,2.72c-.06,1-.5,2.59.19,3.6s1.14,1.89.19,2.78a2.54,2.54,0,0,0-1.07,2v4.11a1.63,1.63,0,0,1-1.14,1.51,17.85,17.85,0,0,0-3.91,3.16h-2.1V225.3h-3.83c-.86,0-.57,1.43-1.43,2.29s-1.15,2.1-2.2,2.39-1.34,1.62-2.1,2.58a4.78,4.78,0,0,1-3.54,1.82,6.87,6.87,0,0,0-3.73,1.05c-.76.57-.86-1.15-1.53-1.34s-.57-1.24-.57-1.82,0-1.62-1.15-1.62-1.53-.86-2.48-1.24-.38-2.49-1.44-2.49a4,4,0,0,1-2.58-1.53c-.67-.67-1.62-1.43-1.62-2.48v-4.59c0-1-1.34-2.1-1.82-2.77s-.76-1.05,0-1.72,1.82-.29,2.3-.77,1.91-.48,1.91-.48v-4.11c0-.86-1.34-.76-1.91-1.14s-.58-.77-.29-1.53a2.53,2.53,0,0,1,1-1.34c.89-.44,1.42-1,2.4-.8a2.69,2.69,0,0,0,2.77-1.07c.44-.89.62-2.14,1-3a3.26,3.26,0,0,1,2.14-1.61,4,4,0,0,0,2.14-2.67c.35-1.34-.27-1.79.09-2.95s1-1.69.8-2.58.45-1.7.45-2.77.89-2,1.51-1.42,1.16,1.33,2,.62S829,185.65,829,185v-2.41c0-.53.89-1.07,1.78-1.07s1.07-1.42,2.5-1.42.8-2.25,3.74-2.25h12.42v2c0,.53.63,1.37,1.16,1.37s1.47,1.26.94,1.89-.84,1.37-1.89.84-1.36-.21-1.57.32.31,1.26,1.15,1.15,1,1.06.74,1.79-1.26.32-2,.84-.53,1.37-1.58,1.58-2.31,1.05-1.57,1.89,1.26,2.84.21,2.84-1.79-.11-2.11.42.32,1.37,1.16,1.26a1.27,1.27,0,0,1,1.47,1.16,1.9,1.9,0,0,1-1.05,1.68c-.73.42-1.37,1.05-.52,1.05Z" transform="translate(-613.69 -111.06)"/><path class="cls-1" d="M772.94,229.75h37.42v-3.83l2.11-.53c-.67-.67-1.62-1.43-1.62-2.48v-4.59c0-1-1.34-2.1-1.82-2.77s-.76-1.05,0-1.72,1.82-.29,2.3-.77,1.91-.48,1.91-.48v-4.11c0-.86-1.34-.76-1.91-1.14s-.58-.77-.29-1.53a2.53,2.53,0,0,1,1-1.34" transform="translate(-613.69 -111.06)"/><path class="cls-1" d="M799.6,192.33h-6c-1.79,0-2.23,1.7-3.21,1.7a4.42,4.42,0,0,1-2.86-.72c-.71-.62-2.22-.73-3.74-.73H772.94v14.09" transform="translate(-613.69 -111.06)"/><path class="cls-1" d="M834.41,329.1c-.7.12-.53-.48-.25-1.61a3.71,3.71,0,0,0-1.12-3.08c-1-1.22-1.54.7-3.37.84-.84.07-2.52-1.26-1.82-2.24-1.1,1.12-1.63,3.21-2.33,4.17.54.54,1.13,1.94,2.29,1.32s1.69-.89,2.4-.71,2.22.62,2.49,1.6.89,1.69.35,2.58-.53,2.75.27,3.46,1.33,1.25.89,2.22-1.42,1.6-1.42,2.67v3.56c0,1.06.62,2.48,1.42,2.48h3.2c.89,0,1.15-1,2.49-1s1.2,1.82,2.13.89.62-1.78.26-2.85-1.15-3.11-2.22-3.11h-2.84c-.89,0-1.33-2.13,0-2.13s2.13-.45,3.91-.45a3.68,3.68,0,0,1,3.11,1.42c.53.63,1.69,1.6,1.78,2.76s.89,2.31.09,3.47A6.71,6.71,0,0,0,845,349.3a4.13,4.13,0,0,1-1.78,3.37c-1,.63-3.37-.08-4,.89a2.15,2.15,0,0,0,0,2.76,3.72,3.72,0,0,0,2.58,1.33h3.47c.89,0,1.69-1,2.84-1s1.69.89,2.76.89a9.9,9.9,0,0,0,3.46-.71,8.25,8.25,0,0,0,2.67-1.42,1.34,1.34,0,0,1,2.31.62c.54,1.34,1.69,2.14,1.69,3.29a11.81,11.81,0,0,0,.8,3.82c.44,1.16.18,2,1.07,2.67s2.1.11,2.52,1.37l.63-2.63c-.62-.89-1.91-2.47-1.38-3.36s1.6-1,2-2.58.8-2.93,2-3.47a7,7,0,0,0,2.85-3.55c.35-1.16.27-3.56.89-5.07s.53-4.26,1.33-5.78,1.42-2.84,2-3.73.09-1.42-.17-2.31a2.36,2.36,0,0,1,.71-2.58,2.81,2.81,0,0,0,.8-2.4v-1.6C862.83,328.49,848.6,328.76,834.41,329.1Z" transform="translate(-613.69 -111.06)"/><path class="cls-1" d="M901.52,327.42q-12.21.43-24.47.72v1.6a2.81,2.81,0,0,1-.8,2.4,2.36,2.36,0,0,0-.71,2.58c.26.89.8,1.42.17,2.31s-1.24,2.22-2,3.73-.71,4.27-1.33,5.78-.54,3.91-.89,5.07a7,7,0,0,1-2.85,3.55c-1.15.54-1.51,1.87-2,3.47s-1.51,1.69-2,2.58.76,2.47,1.38,3.36a4.74,4.74,0,0,0,2.42-.95c.63-.73.42-2.83,1.89-2.83h8.62c1.15,0,1.89-1.16,3.47-1.16H899.2c1.26,0,2.2-.74,3.78-.74s1.68.74,2.95.74h1.68a2.54,2.54,0,0,1,0-1.89c.42-.95-1-.74-.84-1.69s1.47-1.47,1.05-2.62a4.9,4.9,0,0,1,0-3.26,4.82,4.82,0,0,0-.42-3.26c-.53-1.37.63-1.68-.21-2.63s-.63-1.47-.21-2.63,0-1.47-.53-2.63-1-2.73-.42-3.78,2-2.42,1.89-4.1a10.66,10.66,0,0,1,.77-4Z" transform="translate(-613.69 -111.06)"/><path class="cls-1" d="M933,383.75v-17H901.79c-.22,1-1,1.32-1.87,1.76s0,1.76-1.1,2.42-2.2.44-2.75,1.21-2.09,1.76-1.21,2.53,1.54,3.41.55,4.51.33,1.76.33,3V386c0,1-1.76,1.65-.77,2.64a4.06,4.06,0,0,1,1.21,3.85c-.44,1.21.88,1,2,2.53s3.74,1.87,4.18,2.74.66.77,1.21,1,2.2.11,2.86,1.1,2.86,1.32,3.18,3.41.66,2.86,1.65,3.08a2.52,2.52,0,0,1,2.2,2.09,3.67,3.67,0,0,0,2.86,2.42c1,.22.33,2.09,1.32,2.42s1.76.76,1.54,1.86A1.73,1.73,0,0,0,921,417c.88-.11,1.54-.77,1.87-2.08a5.65,5.65,0,0,1,2-3.09c1.53-1.21,1.69-.07,2.85.66.88.55,1.87-.76,2.75.23s.44,2.2,1.76,2.2h3c.66,0,1.76-1.43,2.31-2.64a13.24,13.24,0,0,1,1.8-2.68,30.34,30.34,0,0,1,2.08-2.86c.84-1,1.14-3.1,2.07-4.67l3.75-3.9a16,16,0,0,1-2.66-4.57c-.48-1.46-4,3.95-4.95,3.73s-1.21-.55-1-1.65-.55-1.1-.88-2.53-1.21-1.54-2.53-2.53-.88-1.32-1-3.08S933,385.73,933,383.75Z" transform="translate(-613.69 -111.06)"/><path class="cls-1" d="M908.69,327.17a10.66,10.66,0,0,0-.77,4c.11,1.68-1.36,3.05-1.89,4.1s-.1,2.63.42,3.78.95,1.48.53,2.63-.63,1.68.21,2.63-.32,1.26.21,2.63a4.82,4.82,0,0,1,.42,3.26,4.9,4.9,0,0,0,0,3.26c.42,1.15-1,1.68-1.05,2.62s1.26.74.84,1.69a2.54,2.54,0,0,0,0,1.89s-.16,2.47-1.42,2.47-1.8.31-2.42,1.75c-.33.77-1.76,1.87-2,2.86H933v-40h-.07C925,326.72,916.8,326.91,908.69,327.17Z" transform="translate(-613.69 -111.06)"/><path class="cls-1" d="M849.32,382.38h-3.11c-1.35,0-2.13,1.55-3,1.55h-2.85c-1.42,0-.77-1.63-2.13-1.63h-12v-2.7c0-.7-1.75-1.31-2.1-2.62s-.87-2.1-.35-3.15,1-1.84.7-2.8.27-1.66.62-2.44a5.94,5.94,0,0,0,0-2.45c0-.7,1.13-1.13,1.13-2.27v-3.49c0-1-1-.53-1.22-1.84s-1.31-1.31-1.31-2.27-.44-1.74-.44-2.62.09-2.88-.79-2.88-2,.35-2.62-.52a2.25,2.25,0,0,1,.09-2.54c.44-.87-1-1.22-1.48-2s.08-1.57,1-1.92.62-1,.62-1.75V337c0-.88-1.05-1.05-1.05-1.92v-2.89c0-.61.78-1.13,1.83-1.13s1.92-1.14,2.45-2.28,1.4-.61,2.09-1.57h0c.54.54,1.13,1.94,2.29,1.32s1.69-.89,2.4-.71,2.22.62,2.49,1.6.89,1.69.35,2.58-.53,2.75.27,3.46,1.33,1.25.89,2.22-1.42,1.6-1.42,2.67v3.56c0,1.06.62,2.49,1.42,2.49h3.2c.89,0,1.15-1,2.49-1s1.2,1.82,2.13.89.62-1.78.26-2.85-1.15-3.11-2.22-3.11h-2.84c-.89,0-1.34-2.13,0-2.13s2.13-.45,3.91-.45a3.66,3.66,0,0,1,3.11,1.43c.53.62,1.69,1.6,1.78,2.75s.89,2.31.09,3.47A6.71,6.71,0,0,0,845,349.3a4.13,4.13,0,0,1-1.78,3.37c-1,.63-3.37-.08-4,.89a2.13,2.13,0,0,0,0,2.76,3.68,3.68,0,0,0,2.57,1.33h3.47c.89,0,1.69-1,2.84-1s1.69.89,2.76.89a9.9,9.9,0,0,0,3.46-.71,8.25,8.25,0,0,0,2.67-1.42,1.34,1.34,0,0,1,2.31.62c.53,1.34,1.69,2.14,1.69,3.29a11.81,11.81,0,0,0,.8,3.82c.44,1.16.18,2,1.07,2.67s2.1.11,2.52,1.37a4.21,4.21,0,0,1-1.18,1.26c-.73.49-.48,1.22-.73,2s-1.46.12-2.2,1.46-1.46,1.47-1.46,2.81-2.08-.25-2.57.61-1.34,1.71-1.46,2.93a17.8,17.8,0,0,0,0,2.69h-5.5C849.4,380.92,849.36,381.4,849.32,382.38Z" transform="translate(-613.69 -111.06)"/><path class="cls-1" d="M849.32,382.38c0-1,.08-1.46.93-1.46h5.5a17.8,17.8,0,0,1,0-2.69c.12-1.22,1-2.08,1.46-2.93s2.57.73,2.57-.61.73-1.47,1.46-2.81,2-.73,2.2-1.46,0-1.47.73-2a4.21,4.21,0,0,0,1.18-1.26s1.68.6,1.51,1.63-.59,1.1-1.11,1.79-1.55.77-1.55,2.07.69,2.33,1.55,2.33H869A2,2,0,0,1,871,376.4c.17.86.6,1.64-.43,2.33a12.68,12.68,0,0,0-2.51,1.64c-.6.69-.17,1.56,1.9,1.56a9,9,0,0,0,4-1c.7-.26,1.39.86,1.39,2.59v5.61c0,1.73-.78,2.94-1.3,4.32s-1.9,1.46-2.33,2.59-1.21,2.41.43,3,2.07.34,3.45-.09,2.59-1,3.37-.17,1.47,1.3,1,1.55-1,.75-1,.75" transform="translate(-613.69 -111.06)"/><path class="cls-1" d="M902.34,397.71c-.44-.87-3.08-1.2-4.18-2.74s-2.42-1.32-2-2.53a4.06,4.06,0,0,0-1.21-3.85c-1-1,.77-1.65.77-2.64V382.1c0-1.2-1.32-1.87-.33-3s.33-3.74-.55-4.51.66-1.76,1.21-2.53,1.65-.55,2.75-1.21.22-2,1.1-2.42,1.65-.77,1.87-1.76,1.65-2.09,2-2.86c.62-1.44,1.15-1.75,2.42-1.75s1.42-2.47,1.42-2.47h-1.68c-1.27,0-1.37-.74-2.95-.74s-2.52.74-3.78.74H882.38c-1.58,0-2.32,1.16-3.47,1.16h-8.62c-1.47,0-1.26,2.1-1.89,2.83a4.74,4.74,0,0,1-2.42.95l-.63,2.63s1.68.6,1.51,1.63-.59,1.1-1.11,1.79-1.55.77-1.55,2.07.69,2.33,1.55,2.33H869A2,2,0,0,1,871,376.4c.17.86.6,1.64-.43,2.33a12.68,12.68,0,0,0-2.51,1.64c-.6.69-.17,1.56,1.9,1.56a9,9,0,0,0,4-1c.7-.26,1.39.86,1.39,2.59v5.61c0,1.73-.78,2.94-1.3,4.32s-1.9,1.46-2.33,2.59-1.21,2.41.43,3,2.07.34,3.45-.09,2.59-1,3.37-.17,1.47,1.3,1,1.55-1,.75-1,.75c1.59,0,1,1,2.81,1h9.52" transform="translate(-613.69 -111.06)"/><path class="cls-1" d="M879,401.06c1.58,0,1,1,2.81,1h9.52c.14,4-.88,3.78-2.08,8s-2.08,3.58-2.38,6.12-1.34,3.13-1.34,3.13a37.94,37.94,0,0,1,0,4c-.15.75-1.79,1.19-1.79,1.19v4.63a11.44,11.44,0,0,1-2.09.75c-1.2.29-3.73,2.23-4.78,2.23h-4.18c-1,0-2.09.3-2.83-.74s-1.2-2.39-2.69-2.39h-7.31c0-1.5-1.34-4-2.83-4.48s-3.43,0-5.08.3-2.08-.15-1.79-1.34a4.11,4.11,0,0,0,0-3c-.44-1.34.75-3.13-.15-4.77a5.82,5.82,0,0,1-.89-3.58c0-1.35-.9-1.49-2.69-1.49s-2.83-1.05-4.47-1.05-2.24-2.09-2.69-3.43-1.64-2.39-2.68-3.58-.75-3.28-.75-4-1.34-1.34-1.34-2.09,1.19-.74,1.19-1.64v-3.73c0-1.34-1.19-2.84-2.09-3.73s-1.34-2.09-2.39-2.39a4.87,4.87,0,0,1-2.52-2.63h9.62c1.35,0,.71,1.63,2.13,1.63h2.85c.84,0,1.61-1.55,3-1.55h3.11" transform="translate(-613.69 -111.06)"/><path class="cls-1" d="M902.34,397.71c.44.88.66.77,1.21,1s2.2.11,2.86,1.1,2.86,1.32,3.18,3.41.66,2.86,1.65,3.08a2.52,2.52,0,0,1,2.2,2.09,3.67,3.67,0,0,0,2.86,2.42c1,.22.33,2.09,1.32,2.42s1.76.76,1.54,1.86A1.73,1.73,0,0,0,921,417c.88-.11,1.54-.77,1.87-2.08a5.65,5.65,0,0,1,2-3.09c1.53-1.21,1.69-.07,2.85.66,0,0-.55,1.45-1,2.42a17.87,17.87,0,0,0-.73,3.06,8.21,8.21,0,0,0-3,.73,31.67,31.67,0,0,1-6.87,1.49c-1.34,0-2.53,1.64-4.18,1.5s-4.62.74-6,.74-2.84,1.49-4,1.49-1.94,1.64-2.84,2.54-2.38.77-2.38,2.24a10.18,10.18,0,0,0-2.66-.79c-1.33-.15-1.66-.9-4.06-.42-1.41.28-.85.42-2.39.14s-1.4-.42-2.24.42a4.67,4.67,0,0,1-1.63,1.1v-4.63s1.64-.45,1.79-1.19a37.94,37.94,0,0,0,0-4s1-.6,1.34-3.13,1.19-1.94,2.38-6.12,2.22-4,2.08-8" transform="translate(-613.69 -111.06)"/><path class="cls-1" d="M947.22,398.12c6.07-6.41,15.53-6.38,15.53-6.38s-.5-18.54-.5-19.75-.88-1.21-.88-2.09,1-1,1-2.09-.77-1.54-.77-2.75v-4.61c0-2.09-.77-3.3-.77-4.29s.22-1.87-.77-2.64-.87-2.09-1.53-2.75S958,349,958,347.91a2.48,2.48,0,0,0-1.1-2.3,2.84,2.84,0,0,1-1-2.31,7,7,0,0,0-1.43-3.52,9,9,0,0,1-1.87-5.28v-8c-6.53.12-13.07.18-19.57.18v57c0,2,1.1,2,1.21,3.74s-.33,2.09,1,3.08,2.2,1.1,2.53,2.53,1.1,1.43.88,2.53,0,1.43,1,1.65,4.78-5.27,4.89-3.73C944.87,395.09,947.22,398.12,947.22,398.12Z" transform="translate(-613.69 -111.06)"/><path class="cls-1" d="M1000.58,365.67c-.93-.28.59-1.77.22-2.24s-.39.39-1.09-.21-.32-1.76-1.15-2.29.34-1.11.81-2.87c.25-.92-1-1.21-.85-2.16.23-2.1,1-1.32,1-3.25,0-1.19.08-2.38.12-3.56a3.61,3.61,0,0,1,.07-1.86c.46-1.22,2.77-.36,3.45-2.78.21-.75-1.13-1.82-1-3a1.73,1.73,0,0,1,2.1-1.73c.14,0,.31-.14,0-.38l-1.32-1.42c-.18-.19-.09-.47.1-.45,2.9.36,1.35-2.74,2-4.14.5-.93-.07-1.15,0-1.79.09-2.61,1.37.19,2.42-1.1.68-.83,1-3.78,1.11-5.43,0-.27,0-.71-.3-.37-.55.56-1,1.14-1.61,1.69-.21.25-.57.32-.48-.22s0-.86,0-1.29-.33-.54-.52-.52c-13.24,1.56-29.35,1.68-43.44,2.07q-4.77.14-9.57.21v8a9,9,0,0,0,1.87,5.28,7,7,0,0,1,1.43,3.52,2.84,2.84,0,0,0,1,2.31,2.48,2.48,0,0,1,1.1,2.3c0,1.1-.11,2.2.55,2.86s.55,2,1.53,2.75.77,1.65.77,2.64.77,2.2.77,4.29a11.6,11.6,0,0,0,5.5.76c2.31-.21,2.53,1.21,4.84.88,2.72-.39,2.42,1.65,4.61,1.65,2.64,0,4.61-.34,5.61.33,1.65,1.1,1.76,1.6,3.85,1.6C987.65,365.67,996.22,365.72,1000.58,365.67Z" transform="translate(-613.69 -111.06)"/><path class="cls-1" d="M1005.37,408.58c2.24-.14,2.15,1.86,3.42,3.68s-3.2,6.35-1.1,5.08,2.24,1.27,3.64,1.13,1.54-2.53,3.51-1.27a7,7,0,0,0,3.24,1.25h.06c1,0,0-1.93.64-2.5,1.22-1.13,1.79-2.12,3.46-2.06.72,0,3,.47,3.55.12,1.37-1-1.06-2.4.69-2a2.19,2.19,0,0,0,1.86-.81c.6-1.07-1.42-2.6-2.13-.48a1.87,1.87,0,0,1-2.71.82,3.36,3.36,0,0,1-.79-1.1,13.36,13.36,0,0,1-1.39-4.1c.12-3.57-2.37-.49-2.24-4.08.06-1.62-1.43-1.9-.72-2.86s1.46-6.13,1.06-7-1.22,3.63-2.43,2.29-1.67-3.73-2.2-4.83.07-1.88.13-3.55-.39-1.2-2-1.25c-.81,0-.21-1.72-.29-2.39s.52-2.36-.28-2.38c-1.58-.06-2,.37-2-1.26.05-1.3-1.65-1.37-2.5-1.44s-1.24-1.37-2.11-2.26.57-1.58.08-2.38-1.57-.38-2.52-.23-.35-1-1.31-1.45.64-.82-.6-1.81,0-3.56-.89-3.84c-4.36.05-12.93,0-14.58,0-2.09,0-2.2-.5-3.85-1.6-1-.67-3-.33-5.61-.33-2.19,0-1.89-2-4.61-1.65-2.31.33-2.53-1.09-4.84-.88a11.6,11.6,0,0,1-5.5-.76v4.61c0,1.21.77,1.65.77,2.75s-1,1.21-1,2.09.88.88.88,2.09.5,19.75.5,19.75c2,0,9.86.91,11.68,1.75a21.76,21.76,0,0,0,4.93,1.86c1.54.28,3.35,2.55,6,3s-.06,5.95,3.16,5.39,6.83,2.57,9.21,1.45S1003.12,408.72,1005.37,408.58Z" transform="translate(-613.69 -111.06)"/><path class="cls-1" d="M992.7,449.83a3.48,3.48,0,0,0,.88-1c.36-.62-.16-1.92-.67-3.79s-2.6-1.81-4.15-1.66-2.34-.77-3.79-1.76-.62-2-.16-3,2.08-3.06,3.48-2,2.9.26,4.93-1,2.07,1.15,3,1.35,1.71-1.45,2.77-2.57c-1-2.79.62-5.15,2.44-6.85.84-.79,2.31.15,3.42-.89,1.72-1.61,1.46-1.61,3.07.11,3.13,3.34,3.25-1.08,3.33-3.44,0-.73,2.76-.27,3.56-.25,1.89.07,1-.7,1.26-2.3.43-2.23-.51-2.41,2-2.32a7,7,0,0,1-3.24-1.25c-2-1.26-2.11,1.13-3.51,1.27s-1.54-2.39-3.64-1.13-4.49,3.23-5.75,1.41-.84-3.79-3.08-3.65,1.7-2.58-.69-1.46-6.57,5.94-8.46,9.57c-1.51,2.9-3.59,1.12-5.56,2.74a6.62,6.62,0,0,1-5.75,1.34l-4.71,0c0,2,.5,1.59.36,4.67,0,0-1,4.87-1,6.08,0,2.44-1.09,3.48-1.09,4.77s.68,2.13,1.45,2.13h2.75a3.33,3.33,0,0,0,2.29-.88c.93-.73,2-1.35,2.69-.88s2.29,2.64,3.32,3.58" transform="translate(-613.69 -111.06)"/><path class="cls-1" d="M1013,462.68c.72,3.29,3.79,3.13,3.79,1.72,0-1.86,4.58-1,7.24-1-.41-4.52-4.75.33-4.59-4.19,0-1.61-.55-2.75,1.27-2.68,1.14,0,1.4.49,1.3,1.37-.35.95.21.66.46.46,1.72-1.38,4.52-3.24,4.16-.29-.28.68-.1,1.25.63.42.92-1.05,1.43-2,2.55-.82,1.57,1.69,1.65,1.38,3.85,1.67s2.28,0,3.84,1.68a2.87,2.87,0,0,0,2.52,1c.62,0,.34-.74.19-1.09l-1.32-2.86c-.38-.88,0-1.19,1.28-1.24a3.52,3.52,0,0,0,3.11-1.87c1.32-2.28-.78-2.4,2.84-2.28,2.76.1,2.06,1.49,4.28,2.53a9.45,9.45,0,0,0,3.52.2c.88,0,.74-.54.52-.76a4.72,4.72,0,0,1-1.53-2.34c-.08-1.09-.64-1.16-1-.86-1.73,1.46-3.84,2.65-3.73-.69.06-1.49-1.47-2.39-2.94-2.75-1.7-.36-.9-1.06-.4-1.56a2.5,2.5,0,0,1,1.52-.89c1.1,0,3.36.52,4.37.16,1.69-.61,1.63-2.31,3.63-2.24,1.45.05,2.14-.73,3-1.68.56-.48.56-1-.28-1-2.35-.08-4.6.24-7,.16-1.5,0-1-.75-.55-1.23,1.28-1.44,3-3.41,4.16-3.37,2.93.1,4.34,1.06,4.45-2.22,0-1.61.63-2.33-1.1-2.39s-1.16-.49-1.1-2.06c.08-2.34-4.33,1.4-4.63,1.68-1.39,1.31-1.94,4.87-2.61,6.65-.27.75-2.66.62-4,.41-.55-.09-1.25,0-.89-1.21.31-1.08.68-2.33.12-3.38-.27-.5-1.92-.06-2.35-.28-1.28-.65-2.75-2.69-3.88-4.1-.57-.59-.31-1,.42-.75,1.76.6,2.32-2.29,4.07-2.23,1.58.05,2,.51,2-1.13,0-1.05.3-1.18-.7-1.22-2.1-.07-4.24-.06-6.34-.22-1.84-.14-2.48-.35-3.35-1.15-.36-.34-1.43-.69-1.48,1.44,0,1.73-.8,2.68-2.78,4.54-1.22,1.14-1.66,2-3.31,1.93-1.81-.06-1.09.69-1.27,2.31-.26,2.45-.17,5-.26,7.46-.12,3.62-.75.34-2.44,1.92-1.24,1.16,1.26,2.41-1.26,2.32-2.21-.07-6.29.59-8.28-.29-1.82-.8-3.54-5.44-2.12-7.17s2.31,1.81,2.44-1.91c0-.69-2.13-.66-2.61-.22-2,1.86-3.68,1.94-5.59,3.14a2.73,2.73,0,0,1-2.22-.18c-1.57-.65-2.72-.64-3.79-3.61-1.06,1.12-1.84,2.78-2.77,2.57s-1-2.59-3-1.35-3.53,2-4.93,1-3,1-3.48,2-1.29,2,.16,3,2.23,1.92,3.79,1.76,3.63-.2,4.15,1.66,1,3.17.67,3.79a3.48,3.48,0,0,1-.88,1,22.52,22.52,0,0,0,2,4c1.5,1.86.5,2.5,2.29,3.29,1.43.63,3.14-.79,4.79-.58s2.28,2.38,2,3.15c-.36,1-.06,1.3,1.07,1.64a5.27,5.27,0,0,0,3.44-.35,2,2,0,0,1,2.93.21C1012,462,1012.52,460.29,1013,462.68Z" transform="translate(-613.69 -111.06)"/><path class="cls-1" d="M984.5,446.72a8.3,8.3,0,0,0-1.91,3.58c-.23,1.35-1.35,1.91-2.36,2.58s-2.69,1.68-2.24,2.8a6.31,6.31,0,0,1,.45,4.15c-.45,1.57.22,4.26,1.46,4.93s.89,2.25,1.23,2.92,1.79,1.57,2,2.35,1.68,2,1.68,3.37,1.23,1.46,1.23,2.69V481c0,1-.56,1.35-.56,2.24s.79.68.79,1.57a17.31,17.31,0,0,0,.67,4.38,4.83,4.83,0,0,1,2.68-.62l5.47.19c2.76.1,2.17-1.43,4.45-2.22,3.07-1.06,2.32,1.72,2.25,3.64-.08,2.4-.34,3.33,1.35,5.13,1.35,1.43.71,3.49.65,5.39,0,.57,0,1-.06,1.44-.21,1.2-.26,1.9.73,1.51,2.35-.94,5.43-.17,8-.08,1.81.07,3.63,1.61,5.18,2.46,1.18.64,2.7.27,4,1,3.74,2,6.79,4.23,11.09,4.38,2.06.07,2.54,2.47,4.13,2.52s3.58.57,4.28,2.52c.29.8-.73,4.71.21,4.74,2.92.1,2,1.32,1.87,4.06,0,1,2.45,1,3.48,2.06a12.07,12.07,0,0,0,3.49,1.68c.26.86-.39,2.81-.93,4.75-.31,1.09-1.77,2.6-2.58,3.48s-3.52,2.26-3.57,3.71c-.06,1.67,0,2.15.71,2.92,1,.94,1.85-.19,2.26-.9a27.9,27.9,0,0,0,1.35-2.57c.43-1,0-2,.64-2.64,2.28-2.13,3.91-8.27,6.87-9,1.11-.26,3.57.12,4.74.16,2.33.09,2.38-.28,2.3,2.09-.1,2.77,3.43,3,5.75,3,.57.11,1.55-.26.19-1.13-.4-.43-1.07-1.46-.23-2.27,1.79-1.73,3.34-3.63,5.89-3.54,5.43.19.54-2.43,3.09-4.81,1.68-1.58,2.26-1.83,2.34-4.12,0-1.16,2.36.78,2.44-1.46,0-.8.48-3.54-.26-3.57-1.73-.06-2.33-.13-2.07-1.72.23-.67-.08-.67-1.31.06-1.77,1.06-4.46,2.3-5.71,1.34s1.52-2.3-1.1-2.4c-2.27-.07-.35-.91-1.1-2.41-.48-1-1.81-1.5-2.29-2.46-.75-1.51,1.17-2.32-1.1-2.4s-.37-.91-1.1-2.43c-.29-.59-2.1-2.62-2.55-2.21-1.22,1.14-2.18,1.58-2.24,3.24,0,1.35-.91,1.75-2.41,1.11-2.65-1.13-1.39-4.8-3.37-4.87s-5.95.68-5.88-1.38c.08-2.25-.88-.41-2.32-1.26a7.78,7.78,0,0,1-1.79-1.86c-.2-.37-.77-.53-.62.15.43,1.86-1.11,1.59-3.08,1.52-2.42-.08-4.09.58-4-1.63.24-.78-.12-.78-.56-.58l-3.11,1.43c-1.12.66-.94-.16-.93-.43.07-1.62-.79-2.28-2.08-3.66-.38-.41.85-1.42,1.66-2.08.49-.28.65-.59-.7-.5a8.06,8.06,0,0,1-3.63-.51c-.36-.34,0-2,.21-3.31,0-.47.36-1.41-.72-.61s-3.21,1.95-4,1.78-2.55-2.94-3.09-3.33c-.7-.5-1.9-1-3.12-1.8a1.23,1.23,0,0,1-.51-1.66c.29-.85.85-1.23,1.74-2,.2-.19.72-.88-.63-.72s-1.14-.86-1.09-2.56c.08-2.31-.25-2.4,2.09-2.31.74,0,.47-2.74.5-3.54.06-1.82,1.15-1.15,2.77-1.09,1.16,0,6.8.81,8.23.52.89,1.38-.65,2.12,2.8,2.24.71,0,1.46,1,2.06,1.72.43.76.8.4.81-.38,0-1.32-.44-1.6-2-1.66-1.11,0-1.95-2.86-3.62-2.46-1.14-.32-1.55.21-3-1.33-.69-.74-3.11-.62-3.17-1.31-2.66,0-7.24-.81-7.24,1,0,1.41-3.07,1.57-3.79-1.72-.52-2.39-1-.68-1.78-1.5a2,2,0,0,0-2.93-.21,5.27,5.27,0,0,1-3.44.35c-1.13-.34-1.43-.64-1.07-1.64.28-.77-.36-2.93-2-3.15s-3.36,1.21-4.79.58c-1.79-.79-.79-1.43-2.29-3.29a22.52,22.52,0,0,1-2-4" transform="translate(-613.69 -111.06)"/><path class="cls-1" d="M980.05,491.91c.61.61,1.52,2.92,2.62,3.16.09-2.58-.79-4.39,2.15-4.28.91,0,1.5-1,2.14-1.58a17.31,17.31,0,0,1-.67-4.38c0-.89-.79-.67-.79-1.57s.56-1.23.56-2.24v-4.93c0-1.23-1.23-1.35-1.23-2.69s-1.46-2.58-1.68-3.37-1.68-1.68-2-2.35,0-2.24-1.23-2.92-1.91-3.36-1.46-4.93a6.31,6.31,0,0,0-.45-4.15c-.45-1.12,1.23-2.13,2.24-2.8s2.13-1.23,2.36-2.58a8.3,8.3,0,0,1,1.91-3.58c-1-.94-2.64-3.12-3.32-3.58s-1.76.15-2.69.88a3.33,3.33,0,0,1-2.29.88h-2.75c-.77,0-1.45-.83-1.45-2.13s1.09-2.33,1.09-4.77c0-1.21,1-6.08,1-6.08a8,8,0,0,0-.23-3.2,14.69,14.69,0,0,1-.13-1.47,26.85,26.85,0,0,1-5.68-1.9c-1.82-.84-2.08-1.38-4-1.38l-4.52-.76s-.17,17.41-.17,19,1,1.22,1,2.44,1.09,1.59,1.58,2.44.74,2.08,1.35,3.06,2.32,1.46,3.17,2.44,2.81,1.22,2.81,2v2.69c0,.73-1.47,1.71-1.83,2.81s-1.83,2.56-1.83,3.66-1,2.32-1,4.15h2.81c.85,0,1.1,1.1,2.2,1.1s1.09,2.2,1.09,3.18-1.09,1.09-1.09,2.19,1.09,1.71,1.09,2.93v2.69c0,.73-1.34.37-2.07,1.47s-.37,1.46.24,2.44,1,3,1.83,3.78,1.59,1.35,1.59,2.44,1,1.23,2,1.47a14.77,14.77,0,0,0,2.93.49C977.85,492,979.44,491.3,980.05,491.91Z" transform="translate(-613.69 -111.06)"/><path class="cls-1" d="M951,461.87a21.55,21.55,0,0,1,1,4.52c0,1.1.25,1.46,1.83,1.46h10.75c0-1.83,1-3.05,1-4.15s1.46-2.56,1.83-3.66c.42-1.27,2.32-2.38,1.71-3.14v-2c.67-1-1.72-1.17-2.69-2.28s-2.56-1.47-3.17-2.44-.86-2.2-1.35-3.06-1.58-1.22-1.58-2.44-1-.85-1-2.44.17-19,.17-19l-6.07-.72s-1.6-.49-1.72-.27c-1.84,3.29-4.45,4.57-5,6.44-.36,1.34-1.71,3.17-2.93,3.17h-3c-1,0-1.59,1.1-2.56,1.1s-1.59.73-2.32,1.1-1.71,1.47-1.23,2.57a4.67,4.67,0,0,1,.74,2.44v7.69s2.07.85,1.83,1.95,1,1.83,2.07,1.22,2.45,1.59,2.2,3.18,1,3.17,2,4a5.84,5.84,0,0,0,3.66,1.83A4.18,4.18,0,0,1,951,461.87Z" transform="translate(-613.69 -111.06)"/><path class="cls-1" d="M935.36,446.73h-3.67c-1,0-1.46,1.1-2.19,1.1s-1.23-1.59-2.2-1.34-1.71,1-2.32-.25-1.59-1.58-1.1-2.81a2.68,2.68,0,0,0-.49-2.93,2,2,0,0,1,.12-2.44c.49-.61.13-1.46-.24-2.32a10.19,10.19,0,0,1-1.1-2.93c-.12-1.1.85-1.46,1.59-2.81s-.12-2.93.24-4.27,1.71-2.81,1.59-4.27a8.31,8.31,0,0,1,.37-3.54,17.87,17.87,0,0,1,.73-3.06c.49-1,1-2.42,1-2.42.88.55,1.87-.76,2.75.23s.44,2.2,1.76,2.2h3c.66,0,1.76-1.43,2.31-2.64.22-.5,2-3,4-5.74,1.08-1.47,1.08-3.72,2.35-5,.79-.78,2.07-2.24,3.33-3.39a31.74,31.74,0,0,1,2.89-2.45,22,22,0,0,1,6.54-3c.3-.09-2.38,2.78-3.74,4.56-1.13,1.49-1.28,1-2.49,2.9-.75,1.17-1.3,4.25-1.79,5.34s-2.26,2.62-2.54,3.56c-.44,1.46.3,3.24.23,4.32a15.67,15.67,0,0,0,.08,4.65l5.27,4.2c-1.47,3.06-4.43,4.5-5,6.44-.36,1.34-1.71,3.17-2.93,3.17h-3c-1,0-1.59,1.1-2.56,1.1s-1.59.73-2.32,1.1-1.71,1.47-1.23,2.57a4.67,4.67,0,0,1,.74,2.44Z" transform="translate(-613.69 -111.06)"/><path class="cls-1" d="M904,445.5h7.16c1.79,0,1.79-1,2.69-1.49s2.83.3,3.58.9,1.79,1.93,2.53,1a1.71,1.71,0,0,1,2.54,0c.6.6,1.45.44,2.5.29-.61-1.22-1.59-1.58-1.1-2.81a2.68,2.68,0,0,0-.49-2.93,2,2,0,0,1,.12-2.44c.49-.61.13-1.46-.24-2.32a10.19,10.19,0,0,1-1.1-2.93c-.12-1.1.85-1.46,1.59-2.81s-.12-2.93.24-4.27,1.71-2.81,1.59-4.27a8.31,8.31,0,0,1,.37-3.54,8.21,8.21,0,0,0-3,.73,31.67,31.67,0,0,1-6.87,1.49c-1.34,0-2.53,1.64-4.18,1.5s-4.62.74-6,.74-2.84,1.49-4,1.49-1.94,1.64-2.84,2.54-1.79.89-2.38,2.24" transform="translate(-613.69 -111.06)"/><path class="cls-1" d="M896.67,428.65a10.18,10.18,0,0,0-2.66-.79c-1.33-.15-1.66-.9-4.06-.42-1.41.28-.85.42-2.39.14s-1.4-.42-2.24.42a4.67,4.67,0,0,1-1.63,1.1,11.44,11.44,0,0,1-2.09.75c-1.2.29-3.73,2.23-4.78,2.23h-4.18c0,1.95-.59,3-1.19,3h-2.09v3.28h0a9.1,9.1,0,0,1,1.94,4.51c.28,1.68,1.13,1.82,2.11,2.24s1.26,2.24,1.26,3.64-.14,2.38,1,2.81A15.69,15.69,0,0,0,879,452c.84.14,2.39,0,3,.84s2.66,1.82,2.52,3.22-1.12,2.1-.28,3.36,1.82,2.67.42,3.37c-.84.42-1,1-1,2.1a16.7,16.7,0,0,1-.14,2.1c.84,1,1.68,2.53.84,3.79s-.84,2,.14,2.52a2,2,0,0,1,1,1.63h0a1.43,1.43,0,0,0,1.79-1.34c.15-1.2,1.64-1.94,2.53-3.29a38.17,38.17,0,0,1,3.73-5.37c1.35-1.49.9-1.49,3-4.48a42.35,42.35,0,0,0,4-7.31c.89-1.94,1-3.43,1.49-4.18s1.94-.59,1.94-.59V445.5" transform="translate(-613.69 -111.06)"/><path class="cls-1" d="M991.92,509.64a8.09,8.09,0,0,0-5.11,2.55c-1.25,1.17-1.83,2.11-3.5,2.53s-1.6-.23-1.71-.49c-1.08-2.66-4.18-5-4.07-8.29.06-1.64.48-1.17,2.06-1.12,1.1,0-.27,1.94.29,2.39s4.21.15,5.11.18c2.84.1,2.92-2.28.08-2.37-1.9-.07-3.69.19-2.66-2.48.52-1.34,4-2.45,2.54-4.66-.39-.59-2.4.64-2.36-.45,0-.79,0-1.57.08-2.36-1.1-.24-2-2.55-2.62-3.16s-2.2.12-2.93.12a14.77,14.77,0,0,1-2.93-.49c-1-.24-2-.37-2-1.47s-.73-1.7-1.59-2.44-1.22-2.81-1.83-3.78-1-1.35-.24-2.44,2.07-.74,2.07-1.47v-2.69c0-1.22-1.09-1.83-1.09-2.93s1.09-1.22,1.09-2.19,0-3.18-1.09-3.18-1.35-1.1-2.2-1.1H953.79c-1.58,0-1.83-.36-1.83-1.46a21.55,21.55,0,0,0-1-4.52,4.18,4.18,0,0,0-3.91-2.93,5.84,5.84,0,0,1-3.66-1.83c-1-.86-2.2-2.44-2-4s-1.1-3.79-2.2-3.18-2.32-.12-2.07-1.22-1.83-1.95-1.83-1.95h-3.67c-1,0-1.46,1.1-2.19,1.1s-1.23-1.59-2.2-1.34-1.71,1-2.32-.25c-1.05.15-1.9.31-2.5-.29a1.71,1.71,0,0,0-2.54,0c-.74.89-1.79-.45-2.53-1s-2.69-1.35-3.58-.9-.9,1.49-2.69,1.49H904v2.84s-1.49-.15-1.94.59-.6,2.24-1.49,4.18a42.35,42.35,0,0,1-4,7.31c-2.09,3-1.64,3-3,4.48h10.3v-2.54a4.42,4.42,0,0,0,3.13-1c1.2-1.2,3.14-3.28,3.88-1.94s1.19,2.53,1.79,3,.45,2.84,1.49,3.43.15,2.54,2.09,3a8,8,0,0,1,4.18,2.38c.75.9,2.69,3,3.43,3.73s1,1.94,3,2.39,1.49,1.49,2.68,2.69,2.39.6,2.69,1.79.6,3,1.79,3.28,1.19,2.24,2.39,3.28,3.28,2.09,3.88,3.43,3.13,1.65,3.28,3.44a3.81,3.81,0,0,0,2.53,3.28c1.05.3,1.64,2.24,2.84,2.39s1.19,3.88,1.19,5.07,1.2,1.64,1.2,2.69-.64,1.8-.9,3.13a9.61,9.61,0,0,0,.68,6.3c1.41-.63.82-2.79,1-3.62a19.91,19.91,0,0,1,2.69-6.86c.36-.88,2.09-1.64,3-.45a29.59,29.59,0,0,0,2.25,3.27c1.07,1.15.14,2.6,1,3.5,1.78,1.91,1.93,2.05,2,4.57,0,.83-.62,4.09-.17,4.73.28.4,2.1-.3,2.38.09s-.07,1.88-.09,2.37c-.12,3.47-.19,1.2-2.45,2.29s-1.54,2.43-4.25,2.34c-.54,0-1.64,1-2.54,1.45-2.47,1-2.42,2,1.19.68a102,102,0,0,0,20-9.53,53.26,53.26,0,0,0,8.16-6.86c2-1.87,4-4.71,6.54-5.66C992.91,510.05,993.16,509.48,991.92,509.64Z" transform="translate(-613.69 -111.06)"/><path class="cls-1" d="M950.38,511.75c.26-1.33.9-2.09.9-3.13s-1.2-1.5-1.2-2.69,0-4.92-1.19-5.07-1.79-2.09-2.84-2.39a3.81,3.81,0,0,1-2.53-3.28c-.15-1.79-2.69-2.09-3.28-3.44s-2.69-2.38-3.88-3.43-1.2-3-2.39-3.28-1.49-2.09-1.79-3.28-1.49-.6-2.69-1.79-.74-2.24-2.68-2.69-2.24-1.64-3-2.39-2.68-2.83-3.43-3.73a8,8,0,0,0-4.18-2.38c-1.94-.45-1-2.39-2.09-3s-.89-3-1.49-3.43-1-1.64-1.79-3-2.68.74-3.88,1.94a4.42,4.42,0,0,1-3.13,1v2.54h-10.3a38.17,38.17,0,0,0-3.73,5.37c-.89,1.35-2.38,2.09-2.53,3.29a1.43,1.43,0,0,1-1.79,1.34,6,6,0,0,0-3.44,1.34c-.89.75-3.28,2.24-4.62,1.64a2.29,2.29,0,0,0-3,.6c-.89.9-1.94,1.79-1.94,2.69s.15,1.79-1.34,1.79-2.68.44-2.68,1.49a35.86,35.86,0,0,1-.89,4.59,3.19,3.19,0,0,1,2.34.94c1.38,1.46,1.48,1.57,1.41,3.56,0,.95,1.73.1,2.34.45,3.39,2,1.61,3.75.16,6.4-.77,1.39-1.52.1-2.76.64-.8.35-1.63,1.53-2.27,2.13-1,1-.07,4.91-3.09,4.8-2.16-.07-1.72-.29-1.94-2.07-.28-2.27-2.72-1.6-1.4.56s3.62,3.88,5.44,5.82c.85.91,1.73.25,2.85.59a22.72,22.72,0,0,1,3.93,2.14c1.21.66,1.83,2.3,3,2.84.94.45,3,.11,4,.14,2.23.08,3.81,2.51,6,2.59,4.51.16,12.12-1.07,15.27,2.29,1.59,1.7,1.5,5.41,4,5.5,1.89.06,3.59,2.35,5,4,.27.32.82,1.46.65-.15-.1-.88.26-1.31,1.39-1.27,2.52.09,0-1.17,1.26-2.33s2.3,1.42,2.39-1.1c.05-1.63.47-1.16,2-1.11l7.11.25c1.13,0-.31-2.39.82-2.35s2,.55,2-.67c.06-1.84-.66-6.4,1.41-6.33.95,0,5.9.52,5.92-.16,0-1.33.1-2.66.14-4,0-1.12-2.36.31-2.32-.82.11-3.13,2.55-1,2.59-3.29-.38-1.3.68-.16,1.07.26s1,2.28,1-.11c-.07-3.41,4.18,1.46,5.24,1.5,4,.14.49,3.32,2.65,5.65.63.68,2.27,2.37,3.84,1.68A9.61,9.61,0,0,1,950.38,511.75Z" transform="translate(-613.69 -111.06)"/><path class="cls-1" d="M884.48,473.27c-1-.56-1-1.26-.14-2.52s0-2.8-.84-3.79-2-2.52-3.09-2.52-2.94.28-3.92-.56a5.33,5.33,0,0,0-3.22-1.54,7.89,7.89,0,0,1-4.21-1.12,9.89,9.89,0,0,0-5.61-1.54,8.93,8.93,0,0,1-4.76-1c-1-.56-.7-2.8-.28-4.2s1-2.66,0-3.65a9.92,9.92,0,0,1-2.24-3.78,5,5,0,0,0-2.25-2.94,11.55,11.55,0,0,1-4.34-4h-3.05c-3.73,0-4.17.74-6.86.74s-3.13.6-4.48,1.8-1.94,2.53-3.13,4.47-2.24,4.63-4,5.67-3.58,2.69-5.07,3.43-2.69,3.43-4,4a25,25,0,0,0-5.73,4.65c.29,1.33,1,2.15,2.39.83a22.3,22.3,0,0,1,6.86-4.24c1.35-.62,13.52-.57,14.43.4.47.51-.06,6.94-.51,7.34-1.22,1.13-2.17,1.56-2.23,3.22-.06,1.83.7,1.08,2.33,1.27.58.07,7.09.05,7.08.45-.12,3.37-.32,4.22,1.63,6.44.16.17.67.57,0,1.06a6.81,6.81,0,0,0-2,2.94c-.24.72,0,1.29,1,.77,2.74-1.08,5.33-1.52,7.57-3.11.36-.26,1.08-1.14,1,.73-.09,2,2,3.22,4.27,3.29,2.81.1,4.15.87,6.64,2.24,1.24.67,2.65.41,4,.48a35.86,35.86,0,0,0,.89-4.59c0-1.05,1.19-1.49,2.68-1.49s1.34-.9,1.34-1.79,1-1.79,1.94-2.69a2.29,2.29,0,0,1,3-.6c1.34.6,3.73-.89,4.62-1.64a6,6,0,0,1,3.44-1.34h0A2,2,0,0,0,884.48,473.27Z" transform="translate(-613.69 -111.06)"/><path class="cls-1" d="M744.25,385A2.51,2.51,0,0,0,745,387c1,1.21,1.7,1.82,1.7,2.55v3.16A3.12,3.12,0,0,1,745,395c-1,.48-.85,1.21-.61,2.06s.61,1.7.24,2.43-1,1.34-.48,2,.36,1,.36,1.82v7.29c0,1,0,1.58,1,2.07s3,.73,2.31,2.06-1.58,1.83-1.58,3-.6,1.82-1.33,2.8-.37,1.7-.37,2.43a9.51,9.51,0,0,0,1.1,2.67,10.29,10.29,0,0,1,3.64-.73c.73,0,1-1.58,2.07-1.21a6.47,6.47,0,0,1,3.28,2.43,3.21,3.21,0,0,0,2.67,1.58,4.43,4.43,0,0,1,3,1.21c.73.85,2.43,2.31,3.77,1.34s3-.85,4-1.94,1.21-2.31,2.19-2.68a4.25,4.25,0,0,0,2.06-2.55c.24-.85,1.22-.73,1.95-1.58s1.33-.61,2.06-1.21,2.55-1.95,2.55-2.92V414c0-.85,1.22-1.95,2.31-2.07a2.49,2.49,0,0,0,2.07-1.46c.36-.73,1.82-.61,2.31-.85s-.25-2.06.24-2.79a5,5,0,0,1,1.94-1.95c1.1-.61.37-.73,1.22-1.33s0-2.44,0-2.44h-1.7v-2.3c0-.73-1.46-.86-1.46-1.95v-7.65h-6.93V385H758" transform="translate(-613.69 -111.06)"/><path class="cls-1" d="M789,403.55c-.65.81-.12.72-1.22,1.33a5,5,0,0,0-1.94,1.95c-.49.73.24,2.55-.24,2.79s-2,.12-2.31.85a2.49,2.49,0,0,1-2.07,1.46c-1.09.12-2.31,1.22-2.31,2.07v3.4c0,1-1.82,2.31-2.55,2.92h6.74c1,0,1.4,1.09,3.1,1.09s1.46,1.34,3,1.34,3.28.36,4.13-.37,1.58,0,1.34,1.09-.67,3,0,3.65,2.67,1,3.52,1.7,2.07,1.95,3.53,1.95a11,11,0,0,1,3.28.72,18.82,18.82,0,0,1,1.34-4.25c.6-1.7.48-2.91,1.45-4a10.43,10.43,0,0,0,2.43-5.1c.13-1.7-.48-2.55-1.33-2.43a9.37,9.37,0,0,0-3.28,1.09,1.33,1.33,0,0,1-2.07-1,2.14,2.14,0,0,1,.85-2.43c.85-.61,1.58-.61,2-1.7s-.13-1.7-1-1.83a1.38,1.38,0,0,1-.85-2.18c.61-1.1,2.07-.49,1.7-1.83a14,14,0,0,0-1.33-3.64c-.61-1,0-1.34.61-2.19s.48-2.67-.25-3" transform="translate(-613.69 -111.06)"/><path class="cls-1" d="M802.32,475a10.2,10.2,0,0,0-1.09-.1l-7.45-.26c-3.49-.12-3-2.11-3.95-5.39-.93-3.1-.54-4.15,1.81-6.35,1.91-1.79,4.75-3,7-4.37s4.44-1.83,6.3-3.46a9.06,9.06,0,0,0-.15-3.14c-.49-1.46-1.22-2.06-1.22-3.89a35.11,35.11,0,0,0-.48-5.22c-.25-1.58-1.22-3.41-.73-5s1.58-2.42,2.18-3.76a5.51,5.51,0,0,0,.49-2.56,11,11,0,0,0-3.28-.72c-1.46,0-2.68-1.22-3.53-1.95s-2.85-1-3.52-1.7-.24-2.55,0-3.65-.49-1.82-1.34-1.09-2.55.37-4.13.37-1.33-1.34-3-1.34-2.06-1.09-3.1-1.09h-6.74c-.73.6-1.34.36-2.06,1.21s-1.71.73-1.95,1.58a4.25,4.25,0,0,1-2.06,2.55c-1,.37-1.22,1.58-2.19,2.68s-2.68,1-4,1.94-3-.49-3.77-1.34a4.43,4.43,0,0,0-3-1.21,3.21,3.21,0,0,1-2.67-1.58,6.47,6.47,0,0,0-3.28-2.43c-1.1-.37-1.34,1.21-2.07,1.21a10.29,10.29,0,0,0-3.64.73,36.89,36.89,0,0,1-4.14,1.95c-1.76.72-4.13,2.55-6,3.64h9.6v48.8c4.85.16,9.86-.09,14.64.76,5.78,1,11.62,2.52,17.5,2.73,2.8.1,5.07-2.5,7.74-3.72,2.12-1,4.13-.61,6.47-.52,1.75.06,5.86-.51,7.33.55l.08.07" transform="translate(-613.69 -111.06)"/><path class="cls-1" d="M744.25,385v-.85a4.72,4.72,0,0,1,.51-1.25c.36-.57,0-1.42.22-2.13a3.45,3.45,0,0,1,1.62-1.84c.78-.42.92-1.34,1.49-2.05s.21-1.42-.42-2.06-.92-1.77-.92-3.39V340.15h8.63c1,0,1-.91,1.84-1.26s.78-.88.78-1.49-.78-.69-.78-1.66.69-1.39,1.57-1.48,1.31-1.05,2.88-1.49,2.36-1.22,2.36-2,1.05-1.23,2.36-1.23a5.19,5.19,0,0,1,3.75,1.66c.7,1,1.23,1.75,2.19,1.75h3.58s.09,2.27.09,3.14,1.57,2.19,2.27,2.8a3.73,3.73,0,0,1,1.39,2.71v4h2.28v5.94c0,1.14,1.74,1.05,2.44,1.58a2.59,2.59,0,0,1,1.22,2.44v7.86c0,1.4-1.31,2.19-1.83,2.8a4.29,4.29,0,0,0-1,2.79c0,1.23-.87,1.14-.87,1.93v4.28h-4.46v3.32H763.07a4.68,4.68,0,0,0-2.54.61c-.87.52-.87,1.75-.87,2.62s-.26,1.13-1,1.57S758,385,758,385" transform="translate(-613.69 -111.06)"/><path class="cls-1" d="M803.58,396c0-1-.16-3.42.63-3.77s1.31,0,1.83.87a1.71,1.71,0,0,0,2.45.44,10,10,0,0,1,3.23-1.4c1.14-.17,2.88-.61,3.76-.26s2.09,1.66,3.75,1.66h10.23c1.65,0,1.39-.35.08-1.75s-1.83-1.22-1.83-2.09v-2.19h-2.27V385.8c0-.79-1.75-1-1.75-1.84s.09-1.66.87-1.66h1.75v-2.71c0-.69-1.75-1.3-2.1-2.62s-.87-2.09-.35-3.14,1-1.84.7-2.8.27-1.66.61-2.44,0-1.75,0-2.45,1.14-1.13,1.14-2.27v-3.49c0-1-1-.53-1.22-1.84s-1.31-1.31-1.31-2.27-.44-1.75-.44-2.62.09-2.88-.79-2.88-2,.35-2.62-.53a2.23,2.23,0,0,1,.09-2.53c.44-.87-1-1.22-1.48-2l-25.07.09c-.7,0-.88-.61-1.49-.61s-.79.43-1.66.43h-8.38v5.94c0,1.14,1.74,1.05,2.44,1.58a2.59,2.59,0,0,1,1.22,2.44v7.86c0,1.4-1.31,2.19-1.83,2.8a4.29,4.29,0,0,0-1,2.79c0,1.23-.87,1.14-.87,1.93v4.28h-4.46v3.32H763.07a4.68,4.68,0,0,0-2.54.61c-.87.52-.87,1.75-.87,2.62s-.26,1.13-1,1.57S758,385,758,385h20.9v4.26h6.93v7.65c0,1.09,1.46,1.22,1.46,1.95v2.3H789s.85,1.83,0,2.44" transform="translate(-613.69 -111.06)"/><path class="cls-1" d="M798.86,479.92c1.57,1.16,4.79,4.54,6.62,4.6,1.17,0,3.49-.35,4.53.16s1.36,2,2.29,2.46c1.34.71,2-.32,3.17.94,1.37,1.45,1.49,1.57,3.46,1.64,3.1.11,5.15-.8,5.27-4.17,0-1,2.27-2.78,3.79-4,2.14-1.9-.67-.83-1-1.21s1-3.12-1.15-1.27c-1.91,1.6-2.13.68-4.33-1.71-1.43-1.56-1.56-1.83-3.67-1.9-1,0,.29-2.35-.49-2.38l-8.08-.28c-2.27-.08-.42.87-1.27,2.32a8,8,0,0,1-1.8,1.89.59.59,0,0,1-1,0,3.6,3.6,0,0,0-2.8-2" transform="translate(-613.69 -111.06)"/><path class="cls-1" d="M860.71,439.24c2.24,0,4-.89,5.52-.89h3.13v-3.28h2.09c.6,0,1.19-1,1.19-3-1,0-2.08.3-2.83-.74s-1.19-2.39-2.69-2.39H850.26c-1.64,0-2.68,3-4.47,3h-6.57c-1.79,0-1.34-1.49-2.53-3s-2.39-1.79-2.69-3.28-1.79-1.35-4-1.94-4.62-1.2-6.12-.15-.29,2.53-1.93,3.13-1.94,3.58-4,3.58-2.24-1.49-4.48-1.49-3.58-1.49-4.63-1.49-2.43-.07-2.43-.07a18.82,18.82,0,0,0-1.34,4.25,5.51,5.51,0,0,1-.49,2.56c-.6,1.34-1.7,2.19-2.18,3.76s.48,3.41.73,5a35.11,35.11,0,0,1,.48,5.22c0,1.83.73,2.43,1.22,3.89a9.06,9.06,0,0,1,.15,3.14l.2-.17c1.27-1.2,1.44-1.15,3.22-1.08.93,0,2-1.5,2.64-2.11a1.46,1.46,0,0,1,2.52,1.1c-.09,2.62,1.41-.11,2.32,1.27,1.32,2-2.17,5.42-2.61,7a10.09,10.09,0,0,0,0,3.83,25,25,0,0,1,5.73-4.65c1.34-.6,2.54-3.28,4-4s3.28-2.38,5.07-3.43,2.84-3.73,4-5.67,1.79-3.28,3.13-4.47,1.79-1.8,4.48-1.8,3.13-.74,6.86-.74h8.66C856.83,440.14,858.47,439.24,860.71,439.24Z" transform="translate(-613.69 -111.06)"/><path class="cls-1" d="M806.35,427.24c.6-1.7.48-2.91,1.45-4a10.43,10.43,0,0,0,2.43-5.1c.13-1.7-.48-2.55-1.33-2.43a9.37,9.37,0,0,0-3.28,1.09,1.33,1.33,0,0,1-2.07-1,2.14,2.14,0,0,1,.85-2.43c.85-.61,1.58-.61,2-1.7s-.13-1.7-1-1.83a1.38,1.38,0,0,1-.85-2.18c.61-1.1,2.07-.49,1.7-1.83a14,14,0,0,0-1.33-3.64c-.61-1,0-1.34.61-2.19s.48-2.67-.25-3-1.67-1-1.67-1c0-1-.16-3.42.63-3.77s1.31,0,1.83.87a1.71,1.71,0,0,0,2.45.44,10,10,0,0,1,3.23-1.4c1.14-.17,2.88-.61,3.76-.26s2.09,1.66,3.75,1.66h10.23c1.65,0,1.39-.35.08-1.75s-1.83-1.22-1.83-2.09v-2.19h-2.27V385.8c0-.79-1.75-1-1.75-1.84s.09-1.66.87-1.66h4.08a4.87,4.87,0,0,0,2.52,2.63c1.05.3,1.5,1.49,2.39,2.39s2.09,2.39,2.09,3.73v3.73c0,.9-1.19.9-1.19,1.64s1.34,1.34,1.34,2.09-.3,2.83.75,4,2.24,2.24,2.68,3.58,1,3.43,2.69,3.43,2.68,1.05,4.47,1.05,2.69.14,2.69,1.49a5.82,5.82,0,0,0,.89,3.58c.9,1.64-.29,3.43.15,4.77a4.11,4.11,0,0,1,0,3c-.29,1.19.15,1.64,1.79,1.34s3.58-.75,5.08-.3,2.83,3,2.83,4.48h-9.55c-1.64,0-2.68,3-4.47,3h-6.57c-1.79,0-1.34-1.49-2.53-3s-2.39-1.79-2.69-3.28-1.79-1.35-4-1.94-4.62-1.2-6.12-.15-.29,2.53-1.93,3.13-1.94,3.58-4,3.58-2.24-1.49-4.48-1.49-3.58-1.49-4.63-1.49S806.35,427.24,806.35,427.24Z" transform="translate(-613.69 -111.06)"/><path class="cls-1" d="M883.5,467a16.7,16.7,0,0,0,.14-2.1c0-1.12.14-1.68,1-2.1,1.4-.7.42-2.1-.42-3.37s.14-2,.28-3.36-2-2.38-2.52-3.22-2.11-.7-3-.84a15.69,15.69,0,0,1-3.36-.42c-1.12-.43-1-1.41-1-2.81s-.28-3.22-1.26-3.64-1.83-.56-2.11-2.24a9.1,9.1,0,0,0-1.94-4.51h-3.13c-1.49,0-3.28.89-5.52.89s-3.88.9-5.52.9h-5.61a11.55,11.55,0,0,0,4.34,4,5,5,0,0,1,2.25,2.94,9.92,9.92,0,0,0,2.24,3.78c1,1,.42,2.25,0,3.65s-.7,3.64.28,4.2a8.93,8.93,0,0,0,4.76,1,9.89,9.89,0,0,1,5.61,1.54,7.89,7.89,0,0,0,4.21,1.12,5.33,5.33,0,0,1,3.22,1.54c1,.84,2.8.56,3.92.56S882.66,466,883.5,467Z" transform="translate(-613.69 -111.06)"/><path class="cls-1" d="M764.16,159.13v-2.51c0-1-1.21-.33-1.21-1.21s1.1-.22,1.1-1.09v-4.6h-9.64v-5.47h-2.62c-1.32,0-.66-.22-2-2-1.61-2.14-5.26-2.63-5.26-2.63H726V144c0,1.53-2.4,2.84-3.28,4.16s0,4.82.22,6.35-1.1,2-1.75,3.72v14.51h23.38v-3.1c0-1.06.25-1.54,1.09-1.54h17.65v-.84c0-.74.9-.74.9-1.81Z" transform="translate(-613.69 -111.06)"/><path class="cls-1" d="M677.69,230.55c.69,1.73.83,2.77,2.12,2.88a7.29,7.29,0,0,0,2.87-.28c.84-.28,1.39,1.86,2.23.93a4.22,4.22,0,0,1,3.61-1.85v-7.42h9.83c1.2,0-.84-1.3-1.3-1.94s-1.3-.84-1.3-2.32.56-1.67,1.3-2.41.37-1.3.37-2.13-.84-.65-1.39-1.48a2.32,2.32,0,0,1-.46-2.23,7.28,7.28,0,0,0,.18-2.41,4.44,4.44,0,0,0-1.76-2.5c-.93-.74-.93-.83-.93-1.58h22.8v3.25c0,1.2.93.65,2,1.76a2.6,2.6,0,0,1,.83,3.15c-.37,1.48.47,2,1,2.78a3.39,3.39,0,0,1,.93,2.78c0,1.76-.47,1.58-1.11,2.87s.83.93.64,2.32.84,1,1.3,2.41-.65,1.67-1.57,2.69-.65,1.94-.65,2.87v3.43c0,1.3-.19,2.69-1.3,1.85a2.21,2.21,0,0,0-3.15,0c-1.11.93.56,1.11.09,2s.28,1.11.28,2.69-.09,2.68-1.11,3.52a3.54,3.54,0,0,0-1.3,3.24c0,1.58,0,3.11.56,3.71s.37,1-.19,2-.18,1.85.65,1.85H716c.75,0,.65,1.3,1.12,1.3h1.39v3c0,.93.27,1.49.92,1.49h2.23c.65,0,.83.27,1.39,1.48a1.9,1.9,0,0,0,2,1.39h3.7c.93,0,1.58,1.3,1.95,2.5s1.2,1.76,2.32,3.06,2.27,1.32,3.15,3.06a14.5,14.5,0,0,1-2.88,2.22c-1.29.65-2.78,1.39-3,2.41s-2,2.22-3,2.69-2.5,1.11-3,2.22a7.1,7.1,0,0,1-3.33,3.25,6.44,6.44,0,0,0-2.87,2.31c-.84,1-2.23.28-3.06,1.11s-.68,1.56-.89,2.44c-1.09-.36-1.82,0-3-1.33s-4.26-1.55-6.93-1.55h-16V271.85h-8.83V260.92c0-.84-1-.7-1-1.69s1-.7,1-1.54v-5.18h-9.75V233.57c0-1.21.69-1.73.87-2.76s1.55-2,1.81-1.21,1.08.7,1.81,1a8.21,8.21,0,0,0,3.54,0" transform="translate(-613.69 -111.06)"/><path class="cls-1" d="M679.41,260.92c0-.84-1-.7-1-1.69s1-.7,1-1.54v-5.18h-9.75V238.92H630.14a14.11,14.11,0,0,1,0,1.6c-.07,1.92,2.13,2.91,3.48,4,1.09.85,1.74,3.2.75,4a1.13,1.13,0,0,0,.07,2,2.81,2.81,0,0,1,1.13,2.53c0,1.08,1.95-.14,2.35.45.3.44.1,2.39-.45,2.38-3-.11-2.06,1.72-2.15,4.3-.07,1.95-.28,2.68-1.12,3.61-.68.66-1.1,1.29-.16,1.31,1.6.05,1,1.8,1,3.71-.06,1.63.38,1.19,2,1.25,1.09,0-.27,1.94.29,2.39.82.67,4.78.16,5.92.2,1.48.06,1.39,1.62,1.2,3.16-.12,1.3-.81,1.76-1.52,1.72-1.4.15-1.82.83-.57,1.81.88.7,2.12.78,3.83.53.69-.1.25,3.6.22,4.38,0,1.09,1.92-.13,2.33.45s-.15,1.81-.08,2.36a17,17,0,0,1,.49,3.54c-.08,1.53-.72,2.92-.75,3.94-.08,2.26.4,2.51,2,4.19.6.65,2.63-.22,2.59.71,0,.74-.54,3.82-.15,4.38,1,1.35,2.42-1.35,2.33,1.26s0,3.54,1.55,5.31c.65.8.56.18.56-.48.18-1.35,1.37-1.38,2.8-1.24,0-1.07.15-5,.34-6.66a2.72,2.72,0,0,1,2.8-2.53H670a6.17,6.17,0,0,1,1.68-3.08c1.12-1.12,1.83-4.07,2.39-5.19s1.54-1.12,3.36-1.12h10.79V271.85h-8.83Z" transform="translate(-613.69 -111.06)"/><path class="cls-1" d="M726.87,330c0-1.46-1-2.07-1-3.53V304.38a3.49,3.49,0,0,0-1.7-3,6.53,6.53,0,0,1-2.43-3.77c-.12-1.09-1.1-2.92-2.92-2.92s-3.52-1.33-4.62-1.7-1.82,0-3-1.33-4.26-1.55-6.93-1.55H677.45c-1.82,0-2.8,0-3.36,1.12s-1.27,4.07-2.39,5.19a6.17,6.17,0,0,0-1.68,3.08h-6.87a2.72,2.72,0,0,0-2.8,2.53c-.19,1.61-.35,5.59-.34,6.66l1.55.17a.44.44,0,0,1,.35.69c-.43.91-.8,2-1.47,2.31-1.34.66-.1,2.45,1,3.72a.53.53,0,0,1-.56.77c-2.65-.32-2,4.3-.4,4.35,2.74.1,1,5.23,1,5.94-.07,1.9-.79.91-2.42,1.1s-2.34-.8-2.4,1.1c0,.84-.29,3.56.24,3.58,1.72.06,4.4-.68,4.33,1.33-.09,2.46.64,3.58-2.13,3.49-1,0,.18,2.3-1.69,2.41-.29,0-.67.35,0,1.2a5.37,5.37,0,0,1,1,2.45c.8-.24,1.5-.47,1.89-.61a5.21,5.21,0,0,1,4,.73,4,4,0,0,0,3.89.37c1.33-.73,2.31-1.82,4.62-1.82s22.11-.25,23.81-.25,1.34.85,2.56.85h4.25c1.21,0,1.09-.85,2.19-.85h6.68v1.1h14.58V341c0-1.09-1.09-2.31-1.09-3.28V333.3C725.78,332,726.87,331.47,726.87,330Z" transform="translate(-613.69 -111.06)"/><path class="cls-1" d="M772.94,206.67h-4.52c-1,0-1.89-1-2.84-1s-1.05,1-1.79,1h-3.47c-2.1,0-2.62-.86-6.93-.86H715.86v3.25c0,1.2.93.65,2,1.76a2.6,2.6,0,0,1,.83,3.15c-.37,1.48.47,2,1,2.78a3.39,3.39,0,0,1,.93,2.78c0,1.76-.47,1.58-1.11,2.87s.83.93.64,2.32.84,1,1.3,2.41-.65,1.67-1.57,2.69-.65,1.94-.65,2.87v3.43c0,1.3-.19,2.69-1.3,1.85a2.21,2.21,0,0,0-3.15,0c-1.11.93.56,1.11.09,2s.28,1.11.28,2.69-.09,2.68-1.11,3.52a3.54,3.54,0,0,0-1.3,3.24c0,1.58,0,3.11.56,3.71H742.5c1.34,0,2.5-.19,2.5-1.54V244.9c0-1,1.15-1.15,2.3-1.15s20.32.77,21.09,0a9.72,9.72,0,0,0,1.92-2.11c1-1.8,1.72-2.3,1-3.64s.77-1.54,1-2.5a29.1,29.1,0,0,0,.77-3.64c0-.77,0-2.11,0-2.11" transform="translate(-613.69 -111.06)"/><path class="cls-1" d="M768.39,243.75a3.89,3.89,0,0,0,.6,1.94,9.64,9.64,0,0,1,1.37,2.77c.6,1.64-1.34,2.54-2.09,3.73s.3,1.79,1.2,2.68.14,1.19-.15,2.24-1.34,1.94-.9,2.83.75,1.64,0,2.09-1.64.29-1.19,1.49a3,3,0,0,0,2.68,1.93c1.05,0,3-.14,3.13.9s1.79,1.64,1.34,2.83.15,2.24,1.49,2.83.75,1.94.15,3.28,1.94,1.49,3,1a2.69,2.69,0,0,1,3,.9,15.56,15.56,0,0,1-2.54,1.49c-1.34.6-2.83,1.49-4.47,1.34s-3,1.34-4.62,1.34-2.68,1.34-5.07,1.34S756.35,285.13,755,285s-4.17.74-5.81,1.34-3.73,1.34-4.77.89-2.09.6-4.62.15-.15-1.19-.75-1.64-1.49-1.19-.6-1.64,1-2.38.3-2.38-1.93-.3-2.08-1.19.17-2.41,1.19-2.69c1.64-.44,1.79-2.38.45-1.78s-1.43-.55-2.07-1.74c-1-1.83-2-1.76-3.15-3.06s-2-1.85-2.32-3.06-1-2.5-1.95-2.5h-3.7a1.9,1.9,0,0,1-2-1.39c-.56-1.21-.74-1.48-1.39-1.48h-2.23c-.65,0-.92-.56-.92-1.49v-3h-1.39c-.47,0-.37-1.3-1.12-1.3h-2.22c-.83,0-1.2-.83-.65-1.85s.79-1.44.19-2H742.5c1.34,0,2.5-.19,2.5-1.54V244.9c0-1,1.15-1.15,2.3-1.15S767.62,244.52,768.39,243.75Z" transform="translate(-613.69 -111.06)"/><path class="cls-1" d="M782,277.23a2.4,2.4,0,0,0-3-.9c-1,.45-3.57.3-3-1s1.2-2.68-.15-3.28-1.93-1.64-1.49-2.83-1.19-1.79-1.34-2.83-2.08-.9-3.13-.9a3,3,0,0,1-2.68-1.93c-.45-1.2.45-1,1.19-1.49s.45-1.2,0-2.09.6-1.79.9-2.83,1-1.34.15-2.24-1.94-1.49-1.2-2.68,2.69-2.09,2.09-3.73a9.64,9.64,0,0,0-1.37-2.77,3.89,3.89,0,0,1-.6-1.94,9.72,9.72,0,0,0,1.92-2.11c1-1.8,1.72-2.3,1-3.64s.77-1.54,1-2.5a31,31,0,0,0,.77-3.64c0-.77,0-2.11,0-2.11h28.43v13.91c0,.91-.82.5-.82,1.55v49.11" transform="translate(-613.69 -111.06)"/><path class="cls-1" d="M816.64,302c-.08-1,.84-1.4,1.54-2.1s.56-2-.42-1.68a3.15,3.15,0,0,1-3.23-1.4c-1-1.26-.84-4.07-.7-5.33s1.55-1.82,2.25-2.52,1.4-.84,2-.14,1.82.56,3.22.42,1.12-1.54.42-2.24-3.08-.28-4.06-.28-2-1.13-2.52-2.11,0-2.24-.71-3.08-1-1.54-.42-2,.56-1.68,1.13-2.81,2.1-1.12,2.24,0a6.81,6.81,0,0,0,1.4,3.09c.7,1,0,2.66,1.12,2.66s1.54-.84,2.38,0,2.11.84,3.51.56,1.26-1.54,1.12-2.52-1.54-1-2.66-1a7.15,7.15,0,0,1-3.93-.84c-1.4-.84-.84-2,.14-2.39a3.8,3.8,0,0,0,2-2.66c.14-1-1-2.1-2.1-2.52s-1.68-1.82-2.66-2.81-.42-1.68.42-2.38a3.35,3.35,0,0,0,1-2.66c0-.84.42-1.54,1.82-2.53s2.25-.84,2.67.29.28,2.1,1.4,2.66,2.1-1,2.94-1.68a3.07,3.07,0,0,0,.56-3.23c-.42-.84-1-1.54-.14-2.52s.84-2.94.84-3.64.56-1.27,1.26-2.11,2.11.28,3.09.84,2.24-.28,3.22-.84,1.26-1.82,2-2.38,1.69.7,2,1.68.7,1,1.82,1.82,2.24-1.68,1.18-2.85c-.44-1-1.26-1.33-1.45-2.27s-1.58-1.71-1.83-2.21.63-1.27.63-1.9v-3.79a3.06,3.06,0,0,0-.57-2c-.44-.51.06-1.71.76-2.59h-2.1V225.3h-3.83c-.86,0-.57,1.43-1.43,2.29s-1.15,2.1-2.2,2.39-1.34,1.62-2.1,2.58a4.78,4.78,0,0,1-3.54,1.82,6.87,6.87,0,0,0-3.73,1.05c-.76.57-.86-1.15-1.53-1.34s-.57-1.24-.57-1.82,0-1.62-1.15-1.62-1.53-.86-2.48-1.24-.38-2.49-1.44-2.49a4,4,0,0,1-2.58-1.53l-2.11.53v3.83h-9v13.91c0,.91-.82.5-.82,1.55v49.11c.78.75,2.17,2.67.89,3s-1.92,1.07-1.18,1.81,2,1.07,2.14,2.14.42,1.92-.32,2.13-.54,1.17.21,1.39,2,.42,2.67-.32,1.6-1.5,1.6-.75-.11,2.24.74,1.81a1.3,1.3,0,0,0,.64-2,4.31,4.31,0,0,1-.85-2.78,3.22,3.22,0,0,1,1.28-2.24,2.09,2.09,0,0,1,2.67-.21c.85.75,1.92,0,2.56.85s.31,1.82,1.28,2.14A16,16,0,0,1,816.64,302Z" transform="translate(-613.69 -111.06)"/><path class="cls-1" d="M782,277.23a15.56,15.56,0,0,1-2.54,1.49c-1.34.6-2.83,1.49-4.47,1.34s-3,1.34-4.62,1.34-2.68,1.34-5.07,1.34S756.35,285.13,755,285s-4.17.74-5.81,1.34-3.73,1.34-4.77.89-2.09.6-4.62.15-.15-1.19-.75-1.64-1.49-1.19-.6-1.64,1-2.38.3-2.38-1.93-.3-2.08-1.19.17-2.41,1.19-2.69c1.64-.44,1.79-2.38.45-1.78s-1.43-.55-2.07-1.74a14.5,14.5,0,0,1-2.88,2.22c-1.29.65-2.78,1.39-3,2.41s-2,2.22-3,2.69-2.5,1.11-3,2.22a7.1,7.1,0,0,1-3.33,3.25,6.44,6.44,0,0,0-2.87,2.31c-.84,1-2.23.28-3.06,1.11s-.68,1.56-.89,2.44c1.1.37,2.8,1.7,4.62,1.7s2.8,1.83,2.92,2.92a6.53,6.53,0,0,0,2.43,3.77,3.49,3.49,0,0,1,1.7,3v22.11c0,1.46,1,2.07,1,3.53s-1.09,1.94-1.09,3.28v4.37c0,1,1.09,2.19,1.09,3.28h8c1,0,1.84-.8,3.4-.8h17.06c1,0,1-.91,1.84-1.26s.78-.88.78-1.49-.78-.69-.78-1.66.69-1.39,1.57-1.48,1.31-1.05,2.88-1.49,2.36-1.22,2.36-2,1.05-1.23,2.36-1.23a5.19,5.19,0,0,1,3.75,1.66c.7,1,1.23,1.75,2.19,1.75h3.58" transform="translate(-613.69 -111.06)"/><path class="cls-1" d="M775.91,333s.09,2.27.09,3.14,1.57,2.19,2.27,2.8a3.73,3.73,0,0,1,1.39,2.71v4h10.66c.87,0,1-.43,1.66-.43s.79.61,1.49.61l25.07-.09c-.53-.78.08-1.57,1-1.92s.62-1,.62-1.75V337c0-.88-1.05-1.05-1.05-1.92v-2.89c0-.61.78-1.13,1.83-1.13s1.92-1.14,2.45-2.28,1.4-.61,2.09-1.57,1.23-3.05,2.33-4.17c.7-1-.28-2,.7-3.5s-.42-2.11-.84-3.23a4,4,0,0,1,1.82-4.2,2.76,2.76,0,0,0,1.26-3.51,1.73,1.73,0,0,0-2.66-.7c-1.12.7-2-.42-2.52-1.12a3,3,0,0,0-3.09-1,3.79,3.79,0,0,1-3.78-1.82c-.84-1.26-2-1.31-2.1-2a16,16,0,0,0-1.76-.72c-1-.32-.64-1.28-1.28-2.14s-1.71-.1-2.56-.85a2.09,2.09,0,0,0-2.67.21,3.22,3.22,0,0,0-1.28,2.24,4.31,4.31,0,0,0,.85,2.78,1.3,1.3,0,0,1-.64,2c-.85.43-.74-1.06-.74-1.81s-1,0-1.6.75-1.92.53-2.67.32-1-1.18-.21-1.39.42-1.07.32-2.13-1.39-1.39-2.14-2.14-.1-1.49,1.18-1.81-.11-2.24-.89-3" transform="translate(-613.69 -111.06)"/><path class="cls-1" d="M839.23,326.91c1-1.38,0-2.28,1.66-3.86,1.39-1.28-.09-1.83-1.24-3.08-.7-.75-1.81-2.61-2.83-2.65-4.69-.16-.06-4.65.61-7.07a21.29,21.29,0,0,0,.16-4.38c0-1.18-2.39.61-2.32-1.64.09-2.56-2.38.13-2.29-2.44.07-1.79,1-1.16,2.62-1.1,3.93.14,5.54-.3,9.13-2,.56-.26.33-3.74.36-4.46,0-1.16-2.38.61-2.3-1.63s-2.35-.46-2.31-1.63c0-.49,0-1,0-1.48a2.79,2.79,0,0,0-.5-1c-1.34-1.41-2.89-3.15-1-4.87s4.23-3.08,4.11.39c-.06,1.66,0,5.11,2.55,5.2,2.15.07,2,.22,2.07-1.94,0-.49.95-.49,1.69-.4.28,0,.68.08.13-.48-1-1-1.91-2.05-2.87-3.08-1.49-1.59-.35-1.8-1.07-3.6-.52-1.32-2.29-1.63-2.24-3.19s.1-2.91.16-4.36c.08-2.45.14-1.81,2.42-1.9,1.43-.05,2.93.1,4.37.15,3.23.11,2.94-4.89,3-5.82,0-.57-.9-.29-1.25-.07-1.42.89-4.86,2.16-6.18.74-2.55-2.75-2.68-3.63-.36-5.93.65-.7,1.17-.36,1.14-.18-.49,2.69.9.5,2.17,1.88.67.72,2.7,2.67,3.5,2.53,1-.17,1-.37,1.07-.63s-.3-1.64.26-2.15,2.1-1.48,2.19-2c.27-1.56-2.25-3.51-2.19-5.2a4.41,4.41,0,0,1,2.52-4.27c.64-.32,2.35.67,2.39-.28a.41.41,0,0,1,.05-.18h-15c1.06,1.17-.12,3.65-1.18,2.85s-1.54-.84-1.82-1.82-1.26-2.24-2-1.68-1,1.82-2,2.38-2.24,1.4-3.22.84-2.38-1.68-3.09-.84-1.26,1.4-1.26,2.11,0,2.66-.84,3.64-.28,1.68.14,2.52a3.07,3.07,0,0,1-.56,3.23c-.84.7-1.82,2.24-2.94,1.68s-1-1.54-1.4-2.66-1.27-1.27-2.67-.29S819,262.46,819,263.3a3.35,3.35,0,0,1-1,2.66c-.84.7-1.4,1.4-.42,2.38s1.54,2.39,2.66,2.81,2.24,1.54,2.1,2.52a3.8,3.8,0,0,1-2,2.66c-1,.42-1.54,1.55-.14,2.39a7.15,7.15,0,0,0,3.93.84c1.12,0,2.52,0,2.66,1s.28,2.24-1.12,2.52-2.66.28-3.51-.56-1.26,0-2.38,0-.42-1.68-1.12-2.66a6.81,6.81,0,0,1-1.4-3.09c-.14-1.12-1.68-1.12-2.24,0s-.57,2.39-1.13,2.81-.28,1.12.42,2,.15,2.1.71,3.08,1.54,2.11,2.52,2.11,3.36-.42,4.06.28,1,2.1-.42,2.24-2.66.28-3.22-.42-1.26-.56-2,.14-2.11,1.26-2.25,2.52-.28,4.07.7,5.33a3.15,3.15,0,0,0,3.23,1.4c1-.28,1.12,1,.42,1.68s-1.62,1.12-1.54,2.1c.05.66,1.26.71,2.1,2a3.79,3.79,0,0,0,3.78,1.82,3,3,0,0,1,3.09,1c.56.7,1.4,1.82,2.52,1.12a1.73,1.73,0,0,1,2.66.7,2.76,2.76,0,0,1-1.26,3.51,4,4,0,0,0-1.82,4.2c.42,1.12,1.82,1.68.84,3.23s0,2.52-.7,3.5,1,2.31,1.82,2.24c1.83-.14,2.35-2.06,3.37-.84a3.71,3.71,0,0,1,1.12,3.08c-.28,1.13-.45,1.73.25,1.61C835.58,328.56,838.47,327.9,839.23,326.91Z" transform="translate(-613.69 -111.06)"/><path class="cls-1" d="M675.19,225.37a19.09,19.09,0,0,0-4.06-1.9,4.24,4.24,0,0,1-2.67-2.5c-.52-1.47-1.9-.87-2.34-2.16s.09-2.5-1-3.37a10.92,10.92,0,0,1-2.68-2.59c-.52-.86-2-1.46-1.12-2.59s2.24-1.55,1.81-2.59-1-1.12-1-2v-2.51a1.94,1.94,0,0,0-1.2-1.81c-.61-.17-3.63-.34-4.41-1.38-1.13-1.52-2.61-1.92-2.61-3.64v-3.28a12.06,12.06,0,0,0-2.85-2.41c-1.09-.44-.66-2.85-2.19-2.85s-3.5.44-4.82-.65-2.4-2.41-4.16-2.19-3.28,1.09-3.5,2.19a5.42,5.42,0,0,1-2.63,3.28,4.82,4.82,0,0,0-2.62,3.72c-.22,1.75-2.63,3.51-4.38,4.6s-3.07,2.19-3.94,2.19h-6.77q-.29,8-.56,16c-.1,2.9-1.32,4.9,1.82,5,1.13,0-.47,2.35.66,2.39,2.15.07,1,0,1,2.14,0,1.16,2.4-.61,2.32,1.64-.09,2.53,1.16,0,2.32,1.27s-1.42,2.31,1.1,2.4c.63,0-.42,1.81.5,1.78a2.72,2.72,0,0,1,2.24,2c0,.42-.22.84,0,1s.79,0,1.38,0c1,.2,1.3,1.17,1.38,2.36h39.52v-5.35c0-1.21.69-1.73.87-2.76s1.55-2,1.81-1.21,1.08.7,1.81,1a8.21,8.21,0,0,0,3.54,0C677,228.82,676.4,226.32,675.19,225.37Z" transform="translate(-613.69 -111.06)"/><path class="cls-1" d="M666.62,195.7c-.87-.66-2-.44-2-1.54s-.87-2.62-2.19-2.62-2,0-1.75-1.1.66-2.84-.65-2.84a2,2,0,0,1-2.19-1.76c-.22-1.09-.22-1.53-2-1.75s-2-.87-2-2-1.1-2-1.76-1.31-3.06,0-2.4-1.31-.22-2.19-1.54-2.19-1.09-1.76-.22-2.85-1.09-3.94-1.31-4.82a3.9,3.9,0,0,0-3.28-3.06c-2.41-.44-1.1-2.85-2.41-3.94s1.09-1.53,1.75-2.63-2-1.53-1.53-3.5a3.78,3.78,0,0,0-2-3.94c-.88-.44.87-1.54,0-2.41s-1.1-2.41-1.1-4.16-.22-2.85-2-1.75-1.31-.88-.44-2,2-2,2.41-3.51,0-2.62-1.31-2-1.75-.43,0-2,1.09-3.28.88-4.59-1.1-2.19-2.19-3.51.21-3.72,1.09-4.81-1.31-2.19-2.63-2.41.44-1.75,1.32-2,1.31-.88.22-2a2.67,2.67,0,0,1-.67-2.23c-6,0-12-.23-18.1-.44.06.41.11.83.17,1.24.68,5.19,1.79,10.42,1.61,15.66q-.33,9.34-.65,18.69l-1.11,31.71L616.07,201h6.77c.87,0,2.19-1.09,3.94-2.19s4.16-2.85,4.38-4.6a4.82,4.82,0,0,1,2.62-3.72,5.42,5.42,0,0,0,2.63-3.28c.22-1.1,1.75-2,3.5-2.19s2.85,1.09,4.16,2.19,3.29.65,4.82.65,1.1,2.41,2.19,2.85a12.06,12.06,0,0,1,2.85,2.41v3.28H667.5Z" transform="translate(-613.69 -111.06)"/><path class="cls-1" d="M669.47,169.21c0-.88-.66-2.85-.66-4.6s.88-3.07.88-5.26V139.87h-2.41a4.42,4.42,0,0,1,0-3.07,4.78,4.78,0,0,0,.88-2.84c0-1.32-1.32-2.63,0-3.5s.43-1.32-.44-2.85-3.07-2.63-1.31-3.28.65-1.76-1.32-2.85S662.25,120,662,118s.65-2.41.87-3.94a14.25,14.25,0,0,0,.08-1.46c-4.56,0-9.14.19-13.79.45-4.81.26-9.56.34-14.32.31a2.67,2.67,0,0,0,.67,2.23c1.09,1.09.65,1.75-.22,2s-2.63,1.75-1.32,2,3.51,1.31,2.63,2.41-2.19,3.5-1.09,4.81,2,2.19,2.19,3.51.87,3.06-.88,4.59-1.31,2.63,0,2,1.75.44,1.31,2-1.53,2.41-2.41,3.51-1.31,3.06.44,2,2,0,2,1.75.22,3.28,1.1,4.16-.88,2,0,2.41a3.78,3.78,0,0,1,2,3.94c-.44,2,2.19,2.41,1.53,3.5s-3.06,1.53-1.75,2.63,0,3.5,2.41,3.94a3.9,3.9,0,0,1,3.28,3.06c.22.88,2.19,3.73,1.31,4.82s-1.09,2.85.22,2.85,2.19.87,1.54,2.19,1.75,2,2.4,1.31,1.76.22,1.76,1.31.22,1.75,2,2,1.75.66,2,1.75a2,2,0,0,0,2.19,1.76c1.31,0,.87,1.75.65,2.84s.44,1.1,1.75,1.1,2.19,1.53,2.19,2.62,1.1.88,2,1.54l.88.65.66.66h5v-3.94c0-.88-1.75-2-2.19-3.07s1.1-2.19,1.32-3.5,1.75-2.41,1.09-3.72-3.06-2-2.41-2.85,1.32-1.75,2.19-1.09,2.41.22,2.41-1.53h-6.13Z" transform="translate(-613.69 -111.06)"/><path class="cls-1" d="M684.12,112.89c-7.15-.25-14.12-.38-21.14-.31a14.25,14.25,0,0,1-.08,1.46c-.22,1.53-1.09,2-.87,3.94s1.09,2.4,3.06,3.5,3.07,2.19,1.32,2.85.43,1.75,1.31,3.28,1.75,2,.44,2.85,0,2.18,0,3.5a4.78,4.78,0,0,1-.88,2.84,4.42,4.42,0,0,0,0,3.07h2.41v19.48c0,2.19-.88,3.51-.88,5.26s.66,3.72.66,4.6v8.1h19.27v-4.16h7.66V171a27.14,27.14,0,0,0-1.53-4.38,18.62,18.62,0,0,1-.88-5.47V150.82c0-1.32-1.31-1.32-1.31-2.85V144H688.3v-31Z" transform="translate(-613.69 -111.06)"/><path class="cls-1" d="M688.3,113.05v31h4.38V148c0,1.53,1.31,1.53,1.31,2.85v7.44h27.15c.65-1.75,2-2.19,1.75-3.72s-1.1-5-.22-6.35S726,145.56,726,144v-4.38h9.42v-3.06c0-1.1-.88-1.54-.88-2.41s1.75-.66,1.75-1.75V114.61C720.26,114.49,704.27,113.65,688.3,113.05Z" transform="translate(-613.69 -111.06)"/><path class="cls-1" d="M673.19,197h-5l-.66-.66H653.93c0,1.72,1.48,2.12,2.61,3.64.78,1,3.8,1.21,4.41,1.38a1.94,1.94,0,0,1,1.2,1.81v2.51c0,.86.52.95,1,2s-1,1.47-1.81,2.59.6,1.73,1.12,2.59a10.92,10.92,0,0,0,2.68,2.59c1.12.87.6,2.07,1,3.37s1.82.69,2.34,2.16a4.24,4.24,0,0,0,2.67,2.5,19.09,19.09,0,0,1,4.06,1.9c1.21.95,1.81,3.45,2.5,5.18s.83,2.77,2.12,2.88a7.29,7.29,0,0,0,2.87-.28c.84-.28,1.39,1.86,2.23.93a4.22,4.22,0,0,1,3.61-1.85v-7.42h9.83c1.2,0-.84-1.3-1.3-1.94s-1.3-.84-1.3-2.32.56-1.67,1.3-2.41.37-1.3.37-2.13-.84-.65-1.39-1.48a2.32,2.32,0,0,1-.46-2.23,7.28,7.28,0,0,0,.18-2.41,4.44,4.44,0,0,0-1.76-2.5c-.93-.74-.93-.83-.93-1.58" transform="translate(-613.69 -111.06)"/><path class="cls-1" d="M693.06,205.81h33.62a6.84,6.84,0,0,1,1.27-2.08,2.7,2.7,0,0,0,.94-2.32c-.21-.63-.73-1-.1-1.47s1.26-.84,1.26-1.79.94-1.89.94-3V180.7c0-.84-.73-1.47-.73-2.31v-5.62h-9.12V158.26H694v2.85a18.62,18.62,0,0,0,.88,5.47A27.14,27.14,0,0,1,696.4,171v2.19h-7.66v4.16H675.6c0,1.75-1.53,2.19-2.41,1.53s-1.53.22-2.19,1.09,1.75,1.54,2.41,2.85-.88,2.41-1.09,3.72-1.76,2.41-1.32,3.5,2.19,2.19,2.19,3.07V197" transform="translate(-613.69 -111.06)"/></svg>