<svg id="base_map" data-name="base map" xmlns="http://www.w3.org/2000/svg" viewBox="0 0 187.04 280.7"><defs><style>.cls-1{fill:#015067;stroke:#fff;stroke-width:0.84px;}.cls-2{fill:none;}</style></defs><path class="cls-1" d="M345.77,313.23h-4.25c-1.21,0-.85-.86-2.55-.86s-21.51.25-23.82.25-3.28,1.09-4.62,1.82a4,4,0,0,1-3.89-.36,5.12,5.12,0,0,0-4-.73c-.38.14-1.09.36-1.89.6a26,26,0,0,1,0,4.56c-.09,2.58-2.35-.28-2.44,2.29,0,.8.23,3.57-.5,3.54-4.18-.14-1.39,4-1.53,7-.07,1.42-2,3.06-6.23,6.38-1.37,1.07-.44,3.39-.46,4.1a4,4,0,0,1-2.13,2.54c-1.92.31-1.56,1.09-2.33,2.23-1.36.52-.45,1.26-.06,1.56.62.45,0,1.83,1.55,1.88,1.8.06,1.62,2,0,2.35-2,.12.35,1.45.82,3a10,10,0,0,1,0,3c-.06,1.63-.46,1.17-2,1.11-1.05,0,.08,1.87-.45,2.37s-2.34-.77-2.38.28c0,.48,0,.95-.05,1.42h25.92v-6.44c0-1-1.22-1.45-1.22-2.06s1.58-1.22,3.28-1.22h6.69v9.72h23.21V343.85a1.31,1.31,0,0,1,1.45-1.34h12.76V312.37H348C346.87,312.37,347,313.23,345.77,313.23Z" transform="translate(-168.03 -83.25)"/><rect class="cls-2" width="18.83" height="32.37"/></svg>