<svg id="base_map" data-name="base map" xmlns="http://www.w3.org/2000/svg" viewBox="0 0 334.56 319.79"><defs><style>.cls-1{fill:#015067;stroke:#fff;stroke-width:0.84px;}.cls-2{fill:none;}</style></defs><path class="cls-1" d="M448.7,397.93c.61-1.7.49-2.91,1.46-4a10.52,10.52,0,0,0,2.43-5.1c.12-1.7-.49-2.55-1.34-2.43a9.58,9.58,0,0,0-3.28,1.09,1.32,1.32,0,0,1-2.06-1,2.13,2.13,0,0,1,.85-2.43c.85-.61,1.58-.61,1.94-1.7s-.12-1.7-1-1.82a1.39,1.39,0,0,1-.85-2.19c.61-1.09,2.06-.49,1.7-1.82a14.31,14.31,0,0,0-1.34-3.65c-.61-1,0-1.34.61-2.19s.49-2.67-.24-3-1.68-1-1.68-1c0-1-.15-3.42.63-3.77s1.31,0,1.84.88a1.69,1.69,0,0,0,2.44.43,9.84,9.84,0,0,1,3.24-1.39c1.13-.18,2.88-.61,3.75-.27s2.1,1.66,3.76,1.66h10.22c1.66,0,1.4-.35.09-1.74s-1.84-1.23-1.84-2.1v-2.18h-2.27v-1.75c0-.79-1.75-1-1.75-1.84s.09-1.66.88-1.66H471a4.84,4.84,0,0,0,2.53,2.64c1,.29,1.49,1.49,2.39,2.38s2.09,2.39,2.09,3.73v3.73c0,.9-1.2.9-1.2,1.64s1.35,1.35,1.35,2.09-.3,2.84.74,4,2.24,2.24,2.69,3.58,1,3.43,2.68,3.43,2.69,1.05,4.48,1.05,2.68.15,2.68,1.49a5.77,5.77,0,0,0,.9,3.58c.89,1.64-.3,3.43.15,4.78a4.08,4.08,0,0,1,0,3c-.3,1.19.15,1.64,1.79,1.34s3.58-.74,5.07-.3,2.84,3,2.84,4.48h-9.55c-1.64,0-2.69,3-4.48,3h-6.56c-1.79,0-1.35-1.49-2.54-3s-2.39-1.79-2.69-3.28-1.79-1.34-4-1.94-4.63-1.2-6.12-.15-.3,2.53-1.94,3.13-1.94,3.58-4,3.58-2.24-1.49-4.48-1.49-3.58-1.49-4.62-1.49S448.7,397.93,448.7,397.93Z" transform="translate(-168.03 -83.25)"/><rect class="cls-2" width="18.83" height="32.37"/></svg>