<!-- Generator: Adobe Illustrator 23.0.2, SVG Export Plug-In  -->
<svg version="1.1" xmlns="http://www.w3.org/2000/svg" xmlns:xlink="http://www.w3.org/1999/xlink" x="0px" y="0px" width="720px"
	 height="164.11px" viewBox="0 0 720 164.11" style="enable-background:new 0 0 720 164.11;" xml:space="preserve">
<style type="text/css">
	.st0{fill:#FFFFFF;}
</style>
<defs>
</defs>
<g>
	<polygon class="st0" points="0,3.46 0,96.98 55.99,96.98 68.75,74.33 29,74.33 29,3.46 	"/>
	<g>
		<path class="st0" d="M200.58,8.88c-9.66-5.16-18.82-5.42-24.75-5.42h-41.9v66.52h13.28l-14.64,26.99l42.23,0.01
			c7.21,0,23.07-0.4,35.07-13.65c5.92-6.48,12.12-18.15,12.12-34.05C221.99,32.74,215.55,17.09,200.58,8.88 M186.37,69.03
			c-5.67,5.96-12.46,6.24-19.56,6.24h-4.51V25.18h5.67c7.61,0,14.54,1.46,19.05,6.76c4.27,5.02,6.19,11.52,6.19,18.15
			C193.2,59.23,190.24,65.06,186.37,69.03"/>
		<polygon class="st0" points="91.46,74.6 91.46,60.43 111.92,60.43 119.85,38.42 91.46,38.42 91.46,25.71 121.67,25.71 130.6,3.31 
			62.7,3.31 62.7,69.98 76.16,69.98 61.05,97 127.51,96.98 139.75,74.6 		"/>
		<polygon class="st0" points="3.05,132.7 7.1,132.7 7.1,159.81 22.37,159.81 22.37,163.34 3.05,163.34 		"/>
		<path class="st0" d="M33.73,142.26c6.28,0,10.07,4.56,10.07,10.8c0,6.23-3.78,10.8-10.07,10.8c-6.28,0-10.06-4.57-10.06-10.8
			C23.67,146.82,27.45,142.26,33.73,142.26 M33.73,161.1c5.08,0,6.28-4.64,6.28-8.04c0-3.4-1.21-8.05-6.28-8.05
			c-5.08,0-6.28,4.65-6.28,8.05C27.45,156.45,28.65,161.1,33.73,161.1"/>
		<path class="st0" d="M64.02,163.34h-3.53v-2.76h-0.09c-1.34,2.06-3.35,3.27-6.02,3.27c-4.13,0-7.27-1.81-7.27-7.53v-13.55h3.53
			v13.55c0,2.92,1.81,4.25,4.34,4.25c3.27,0,5.51-2.1,5.51-5.42v-12.39h3.53V163.34z"/>
		<path class="st0" d="M68.5,132.7h3.52v4.05H68.5V132.7z M68.5,142.77h3.52v20.57H68.5V142.77z"/>
		<path class="st0" d="M79.77,156.11c0,3.83,3.01,4.99,5.85,4.99c1.64,0,4.6-0.52,4.6-3.53c0-5.12-13.42-1.29-13.42-9.33
			c0-4.17,4.08-5.98,7.74-5.98c2.8,0,8.82,1.42,8.82,6.71l-3.53,0.47c0-3.01-2.45-4.43-5.12-4.43c-1.89,0-4.39,0.56-4.39,3.05
			c0,4.64,13.68,1.34,13.68,9.47c0,4.34-4.43,6.33-8.9,6.33c-4.52,0-8.65-2.07-9.12-7.27L79.77,156.11z"/>
		<path class="st0" d="M97.98,132.7h3.52v4.05h-3.52V132.7z M97.98,142.77h3.52v20.57h-3.52V142.77z"/>
		<path class="st0" d="M118.88,149.18c0-2.92-1.29-4.17-4.82-4.17c-2.71,0-4.09,1.42-4.22,4.21l-3.52-0.21
			c0.47-4.65,3.23-6.75,7.78-6.75c3.49,0,8.3,0.94,8.3,6.36v9.55c0,2.02,0.78,2.32,1.51,2.32c0.39,0,0.73-0.08,1.07-0.22v2.93
			c-0.69,0.17-1.46,0.3-2.19,0.3c-2.11,0-3.1-0.9-3.57-2.84c-1.94,2.15-4.43,3.19-7.31,3.19c-3.66,0-6.58-2.5-6.58-5.68
			c0-5.68,5.08-6.71,13.55-7.19V149.18z M118.88,153.31c-5.77,0.81-9.77,1.46-9.77,4.65c0,2.49,2.28,3.14,3.96,3.14
			c3.31,0,5.81-2.02,5.81-5.41V153.31z"/>
		<path class="st0" d="M128.35,142.77h3.53v2.76h0.09c1.34-2.06,3.36-3.27,6.02-3.27c4.13,0,7.27,1.8,7.27,7.52v13.55h-3.53v-13.21
			c0-3.52-1.85-4.6-4.35-4.6c-3.27,0-5.51,2.1-5.51,5.42v12.39h-3.53V142.77z"/>
		<path class="st0" d="M162.73,149.18c0-2.92-1.29-4.17-4.82-4.17c-2.71,0-4.09,1.42-4.22,4.21l-3.52-0.21
			c0.47-4.65,3.23-6.75,7.78-6.75c3.49,0,8.3,0.94,8.3,6.36v9.55c0,2.02,0.77,2.32,1.51,2.32c0.39,0,0.73-0.08,1.07-0.22v2.93
			c-0.69,0.17-1.46,0.3-2.19,0.3c-2.11,0-3.1-0.9-3.57-2.84c-1.94,2.15-4.43,3.19-7.31,3.19c-3.66,0-6.58-2.5-6.58-5.68
			c0-5.68,5.08-6.71,13.55-7.19V149.18z M162.73,153.31c-5.77,0.81-9.77,1.46-9.77,4.65c0,2.49,2.28,3.14,3.96,3.14
			c3.31,0,5.81-2.02,5.81-5.41V153.31z"/>
		<path class="st0" d="M170.69,132.7h4.39v4.86c0,1.11-0.56,4.52-1.59,6.67h-2.02c0.82-2.5,1.03-4.3,1.03-6.67h-1.81V132.7z"/>
		<path class="st0" d="M179.9,156.11c0,3.83,3.01,4.99,5.85,4.99c1.64,0,4.6-0.52,4.6-3.53c0-5.12-13.42-1.29-13.42-9.33
			c0-4.17,4.08-5.98,7.74-5.98c2.8,0,8.82,1.42,8.82,6.71l-3.52,0.47c0-3.01-2.45-4.43-5.12-4.43c-1.89,0-4.39,0.56-4.39,3.05
			c0,4.64,13.68,1.34,13.68,9.47c0,4.34-4.43,6.33-8.9,6.33c-4.52,0-8.65-2.07-9.12-7.27L179.9,156.11z"/>
		<path class="st0" d="M234.63,142.17c-1.03-4.17-5.11-6.97-9.68-6.97c-7.57,0-11.01,6.06-11.01,12.82
			c0,6.75,3.44,12.82,11.01,12.82c5.29,0,9.29-3.66,10.03-9.08l4.26,0.51c-1.38,7.22-7.57,11.83-14.29,11.83
			c-9.55,0-15.4-6.54-15.4-16.09c0-9.55,5.85-16.09,15.4-16.09c6.59,0,12.05,3.18,13.9,9.47L234.63,142.17z"/>
		<path class="st0" d="M260.53,163.34h-3.53v-2.76h-0.09c-1.34,2.06-3.35,3.27-6.02,3.27c-4.13,0-7.27-1.81-7.27-7.53v-13.55h3.53
			v13.55c0,2.92,1.81,4.25,4.34,4.25c3.27,0,5.51-2.1,5.51-5.42v-12.39h3.53V163.34z"/>
		<path class="st0" d="M268.37,156.11c0,3.83,3.01,4.99,5.85,4.99c1.64,0,4.61-0.52,4.61-3.53c0-5.12-13.42-1.29-13.42-9.33
			c0-4.17,4.09-5.98,7.75-5.98c2.79,0,8.82,1.42,8.82,6.71l-3.53,0.47c0-3.01-2.45-4.43-5.12-4.43c-1.89,0-4.39,0.56-4.39,3.05
			c0,4.64,13.68,1.34,13.68,9.47c0,4.34-4.43,6.33-8.91,6.33c-4.52,0-8.65-2.07-9.12-7.27L268.37,156.11z"/>
		<path class="st0" d="M284.25,142.77h3.4v-6.41h3.53v6.41H295v3.01h-3.83v13.08c0,0.99,0,1.98,1.42,1.98c0.78,0,1.47-0.17,2.2-0.43
			v3.01c-1.16,0.26-2.32,0.43-3.48,0.43c-3.66,0-3.66-1.72-3.66-4.05v-14.02h-3.4V142.77z"/>
		<path class="st0" d="M307.44,142.26c6.28,0,10.07,4.56,10.07,10.8c0,6.23-3.79,10.8-10.07,10.8c-6.28,0-10.07-4.57-10.07-10.8
			C297.37,146.82,301.15,142.26,307.44,142.26 M307.44,161.1c5.08,0,6.28-4.64,6.28-8.04c0-3.4-1.2-8.05-6.28-8.05
			c-5.08,0-6.28,4.65-6.28,8.05C301.15,156.45,302.36,161.1,307.44,161.1"/>
		<path class="st0" d="M321.68,142.77h3.27v2.58h0.09c1.29-1.67,3.35-3.09,5.76-3.09c2.24,0,4.86,0.9,5.98,3.57
			c1.46-2.02,4.04-3.57,6.24-3.57c3.36,0,6.71,1.46,6.71,7.48v13.59h-3.52v-13.77c0-2.54-1.12-4.04-3.61-4.04
			c-2.19,0-5.12,1.2-5.12,4.3v13.51h-3.52v-13.77c0-2.54-1.12-4.04-3.61-4.04c-2.2,0-5.12,1.2-5.12,4.3v13.51h-3.53V142.77z"/>
		<polygon class="st0" points="364.54,132.7 368.88,132.7 376.02,156.63 376.11,156.63 383.81,132.7 387.98,132.7 395.68,156.63 
			395.77,156.63 402.91,132.7 407.26,132.7 397.83,163.34 393.83,163.34 385.92,138.3 385.83,138.3 377.96,163.34 373.96,163.34 		
			"/>
		<path class="st0" d="M415.61,142.26c6.28,0,10.07,4.56,10.07,10.8c0,6.23-3.79,10.8-10.07,10.8c-6.28,0-10.07-4.57-10.07-10.8
			C405.54,146.82,409.33,142.26,415.61,142.26 M415.61,161.1c5.08,0,6.28-4.64,6.28-8.04c0-3.4-1.2-8.05-6.28-8.05
			s-6.28,4.65-6.28,8.05C409.33,156.45,410.53,161.1,415.61,161.1"/>
		<path class="st0" d="M428.99,142.77h3.53v3.53h0.09c1.68-2.8,3.7-3.79,7.27-3.79v3.87c-0.69-0.05-1.77-0.09-2.36-0.09
			c-3.4,0-5,3.14-5,5.51v11.53h-3.53V142.77z"/>
		<polygon class="st0" points="443.32,132.7 446.85,132.7 446.85,151.59 454.94,142.86 459.2,142.86 451.71,150.99 460.96,163.34 
			456.53,163.34 449.3,153.53 446.85,156.15 446.85,163.34 443.32,163.34 		"/>
		<path class="st0" d="M465.01,145.78h-3.4v-3.01h3.4v-3.66c0-4.51,1.77-6.41,5.72-6.41c0.78,0,1.54,0.13,2.24,0.26v2.67
			c-0.56-0.09-1.08-0.17-1.94-0.17c-1.12,0-2.5,0.34-2.5,2.88v4.43h3.83v3.01h-3.83v17.55h-3.53V145.78z"/>
		<path class="st0" d="M484.8,142.26c6.28,0,10.07,4.56,10.07,10.8c0,6.23-3.79,10.8-10.07,10.8c-6.28,0-10.07-4.57-10.07-10.8
			C474.73,146.82,478.52,142.26,484.8,142.26 M484.8,161.1c5.08,0,6.28-4.64,6.28-8.04c0-3.4-1.2-8.05-6.28-8.05
			c-5.08,0-6.28,4.65-6.28,8.05C478.52,156.45,479.72,161.1,484.8,161.1"/>
		<path class="st0" d="M499.05,142.77h3.53v3.53h0.08c1.68-2.8,3.7-3.79,7.27-3.79v3.87c-0.69-0.05-1.77-0.09-2.37-0.09
			c-3.4,0-4.99,3.14-4.99,5.51v11.53h-3.53V142.77z"/>
		<path class="st0" d="M526.92,149.57c-0.51-2.8-2.63-4.56-5.46-4.56c-4.99,0-6.41,4.34-6.41,8.09c0,4,1.68,8,6.32,8
			c3.48,0,5.77-2.06,5.9-5.55l3.79,0.3c-0.61,5-4.39,8.01-9.55,8.01c-6.63,0-10.24-4.3-10.24-10.58c0-6.37,3.57-11.01,10.2-11.01
			c4.3,0,8.26,2.23,9.25,6.92L526.92,149.57z"/>
		<path class="st0" d="M537.38,153.83c0,4.09,2.15,7.27,6.19,7.27c3.1,0,4.99-1.55,5.77-4.6l3.48,0.43
			c-1.33,4.61-4.82,6.93-9.38,6.93c-6.28,0.13-9.85-4.78-9.85-10.63c0-6.67,3.14-10.97,9.81-10.97c6.45,0,9.59,4.69,9.59,10.75v0.82
			H537.38z M549.21,151.07c-0.43-3.36-2.32-6.06-6.19-6.06c-3.44,0-5.42,2.92-5.64,6.06H549.21z"/>
		<path class="st0" d="M588.76,141.69c-0.22-4.51-3.66-6.5-7.92-6.5c-2.88,0-6.84,0.99-6.84,4.61c0,8.09,19.44,2.02,19.44,14.8
			c0,6.5-5.97,9.51-11.79,9.51c-7.27,0-13.03-2.88-13.55-10.71l4.38-0.39c0.22,5.55,3.71,7.84,9,7.84c3.87,0,7.57-1.77,7.57-6.12
			c0-8.43-19.44-2.71-19.44-14.07c0-5.94,5.68-8.73,10.97-8.73c6.32,0,11.49,2.88,12.35,9.55L588.76,141.69z"/>
		<path class="st0" d="M606.66,142.26c6.28,0,10.07,4.56,10.07,10.8c0,6.23-3.79,10.8-10.07,10.8c-6.28,0-10.07-4.57-10.07-10.8
			C596.59,146.82,600.38,142.26,606.66,142.26 M606.66,161.1c5.08,0,6.28-4.64,6.28-8.04c0-3.4-1.2-8.05-6.28-8.05
			c-5.07,0-6.28,4.65-6.28,8.05C600.38,156.45,601.58,161.1,606.66,161.1"/>
		<rect x="619.96" y="132.7" class="st0" width="3.53" height="30.63"/>
		<path class="st0" d="M644.86,163.34h-3.53v-2.76h-0.09c-1.33,2.06-3.35,3.27-6.02,3.27c-4.13,0-7.27-1.81-7.27-7.53v-13.55h3.53
			v13.55c0,2.92,1.81,4.25,4.34,4.25c3.27,0,5.5-2.1,5.5-5.42v-12.39h3.53V163.34z"/>
		<path class="st0" d="M647.88,142.77h3.4v-6.41h3.53v6.41h3.83v3.01h-3.83v13.08c0,0.99,0,1.98,1.41,1.98
			c0.78,0,1.46-0.17,2.2-0.43v3.01c-1.16,0.26-2.32,0.43-3.49,0.43c-3.65,0-3.65-1.72-3.65-4.05v-14.02h-3.4V142.77z"/>
		<path class="st0" d="M662.17,132.7h3.52v4.05h-3.52V132.7z M662.17,142.77h3.52v20.57h-3.52V142.77z"/>
		<path class="st0" d="M679.85,142.26c6.28,0,10.07,4.56,10.07,10.8c0,6.23-3.79,10.8-10.07,10.8c-6.28,0-10.07-4.57-10.07-10.8
			C669.78,146.82,673.57,142.26,679.85,142.26 M679.85,161.1c5.08,0,6.28-4.64,6.28-8.04c0-3.4-1.2-8.05-6.28-8.05
			c-5.08,0-6.28,4.65-6.28,8.05C673.57,156.45,674.77,161.1,679.85,161.1"/>
		<path class="st0" d="M693.23,142.77h3.53v2.76h0.09c1.34-2.06,3.36-3.27,6.02-3.27c4.13,0,7.27,1.8,7.27,7.52v13.55h-3.52v-13.21
			c0-3.52-1.85-4.6-4.35-4.6c-3.27,0-5.51,2.1-5.51,5.42v12.39h-3.53V142.77z"/>
		<polygon class="st0" points="298.51,15.13 265.94,15.13 260.48,40.76 287.06,40.76 284.34,53.56 257.76,53.56 248.62,96.64 
			232.68,96.64 252.85,2.45 303.29,2.45 		"/>
		<path class="st0" d="M344.45,47.02l-5.59,27.26c-1.77,8.32-0.95,11.86,2.45,15.54l-12.27,9.13c-3.68-3-5.18-6.81-5.18-11.31
			c-4.9,6.68-11.86,10.63-20.72,10.63c-10.77,0-17.99-7.22-17.99-21.95c0-15.27,5.72-29.99,14.59-39.12
			c7.36-7.5,16.36-11.18,27.4-11.18c7.91,0,15.94,1.63,21.4,5.18C347.31,35.03,345.4,42.11,344.45,47.02 M325.37,37.89
			c-6.13,0-10.49,1.36-15.81,7.63c-6.13,7.36-8.99,20.72-8.99,30.4c0,7.5,2.45,10.36,7.5,10.36c6.27,0,13.22-6.27,16.36-13.22
			l7.36-33.8C330.41,38.44,327.69,37.89,325.37,37.89"/>
		<path class="st0" d="M401.16,41.71c-5.72-3.27-11.04-4.77-16.49-4.77c-7.22,0-12.54,2.72-12.54,8.45c0,3.68,1.91,6,7.36,8.04
			l8.18,3.13c8.45,3.27,14.04,8.18,14.04,16.36c0,14.18-11.58,25.76-31.89,25.76c-9.54,0-18.41-2.73-25.49-7.23l6-11.04
			c5.73,3.95,13.77,6.82,21.53,6.82c7.5,0,13.23-4.23,13.23-9.95c0-4.36-2.46-6.54-8.73-9l-7.9-3c-8.18-3.13-12.95-7.91-12.95-16.49
			c0-12,9.95-23.44,30.12-23.44c8.18,0,16.08,2.45,21.54,5.86L401.16,41.71z"/>
		<path class="st0" d="M449.69,38.3h-13.22l-7.78,37.07c-0.54,2.58-0.81,4.91-0.81,6.68c0,4.36,2.04,5.73,6.41,5.73
			c2.18,0,4.77-0.41,6.95-1.36v9.27c-4.77,1.91-9.55,2.86-14.31,2.86c-9.27,0-14.45-4.64-14.45-11.59c0-2.46,0.28-6,0.96-9.41
			l8.31-39.25h-7.77l2.18-10.64h7.77c1.37-6.27,2.73-11.58,4.5-16.76l15.95-3.68c-1.91,5.86-4.22,13.9-5.59,20.45h16.49L449.69,38.3
			z"/>
		<path class="st0" d="M522.48,19.9c-6.54-4.91-12.68-6.96-20.86-6.96c-10.22,0-18.13,6-18.13,13.63c0,5.45,2.32,8.86,10.08,11.72
			l10.5,3.81c11.86,4.36,17.18,11.45,17.18,22.35c0,18.81-16.08,34.08-42.66,34.08c-12,0-20.99-3-28.76-8.05l8.04-12.13
			c7.5,4.77,14.04,7.23,23.58,7.23c13.36,0,21.81-7.09,21.81-17.04c0-6-3-9.68-11.18-12.81l-9.41-3.54
			c-10.9-4.09-16.63-9.82-16.63-20.86C466.05,13.63,482.67,0,503.94,0c10.63,0,20.86,3.27,27.53,8.86L522.48,19.9z"/>
		<path class="st0" d="M564.19,38.3h-13.22l-7.77,37.07c-0.54,2.58-0.81,4.91-0.81,6.68c0,4.36,2.04,5.73,6.41,5.73
			c2.18,0,4.77-0.41,6.95-1.36v9.27c-4.77,1.91-9.55,2.86-14.31,2.86c-9.27,0-14.45-4.64-14.45-11.59c0-2.46,0.28-6,0.95-9.41
			l8.31-39.25h-7.77l2.18-10.64h7.77c1.36-6.27,2.73-11.58,4.5-16.76l15.95-3.68c-1.91,5.86-4.22,13.9-5.59,20.45h16.49L564.19,38.3
			z"/>
		<path class="st0" d="M620.08,47.02l-5.59,27.26c-1.77,8.32-0.96,11.86,2.46,15.54l-12.27,9.13c-3.68-3-5.18-6.81-5.18-11.31
			c-4.91,6.68-11.86,10.63-20.72,10.63c-10.77,0-17.99-7.22-17.99-21.95c0-15.27,5.73-29.99,14.59-39.12
			c7.36-7.5,16.36-11.18,27.4-11.18c7.91,0,15.94,1.63,21.39,5.18C622.94,35.03,621.03,42.11,620.08,47.02 M601,37.89
			c-6.13,0-10.5,1.36-15.81,7.63c-6.14,7.36-9,20.72-9,30.4c0,7.5,2.45,10.36,7.5,10.36c6.27,0,13.22-6.27,16.35-13.22l7.36-33.8
			C606.04,38.44,603.31,37.89,601,37.89"/>
		<path class="st0" d="M670.11,41.3c-1.36-0.82-2.73-1.09-4.77-1.09c-4.77,0-10.08,3.68-16.08,12.13l-9.41,44.3h-14.86l9.82-46.07
			c2.04-9.41,1.91-14.58,0.54-19.35l13.9-5.73c1.5,3.54,2.04,8.73,1.09,13.49c6.27-7.91,13.9-12.95,20.58-12.95
			c2.45,0,3.68,0.28,5.72,1.09L670.11,41.3z"/>
		<path class="st0" d="M714.41,38.3h-13.22l-7.78,37.07c-0.54,2.58-0.81,4.91-0.81,6.68c0,4.36,2.04,5.73,6.41,5.73
			c2.18,0,4.77-0.41,6.95-1.36v9.27c-4.77,1.91-9.55,2.86-14.31,2.86c-9.27,0-14.45-4.64-14.45-11.59c0-2.46,0.28-6,0.95-9.41
			l8.31-39.25h-7.77l2.18-10.64h7.77c1.37-6.27,2.73-11.58,4.5-16.76l15.95-3.68c-1.91,5.86-4.22,13.9-5.59,20.45H720L714.41,38.3z"
			/>
	</g>
</g>
</svg>
