<svg id="base_map" data-name="base map" xmlns="http://www.w3.org/2000/svg" viewBox="0 0 437.51 287.39"><defs><style>.cls-1{fill:#015067;stroke:#fff;stroke-width:0.84px;}.cls-2{fill:none;}</style></defs><path class="cls-1" d="M590.52,370a27.33,27.33,0,0,1,14.59-7.57s-.5-18.55-.5-19.76-.88-1.21-.88-2.09,1-1,1-2.09S604,337,604,335.76v-4.62c0-2.09-.77-3.3-.77-4.29s.22-1.87-.77-2.64-.88-2.09-1.54-2.74-.55-1.76-.55-2.86a2.51,2.51,0,0,0-1.1-2.31,2.84,2.84,0,0,1-1-2.31,7,7,0,0,0-1.43-3.52,9.07,9.07,0,0,1-1.87-5.28v-7.95c-6.52.12-13.06.18-19.56.18v57c0,2,1.09,2,1.2,3.73s-.33,2.09,1,3.08,2.2,1.1,2.53,2.53,1.1,1.43.88,2.53,0,1.43,1,1.65,4.85-5.26,5-3.72S590.52,370,590.52,370Z" transform="translate(-168.03 -83.25)"/><rect class="cls-2" width="18.83" height="32.37"/></svg>