<svg id="base_map" data-name="base map" xmlns="http://www.w3.org/2000/svg" viewBox="0 0 150.35 85.27"><defs><style>.cls-1{fill:#015067;stroke:#fff;stroke-width:0.84px;}.cls-2{fill:none;}</style></defs><path class="cls-1" d="M311.82,139.9c0-.88-.65-2.85-.65-4.6s.87-3.06.87-5.25V110.56h-2.4a4.39,4.39,0,0,1,0-3.06,4.89,4.89,0,0,0,.87-2.85c0-1.31-1.31-2.63,0-3.5s.44-1.32-.44-2.85S307,95.68,308.76,95s.66-1.75-1.31-2.85-2.85-1.53-3.07-3.5.66-2.41.88-3.94c0-.3.06-.82.08-1.45-4.57,0-9.15.18-13.8.44-4.8.27-9.56.34-14.31.31a2.69,2.69,0,0,0,.66,2.23c1.1,1.1.66,1.75-.22,2s-2.63,1.75-1.31,2,3.5,1.32,2.63,2.41-2.19,3.5-1.1,4.82,2,2.19,2.19,3.5.88,3.06-.88,4.6-1.31,2.62,0,2,1.76.44,1.32,2-1.53,2.41-2.41,3.5-1.31,3.07.44,2,2,0,2,1.75.22,3.29,1.09,4.16-.87,2,0,2.41a3.77,3.77,0,0,1,2,3.94c-.44,2,2.19,2.41,1.54,3.5s-3.07,1.54-1.76,2.63,0,3.5,2.41,3.94a3.91,3.91,0,0,1,3.29,3.07c.21.87,2.18,3.72,1.31,4.81s-1.1,2.85.22,2.85,2.19.87,1.53,2.19,1.75,2,2.41,1.31,1.75.22,1.75,1.32.22,1.75,2,2,1.75.65,2,1.75a2,2,0,0,0,2.19,1.75c1.31,0,.88,1.75.66,2.84s.43,1.1,1.75,1.1,2.19,1.53,2.19,2.63,1.09.87,2,1.53l.87.66.66.65h5v-3.94c0-.87-1.76-2-2.19-3.06s1.09-2.19,1.31-3.51,1.75-2.4,1.1-3.72-3.07-2-2.41-2.84,1.31-1.75,2.19-1.1,2.4.22,2.4-1.53h-6.13Z" transform="translate(-168.03 -82.85)"/><rect class="cls-2" y="0.4" width="18.83" height="32.37"/></svg>