<svg id="base_map" data-name="base map" xmlns="http://www.w3.org/2000/svg" viewBox="0 0 378.72 362.79"><defs><style>.cls-1{fill:#015067;stroke:#fff;stroke-width:0.84px;}.cls-2{fill:none;}</style></defs><path class="cls-1" d="M511.72,409a9.14,9.14,0,0,1,1.94,4.51c.28,1.68,1.12,1.82,2.1,2.24S517,418,517,419.44s-.14,2.38,1,2.8a15.85,15.85,0,0,0,3.37.42c.84.14,2.38,0,2.94.84s2.66,1.82,2.52,3.22-1.12,2.11-.28,3.37,1.83,2.66.42,3.36c-.84.42-1,1-1,2.1a16.76,16.76,0,0,1-.14,2.11c.84,1,1.69,2.52.84,3.78s-.84,2,.14,2.52a2,2,0,0,1,1,1.63h0a1.42,1.42,0,0,0,1.79-1.34c.15-1.2,1.64-1.94,2.54-3.28a37.74,37.74,0,0,1,3.73-5.38c1.34-1.49.89-1.49,3-4.48a41.67,41.67,0,0,0,4-7.31c.9-1.93,1.05-3.43,1.49-4.17s1.94-.6,1.94-.6v-2.84c0-1.79-.74-3.12-2.24-3.12s-1.64-.75-1.64-2.39,0-2.39-1-2.39-1.79-.45-1.79-1.49-.15-2.83-.15-4.18-1.05-1.94-.45-3.28a10,10,0,0,0-2.65-.79c-1.34-.15-1.67-.9-4.07-.42-1.4.28-.84.42-2.38.14s-1.4-.42-2.25.42a4.58,4.58,0,0,1-1.63,1.1,11.44,11.44,0,0,1-2.09.75c-1.19.3-3.73,2.24-4.77,2.24H515c0,1.94-.6,3-1.2,3h-2.08V409Z" transform="translate(-168.03 -83.25)"/><rect class="cls-2" width="18.83" height="32.37"/></svg>