<svg id="base_map" data-name="base map" xmlns="http://www.w3.org/2000/svg" viewBox="0 0 305.74 233.65"><defs><style>.cls-1{fill:#015067;stroke:#fff;stroke-width:0.84px;}.cls-2{fill:none;}</style></defs><path class="cls-1" d="M418.26,303.64s.09,2.27.09,3.15,1.57,2.18,2.27,2.79a3.74,3.74,0,0,1,1.4,2.71v4h10.66c.87,0,1-.44,1.66-.44s.78.61,1.48.61l25.07-.08c-.52-.79.09-1.58,1.05-1.93s.61-1,.61-1.74v-5.07c0-.87-1.05-1.05-1.05-1.92v-2.88c0-.62.79-1.14,1.84-1.14s1.92-1.14,2.44-2.27,1.4-.61,2.1-1.57,1.22-3.06,2.33-4.18c.7-1-.28-2,.7-3.5s-.42-2.1-.84-3.23a4,4,0,0,1,1.82-4.2,2.77,2.77,0,0,0,1.26-3.5,1.73,1.73,0,0,0-2.66-.71c-1.13.7-2-.42-2.53-1.12a3,3,0,0,0-3.08-1,3.81,3.81,0,0,1-3.79-1.82c-.84-1.26-2-1.3-2.1-2a14.13,14.13,0,0,0-1.76-.73c-1-.32-.64-1.28-1.28-2.13s-1.71-.11-2.56-.86a2.09,2.09,0,0,0-2.67.22,3.17,3.17,0,0,0-1.28,2.24,4.29,4.29,0,0,0,.86,2.77,1.32,1.32,0,0,1-.64,2c-.86.42-.75-1.07-.75-1.82s-1,0-1.6.75-1.92.53-2.67.32-1-1.17-.21-1.39.43-1.06.32-2.13-1.38-1.39-2.13-2.13-.11-1.5,1.17-1.82-.11-2.24-.89-3c-1.43-1.44-2.28-1.87-3-1.23s-.67,1.31-1.65,1.55a1.2,1.2,0,0,1-1.46-.82,1.5,1.5,0,0,1-1,.52c-.79,0-1.05,1.05-2,1.31s-1.13,1.14-1.83,1.14h-2.8c-1,0-1.05-1.22-1.22-2s-.79-.87-1.75-.52-1.4-.35-2.09-.09-1.05.87-1.05,2.09v16c0,1.48.78,1.14.78,2s-1,1.05-1,2.27.87,1.57.87,3.06v6.2c0,1.66.52,3.06,1,5.42s-.18,1.74-1.31,1.74Z" transform="translate(-168.03 -83.25)"/><rect class="cls-2" width="18.83" height="32.37"/></svg>